<?xml version="1.0" encoding="utf-8" standalone="no"?>
<!DOCTYPE svg PUBLIC "-//W3C//DTD SVG 1.1//EN"
  "http://www.w3.org/Graphics/SVG/1.1/DTD/svg11.dtd">
<!-- Created with matplotlib (http://matplotlib.org/) -->
<svg height="370pt" version="1.1" viewBox="0 0 432 370" width="432pt" xmlns="http://www.w3.org/2000/svg" xmlns:xlink="http://www.w3.org/1999/xlink">
 <defs>
  <style type="text/css">
*{stroke-linecap:butt;stroke-linejoin:round;}
  </style>
 </defs>
 <g id="figure_1">
  <g id="patch_1">
   <path d="M 0 370.70175 
L 432.443211 370.70175 
L 432.443211 0 
L 0 0 
z
" style="fill:#ffffff;"/>
  </g>
  <g id="axes_1">
   <g id="patch_2">
    <path d="M 56.50625 288.430125 
L 413.62625 288.430125 
L 413.62625 22.318125 
L 56.50625 22.318125 
z
" style="fill:#ffffff;"/>
   </g>
   <g id="patch_3">
    <path clip-path="url(#p51085b6092)" d="M 72.738977 288.430125 
L 105.204432 288.430125 
L 105.204432 250.201335 
L 72.738977 250.201335 
z
" style="fill:#ff7f0e;"/>
   </g>
   <g id="patch_4">
    <path clip-path="url(#p51085b6092)" d="M 105.204432 288.430125 
L 137.669886 288.430125 
L 137.669886 250.201335 
L 105.204432 250.201335 
z
" style="fill:#ff7f0e;"/>
   </g>
   <g id="patch_5">
    <path clip-path="url(#p51085b6092)" d="M 137.669886 288.430125 
L 170.135341 288.430125 
L 170.135341 129.143502 
L 137.669886 129.143502 
z
" style="fill:#ff7f0e;"/>
   </g>
   <g id="patch_6">
    <path clip-path="url(#p51085b6092)" d="M 170.135341 288.430125 
L 202.600795 288.430125 
L 202.600795 52.685922 
L 170.135341 52.685922 
z
" style="fill:#ff7f0e;"/>
   </g>
   <g id="patch_7">
    <path clip-path="url(#p51085b6092)" d="M 202.600795 288.430125 
L 235.06625 288.430125 
L 235.06625 39.942993 
L 202.600795 39.942993 
z
" style="fill:#ff7f0e;"/>
   </g>
   <g id="patch_8">
    <path clip-path="url(#p51085b6092)" d="M 235.06625 288.430125 
L 267.531705 288.430125 
L 267.531705 84.543247 
L 235.06625 84.543247 
z
" style="fill:#ff7f0e;"/>
   </g>
   <g id="patch_9">
    <path clip-path="url(#p51085b6092)" d="M 267.531705 288.430125 
L 299.997159 288.430125 
L 299.997159 135.514967 
L 267.531705 135.514967 
z
" style="fill:#ff7f0e;"/>
   </g>
   <g id="patch_10">
    <path clip-path="url(#p51085b6092)" d="M 299.997159 288.430125 
L 332.462614 288.430125 
L 332.462614 218.344011 
L 299.997159 218.344011 
z
" style="fill:#ff7f0e;"/>
   </g>
   <g id="patch_11">
    <path clip-path="url(#p51085b6092)" d="M 332.462614 288.430125 
L 364.928068 288.430125 
L 364.928068 250.201335 
L 332.462614 250.201335 
z
" style="fill:#ff7f0e;"/>
   </g>
   <g id="patch_12">
    <path clip-path="url(#p51085b6092)" d="M 364.928068 288.430125 
L 397.393523 288.430125 
L 397.393523 262.944265 
L 364.928068 262.944265 
z
" style="fill:#ff7f0e;"/>
   </g>
   <g id="matplotlib.axis_1">
    <g id="xtick_1">
     <g id="line2d_1">
      <defs>
       <path d="M 0 0 
L 0 3.5 
" id="m1ab1f1259b" style="stroke:#000000;stroke-width:0.8;"/>
      </defs>
      <g>
       <use style="stroke:#000000;stroke-width:0.8;" x="64.215132" xlink:href="#m1ab1f1259b" y="288.430125"/>
      </g>
     </g>
     <g id="text_1">
      <!-- 1180 -->
      <defs>
       <path d="M 12.40625 8.296875 
L 28.515625 8.296875 
L 28.515625 63.921875 
L 10.984375 60.40625 
L 10.984375 69.390625 
L 28.421875 72.90625 
L 38.28125 72.90625 
L 38.28125 8.296875 
L 54.390625 8.296875 
L 54.390625 0 
L 12.40625 0 
z
" id="DejaVuSans-31"/>
       <path d="M 31.78125 34.625 
Q 24.75 34.625 20.71875 30.859375 
Q 16.703125 27.09375 16.703125 20.515625 
Q 16.703125 13.921875 20.71875 10.15625 
Q 24.75 6.390625 31.78125 6.390625 
Q 38.8125 6.390625 42.859375 10.171875 
Q 46.921875 13.96875 46.921875 20.515625 
Q 46.921875 27.09375 42.890625 30.859375 
Q 38.875 34.625 31.78125 34.625 
z
M 21.921875 38.8125 
Q 15.578125 40.375 12.03125 44.71875 
Q 8.5 49.078125 8.5 55.328125 
Q 8.5 64.0625 14.71875 69.140625 
Q 20.953125 74.21875 31.78125 74.21875 
Q 42.671875 74.21875 48.875 69.140625 
Q 55.078125 64.0625 55.078125 55.328125 
Q 55.078125 49.078125 51.53125 44.71875 
Q 48 40.375 41.703125 38.8125 
Q 48.828125 37.15625 52.796875 32.3125 
Q 56.78125 27.484375 56.78125 20.515625 
Q 56.78125 9.90625 50.3125 4.234375 
Q 43.84375 -1.421875 31.78125 -1.421875 
Q 19.734375 -1.421875 13.25 4.234375 
Q 6.78125 9.90625 6.78125 20.515625 
Q 6.78125 27.484375 10.78125 32.3125 
Q 14.796875 37.15625 21.921875 38.8125 
z
M 18.3125 54.390625 
Q 18.3125 48.734375 21.84375 45.5625 
Q 25.390625 42.390625 31.78125 42.390625 
Q 38.140625 42.390625 41.71875 45.5625 
Q 45.3125 48.734375 45.3125 54.390625 
Q 45.3125 60.0625 41.71875 63.234375 
Q 38.140625 66.40625 31.78125 66.40625 
Q 25.390625 66.40625 21.84375 63.234375 
Q 18.3125 60.0625 18.3125 54.390625 
z
" id="DejaVuSans-38"/>
       <path d="M 31.78125 66.40625 
Q 24.171875 66.40625 20.328125 58.90625 
Q 16.5 51.421875 16.5 36.375 
Q 16.5 21.390625 20.328125 13.890625 
Q 24.171875 6.390625 31.78125 6.390625 
Q 39.453125 6.390625 43.28125 13.890625 
Q 47.125 21.390625 47.125 36.375 
Q 47.125 51.421875 43.28125 58.90625 
Q 39.453125 66.40625 31.78125 66.40625 
z
M 31.78125 74.21875 
Q 44.046875 74.21875 50.515625 64.515625 
Q 56.984375 54.828125 56.984375 36.375 
Q 56.984375 17.96875 50.515625 8.265625 
Q 44.046875 -1.421875 31.78125 -1.421875 
Q 19.53125 -1.421875 13.0625 8.265625 
Q 6.59375 17.96875 6.59375 36.375 
Q 6.59375 54.828125 13.0625 64.515625 
Q 19.53125 74.21875 31.78125 74.21875 
z
" id="DejaVuSans-30"/>
      </defs>
      <g transform="translate(51.490132 303.028562)scale(0.1 -0.1)">
       <use xlink:href="#DejaVuSans-31"/>
       <use x="63.623047" xlink:href="#DejaVuSans-31"/>
       <use x="127.246094" xlink:href="#DejaVuSans-38"/>
       <use x="190.869141" xlink:href="#DejaVuSans-30"/>
      </g>
     </g>
    </g>
    <g id="xtick_2">
     <g id="line2d_2">
      <g>
       <use style="stroke:#000000;stroke-width:0.8;" x="107.753017" xlink:href="#m1ab1f1259b" y="288.430125"/>
      </g>
     </g>
     <g id="text_2">
      <!-- 1200 -->
      <defs>
       <path d="M 19.1875 8.296875 
L 53.609375 8.296875 
L 53.609375 0 
L 7.328125 0 
L 7.328125 8.296875 
Q 12.9375 14.109375 22.625 23.890625 
Q 32.328125 33.6875 34.8125 36.53125 
Q 39.546875 41.84375 41.421875 45.53125 
Q 43.3125 49.21875 43.3125 52.78125 
Q 43.3125 58.59375 39.234375 62.25 
Q 35.15625 65.921875 28.609375 65.921875 
Q 23.96875 65.921875 18.8125 64.3125 
Q 13.671875 62.703125 7.8125 59.421875 
L 7.8125 69.390625 
Q 13.765625 71.78125 18.9375 73 
Q 24.125 74.21875 28.421875 74.21875 
Q 39.75 74.21875 46.484375 68.546875 
Q 53.21875 62.890625 53.21875 53.421875 
Q 53.21875 48.921875 51.53125 44.890625 
Q 49.859375 40.875 45.40625 35.40625 
Q 44.1875 33.984375 37.640625 27.21875 
Q 31.109375 20.453125 19.1875 8.296875 
z
" id="DejaVuSans-32"/>
      </defs>
      <g transform="translate(95.028017 303.028562)scale(0.1 -0.1)">
       <use xlink:href="#DejaVuSans-31"/>
       <use x="63.623047" xlink:href="#DejaVuSans-32"/>
       <use x="127.246094" xlink:href="#DejaVuSans-30"/>
       <use x="190.869141" xlink:href="#DejaVuSans-30"/>
      </g>
     </g>
    </g>
    <g id="xtick_3">
     <g id="line2d_3">
      <g>
       <use style="stroke:#000000;stroke-width:0.8;" x="151.290902" xlink:href="#m1ab1f1259b" y="288.430125"/>
      </g>
     </g>
     <g id="text_3">
      <!-- 1220 -->
      <g transform="translate(138.565902 303.028562)scale(0.1 -0.1)">
       <use xlink:href="#DejaVuSans-31"/>
       <use x="63.623047" xlink:href="#DejaVuSans-32"/>
       <use x="127.246094" xlink:href="#DejaVuSans-32"/>
       <use x="190.869141" xlink:href="#DejaVuSans-30"/>
      </g>
     </g>
    </g>
    <g id="xtick_4">
     <g id="line2d_4">
      <g>
       <use style="stroke:#000000;stroke-width:0.8;" x="194.828786" xlink:href="#m1ab1f1259b" y="288.430125"/>
      </g>
     </g>
     <g id="text_4">
      <!-- 1240 -->
      <defs>
       <path d="M 37.796875 64.3125 
L 12.890625 25.390625 
L 37.796875 25.390625 
z
M 35.203125 72.90625 
L 47.609375 72.90625 
L 47.609375 25.390625 
L 58.015625 25.390625 
L 58.015625 17.1875 
L 47.609375 17.1875 
L 47.609375 0 
L 37.796875 0 
L 37.796875 17.1875 
L 4.890625 17.1875 
L 4.890625 26.703125 
z
" id="DejaVuSans-34"/>
      </defs>
      <g transform="translate(182.103786 303.028562)scale(0.1 -0.1)">
       <use xlink:href="#DejaVuSans-31"/>
       <use x="63.623047" xlink:href="#DejaVuSans-32"/>
       <use x="127.246094" xlink:href="#DejaVuSans-34"/>
       <use x="190.869141" xlink:href="#DejaVuSans-30"/>
      </g>
     </g>
    </g>
    <g id="xtick_5">
     <g id="line2d_5">
      <g>
       <use style="stroke:#000000;stroke-width:0.8;" x="238.366671" xlink:href="#m1ab1f1259b" y="288.430125"/>
      </g>
     </g>
     <g id="text_5">
      <!-- 1260 -->
      <defs>
       <path d="M 33.015625 40.375 
Q 26.375 40.375 22.484375 35.828125 
Q 18.609375 31.296875 18.609375 23.390625 
Q 18.609375 15.53125 22.484375 10.953125 
Q 26.375 6.390625 33.015625 6.390625 
Q 39.65625 6.390625 43.53125 10.953125 
Q 47.40625 15.53125 47.40625 23.390625 
Q 47.40625 31.296875 43.53125 35.828125 
Q 39.65625 40.375 33.015625 40.375 
z
M 52.59375 71.296875 
L 52.59375 62.3125 
Q 48.875 64.0625 45.09375 64.984375 
Q 41.3125 65.921875 37.59375 65.921875 
Q 27.828125 65.921875 22.671875 59.328125 
Q 17.53125 52.734375 16.796875 39.40625 
Q 19.671875 43.65625 24.015625 45.921875 
Q 28.375 48.1875 33.59375 48.1875 
Q 44.578125 48.1875 50.953125 41.515625 
Q 57.328125 34.859375 57.328125 23.390625 
Q 57.328125 12.15625 50.6875 5.359375 
Q 44.046875 -1.421875 33.015625 -1.421875 
Q 20.359375 -1.421875 13.671875 8.265625 
Q 6.984375 17.96875 6.984375 36.375 
Q 6.984375 53.65625 15.1875 63.9375 
Q 23.390625 74.21875 37.203125 74.21875 
Q 40.921875 74.21875 44.703125 73.484375 
Q 48.484375 72.75 52.59375 71.296875 
z
" id="DejaVuSans-36"/>
      </defs>
      <g transform="translate(225.641671 303.028562)scale(0.1 -0.1)">
       <use xlink:href="#DejaVuSans-31"/>
       <use x="63.623047" xlink:href="#DejaVuSans-32"/>
       <use x="127.246094" xlink:href="#DejaVuSans-36"/>
       <use x="190.869141" xlink:href="#DejaVuSans-30"/>
      </g>
     </g>
    </g>
    <g id="xtick_6">
     <g id="line2d_6">
      <g>
       <use style="stroke:#000000;stroke-width:0.8;" x="281.904556" xlink:href="#m1ab1f1259b" y="288.430125"/>
      </g>
     </g>
     <g id="text_6">
      <!-- 1280 -->
      <g transform="translate(269.179556 303.028562)scale(0.1 -0.1)">
       <use xlink:href="#DejaVuSans-31"/>
       <use x="63.623047" xlink:href="#DejaVuSans-32"/>
       <use x="127.246094" xlink:href="#DejaVuSans-38"/>
       <use x="190.869141" xlink:href="#DejaVuSans-30"/>
      </g>
     </g>
    </g>
    <g id="xtick_7">
     <g id="line2d_7">
      <g>
       <use style="stroke:#000000;stroke-width:0.8;" x="325.442441" xlink:href="#m1ab1f1259b" y="288.430125"/>
      </g>
     </g>
     <g id="text_7">
      <!-- 1300 -->
      <defs>
       <path d="M 40.578125 39.3125 
Q 47.65625 37.796875 51.625 33 
Q 55.609375 28.21875 55.609375 21.1875 
Q 55.609375 10.40625 48.1875 4.484375 
Q 40.765625 -1.421875 27.09375 -1.421875 
Q 22.515625 -1.421875 17.65625 -0.515625 
Q 12.796875 0.390625 7.625 2.203125 
L 7.625 11.71875 
Q 11.71875 9.328125 16.59375 8.109375 
Q 21.484375 6.890625 26.8125 6.890625 
Q 36.078125 6.890625 40.9375 10.546875 
Q 45.796875 14.203125 45.796875 21.1875 
Q 45.796875 27.640625 41.28125 31.265625 
Q 36.765625 34.90625 28.71875 34.90625 
L 20.21875 34.90625 
L 20.21875 43.015625 
L 29.109375 43.015625 
Q 36.375 43.015625 40.234375 45.921875 
Q 44.09375 48.828125 44.09375 54.296875 
Q 44.09375 59.90625 40.109375 62.90625 
Q 36.140625 65.921875 28.71875 65.921875 
Q 24.65625 65.921875 20.015625 65.03125 
Q 15.375 64.15625 9.8125 62.3125 
L 9.8125 71.09375 
Q 15.4375 72.65625 20.34375 73.4375 
Q 25.25 74.21875 29.59375 74.21875 
Q 40.828125 74.21875 47.359375 69.109375 
Q 53.90625 64.015625 53.90625 55.328125 
Q 53.90625 49.265625 50.4375 45.09375 
Q 46.96875 40.921875 40.578125 39.3125 
z
" id="DejaVuSans-33"/>
      </defs>
      <g transform="translate(312.717441 303.028562)scale(0.1 -0.1)">
       <use xlink:href="#DejaVuSans-31"/>
       <use x="63.623047" xlink:href="#DejaVuSans-33"/>
       <use x="127.246094" xlink:href="#DejaVuSans-30"/>
       <use x="190.869141" xlink:href="#DejaVuSans-30"/>
      </g>
     </g>
    </g>
    <g id="xtick_8">
     <g id="line2d_8">
      <g>
       <use style="stroke:#000000;stroke-width:0.8;" x="368.980326" xlink:href="#m1ab1f1259b" y="288.430125"/>
      </g>
     </g>
     <g id="text_8">
      <!-- 1320 -->
      <g transform="translate(356.255326 303.028562)scale(0.1 -0.1)">
       <use xlink:href="#DejaVuSans-31"/>
       <use x="63.623047" xlink:href="#DejaVuSans-33"/>
       <use x="127.246094" xlink:href="#DejaVuSans-32"/>
       <use x="190.869141" xlink:href="#DejaVuSans-30"/>
      </g>
     </g>
    </g>
    <g id="xtick_9">
     <g id="line2d_9">
      <g>
       <use style="stroke:#000000;stroke-width:0.8;" x="412.518211" xlink:href="#m1ab1f1259b" y="288.430125"/>
      </g>
     </g>
     <g id="text_9">
      <!-- 1340 -->
      <g transform="translate(399.793211 303.028562)scale(0.1 -0.1)">
       <use xlink:href="#DejaVuSans-31"/>
       <use x="63.623047" xlink:href="#DejaVuSans-33"/>
       <use x="127.246094" xlink:href="#DejaVuSans-34"/>
       <use x="190.869141" xlink:href="#DejaVuSans-30"/>
      </g>
     </g>
    </g>
    <g id="text_10">
     <!-- Distance -->
     <defs>
      <path d="M 19.671875 64.796875 
L 19.671875 8.109375 
L 31.59375 8.109375 
Q 46.6875 8.109375 53.6875 14.9375 
Q 60.6875 21.78125 60.6875 36.53125 
Q 60.6875 51.171875 53.6875 57.984375 
Q 46.6875 64.796875 31.59375 64.796875 
z
M 9.8125 72.90625 
L 30.078125 72.90625 
Q 51.265625 72.90625 61.171875 64.09375 
Q 71.09375 55.28125 71.09375 36.53125 
Q 71.09375 17.671875 61.125 8.828125 
Q 51.171875 0 30.078125 0 
L 9.8125 0 
z
" id="DejaVuSans-44"/>
      <path d="M 9.421875 54.6875 
L 18.40625 54.6875 
L 18.40625 0 
L 9.421875 0 
z
M 9.421875 75.984375 
L 18.40625 75.984375 
L 18.40625 64.59375 
L 9.421875 64.59375 
z
" id="DejaVuSans-69"/>
      <path d="M 44.28125 53.078125 
L 44.28125 44.578125 
Q 40.484375 46.53125 36.375 47.5 
Q 32.28125 48.484375 27.875 48.484375 
Q 21.1875 48.484375 17.84375 46.4375 
Q 14.5 44.390625 14.5 40.28125 
Q 14.5 37.15625 16.890625 35.375 
Q 19.28125 33.59375 26.515625 31.984375 
L 29.59375 31.296875 
Q 39.15625 29.25 43.1875 25.515625 
Q 47.21875 21.78125 47.21875 15.09375 
Q 47.21875 7.46875 41.1875 3.015625 
Q 35.15625 -1.421875 24.609375 -1.421875 
Q 20.21875 -1.421875 15.453125 -0.5625 
Q 10.6875 0.296875 5.421875 2 
L 5.421875 11.28125 
Q 10.40625 8.6875 15.234375 7.390625 
Q 20.0625 6.109375 24.8125 6.109375 
Q 31.15625 6.109375 34.5625 8.28125 
Q 37.984375 10.453125 37.984375 14.40625 
Q 37.984375 18.0625 35.515625 20.015625 
Q 33.0625 21.96875 24.703125 23.78125 
L 21.578125 24.515625 
Q 13.234375 26.265625 9.515625 29.90625 
Q 5.8125 33.546875 5.8125 39.890625 
Q 5.8125 47.609375 11.28125 51.796875 
Q 16.75 56 26.8125 56 
Q 31.78125 56 36.171875 55.265625 
Q 40.578125 54.546875 44.28125 53.078125 
z
" id="DejaVuSans-73"/>
      <path d="M 18.3125 70.21875 
L 18.3125 54.6875 
L 36.8125 54.6875 
L 36.8125 47.703125 
L 18.3125 47.703125 
L 18.3125 18.015625 
Q 18.3125 11.328125 20.140625 9.421875 
Q 21.96875 7.515625 27.59375 7.515625 
L 36.8125 7.515625 
L 36.8125 0 
L 27.59375 0 
Q 17.1875 0 13.234375 3.875 
Q 9.28125 7.765625 9.28125 18.015625 
L 9.28125 47.703125 
L 2.6875 47.703125 
L 2.6875 54.6875 
L 9.28125 54.6875 
L 9.28125 70.21875 
z
" id="DejaVuSans-74"/>
      <path d="M 34.28125 27.484375 
Q 23.390625 27.484375 19.1875 25 
Q 14.984375 22.515625 14.984375 16.5 
Q 14.984375 11.71875 18.140625 8.90625 
Q 21.296875 6.109375 26.703125 6.109375 
Q 34.1875 6.109375 38.703125 11.40625 
Q 43.21875 16.703125 43.21875 25.484375 
L 43.21875 27.484375 
z
M 52.203125 31.203125 
L 52.203125 0 
L 43.21875 0 
L 43.21875 8.296875 
Q 40.140625 3.328125 35.546875 0.953125 
Q 30.953125 -1.421875 24.3125 -1.421875 
Q 15.921875 -1.421875 10.953125 3.296875 
Q 6 8.015625 6 15.921875 
Q 6 25.140625 12.171875 29.828125 
Q 18.359375 34.515625 30.609375 34.515625 
L 43.21875 34.515625 
L 43.21875 35.40625 
Q 43.21875 41.609375 39.140625 45 
Q 35.0625 48.390625 27.6875 48.390625 
Q 23 48.390625 18.546875 47.265625 
Q 14.109375 46.140625 10.015625 43.890625 
L 10.015625 52.203125 
Q 14.9375 54.109375 19.578125 55.046875 
Q 24.21875 56 28.609375 56 
Q 40.484375 56 46.34375 49.84375 
Q 52.203125 43.703125 52.203125 31.203125 
z
" id="DejaVuSans-61"/>
      <path d="M 54.890625 33.015625 
L 54.890625 0 
L 45.90625 0 
L 45.90625 32.71875 
Q 45.90625 40.484375 42.875 44.328125 
Q 39.84375 48.1875 33.796875 48.1875 
Q 26.515625 48.1875 22.3125 43.546875 
Q 18.109375 38.921875 18.109375 30.90625 
L 18.109375 0 
L 9.078125 0 
L 9.078125 54.6875 
L 18.109375 54.6875 
L 18.109375 46.1875 
Q 21.34375 51.125 25.703125 53.5625 
Q 30.078125 56 35.796875 56 
Q 45.21875 56 50.046875 50.171875 
Q 54.890625 44.34375 54.890625 33.015625 
z
" id="DejaVuSans-6e"/>
      <path d="M 48.78125 52.59375 
L 48.78125 44.1875 
Q 44.96875 46.296875 41.140625 47.34375 
Q 37.3125 48.390625 33.40625 48.390625 
Q 24.65625 48.390625 19.8125 42.84375 
Q 14.984375 37.3125 14.984375 27.296875 
Q 14.984375 17.28125 19.8125 11.734375 
Q 24.65625 6.203125 33.40625 6.203125 
Q 37.3125 6.203125 41.140625 7.25 
Q 44.96875 8.296875 48.78125 10.40625 
L 48.78125 2.09375 
Q 45.015625 0.34375 40.984375 -0.53125 
Q 36.96875 -1.421875 32.421875 -1.421875 
Q 20.0625 -1.421875 12.78125 6.34375 
Q 5.515625 14.109375 5.515625 27.296875 
Q 5.515625 40.671875 12.859375 48.328125 
Q 20.21875 56 33.015625 56 
Q 37.15625 56 41.109375 55.140625 
Q 45.0625 54.296875 48.78125 52.59375 
z
" id="DejaVuSans-63"/>
      <path d="M 56.203125 29.59375 
L 56.203125 25.203125 
L 14.890625 25.203125 
Q 15.484375 15.921875 20.484375 11.0625 
Q 25.484375 6.203125 34.421875 6.203125 
Q 39.59375 6.203125 44.453125 7.46875 
Q 49.3125 8.734375 54.109375 11.28125 
L 54.109375 2.78125 
Q 49.265625 0.734375 44.1875 -0.34375 
Q 39.109375 -1.421875 33.890625 -1.421875 
Q 20.796875 -1.421875 13.15625 6.1875 
Q 5.515625 13.8125 5.515625 26.8125 
Q 5.515625 40.234375 12.765625 48.109375 
Q 20.015625 56 32.328125 56 
Q 43.359375 56 49.78125 48.890625 
Q 56.203125 41.796875 56.203125 29.59375 
z
M 47.21875 32.234375 
Q 47.125 39.59375 43.09375 43.984375 
Q 39.0625 48.390625 32.421875 48.390625 
Q 24.90625 48.390625 20.390625 44.140625 
Q 15.875 39.890625 15.1875 32.171875 
z
" id="DejaVuSans-65"/>
     </defs>
     <g transform="translate(213.20375 316.706687)scale(0.1 -0.1)">
      <use xlink:href="#DejaVuSans-44"/>
      <use x="77.001953" xlink:href="#DejaVuSans-69"/>
      <use x="104.785156" xlink:href="#DejaVuSans-73"/>
      <use x="156.884766" xlink:href="#DejaVuSans-74"/>
      <use x="196.09375" xlink:href="#DejaVuSans-61"/>
      <use x="257.373047" xlink:href="#DejaVuSans-6e"/>
      <use x="320.751953" xlink:href="#DejaVuSans-63"/>
      <use x="375.732422" xlink:href="#DejaVuSans-65"/>
     </g>
    </g>
   </g>
   <g id="matplotlib.axis_2">
    <g id="ytick_1">
     <g id="line2d_10">
      <defs>
       <path d="M 0 0 
L -3.5 0 
" id="mfdc4e9e2b0" style="stroke:#000000;stroke-width:0.8;"/>
      </defs>
      <g>
       <use style="stroke:#000000;stroke-width:0.8;" x="56.50625" xlink:href="#mfdc4e9e2b0" y="288.430125"/>
      </g>
     </g>
     <g id="text_11">
      <!-- 0.000 -->
      <defs>
       <path d="M 10.6875 12.40625 
L 21 12.40625 
L 21 0 
L 10.6875 0 
z
" id="DejaVuSans-2e"/>
      </defs>
      <g transform="translate(20.878125 292.229344)scale(0.1 -0.1)">
       <use xlink:href="#DejaVuSans-30"/>
       <use x="63.623047" xlink:href="#DejaVuSans-2e"/>
       <use x="95.410156" xlink:href="#DejaVuSans-30"/>
       <use x="159.033203" xlink:href="#DejaVuSans-30"/>
       <use x="222.65625" xlink:href="#DejaVuSans-30"/>
      </g>
     </g>
    </g>
    <g id="ytick_2">
     <g id="line2d_11">
      <g>
       <use style="stroke:#000000;stroke-width:0.8;" x="56.50625" xlink:href="#mfdc4e9e2b0" y="252.321824"/>
      </g>
     </g>
     <g id="text_12">
      <!-- 0.002 -->
      <g transform="translate(20.878125 256.121043)scale(0.1 -0.1)">
       <use xlink:href="#DejaVuSans-30"/>
       <use x="63.623047" xlink:href="#DejaVuSans-2e"/>
       <use x="95.410156" xlink:href="#DejaVuSans-30"/>
       <use x="159.033203" xlink:href="#DejaVuSans-30"/>
       <use x="222.65625" xlink:href="#DejaVuSans-32"/>
      </g>
     </g>
    </g>
    <g id="ytick_3">
     <g id="line2d_12">
      <g>
       <use style="stroke:#000000;stroke-width:0.8;" x="56.50625" xlink:href="#mfdc4e9e2b0" y="216.213523"/>
      </g>
     </g>
     <g id="text_13">
      <!-- 0.004 -->
      <g transform="translate(20.878125 220.012742)scale(0.1 -0.1)">
       <use xlink:href="#DejaVuSans-30"/>
       <use x="63.623047" xlink:href="#DejaVuSans-2e"/>
       <use x="95.410156" xlink:href="#DejaVuSans-30"/>
       <use x="159.033203" xlink:href="#DejaVuSans-30"/>
       <use x="222.65625" xlink:href="#DejaVuSans-34"/>
      </g>
     </g>
    </g>
    <g id="ytick_4">
     <g id="line2d_13">
      <g>
       <use style="stroke:#000000;stroke-width:0.8;" x="56.50625" xlink:href="#mfdc4e9e2b0" y="180.105223"/>
      </g>
     </g>
     <g id="text_14">
      <!-- 0.006 -->
      <g transform="translate(20.878125 183.904441)scale(0.1 -0.1)">
       <use xlink:href="#DejaVuSans-30"/>
       <use x="63.623047" xlink:href="#DejaVuSans-2e"/>
       <use x="95.410156" xlink:href="#DejaVuSans-30"/>
       <use x="159.033203" xlink:href="#DejaVuSans-30"/>
       <use x="222.65625" xlink:href="#DejaVuSans-36"/>
      </g>
     </g>
    </g>
    <g id="ytick_5">
     <g id="line2d_14">
      <g>
       <use style="stroke:#000000;stroke-width:0.8;" x="56.50625" xlink:href="#mfdc4e9e2b0" y="143.996922"/>
      </g>
     </g>
     <g id="text_15">
      <!-- 0.008 -->
      <g transform="translate(20.878125 147.796141)scale(0.1 -0.1)">
       <use xlink:href="#DejaVuSans-30"/>
       <use x="63.623047" xlink:href="#DejaVuSans-2e"/>
       <use x="95.410156" xlink:href="#DejaVuSans-30"/>
       <use x="159.033203" xlink:href="#DejaVuSans-30"/>
       <use x="222.65625" xlink:href="#DejaVuSans-38"/>
      </g>
     </g>
    </g>
    <g id="ytick_6">
     <g id="line2d_15">
      <g>
       <use style="stroke:#000000;stroke-width:0.8;" x="56.50625" xlink:href="#mfdc4e9e2b0" y="107.888621"/>
      </g>
     </g>
     <g id="text_16">
      <!-- 0.010 -->
      <g transform="translate(20.878125 111.68784)scale(0.1 -0.1)">
       <use xlink:href="#DejaVuSans-30"/>
       <use x="63.623047" xlink:href="#DejaVuSans-2e"/>
       <use x="95.410156" xlink:href="#DejaVuSans-30"/>
       <use x="159.033203" xlink:href="#DejaVuSans-31"/>
       <use x="222.65625" xlink:href="#DejaVuSans-30"/>
      </g>
     </g>
    </g>
    <g id="ytick_7">
     <g id="line2d_16">
      <g>
       <use style="stroke:#000000;stroke-width:0.8;" x="56.50625" xlink:href="#mfdc4e9e2b0" y="71.78032"/>
      </g>
     </g>
     <g id="text_17">
      <!-- 0.012 -->
      <g transform="translate(20.878125 75.579539)scale(0.1 -0.1)">
       <use xlink:href="#DejaVuSans-30"/>
       <use x="63.623047" xlink:href="#DejaVuSans-2e"/>
       <use x="95.410156" xlink:href="#DejaVuSans-30"/>
       <use x="159.033203" xlink:href="#DejaVuSans-31"/>
       <use x="222.65625" xlink:href="#DejaVuSans-32"/>
      </g>
     </g>
    </g>
    <g id="ytick_8">
     <g id="line2d_17">
      <g>
       <use style="stroke:#000000;stroke-width:0.8;" x="56.50625" xlink:href="#mfdc4e9e2b0" y="35.67202"/>
      </g>
     </g>
     <g id="text_18">
      <!-- 0.014 -->
      <g transform="translate(20.878125 39.471238)scale(0.1 -0.1)">
       <use xlink:href="#DejaVuSans-30"/>
       <use x="63.623047" xlink:href="#DejaVuSans-2e"/>
       <use x="95.410156" xlink:href="#DejaVuSans-30"/>
       <use x="159.033203" xlink:href="#DejaVuSans-31"/>
       <use x="222.65625" xlink:href="#DejaVuSans-34"/>
      </g>
     </g>
    </g>
    <g id="text_19">
     <!-- Probability -->
     <defs>
      <path d="M 19.671875 64.796875 
L 19.671875 37.40625 
L 32.078125 37.40625 
Q 38.96875 37.40625 42.71875 40.96875 
Q 46.484375 44.53125 46.484375 51.125 
Q 46.484375 57.671875 42.71875 61.234375 
Q 38.96875 64.796875 32.078125 64.796875 
z
M 9.8125 72.90625 
L 32.078125 72.90625 
Q 44.34375 72.90625 50.609375 67.359375 
Q 56.890625 61.8125 56.890625 51.125 
Q 56.890625 40.328125 50.609375 34.8125 
Q 44.34375 29.296875 32.078125 29.296875 
L 19.671875 29.296875 
L 19.671875 0 
L 9.8125 0 
z
" id="DejaVuSans-50"/>
      <path d="M 41.109375 46.296875 
Q 39.59375 47.171875 37.8125 47.578125 
Q 36.03125 48 33.890625 48 
Q 26.265625 48 22.1875 43.046875 
Q 18.109375 38.09375 18.109375 28.8125 
L 18.109375 0 
L 9.078125 0 
L 9.078125 54.6875 
L 18.109375 54.6875 
L 18.109375 46.1875 
Q 20.953125 51.171875 25.484375 53.578125 
Q 30.03125 56 36.53125 56 
Q 37.453125 56 38.578125 55.875 
Q 39.703125 55.765625 41.0625 55.515625 
z
" id="DejaVuSans-72"/>
      <path d="M 30.609375 48.390625 
Q 23.390625 48.390625 19.1875 42.75 
Q 14.984375 37.109375 14.984375 27.296875 
Q 14.984375 17.484375 19.15625 11.84375 
Q 23.34375 6.203125 30.609375 6.203125 
Q 37.796875 6.203125 41.984375 11.859375 
Q 46.1875 17.53125 46.1875 27.296875 
Q 46.1875 37.015625 41.984375 42.703125 
Q 37.796875 48.390625 30.609375 48.390625 
z
M 30.609375 56 
Q 42.328125 56 49.015625 48.375 
Q 55.71875 40.765625 55.71875 27.296875 
Q 55.71875 13.875 49.015625 6.21875 
Q 42.328125 -1.421875 30.609375 -1.421875 
Q 18.84375 -1.421875 12.171875 6.21875 
Q 5.515625 13.875 5.515625 27.296875 
Q 5.515625 40.765625 12.171875 48.375 
Q 18.84375 56 30.609375 56 
z
" id="DejaVuSans-6f"/>
      <path d="M 48.6875 27.296875 
Q 48.6875 37.203125 44.609375 42.84375 
Q 40.53125 48.484375 33.40625 48.484375 
Q 26.265625 48.484375 22.1875 42.84375 
Q 18.109375 37.203125 18.109375 27.296875 
Q 18.109375 17.390625 22.1875 11.75 
Q 26.265625 6.109375 33.40625 6.109375 
Q 40.53125 6.109375 44.609375 11.75 
Q 48.6875 17.390625 48.6875 27.296875 
z
M 18.109375 46.390625 
Q 20.953125 51.265625 25.265625 53.625 
Q 29.59375 56 35.59375 56 
Q 45.5625 56 51.78125 48.09375 
Q 58.015625 40.1875 58.015625 27.296875 
Q 58.015625 14.40625 51.78125 6.484375 
Q 45.5625 -1.421875 35.59375 -1.421875 
Q 29.59375 -1.421875 25.265625 0.953125 
Q 20.953125 3.328125 18.109375 8.203125 
L 18.109375 0 
L 9.078125 0 
L 9.078125 75.984375 
L 18.109375 75.984375 
z
" id="DejaVuSans-62"/>
      <path d="M 9.421875 75.984375 
L 18.40625 75.984375 
L 18.40625 0 
L 9.421875 0 
z
" id="DejaVuSans-6c"/>
      <path d="M 32.171875 -5.078125 
Q 28.375 -14.84375 24.75 -17.8125 
Q 21.140625 -20.796875 15.09375 -20.796875 
L 7.90625 -20.796875 
L 7.90625 -13.28125 
L 13.1875 -13.28125 
Q 16.890625 -13.28125 18.9375 -11.515625 
Q 21 -9.765625 23.484375 -3.21875 
L 25.09375 0.875 
L 2.984375 54.6875 
L 12.5 54.6875 
L 29.59375 11.921875 
L 46.6875 54.6875 
L 56.203125 54.6875 
z
" id="DejaVuSans-79"/>
     </defs>
     <g transform="translate(14.798437 182.000687)rotate(-90)scale(0.1 -0.1)">
      <use xlink:href="#DejaVuSans-50"/>
      <use x="60.287109" xlink:href="#DejaVuSans-72"/>
      <use x="101.369141" xlink:href="#DejaVuSans-6f"/>
      <use x="162.550781" xlink:href="#DejaVuSans-62"/>
      <use x="226.027344" xlink:href="#DejaVuSans-61"/>
      <use x="287.306641" xlink:href="#DejaVuSans-62"/>
      <use x="350.783203" xlink:href="#DejaVuSans-69"/>
      <use x="378.566406" xlink:href="#DejaVuSans-6c"/>
      <use x="406.349609" xlink:href="#DejaVuSans-69"/>
      <use x="434.132812" xlink:href="#DejaVuSans-74"/>
      <use x="473.341797" xlink:href="#DejaVuSans-79"/>
     </g>
    </g>
   </g>
   <g id="line2d_18">
    <path clip-path="url(#p51085b6092)" d="M 72.738977 275.545636 
L 83.434994 269.068681 
L 87.137639 266.292149 
L 98.182431 256.108207 
L 102.574144 251.190826 
L 109.766757 241.97856 
L 114.547319 235.028341 
L 117.779308 229.947756 
L 126.865083 214.021026 
L 133.270935 201.386021 
L 142.868432 180.518513 
L 150.91091 161.600711 
L 158.844069 142.137683 
L 172.525699 108.394095 
L 178.194311 95.020913 
L 182.209315 85.983857 
L 187.622172 74.560252 
L 190.340094 69.217609 
L 193.741391 62.957638 
L 198.148916 55.629025 
L 201.441429 50.7884 
L 204.567095 46.734744 
L 207.19236 43.760118 
L 209.328788 41.640847 
L 210.868102 40.286163 
L 213.673119 38.197437 
L 216.551597 36.575013 
L 217.74155 36.061031 
L 219.582953 35.448292 
L 221.938248 34.990125 
L 226.013937 35.065082 
L 227.518444 35.370671 
L 229.889706 36.154881 
L 232.198365 37.271093 
L 233.463106 38.028489 
L 235.986198 39.84345 
L 237.019653 40.702128 
L 242.630311 46.494458 
L 244.793027 49.217238 
L 248.306852 54.187501 
L 249.575025 56.140096 
L 253.322342 62.371391 
L 256.1172 67.438727 
L 260.670703 76.382207 
L 263.588546 82.509664 
L 270.180733 97.282414 
L 275.751384 110.519684 
L 283.792176 130.30575 
L 292.493041 151.870674 
L 301.725969 174.050457 
L 306.650548 185.312029 
L 311.074908 194.987591 
L 316.164591 205.527156 
L 325.051892 222.244756 
L 328.999568 228.940763 
L 334.240342 237.119311 
L 337.07177 241.201054 
L 340.063786 245.260447 
L 349.127832 256.016011 
L 362.592107 268.075963 
L 381.305547 278.576457 
L 383.317283 279.36526 
L 397.393523 283.521575 
L 397.393523 283.521575 
" style="fill:none;stroke:#1f77b4;stroke-linecap:square;stroke-width:1.5;"/>
    <defs>
     <path d="M 0 3 
C 0.795609 3 1.55874 2.683901 2.12132 2.12132 
C 2.683901 1.55874 3 0.795609 3 0 
C 3 -0.795609 2.683901 -1.55874 2.12132 -2.12132 
C 1.55874 -2.683901 0.795609 -3 0 -3 
C -0.795609 -3 -1.55874 -2.683901 -2.12132 -2.12132 
C -2.683901 -1.55874 -3 -0.795609 -3 0 
C -3 0.795609 -2.683901 1.55874 -2.12132 2.12132 
C -1.55874 2.683901 -0.795609 3 0 3 
z
" id="mb72cccb4f1" style="stroke:#1f77b4;"/>
    </defs>
    <g clip-path="url(#p51085b6092)">
     <use style="fill:#1f77b4;stroke:#1f77b4;" x="72.738977" xlink:href="#mb72cccb4f1" y="275.545636"/>
     <use style="fill:#1f77b4;stroke:#1f77b4;" x="83.434994" xlink:href="#mb72cccb4f1" y="269.068681"/>
     <use style="fill:#1f77b4;stroke:#1f77b4;" x="86.857479" xlink:href="#mb72cccb4f1" y="266.512744"/>
     <use style="fill:#1f77b4;stroke:#1f77b4;" x="87.137639" xlink:href="#mb72cccb4f1" y="266.292149"/>
     <use style="fill:#1f77b4;stroke:#1f77b4;" x="98.182431" xlink:href="#mb72cccb4f1" y="256.108207"/>
     <use style="fill:#1f77b4;stroke:#1f77b4;" x="102.574144" xlink:href="#mb72cccb4f1" y="251.190826"/>
     <use style="fill:#1f77b4;stroke:#1f77b4;" x="109.766757" xlink:href="#mb72cccb4f1" y="241.97856"/>
     <use style="fill:#1f77b4;stroke:#1f77b4;" x="112.520669" xlink:href="#mb72cccb4f1" y="238.056745"/>
     <use style="fill:#1f77b4;stroke:#1f77b4;" x="114.547319" xlink:href="#mb72cccb4f1" y="235.028341"/>
     <use style="fill:#1f77b4;stroke:#1f77b4;" x="117.779308" xlink:href="#mb72cccb4f1" y="229.947756"/>
     <use style="fill:#1f77b4;stroke:#1f77b4;" x="126.865083" xlink:href="#mb72cccb4f1" y="214.021026"/>
     <use style="fill:#1f77b4;stroke:#1f77b4;" x="133.270935" xlink:href="#mb72cccb4f1" y="201.386021"/>
     <use style="fill:#1f77b4;stroke:#1f77b4;" x="142.868432" xlink:href="#mb72cccb4f1" y="180.518513"/>
     <use style="fill:#1f77b4;stroke:#1f77b4;" x="147.510239" xlink:href="#mb72cccb4f1" y="169.729394"/>
     <use style="fill:#1f77b4;stroke:#1f77b4;" x="149.193375" xlink:href="#mb72cccb4f1" y="165.727078"/>
     <use style="fill:#1f77b4;stroke:#1f77b4;" x="150.91091" xlink:href="#mb72cccb4f1" y="161.600711"/>
     <use style="fill:#1f77b4;stroke:#1f77b4;" x="151.701688" xlink:href="#mb72cccb4f1" y="159.687891"/>
     <use style="fill:#1f77b4;stroke:#1f77b4;" x="152.153699" xlink:href="#mb72cccb4f1" y="158.591122"/>
     <use style="fill:#1f77b4;stroke:#1f77b4;" x="152.215321" xlink:href="#mb72cccb4f1" y="158.441417"/>
     <use style="fill:#1f77b4;stroke:#1f77b4;" x="155.234298" xlink:href="#mb72cccb4f1" y="151.058907"/>
     <use style="fill:#1f77b4;stroke:#1f77b4;" x="155.246153" xlink:href="#mb72cccb4f1" y="151.029751"/>
     <use style="fill:#1f77b4;stroke:#1f77b4;" x="155.875113" xlink:href="#mb72cccb4f1" y="149.481332"/>
     <use style="fill:#1f77b4;stroke:#1f77b4;" x="156.679101" xlink:href="#mb72cccb4f1" y="147.49781"/>
     <use style="fill:#1f77b4;stroke:#1f77b4;" x="156.815459" xlink:href="#mb72cccb4f1" y="147.160971"/>
     <use style="fill:#1f77b4;stroke:#1f77b4;" x="158.844069" xlink:href="#mb72cccb4f1" y="142.137683"/>
     <use style="fill:#1f77b4;stroke:#1f77b4;" x="163.549456" xlink:href="#mb72cccb4f1" y="130.443521"/>
     <use style="fill:#1f77b4;stroke:#1f77b4;" x="163.57476" xlink:href="#mb72cccb4f1" y="130.380644"/>
     <use style="fill:#1f77b4;stroke:#1f77b4;" x="164.954004" xlink:href="#mb72cccb4f1" y="126.956227"/>
     <use style="fill:#1f77b4;stroke:#1f77b4;" x="165.221503" xlink:href="#mb72cccb4f1" y="126.292873"/>
     <use style="fill:#1f77b4;stroke:#1f77b4;" x="165.893261" xlink:href="#mb72cccb4f1" y="124.628492"/>
     <use style="fill:#1f77b4;stroke:#1f77b4;" x="167.301223" xlink:href="#mb72cccb4f1" y="121.148477"/>
     <use style="fill:#1f77b4;stroke:#1f77b4;" x="168.428946" xlink:href="#mb72cccb4f1" y="118.371458"/>
     <use style="fill:#1f77b4;stroke:#1f77b4;" x="168.696832" xlink:href="#mb72cccb4f1" y="117.713387"/>
     <use style="fill:#1f77b4;stroke:#1f77b4;" x="168.957774" xlink:href="#mb72cccb4f1" y="117.073014"/>
     <use style="fill:#1f77b4;stroke:#1f77b4;" x="169.062646" xlink:href="#mb72cccb4f1" y="116.815835"/>
     <use style="fill:#1f77b4;stroke:#1f77b4;" x="169.175128" xlink:href="#mb72cccb4f1" y="116.540116"/>
     <use style="fill:#1f77b4;stroke:#1f77b4;" x="169.589231" xlink:href="#mb72cccb4f1" y="115.526155"/>
     <use style="fill:#1f77b4;stroke:#1f77b4;" x="170.575899" xlink:href="#mb72cccb4f1" y="113.117743"/>
     <use style="fill:#1f77b4;stroke:#1f77b4;" x="171.597554" xlink:href="#mb72cccb4f1" y="110.636273"/>
     <use style="fill:#1f77b4;stroke:#1f77b4;" x="171.85973" xlink:href="#mb72cccb4f1" y="110.00169"/>
     <use style="fill:#1f77b4;stroke:#1f77b4;" x="172.525699" xlink:href="#mb72cccb4f1" y="108.394095"/>
     <use style="fill:#1f77b4;stroke:#1f77b4;" x="173.489863" xlink:href="#mb72cccb4f1" y="106.078456"/>
     <use style="fill:#1f77b4;stroke:#1f77b4;" x="178.194311" xlink:href="#mb72cccb4f1" y="95.020913"/>
     <use style="fill:#1f77b4;stroke:#1f77b4;" x="178.685793" xlink:href="#mb72cccb4f1" y="93.892674"/>
     <use style="fill:#1f77b4;stroke:#1f77b4;" x="178.945195" xlink:href="#mb72cccb4f1" y="93.299512"/>
     <use style="fill:#1f77b4;stroke:#1f77b4;" x="179.071191" xlink:href="#mb72cccb4f1" y="93.01199"/>
     <use style="fill:#1f77b4;stroke:#1f77b4;" x="179.49275" xlink:href="#mb72cccb4f1" y="92.052843"/>
     <use style="fill:#1f77b4;stroke:#1f77b4;" x="179.695651" xlink:href="#mb72cccb4f1" y="91.592779"/>
     <use style="fill:#1f77b4;stroke:#1f77b4;" x="180.614414" xlink:href="#mb72cccb4f1" y="89.522822"/>
     <use style="fill:#1f77b4;stroke:#1f77b4;" x="181.619131" xlink:href="#mb72cccb4f1" y="87.285118"/>
     <use style="fill:#1f77b4;stroke:#1f77b4;" x="182.209315" xlink:href="#mb72cccb4f1" y="85.983857"/>
     <use style="fill:#1f77b4;stroke:#1f77b4;" x="184.737491" xlink:href="#mb72cccb4f1" y="80.528098"/>
     <use style="fill:#1f77b4;stroke:#1f77b4;" x="184.77452" xlink:href="#mb72cccb4f1" y="80.44969"/>
     <use style="fill:#1f77b4;stroke:#1f77b4;" x="186.238905" xlink:href="#mb72cccb4f1" y="77.385744"/>
     <use style="fill:#1f77b4;stroke:#1f77b4;" x="186.941612" xlink:href="#mb72cccb4f1" y="75.941789"/>
     <use style="fill:#1f77b4;stroke:#1f77b4;" x="187.622172" xlink:href="#mb72cccb4f1" y="74.560252"/>
     <use style="fill:#1f77b4;stroke:#1f77b4;" x="188.175917" xlink:href="#mb72cccb4f1" y="73.448735"/>
     <use style="fill:#1f77b4;stroke:#1f77b4;" x="188.831645" xlink:href="#mb72cccb4f1" y="72.147466"/>
     <use style="fill:#1f77b4;stroke:#1f77b4;" x="190.027724" xlink:href="#mb72cccb4f1" y="69.816887"/>
     <use style="fill:#1f77b4;stroke:#1f77b4;" x="190.340094" xlink:href="#mb72cccb4f1" y="69.217609"/>
     <use style="fill:#1f77b4;stroke:#1f77b4;" x="191.771662" xlink:href="#mb72cccb4f1" y="66.522526"/>
     <use style="fill:#1f77b4;stroke:#1f77b4;" x="191.80633" xlink:href="#mb72cccb4f1" y="66.458324"/>
     <use style="fill:#1f77b4;stroke:#1f77b4;" x="191.996095" xlink:href="#mb72cccb4f1" y="66.107815"/>
     <use style="fill:#1f77b4;stroke:#1f77b4;" x="193.333371" xlink:href="#mb72cccb4f1" y="63.682038"/>
     <use style="fill:#1f77b4;stroke:#1f77b4;" x="193.741391" xlink:href="#mb72cccb4f1" y="62.957638"/>
     <use style="fill:#1f77b4;stroke:#1f77b4;" x="196.099903" xlink:href="#mb72cccb4f1" y="58.920222"/>
     <use style="fill:#1f77b4;stroke:#1f77b4;" x="196.154351" xlink:href="#mb72cccb4f1" y="58.83011"/>
     <use style="fill:#1f77b4;stroke:#1f77b4;" x="196.724414" xlink:href="#mb72cccb4f1" y="57.895257"/>
     <use style="fill:#1f77b4;stroke:#1f77b4;" x="197.207302" xlink:href="#mb72cccb4f1" y="57.115764"/>
     <use style="fill:#1f77b4;stroke:#1f77b4;" x="197.781424" xlink:href="#mb72cccb4f1" y="56.203996"/>
     <use style="fill:#1f77b4;stroke:#1f77b4;" x="198.148916" xlink:href="#mb72cccb4f1" y="55.629025"/>
     <use style="fill:#1f77b4;stroke:#1f77b4;" x="200.801301" xlink:href="#mb72cccb4f1" y="51.68478"/>
     <use style="fill:#1f77b4;stroke:#1f77b4;" x="200.813208" xlink:href="#mb72cccb4f1" y="51.667906"/>
     <use style="fill:#1f77b4;stroke:#1f77b4;" x="201.441429" xlink:href="#mb72cccb4f1" y="50.7884"/>
     <use style="fill:#1f77b4;stroke:#1f77b4;" x="202.724928" xlink:href="#mb72cccb4f1" y="49.058145"/>
     <use style="fill:#1f77b4;stroke:#1f77b4;" x="202.929404" xlink:href="#mb72cccb4f1" y="48.790867"/>
     <use style="fill:#1f77b4;stroke:#1f77b4;" x="202.945829" xlink:href="#mb72cccb4f1" y="48.769497"/>
     <use style="fill:#1f77b4;stroke:#1f77b4;" x="203.306561" xlink:href="#mb72cccb4f1" y="48.303976"/>
     <use style="fill:#1f77b4;stroke:#1f77b4;" x="204.567095" xlink:href="#mb72cccb4f1" y="46.734744"/>
     <use style="fill:#1f77b4;stroke:#1f77b4;" x="205.166123" xlink:href="#mb72cccb4f1" y="46.020734"/>
     <use style="fill:#1f77b4;stroke:#1f77b4;" x="206.667687" xlink:href="#mb72cccb4f1" y="44.322353"/>
     <use style="fill:#1f77b4;stroke:#1f77b4;" x="207.19236" xlink:href="#mb72cccb4f1" y="43.760118"/>
     <use style="fill:#1f77b4;stroke:#1f77b4;" x="208.187522" xlink:href="#mb72cccb4f1" y="42.738741"/>
     <use style="fill:#1f77b4;stroke:#1f77b4;" x="208.536787" xlink:href="#mb72cccb4f1" y="42.39437"/>
     <use style="fill:#1f77b4;stroke:#1f77b4;" x="209.04271" xlink:href="#mb72cccb4f1" y="41.908628"/>
     <use style="fill:#1f77b4;stroke:#1f77b4;" x="209.328788" xlink:href="#mb72cccb4f1" y="41.640847"/>
     <use style="fill:#1f77b4;stroke:#1f77b4;" x="210.868102" xlink:href="#mb72cccb4f1" y="40.286163"/>
     <use style="fill:#1f77b4;stroke:#1f77b4;" x="213.673119" xlink:href="#mb72cccb4f1" y="38.197437"/>
     <use style="fill:#1f77b4;stroke:#1f77b4;" x="215.757248" xlink:href="#mb72cccb4f1" y="36.969364"/>
     <use style="fill:#1f77b4;stroke:#1f77b4;" x="216.551597" xlink:href="#mb72cccb4f1" y="36.575013"/>
     <use style="fill:#1f77b4;stroke:#1f77b4;" x="217.624168" xlink:href="#mb72cccb4f1" y="36.107625"/>
     <use style="fill:#1f77b4;stroke:#1f77b4;" x="217.74155" xlink:href="#mb72cccb4f1" y="36.061031"/>
     <use style="fill:#1f77b4;stroke:#1f77b4;" x="219.582953" xlink:href="#mb72cccb4f1" y="35.448292"/>
     <use style="fill:#1f77b4;stroke:#1f77b4;" x="221.125863" xlink:href="#mb72cccb4f1" y="35.106738"/>
     <use style="fill:#1f77b4;stroke:#1f77b4;" x="221.202383" xlink:href="#mb72cccb4f1" y="35.093891"/>
     <use style="fill:#1f77b4;stroke:#1f77b4;" x="221.411376" xlink:href="#mb72cccb4f1" y="35.060777"/>
     <use style="fill:#1f77b4;stroke:#1f77b4;" x="221.533967" xlink:href="#mb72cccb4f1" y="35.042698"/>
     <use style="fill:#1f77b4;stroke:#1f77b4;" x="221.649283" xlink:href="#mb72cccb4f1" y="35.026599"/>
     <use style="fill:#1f77b4;stroke:#1f77b4;" x="221.938248" xlink:href="#mb72cccb4f1" y="34.990125"/>
     <use style="fill:#1f77b4;stroke:#1f77b4;" x="225.859793" xlink:href="#mb72cccb4f1" y="35.042222"/>
     <use style="fill:#1f77b4;stroke:#1f77b4;" x="226.013937" xlink:href="#mb72cccb4f1" y="35.065082"/>
     <use style="fill:#1f77b4;stroke:#1f77b4;" x="227.518444" xlink:href="#mb72cccb4f1" y="35.370671"/>
     <use style="fill:#1f77b4;stroke:#1f77b4;" x="229.424081" xlink:href="#mb72cccb4f1" y="35.971798"/>
     <use style="fill:#1f77b4;stroke:#1f77b4;" x="229.889706" xlink:href="#mb72cccb4f1" y="36.154881"/>
     <use style="fill:#1f77b4;stroke:#1f77b4;" x="230.613491" xlink:href="#mb72cccb4f1" y="36.46757"/>
     <use style="fill:#1f77b4;stroke:#1f77b4;" x="231.069306" xlink:href="#mb72cccb4f1" y="36.68199"/>
     <use style="fill:#1f77b4;stroke:#1f77b4;" x="232.198365" xlink:href="#mb72cccb4f1" y="37.271093"/>
     <use style="fill:#1f77b4;stroke:#1f77b4;" x="232.271757" xlink:href="#mb72cccb4f1" y="37.312236"/>
     <use style="fill:#1f77b4;stroke:#1f77b4;" x="232.51018" xlink:href="#mb72cccb4f1" y="37.448287"/>
     <use style="fill:#1f77b4;stroke:#1f77b4;" x="233.030783" xlink:href="#mb72cccb4f1" y="37.758053"/>
     <use style="fill:#1f77b4;stroke:#1f77b4;" x="233.463106" xlink:href="#mb72cccb4f1" y="38.028489"/>
     <use style="fill:#1f77b4;stroke:#1f77b4;" x="234.327256" xlink:href="#mb72cccb4f1" y="38.604773"/>
     <use style="fill:#1f77b4;stroke:#1f77b4;" x="234.820029" xlink:href="#mb72cccb4f1" y="38.95461"/>
     <use style="fill:#1f77b4;stroke:#1f77b4;" x="235.415212" xlink:href="#mb72cccb4f1" y="39.397583"/>
     <use style="fill:#1f77b4;stroke:#1f77b4;" x="235.945777" xlink:href="#mb72cccb4f1" y="39.811216"/>
     <use style="fill:#1f77b4;stroke:#1f77b4;" x="235.986198" xlink:href="#mb72cccb4f1" y="39.84345"/>
     <use style="fill:#1f77b4;stroke:#1f77b4;" x="237.019653" xlink:href="#mb72cccb4f1" y="40.702128"/>
     <use style="fill:#1f77b4;stroke:#1f77b4;" x="242.470678" xlink:href="#mb72cccb4f1" y="46.303998"/>
     <use style="fill:#1f77b4;stroke:#1f77b4;" x="242.630311" xlink:href="#mb72cccb4f1" y="46.494458"/>
     <use style="fill:#1f77b4;stroke:#1f77b4;" x="243.52559" xlink:href="#mb72cccb4f1" y="47.589593"/>
     <use style="fill:#1f77b4;stroke:#1f77b4;" x="244.793027" xlink:href="#mb72cccb4f1" y="49.217238"/>
     <use style="fill:#1f77b4;stroke:#1f77b4;" x="247.098621" xlink:href="#mb72cccb4f1" y="52.404285"/>
     <use style="fill:#1f77b4;stroke:#1f77b4;" x="247.400768" xlink:href="#mb72cccb4f1" y="52.843057"/>
     <use style="fill:#1f77b4;stroke:#1f77b4;" x="247.467575" xlink:href="#mb72cccb4f1" y="52.940722"/>
     <use style="fill:#1f77b4;stroke:#1f77b4;" x="247.551115" xlink:href="#mb72cccb4f1" y="53.063178"/>
     <use style="fill:#1f77b4;stroke:#1f77b4;" x="248.306852" xlink:href="#mb72cccb4f1" y="54.187501"/>
     <use style="fill:#1f77b4;stroke:#1f77b4;" x="249.218544" xlink:href="#mb72cccb4f1" y="55.582981"/>
     <use style="fill:#1f77b4;stroke:#1f77b4;" x="249.439387" xlink:href="#mb72cccb4f1" y="55.927365"/>
     <use style="fill:#1f77b4;stroke:#1f77b4;" x="249.575025" xlink:href="#mb72cccb4f1" y="56.140096"/>
     <use style="fill:#1f77b4;stroke:#1f77b4;" x="251.909451" xlink:href="#mb72cccb4f1" y="59.943306"/>
     <use style="fill:#1f77b4;stroke:#1f77b4;" x="251.919715" xlink:href="#mb72cccb4f1" y="59.960609"/>
     <use style="fill:#1f77b4;stroke:#1f77b4;" x="253.322342" xlink:href="#mb72cccb4f1" y="62.371391"/>
     <use style="fill:#1f77b4;stroke:#1f77b4;" x="255.714446" xlink:href="#mb72cccb4f1" y="66.687632"/>
     <use style="fill:#1f77b4;stroke:#1f77b4;" x="255.877289" xlink:href="#mb72cccb4f1" y="66.990495"/>
     <use style="fill:#1f77b4;stroke:#1f77b4;" x="256.000383" xlink:href="#mb72cccb4f1" y="67.220171"/>
     <use style="fill:#1f77b4;stroke:#1f77b4;" x="256.1172" xlink:href="#mb72cccb4f1" y="67.438727"/>
     <use style="fill:#1f77b4;stroke:#1f77b4;" x="258.315411" xlink:href="#mb72cccb4f1" y="71.655655"/>
     <use style="fill:#1f77b4;stroke:#1f77b4;" x="259.080606" xlink:href="#mb72cccb4f1" y="73.168433"/>
     <use style="fill:#1f77b4;stroke:#1f77b4;" x="260.670703" xlink:href="#mb72cccb4f1" y="76.382207"/>
     <use style="fill:#1f77b4;stroke:#1f77b4;" x="261.246868" xlink:href="#mb72cccb4f1" y="77.569237"/>
     <use style="fill:#1f77b4;stroke:#1f77b4;" x="261.519902" xlink:href="#mb72cccb4f1" y="78.135802"/>
     <use style="fill:#1f77b4;stroke:#1f77b4;" x="263.23941" xlink:href="#mb72cccb4f1" y="81.761676"/>
     <use style="fill:#1f77b4;stroke:#1f77b4;" x="263.433665" xlink:href="#mb72cccb4f1" y="82.17737"/>
     <use style="fill:#1f77b4;stroke:#1f77b4;" x="263.588546" xlink:href="#mb72cccb4f1" y="82.509664"/>
     <use style="fill:#1f77b4;stroke:#1f77b4;" x="267.17877" xlink:href="#mb72cccb4f1" y="90.412542"/>
     <use style="fill:#1f77b4;stroke:#1f77b4;" x="267.533145" xlink:href="#mb72cccb4f1" y="91.212007"/>
     <use style="fill:#1f77b4;stroke:#1f77b4;" x="267.622226" xlink:href="#mb72cccb4f1" y="91.413483"/>
     <use style="fill:#1f77b4;stroke:#1f77b4;" x="268.257225" xlink:href="#mb72cccb4f1" y="92.855472"/>
     <use style="fill:#1f77b4;stroke:#1f77b4;" x="269.441623" xlink:href="#mb72cccb4f1" y="95.571265"/>
     <use style="fill:#1f77b4;stroke:#1f77b4;" x="270.180733" xlink:href="#mb72cccb4f1" y="97.282414"/>
     <use style="fill:#1f77b4;stroke:#1f77b4;" x="271.96241" xlink:href="#mb72cccb4f1" y="101.45494"/>
     <use style="fill:#1f77b4;stroke:#1f77b4;" x="272.879021" xlink:href="#mb72cccb4f1" y="103.625718"/>
     <use style="fill:#1f77b4;stroke:#1f77b4;" x="275.633284" xlink:href="#mb72cccb4f1" y="110.233791"/>
     <use style="fill:#1f77b4;stroke:#1f77b4;" x="275.751384" xlink:href="#mb72cccb4f1" y="110.519684"/>
     <use style="fill:#1f77b4;stroke:#1f77b4;" x="277.06526" xlink:href="#mb72cccb4f1" y="113.712501"/>
     <use style="fill:#1f77b4;stroke:#1f77b4;" x="277.530785" xlink:href="#mb72cccb4f1" y="114.848761"/>
     <use style="fill:#1f77b4;stroke:#1f77b4;" x="279.244701" xlink:href="#mb72cccb4f1" y="119.051537"/>
     <use style="fill:#1f77b4;stroke:#1f77b4;" x="279.710125" xlink:href="#mb72cccb4f1" y="120.197464"/>
     <use style="fill:#1f77b4;stroke:#1f77b4;" x="279.953546" xlink:href="#mb72cccb4f1" y="120.797483"/>
     <use style="fill:#1f77b4;stroke:#1f77b4;" x="280.903288" xlink:href="#mb72cccb4f1" y="123.142651"/>
     <use style="fill:#1f77b4;stroke:#1f77b4;" x="281.346998" xlink:href="#mb72cccb4f1" y="124.240291"/>
     <use style="fill:#1f77b4;stroke:#1f77b4;" x="283.548693" xlink:href="#mb72cccb4f1" y="129.70083"/>
     <use style="fill:#1f77b4;stroke:#1f77b4;" x="283.792176" xlink:href="#mb72cccb4f1" y="130.30575"/>
     <use style="fill:#1f77b4;stroke:#1f77b4;" x="285.432753" xlink:href="#mb72cccb4f1" y="134.384276"/>
     <use style="fill:#1f77b4;stroke:#1f77b4;" x="286.431983" xlink:href="#mb72cccb4f1" y="136.868947"/>
     <use style="fill:#1f77b4;stroke:#1f77b4;" x="288.204465" xlink:href="#mb72cccb4f1" y="141.272746"/>
     <use style="fill:#1f77b4;stroke:#1f77b4;" x="290.826061" xlink:href="#mb72cccb4f1" y="147.764721"/>
     <use style="fill:#1f77b4;stroke:#1f77b4;" x="292.493041" xlink:href="#mb72cccb4f1" y="151.870674"/>
     <use style="fill:#1f77b4;stroke:#1f77b4;" x="297.011195" xlink:href="#mb72cccb4f1" y="162.866323"/>
     <use style="fill:#1f77b4;stroke:#1f77b4;" x="301.725969" xlink:href="#mb72cccb4f1" y="174.050457"/>
     <use style="fill:#1f77b4;stroke:#1f77b4;" x="305.192352" xlink:href="#mb72cccb4f1" y="182.027882"/>
     <use style="fill:#1f77b4;stroke:#1f77b4;" x="306.650548" xlink:href="#mb72cccb4f1" y="185.312029"/>
     <use style="fill:#1f77b4;stroke:#1f77b4;" x="309.491554" xlink:href="#mb72cccb4f1" y="191.57704"/>
     <use style="fill:#1f77b4;stroke:#1f77b4;" x="309.863644" xlink:href="#mb72cccb4f1" y="192.383887"/>
     <use style="fill:#1f77b4;stroke:#1f77b4;" x="310.555533" xlink:href="#mb72cccb4f1" y="193.875471"/>
     <use style="fill:#1f77b4;stroke:#1f77b4;" x="310.592333" xlink:href="#mb72cccb4f1" y="193.954483"/>
     <use style="fill:#1f77b4;stroke:#1f77b4;" x="311.074908" xlink:href="#mb72cccb4f1" y="194.987591"/>
     <use style="fill:#1f77b4;stroke:#1f77b4;" x="316.164591" xlink:href="#mb72cccb4f1" y="205.527156"/>
     <use style="fill:#1f77b4;stroke:#1f77b4;" x="325.051892" xlink:href="#mb72cccb4f1" y="222.244756"/>
     <use style="fill:#1f77b4;stroke:#1f77b4;" x="328.999568" xlink:href="#mb72cccb4f1" y="228.940763"/>
     <use style="fill:#1f77b4;stroke:#1f77b4;" x="334.240342" xlink:href="#mb72cccb4f1" y="237.119311"/>
     <use style="fill:#1f77b4;stroke:#1f77b4;" x="337.07177" xlink:href="#mb72cccb4f1" y="241.201054"/>
     <use style="fill:#1f77b4;stroke:#1f77b4;" x="340.063786" xlink:href="#mb72cccb4f1" y="245.260447"/>
     <use style="fill:#1f77b4;stroke:#1f77b4;" x="349.127832" xlink:href="#mb72cccb4f1" y="256.016011"/>
     <use style="fill:#1f77b4;stroke:#1f77b4;" x="361.683794" xlink:href="#mb72cccb4f1" y="267.395568"/>
     <use style="fill:#1f77b4;stroke:#1f77b4;" x="362.592107" xlink:href="#mb72cccb4f1" y="268.075963"/>
     <use style="fill:#1f77b4;stroke:#1f77b4;" x="381.146379" xlink:href="#mb72cccb4f1" y="278.51164"/>
     <use style="fill:#1f77b4;stroke:#1f77b4;" x="381.305547" xlink:href="#mb72cccb4f1" y="278.576457"/>
     <use style="fill:#1f77b4;stroke:#1f77b4;" x="383.317283" xlink:href="#mb72cccb4f1" y="279.36526"/>
     <use style="fill:#1f77b4;stroke:#1f77b4;" x="397.393523" xlink:href="#mb72cccb4f1" y="283.521575"/>
    </g>
   </g>
   <g id="patch_13">
    <path d="M 56.50625 288.430125 
L 56.50625 22.318125 
" style="fill:none;stroke:#000000;stroke-linecap:square;stroke-linejoin:miter;stroke-width:0.8;"/>
   </g>
   <g id="patch_14">
    <path d="M 413.62625 288.430125 
L 413.62625 22.318125 
" style="fill:none;stroke:#000000;stroke-linecap:square;stroke-linejoin:miter;stroke-width:0.8;"/>
   </g>
   <g id="patch_15">
    <path d="M 56.50625 288.430125 
L 413.62625 288.430125 
" style="fill:none;stroke:#000000;stroke-linecap:square;stroke-linejoin:miter;stroke-width:0.8;"/>
   </g>
   <g id="patch_16">
    <path d="M 56.50625 22.318125 
L 413.62625 22.318125 
" style="fill:none;stroke:#000000;stroke-linecap:square;stroke-linejoin:miter;stroke-width:0.8;"/>
   </g>
   <g id="text_20">
    <!-- Distribution Between Pairs [d-dim] -->
    <defs>
     <path d="M 8.5 21.578125 
L 8.5 54.6875 
L 17.484375 54.6875 
L 17.484375 21.921875 
Q 17.484375 14.15625 20.5 10.265625 
Q 23.53125 6.390625 29.59375 6.390625 
Q 36.859375 6.390625 41.078125 11.03125 
Q 45.3125 15.671875 45.3125 23.6875 
L 45.3125 54.6875 
L 54.296875 54.6875 
L 54.296875 0 
L 45.3125 0 
L 45.3125 8.40625 
Q 42.046875 3.421875 37.71875 1 
Q 33.40625 -1.421875 27.6875 -1.421875 
Q 18.265625 -1.421875 13.375 4.4375 
Q 8.5 10.296875 8.5 21.578125 
z
M 31.109375 56 
z
" id="DejaVuSans-75"/>
     <path id="DejaVuSans-20"/>
     <path d="M 19.671875 34.8125 
L 19.671875 8.109375 
L 35.5 8.109375 
Q 43.453125 8.109375 47.28125 11.40625 
Q 51.125 14.703125 51.125 21.484375 
Q 51.125 28.328125 47.28125 31.5625 
Q 43.453125 34.8125 35.5 34.8125 
z
M 19.671875 64.796875 
L 19.671875 42.828125 
L 34.28125 42.828125 
Q 41.5 42.828125 45.03125 45.53125 
Q 48.578125 48.25 48.578125 53.8125 
Q 48.578125 59.328125 45.03125 62.0625 
Q 41.5 64.796875 34.28125 64.796875 
z
M 9.8125 72.90625 
L 35.015625 72.90625 
Q 46.296875 72.90625 52.390625 68.21875 
Q 58.5 63.53125 58.5 54.890625 
Q 58.5 48.1875 55.375 44.234375 
Q 52.25 40.28125 46.1875 39.3125 
Q 53.46875 37.75 57.5 32.78125 
Q 61.53125 27.828125 61.53125 20.40625 
Q 61.53125 10.640625 54.890625 5.3125 
Q 48.25 0 35.984375 0 
L 9.8125 0 
z
" id="DejaVuSans-42"/>
     <path d="M 4.203125 54.6875 
L 13.1875 54.6875 
L 24.421875 12.015625 
L 35.59375 54.6875 
L 46.1875 54.6875 
L 57.421875 12.015625 
L 68.609375 54.6875 
L 77.59375 54.6875 
L 63.28125 0 
L 52.6875 0 
L 40.921875 44.828125 
L 29.109375 0 
L 18.5 0 
z
" id="DejaVuSans-77"/>
     <path d="M 8.59375 75.984375 
L 29.296875 75.984375 
L 29.296875 69 
L 17.578125 69 
L 17.578125 -6.203125 
L 29.296875 -6.203125 
L 29.296875 -13.1875 
L 8.59375 -13.1875 
z
" id="DejaVuSans-5b"/>
     <path d="M 45.40625 46.390625 
L 45.40625 75.984375 
L 54.390625 75.984375 
L 54.390625 0 
L 45.40625 0 
L 45.40625 8.203125 
Q 42.578125 3.328125 38.25 0.953125 
Q 33.9375 -1.421875 27.875 -1.421875 
Q 17.96875 -1.421875 11.734375 6.484375 
Q 5.515625 14.40625 5.515625 27.296875 
Q 5.515625 40.1875 11.734375 48.09375 
Q 17.96875 56 27.875 56 
Q 33.9375 56 38.25 53.625 
Q 42.578125 51.265625 45.40625 46.390625 
z
M 14.796875 27.296875 
Q 14.796875 17.390625 18.875 11.75 
Q 22.953125 6.109375 30.078125 6.109375 
Q 37.203125 6.109375 41.296875 11.75 
Q 45.40625 17.390625 45.40625 27.296875 
Q 45.40625 37.203125 41.296875 42.84375 
Q 37.203125 48.484375 30.078125 48.484375 
Q 22.953125 48.484375 18.875 42.84375 
Q 14.796875 37.203125 14.796875 27.296875 
z
" id="DejaVuSans-64"/>
     <path d="M 4.890625 31.390625 
L 31.203125 31.390625 
L 31.203125 23.390625 
L 4.890625 23.390625 
z
" id="DejaVuSans-2d"/>
     <path d="M 52 44.1875 
Q 55.375 50.25 60.0625 53.125 
Q 64.75 56 71.09375 56 
Q 79.640625 56 84.28125 50.015625 
Q 88.921875 44.046875 88.921875 33.015625 
L 88.921875 0 
L 79.890625 0 
L 79.890625 32.71875 
Q 79.890625 40.578125 77.09375 44.375 
Q 74.3125 48.1875 68.609375 48.1875 
Q 61.625 48.1875 57.5625 43.546875 
Q 53.515625 38.921875 53.515625 30.90625 
L 53.515625 0 
L 44.484375 0 
L 44.484375 32.71875 
Q 44.484375 40.625 41.703125 44.40625 
Q 38.921875 48.1875 33.109375 48.1875 
Q 26.21875 48.1875 22.15625 43.53125 
Q 18.109375 38.875 18.109375 30.90625 
L 18.109375 0 
L 9.078125 0 
L 9.078125 54.6875 
L 18.109375 54.6875 
L 18.109375 46.1875 
Q 21.1875 51.21875 25.484375 53.609375 
Q 29.78125 56 35.6875 56 
Q 41.65625 56 45.828125 52.96875 
Q 50 49.953125 52 44.1875 
z
" id="DejaVuSans-6d"/>
     <path d="M 30.421875 75.984375 
L 30.421875 -13.1875 
L 9.71875 -13.1875 
L 9.71875 -6.203125 
L 21.390625 -6.203125 
L 21.390625 69 
L 9.71875 69 
L 9.71875 75.984375 
z
" id="DejaVuSans-5d"/>
    </defs>
    <g transform="translate(131.563438 16.318125)scale(0.12 -0.12)">
     <use xlink:href="#DejaVuSans-44"/>
     <use x="77.001953" xlink:href="#DejaVuSans-69"/>
     <use x="104.785156" xlink:href="#DejaVuSans-73"/>
     <use x="156.884766" xlink:href="#DejaVuSans-74"/>
     <use x="196.09375" xlink:href="#DejaVuSans-72"/>
     <use x="237.207031" xlink:href="#DejaVuSans-69"/>
     <use x="264.990234" xlink:href="#DejaVuSans-62"/>
     <use x="328.466797" xlink:href="#DejaVuSans-75"/>
     <use x="391.845703" xlink:href="#DejaVuSans-74"/>
     <use x="431.054688" xlink:href="#DejaVuSans-69"/>
     <use x="458.837891" xlink:href="#DejaVuSans-6f"/>
     <use x="520.019531" xlink:href="#DejaVuSans-6e"/>
     <use x="583.398438" xlink:href="#DejaVuSans-20"/>
     <use x="615.185547" xlink:href="#DejaVuSans-42"/>
     <use x="683.789062" xlink:href="#DejaVuSans-65"/>
     <use x="745.3125" xlink:href="#DejaVuSans-74"/>
     <use x="784.521484" xlink:href="#DejaVuSans-77"/>
     <use x="866.308594" xlink:href="#DejaVuSans-65"/>
     <use x="927.832031" xlink:href="#DejaVuSans-65"/>
     <use x="989.355469" xlink:href="#DejaVuSans-6e"/>
     <use x="1052.734375" xlink:href="#DejaVuSans-20"/>
     <use x="1084.521484" xlink:href="#DejaVuSans-50"/>
     <use x="1144.761719" xlink:href="#DejaVuSans-61"/>
     <use x="1206.041016" xlink:href="#DejaVuSans-69"/>
     <use x="1233.824219" xlink:href="#DejaVuSans-72"/>
     <use x="1274.9375" xlink:href="#DejaVuSans-73"/>
     <use x="1327.037109" xlink:href="#DejaVuSans-20"/>
     <use x="1358.824219" xlink:href="#DejaVuSans-5b"/>
     <use x="1397.837891" xlink:href="#DejaVuSans-64"/>
     <use x="1461.314453" xlink:href="#DejaVuSans-2d"/>
     <use x="1497.398438" xlink:href="#DejaVuSans-64"/>
     <use x="1560.875" xlink:href="#DejaVuSans-69"/>
     <use x="1588.658203" xlink:href="#DejaVuSans-6d"/>
     <use x="1686.070312" xlink:href="#DejaVuSans-5d"/>
    </g>
   </g>
  </g>
  <g id="text_21">
   <g id="patch_17">
    <path d="M 165.809375 369.50175 
L 292.803125 369.50175 
Q 298.803125 369.50175 298.803125 363.50175 
L 298.803125 338.450625 
Q 298.803125 332.450625 292.803125 332.450625 
L 165.809375 332.450625 
Q 159.809375 332.450625 159.809375 338.450625 
L 159.809375 363.50175 
Q 159.809375 369.50175 165.809375 369.50175 
z
" style="fill:#ffffff;stroke:#808080;stroke-linejoin:miter;"/>
   </g>
   <!-- Dimension: 900 -->
   <defs>
    <path d="M 11.71875 12.40625 
L 22.015625 12.40625 
L 22.015625 0 
L 11.71875 0 
z
M 11.71875 51.703125 
L 22.015625 51.703125 
L 22.015625 39.3125 
L 11.71875 39.3125 
z
" id="DejaVuSans-3a"/>
    <path d="M 10.984375 1.515625 
L 10.984375 10.5 
Q 14.703125 8.734375 18.5 7.8125 
Q 22.3125 6.890625 25.984375 6.890625 
Q 35.75 6.890625 40.890625 13.453125 
Q 46.046875 20.015625 46.78125 33.40625 
Q 43.953125 29.203125 39.59375 26.953125 
Q 35.25 24.703125 29.984375 24.703125 
Q 19.046875 24.703125 12.671875 31.3125 
Q 6.296875 37.9375 6.296875 49.421875 
Q 6.296875 60.640625 12.9375 67.421875 
Q 19.578125 74.21875 30.609375 74.21875 
Q 43.265625 74.21875 49.921875 64.515625 
Q 56.59375 54.828125 56.59375 36.375 
Q 56.59375 19.140625 48.40625 8.859375 
Q 40.234375 -1.421875 26.421875 -1.421875 
Q 22.703125 -1.421875 18.890625 -0.6875 
Q 15.09375 0.046875 10.984375 1.515625 
z
M 30.609375 32.421875 
Q 37.25 32.421875 41.125 36.953125 
Q 45.015625 41.5 45.015625 49.421875 
Q 45.015625 57.28125 41.125 61.84375 
Q 37.25 66.40625 30.609375 66.40625 
Q 23.96875 66.40625 20.09375 61.84375 
Q 16.21875 57.28125 16.21875 49.421875 
Q 16.21875 41.5 20.09375 36.953125 
Q 23.96875 32.421875 30.609375 32.421875 
z
" id="DejaVuSans-39"/>
   </defs>
   <g transform="translate(165.809375 347.56875)scale(0.12 -0.12)">
    <use xlink:href="#DejaVuSans-44"/>
    <use x="77.001953" xlink:href="#DejaVuSans-69"/>
    <use x="104.785156" xlink:href="#DejaVuSans-6d"/>
    <use x="202.197266" xlink:href="#DejaVuSans-65"/>
    <use x="263.720703" xlink:href="#DejaVuSans-6e"/>
    <use x="327.099609" xlink:href="#DejaVuSans-73"/>
    <use x="379.199219" xlink:href="#DejaVuSans-69"/>
    <use x="406.982422" xlink:href="#DejaVuSans-6f"/>
    <use x="468.164062" xlink:href="#DejaVuSans-6e"/>
    <use x="531.542969" xlink:href="#DejaVuSans-3a"/>
    <use x="565.234375" xlink:href="#DejaVuSans-20"/>
    <use x="597.021484" xlink:href="#DejaVuSans-39"/>
    <use x="660.644531" xlink:href="#DejaVuSans-30"/>
    <use x="724.267578" xlink:href="#DejaVuSans-30"/>
   </g>
   <!-- Number of Points: 20 -->
   <defs>
    <path d="M 9.8125 72.90625 
L 23.09375 72.90625 
L 55.421875 11.921875 
L 55.421875 72.90625 
L 64.984375 72.90625 
L 64.984375 0 
L 51.703125 0 
L 19.390625 60.984375 
L 19.390625 0 
L 9.8125 0 
z
" id="DejaVuSans-4e"/>
    <path d="M 37.109375 75.984375 
L 37.109375 68.5 
L 28.515625 68.5 
Q 23.6875 68.5 21.796875 66.546875 
Q 19.921875 64.59375 19.921875 59.515625 
L 19.921875 54.6875 
L 34.71875 54.6875 
L 34.71875 47.703125 
L 19.921875 47.703125 
L 19.921875 0 
L 10.890625 0 
L 10.890625 47.703125 
L 2.296875 47.703125 
L 2.296875 54.6875 
L 10.890625 54.6875 
L 10.890625 58.5 
Q 10.890625 67.625 15.140625 71.796875 
Q 19.390625 75.984375 28.609375 75.984375 
z
" id="DejaVuSans-66"/>
   </defs>
   <g transform="translate(165.809375 361.006125)scale(0.12 -0.12)">
    <use xlink:href="#DejaVuSans-4e"/>
    <use x="74.804688" xlink:href="#DejaVuSans-75"/>
    <use x="138.183594" xlink:href="#DejaVuSans-6d"/>
    <use x="235.595703" xlink:href="#DejaVuSans-62"/>
    <use x="299.072266" xlink:href="#DejaVuSans-65"/>
    <use x="360.595703" xlink:href="#DejaVuSans-72"/>
    <use x="401.708984" xlink:href="#DejaVuSans-20"/>
    <use x="433.496094" xlink:href="#DejaVuSans-6f"/>
    <use x="494.677734" xlink:href="#DejaVuSans-66"/>
    <use x="529.882812" xlink:href="#DejaVuSans-20"/>
    <use x="561.669922" xlink:href="#DejaVuSans-50"/>
    <use x="621.925781" xlink:href="#DejaVuSans-6f"/>
    <use x="683.107422" xlink:href="#DejaVuSans-69"/>
    <use x="710.890625" xlink:href="#DejaVuSans-6e"/>
    <use x="774.269531" xlink:href="#DejaVuSans-74"/>
    <use x="813.478516" xlink:href="#DejaVuSans-73"/>
    <use x="865.578125" xlink:href="#DejaVuSans-3a"/>
    <use x="899.269531" xlink:href="#DejaVuSans-20"/>
    <use x="931.056641" xlink:href="#DejaVuSans-32"/>
    <use x="994.679688" xlink:href="#DejaVuSans-30"/>
   </g>
  </g>
 </g>
 <defs>
  <clipPath id="p51085b6092">
   <rect height="266.112" width="357.12" x="56.50625" y="22.318125"/>
  </clipPath>
 </defs>
</svg>
