<?xml version="1.0" encoding="utf-8" standalone="no"?>
<!DOCTYPE svg PUBLIC "-//W3C//DTD SVG 1.1//EN"
  "http://www.w3.org/Graphics/SVG/1.1/DTD/svg11.dtd">
<!-- Created with matplotlib (http://matplotlib.org/) -->
<svg height="387pt" version="1.1" viewBox="0 0 430 387" width="430pt" xmlns="http://www.w3.org/2000/svg" xmlns:xlink="http://www.w3.org/1999/xlink">
 <defs>
  <style type="text/css">
*{stroke-linecap:butt;stroke-linejoin:round;}
  </style>
 </defs>
 <g id="figure_1">
  <g id="patch_1">
   <path d="M 0 387.98175 
L 430.68875 387.98175 
L 430.68875 0 
L 0 0 
z
" style="fill:#ffffff;"/>
  </g>
  <g id="axes_1">
   <g id="patch_2">
    <path d="M 62.86875 288.430125 
L 419.98875 288.430125 
L 419.98875 22.318125 
L 62.86875 22.318125 
z
" style="fill:#ffffff;"/>
   </g>
   <g id="patch_3">
    <path clip-path="url(#pbad351a257)" d="M 79.101477 288.430125 
L 111.566932 288.430125 
L 111.566932 228.087268 
L 79.101477 228.087268 
z
" style="fill:#ff7f0e;"/>
   </g>
   <g id="patch_4">
    <path clip-path="url(#pbad351a257)" d="M 111.566932 288.430125 
L 144.032386 288.430125 
L 144.032386 131.538696 
L 111.566932 131.538696 
z
" style="fill:#ff7f0e;"/>
   </g>
   <g id="patch_5">
    <path clip-path="url(#pbad351a257)" d="M 144.032386 288.430125 
L 176.497841 288.430125 
L 176.497841 34.990125 
L 144.032386 34.990125 
z
" style="fill:#ff7f0e;"/>
   </g>
   <g id="patch_6">
    <path clip-path="url(#pbad351a257)" d="M 176.497841 288.430125 
L 208.963295 288.430125 
L 208.963295 59.127268 
L 176.497841 59.127268 
z
" style="fill:#ff7f0e;"/>
   </g>
   <g id="patch_7">
    <path clip-path="url(#pbad351a257)" d="M 208.963295 288.430125 
L 241.42875 288.430125 
L 241.42875 95.332982 
L 208.963295 95.332982 
z
" style="fill:#ff7f0e;"/>
   </g>
   <g id="patch_8">
    <path clip-path="url(#pbad351a257)" d="M 241.42875 288.430125 
L 273.894205 288.430125 
L 273.894205 185.847268 
L 241.42875 185.847268 
z
" style="fill:#ff7f0e;"/>
   </g>
   <g id="patch_9">
    <path clip-path="url(#pbad351a257)" d="M 273.894205 288.430125 
L 306.359659 288.430125 
L 306.359659 185.847268 
L 273.894205 185.847268 
z
" style="fill:#ff7f0e;"/>
   </g>
   <g id="patch_10">
    <path clip-path="url(#pbad351a257)" d="M 306.359659 288.430125 
L 338.825114 288.430125 
L 338.825114 270.327268 
L 306.359659 270.327268 
z
" style="fill:#ff7f0e;"/>
   </g>
   <g id="patch_11">
    <path clip-path="url(#pbad351a257)" d="M 338.825114 288.430125 
L 371.290568 288.430125 
L 371.290568 270.327268 
L 338.825114 270.327268 
z
" style="fill:#ff7f0e;"/>
   </g>
   <g id="patch_12">
    <path clip-path="url(#pbad351a257)" d="M 371.290568 288.430125 
L 403.756023 288.430125 
L 403.756023 276.361554 
L 371.290568 276.361554 
z
" style="fill:#ff7f0e;"/>
   </g>
   <g id="matplotlib.axis_1">
    <g id="xtick_1">
     <g id="line2d_1">
      <defs>
       <path d="M 0 0 
L 0 3.5 
" id="m0265f60d63" style="stroke:#000000;stroke-width:0.8;"/>
      </defs>
      <g>
       <use style="stroke:#000000;stroke-width:0.8;" x="116.595844" xlink:href="#m0265f60d63" y="288.430125"/>
      </g>
     </g>
     <g id="text_1">
      <!-- 1000 -->
      <defs>
       <path d="M 12.40625 8.296875 
L 28.515625 8.296875 
L 28.515625 63.921875 
L 10.984375 60.40625 
L 10.984375 69.390625 
L 28.421875 72.90625 
L 38.28125 72.90625 
L 38.28125 8.296875 
L 54.390625 8.296875 
L 54.390625 0 
L 12.40625 0 
z
" id="DejaVuSans-31"/>
       <path d="M 31.78125 66.40625 
Q 24.171875 66.40625 20.328125 58.90625 
Q 16.5 51.421875 16.5 36.375 
Q 16.5 21.390625 20.328125 13.890625 
Q 24.171875 6.390625 31.78125 6.390625 
Q 39.453125 6.390625 43.28125 13.890625 
Q 47.125 21.390625 47.125 36.375 
Q 47.125 51.421875 43.28125 58.90625 
Q 39.453125 66.40625 31.78125 66.40625 
z
M 31.78125 74.21875 
Q 44.046875 74.21875 50.515625 64.515625 
Q 56.984375 54.828125 56.984375 36.375 
Q 56.984375 17.96875 50.515625 8.265625 
Q 44.046875 -1.421875 31.78125 -1.421875 
Q 19.53125 -1.421875 13.0625 8.265625 
Q 6.59375 17.96875 6.59375 36.375 
Q 6.59375 54.828125 13.0625 64.515625 
Q 19.53125 74.21875 31.78125 74.21875 
z
" id="DejaVuSans-30"/>
      </defs>
      <g transform="translate(103.870844 303.028562)scale(0.1 -0.1)">
       <use xlink:href="#DejaVuSans-31"/>
       <use x="63.623047" xlink:href="#DejaVuSans-30"/>
       <use x="127.246094" xlink:href="#DejaVuSans-30"/>
       <use x="190.869141" xlink:href="#DejaVuSans-30"/>
      </g>
     </g>
    </g>
    <g id="xtick_2">
     <g id="line2d_2">
      <g>
       <use style="stroke:#000000;stroke-width:0.8;" x="182.859522" xlink:href="#m0265f60d63" y="288.430125"/>
      </g>
     </g>
     <g id="text_2">
      <!-- 2000 -->
      <defs>
       <path d="M 19.1875 8.296875 
L 53.609375 8.296875 
L 53.609375 0 
L 7.328125 0 
L 7.328125 8.296875 
Q 12.9375 14.109375 22.625 23.890625 
Q 32.328125 33.6875 34.8125 36.53125 
Q 39.546875 41.84375 41.421875 45.53125 
Q 43.3125 49.21875 43.3125 52.78125 
Q 43.3125 58.59375 39.234375 62.25 
Q 35.15625 65.921875 28.609375 65.921875 
Q 23.96875 65.921875 18.8125 64.3125 
Q 13.671875 62.703125 7.8125 59.421875 
L 7.8125 69.390625 
Q 13.765625 71.78125 18.9375 73 
Q 24.125 74.21875 28.421875 74.21875 
Q 39.75 74.21875 46.484375 68.546875 
Q 53.21875 62.890625 53.21875 53.421875 
Q 53.21875 48.921875 51.53125 44.890625 
Q 49.859375 40.875 45.40625 35.40625 
Q 44.1875 33.984375 37.640625 27.21875 
Q 31.109375 20.453125 19.1875 8.296875 
z
" id="DejaVuSans-32"/>
      </defs>
      <g transform="translate(170.134522 303.028562)scale(0.1 -0.1)">
       <use xlink:href="#DejaVuSans-32"/>
       <use x="63.623047" xlink:href="#DejaVuSans-30"/>
       <use x="127.246094" xlink:href="#DejaVuSans-30"/>
       <use x="190.869141" xlink:href="#DejaVuSans-30"/>
      </g>
     </g>
    </g>
    <g id="xtick_3">
     <g id="line2d_3">
      <g>
       <use style="stroke:#000000;stroke-width:0.8;" x="249.1232" xlink:href="#m0265f60d63" y="288.430125"/>
      </g>
     </g>
     <g id="text_3">
      <!-- 3000 -->
      <defs>
       <path d="M 40.578125 39.3125 
Q 47.65625 37.796875 51.625 33 
Q 55.609375 28.21875 55.609375 21.1875 
Q 55.609375 10.40625 48.1875 4.484375 
Q 40.765625 -1.421875 27.09375 -1.421875 
Q 22.515625 -1.421875 17.65625 -0.515625 
Q 12.796875 0.390625 7.625 2.203125 
L 7.625 11.71875 
Q 11.71875 9.328125 16.59375 8.109375 
Q 21.484375 6.890625 26.8125 6.890625 
Q 36.078125 6.890625 40.9375 10.546875 
Q 45.796875 14.203125 45.796875 21.1875 
Q 45.796875 27.640625 41.28125 31.265625 
Q 36.765625 34.90625 28.71875 34.90625 
L 20.21875 34.90625 
L 20.21875 43.015625 
L 29.109375 43.015625 
Q 36.375 43.015625 40.234375 45.921875 
Q 44.09375 48.828125 44.09375 54.296875 
Q 44.09375 59.90625 40.109375 62.90625 
Q 36.140625 65.921875 28.71875 65.921875 
Q 24.65625 65.921875 20.015625 65.03125 
Q 15.375 64.15625 9.8125 62.3125 
L 9.8125 71.09375 
Q 15.4375 72.65625 20.34375 73.4375 
Q 25.25 74.21875 29.59375 74.21875 
Q 40.828125 74.21875 47.359375 69.109375 
Q 53.90625 64.015625 53.90625 55.328125 
Q 53.90625 49.265625 50.4375 45.09375 
Q 46.96875 40.921875 40.578125 39.3125 
z
" id="DejaVuSans-33"/>
      </defs>
      <g transform="translate(236.3982 303.028562)scale(0.1 -0.1)">
       <use xlink:href="#DejaVuSans-33"/>
       <use x="63.623047" xlink:href="#DejaVuSans-30"/>
       <use x="127.246094" xlink:href="#DejaVuSans-30"/>
       <use x="190.869141" xlink:href="#DejaVuSans-30"/>
      </g>
     </g>
    </g>
    <g id="xtick_4">
     <g id="line2d_4">
      <g>
       <use style="stroke:#000000;stroke-width:0.8;" x="315.386878" xlink:href="#m0265f60d63" y="288.430125"/>
      </g>
     </g>
     <g id="text_4">
      <!-- 4000 -->
      <defs>
       <path d="M 37.796875 64.3125 
L 12.890625 25.390625 
L 37.796875 25.390625 
z
M 35.203125 72.90625 
L 47.609375 72.90625 
L 47.609375 25.390625 
L 58.015625 25.390625 
L 58.015625 17.1875 
L 47.609375 17.1875 
L 47.609375 0 
L 37.796875 0 
L 37.796875 17.1875 
L 4.890625 17.1875 
L 4.890625 26.703125 
z
" id="DejaVuSans-34"/>
      </defs>
      <g transform="translate(302.661878 303.028562)scale(0.1 -0.1)">
       <use xlink:href="#DejaVuSans-34"/>
       <use x="63.623047" xlink:href="#DejaVuSans-30"/>
       <use x="127.246094" xlink:href="#DejaVuSans-30"/>
       <use x="190.869141" xlink:href="#DejaVuSans-30"/>
      </g>
     </g>
    </g>
    <g id="xtick_5">
     <g id="line2d_5">
      <g>
       <use style="stroke:#000000;stroke-width:0.8;" x="381.650556" xlink:href="#m0265f60d63" y="288.430125"/>
      </g>
     </g>
     <g id="text_5">
      <!-- 5000 -->
      <defs>
       <path d="M 10.796875 72.90625 
L 49.515625 72.90625 
L 49.515625 64.59375 
L 19.828125 64.59375 
L 19.828125 46.734375 
Q 21.96875 47.46875 24.109375 47.828125 
Q 26.265625 48.1875 28.421875 48.1875 
Q 40.625 48.1875 47.75 41.5 
Q 54.890625 34.8125 54.890625 23.390625 
Q 54.890625 11.625 47.5625 5.09375 
Q 40.234375 -1.421875 26.90625 -1.421875 
Q 22.3125 -1.421875 17.546875 -0.640625 
Q 12.796875 0.140625 7.71875 1.703125 
L 7.71875 11.625 
Q 12.109375 9.234375 16.796875 8.0625 
Q 21.484375 6.890625 26.703125 6.890625 
Q 35.15625 6.890625 40.078125 11.328125 
Q 45.015625 15.765625 45.015625 23.390625 
Q 45.015625 31 40.078125 35.4375 
Q 35.15625 39.890625 26.703125 39.890625 
Q 22.75 39.890625 18.8125 39.015625 
Q 14.890625 38.140625 10.796875 36.28125 
z
" id="DejaVuSans-35"/>
      </defs>
      <g transform="translate(368.925556 303.028562)scale(0.1 -0.1)">
       <use xlink:href="#DejaVuSans-35"/>
       <use x="63.623047" xlink:href="#DejaVuSans-30"/>
       <use x="127.246094" xlink:href="#DejaVuSans-30"/>
       <use x="190.869141" xlink:href="#DejaVuSans-30"/>
      </g>
     </g>
    </g>
    <g id="text_6">
     <!-- Distance -->
     <defs>
      <path d="M 19.671875 64.796875 
L 19.671875 8.109375 
L 31.59375 8.109375 
Q 46.6875 8.109375 53.6875 14.9375 
Q 60.6875 21.78125 60.6875 36.53125 
Q 60.6875 51.171875 53.6875 57.984375 
Q 46.6875 64.796875 31.59375 64.796875 
z
M 9.8125 72.90625 
L 30.078125 72.90625 
Q 51.265625 72.90625 61.171875 64.09375 
Q 71.09375 55.28125 71.09375 36.53125 
Q 71.09375 17.671875 61.125 8.828125 
Q 51.171875 0 30.078125 0 
L 9.8125 0 
z
" id="DejaVuSans-44"/>
      <path d="M 9.421875 54.6875 
L 18.40625 54.6875 
L 18.40625 0 
L 9.421875 0 
z
M 9.421875 75.984375 
L 18.40625 75.984375 
L 18.40625 64.59375 
L 9.421875 64.59375 
z
" id="DejaVuSans-69"/>
      <path d="M 44.28125 53.078125 
L 44.28125 44.578125 
Q 40.484375 46.53125 36.375 47.5 
Q 32.28125 48.484375 27.875 48.484375 
Q 21.1875 48.484375 17.84375 46.4375 
Q 14.5 44.390625 14.5 40.28125 
Q 14.5 37.15625 16.890625 35.375 
Q 19.28125 33.59375 26.515625 31.984375 
L 29.59375 31.296875 
Q 39.15625 29.25 43.1875 25.515625 
Q 47.21875 21.78125 47.21875 15.09375 
Q 47.21875 7.46875 41.1875 3.015625 
Q 35.15625 -1.421875 24.609375 -1.421875 
Q 20.21875 -1.421875 15.453125 -0.5625 
Q 10.6875 0.296875 5.421875 2 
L 5.421875 11.28125 
Q 10.40625 8.6875 15.234375 7.390625 
Q 20.0625 6.109375 24.8125 6.109375 
Q 31.15625 6.109375 34.5625 8.28125 
Q 37.984375 10.453125 37.984375 14.40625 
Q 37.984375 18.0625 35.515625 20.015625 
Q 33.0625 21.96875 24.703125 23.78125 
L 21.578125 24.515625 
Q 13.234375 26.265625 9.515625 29.90625 
Q 5.8125 33.546875 5.8125 39.890625 
Q 5.8125 47.609375 11.28125 51.796875 
Q 16.75 56 26.8125 56 
Q 31.78125 56 36.171875 55.265625 
Q 40.578125 54.546875 44.28125 53.078125 
z
" id="DejaVuSans-73"/>
      <path d="M 18.3125 70.21875 
L 18.3125 54.6875 
L 36.8125 54.6875 
L 36.8125 47.703125 
L 18.3125 47.703125 
L 18.3125 18.015625 
Q 18.3125 11.328125 20.140625 9.421875 
Q 21.96875 7.515625 27.59375 7.515625 
L 36.8125 7.515625 
L 36.8125 0 
L 27.59375 0 
Q 17.1875 0 13.234375 3.875 
Q 9.28125 7.765625 9.28125 18.015625 
L 9.28125 47.703125 
L 2.6875 47.703125 
L 2.6875 54.6875 
L 9.28125 54.6875 
L 9.28125 70.21875 
z
" id="DejaVuSans-74"/>
      <path d="M 34.28125 27.484375 
Q 23.390625 27.484375 19.1875 25 
Q 14.984375 22.515625 14.984375 16.5 
Q 14.984375 11.71875 18.140625 8.90625 
Q 21.296875 6.109375 26.703125 6.109375 
Q 34.1875 6.109375 38.703125 11.40625 
Q 43.21875 16.703125 43.21875 25.484375 
L 43.21875 27.484375 
z
M 52.203125 31.203125 
L 52.203125 0 
L 43.21875 0 
L 43.21875 8.296875 
Q 40.140625 3.328125 35.546875 0.953125 
Q 30.953125 -1.421875 24.3125 -1.421875 
Q 15.921875 -1.421875 10.953125 3.296875 
Q 6 8.015625 6 15.921875 
Q 6 25.140625 12.171875 29.828125 
Q 18.359375 34.515625 30.609375 34.515625 
L 43.21875 34.515625 
L 43.21875 35.40625 
Q 43.21875 41.609375 39.140625 45 
Q 35.0625 48.390625 27.6875 48.390625 
Q 23 48.390625 18.546875 47.265625 
Q 14.109375 46.140625 10.015625 43.890625 
L 10.015625 52.203125 
Q 14.9375 54.109375 19.578125 55.046875 
Q 24.21875 56 28.609375 56 
Q 40.484375 56 46.34375 49.84375 
Q 52.203125 43.703125 52.203125 31.203125 
z
" id="DejaVuSans-61"/>
      <path d="M 54.890625 33.015625 
L 54.890625 0 
L 45.90625 0 
L 45.90625 32.71875 
Q 45.90625 40.484375 42.875 44.328125 
Q 39.84375 48.1875 33.796875 48.1875 
Q 26.515625 48.1875 22.3125 43.546875 
Q 18.109375 38.921875 18.109375 30.90625 
L 18.109375 0 
L 9.078125 0 
L 9.078125 54.6875 
L 18.109375 54.6875 
L 18.109375 46.1875 
Q 21.34375 51.125 25.703125 53.5625 
Q 30.078125 56 35.796875 56 
Q 45.21875 56 50.046875 50.171875 
Q 54.890625 44.34375 54.890625 33.015625 
z
" id="DejaVuSans-6e"/>
      <path d="M 48.78125 52.59375 
L 48.78125 44.1875 
Q 44.96875 46.296875 41.140625 47.34375 
Q 37.3125 48.390625 33.40625 48.390625 
Q 24.65625 48.390625 19.8125 42.84375 
Q 14.984375 37.3125 14.984375 27.296875 
Q 14.984375 17.28125 19.8125 11.734375 
Q 24.65625 6.203125 33.40625 6.203125 
Q 37.3125 6.203125 41.140625 7.25 
Q 44.96875 8.296875 48.78125 10.40625 
L 48.78125 2.09375 
Q 45.015625 0.34375 40.984375 -0.53125 
Q 36.96875 -1.421875 32.421875 -1.421875 
Q 20.0625 -1.421875 12.78125 6.34375 
Q 5.515625 14.109375 5.515625 27.296875 
Q 5.515625 40.671875 12.859375 48.328125 
Q 20.21875 56 33.015625 56 
Q 37.15625 56 41.109375 55.140625 
Q 45.0625 54.296875 48.78125 52.59375 
z
" id="DejaVuSans-63"/>
      <path d="M 56.203125 29.59375 
L 56.203125 25.203125 
L 14.890625 25.203125 
Q 15.484375 15.921875 20.484375 11.0625 
Q 25.484375 6.203125 34.421875 6.203125 
Q 39.59375 6.203125 44.453125 7.46875 
Q 49.3125 8.734375 54.109375 11.28125 
L 54.109375 2.78125 
Q 49.265625 0.734375 44.1875 -0.34375 
Q 39.109375 -1.421875 33.890625 -1.421875 
Q 20.796875 -1.421875 13.15625 6.1875 
Q 5.515625 13.8125 5.515625 26.8125 
Q 5.515625 40.234375 12.765625 48.109375 
Q 20.015625 56 32.328125 56 
Q 43.359375 56 49.78125 48.890625 
Q 56.203125 41.796875 56.203125 29.59375 
z
M 47.21875 32.234375 
Q 47.125 39.59375 43.09375 43.984375 
Q 39.0625 48.390625 32.421875 48.390625 
Q 24.90625 48.390625 20.390625 44.140625 
Q 15.875 39.890625 15.1875 32.171875 
z
" id="DejaVuSans-65"/>
     </defs>
     <g transform="translate(219.56625 316.706687)scale(0.1 -0.1)">
      <use xlink:href="#DejaVuSans-44"/>
      <use x="77.001953" xlink:href="#DejaVuSans-69"/>
      <use x="104.785156" xlink:href="#DejaVuSans-73"/>
      <use x="156.884766" xlink:href="#DejaVuSans-74"/>
      <use x="196.09375" xlink:href="#DejaVuSans-61"/>
      <use x="257.373047" xlink:href="#DejaVuSans-6e"/>
      <use x="320.751953" xlink:href="#DejaVuSans-63"/>
      <use x="375.732422" xlink:href="#DejaVuSans-65"/>
     </g>
    </g>
   </g>
   <g id="matplotlib.axis_2">
    <g id="ytick_1">
     <g id="line2d_6">
      <defs>
       <path d="M 0 0 
L -3.5 0 
" id="m3d80fca84a" style="stroke:#000000;stroke-width:0.8;"/>
      </defs>
      <g>
       <use style="stroke:#000000;stroke-width:0.8;" x="62.86875" xlink:href="#m3d80fca84a" y="288.430125"/>
      </g>
     </g>
     <g id="text_7">
      <!-- 0.0000 -->
      <defs>
       <path d="M 10.6875 12.40625 
L 21 12.40625 
L 21 0 
L 10.6875 0 
z
" id="DejaVuSans-2e"/>
      </defs>
      <g transform="translate(20.878125 292.229344)scale(0.1 -0.1)">
       <use xlink:href="#DejaVuSans-30"/>
       <use x="63.623047" xlink:href="#DejaVuSans-2e"/>
       <use x="95.410156" xlink:href="#DejaVuSans-30"/>
       <use x="159.033203" xlink:href="#DejaVuSans-30"/>
       <use x="222.65625" xlink:href="#DejaVuSans-30"/>
       <use x="286.279297" xlink:href="#DejaVuSans-30"/>
      </g>
     </g>
    </g>
    <g id="ytick_2">
     <g id="line2d_7">
      <g>
       <use style="stroke:#000000;stroke-width:0.8;" x="62.86875" xlink:href="#m3d80fca84a" y="232.257409"/>
      </g>
     </g>
     <g id="text_8">
      <!-- 0.0001 -->
      <g transform="translate(20.878125 236.056628)scale(0.1 -0.1)">
       <use xlink:href="#DejaVuSans-30"/>
       <use x="63.623047" xlink:href="#DejaVuSans-2e"/>
       <use x="95.410156" xlink:href="#DejaVuSans-30"/>
       <use x="159.033203" xlink:href="#DejaVuSans-30"/>
       <use x="222.65625" xlink:href="#DejaVuSans-30"/>
       <use x="286.279297" xlink:href="#DejaVuSans-31"/>
      </g>
     </g>
    </g>
    <g id="ytick_3">
     <g id="line2d_8">
      <g>
       <use style="stroke:#000000;stroke-width:0.8;" x="62.86875" xlink:href="#m3d80fca84a" y="176.084694"/>
      </g>
     </g>
     <g id="text_9">
      <!-- 0.0002 -->
      <g transform="translate(20.878125 179.883912)scale(0.1 -0.1)">
       <use xlink:href="#DejaVuSans-30"/>
       <use x="63.623047" xlink:href="#DejaVuSans-2e"/>
       <use x="95.410156" xlink:href="#DejaVuSans-30"/>
       <use x="159.033203" xlink:href="#DejaVuSans-30"/>
       <use x="222.65625" xlink:href="#DejaVuSans-30"/>
       <use x="286.279297" xlink:href="#DejaVuSans-32"/>
      </g>
     </g>
    </g>
    <g id="ytick_4">
     <g id="line2d_9">
      <g>
       <use style="stroke:#000000;stroke-width:0.8;" x="62.86875" xlink:href="#m3d80fca84a" y="119.911978"/>
      </g>
     </g>
     <g id="text_10">
      <!-- 0.0003 -->
      <g transform="translate(20.878125 123.711197)scale(0.1 -0.1)">
       <use xlink:href="#DejaVuSans-30"/>
       <use x="63.623047" xlink:href="#DejaVuSans-2e"/>
       <use x="95.410156" xlink:href="#DejaVuSans-30"/>
       <use x="159.033203" xlink:href="#DejaVuSans-30"/>
       <use x="222.65625" xlink:href="#DejaVuSans-30"/>
       <use x="286.279297" xlink:href="#DejaVuSans-33"/>
      </g>
     </g>
    </g>
    <g id="ytick_5">
     <g id="line2d_10">
      <g>
       <use style="stroke:#000000;stroke-width:0.8;" x="62.86875" xlink:href="#m3d80fca84a" y="63.739262"/>
      </g>
     </g>
     <g id="text_11">
      <!-- 0.0004 -->
      <g transform="translate(20.878125 67.538481)scale(0.1 -0.1)">
       <use xlink:href="#DejaVuSans-30"/>
       <use x="63.623047" xlink:href="#DejaVuSans-2e"/>
       <use x="95.410156" xlink:href="#DejaVuSans-30"/>
       <use x="159.033203" xlink:href="#DejaVuSans-30"/>
       <use x="222.65625" xlink:href="#DejaVuSans-30"/>
       <use x="286.279297" xlink:href="#DejaVuSans-34"/>
      </g>
     </g>
    </g>
    <g id="text_12">
     <!-- Probability -->
     <defs>
      <path d="M 19.671875 64.796875 
L 19.671875 37.40625 
L 32.078125 37.40625 
Q 38.96875 37.40625 42.71875 40.96875 
Q 46.484375 44.53125 46.484375 51.125 
Q 46.484375 57.671875 42.71875 61.234375 
Q 38.96875 64.796875 32.078125 64.796875 
z
M 9.8125 72.90625 
L 32.078125 72.90625 
Q 44.34375 72.90625 50.609375 67.359375 
Q 56.890625 61.8125 56.890625 51.125 
Q 56.890625 40.328125 50.609375 34.8125 
Q 44.34375 29.296875 32.078125 29.296875 
L 19.671875 29.296875 
L 19.671875 0 
L 9.8125 0 
z
" id="DejaVuSans-50"/>
      <path d="M 41.109375 46.296875 
Q 39.59375 47.171875 37.8125 47.578125 
Q 36.03125 48 33.890625 48 
Q 26.265625 48 22.1875 43.046875 
Q 18.109375 38.09375 18.109375 28.8125 
L 18.109375 0 
L 9.078125 0 
L 9.078125 54.6875 
L 18.109375 54.6875 
L 18.109375 46.1875 
Q 20.953125 51.171875 25.484375 53.578125 
Q 30.03125 56 36.53125 56 
Q 37.453125 56 38.578125 55.875 
Q 39.703125 55.765625 41.0625 55.515625 
z
" id="DejaVuSans-72"/>
      <path d="M 30.609375 48.390625 
Q 23.390625 48.390625 19.1875 42.75 
Q 14.984375 37.109375 14.984375 27.296875 
Q 14.984375 17.484375 19.15625 11.84375 
Q 23.34375 6.203125 30.609375 6.203125 
Q 37.796875 6.203125 41.984375 11.859375 
Q 46.1875 17.53125 46.1875 27.296875 
Q 46.1875 37.015625 41.984375 42.703125 
Q 37.796875 48.390625 30.609375 48.390625 
z
M 30.609375 56 
Q 42.328125 56 49.015625 48.375 
Q 55.71875 40.765625 55.71875 27.296875 
Q 55.71875 13.875 49.015625 6.21875 
Q 42.328125 -1.421875 30.609375 -1.421875 
Q 18.84375 -1.421875 12.171875 6.21875 
Q 5.515625 13.875 5.515625 27.296875 
Q 5.515625 40.765625 12.171875 48.375 
Q 18.84375 56 30.609375 56 
z
" id="DejaVuSans-6f"/>
      <path d="M 48.6875 27.296875 
Q 48.6875 37.203125 44.609375 42.84375 
Q 40.53125 48.484375 33.40625 48.484375 
Q 26.265625 48.484375 22.1875 42.84375 
Q 18.109375 37.203125 18.109375 27.296875 
Q 18.109375 17.390625 22.1875 11.75 
Q 26.265625 6.109375 33.40625 6.109375 
Q 40.53125 6.109375 44.609375 11.75 
Q 48.6875 17.390625 48.6875 27.296875 
z
M 18.109375 46.390625 
Q 20.953125 51.265625 25.265625 53.625 
Q 29.59375 56 35.59375 56 
Q 45.5625 56 51.78125 48.09375 
Q 58.015625 40.1875 58.015625 27.296875 
Q 58.015625 14.40625 51.78125 6.484375 
Q 45.5625 -1.421875 35.59375 -1.421875 
Q 29.59375 -1.421875 25.265625 0.953125 
Q 20.953125 3.328125 18.109375 8.203125 
L 18.109375 0 
L 9.078125 0 
L 9.078125 75.984375 
L 18.109375 75.984375 
z
" id="DejaVuSans-62"/>
      <path d="M 9.421875 75.984375 
L 18.40625 75.984375 
L 18.40625 0 
L 9.421875 0 
z
" id="DejaVuSans-6c"/>
      <path d="M 32.171875 -5.078125 
Q 28.375 -14.84375 24.75 -17.8125 
Q 21.140625 -20.796875 15.09375 -20.796875 
L 7.90625 -20.796875 
L 7.90625 -13.28125 
L 13.1875 -13.28125 
Q 16.890625 -13.28125 18.9375 -11.515625 
Q 21 -9.765625 23.484375 -3.21875 
L 25.09375 0.875 
L 2.984375 54.6875 
L 12.5 54.6875 
L 29.59375 11.921875 
L 46.6875 54.6875 
L 56.203125 54.6875 
z
" id="DejaVuSans-79"/>
     </defs>
     <g transform="translate(14.798438 182.000687)rotate(-90)scale(0.1 -0.1)">
      <use xlink:href="#DejaVuSans-50"/>
      <use x="60.287109" xlink:href="#DejaVuSans-72"/>
      <use x="101.369141" xlink:href="#DejaVuSans-6f"/>
      <use x="162.550781" xlink:href="#DejaVuSans-62"/>
      <use x="226.027344" xlink:href="#DejaVuSans-61"/>
      <use x="287.306641" xlink:href="#DejaVuSans-62"/>
      <use x="350.783203" xlink:href="#DejaVuSans-69"/>
      <use x="378.566406" xlink:href="#DejaVuSans-6c"/>
      <use x="406.349609" xlink:href="#DejaVuSans-69"/>
      <use x="434.132812" xlink:href="#DejaVuSans-74"/>
      <use x="473.341797" xlink:href="#DejaVuSans-79"/>
     </g>
    </g>
   </g>
   <g id="line2d_11">
    <path clip-path="url(#pbad351a257)" d="M 79.101477 251.057566 
L 85.193825 243.374146 
L 86.962158 240.949173 
L 91.183031 234.800515 
L 96.969553 225.542209 
L 104.466313 212.14698 
L 110.746053 199.77843 
L 116.590412 187.426973 
L 118.796157 182.580168 
L 128.805297 159.602241 
L 150.631563 108.132477 
L 154.165935 100.299273 
L 159.508285 89.067642 
L 163.181743 81.868356 
L 167.5086 74.04206 
L 170.001685 69.892641 
L 172.966267 65.333632 
L 175.960168 61.171957 
L 177.265382 59.50406 
L 179.771145 56.561823 
L 182.394263 53.860681 
L 186.007524 50.800416 
L 188.632542 49.073162 
L 190.669073 48.027719 
L 191.527407 47.66518 
L 195.000179 46.676088 
L 196.773815 46.468512 
L 199.915453 46.596768 
L 204.439851 47.8917 
L 206.116138 48.700803 
L 206.937204 49.161273 
L 210.59603 51.718239 
L 211.729376 52.674801 
L 214.243421 55.06723 
L 217.212753 58.359612 
L 217.598859 58.823799 
L 222.693616 65.689276 
L 225.448901 69.944638 
L 228.529973 75.116893 
L 233.659147 84.600127 
L 238.49604 94.402308 
L 245.171978 109.002385 
L 251.700829 124.109475 
L 272.153916 172.497455 
L 277.934423 185.475096 
L 283.042124 196.409915 
L 289.126357 208.65474 
L 294.083253 217.930139 
L 299.048451 226.546138 
L 300.786441 229.397681 
L 305.953817 237.36555 
L 314.150021 248.442807 
L 316.725771 251.53674 
L 337.123629 270.108619 
L 348.237638 276.486563 
L 359.164563 280.834803 
L 391.721049 286.796391 
L 403.756023 287.568074 
L 403.756023 287.568074 
" style="fill:none;stroke:#1f77b4;stroke-linecap:square;stroke-width:1.5;"/>
    <defs>
     <path d="M 0 3 
C 0.795609 3 1.55874 2.683901 2.12132 2.12132 
C 2.683901 1.55874 3 0.795609 3 0 
C 3 -0.795609 2.683901 -1.55874 2.12132 -2.12132 
C 1.55874 -2.683901 0.795609 -3 0 -3 
C -0.795609 -3 -1.55874 -2.683901 -2.12132 -2.12132 
C -2.683901 -1.55874 -3 -0.795609 -3 0 
C -3 0.795609 -2.683901 1.55874 -2.12132 2.12132 
C -1.55874 2.683901 -0.795609 3 0 3 
z
" id="me065b3a43c" style="stroke:#1f77b4;"/>
    </defs>
    <g clip-path="url(#pbad351a257)">
     <use style="fill:#1f77b4;stroke:#1f77b4;" x="79.101477" xlink:href="#me065b3a43c" y="251.057566"/>
     <use style="fill:#1f77b4;stroke:#1f77b4;" x="85.193825" xlink:href="#me065b3a43c" y="243.374146"/>
     <use style="fill:#1f77b4;stroke:#1f77b4;" x="86.962158" xlink:href="#me065b3a43c" y="240.949173"/>
     <use style="fill:#1f77b4;stroke:#1f77b4;" x="91.183031" xlink:href="#me065b3a43c" y="234.800515"/>
     <use style="fill:#1f77b4;stroke:#1f77b4;" x="96.969553" xlink:href="#me065b3a43c" y="225.542209"/>
     <use style="fill:#1f77b4;stroke:#1f77b4;" x="102.476509" xlink:href="#me065b3a43c" y="215.852653"/>
     <use style="fill:#1f77b4;stroke:#1f77b4;" x="103.699804" xlink:href="#me065b3a43c" y="213.587046"/>
     <use style="fill:#1f77b4;stroke:#1f77b4;" x="104.466313" xlink:href="#me065b3a43c" y="212.14698"/>
     <use style="fill:#1f77b4;stroke:#1f77b4;" x="108.940353" xlink:href="#me065b3a43c" y="203.436126"/>
     <use style="fill:#1f77b4;stroke:#1f77b4;" x="110.746053" xlink:href="#me065b3a43c" y="199.77843"/>
     <use style="fill:#1f77b4;stroke:#1f77b4;" x="113.27502" xlink:href="#me065b3a43c" y="194.526321"/>
     <use style="fill:#1f77b4;stroke:#1f77b4;" x="113.29976" xlink:href="#me065b3a43c" y="194.474223"/>
     <use style="fill:#1f77b4;stroke:#1f77b4;" x="113.415474" xlink:href="#me065b3a43c" y="194.230365"/>
     <use style="fill:#1f77b4;stroke:#1f77b4;" x="113.77846" xlink:href="#me065b3a43c" y="193.463477"/>
     <use style="fill:#1f77b4;stroke:#1f77b4;" x="114.613908" xlink:href="#me065b3a43c" y="191.687465"/>
     <use style="fill:#1f77b4;stroke:#1f77b4;" x="116.590412" xlink:href="#me065b3a43c" y="187.426973"/>
     <use style="fill:#1f77b4;stroke:#1f77b4;" x="118.446386" xlink:href="#me065b3a43c" y="183.354919"/>
     <use style="fill:#1f77b4;stroke:#1f77b4;" x="118.796157" xlink:href="#me065b3a43c" y="182.580168"/>
     <use style="fill:#1f77b4;stroke:#1f77b4;" x="126.465214" xlink:href="#me065b3a43c" y="165.091924"/>
     <use style="fill:#1f77b4;stroke:#1f77b4;" x="128.805297" xlink:href="#me065b3a43c" y="159.602241"/>
     <use style="fill:#1f77b4;stroke:#1f77b4;" x="130.793348" xlink:href="#me065b3a43c" y="154.899507"/>
     <use style="fill:#1f77b4;stroke:#1f77b4;" x="131.038607" xlink:href="#me065b3a43c" y="154.317332"/>
     <use style="fill:#1f77b4;stroke:#1f77b4;" x="131.815937" xlink:href="#me065b3a43c" y="152.469694"/>
     <use style="fill:#1f77b4;stroke:#1f77b4;" x="133.434755" xlink:href="#me065b3a43c" y="148.611847"/>
     <use style="fill:#1f77b4;stroke:#1f77b4;" x="133.759713" xlink:href="#me065b3a43c" y="147.83613"/>
     <use style="fill:#1f77b4;stroke:#1f77b4;" x="134.723566" xlink:href="#me065b3a43c" y="145.533452"/>
     <use style="fill:#1f77b4;stroke:#1f77b4;" x="135.288116" xlink:href="#me065b3a43c" y="144.183774"/>
     <use style="fill:#1f77b4;stroke:#1f77b4;" x="136.192684" xlink:href="#me065b3a43c" y="142.020423"/>
     <use style="fill:#1f77b4;stroke:#1f77b4;" x="136.928845" xlink:href="#me065b3a43c" y="140.259674"/>
     <use style="fill:#1f77b4;stroke:#1f77b4;" x="137.861015" xlink:href="#me065b3a43c" y="138.030754"/>
     <use style="fill:#1f77b4;stroke:#1f77b4;" x="138.000005" xlink:href="#me065b3a43c" y="137.698533"/>
     <use style="fill:#1f77b4;stroke:#1f77b4;" x="138.14238" xlink:href="#me065b3a43c" y="137.358265"/>
     <use style="fill:#1f77b4;stroke:#1f77b4;" x="138.478297" xlink:href="#me065b3a43c" y="136.555634"/>
     <use style="fill:#1f77b4;stroke:#1f77b4;" x="138.528992" xlink:href="#me065b3a43c" y="136.43453"/>
     <use style="fill:#1f77b4;stroke:#1f77b4;" x="140.319033" xlink:href="#me065b3a43c" y="132.164274"/>
     <use style="fill:#1f77b4;stroke:#1f77b4;" x="142.953561" xlink:href="#me065b3a43c" y="125.912002"/>
     <use style="fill:#1f77b4;stroke:#1f77b4;" x="144.95069" xlink:href="#me065b3a43c" y="121.211756"/>
     <use style="fill:#1f77b4;stroke:#1f77b4;" x="145.115689" xlink:href="#me065b3a43c" y="120.825343"/>
     <use style="fill:#1f77b4;stroke:#1f77b4;" x="146.309877" xlink:href="#me065b3a43c" y="118.038648"/>
     <use style="fill:#1f77b4;stroke:#1f77b4;" x="147.163027" xlink:href="#me065b3a43c" y="116.059435"/>
     <use style="fill:#1f77b4;stroke:#1f77b4;" x="147.539045" xlink:href="#me065b3a43c" y="115.190464"/>
     <use style="fill:#1f77b4;stroke:#1f77b4;" x="147.645446" xlink:href="#me065b3a43c" y="114.94496"/>
     <use style="fill:#1f77b4;stroke:#1f77b4;" x="148.041394" xlink:href="#me065b3a43c" y="114.032922"/>
     <use style="fill:#1f77b4;stroke:#1f77b4;" x="148.85273" xlink:href="#me065b3a43c" y="112.171984"/>
     <use style="fill:#1f77b4;stroke:#1f77b4;" x="150.101969" xlink:href="#me065b3a43c" y="109.32897"/>
     <use style="fill:#1f77b4;stroke:#1f77b4;" x="150.631563" xlink:href="#me065b3a43c" y="108.132477"/>
     <use style="fill:#1f77b4;stroke:#1f77b4;" x="152.032352" xlink:href="#me065b3a43c" y="104.994929"/>
     <use style="fill:#1f77b4;stroke:#1f77b4;" x="152.866351" xlink:href="#me065b3a43c" y="103.146891"/>
     <use style="fill:#1f77b4;stroke:#1f77b4;" x="153.580947" xlink:href="#me065b3a43c" y="101.57609"/>
     <use style="fill:#1f77b4;stroke:#1f77b4;" x="154.165935" xlink:href="#me065b3a43c" y="100.299273"/>
     <use style="fill:#1f77b4;stroke:#1f77b4;" x="156.535282" xlink:href="#me065b3a43c" y="95.217657"/>
     <use style="fill:#1f77b4;stroke:#1f77b4;" x="157.775919" xlink:href="#me065b3a43c" y="92.618785"/>
     <use style="fill:#1f77b4;stroke:#1f77b4;" x="158.327303" xlink:href="#me065b3a43c" y="91.478402"/>
     <use style="fill:#1f77b4;stroke:#1f77b4;" x="159.508285" xlink:href="#me065b3a43c" y="89.067642"/>
     <use style="fill:#1f77b4;stroke:#1f77b4;" x="160.446138" xlink:href="#me065b3a43c" y="87.185288"/>
     <use style="fill:#1f77b4;stroke:#1f77b4;" x="160.850644" xlink:href="#me065b3a43c" y="86.382501"/>
     <use style="fill:#1f77b4;stroke:#1f77b4;" x="161.591581" xlink:href="#me065b3a43c" y="84.926649"/>
     <use style="fill:#1f77b4;stroke:#1f77b4;" x="163.181743" xlink:href="#me065b3a43c" y="81.868356"/>
     <use style="fill:#1f77b4;stroke:#1f77b4;" x="164.835777" xlink:href="#me065b3a43c" y="78.78787"/>
     <use style="fill:#1f77b4;stroke:#1f77b4;" x="165.348542" xlink:href="#me065b3a43c" y="77.854665"/>
     <use style="fill:#1f77b4;stroke:#1f77b4;" x="166.649631" xlink:href="#me065b3a43c" y="75.534788"/>
     <use style="fill:#1f77b4;stroke:#1f77b4;" x="166.827859" xlink:href="#me065b3a43c" y="75.222482"/>
     <use style="fill:#1f77b4;stroke:#1f77b4;" x="166.847228" xlink:href="#me065b3a43c" y="75.188623"/>
     <use style="fill:#1f77b4;stroke:#1f77b4;" x="167.5086" xlink:href="#me065b3a43c" y="74.04206"/>
     <use style="fill:#1f77b4;stroke:#1f77b4;" x="167.939693" xlink:href="#me065b3a43c" y="73.304847"/>
     <use style="fill:#1f77b4;stroke:#1f77b4;" x="169.016346" xlink:href="#me065b3a43c" y="71.499335"/>
     <use style="fill:#1f77b4;stroke:#1f77b4;" x="169.451814" xlink:href="#me065b3a43c" y="70.783802"/>
     <use style="fill:#1f77b4;stroke:#1f77b4;" x="169.602245" xlink:href="#me065b3a43c" y="70.538627"/>
     <use style="fill:#1f77b4;stroke:#1f77b4;" x="170.001685" xlink:href="#me065b3a43c" y="69.892641"/>
     <use style="fill:#1f77b4;stroke:#1f77b4;" x="171.477478" xlink:href="#me065b3a43c" y="67.57047"/>
     <use style="fill:#1f77b4;stroke:#1f77b4;" x="171.787926" xlink:href="#me065b3a43c" y="67.095145"/>
     <use style="fill:#1f77b4;stroke:#1f77b4;" x="171.96923" xlink:href="#me065b3a43c" y="66.8197"/>
     <use style="fill:#1f77b4;stroke:#1f77b4;" x="172.966267" xlink:href="#me065b3a43c" y="65.333632"/>
     <use style="fill:#1f77b4;stroke:#1f77b4;" x="174.098402" xlink:href="#me065b3a43c" y="63.706058"/>
     <use style="fill:#1f77b4;stroke:#1f77b4;" x="174.308671" xlink:href="#me065b3a43c" y="63.410901"/>
     <use style="fill:#1f77b4;stroke:#1f77b4;" x="175.243234" xlink:href="#me065b3a43c" y="62.1265"/>
     <use style="fill:#1f77b4;stroke:#1f77b4;" x="175.36634" xlink:href="#me065b3a43c" y="61.960681"/>
     <use style="fill:#1f77b4;stroke:#1f77b4;" x="175.960168" xlink:href="#me065b3a43c" y="61.171957"/>
     <use style="fill:#1f77b4;stroke:#1f77b4;" x="176.518163" xlink:href="#me065b3a43c" y="60.447782"/>
     <use style="fill:#1f77b4;stroke:#1f77b4;" x="177.265382" xlink:href="#me065b3a43c" y="59.50406"/>
     <use style="fill:#1f77b4;stroke:#1f77b4;" x="178.868169" xlink:href="#me065b3a43c" y="57.582061"/>
     <use style="fill:#1f77b4;stroke:#1f77b4;" x="179.771145" xlink:href="#me065b3a43c" y="56.561823"/>
     <use style="fill:#1f77b4;stroke:#1f77b4;" x="181.26396" xlink:href="#me065b3a43c" y="54.976143"/>
     <use style="fill:#1f77b4;stroke:#1f77b4;" x="181.595052" xlink:href="#me065b3a43c" y="54.641734"/>
     <use style="fill:#1f77b4;stroke:#1f77b4;" x="181.734212" xlink:href="#me065b3a43c" y="54.50307"/>
     <use style="fill:#1f77b4;stroke:#1f77b4;" x="182.238085" xlink:href="#me065b3a43c" y="54.010389"/>
     <use style="fill:#1f77b4;stroke:#1f77b4;" x="182.394263" xlink:href="#me065b3a43c" y="53.860681"/>
     <use style="fill:#1f77b4;stroke:#1f77b4;" x="184.740593" xlink:href="#me065b3a43c" y="51.784578"/>
     <use style="fill:#1f77b4;stroke:#1f77b4;" x="184.798841" xlink:href="#me065b3a43c" y="51.737207"/>
     <use style="fill:#1f77b4;stroke:#1f77b4;" x="186.007524" xlink:href="#me065b3a43c" y="50.800416"/>
     <use style="fill:#1f77b4;stroke:#1f77b4;" x="187.011053" xlink:href="#me065b3a43c" y="50.090082"/>
     <use style="fill:#1f77b4;stroke:#1f77b4;" x="188.236084" xlink:href="#me065b3a43c" y="49.306781"/>
     <use style="fill:#1f77b4;stroke:#1f77b4;" x="188.426675" xlink:href="#me065b3a43c" y="49.193254"/>
     <use style="fill:#1f77b4;stroke:#1f77b4;" x="188.632542" xlink:href="#me065b3a43c" y="49.073162"/>
     <use style="fill:#1f77b4;stroke:#1f77b4;" x="189.064721" xlink:href="#me065b3a43c" y="48.829627"/>
     <use style="fill:#1f77b4;stroke:#1f77b4;" x="189.692389" xlink:href="#me065b3a43c" y="48.496687"/>
     <use style="fill:#1f77b4;stroke:#1f77b4;" x="189.886527" xlink:href="#me065b3a43c" y="48.3987"/>
     <use style="fill:#1f77b4;stroke:#1f77b4;" x="190.669073" xlink:href="#me065b3a43c" y="48.027719"/>
     <use style="fill:#1f77b4;stroke:#1f77b4;" x="191.2887" xlink:href="#me065b3a43c" y="47.761332"/>
     <use style="fill:#1f77b4;stroke:#1f77b4;" x="191.428115" xlink:href="#me065b3a43c" y="47.704738"/>
     <use style="fill:#1f77b4;stroke:#1f77b4;" x="191.527407" xlink:href="#me065b3a43c" y="47.66518"/>
     <use style="fill:#1f77b4;stroke:#1f77b4;" x="195.000179" xlink:href="#me065b3a43c" y="46.676088"/>
     <use style="fill:#1f77b4;stroke:#1f77b4;" x="195.839685" xlink:href="#me065b3a43c" y="46.552674"/>
     <use style="fill:#1f77b4;stroke:#1f77b4;" x="196.557755" xlink:href="#me065b3a43c" y="46.482997"/>
     <use style="fill:#1f77b4;stroke:#1f77b4;" x="196.773815" xlink:href="#me065b3a43c" y="46.468512"/>
     <use style="fill:#1f77b4;stroke:#1f77b4;" x="199.137238" xlink:href="#me065b3a43c" y="46.505928"/>
     <use style="fill:#1f77b4;stroke:#1f77b4;" x="199.448097" xlink:href="#me065b3a43c" y="46.537552"/>
     <use style="fill:#1f77b4;stroke:#1f77b4;" x="199.502877" xlink:href="#me065b3a43c" y="46.543768"/>
     <use style="fill:#1f77b4;stroke:#1f77b4;" x="199.915453" xlink:href="#me065b3a43c" y="46.596768"/>
     <use style="fill:#1f77b4;stroke:#1f77b4;" x="204.001616" xlink:href="#me065b3a43c" y="47.709346"/>
     <use style="fill:#1f77b4;stroke:#1f77b4;" x="204.439851" xlink:href="#me065b3a43c" y="47.8917"/>
     <use style="fill:#1f77b4;stroke:#1f77b4;" x="205.006443" xlink:href="#me065b3a43c" y="48.145426"/>
     <use style="fill:#1f77b4;stroke:#1f77b4;" x="205.150682" xlink:href="#me065b3a43c" y="48.213245"/>
     <use style="fill:#1f77b4;stroke:#1f77b4;" x="205.432354" xlink:href="#me065b3a43c" y="48.349453"/>
     <use style="fill:#1f77b4;stroke:#1f77b4;" x="206.116138" xlink:href="#me065b3a43c" y="48.700803"/>
     <use style="fill:#1f77b4;stroke:#1f77b4;" x="206.937204" xlink:href="#me065b3a43c" y="49.161273"/>
     <use style="fill:#1f77b4;stroke:#1f77b4;" x="210.181004" xlink:href="#me065b3a43c" y="51.387209"/>
     <use style="fill:#1f77b4;stroke:#1f77b4;" x="210.463711" xlink:href="#me065b3a43c" y="51.611574"/>
     <use style="fill:#1f77b4;stroke:#1f77b4;" x="210.59603" xlink:href="#me065b3a43c" y="51.718239"/>
     <use style="fill:#1f77b4;stroke:#1f77b4;" x="211.641223" xlink:href="#me065b3a43c" y="52.597652"/>
     <use style="fill:#1f77b4;stroke:#1f77b4;" x="211.729376" xlink:href="#me065b3a43c" y="52.674801"/>
     <use style="fill:#1f77b4;stroke:#1f77b4;" x="213.560902" xlink:href="#me065b3a43c" y="54.381294"/>
     <use style="fill:#1f77b4;stroke:#1f77b4;" x="214.184186" xlink:href="#me065b3a43c" y="55.006633"/>
     <use style="fill:#1f77b4;stroke:#1f77b4;" x="214.243421" xlink:href="#me065b3a43c" y="55.06723"/>
     <use style="fill:#1f77b4;stroke:#1f77b4;" x="215.676676" xlink:href="#me065b3a43c" y="56.594495"/>
     <use style="fill:#1f77b4;stroke:#1f77b4;" x="216.456878" xlink:href="#me065b3a43c" y="57.474631"/>
     <use style="fill:#1f77b4;stroke:#1f77b4;" x="217.212753" xlink:href="#me065b3a43c" y="58.359612"/>
     <use style="fill:#1f77b4;stroke:#1f77b4;" x="217.482209" xlink:href="#me065b3a43c" y="58.682699"/>
     <use style="fill:#1f77b4;stroke:#1f77b4;" x="217.598859" xlink:href="#me065b3a43c" y="58.823799"/>
     <use style="fill:#1f77b4;stroke:#1f77b4;" x="221.750223" xlink:href="#me065b3a43c" y="64.317157"/>
     <use style="fill:#1f77b4;stroke:#1f77b4;" x="222.410862" xlink:href="#me065b3a43c" y="65.273373"/>
     <use style="fill:#1f77b4;stroke:#1f77b4;" x="222.693616" xlink:href="#me065b3a43c" y="65.689276"/>
     <use style="fill:#1f77b4;stroke:#1f77b4;" x="223.26587" xlink:href="#me065b3a43c" y="66.543048"/>
     <use style="fill:#1f77b4;stroke:#1f77b4;" x="223.796412" xlink:href="#me065b3a43c" y="67.348842"/>
     <use style="fill:#1f77b4;stroke:#1f77b4;" x="224.924796" xlink:href="#me065b3a43c" y="69.107448"/>
     <use style="fill:#1f77b4;stroke:#1f77b4;" x="225.400744" xlink:href="#me065b3a43c" y="69.867182"/>
     <use style="fill:#1f77b4;stroke:#1f77b4;" x="225.448901" xlink:href="#me065b3a43c" y="69.944638"/>
     <use style="fill:#1f77b4;stroke:#1f77b4;" x="226.045461" xlink:href="#me065b3a43c" y="70.912988"/>
     <use style="fill:#1f77b4;stroke:#1f77b4;" x="227.797098" xlink:href="#me065b3a43c" y="73.848781"/>
     <use style="fill:#1f77b4;stroke:#1f77b4;" x="227.985558" xlink:href="#me065b3a43c" y="74.172678"/>
     <use style="fill:#1f77b4;stroke:#1f77b4;" x="228.441265" xlink:href="#me065b3a43c" y="74.962178"/>
     <use style="fill:#1f77b4;stroke:#1f77b4;" x="228.529973" xlink:href="#me065b3a43c" y="75.116893"/>
     <use style="fill:#1f77b4;stroke:#1f77b4;" x="232.102515" xlink:href="#me065b3a43c" y="81.614881"/>
     <use style="fill:#1f77b4;stroke:#1f77b4;" x="232.773027" xlink:href="#me065b3a43c" y="82.889871"/>
     <use style="fill:#1f77b4;stroke:#1f77b4;" x="233.659147" xlink:href="#me065b3a43c" y="84.600127"/>
     <use style="fill:#1f77b4;stroke:#1f77b4;" x="237.668057" xlink:href="#me065b3a43c" y="92.672187"/>
     <use style="fill:#1f77b4;stroke:#1f77b4;" x="237.778918" xlink:href="#me065b3a43c" y="92.902666"/>
     <use style="fill:#1f77b4;stroke:#1f77b4;" x="238.49604" xlink:href="#me065b3a43c" y="94.402308"/>
     <use style="fill:#1f77b4;stroke:#1f77b4;" x="242.487968" xlink:href="#me065b3a43c" y="103.005843"/>
     <use style="fill:#1f77b4;stroke:#1f77b4;" x="244.753316" xlink:href="#me065b3a43c" y="108.057235"/>
     <use style="fill:#1f77b4;stroke:#1f77b4;" x="245.171978" xlink:href="#me065b3a43c" y="109.002385"/>
     <use style="fill:#1f77b4;stroke:#1f77b4;" x="246.481412" xlink:href="#me065b3a43c" y="111.979667"/>
     <use style="fill:#1f77b4;stroke:#1f77b4;" x="247.599768" xlink:href="#me065b3a43c" y="114.546047"/>
     <use style="fill:#1f77b4;stroke:#1f77b4;" x="247.868491" xlink:href="#me065b3a43c" y="115.165702"/>
     <use style="fill:#1f77b4;stroke:#1f77b4;" x="248.633255" xlink:href="#me065b3a43c" y="116.935125"/>
     <use style="fill:#1f77b4;stroke:#1f77b4;" x="249.232293" xlink:href="#me065b3a43c" y="118.326933"/>
     <use style="fill:#1f77b4;stroke:#1f77b4;" x="249.528056" xlink:href="#me065b3a43c" y="119.015895"/>
     <use style="fill:#1f77b4;stroke:#1f77b4;" x="250.81073" xlink:href="#me065b3a43c" y="122.016395"/>
     <use style="fill:#1f77b4;stroke:#1f77b4;" x="251.700829" xlink:href="#me065b3a43c" y="124.109475"/>
     <use style="fill:#1f77b4;stroke:#1f77b4;" x="255.983447" xlink:href="#me065b3a43c" y="134.272019"/>
     <use style="fill:#1f77b4;stroke:#1f77b4;" x="256.796894" xlink:href="#me065b3a43c" y="136.213868"/>
     <use style="fill:#1f77b4;stroke:#1f77b4;" x="256.807392" xlink:href="#me065b3a43c" y="136.238943"/>
     <use style="fill:#1f77b4;stroke:#1f77b4;" x="266.048264" xlink:href="#me065b3a43c" y="158.269644"/>
     <use style="fill:#1f77b4;stroke:#1f77b4;" x="269.164181" xlink:href="#me065b3a43c" y="165.584352"/>
     <use style="fill:#1f77b4;stroke:#1f77b4;" x="272.153916" xlink:href="#me065b3a43c" y="172.497455"/>
     <use style="fill:#1f77b4;stroke:#1f77b4;" x="273.987267" xlink:href="#me065b3a43c" y="176.674117"/>
     <use style="fill:#1f77b4;stroke:#1f77b4;" x="274.065621" xlink:href="#me065b3a43c" y="176.851447"/>
     <use style="fill:#1f77b4;stroke:#1f77b4;" x="277.934423" xlink:href="#me065b3a43c" y="185.475096"/>
     <use style="fill:#1f77b4;stroke:#1f77b4;" x="280.549496" xlink:href="#me065b3a43c" y="191.142683"/>
     <use style="fill:#1f77b4;stroke:#1f77b4;" x="283.042124" xlink:href="#me065b3a43c" y="196.409915"/>
     <use style="fill:#1f77b4;stroke:#1f77b4;" x="285.76783" xlink:href="#me065b3a43c" y="202.007188"/>
     <use style="fill:#1f77b4;stroke:#1f77b4;" x="286.728305" xlink:href="#me065b3a43c" y="203.937051"/>
     <use style="fill:#1f77b4;stroke:#1f77b4;" x="287.387526" xlink:href="#me065b3a43c" y="205.248406"/>
     <use style="fill:#1f77b4;stroke:#1f77b4;" x="288.362694" xlink:href="#me065b3a43c" y="207.16823"/>
     <use style="fill:#1f77b4;stroke:#1f77b4;" x="289.126357" xlink:href="#me065b3a43c" y="208.65474"/>
     <use style="fill:#1f77b4;stroke:#1f77b4;" x="294.083253" xlink:href="#me065b3a43c" y="217.930139"/>
     <use style="fill:#1f77b4;stroke:#1f77b4;" x="298.086028" xlink:href="#me065b3a43c" y="224.930155"/>
     <use style="fill:#1f77b4;stroke:#1f77b4;" x="298.809743" xlink:href="#me065b3a43c" y="226.147776"/>
     <use style="fill:#1f77b4;stroke:#1f77b4;" x="299.048451" xlink:href="#me065b3a43c" y="226.546138"/>
     <use style="fill:#1f77b4;stroke:#1f77b4;" x="300.786441" xlink:href="#me065b3a43c" y="229.397681"/>
     <use style="fill:#1f77b4;stroke:#1f77b4;" x="305.569338" xlink:href="#me065b3a43c" y="236.799054"/>
     <use style="fill:#1f77b4;stroke:#1f77b4;" x="305.953817" xlink:href="#me065b3a43c" y="237.36555"/>
     <use style="fill:#1f77b4;stroke:#1f77b4;" x="314.150021" xlink:href="#me065b3a43c" y="248.442807"/>
     <use style="fill:#1f77b4;stroke:#1f77b4;" x="316.725771" xlink:href="#me065b3a43c" y="251.53674"/>
     <use style="fill:#1f77b4;stroke:#1f77b4;" x="337.123629" xlink:href="#me065b3a43c" y="270.108619"/>
     <use style="fill:#1f77b4;stroke:#1f77b4;" x="348.237638" xlink:href="#me065b3a43c" y="276.486563"/>
     <use style="fill:#1f77b4;stroke:#1f77b4;" x="359.126713" xlink:href="#me065b3a43c" y="280.822468"/>
     <use style="fill:#1f77b4;stroke:#1f77b4;" x="359.164563" xlink:href="#me065b3a43c" y="280.834803"/>
     <use style="fill:#1f77b4;stroke:#1f77b4;" x="391.721049" xlink:href="#me065b3a43c" y="286.796391"/>
     <use style="fill:#1f77b4;stroke:#1f77b4;" x="403.756023" xlink:href="#me065b3a43c" y="287.568074"/>
    </g>
   </g>
   <g id="patch_13">
    <path d="M 62.86875 288.430125 
L 62.86875 22.318125 
" style="fill:none;stroke:#000000;stroke-linecap:square;stroke-linejoin:miter;stroke-width:0.8;"/>
   </g>
   <g id="patch_14">
    <path d="M 419.98875 288.430125 
L 419.98875 22.318125 
" style="fill:none;stroke:#000000;stroke-linecap:square;stroke-linejoin:miter;stroke-width:0.8;"/>
   </g>
   <g id="patch_15">
    <path d="M 62.86875 288.430125 
L 419.98875 288.430125 
" style="fill:none;stroke:#000000;stroke-linecap:square;stroke-linejoin:miter;stroke-width:0.8;"/>
   </g>
   <g id="patch_16">
    <path d="M 62.86875 22.318125 
L 419.98875 22.318125 
" style="fill:none;stroke:#000000;stroke-linecap:square;stroke-linejoin:miter;stroke-width:0.8;"/>
   </g>
   <g id="text_13">
    <!-- Distribution Between Pairs [k-dim] -->
    <defs>
     <path d="M 8.5 21.578125 
L 8.5 54.6875 
L 17.484375 54.6875 
L 17.484375 21.921875 
Q 17.484375 14.15625 20.5 10.265625 
Q 23.53125 6.390625 29.59375 6.390625 
Q 36.859375 6.390625 41.078125 11.03125 
Q 45.3125 15.671875 45.3125 23.6875 
L 45.3125 54.6875 
L 54.296875 54.6875 
L 54.296875 0 
L 45.3125 0 
L 45.3125 8.40625 
Q 42.046875 3.421875 37.71875 1 
Q 33.40625 -1.421875 27.6875 -1.421875 
Q 18.265625 -1.421875 13.375 4.4375 
Q 8.5 10.296875 8.5 21.578125 
z
M 31.109375 56 
z
" id="DejaVuSans-75"/>
     <path id="DejaVuSans-20"/>
     <path d="M 19.671875 34.8125 
L 19.671875 8.109375 
L 35.5 8.109375 
Q 43.453125 8.109375 47.28125 11.40625 
Q 51.125 14.703125 51.125 21.484375 
Q 51.125 28.328125 47.28125 31.5625 
Q 43.453125 34.8125 35.5 34.8125 
z
M 19.671875 64.796875 
L 19.671875 42.828125 
L 34.28125 42.828125 
Q 41.5 42.828125 45.03125 45.53125 
Q 48.578125 48.25 48.578125 53.8125 
Q 48.578125 59.328125 45.03125 62.0625 
Q 41.5 64.796875 34.28125 64.796875 
z
M 9.8125 72.90625 
L 35.015625 72.90625 
Q 46.296875 72.90625 52.390625 68.21875 
Q 58.5 63.53125 58.5 54.890625 
Q 58.5 48.1875 55.375 44.234375 
Q 52.25 40.28125 46.1875 39.3125 
Q 53.46875 37.75 57.5 32.78125 
Q 61.53125 27.828125 61.53125 20.40625 
Q 61.53125 10.640625 54.890625 5.3125 
Q 48.25 0 35.984375 0 
L 9.8125 0 
z
" id="DejaVuSans-42"/>
     <path d="M 4.203125 54.6875 
L 13.1875 54.6875 
L 24.421875 12.015625 
L 35.59375 54.6875 
L 46.1875 54.6875 
L 57.421875 12.015625 
L 68.609375 54.6875 
L 77.59375 54.6875 
L 63.28125 0 
L 52.6875 0 
L 40.921875 44.828125 
L 29.109375 0 
L 18.5 0 
z
" id="DejaVuSans-77"/>
     <path d="M 8.59375 75.984375 
L 29.296875 75.984375 
L 29.296875 69 
L 17.578125 69 
L 17.578125 -6.203125 
L 29.296875 -6.203125 
L 29.296875 -13.1875 
L 8.59375 -13.1875 
z
" id="DejaVuSans-5b"/>
     <path d="M 9.078125 75.984375 
L 18.109375 75.984375 
L 18.109375 31.109375 
L 44.921875 54.6875 
L 56.390625 54.6875 
L 27.390625 29.109375 
L 57.625 0 
L 45.90625 0 
L 18.109375 26.703125 
L 18.109375 0 
L 9.078125 0 
z
" id="DejaVuSans-6b"/>
     <path d="M 4.890625 31.390625 
L 31.203125 31.390625 
L 31.203125 23.390625 
L 4.890625 23.390625 
z
" id="DejaVuSans-2d"/>
     <path d="M 45.40625 46.390625 
L 45.40625 75.984375 
L 54.390625 75.984375 
L 54.390625 0 
L 45.40625 0 
L 45.40625 8.203125 
Q 42.578125 3.328125 38.25 0.953125 
Q 33.9375 -1.421875 27.875 -1.421875 
Q 17.96875 -1.421875 11.734375 6.484375 
Q 5.515625 14.40625 5.515625 27.296875 
Q 5.515625 40.1875 11.734375 48.09375 
Q 17.96875 56 27.875 56 
Q 33.9375 56 38.25 53.625 
Q 42.578125 51.265625 45.40625 46.390625 
z
M 14.796875 27.296875 
Q 14.796875 17.390625 18.875 11.75 
Q 22.953125 6.109375 30.078125 6.109375 
Q 37.203125 6.109375 41.296875 11.75 
Q 45.40625 17.390625 45.40625 27.296875 
Q 45.40625 37.203125 41.296875 42.84375 
Q 37.203125 48.484375 30.078125 48.484375 
Q 22.953125 48.484375 18.875 42.84375 
Q 14.796875 37.203125 14.796875 27.296875 
z
" id="DejaVuSans-64"/>
     <path d="M 52 44.1875 
Q 55.375 50.25 60.0625 53.125 
Q 64.75 56 71.09375 56 
Q 79.640625 56 84.28125 50.015625 
Q 88.921875 44.046875 88.921875 33.015625 
L 88.921875 0 
L 79.890625 0 
L 79.890625 32.71875 
Q 79.890625 40.578125 77.09375 44.375 
Q 74.3125 48.1875 68.609375 48.1875 
Q 61.625 48.1875 57.5625 43.546875 
Q 53.515625 38.921875 53.515625 30.90625 
L 53.515625 0 
L 44.484375 0 
L 44.484375 32.71875 
Q 44.484375 40.625 41.703125 44.40625 
Q 38.921875 48.1875 33.109375 48.1875 
Q 26.21875 48.1875 22.15625 43.53125 
Q 18.109375 38.875 18.109375 30.90625 
L 18.109375 0 
L 9.078125 0 
L 9.078125 54.6875 
L 18.109375 54.6875 
L 18.109375 46.1875 
Q 21.1875 51.21875 25.484375 53.609375 
Q 29.78125 56 35.6875 56 
Q 41.65625 56 45.828125 52.96875 
Q 50 49.953125 52 44.1875 
z
" id="DejaVuSans-6d"/>
     <path d="M 30.421875 75.984375 
L 30.421875 -13.1875 
L 9.71875 -13.1875 
L 9.71875 -6.203125 
L 21.390625 -6.203125 
L 21.390625 69 
L 9.71875 69 
L 9.71875 75.984375 
z
" id="DejaVuSans-5d"/>
    </defs>
    <g transform="translate(138.260625 16.318125)scale(0.12 -0.12)">
     <use xlink:href="#DejaVuSans-44"/>
     <use x="77.001953" xlink:href="#DejaVuSans-69"/>
     <use x="104.785156" xlink:href="#DejaVuSans-73"/>
     <use x="156.884766" xlink:href="#DejaVuSans-74"/>
     <use x="196.09375" xlink:href="#DejaVuSans-72"/>
     <use x="237.207031" xlink:href="#DejaVuSans-69"/>
     <use x="264.990234" xlink:href="#DejaVuSans-62"/>
     <use x="328.466797" xlink:href="#DejaVuSans-75"/>
     <use x="391.845703" xlink:href="#DejaVuSans-74"/>
     <use x="431.054688" xlink:href="#DejaVuSans-69"/>
     <use x="458.837891" xlink:href="#DejaVuSans-6f"/>
     <use x="520.019531" xlink:href="#DejaVuSans-6e"/>
     <use x="583.398438" xlink:href="#DejaVuSans-20"/>
     <use x="615.185547" xlink:href="#DejaVuSans-42"/>
     <use x="683.789062" xlink:href="#DejaVuSans-65"/>
     <use x="745.3125" xlink:href="#DejaVuSans-74"/>
     <use x="784.521484" xlink:href="#DejaVuSans-77"/>
     <use x="866.308594" xlink:href="#DejaVuSans-65"/>
     <use x="927.832031" xlink:href="#DejaVuSans-65"/>
     <use x="989.355469" xlink:href="#DejaVuSans-6e"/>
     <use x="1052.734375" xlink:href="#DejaVuSans-20"/>
     <use x="1084.521484" xlink:href="#DejaVuSans-50"/>
     <use x="1144.761719" xlink:href="#DejaVuSans-61"/>
     <use x="1206.041016" xlink:href="#DejaVuSans-69"/>
     <use x="1233.824219" xlink:href="#DejaVuSans-72"/>
     <use x="1274.9375" xlink:href="#DejaVuSans-73"/>
     <use x="1327.037109" xlink:href="#DejaVuSans-20"/>
     <use x="1358.824219" xlink:href="#DejaVuSans-5b"/>
     <use x="1397.837891" xlink:href="#DejaVuSans-6b"/>
     <use x="1455.748047" xlink:href="#DejaVuSans-2d"/>
     <use x="1491.832031" xlink:href="#DejaVuSans-64"/>
     <use x="1555.308594" xlink:href="#DejaVuSans-69"/>
     <use x="1583.091797" xlink:href="#DejaVuSans-6d"/>
     <use x="1680.503906" xlink:href="#DejaVuSans-5d"/>
    </g>
   </g>
  </g>
  <g id="text_14">
   <g id="patch_17">
    <path d="M 172.171875 386.78175 
L 299.165625 386.78175 
Q 305.165625 386.78175 305.165625 380.78175 
L 305.165625 342.29325 
Q 305.165625 336.29325 299.165625 336.29325 
L 172.171875 336.29325 
Q 166.171875 336.29325 166.171875 342.29325 
L 166.171875 380.78175 
Q 166.171875 386.78175 172.171875 386.78175 
z
" style="fill:#ffffff;stroke:#808080;stroke-linejoin:miter;"/>
   </g>
   <!-- Dimension: 900 -->
   <defs>
    <path d="M 11.71875 12.40625 
L 22.015625 12.40625 
L 22.015625 0 
L 11.71875 0 
z
M 11.71875 51.703125 
L 22.015625 51.703125 
L 22.015625 39.3125 
L 11.71875 39.3125 
z
" id="DejaVuSans-3a"/>
    <path d="M 10.984375 1.515625 
L 10.984375 10.5 
Q 14.703125 8.734375 18.5 7.8125 
Q 22.3125 6.890625 25.984375 6.890625 
Q 35.75 6.890625 40.890625 13.453125 
Q 46.046875 20.015625 46.78125 33.40625 
Q 43.953125 29.203125 39.59375 26.953125 
Q 35.25 24.703125 29.984375 24.703125 
Q 19.046875 24.703125 12.671875 31.3125 
Q 6.296875 37.9375 6.296875 49.421875 
Q 6.296875 60.640625 12.9375 67.421875 
Q 19.578125 74.21875 30.609375 74.21875 
Q 43.265625 74.21875 49.921875 64.515625 
Q 56.59375 54.828125 56.59375 36.375 
Q 56.59375 19.140625 48.40625 8.859375 
Q 40.234375 -1.421875 26.421875 -1.421875 
Q 22.703125 -1.421875 18.890625 -0.6875 
Q 15.09375 0.046875 10.984375 1.515625 
z
M 30.609375 32.421875 
Q 37.25 32.421875 41.125 36.953125 
Q 45.015625 41.5 45.015625 49.421875 
Q 45.015625 57.28125 41.125 61.84375 
Q 37.25 66.40625 30.609375 66.40625 
Q 23.96875 66.40625 20.09375 61.84375 
Q 16.21875 57.28125 16.21875 49.421875 
Q 16.21875 41.5 20.09375 36.953125 
Q 23.96875 32.421875 30.609375 32.421875 
z
" id="DejaVuSans-39"/>
   </defs>
   <g transform="translate(172.171875 351.411375)scale(0.12 -0.12)">
    <use xlink:href="#DejaVuSans-44"/>
    <use x="77.001953" xlink:href="#DejaVuSans-69"/>
    <use x="104.785156" xlink:href="#DejaVuSans-6d"/>
    <use x="202.197266" xlink:href="#DejaVuSans-65"/>
    <use x="263.720703" xlink:href="#DejaVuSans-6e"/>
    <use x="327.099609" xlink:href="#DejaVuSans-73"/>
    <use x="379.199219" xlink:href="#DejaVuSans-69"/>
    <use x="406.982422" xlink:href="#DejaVuSans-6f"/>
    <use x="468.164062" xlink:href="#DejaVuSans-6e"/>
    <use x="531.542969" xlink:href="#DejaVuSans-3a"/>
    <use x="565.234375" xlink:href="#DejaVuSans-20"/>
    <use x="597.021484" xlink:href="#DejaVuSans-39"/>
    <use x="660.644531" xlink:href="#DejaVuSans-30"/>
    <use x="724.267578" xlink:href="#DejaVuSans-30"/>
   </g>
   <!-- Subdimension: 4 -->
   <defs>
    <path d="M 53.515625 70.515625 
L 53.515625 60.890625 
Q 47.90625 63.578125 42.921875 64.890625 
Q 37.9375 66.21875 33.296875 66.21875 
Q 25.25 66.21875 20.875 63.09375 
Q 16.5 59.96875 16.5 54.203125 
Q 16.5 49.359375 19.40625 46.890625 
Q 22.3125 44.4375 30.421875 42.921875 
L 36.375 41.703125 
Q 47.40625 39.59375 52.65625 34.296875 
Q 57.90625 29 57.90625 20.125 
Q 57.90625 9.515625 50.796875 4.046875 
Q 43.703125 -1.421875 29.984375 -1.421875 
Q 24.8125 -1.421875 18.96875 -0.25 
Q 13.140625 0.921875 6.890625 3.21875 
L 6.890625 13.375 
Q 12.890625 10.015625 18.65625 8.296875 
Q 24.421875 6.59375 29.984375 6.59375 
Q 38.421875 6.59375 43.015625 9.90625 
Q 47.609375 13.234375 47.609375 19.390625 
Q 47.609375 24.75 44.3125 27.78125 
Q 41.015625 30.8125 33.5 32.328125 
L 27.484375 33.5 
Q 16.453125 35.6875 11.515625 40.375 
Q 6.59375 45.0625 6.59375 53.421875 
Q 6.59375 63.09375 13.40625 68.65625 
Q 20.21875 74.21875 32.171875 74.21875 
Q 37.3125 74.21875 42.625 73.28125 
Q 47.953125 72.359375 53.515625 70.515625 
z
" id="DejaVuSans-53"/>
   </defs>
   <g transform="translate(172.171875 364.84875)scale(0.12 -0.12)">
    <use xlink:href="#DejaVuSans-53"/>
    <use x="63.476562" xlink:href="#DejaVuSans-75"/>
    <use x="126.855469" xlink:href="#DejaVuSans-62"/>
    <use x="190.332031" xlink:href="#DejaVuSans-64"/>
    <use x="253.808594" xlink:href="#DejaVuSans-69"/>
    <use x="281.591797" xlink:href="#DejaVuSans-6d"/>
    <use x="379.003906" xlink:href="#DejaVuSans-65"/>
    <use x="440.527344" xlink:href="#DejaVuSans-6e"/>
    <use x="503.90625" xlink:href="#DejaVuSans-73"/>
    <use x="556.005859" xlink:href="#DejaVuSans-69"/>
    <use x="583.789062" xlink:href="#DejaVuSans-6f"/>
    <use x="644.970703" xlink:href="#DejaVuSans-6e"/>
    <use x="708.349609" xlink:href="#DejaVuSans-3a"/>
    <use x="742.041016" xlink:href="#DejaVuSans-20"/>
    <use x="773.828125" xlink:href="#DejaVuSans-34"/>
   </g>
   <!-- Number of Points: 20 -->
   <defs>
    <path d="M 9.8125 72.90625 
L 23.09375 72.90625 
L 55.421875 11.921875 
L 55.421875 72.90625 
L 64.984375 72.90625 
L 64.984375 0 
L 51.703125 0 
L 19.390625 60.984375 
L 19.390625 0 
L 9.8125 0 
z
" id="DejaVuSans-4e"/>
    <path d="M 37.109375 75.984375 
L 37.109375 68.5 
L 28.515625 68.5 
Q 23.6875 68.5 21.796875 66.546875 
Q 19.921875 64.59375 19.921875 59.515625 
L 19.921875 54.6875 
L 34.71875 54.6875 
L 34.71875 47.703125 
L 19.921875 47.703125 
L 19.921875 0 
L 10.890625 0 
L 10.890625 47.703125 
L 2.296875 47.703125 
L 2.296875 54.6875 
L 10.890625 54.6875 
L 10.890625 58.5 
Q 10.890625 67.625 15.140625 71.796875 
Q 19.390625 75.984375 28.609375 75.984375 
z
" id="DejaVuSans-66"/>
   </defs>
   <g transform="translate(172.171875 378.286125)scale(0.12 -0.12)">
    <use xlink:href="#DejaVuSans-4e"/>
    <use x="74.804688" xlink:href="#DejaVuSans-75"/>
    <use x="138.183594" xlink:href="#DejaVuSans-6d"/>
    <use x="235.595703" xlink:href="#DejaVuSans-62"/>
    <use x="299.072266" xlink:href="#DejaVuSans-65"/>
    <use x="360.595703" xlink:href="#DejaVuSans-72"/>
    <use x="401.708984" xlink:href="#DejaVuSans-20"/>
    <use x="433.496094" xlink:href="#DejaVuSans-6f"/>
    <use x="494.677734" xlink:href="#DejaVuSans-66"/>
    <use x="529.882812" xlink:href="#DejaVuSans-20"/>
    <use x="561.669922" xlink:href="#DejaVuSans-50"/>
    <use x="621.925781" xlink:href="#DejaVuSans-6f"/>
    <use x="683.107422" xlink:href="#DejaVuSans-69"/>
    <use x="710.890625" xlink:href="#DejaVuSans-6e"/>
    <use x="774.269531" xlink:href="#DejaVuSans-74"/>
    <use x="813.478516" xlink:href="#DejaVuSans-73"/>
    <use x="865.578125" xlink:href="#DejaVuSans-3a"/>
    <use x="899.269531" xlink:href="#DejaVuSans-20"/>
    <use x="931.056641" xlink:href="#DejaVuSans-32"/>
    <use x="994.679688" xlink:href="#DejaVuSans-30"/>
   </g>
  </g>
 </g>
 <defs>
  <clipPath id="pbad351a257">
   <rect height="266.112" width="357.12" x="62.86875" y="22.318125"/>
  </clipPath>
 </defs>
</svg>
