<?xml version="1.0" encoding="utf-8" standalone="no"?>
<!DOCTYPE svg PUBLIC "-//W3C//DTD SVG 1.1//EN"
  "http://www.w3.org/Graphics/SVG/1.1/DTD/svg11.dtd">
<!-- Created with matplotlib (http://matplotlib.org/) -->
<svg height="370pt" version="1.1" viewBox="0 0 424 370" width="424pt" xmlns="http://www.w3.org/2000/svg" xmlns:xlink="http://www.w3.org/1999/xlink">
 <defs>
  <style type="text/css">
*{stroke-linecap:butt;stroke-linejoin:round;}
  </style>
 </defs>
 <g id="figure_1">
  <g id="patch_1">
   <path d="M 0 370.70175 
L 424.32625 370.70175 
L 424.32625 0 
L 0 0 
z
" style="fill:#ffffff;"/>
  </g>
  <g id="axes_1">
   <g id="patch_2">
    <path d="M 56.50625 288.430125 
L 413.62625 288.430125 
L 413.62625 22.318125 
L 56.50625 22.318125 
z
" style="fill:#ffffff;"/>
   </g>
   <g id="patch_3">
    <path clip-path="url(#p278e4f2a1d)" d="M 72.738977 288.430125 
L 105.204432 288.430125 
L 105.204432 261.75223 
L 72.738977 261.75223 
z
" style="fill:#ff7f0e;"/>
   </g>
   <g id="patch_4">
    <path clip-path="url(#p278e4f2a1d)" d="M 105.204432 288.430125 
L 137.669886 288.430125 
L 137.669886 235.074336 
L 105.204432 235.074336 
z
" style="fill:#ff7f0e;"/>
   </g>
   <g id="patch_5">
    <path clip-path="url(#p278e4f2a1d)" d="M 137.669886 288.430125 
L 170.135341 288.430125 
L 170.135341 155.040651 
L 137.669886 155.040651 
z
" style="fill:#ff7f0e;"/>
   </g>
   <g id="patch_6">
    <path clip-path="url(#p278e4f2a1d)" d="M 170.135341 288.430125 
L 202.600795 288.430125 
L 202.600795 68.337493 
L 170.135341 68.337493 
z
" style="fill:#ff7f0e;"/>
   </g>
   <g id="patch_7">
    <path clip-path="url(#p278e4f2a1d)" d="M 202.600795 288.430125 
L 235.06625 288.430125 
L 235.06625 34.990125 
L 202.600795 34.990125 
z
" style="fill:#ff7f0e;"/>
   </g>
   <g id="patch_8">
    <path clip-path="url(#p278e4f2a1d)" d="M 235.06625 288.430125 
L 267.531705 288.430125 
L 267.531705 135.03223 
L 235.06625 135.03223 
z
" style="fill:#ff7f0e;"/>
   </g>
   <g id="patch_9">
    <path clip-path="url(#p278e4f2a1d)" d="M 267.531705 288.430125 
L 299.997159 288.430125 
L 299.997159 95.015388 
L 267.531705 95.015388 
z
" style="fill:#ff7f0e;"/>
   </g>
   <g id="patch_10">
    <path clip-path="url(#p278e4f2a1d)" d="M 299.997159 288.430125 
L 332.462614 288.430125 
L 332.462614 161.710125 
L 299.997159 161.710125 
z
" style="fill:#ff7f0e;"/>
   </g>
   <g id="patch_11">
    <path clip-path="url(#p278e4f2a1d)" d="M 332.462614 288.430125 
L 364.928068 288.430125 
L 364.928068 221.735388 
L 332.462614 221.735388 
z
" style="fill:#ff7f0e;"/>
   </g>
   <g id="patch_12">
    <path clip-path="url(#p278e4f2a1d)" d="M 364.928068 288.430125 
L 397.393523 288.430125 
L 397.393523 248.413283 
L 364.928068 248.413283 
z
" style="fill:#ff7f0e;"/>
   </g>
   <g id="matplotlib.axis_1">
    <g id="xtick_1">
     <g id="line2d_1">
      <defs>
       <path d="M 0 0 
L 0 3.5 
" id="m0781c5ad6f" style="stroke:#000000;stroke-width:0.8;"/>
      </defs>
      <g>
       <use style="stroke:#000000;stroke-width:0.8;" x="73.464933" xlink:href="#m0781c5ad6f" y="288.430125"/>
      </g>
     </g>
     <g id="text_1">
      <!-- 1200 -->
      <defs>
       <path d="M 12.40625 8.296875 
L 28.515625 8.296875 
L 28.515625 63.921875 
L 10.984375 60.40625 
L 10.984375 69.390625 
L 28.421875 72.90625 
L 38.28125 72.90625 
L 38.28125 8.296875 
L 54.390625 8.296875 
L 54.390625 0 
L 12.40625 0 
z
" id="DejaVuSans-31"/>
       <path d="M 19.1875 8.296875 
L 53.609375 8.296875 
L 53.609375 0 
L 7.328125 0 
L 7.328125 8.296875 
Q 12.9375 14.109375 22.625 23.890625 
Q 32.328125 33.6875 34.8125 36.53125 
Q 39.546875 41.84375 41.421875 45.53125 
Q 43.3125 49.21875 43.3125 52.78125 
Q 43.3125 58.59375 39.234375 62.25 
Q 35.15625 65.921875 28.609375 65.921875 
Q 23.96875 65.921875 18.8125 64.3125 
Q 13.671875 62.703125 7.8125 59.421875 
L 7.8125 69.390625 
Q 13.765625 71.78125 18.9375 73 
Q 24.125 74.21875 28.421875 74.21875 
Q 39.75 74.21875 46.484375 68.546875 
Q 53.21875 62.890625 53.21875 53.421875 
Q 53.21875 48.921875 51.53125 44.890625 
Q 49.859375 40.875 45.40625 35.40625 
Q 44.1875 33.984375 37.640625 27.21875 
Q 31.109375 20.453125 19.1875 8.296875 
z
" id="DejaVuSans-32"/>
       <path d="M 31.78125 66.40625 
Q 24.171875 66.40625 20.328125 58.90625 
Q 16.5 51.421875 16.5 36.375 
Q 16.5 21.390625 20.328125 13.890625 
Q 24.171875 6.390625 31.78125 6.390625 
Q 39.453125 6.390625 43.28125 13.890625 
Q 47.125 21.390625 47.125 36.375 
Q 47.125 51.421875 43.28125 58.90625 
Q 39.453125 66.40625 31.78125 66.40625 
z
M 31.78125 74.21875 
Q 44.046875 74.21875 50.515625 64.515625 
Q 56.984375 54.828125 56.984375 36.375 
Q 56.984375 17.96875 50.515625 8.265625 
Q 44.046875 -1.421875 31.78125 -1.421875 
Q 19.53125 -1.421875 13.0625 8.265625 
Q 6.59375 17.96875 6.59375 36.375 
Q 6.59375 54.828125 13.0625 64.515625 
Q 19.53125 74.21875 31.78125 74.21875 
z
" id="DejaVuSans-30"/>
      </defs>
      <g transform="translate(60.739933 303.028562)scale(0.1 -0.1)">
       <use xlink:href="#DejaVuSans-31"/>
       <use x="63.623047" xlink:href="#DejaVuSans-32"/>
       <use x="127.246094" xlink:href="#DejaVuSans-30"/>
       <use x="190.869141" xlink:href="#DejaVuSans-30"/>
      </g>
     </g>
    </g>
    <g id="xtick_2">
     <g id="line2d_2">
      <g>
       <use style="stroke:#000000;stroke-width:0.8;" x="117.77731" xlink:href="#m0781c5ad6f" y="288.430125"/>
      </g>
     </g>
     <g id="text_2">
      <!-- 1220 -->
      <g transform="translate(105.05231 303.028562)scale(0.1 -0.1)">
       <use xlink:href="#DejaVuSans-31"/>
       <use x="63.623047" xlink:href="#DejaVuSans-32"/>
       <use x="127.246094" xlink:href="#DejaVuSans-32"/>
       <use x="190.869141" xlink:href="#DejaVuSans-30"/>
      </g>
     </g>
    </g>
    <g id="xtick_3">
     <g id="line2d_3">
      <g>
       <use style="stroke:#000000;stroke-width:0.8;" x="162.089688" xlink:href="#m0781c5ad6f" y="288.430125"/>
      </g>
     </g>
     <g id="text_3">
      <!-- 1240 -->
      <defs>
       <path d="M 37.796875 64.3125 
L 12.890625 25.390625 
L 37.796875 25.390625 
z
M 35.203125 72.90625 
L 47.609375 72.90625 
L 47.609375 25.390625 
L 58.015625 25.390625 
L 58.015625 17.1875 
L 47.609375 17.1875 
L 47.609375 0 
L 37.796875 0 
L 37.796875 17.1875 
L 4.890625 17.1875 
L 4.890625 26.703125 
z
" id="DejaVuSans-34"/>
      </defs>
      <g transform="translate(149.364688 303.028562)scale(0.1 -0.1)">
       <use xlink:href="#DejaVuSans-31"/>
       <use x="63.623047" xlink:href="#DejaVuSans-32"/>
       <use x="127.246094" xlink:href="#DejaVuSans-34"/>
       <use x="190.869141" xlink:href="#DejaVuSans-30"/>
      </g>
     </g>
    </g>
    <g id="xtick_4">
     <g id="line2d_4">
      <g>
       <use style="stroke:#000000;stroke-width:0.8;" x="206.402066" xlink:href="#m0781c5ad6f" y="288.430125"/>
      </g>
     </g>
     <g id="text_4">
      <!-- 1260 -->
      <defs>
       <path d="M 33.015625 40.375 
Q 26.375 40.375 22.484375 35.828125 
Q 18.609375 31.296875 18.609375 23.390625 
Q 18.609375 15.53125 22.484375 10.953125 
Q 26.375 6.390625 33.015625 6.390625 
Q 39.65625 6.390625 43.53125 10.953125 
Q 47.40625 15.53125 47.40625 23.390625 
Q 47.40625 31.296875 43.53125 35.828125 
Q 39.65625 40.375 33.015625 40.375 
z
M 52.59375 71.296875 
L 52.59375 62.3125 
Q 48.875 64.0625 45.09375 64.984375 
Q 41.3125 65.921875 37.59375 65.921875 
Q 27.828125 65.921875 22.671875 59.328125 
Q 17.53125 52.734375 16.796875 39.40625 
Q 19.671875 43.65625 24.015625 45.921875 
Q 28.375 48.1875 33.59375 48.1875 
Q 44.578125 48.1875 50.953125 41.515625 
Q 57.328125 34.859375 57.328125 23.390625 
Q 57.328125 12.15625 50.6875 5.359375 
Q 44.046875 -1.421875 33.015625 -1.421875 
Q 20.359375 -1.421875 13.671875 8.265625 
Q 6.984375 17.96875 6.984375 36.375 
Q 6.984375 53.65625 15.1875 63.9375 
Q 23.390625 74.21875 37.203125 74.21875 
Q 40.921875 74.21875 44.703125 73.484375 
Q 48.484375 72.75 52.59375 71.296875 
z
" id="DejaVuSans-36"/>
      </defs>
      <g transform="translate(193.677066 303.028562)scale(0.1 -0.1)">
       <use xlink:href="#DejaVuSans-31"/>
       <use x="63.623047" xlink:href="#DejaVuSans-32"/>
       <use x="127.246094" xlink:href="#DejaVuSans-36"/>
       <use x="190.869141" xlink:href="#DejaVuSans-30"/>
      </g>
     </g>
    </g>
    <g id="xtick_5">
     <g id="line2d_5">
      <g>
       <use style="stroke:#000000;stroke-width:0.8;" x="250.714444" xlink:href="#m0781c5ad6f" y="288.430125"/>
      </g>
     </g>
     <g id="text_5">
      <!-- 1280 -->
      <defs>
       <path d="M 31.78125 34.625 
Q 24.75 34.625 20.71875 30.859375 
Q 16.703125 27.09375 16.703125 20.515625 
Q 16.703125 13.921875 20.71875 10.15625 
Q 24.75 6.390625 31.78125 6.390625 
Q 38.8125 6.390625 42.859375 10.171875 
Q 46.921875 13.96875 46.921875 20.515625 
Q 46.921875 27.09375 42.890625 30.859375 
Q 38.875 34.625 31.78125 34.625 
z
M 21.921875 38.8125 
Q 15.578125 40.375 12.03125 44.71875 
Q 8.5 49.078125 8.5 55.328125 
Q 8.5 64.0625 14.71875 69.140625 
Q 20.953125 74.21875 31.78125 74.21875 
Q 42.671875 74.21875 48.875 69.140625 
Q 55.078125 64.0625 55.078125 55.328125 
Q 55.078125 49.078125 51.53125 44.71875 
Q 48 40.375 41.703125 38.8125 
Q 48.828125 37.15625 52.796875 32.3125 
Q 56.78125 27.484375 56.78125 20.515625 
Q 56.78125 9.90625 50.3125 4.234375 
Q 43.84375 -1.421875 31.78125 -1.421875 
Q 19.734375 -1.421875 13.25 4.234375 
Q 6.78125 9.90625 6.78125 20.515625 
Q 6.78125 27.484375 10.78125 32.3125 
Q 14.796875 37.15625 21.921875 38.8125 
z
M 18.3125 54.390625 
Q 18.3125 48.734375 21.84375 45.5625 
Q 25.390625 42.390625 31.78125 42.390625 
Q 38.140625 42.390625 41.71875 45.5625 
Q 45.3125 48.734375 45.3125 54.390625 
Q 45.3125 60.0625 41.71875 63.234375 
Q 38.140625 66.40625 31.78125 66.40625 
Q 25.390625 66.40625 21.84375 63.234375 
Q 18.3125 60.0625 18.3125 54.390625 
z
" id="DejaVuSans-38"/>
      </defs>
      <g transform="translate(237.989444 303.028562)scale(0.1 -0.1)">
       <use xlink:href="#DejaVuSans-31"/>
       <use x="63.623047" xlink:href="#DejaVuSans-32"/>
       <use x="127.246094" xlink:href="#DejaVuSans-38"/>
       <use x="190.869141" xlink:href="#DejaVuSans-30"/>
      </g>
     </g>
    </g>
    <g id="xtick_6">
     <g id="line2d_6">
      <g>
       <use style="stroke:#000000;stroke-width:0.8;" x="295.026822" xlink:href="#m0781c5ad6f" y="288.430125"/>
      </g>
     </g>
     <g id="text_6">
      <!-- 1300 -->
      <defs>
       <path d="M 40.578125 39.3125 
Q 47.65625 37.796875 51.625 33 
Q 55.609375 28.21875 55.609375 21.1875 
Q 55.609375 10.40625 48.1875 4.484375 
Q 40.765625 -1.421875 27.09375 -1.421875 
Q 22.515625 -1.421875 17.65625 -0.515625 
Q 12.796875 0.390625 7.625 2.203125 
L 7.625 11.71875 
Q 11.71875 9.328125 16.59375 8.109375 
Q 21.484375 6.890625 26.8125 6.890625 
Q 36.078125 6.890625 40.9375 10.546875 
Q 45.796875 14.203125 45.796875 21.1875 
Q 45.796875 27.640625 41.28125 31.265625 
Q 36.765625 34.90625 28.71875 34.90625 
L 20.21875 34.90625 
L 20.21875 43.015625 
L 29.109375 43.015625 
Q 36.375 43.015625 40.234375 45.921875 
Q 44.09375 48.828125 44.09375 54.296875 
Q 44.09375 59.90625 40.109375 62.90625 
Q 36.140625 65.921875 28.71875 65.921875 
Q 24.65625 65.921875 20.015625 65.03125 
Q 15.375 64.15625 9.8125 62.3125 
L 9.8125 71.09375 
Q 15.4375 72.65625 20.34375 73.4375 
Q 25.25 74.21875 29.59375 74.21875 
Q 40.828125 74.21875 47.359375 69.109375 
Q 53.90625 64.015625 53.90625 55.328125 
Q 53.90625 49.265625 50.4375 45.09375 
Q 46.96875 40.921875 40.578125 39.3125 
z
" id="DejaVuSans-33"/>
      </defs>
      <g transform="translate(282.301822 303.028562)scale(0.1 -0.1)">
       <use xlink:href="#DejaVuSans-31"/>
       <use x="63.623047" xlink:href="#DejaVuSans-33"/>
       <use x="127.246094" xlink:href="#DejaVuSans-30"/>
       <use x="190.869141" xlink:href="#DejaVuSans-30"/>
      </g>
     </g>
    </g>
    <g id="xtick_7">
     <g id="line2d_7">
      <g>
       <use style="stroke:#000000;stroke-width:0.8;" x="339.3392" xlink:href="#m0781c5ad6f" y="288.430125"/>
      </g>
     </g>
     <g id="text_7">
      <!-- 1320 -->
      <g transform="translate(326.6142 303.028562)scale(0.1 -0.1)">
       <use xlink:href="#DejaVuSans-31"/>
       <use x="63.623047" xlink:href="#DejaVuSans-33"/>
       <use x="127.246094" xlink:href="#DejaVuSans-32"/>
       <use x="190.869141" xlink:href="#DejaVuSans-30"/>
      </g>
     </g>
    </g>
    <g id="xtick_8">
     <g id="line2d_8">
      <g>
       <use style="stroke:#000000;stroke-width:0.8;" x="383.651577" xlink:href="#m0781c5ad6f" y="288.430125"/>
      </g>
     </g>
     <g id="text_8">
      <!-- 1340 -->
      <g transform="translate(370.926577 303.028562)scale(0.1 -0.1)">
       <use xlink:href="#DejaVuSans-31"/>
       <use x="63.623047" xlink:href="#DejaVuSans-33"/>
       <use x="127.246094" xlink:href="#DejaVuSans-34"/>
       <use x="190.869141" xlink:href="#DejaVuSans-30"/>
      </g>
     </g>
    </g>
    <g id="text_9">
     <!-- Distance -->
     <defs>
      <path d="M 19.671875 64.796875 
L 19.671875 8.109375 
L 31.59375 8.109375 
Q 46.6875 8.109375 53.6875 14.9375 
Q 60.6875 21.78125 60.6875 36.53125 
Q 60.6875 51.171875 53.6875 57.984375 
Q 46.6875 64.796875 31.59375 64.796875 
z
M 9.8125 72.90625 
L 30.078125 72.90625 
Q 51.265625 72.90625 61.171875 64.09375 
Q 71.09375 55.28125 71.09375 36.53125 
Q 71.09375 17.671875 61.125 8.828125 
Q 51.171875 0 30.078125 0 
L 9.8125 0 
z
" id="DejaVuSans-44"/>
      <path d="M 9.421875 54.6875 
L 18.40625 54.6875 
L 18.40625 0 
L 9.421875 0 
z
M 9.421875 75.984375 
L 18.40625 75.984375 
L 18.40625 64.59375 
L 9.421875 64.59375 
z
" id="DejaVuSans-69"/>
      <path d="M 44.28125 53.078125 
L 44.28125 44.578125 
Q 40.484375 46.53125 36.375 47.5 
Q 32.28125 48.484375 27.875 48.484375 
Q 21.1875 48.484375 17.84375 46.4375 
Q 14.5 44.390625 14.5 40.28125 
Q 14.5 37.15625 16.890625 35.375 
Q 19.28125 33.59375 26.515625 31.984375 
L 29.59375 31.296875 
Q 39.15625 29.25 43.1875 25.515625 
Q 47.21875 21.78125 47.21875 15.09375 
Q 47.21875 7.46875 41.1875 3.015625 
Q 35.15625 -1.421875 24.609375 -1.421875 
Q 20.21875 -1.421875 15.453125 -0.5625 
Q 10.6875 0.296875 5.421875 2 
L 5.421875 11.28125 
Q 10.40625 8.6875 15.234375 7.390625 
Q 20.0625 6.109375 24.8125 6.109375 
Q 31.15625 6.109375 34.5625 8.28125 
Q 37.984375 10.453125 37.984375 14.40625 
Q 37.984375 18.0625 35.515625 20.015625 
Q 33.0625 21.96875 24.703125 23.78125 
L 21.578125 24.515625 
Q 13.234375 26.265625 9.515625 29.90625 
Q 5.8125 33.546875 5.8125 39.890625 
Q 5.8125 47.609375 11.28125 51.796875 
Q 16.75 56 26.8125 56 
Q 31.78125 56 36.171875 55.265625 
Q 40.578125 54.546875 44.28125 53.078125 
z
" id="DejaVuSans-73"/>
      <path d="M 18.3125 70.21875 
L 18.3125 54.6875 
L 36.8125 54.6875 
L 36.8125 47.703125 
L 18.3125 47.703125 
L 18.3125 18.015625 
Q 18.3125 11.328125 20.140625 9.421875 
Q 21.96875 7.515625 27.59375 7.515625 
L 36.8125 7.515625 
L 36.8125 0 
L 27.59375 0 
Q 17.1875 0 13.234375 3.875 
Q 9.28125 7.765625 9.28125 18.015625 
L 9.28125 47.703125 
L 2.6875 47.703125 
L 2.6875 54.6875 
L 9.28125 54.6875 
L 9.28125 70.21875 
z
" id="DejaVuSans-74"/>
      <path d="M 34.28125 27.484375 
Q 23.390625 27.484375 19.1875 25 
Q 14.984375 22.515625 14.984375 16.5 
Q 14.984375 11.71875 18.140625 8.90625 
Q 21.296875 6.109375 26.703125 6.109375 
Q 34.1875 6.109375 38.703125 11.40625 
Q 43.21875 16.703125 43.21875 25.484375 
L 43.21875 27.484375 
z
M 52.203125 31.203125 
L 52.203125 0 
L 43.21875 0 
L 43.21875 8.296875 
Q 40.140625 3.328125 35.546875 0.953125 
Q 30.953125 -1.421875 24.3125 -1.421875 
Q 15.921875 -1.421875 10.953125 3.296875 
Q 6 8.015625 6 15.921875 
Q 6 25.140625 12.171875 29.828125 
Q 18.359375 34.515625 30.609375 34.515625 
L 43.21875 34.515625 
L 43.21875 35.40625 
Q 43.21875 41.609375 39.140625 45 
Q 35.0625 48.390625 27.6875 48.390625 
Q 23 48.390625 18.546875 47.265625 
Q 14.109375 46.140625 10.015625 43.890625 
L 10.015625 52.203125 
Q 14.9375 54.109375 19.578125 55.046875 
Q 24.21875 56 28.609375 56 
Q 40.484375 56 46.34375 49.84375 
Q 52.203125 43.703125 52.203125 31.203125 
z
" id="DejaVuSans-61"/>
      <path d="M 54.890625 33.015625 
L 54.890625 0 
L 45.90625 0 
L 45.90625 32.71875 
Q 45.90625 40.484375 42.875 44.328125 
Q 39.84375 48.1875 33.796875 48.1875 
Q 26.515625 48.1875 22.3125 43.546875 
Q 18.109375 38.921875 18.109375 30.90625 
L 18.109375 0 
L 9.078125 0 
L 9.078125 54.6875 
L 18.109375 54.6875 
L 18.109375 46.1875 
Q 21.34375 51.125 25.703125 53.5625 
Q 30.078125 56 35.796875 56 
Q 45.21875 56 50.046875 50.171875 
Q 54.890625 44.34375 54.890625 33.015625 
z
" id="DejaVuSans-6e"/>
      <path d="M 48.78125 52.59375 
L 48.78125 44.1875 
Q 44.96875 46.296875 41.140625 47.34375 
Q 37.3125 48.390625 33.40625 48.390625 
Q 24.65625 48.390625 19.8125 42.84375 
Q 14.984375 37.3125 14.984375 27.296875 
Q 14.984375 17.28125 19.8125 11.734375 
Q 24.65625 6.203125 33.40625 6.203125 
Q 37.3125 6.203125 41.140625 7.25 
Q 44.96875 8.296875 48.78125 10.40625 
L 48.78125 2.09375 
Q 45.015625 0.34375 40.984375 -0.53125 
Q 36.96875 -1.421875 32.421875 -1.421875 
Q 20.0625 -1.421875 12.78125 6.34375 
Q 5.515625 14.109375 5.515625 27.296875 
Q 5.515625 40.671875 12.859375 48.328125 
Q 20.21875 56 33.015625 56 
Q 37.15625 56 41.109375 55.140625 
Q 45.0625 54.296875 48.78125 52.59375 
z
" id="DejaVuSans-63"/>
      <path d="M 56.203125 29.59375 
L 56.203125 25.203125 
L 14.890625 25.203125 
Q 15.484375 15.921875 20.484375 11.0625 
Q 25.484375 6.203125 34.421875 6.203125 
Q 39.59375 6.203125 44.453125 7.46875 
Q 49.3125 8.734375 54.109375 11.28125 
L 54.109375 2.78125 
Q 49.265625 0.734375 44.1875 -0.34375 
Q 39.109375 -1.421875 33.890625 -1.421875 
Q 20.796875 -1.421875 13.15625 6.1875 
Q 5.515625 13.8125 5.515625 26.8125 
Q 5.515625 40.234375 12.765625 48.109375 
Q 20.015625 56 32.328125 56 
Q 43.359375 56 49.78125 48.890625 
Q 56.203125 41.796875 56.203125 29.59375 
z
M 47.21875 32.234375 
Q 47.125 39.59375 43.09375 43.984375 
Q 39.0625 48.390625 32.421875 48.390625 
Q 24.90625 48.390625 20.390625 44.140625 
Q 15.875 39.890625 15.1875 32.171875 
z
" id="DejaVuSans-65"/>
     </defs>
     <g transform="translate(213.20375 316.706687)scale(0.1 -0.1)">
      <use xlink:href="#DejaVuSans-44"/>
      <use x="77.001953" xlink:href="#DejaVuSans-69"/>
      <use x="104.785156" xlink:href="#DejaVuSans-73"/>
      <use x="156.884766" xlink:href="#DejaVuSans-74"/>
      <use x="196.09375" xlink:href="#DejaVuSans-61"/>
      <use x="257.373047" xlink:href="#DejaVuSans-6e"/>
      <use x="320.751953" xlink:href="#DejaVuSans-63"/>
      <use x="375.732422" xlink:href="#DejaVuSans-65"/>
     </g>
    </g>
   </g>
   <g id="matplotlib.axis_2">
    <g id="ytick_1">
     <g id="line2d_9">
      <defs>
       <path d="M 0 0 
L -3.5 0 
" id="mc94cc46f50" style="stroke:#000000;stroke-width:0.8;"/>
      </defs>
      <g>
       <use style="stroke:#000000;stroke-width:0.8;" x="56.50625" xlink:href="#mc94cc46f50" y="288.430125"/>
      </g>
     </g>
     <g id="text_10">
      <!-- 0.000 -->
      <defs>
       <path d="M 10.6875 12.40625 
L 21 12.40625 
L 21 0 
L 10.6875 0 
z
" id="DejaVuSans-2e"/>
      </defs>
      <g transform="translate(20.878125 292.229344)scale(0.1 -0.1)">
       <use xlink:href="#DejaVuSans-30"/>
       <use x="63.623047" xlink:href="#DejaVuSans-2e"/>
       <use x="95.410156" xlink:href="#DejaVuSans-30"/>
       <use x="159.033203" xlink:href="#DejaVuSans-30"/>
       <use x="222.65625" xlink:href="#DejaVuSans-30"/>
      </g>
     </g>
    </g>
    <g id="ytick_2">
     <g id="line2d_10">
      <g>
       <use style="stroke:#000000;stroke-width:0.8;" x="56.50625" xlink:href="#mc94cc46f50" y="251.293572"/>
      </g>
     </g>
     <g id="text_11">
      <!-- 0.002 -->
      <g transform="translate(20.878125 255.092791)scale(0.1 -0.1)">
       <use xlink:href="#DejaVuSans-30"/>
       <use x="63.623047" xlink:href="#DejaVuSans-2e"/>
       <use x="95.410156" xlink:href="#DejaVuSans-30"/>
       <use x="159.033203" xlink:href="#DejaVuSans-30"/>
       <use x="222.65625" xlink:href="#DejaVuSans-32"/>
      </g>
     </g>
    </g>
    <g id="ytick_3">
     <g id="line2d_11">
      <g>
       <use style="stroke:#000000;stroke-width:0.8;" x="56.50625" xlink:href="#mc94cc46f50" y="214.157019"/>
      </g>
     </g>
     <g id="text_12">
      <!-- 0.004 -->
      <g transform="translate(20.878125 217.956238)scale(0.1 -0.1)">
       <use xlink:href="#DejaVuSans-30"/>
       <use x="63.623047" xlink:href="#DejaVuSans-2e"/>
       <use x="95.410156" xlink:href="#DejaVuSans-30"/>
       <use x="159.033203" xlink:href="#DejaVuSans-30"/>
       <use x="222.65625" xlink:href="#DejaVuSans-34"/>
      </g>
     </g>
    </g>
    <g id="ytick_4">
     <g id="line2d_12">
      <g>
       <use style="stroke:#000000;stroke-width:0.8;" x="56.50625" xlink:href="#mc94cc46f50" y="177.020467"/>
      </g>
     </g>
     <g id="text_13">
      <!-- 0.006 -->
      <g transform="translate(20.878125 180.819685)scale(0.1 -0.1)">
       <use xlink:href="#DejaVuSans-30"/>
       <use x="63.623047" xlink:href="#DejaVuSans-2e"/>
       <use x="95.410156" xlink:href="#DejaVuSans-30"/>
       <use x="159.033203" xlink:href="#DejaVuSans-30"/>
       <use x="222.65625" xlink:href="#DejaVuSans-36"/>
      </g>
     </g>
    </g>
    <g id="ytick_5">
     <g id="line2d_13">
      <g>
       <use style="stroke:#000000;stroke-width:0.8;" x="56.50625" xlink:href="#mc94cc46f50" y="139.883914"/>
      </g>
     </g>
     <g id="text_14">
      <!-- 0.008 -->
      <g transform="translate(20.878125 143.683133)scale(0.1 -0.1)">
       <use xlink:href="#DejaVuSans-30"/>
       <use x="63.623047" xlink:href="#DejaVuSans-2e"/>
       <use x="95.410156" xlink:href="#DejaVuSans-30"/>
       <use x="159.033203" xlink:href="#DejaVuSans-30"/>
       <use x="222.65625" xlink:href="#DejaVuSans-38"/>
      </g>
     </g>
    </g>
    <g id="ytick_6">
     <g id="line2d_14">
      <g>
       <use style="stroke:#000000;stroke-width:0.8;" x="56.50625" xlink:href="#mc94cc46f50" y="102.747361"/>
      </g>
     </g>
     <g id="text_15">
      <!-- 0.010 -->
      <g transform="translate(20.878125 106.54658)scale(0.1 -0.1)">
       <use xlink:href="#DejaVuSans-30"/>
       <use x="63.623047" xlink:href="#DejaVuSans-2e"/>
       <use x="95.410156" xlink:href="#DejaVuSans-30"/>
       <use x="159.033203" xlink:href="#DejaVuSans-31"/>
       <use x="222.65625" xlink:href="#DejaVuSans-30"/>
      </g>
     </g>
    </g>
    <g id="ytick_7">
     <g id="line2d_15">
      <g>
       <use style="stroke:#000000;stroke-width:0.8;" x="56.50625" xlink:href="#mc94cc46f50" y="65.610808"/>
      </g>
     </g>
     <g id="text_16">
      <!-- 0.012 -->
      <g transform="translate(20.878125 69.410027)scale(0.1 -0.1)">
       <use xlink:href="#DejaVuSans-30"/>
       <use x="63.623047" xlink:href="#DejaVuSans-2e"/>
       <use x="95.410156" xlink:href="#DejaVuSans-30"/>
       <use x="159.033203" xlink:href="#DejaVuSans-31"/>
       <use x="222.65625" xlink:href="#DejaVuSans-32"/>
      </g>
     </g>
    </g>
    <g id="ytick_8">
     <g id="line2d_16">
      <g>
       <use style="stroke:#000000;stroke-width:0.8;" x="56.50625" xlink:href="#mc94cc46f50" y="28.474255"/>
      </g>
     </g>
     <g id="text_17">
      <!-- 0.014 -->
      <g transform="translate(20.878125 32.273474)scale(0.1 -0.1)">
       <use xlink:href="#DejaVuSans-30"/>
       <use x="63.623047" xlink:href="#DejaVuSans-2e"/>
       <use x="95.410156" xlink:href="#DejaVuSans-30"/>
       <use x="159.033203" xlink:href="#DejaVuSans-31"/>
       <use x="222.65625" xlink:href="#DejaVuSans-34"/>
      </g>
     </g>
    </g>
    <g id="text_18">
     <!-- Probability -->
     <defs>
      <path d="M 19.671875 64.796875 
L 19.671875 37.40625 
L 32.078125 37.40625 
Q 38.96875 37.40625 42.71875 40.96875 
Q 46.484375 44.53125 46.484375 51.125 
Q 46.484375 57.671875 42.71875 61.234375 
Q 38.96875 64.796875 32.078125 64.796875 
z
M 9.8125 72.90625 
L 32.078125 72.90625 
Q 44.34375 72.90625 50.609375 67.359375 
Q 56.890625 61.8125 56.890625 51.125 
Q 56.890625 40.328125 50.609375 34.8125 
Q 44.34375 29.296875 32.078125 29.296875 
L 19.671875 29.296875 
L 19.671875 0 
L 9.8125 0 
z
" id="DejaVuSans-50"/>
      <path d="M 41.109375 46.296875 
Q 39.59375 47.171875 37.8125 47.578125 
Q 36.03125 48 33.890625 48 
Q 26.265625 48 22.1875 43.046875 
Q 18.109375 38.09375 18.109375 28.8125 
L 18.109375 0 
L 9.078125 0 
L 9.078125 54.6875 
L 18.109375 54.6875 
L 18.109375 46.1875 
Q 20.953125 51.171875 25.484375 53.578125 
Q 30.03125 56 36.53125 56 
Q 37.453125 56 38.578125 55.875 
Q 39.703125 55.765625 41.0625 55.515625 
z
" id="DejaVuSans-72"/>
      <path d="M 30.609375 48.390625 
Q 23.390625 48.390625 19.1875 42.75 
Q 14.984375 37.109375 14.984375 27.296875 
Q 14.984375 17.484375 19.15625 11.84375 
Q 23.34375 6.203125 30.609375 6.203125 
Q 37.796875 6.203125 41.984375 11.859375 
Q 46.1875 17.53125 46.1875 27.296875 
Q 46.1875 37.015625 41.984375 42.703125 
Q 37.796875 48.390625 30.609375 48.390625 
z
M 30.609375 56 
Q 42.328125 56 49.015625 48.375 
Q 55.71875 40.765625 55.71875 27.296875 
Q 55.71875 13.875 49.015625 6.21875 
Q 42.328125 -1.421875 30.609375 -1.421875 
Q 18.84375 -1.421875 12.171875 6.21875 
Q 5.515625 13.875 5.515625 27.296875 
Q 5.515625 40.765625 12.171875 48.375 
Q 18.84375 56 30.609375 56 
z
" id="DejaVuSans-6f"/>
      <path d="M 48.6875 27.296875 
Q 48.6875 37.203125 44.609375 42.84375 
Q 40.53125 48.484375 33.40625 48.484375 
Q 26.265625 48.484375 22.1875 42.84375 
Q 18.109375 37.203125 18.109375 27.296875 
Q 18.109375 17.390625 22.1875 11.75 
Q 26.265625 6.109375 33.40625 6.109375 
Q 40.53125 6.109375 44.609375 11.75 
Q 48.6875 17.390625 48.6875 27.296875 
z
M 18.109375 46.390625 
Q 20.953125 51.265625 25.265625 53.625 
Q 29.59375 56 35.59375 56 
Q 45.5625 56 51.78125 48.09375 
Q 58.015625 40.1875 58.015625 27.296875 
Q 58.015625 14.40625 51.78125 6.484375 
Q 45.5625 -1.421875 35.59375 -1.421875 
Q 29.59375 -1.421875 25.265625 0.953125 
Q 20.953125 3.328125 18.109375 8.203125 
L 18.109375 0 
L 9.078125 0 
L 9.078125 75.984375 
L 18.109375 75.984375 
z
" id="DejaVuSans-62"/>
      <path d="M 9.421875 75.984375 
L 18.40625 75.984375 
L 18.40625 0 
L 9.421875 0 
z
" id="DejaVuSans-6c"/>
      <path d="M 32.171875 -5.078125 
Q 28.375 -14.84375 24.75 -17.8125 
Q 21.140625 -20.796875 15.09375 -20.796875 
L 7.90625 -20.796875 
L 7.90625 -13.28125 
L 13.1875 -13.28125 
Q 16.890625 -13.28125 18.9375 -11.515625 
Q 21 -9.765625 23.484375 -3.21875 
L 25.09375 0.875 
L 2.984375 54.6875 
L 12.5 54.6875 
L 29.59375 11.921875 
L 46.6875 54.6875 
L 56.203125 54.6875 
z
" id="DejaVuSans-79"/>
     </defs>
     <g transform="translate(14.798437 182.000687)rotate(-90)scale(0.1 -0.1)">
      <use xlink:href="#DejaVuSans-50"/>
      <use x="60.287109" xlink:href="#DejaVuSans-72"/>
      <use x="101.369141" xlink:href="#DejaVuSans-6f"/>
      <use x="162.550781" xlink:href="#DejaVuSans-62"/>
      <use x="226.027344" xlink:href="#DejaVuSans-61"/>
      <use x="287.306641" xlink:href="#DejaVuSans-62"/>
      <use x="350.783203" xlink:href="#DejaVuSans-69"/>
      <use x="378.566406" xlink:href="#DejaVuSans-6c"/>
      <use x="406.349609" xlink:href="#DejaVuSans-69"/>
      <use x="434.132812" xlink:href="#DejaVuSans-74"/>
      <use x="473.341797" xlink:href="#DejaVuSans-79"/>
     </g>
    </g>
   </g>
   <g id="line2d_17">
    <path clip-path="url(#p278e4f2a1d)" d="M 72.738977 274.860423 
L 75.206682 273.627281 
L 103.753465 251.677772 
L 117.773034 234.615081 
L 124.941132 224.106467 
L 132.725624 211.344824 
L 134.096796 208.957005 
L 141.036265 196.272182 
L 145.449002 187.725482 
L 149.177997 180.247791 
L 156.595839 164.804509 
L 169.109347 137.760308 
L 179.156392 116.146089 
L 184.22261 105.634537 
L 189.41932 95.315086 
L 193.66371 87.339038 
L 196.045424 83.074577 
L 202.005838 73.175421 
L 205.68694 67.683235 
L 208.189112 64.24981 
L 211.384931 60.24163 
L 213.610677 57.712486 
L 216.853522 54.431543 
L 220.314158 51.480604 
L 222.852063 49.690623 
L 224.108624 48.924278 
L 227.86249 47.117019 
L 228.556164 46.863075 
L 231.578912 46.051287 
L 235.024883 45.714847 
L 237.313427 45.839533 
L 240.044809 46.351485 
L 241.558621 46.804613 
L 243.961749 47.770033 
L 246.452526 49.085832 
L 250.399374 51.814429 
L 252.611468 53.680089 
L 256.790005 57.838493 
L 259.67959 61.179085 
L 264.892 68.102937 
L 267.753546 72.360496 
L 268.997675 74.305454 
L 274.98785 84.396785 
L 277.453909 88.867307 
L 284.220082 101.914855 
L 287.104319 107.764736 
L 293.686309 121.577246 
L 306.76207 149.911718 
L 314.106277 165.689522 
L 319.70606 177.384514 
L 323.580837 185.233097 
L 332.385922 202.127355 
L 337.864429 211.870539 
L 341.83426 218.523248 
L 344.542106 222.856097 
L 349.68118 230.60995 
L 356.615168 240.083847 
L 363.5411 248.419222 
L 365.518229 250.596205 
L 370.039222 255.246213 
L 383.712252 266.709811 
L 387.796568 269.443829 
L 393.035585 272.538188 
L 397.393523 274.78677 
L 397.393523 274.78677 
" style="fill:none;stroke:#1f77b4;stroke-linecap:square;stroke-width:1.5;"/>
    <defs>
     <path d="M 0 3 
C 0.795609 3 1.55874 2.683901 2.12132 2.12132 
C 2.683901 1.55874 3 0.795609 3 0 
C 3 -0.795609 2.683901 -1.55874 2.12132 -2.12132 
C 1.55874 -2.683901 0.795609 -3 0 -3 
C -0.795609 -3 -1.55874 -2.683901 -2.12132 -2.12132 
C -2.683901 -1.55874 -3 -0.795609 -3 0 
C -3 0.795609 -2.683901 1.55874 -2.12132 2.12132 
C -1.55874 2.683901 -0.795609 3 0 3 
z
" id="m519c41688e" style="stroke:#1f77b4;"/>
    </defs>
    <g clip-path="url(#p278e4f2a1d)">
     <use style="fill:#1f77b4;stroke:#1f77b4;" x="72.738977" xlink:href="#m519c41688e" y="274.860423"/>
     <use style="fill:#1f77b4;stroke:#1f77b4;" x="75.206682" xlink:href="#m519c41688e" y="273.627281"/>
     <use style="fill:#1f77b4;stroke:#1f77b4;" x="103.576863" xlink:href="#m519c41688e" y="251.863925"/>
     <use style="fill:#1f77b4;stroke:#1f77b4;" x="103.753465" xlink:href="#m519c41688e" y="251.677772"/>
     <use style="fill:#1f77b4;stroke:#1f77b4;" x="116.912873" xlink:href="#m519c41688e" y="235.794495"/>
     <use style="fill:#1f77b4;stroke:#1f77b4;" x="117.15632" xlink:href="#m519c41688e" y="235.462469"/>
     <use style="fill:#1f77b4;stroke:#1f77b4;" x="117.773034" xlink:href="#m519c41688e" y="234.615081"/>
     <use style="fill:#1f77b4;stroke:#1f77b4;" x="124.941132" xlink:href="#m519c41688e" y="224.106467"/>
     <use style="fill:#1f77b4;stroke:#1f77b4;" x="130.452569" xlink:href="#m519c41688e" y="215.212568"/>
     <use style="fill:#1f77b4;stroke:#1f77b4;" x="131.632594" xlink:href="#m519c41688e" y="213.218933"/>
     <use style="fill:#1f77b4;stroke:#1f77b4;" x="132.725624" xlink:href="#m519c41688e" y="211.344824"/>
     <use style="fill:#1f77b4;stroke:#1f77b4;" x="134.096796" xlink:href="#m519c41688e" y="208.957005"/>
     <use style="fill:#1f77b4;stroke:#1f77b4;" x="138.936719" xlink:href="#m519c41688e" y="200.212066"/>
     <use style="fill:#1f77b4;stroke:#1f77b4;" x="139.761547" xlink:href="#m519c41688e" y="198.67442"/>
     <use style="fill:#1f77b4;stroke:#1f77b4;" x="141.036265" xlink:href="#m519c41688e" y="196.272182"/>
     <use style="fill:#1f77b4;stroke:#1f77b4;" x="142.751668" xlink:href="#m519c41688e" y="192.991217"/>
     <use style="fill:#1f77b4;stroke:#1f77b4;" x="145.449002" xlink:href="#m519c41688e" y="187.725482"/>
     <use style="fill:#1f77b4;stroke:#1f77b4;" x="147.437003" xlink:href="#m519c41688e" y="183.766074"/>
     <use style="fill:#1f77b4;stroke:#1f77b4;" x="148.771046" xlink:href="#m519c41688e" y="181.074252"/>
     <use style="fill:#1f77b4;stroke:#1f77b4;" x="149.177997" xlink:href="#m519c41688e" y="180.247791"/>
     <use style="fill:#1f77b4;stroke:#1f77b4;" x="154.624405" xlink:href="#m519c41688e" y="168.971782"/>
     <use style="fill:#1f77b4;stroke:#1f77b4;" x="156.595839" xlink:href="#m519c41688e" y="164.804509"/>
     <use style="fill:#1f77b4;stroke:#1f77b4;" x="160.900971" xlink:href="#m519c41688e" y="155.584973"/>
     <use style="fill:#1f77b4;stroke:#1f77b4;" x="161.068658" xlink:href="#m519c41688e" y="155.223202"/>
     <use style="fill:#1f77b4;stroke:#1f77b4;" x="161.843723" xlink:href="#m519c41688e" y="153.548998"/>
     <use style="fill:#1f77b4;stroke:#1f77b4;" x="162.450843" xlink:href="#m519c41688e" y="152.235382"/>
     <use style="fill:#1f77b4;stroke:#1f77b4;" x="163.861715" xlink:href="#m519c41688e" y="149.176437"/>
     <use style="fill:#1f77b4;stroke:#1f77b4;" x="165.67543" xlink:href="#m519c41688e" y="145.234542"/>
     <use style="fill:#1f77b4;stroke:#1f77b4;" x="166.129791" xlink:href="#m519c41688e" y="144.245933"/>
     <use style="fill:#1f77b4;stroke:#1f77b4;" x="167.55764" xlink:href="#m519c41688e" y="141.13784"/>
     <use style="fill:#1f77b4;stroke:#1f77b4;" x="168.193799" xlink:href="#m519c41688e" y="139.752926"/>
     <use style="fill:#1f77b4;stroke:#1f77b4;" x="169.109347" xlink:href="#m519c41688e" y="137.760308"/>
     <use style="fill:#1f77b4;stroke:#1f77b4;" x="170.29699" xlink:href="#m519c41688e" y="135.177518"/>
     <use style="fill:#1f77b4;stroke:#1f77b4;" x="171.104723" xlink:href="#m519c41688e" y="133.422998"/>
     <use style="fill:#1f77b4;stroke:#1f77b4;" x="171.736145" xlink:href="#m519c41688e" y="132.053014"/>
     <use style="fill:#1f77b4;stroke:#1f77b4;" x="173.144191" xlink:href="#m519c41688e" y="129.00431"/>
     <use style="fill:#1f77b4;stroke:#1f77b4;" x="174.038164" xlink:href="#m519c41688e" y="127.074218"/>
     <use style="fill:#1f77b4;stroke:#1f77b4;" x="174.169689" xlink:href="#m519c41688e" y="126.790673"/>
     <use style="fill:#1f77b4;stroke:#1f77b4;" x="175.243593" xlink:href="#m519c41688e" y="124.480018"/>
     <use style="fill:#1f77b4;stroke:#1f77b4;" x="176.692034" xlink:href="#m519c41688e" y="121.377835"/>
     <use style="fill:#1f77b4;stroke:#1f77b4;" x="178.975553" xlink:href="#m519c41688e" y="116.527751"/>
     <use style="fill:#1f77b4;stroke:#1f77b4;" x="179.156392" xlink:href="#m519c41688e" y="116.146089"/>
     <use style="fill:#1f77b4;stroke:#1f77b4;" x="181.551955" xlink:href="#m519c41688e" y="111.129245"/>
     <use style="fill:#1f77b4;stroke:#1f77b4;" x="181.675938" xlink:href="#m519c41688e" y="110.871724"/>
     <use style="fill:#1f77b4;stroke:#1f77b4;" x="181.766388" xlink:href="#m519c41688e" y="110.683993"/>
     <use style="fill:#1f77b4;stroke:#1f77b4;" x="182.142396" xlink:href="#m519c41688e" y="109.904874"/>
     <use style="fill:#1f77b4;stroke:#1f77b4;" x="182.638864" xlink:href="#m519c41688e" y="108.879422"/>
     <use style="fill:#1f77b4;stroke:#1f77b4;" x="184.22261" xlink:href="#m519c41688e" y="105.634537"/>
     <use style="fill:#1f77b4;stroke:#1f77b4;" x="186.45003" xlink:href="#m519c41688e" y="101.145305"/>
     <use style="fill:#1f77b4;stroke:#1f77b4;" x="186.751655" xlink:href="#m519c41688e" y="100.544655"/>
     <use style="fill:#1f77b4;stroke:#1f77b4;" x="188.148477" xlink:href="#m519c41688e" y="97.787295"/>
     <use style="fill:#1f77b4;stroke:#1f77b4;" x="188.530258" xlink:href="#m519c41688e" y="97.040845"/>
     <use style="fill:#1f77b4;stroke:#1f77b4;" x="189.41932" xlink:href="#m519c41688e" y="95.315086"/>
     <use style="fill:#1f77b4;stroke:#1f77b4;" x="190.532264" xlink:href="#m519c41688e" y="93.180374"/>
     <use style="fill:#1f77b4;stroke:#1f77b4;" x="191.3443" xlink:href="#m519c41688e" y="91.641591"/>
     <use style="fill:#1f77b4;stroke:#1f77b4;" x="192.108233" xlink:href="#m519c41688e" y="90.208989"/>
     <use style="fill:#1f77b4;stroke:#1f77b4;" x="193.285149" xlink:href="#m519c41688e" y="88.031546"/>
     <use style="fill:#1f77b4;stroke:#1f77b4;" x="193.28778" xlink:href="#m519c41688e" y="88.02672"/>
     <use style="fill:#1f77b4;stroke:#1f77b4;" x="193.342392" xlink:href="#m519c41688e" y="87.926582"/>
     <use style="fill:#1f77b4;stroke:#1f77b4;" x="193.66371" xlink:href="#m519c41688e" y="87.339038"/>
     <use style="fill:#1f77b4;stroke:#1f77b4;" x="196.045424" xlink:href="#m519c41688e" y="83.074577"/>
     <use style="fill:#1f77b4;stroke:#1f77b4;" x="200.447289" xlink:href="#m519c41688e" y="75.649485"/>
     <use style="fill:#1f77b4;stroke:#1f77b4;" x="201.834945" xlink:href="#m519c41688e" y="73.442523"/>
     <use style="fill:#1f77b4;stroke:#1f77b4;" x="201.841789" xlink:href="#m519c41688e" y="73.431805"/>
     <use style="fill:#1f77b4;stroke:#1f77b4;" x="202.005838" xlink:href="#m519c41688e" y="73.175421"/>
     <use style="fill:#1f77b4;stroke:#1f77b4;" x="203.055491" xlink:href="#m519c41688e" y="71.557928"/>
     <use style="fill:#1f77b4;stroke:#1f77b4;" x="205.057235" xlink:href="#m519c41688e" y="68.586402"/>
     <use style="fill:#1f77b4;stroke:#1f77b4;" x="205.68694" xlink:href="#m519c41688e" y="67.683235"/>
     <use style="fill:#1f77b4;stroke:#1f77b4;" x="205.900634" xlink:href="#m519c41688e" y="67.380252"/>
     <use style="fill:#1f77b4;stroke:#1f77b4;" x="205.954211" xlink:href="#m519c41688e" y="67.304572"/>
     <use style="fill:#1f77b4;stroke:#1f77b4;" x="206.612477" xlink:href="#m519c41688e" y="66.383976"/>
     <use style="fill:#1f77b4;stroke:#1f77b4;" x="206.703068" xlink:href="#m519c41688e" y="66.258632"/>
     <use style="fill:#1f77b4;stroke:#1f77b4;" x="206.882491" xlink:href="#m519c41688e" y="66.011346"/>
     <use style="fill:#1f77b4;stroke:#1f77b4;" x="207.448242" xlink:href="#m519c41688e" y="65.240099"/>
     <use style="fill:#1f77b4;stroke:#1f77b4;" x="207.52242" xlink:href="#m519c41688e" y="65.139938"/>
     <use style="fill:#1f77b4;stroke:#1f77b4;" x="208.189112" xlink:href="#m519c41688e" y="64.24981"/>
     <use style="fill:#1f77b4;stroke:#1f77b4;" x="210.482882" xlink:href="#m519c41688e" y="61.328804"/>
     <use style="fill:#1f77b4;stroke:#1f77b4;" x="211.384931" xlink:href="#m519c41688e" y="60.24163"/>
     <use style="fill:#1f77b4;stroke:#1f77b4;" x="213.038766" xlink:href="#m519c41688e" y="58.341224"/>
     <use style="fill:#1f77b4;stroke:#1f77b4;" x="213.610677" xlink:href="#m519c41688e" y="57.712486"/>
     <use style="fill:#1f77b4;stroke:#1f77b4;" x="215.800771" xlink:href="#m519c41688e" y="55.443013"/>
     <use style="fill:#1f77b4;stroke:#1f77b4;" x="216.303653" xlink:href="#m519c41688e" y="54.953338"/>
     <use style="fill:#1f77b4;stroke:#1f77b4;" x="216.853522" xlink:href="#m519c41688e" y="54.431543"/>
     <use style="fill:#1f77b4;stroke:#1f77b4;" x="218.863988" xlink:href="#m519c41688e" y="52.646533"/>
     <use style="fill:#1f77b4;stroke:#1f77b4;" x="219.164202" xlink:href="#m519c41688e" y="52.396724"/>
     <use style="fill:#1f77b4;stroke:#1f77b4;" x="220.314158" xlink:href="#m519c41688e" y="51.480604"/>
     <use style="fill:#1f77b4;stroke:#1f77b4;" x="221.143846" xlink:href="#m519c41688e" y="50.860092"/>
     <use style="fill:#1f77b4;stroke:#1f77b4;" x="221.15794" xlink:href="#m519c41688e" y="50.849847"/>
     <use style="fill:#1f77b4;stroke:#1f77b4;" x="221.373306" xlink:href="#m519c41688e" y="50.694514"/>
     <use style="fill:#1f77b4;stroke:#1f77b4;" x="221.571349" xlink:href="#m519c41688e" y="50.553716"/>
     <use style="fill:#1f77b4;stroke:#1f77b4;" x="222.852063" xlink:href="#m519c41688e" y="49.690623"/>
     <use style="fill:#1f77b4;stroke:#1f77b4;" x="223.561214" xlink:href="#m519c41688e" y="49.248279"/>
     <use style="fill:#1f77b4;stroke:#1f77b4;" x="224.108624" xlink:href="#m519c41688e" y="48.924278"/>
     <use style="fill:#1f77b4;stroke:#1f77b4;" x="226.652519" xlink:href="#m519c41688e" y="47.619993"/>
     <use style="fill:#1f77b4;stroke:#1f77b4;" x="227.085051" xlink:href="#m519c41688e" y="47.431452"/>
     <use style="fill:#1f77b4;stroke:#1f77b4;" x="227.552674" xlink:href="#m519c41688e" y="47.238551"/>
     <use style="fill:#1f77b4;stroke:#1f77b4;" x="227.86249" xlink:href="#m519c41688e" y="47.117019"/>
     <use style="fill:#1f77b4;stroke:#1f77b4;" x="228.299216" xlink:href="#m519c41688e" y="46.954208"/>
     <use style="fill:#1f77b4;stroke:#1f77b4;" x="228.35988" xlink:href="#m519c41688e" y="46.93238"/>
     <use style="fill:#1f77b4;stroke:#1f77b4;" x="228.556164" xlink:href="#m519c41688e" y="46.863075"/>
     <use style="fill:#1f77b4;stroke:#1f77b4;" x="231.578912" xlink:href="#m519c41688e" y="46.051287"/>
     <use style="fill:#1f77b4;stroke:#1f77b4;" x="233.974894" xlink:href="#m519c41688e" y="45.75066"/>
     <use style="fill:#1f77b4;stroke:#1f77b4;" x="235.024883" xlink:href="#m519c41688e" y="45.714847"/>
     <use style="fill:#1f77b4;stroke:#1f77b4;" x="237.313427" xlink:href="#m519c41688e" y="45.839533"/>
     <use style="fill:#1f77b4;stroke:#1f77b4;" x="238.790216" xlink:href="#m519c41688e" y="46.06737"/>
     <use style="fill:#1f77b4;stroke:#1f77b4;" x="240.044809" xlink:href="#m519c41688e" y="46.351485"/>
     <use style="fill:#1f77b4;stroke:#1f77b4;" x="240.306764" xlink:href="#m519c41688e" y="46.421278"/>
     <use style="fill:#1f77b4;stroke:#1f77b4;" x="241.447023" xlink:href="#m519c41688e" y="46.767102"/>
     <use style="fill:#1f77b4;stroke:#1f77b4;" x="241.558621" xlink:href="#m519c41688e" y="46.804613"/>
     <use style="fill:#1f77b4;stroke:#1f77b4;" x="243.961749" xlink:href="#m519c41688e" y="47.770033"/>
     <use style="fill:#1f77b4;stroke:#1f77b4;" x="246.452526" xlink:href="#m519c41688e" y="49.085832"/>
     <use style="fill:#1f77b4;stroke:#1f77b4;" x="249.397728" xlink:href="#m519c41688e" y="51.048352"/>
     <use style="fill:#1f77b4;stroke:#1f77b4;" x="250.399374" xlink:href="#m519c41688e" y="51.814429"/>
     <use style="fill:#1f77b4;stroke:#1f77b4;" x="252.087506" xlink:href="#m519c41688e" y="53.21677"/>
     <use style="fill:#1f77b4;stroke:#1f77b4;" x="252.553523" xlink:href="#m519c41688e" y="53.628203"/>
     <use style="fill:#1f77b4;stroke:#1f77b4;" x="252.611468" xlink:href="#m519c41688e" y="53.680089"/>
     <use style="fill:#1f77b4;stroke:#1f77b4;" x="255.296051" xlink:href="#m519c41688e" y="56.258468"/>
     <use style="fill:#1f77b4;stroke:#1f77b4;" x="256.790005" xlink:href="#m519c41688e" y="57.838493"/>
     <use style="fill:#1f77b4;stroke:#1f77b4;" x="257.754009" xlink:href="#m519c41688e" y="58.911799"/>
     <use style="fill:#1f77b4;stroke:#1f77b4;" x="257.798928" xlink:href="#m519c41688e" y="58.962827"/>
     <use style="fill:#1f77b4;stroke:#1f77b4;" x="259.103966" xlink:href="#m519c41688e" y="60.484303"/>
     <use style="fill:#1f77b4;stroke:#1f77b4;" x="259.67959" xlink:href="#m519c41688e" y="61.179085"/>
     <use style="fill:#1f77b4;stroke:#1f77b4;" x="263.508776" xlink:href="#m519c41688e" y="66.157679"/>
     <use style="fill:#1f77b4;stroke:#1f77b4;" x="264.892" xlink:href="#m519c41688e" y="68.102937"/>
     <use style="fill:#1f77b4;stroke:#1f77b4;" x="266.077118" xlink:href="#m519c41688e" y="69.828816"/>
     <use style="fill:#1f77b4;stroke:#1f77b4;" x="266.270395" xlink:href="#m519c41688e" y="70.115359"/>
     <use style="fill:#1f77b4;stroke:#1f77b4;" x="267.753546" xlink:href="#m519c41688e" y="72.360496"/>
     <use style="fill:#1f77b4;stroke:#1f77b4;" x="268.997675" xlink:href="#m519c41688e" y="74.305454"/>
     <use style="fill:#1f77b4;stroke:#1f77b4;" x="272.875039" xlink:href="#m519c41688e" y="80.706926"/>
     <use style="fill:#1f77b4;stroke:#1f77b4;" x="273.621718" xlink:href="#m519c41688e" y="81.995479"/>
     <use style="fill:#1f77b4;stroke:#1f77b4;" x="274.036078" xlink:href="#m519c41688e" y="82.717917"/>
     <use style="fill:#1f77b4;stroke:#1f77b4;" x="274.98785" xlink:href="#m519c41688e" y="84.396785"/>
     <use style="fill:#1f77b4;stroke:#1f77b4;" x="275.936043" xlink:href="#m519c41688e" y="86.095577"/>
     <use style="fill:#1f77b4;stroke:#1f77b4;" x="277.453909" xlink:href="#m519c41688e" y="88.867307"/>
     <use style="fill:#1f77b4;stroke:#1f77b4;" x="281.450738" xlink:href="#m519c41688e" y="96.448792"/>
     <use style="fill:#1f77b4;stroke:#1f77b4;" x="282.303833" xlink:href="#m519c41688e" y="98.11545"/>
     <use style="fill:#1f77b4;stroke:#1f77b4;" x="283.613663" xlink:href="#m519c41688e" y="100.704462"/>
     <use style="fill:#1f77b4;stroke:#1f77b4;" x="284.220082" xlink:href="#m519c41688e" y="101.914855"/>
     <use style="fill:#1f77b4;stroke:#1f77b4;" x="284.628536" xlink:href="#m519c41688e" y="102.734133"/>
     <use style="fill:#1f77b4;stroke:#1f77b4;" x="285.221533" xlink:href="#m519c41688e" y="103.929147"/>
     <use style="fill:#1f77b4;stroke:#1f77b4;" x="287.104319" xlink:href="#m519c41688e" y="107.764736"/>
     <use style="fill:#1f77b4;stroke:#1f77b4;" x="289.826765" xlink:href="#m519c41688e" y="113.410406"/>
     <use style="fill:#1f77b4;stroke:#1f77b4;" x="291.03699" xlink:href="#m519c41688e" y="115.95292"/>
     <use style="fill:#1f77b4;stroke:#1f77b4;" x="291.11663" xlink:href="#m519c41688e" y="116.120867"/>
     <use style="fill:#1f77b4;stroke:#1f77b4;" x="291.343262" xlink:href="#m519c41688e" y="116.599203"/>
     <use style="fill:#1f77b4;stroke:#1f77b4;" x="291.544678" xlink:href="#m519c41688e" y="117.024821"/>
     <use style="fill:#1f77b4;stroke:#1f77b4;" x="292.776087" xlink:href="#m519c41688e" y="119.63668"/>
     <use style="fill:#1f77b4;stroke:#1f77b4;" x="292.896978" xlink:href="#m519c41688e" y="119.893952"/>
     <use style="fill:#1f77b4;stroke:#1f77b4;" x="293.686309" xlink:href="#m519c41688e" y="121.577246"/>
     <use style="fill:#1f77b4;stroke:#1f77b4;" x="296.413031" xlink:href="#m519c41688e" y="127.432708"/>
     <use style="fill:#1f77b4;stroke:#1f77b4;" x="297.375358" xlink:href="#m519c41688e" y="129.511513"/>
     <use style="fill:#1f77b4;stroke:#1f77b4;" x="297.753685" xlink:href="#m519c41688e" y="130.330168"/>
     <use style="fill:#1f77b4;stroke:#1f77b4;" x="299.33798" xlink:href="#m519c41688e" y="133.765435"/>
     <use style="fill:#1f77b4;stroke:#1f77b4;" x="299.418601" xlink:href="#m519c41688e" y="133.940505"/>
     <use style="fill:#1f77b4;stroke:#1f77b4;" x="299.769232" xlink:href="#m519c41688e" y="134.702148"/>
     <use style="fill:#1f77b4;stroke:#1f77b4;" x="300.701239" xlink:href="#m519c41688e" y="136.728286"/>
     <use style="fill:#1f77b4;stroke:#1f77b4;" x="302.41993" xlink:href="#m519c41688e" y="140.468595"/>
     <use style="fill:#1f77b4;stroke:#1f77b4;" x="304.841764" xlink:href="#m519c41688e" y="145.739667"/>
     <use style="fill:#1f77b4;stroke:#1f77b4;" x="305.117472" xlink:href="#m519c41688e" y="146.339262"/>
     <use style="fill:#1f77b4;stroke:#1f77b4;" x="305.146675" xlink:href="#m519c41688e" y="146.402761"/>
     <use style="fill:#1f77b4;stroke:#1f77b4;" x="305.318592" xlink:href="#m519c41688e" y="146.776544"/>
     <use style="fill:#1f77b4;stroke:#1f77b4;" x="306.76207" xlink:href="#m519c41688e" y="149.911718"/>
     <use style="fill:#1f77b4;stroke:#1f77b4;" x="310.661899" xlink:href="#m519c41688e" y="158.33612"/>
     <use style="fill:#1f77b4;stroke:#1f77b4;" x="311.777932" xlink:href="#m519c41688e" y="160.729472"/>
     <use style="fill:#1f77b4;stroke:#1f77b4;" x="311.924046" xlink:href="#m519c41688e" y="161.042107"/>
     <use style="fill:#1f77b4;stroke:#1f77b4;" x="313.263488" xlink:href="#m519c41688e" y="163.899737"/>
     <use style="fill:#1f77b4;stroke:#1f77b4;" x="314.106277" xlink:href="#m519c41688e" y="165.689522"/>
     <use style="fill:#1f77b4;stroke:#1f77b4;" x="317.735882" xlink:href="#m519c41688e" y="173.312711"/>
     <use style="fill:#1f77b4;stroke:#1f77b4;" x="318.058324" xlink:href="#m519c41688e" y="173.982535"/>
     <use style="fill:#1f77b4;stroke:#1f77b4;" x="319.70606" xlink:href="#m519c41688e" y="177.384514"/>
     <use style="fill:#1f77b4;stroke:#1f77b4;" x="323.534341" xlink:href="#m519c41688e" y="185.140275"/>
     <use style="fill:#1f77b4;stroke:#1f77b4;" x="323.580837" xlink:href="#m519c41688e" y="185.233097"/>
     <use style="fill:#1f77b4;stroke:#1f77b4;" x="330.798368" xlink:href="#m519c41688e" y="199.188435"/>
     <use style="fill:#1f77b4;stroke:#1f77b4;" x="332.385922" xlink:href="#m519c41688e" y="202.127355"/>
     <use style="fill:#1f77b4;stroke:#1f77b4;" x="333.998574" xlink:href="#m519c41688e" y="205.060724"/>
     <use style="fill:#1f77b4;stroke:#1f77b4;" x="335.711506" xlink:href="#m519c41688e" y="208.117423"/>
     <use style="fill:#1f77b4;stroke:#1f77b4;" x="337.864429" xlink:href="#m519c41688e" y="211.870539"/>
     <use style="fill:#1f77b4;stroke:#1f77b4;" x="340.812611" xlink:href="#m519c41688e" y="216.844939"/>
     <use style="fill:#1f77b4;stroke:#1f77b4;" x="341.83426" xlink:href="#m519c41688e" y="218.523248"/>
     <use style="fill:#1f77b4;stroke:#1f77b4;" x="344.542106" xlink:href="#m519c41688e" y="222.856097"/>
     <use style="fill:#1f77b4;stroke:#1f77b4;" x="349.100178" xlink:href="#m519c41688e" y="229.764467"/>
     <use style="fill:#1f77b4;stroke:#1f77b4;" x="349.68118" xlink:href="#m519c41688e" y="230.60995"/>
     <use style="fill:#1f77b4;stroke:#1f77b4;" x="356.615168" xlink:href="#m519c41688e" y="240.083847"/>
     <use style="fill:#1f77b4;stroke:#1f77b4;" x="363.5411" xlink:href="#m519c41688e" y="248.419222"/>
     <use style="fill:#1f77b4;stroke:#1f77b4;" x="365.518229" xlink:href="#m519c41688e" y="250.596205"/>
     <use style="fill:#1f77b4;stroke:#1f77b4;" x="370.039222" xlink:href="#m519c41688e" y="255.246213"/>
     <use style="fill:#1f77b4;stroke:#1f77b4;" x="383.712252" xlink:href="#m519c41688e" y="266.709811"/>
     <use style="fill:#1f77b4;stroke:#1f77b4;" x="387.796568" xlink:href="#m519c41688e" y="269.443829"/>
     <use style="fill:#1f77b4;stroke:#1f77b4;" x="393.035585" xlink:href="#m519c41688e" y="272.538188"/>
     <use style="fill:#1f77b4;stroke:#1f77b4;" x="397.393523" xlink:href="#m519c41688e" y="274.78677"/>
    </g>
   </g>
   <g id="patch_13">
    <path d="M 56.50625 288.430125 
L 56.50625 22.318125 
" style="fill:none;stroke:#000000;stroke-linecap:square;stroke-linejoin:miter;stroke-width:0.8;"/>
   </g>
   <g id="patch_14">
    <path d="M 413.62625 288.430125 
L 413.62625 22.318125 
" style="fill:none;stroke:#000000;stroke-linecap:square;stroke-linejoin:miter;stroke-width:0.8;"/>
   </g>
   <g id="patch_15">
    <path d="M 56.50625 288.430125 
L 413.62625 288.430125 
" style="fill:none;stroke:#000000;stroke-linecap:square;stroke-linejoin:miter;stroke-width:0.8;"/>
   </g>
   <g id="patch_16">
    <path d="M 56.50625 22.318125 
L 413.62625 22.318125 
" style="fill:none;stroke:#000000;stroke-linecap:square;stroke-linejoin:miter;stroke-width:0.8;"/>
   </g>
   <g id="text_19">
    <!-- Distribution Between Pairs [d-dim] -->
    <defs>
     <path d="M 8.5 21.578125 
L 8.5 54.6875 
L 17.484375 54.6875 
L 17.484375 21.921875 
Q 17.484375 14.15625 20.5 10.265625 
Q 23.53125 6.390625 29.59375 6.390625 
Q 36.859375 6.390625 41.078125 11.03125 
Q 45.3125 15.671875 45.3125 23.6875 
L 45.3125 54.6875 
L 54.296875 54.6875 
L 54.296875 0 
L 45.3125 0 
L 45.3125 8.40625 
Q 42.046875 3.421875 37.71875 1 
Q 33.40625 -1.421875 27.6875 -1.421875 
Q 18.265625 -1.421875 13.375 4.4375 
Q 8.5 10.296875 8.5 21.578125 
z
M 31.109375 56 
z
" id="DejaVuSans-75"/>
     <path id="DejaVuSans-20"/>
     <path d="M 19.671875 34.8125 
L 19.671875 8.109375 
L 35.5 8.109375 
Q 43.453125 8.109375 47.28125 11.40625 
Q 51.125 14.703125 51.125 21.484375 
Q 51.125 28.328125 47.28125 31.5625 
Q 43.453125 34.8125 35.5 34.8125 
z
M 19.671875 64.796875 
L 19.671875 42.828125 
L 34.28125 42.828125 
Q 41.5 42.828125 45.03125 45.53125 
Q 48.578125 48.25 48.578125 53.8125 
Q 48.578125 59.328125 45.03125 62.0625 
Q 41.5 64.796875 34.28125 64.796875 
z
M 9.8125 72.90625 
L 35.015625 72.90625 
Q 46.296875 72.90625 52.390625 68.21875 
Q 58.5 63.53125 58.5 54.890625 
Q 58.5 48.1875 55.375 44.234375 
Q 52.25 40.28125 46.1875 39.3125 
Q 53.46875 37.75 57.5 32.78125 
Q 61.53125 27.828125 61.53125 20.40625 
Q 61.53125 10.640625 54.890625 5.3125 
Q 48.25 0 35.984375 0 
L 9.8125 0 
z
" id="DejaVuSans-42"/>
     <path d="M 4.203125 54.6875 
L 13.1875 54.6875 
L 24.421875 12.015625 
L 35.59375 54.6875 
L 46.1875 54.6875 
L 57.421875 12.015625 
L 68.609375 54.6875 
L 77.59375 54.6875 
L 63.28125 0 
L 52.6875 0 
L 40.921875 44.828125 
L 29.109375 0 
L 18.5 0 
z
" id="DejaVuSans-77"/>
     <path d="M 8.59375 75.984375 
L 29.296875 75.984375 
L 29.296875 69 
L 17.578125 69 
L 17.578125 -6.203125 
L 29.296875 -6.203125 
L 29.296875 -13.1875 
L 8.59375 -13.1875 
z
" id="DejaVuSans-5b"/>
     <path d="M 45.40625 46.390625 
L 45.40625 75.984375 
L 54.390625 75.984375 
L 54.390625 0 
L 45.40625 0 
L 45.40625 8.203125 
Q 42.578125 3.328125 38.25 0.953125 
Q 33.9375 -1.421875 27.875 -1.421875 
Q 17.96875 -1.421875 11.734375 6.484375 
Q 5.515625 14.40625 5.515625 27.296875 
Q 5.515625 40.1875 11.734375 48.09375 
Q 17.96875 56 27.875 56 
Q 33.9375 56 38.25 53.625 
Q 42.578125 51.265625 45.40625 46.390625 
z
M 14.796875 27.296875 
Q 14.796875 17.390625 18.875 11.75 
Q 22.953125 6.109375 30.078125 6.109375 
Q 37.203125 6.109375 41.296875 11.75 
Q 45.40625 17.390625 45.40625 27.296875 
Q 45.40625 37.203125 41.296875 42.84375 
Q 37.203125 48.484375 30.078125 48.484375 
Q 22.953125 48.484375 18.875 42.84375 
Q 14.796875 37.203125 14.796875 27.296875 
z
" id="DejaVuSans-64"/>
     <path d="M 4.890625 31.390625 
L 31.203125 31.390625 
L 31.203125 23.390625 
L 4.890625 23.390625 
z
" id="DejaVuSans-2d"/>
     <path d="M 52 44.1875 
Q 55.375 50.25 60.0625 53.125 
Q 64.75 56 71.09375 56 
Q 79.640625 56 84.28125 50.015625 
Q 88.921875 44.046875 88.921875 33.015625 
L 88.921875 0 
L 79.890625 0 
L 79.890625 32.71875 
Q 79.890625 40.578125 77.09375 44.375 
Q 74.3125 48.1875 68.609375 48.1875 
Q 61.625 48.1875 57.5625 43.546875 
Q 53.515625 38.921875 53.515625 30.90625 
L 53.515625 0 
L 44.484375 0 
L 44.484375 32.71875 
Q 44.484375 40.625 41.703125 44.40625 
Q 38.921875 48.1875 33.109375 48.1875 
Q 26.21875 48.1875 22.15625 43.53125 
Q 18.109375 38.875 18.109375 30.90625 
L 18.109375 0 
L 9.078125 0 
L 9.078125 54.6875 
L 18.109375 54.6875 
L 18.109375 46.1875 
Q 21.1875 51.21875 25.484375 53.609375 
Q 29.78125 56 35.6875 56 
Q 41.65625 56 45.828125 52.96875 
Q 50 49.953125 52 44.1875 
z
" id="DejaVuSans-6d"/>
     <path d="M 30.421875 75.984375 
L 30.421875 -13.1875 
L 9.71875 -13.1875 
L 9.71875 -6.203125 
L 21.390625 -6.203125 
L 21.390625 69 
L 9.71875 69 
L 9.71875 75.984375 
z
" id="DejaVuSans-5d"/>
    </defs>
    <g transform="translate(131.563438 16.318125)scale(0.12 -0.12)">
     <use xlink:href="#DejaVuSans-44"/>
     <use x="77.001953" xlink:href="#DejaVuSans-69"/>
     <use x="104.785156" xlink:href="#DejaVuSans-73"/>
     <use x="156.884766" xlink:href="#DejaVuSans-74"/>
     <use x="196.09375" xlink:href="#DejaVuSans-72"/>
     <use x="237.207031" xlink:href="#DejaVuSans-69"/>
     <use x="264.990234" xlink:href="#DejaVuSans-62"/>
     <use x="328.466797" xlink:href="#DejaVuSans-75"/>
     <use x="391.845703" xlink:href="#DejaVuSans-74"/>
     <use x="431.054688" xlink:href="#DejaVuSans-69"/>
     <use x="458.837891" xlink:href="#DejaVuSans-6f"/>
     <use x="520.019531" xlink:href="#DejaVuSans-6e"/>
     <use x="583.398438" xlink:href="#DejaVuSans-20"/>
     <use x="615.185547" xlink:href="#DejaVuSans-42"/>
     <use x="683.789062" xlink:href="#DejaVuSans-65"/>
     <use x="745.3125" xlink:href="#DejaVuSans-74"/>
     <use x="784.521484" xlink:href="#DejaVuSans-77"/>
     <use x="866.308594" xlink:href="#DejaVuSans-65"/>
     <use x="927.832031" xlink:href="#DejaVuSans-65"/>
     <use x="989.355469" xlink:href="#DejaVuSans-6e"/>
     <use x="1052.734375" xlink:href="#DejaVuSans-20"/>
     <use x="1084.521484" xlink:href="#DejaVuSans-50"/>
     <use x="1144.761719" xlink:href="#DejaVuSans-61"/>
     <use x="1206.041016" xlink:href="#DejaVuSans-69"/>
     <use x="1233.824219" xlink:href="#DejaVuSans-72"/>
     <use x="1274.9375" xlink:href="#DejaVuSans-73"/>
     <use x="1327.037109" xlink:href="#DejaVuSans-20"/>
     <use x="1358.824219" xlink:href="#DejaVuSans-5b"/>
     <use x="1397.837891" xlink:href="#DejaVuSans-64"/>
     <use x="1461.314453" xlink:href="#DejaVuSans-2d"/>
     <use x="1497.398438" xlink:href="#DejaVuSans-64"/>
     <use x="1560.875" xlink:href="#DejaVuSans-69"/>
     <use x="1588.658203" xlink:href="#DejaVuSans-6d"/>
     <use x="1686.070312" xlink:href="#DejaVuSans-5d"/>
    </g>
   </g>
  </g>
  <g id="text_20">
   <g id="patch_17">
    <path d="M 165.809375 369.50175 
L 292.803125 369.50175 
Q 298.803125 369.50175 298.803125 363.50175 
L 298.803125 338.450625 
Q 298.803125 332.450625 292.803125 332.450625 
L 165.809375 332.450625 
Q 159.809375 332.450625 159.809375 338.450625 
L 159.809375 363.50175 
Q 159.809375 369.50175 165.809375 369.50175 
z
" style="fill:#ffffff;stroke:#808080;stroke-linejoin:miter;"/>
   </g>
   <!-- Dimension: 900 -->
   <defs>
    <path d="M 11.71875 12.40625 
L 22.015625 12.40625 
L 22.015625 0 
L 11.71875 0 
z
M 11.71875 51.703125 
L 22.015625 51.703125 
L 22.015625 39.3125 
L 11.71875 39.3125 
z
" id="DejaVuSans-3a"/>
    <path d="M 10.984375 1.515625 
L 10.984375 10.5 
Q 14.703125 8.734375 18.5 7.8125 
Q 22.3125 6.890625 25.984375 6.890625 
Q 35.75 6.890625 40.890625 13.453125 
Q 46.046875 20.015625 46.78125 33.40625 
Q 43.953125 29.203125 39.59375 26.953125 
Q 35.25 24.703125 29.984375 24.703125 
Q 19.046875 24.703125 12.671875 31.3125 
Q 6.296875 37.9375 6.296875 49.421875 
Q 6.296875 60.640625 12.9375 67.421875 
Q 19.578125 74.21875 30.609375 74.21875 
Q 43.265625 74.21875 49.921875 64.515625 
Q 56.59375 54.828125 56.59375 36.375 
Q 56.59375 19.140625 48.40625 8.859375 
Q 40.234375 -1.421875 26.421875 -1.421875 
Q 22.703125 -1.421875 18.890625 -0.6875 
Q 15.09375 0.046875 10.984375 1.515625 
z
M 30.609375 32.421875 
Q 37.25 32.421875 41.125 36.953125 
Q 45.015625 41.5 45.015625 49.421875 
Q 45.015625 57.28125 41.125 61.84375 
Q 37.25 66.40625 30.609375 66.40625 
Q 23.96875 66.40625 20.09375 61.84375 
Q 16.21875 57.28125 16.21875 49.421875 
Q 16.21875 41.5 20.09375 36.953125 
Q 23.96875 32.421875 30.609375 32.421875 
z
" id="DejaVuSans-39"/>
   </defs>
   <g transform="translate(165.809375 347.56875)scale(0.12 -0.12)">
    <use xlink:href="#DejaVuSans-44"/>
    <use x="77.001953" xlink:href="#DejaVuSans-69"/>
    <use x="104.785156" xlink:href="#DejaVuSans-6d"/>
    <use x="202.197266" xlink:href="#DejaVuSans-65"/>
    <use x="263.720703" xlink:href="#DejaVuSans-6e"/>
    <use x="327.099609" xlink:href="#DejaVuSans-73"/>
    <use x="379.199219" xlink:href="#DejaVuSans-69"/>
    <use x="406.982422" xlink:href="#DejaVuSans-6f"/>
    <use x="468.164062" xlink:href="#DejaVuSans-6e"/>
    <use x="531.542969" xlink:href="#DejaVuSans-3a"/>
    <use x="565.234375" xlink:href="#DejaVuSans-20"/>
    <use x="597.021484" xlink:href="#DejaVuSans-39"/>
    <use x="660.644531" xlink:href="#DejaVuSans-30"/>
    <use x="724.267578" xlink:href="#DejaVuSans-30"/>
   </g>
   <!-- Number of Points: 20 -->
   <defs>
    <path d="M 9.8125 72.90625 
L 23.09375 72.90625 
L 55.421875 11.921875 
L 55.421875 72.90625 
L 64.984375 72.90625 
L 64.984375 0 
L 51.703125 0 
L 19.390625 60.984375 
L 19.390625 0 
L 9.8125 0 
z
" id="DejaVuSans-4e"/>
    <path d="M 37.109375 75.984375 
L 37.109375 68.5 
L 28.515625 68.5 
Q 23.6875 68.5 21.796875 66.546875 
Q 19.921875 64.59375 19.921875 59.515625 
L 19.921875 54.6875 
L 34.71875 54.6875 
L 34.71875 47.703125 
L 19.921875 47.703125 
L 19.921875 0 
L 10.890625 0 
L 10.890625 47.703125 
L 2.296875 47.703125 
L 2.296875 54.6875 
L 10.890625 54.6875 
L 10.890625 58.5 
Q 10.890625 67.625 15.140625 71.796875 
Q 19.390625 75.984375 28.609375 75.984375 
z
" id="DejaVuSans-66"/>
   </defs>
   <g transform="translate(165.809375 361.006125)scale(0.12 -0.12)">
    <use xlink:href="#DejaVuSans-4e"/>
    <use x="74.804688" xlink:href="#DejaVuSans-75"/>
    <use x="138.183594" xlink:href="#DejaVuSans-6d"/>
    <use x="235.595703" xlink:href="#DejaVuSans-62"/>
    <use x="299.072266" xlink:href="#DejaVuSans-65"/>
    <use x="360.595703" xlink:href="#DejaVuSans-72"/>
    <use x="401.708984" xlink:href="#DejaVuSans-20"/>
    <use x="433.496094" xlink:href="#DejaVuSans-6f"/>
    <use x="494.677734" xlink:href="#DejaVuSans-66"/>
    <use x="529.882812" xlink:href="#DejaVuSans-20"/>
    <use x="561.669922" xlink:href="#DejaVuSans-50"/>
    <use x="621.925781" xlink:href="#DejaVuSans-6f"/>
    <use x="683.107422" xlink:href="#DejaVuSans-69"/>
    <use x="710.890625" xlink:href="#DejaVuSans-6e"/>
    <use x="774.269531" xlink:href="#DejaVuSans-74"/>
    <use x="813.478516" xlink:href="#DejaVuSans-73"/>
    <use x="865.578125" xlink:href="#DejaVuSans-3a"/>
    <use x="899.269531" xlink:href="#DejaVuSans-20"/>
    <use x="931.056641" xlink:href="#DejaVuSans-32"/>
    <use x="994.679688" xlink:href="#DejaVuSans-30"/>
   </g>
  </g>
 </g>
 <defs>
  <clipPath id="p278e4f2a1d">
   <rect height="266.112" width="357.12" x="56.50625" y="22.318125"/>
  </clipPath>
 </defs>
</svg>
