<?xml version="1.0" encoding="utf-8" standalone="no"?>
<!DOCTYPE svg PUBLIC "-//W3C//DTD SVG 1.1//EN"
  "http://www.w3.org/Graphics/SVG/1.1/DTD/svg11.dtd">
<!-- Created with matplotlib (http://matplotlib.org/) -->
<svg height="387pt" version="1.1" viewBox="0 0 430 387" width="430pt" xmlns="http://www.w3.org/2000/svg" xmlns:xlink="http://www.w3.org/1999/xlink">
 <defs>
  <style type="text/css">
*{stroke-linecap:butt;stroke-linejoin:round;}
  </style>
 </defs>
 <g id="figure_1">
  <g id="patch_1">
   <path d="M 0 387.98175 
L 430.68875 387.98175 
L 430.68875 0 
L 0 0 
z
" style="fill:#ffffff;"/>
  </g>
  <g id="axes_1">
   <g id="patch_2">
    <path d="M 62.86875 288.430125 
L 419.98875 288.430125 
L 419.98875 22.318125 
L 62.86875 22.318125 
z
" style="fill:#ffffff;"/>
   </g>
   <g id="patch_3">
    <path clip-path="url(#pa7e727aaaa)" d="M 79.101477 288.430125 
L 111.566932 288.430125 
L 111.566932 264.508707 
L 79.101477 264.508707 
z
" style="fill:#ff7f0e;"/>
   </g>
   <g id="patch_4">
    <path clip-path="url(#pa7e727aaaa)" d="M 111.566932 288.430125 
L 144.032386 288.430125 
L 144.032386 216.66587 
L 111.566932 216.66587 
z
" style="fill:#ff7f0e;"/>
   </g>
   <g id="patch_5">
    <path clip-path="url(#pa7e727aaaa)" d="M 144.032386 288.430125 
L 176.497841 288.430125 
L 176.497841 114.999841 
L 144.032386 114.999841 
z
" style="fill:#ff7f0e;"/>
   </g>
   <g id="patch_6">
    <path clip-path="url(#pa7e727aaaa)" d="M 176.497841 288.430125 
L 208.963295 288.430125 
L 208.963295 97.058778 
L 176.497841 97.058778 
z
" style="fill:#ff7f0e;"/>
   </g>
   <g id="patch_7">
    <path clip-path="url(#pa7e727aaaa)" d="M 208.963295 288.430125 
L 241.42875 288.430125 
L 241.42875 55.196295 
L 208.963295 55.196295 
z
" style="fill:#ff7f0e;"/>
   </g>
   <g id="patch_8">
    <path clip-path="url(#pa7e727aaaa)" d="M 241.42875 288.430125 
L 273.894205 288.430125 
L 273.894205 97.058778 
L 241.42875 97.058778 
z
" style="fill:#ff7f0e;"/>
   </g>
   <g id="patch_9">
    <path clip-path="url(#pa7e727aaaa)" d="M 273.894205 288.430125 
L 306.359659 288.430125 
L 306.359659 126.960551 
L 273.894205 126.960551 
z
" style="fill:#ff7f0e;"/>
   </g>
   <g id="patch_10">
    <path clip-path="url(#pa7e727aaaa)" d="M 306.359659 288.430125 
L 338.825114 288.430125 
L 338.825114 210.685515 
L 306.359659 210.685515 
z
" style="fill:#ff7f0e;"/>
   </g>
   <g id="patch_11">
    <path clip-path="url(#pa7e727aaaa)" d="M 338.825114 288.430125 
L 371.290568 288.430125 
L 371.290568 282.44977 
L 338.825114 282.44977 
z
" style="fill:#ff7f0e;"/>
   </g>
   <g id="patch_12">
    <path clip-path="url(#pa7e727aaaa)" d="M 371.290568 288.430125 
L 403.756023 288.430125 
L 403.756023 282.44977 
L 371.290568 282.44977 
z
" style="fill:#ff7f0e;"/>
   </g>
   <g id="matplotlib.axis_1">
    <g id="xtick_1">
     <g id="line2d_1">
      <defs>
       <path d="M 0 0 
L 0 3.5 
" id="m537ade041b" style="stroke:#000000;stroke-width:0.8;"/>
      </defs>
      <g>
       <use style="stroke:#000000;stroke-width:0.8;" x="99.634436" xlink:href="#m537ade041b" y="288.430125"/>
      </g>
     </g>
     <g id="text_1">
      <!-- 12000 -->
      <defs>
       <path d="M 12.40625 8.296875 
L 28.515625 8.296875 
L 28.515625 63.921875 
L 10.984375 60.40625 
L 10.984375 69.390625 
L 28.421875 72.90625 
L 38.28125 72.90625 
L 38.28125 8.296875 
L 54.390625 8.296875 
L 54.390625 0 
L 12.40625 0 
z
" id="DejaVuSans-31"/>
       <path d="M 19.1875 8.296875 
L 53.609375 8.296875 
L 53.609375 0 
L 7.328125 0 
L 7.328125 8.296875 
Q 12.9375 14.109375 22.625 23.890625 
Q 32.328125 33.6875 34.8125 36.53125 
Q 39.546875 41.84375 41.421875 45.53125 
Q 43.3125 49.21875 43.3125 52.78125 
Q 43.3125 58.59375 39.234375 62.25 
Q 35.15625 65.921875 28.609375 65.921875 
Q 23.96875 65.921875 18.8125 64.3125 
Q 13.671875 62.703125 7.8125 59.421875 
L 7.8125 69.390625 
Q 13.765625 71.78125 18.9375 73 
Q 24.125 74.21875 28.421875 74.21875 
Q 39.75 74.21875 46.484375 68.546875 
Q 53.21875 62.890625 53.21875 53.421875 
Q 53.21875 48.921875 51.53125 44.890625 
Q 49.859375 40.875 45.40625 35.40625 
Q 44.1875 33.984375 37.640625 27.21875 
Q 31.109375 20.453125 19.1875 8.296875 
z
" id="DejaVuSans-32"/>
       <path d="M 31.78125 66.40625 
Q 24.171875 66.40625 20.328125 58.90625 
Q 16.5 51.421875 16.5 36.375 
Q 16.5 21.390625 20.328125 13.890625 
Q 24.171875 6.390625 31.78125 6.390625 
Q 39.453125 6.390625 43.28125 13.890625 
Q 47.125 21.390625 47.125 36.375 
Q 47.125 51.421875 43.28125 58.90625 
Q 39.453125 66.40625 31.78125 66.40625 
z
M 31.78125 74.21875 
Q 44.046875 74.21875 50.515625 64.515625 
Q 56.984375 54.828125 56.984375 36.375 
Q 56.984375 17.96875 50.515625 8.265625 
Q 44.046875 -1.421875 31.78125 -1.421875 
Q 19.53125 -1.421875 13.0625 8.265625 
Q 6.59375 17.96875 6.59375 36.375 
Q 6.59375 54.828125 13.0625 64.515625 
Q 19.53125 74.21875 31.78125 74.21875 
z
" id="DejaVuSans-30"/>
      </defs>
      <g transform="translate(83.728186 303.028562)scale(0.1 -0.1)">
       <use xlink:href="#DejaVuSans-31"/>
       <use x="63.623047" xlink:href="#DejaVuSans-32"/>
       <use x="127.246094" xlink:href="#DejaVuSans-30"/>
       <use x="190.869141" xlink:href="#DejaVuSans-30"/>
       <use x="254.492188" xlink:href="#DejaVuSans-30"/>
      </g>
     </g>
    </g>
    <g id="xtick_2">
     <g id="line2d_2">
      <g>
       <use style="stroke:#000000;stroke-width:0.8;" x="146.862289" xlink:href="#m537ade041b" y="288.430125"/>
      </g>
     </g>
     <g id="text_2">
      <!-- 12250 -->
      <defs>
       <path d="M 10.796875 72.90625 
L 49.515625 72.90625 
L 49.515625 64.59375 
L 19.828125 64.59375 
L 19.828125 46.734375 
Q 21.96875 47.46875 24.109375 47.828125 
Q 26.265625 48.1875 28.421875 48.1875 
Q 40.625 48.1875 47.75 41.5 
Q 54.890625 34.8125 54.890625 23.390625 
Q 54.890625 11.625 47.5625 5.09375 
Q 40.234375 -1.421875 26.90625 -1.421875 
Q 22.3125 -1.421875 17.546875 -0.640625 
Q 12.796875 0.140625 7.71875 1.703125 
L 7.71875 11.625 
Q 12.109375 9.234375 16.796875 8.0625 
Q 21.484375 6.890625 26.703125 6.890625 
Q 35.15625 6.890625 40.078125 11.328125 
Q 45.015625 15.765625 45.015625 23.390625 
Q 45.015625 31 40.078125 35.4375 
Q 35.15625 39.890625 26.703125 39.890625 
Q 22.75 39.890625 18.8125 39.015625 
Q 14.890625 38.140625 10.796875 36.28125 
z
" id="DejaVuSans-35"/>
      </defs>
      <g transform="translate(130.956039 303.028562)scale(0.1 -0.1)">
       <use xlink:href="#DejaVuSans-31"/>
       <use x="63.623047" xlink:href="#DejaVuSans-32"/>
       <use x="127.246094" xlink:href="#DejaVuSans-32"/>
       <use x="190.869141" xlink:href="#DejaVuSans-35"/>
       <use x="254.492188" xlink:href="#DejaVuSans-30"/>
      </g>
     </g>
    </g>
    <g id="xtick_3">
     <g id="line2d_3">
      <g>
       <use style="stroke:#000000;stroke-width:0.8;" x="194.090143" xlink:href="#m537ade041b" y="288.430125"/>
      </g>
     </g>
     <g id="text_3">
      <!-- 12500 -->
      <g transform="translate(178.183893 303.028562)scale(0.1 -0.1)">
       <use xlink:href="#DejaVuSans-31"/>
       <use x="63.623047" xlink:href="#DejaVuSans-32"/>
       <use x="127.246094" xlink:href="#DejaVuSans-35"/>
       <use x="190.869141" xlink:href="#DejaVuSans-30"/>
       <use x="254.492188" xlink:href="#DejaVuSans-30"/>
      </g>
     </g>
    </g>
    <g id="xtick_4">
     <g id="line2d_4">
      <g>
       <use style="stroke:#000000;stroke-width:0.8;" x="241.317996" xlink:href="#m537ade041b" y="288.430125"/>
      </g>
     </g>
     <g id="text_4">
      <!-- 12750 -->
      <defs>
       <path d="M 8.203125 72.90625 
L 55.078125 72.90625 
L 55.078125 68.703125 
L 28.609375 0 
L 18.3125 0 
L 43.21875 64.59375 
L 8.203125 64.59375 
z
" id="DejaVuSans-37"/>
      </defs>
      <g transform="translate(225.411746 303.028562)scale(0.1 -0.1)">
       <use xlink:href="#DejaVuSans-31"/>
       <use x="63.623047" xlink:href="#DejaVuSans-32"/>
       <use x="127.246094" xlink:href="#DejaVuSans-37"/>
       <use x="190.869141" xlink:href="#DejaVuSans-35"/>
       <use x="254.492188" xlink:href="#DejaVuSans-30"/>
      </g>
     </g>
    </g>
    <g id="xtick_5">
     <g id="line2d_5">
      <g>
       <use style="stroke:#000000;stroke-width:0.8;" x="288.545849" xlink:href="#m537ade041b" y="288.430125"/>
      </g>
     </g>
     <g id="text_5">
      <!-- 13000 -->
      <defs>
       <path d="M 40.578125 39.3125 
Q 47.65625 37.796875 51.625 33 
Q 55.609375 28.21875 55.609375 21.1875 
Q 55.609375 10.40625 48.1875 4.484375 
Q 40.765625 -1.421875 27.09375 -1.421875 
Q 22.515625 -1.421875 17.65625 -0.515625 
Q 12.796875 0.390625 7.625 2.203125 
L 7.625 11.71875 
Q 11.71875 9.328125 16.59375 8.109375 
Q 21.484375 6.890625 26.8125 6.890625 
Q 36.078125 6.890625 40.9375 10.546875 
Q 45.796875 14.203125 45.796875 21.1875 
Q 45.796875 27.640625 41.28125 31.265625 
Q 36.765625 34.90625 28.71875 34.90625 
L 20.21875 34.90625 
L 20.21875 43.015625 
L 29.109375 43.015625 
Q 36.375 43.015625 40.234375 45.921875 
Q 44.09375 48.828125 44.09375 54.296875 
Q 44.09375 59.90625 40.109375 62.90625 
Q 36.140625 65.921875 28.71875 65.921875 
Q 24.65625 65.921875 20.015625 65.03125 
Q 15.375 64.15625 9.8125 62.3125 
L 9.8125 71.09375 
Q 15.4375 72.65625 20.34375 73.4375 
Q 25.25 74.21875 29.59375 74.21875 
Q 40.828125 74.21875 47.359375 69.109375 
Q 53.90625 64.015625 53.90625 55.328125 
Q 53.90625 49.265625 50.4375 45.09375 
Q 46.96875 40.921875 40.578125 39.3125 
z
" id="DejaVuSans-33"/>
      </defs>
      <g transform="translate(272.639599 303.028562)scale(0.1 -0.1)">
       <use xlink:href="#DejaVuSans-31"/>
       <use x="63.623047" xlink:href="#DejaVuSans-33"/>
       <use x="127.246094" xlink:href="#DejaVuSans-30"/>
       <use x="190.869141" xlink:href="#DejaVuSans-30"/>
       <use x="254.492188" xlink:href="#DejaVuSans-30"/>
      </g>
     </g>
    </g>
    <g id="xtick_6">
     <g id="line2d_6">
      <g>
       <use style="stroke:#000000;stroke-width:0.8;" x="335.773702" xlink:href="#m537ade041b" y="288.430125"/>
      </g>
     </g>
     <g id="text_6">
      <!-- 13250 -->
      <g transform="translate(319.867452 303.028562)scale(0.1 -0.1)">
       <use xlink:href="#DejaVuSans-31"/>
       <use x="63.623047" xlink:href="#DejaVuSans-33"/>
       <use x="127.246094" xlink:href="#DejaVuSans-32"/>
       <use x="190.869141" xlink:href="#DejaVuSans-35"/>
       <use x="254.492188" xlink:href="#DejaVuSans-30"/>
      </g>
     </g>
    </g>
    <g id="xtick_7">
     <g id="line2d_7">
      <g>
       <use style="stroke:#000000;stroke-width:0.8;" x="383.001556" xlink:href="#m537ade041b" y="288.430125"/>
      </g>
     </g>
     <g id="text_7">
      <!-- 13500 -->
      <g transform="translate(367.095306 303.028562)scale(0.1 -0.1)">
       <use xlink:href="#DejaVuSans-31"/>
       <use x="63.623047" xlink:href="#DejaVuSans-33"/>
       <use x="127.246094" xlink:href="#DejaVuSans-35"/>
       <use x="190.869141" xlink:href="#DejaVuSans-30"/>
       <use x="254.492188" xlink:href="#DejaVuSans-30"/>
      </g>
     </g>
    </g>
    <g id="text_8">
     <!-- Distance -->
     <defs>
      <path d="M 19.671875 64.796875 
L 19.671875 8.109375 
L 31.59375 8.109375 
Q 46.6875 8.109375 53.6875 14.9375 
Q 60.6875 21.78125 60.6875 36.53125 
Q 60.6875 51.171875 53.6875 57.984375 
Q 46.6875 64.796875 31.59375 64.796875 
z
M 9.8125 72.90625 
L 30.078125 72.90625 
Q 51.265625 72.90625 61.171875 64.09375 
Q 71.09375 55.28125 71.09375 36.53125 
Q 71.09375 17.671875 61.125 8.828125 
Q 51.171875 0 30.078125 0 
L 9.8125 0 
z
" id="DejaVuSans-44"/>
      <path d="M 9.421875 54.6875 
L 18.40625 54.6875 
L 18.40625 0 
L 9.421875 0 
z
M 9.421875 75.984375 
L 18.40625 75.984375 
L 18.40625 64.59375 
L 9.421875 64.59375 
z
" id="DejaVuSans-69"/>
      <path d="M 44.28125 53.078125 
L 44.28125 44.578125 
Q 40.484375 46.53125 36.375 47.5 
Q 32.28125 48.484375 27.875 48.484375 
Q 21.1875 48.484375 17.84375 46.4375 
Q 14.5 44.390625 14.5 40.28125 
Q 14.5 37.15625 16.890625 35.375 
Q 19.28125 33.59375 26.515625 31.984375 
L 29.59375 31.296875 
Q 39.15625 29.25 43.1875 25.515625 
Q 47.21875 21.78125 47.21875 15.09375 
Q 47.21875 7.46875 41.1875 3.015625 
Q 35.15625 -1.421875 24.609375 -1.421875 
Q 20.21875 -1.421875 15.453125 -0.5625 
Q 10.6875 0.296875 5.421875 2 
L 5.421875 11.28125 
Q 10.40625 8.6875 15.234375 7.390625 
Q 20.0625 6.109375 24.8125 6.109375 
Q 31.15625 6.109375 34.5625 8.28125 
Q 37.984375 10.453125 37.984375 14.40625 
Q 37.984375 18.0625 35.515625 20.015625 
Q 33.0625 21.96875 24.703125 23.78125 
L 21.578125 24.515625 
Q 13.234375 26.265625 9.515625 29.90625 
Q 5.8125 33.546875 5.8125 39.890625 
Q 5.8125 47.609375 11.28125 51.796875 
Q 16.75 56 26.8125 56 
Q 31.78125 56 36.171875 55.265625 
Q 40.578125 54.546875 44.28125 53.078125 
z
" id="DejaVuSans-73"/>
      <path d="M 18.3125 70.21875 
L 18.3125 54.6875 
L 36.8125 54.6875 
L 36.8125 47.703125 
L 18.3125 47.703125 
L 18.3125 18.015625 
Q 18.3125 11.328125 20.140625 9.421875 
Q 21.96875 7.515625 27.59375 7.515625 
L 36.8125 7.515625 
L 36.8125 0 
L 27.59375 0 
Q 17.1875 0 13.234375 3.875 
Q 9.28125 7.765625 9.28125 18.015625 
L 9.28125 47.703125 
L 2.6875 47.703125 
L 2.6875 54.6875 
L 9.28125 54.6875 
L 9.28125 70.21875 
z
" id="DejaVuSans-74"/>
      <path d="M 34.28125 27.484375 
Q 23.390625 27.484375 19.1875 25 
Q 14.984375 22.515625 14.984375 16.5 
Q 14.984375 11.71875 18.140625 8.90625 
Q 21.296875 6.109375 26.703125 6.109375 
Q 34.1875 6.109375 38.703125 11.40625 
Q 43.21875 16.703125 43.21875 25.484375 
L 43.21875 27.484375 
z
M 52.203125 31.203125 
L 52.203125 0 
L 43.21875 0 
L 43.21875 8.296875 
Q 40.140625 3.328125 35.546875 0.953125 
Q 30.953125 -1.421875 24.3125 -1.421875 
Q 15.921875 -1.421875 10.953125 3.296875 
Q 6 8.015625 6 15.921875 
Q 6 25.140625 12.171875 29.828125 
Q 18.359375 34.515625 30.609375 34.515625 
L 43.21875 34.515625 
L 43.21875 35.40625 
Q 43.21875 41.609375 39.140625 45 
Q 35.0625 48.390625 27.6875 48.390625 
Q 23 48.390625 18.546875 47.265625 
Q 14.109375 46.140625 10.015625 43.890625 
L 10.015625 52.203125 
Q 14.9375 54.109375 19.578125 55.046875 
Q 24.21875 56 28.609375 56 
Q 40.484375 56 46.34375 49.84375 
Q 52.203125 43.703125 52.203125 31.203125 
z
" id="DejaVuSans-61"/>
      <path d="M 54.890625 33.015625 
L 54.890625 0 
L 45.90625 0 
L 45.90625 32.71875 
Q 45.90625 40.484375 42.875 44.328125 
Q 39.84375 48.1875 33.796875 48.1875 
Q 26.515625 48.1875 22.3125 43.546875 
Q 18.109375 38.921875 18.109375 30.90625 
L 18.109375 0 
L 9.078125 0 
L 9.078125 54.6875 
L 18.109375 54.6875 
L 18.109375 46.1875 
Q 21.34375 51.125 25.703125 53.5625 
Q 30.078125 56 35.796875 56 
Q 45.21875 56 50.046875 50.171875 
Q 54.890625 44.34375 54.890625 33.015625 
z
" id="DejaVuSans-6e"/>
      <path d="M 48.78125 52.59375 
L 48.78125 44.1875 
Q 44.96875 46.296875 41.140625 47.34375 
Q 37.3125 48.390625 33.40625 48.390625 
Q 24.65625 48.390625 19.8125 42.84375 
Q 14.984375 37.3125 14.984375 27.296875 
Q 14.984375 17.28125 19.8125 11.734375 
Q 24.65625 6.203125 33.40625 6.203125 
Q 37.3125 6.203125 41.140625 7.25 
Q 44.96875 8.296875 48.78125 10.40625 
L 48.78125 2.09375 
Q 45.015625 0.34375 40.984375 -0.53125 
Q 36.96875 -1.421875 32.421875 -1.421875 
Q 20.0625 -1.421875 12.78125 6.34375 
Q 5.515625 14.109375 5.515625 27.296875 
Q 5.515625 40.671875 12.859375 48.328125 
Q 20.21875 56 33.015625 56 
Q 37.15625 56 41.109375 55.140625 
Q 45.0625 54.296875 48.78125 52.59375 
z
" id="DejaVuSans-63"/>
      <path d="M 56.203125 29.59375 
L 56.203125 25.203125 
L 14.890625 25.203125 
Q 15.484375 15.921875 20.484375 11.0625 
Q 25.484375 6.203125 34.421875 6.203125 
Q 39.59375 6.203125 44.453125 7.46875 
Q 49.3125 8.734375 54.109375 11.28125 
L 54.109375 2.78125 
Q 49.265625 0.734375 44.1875 -0.34375 
Q 39.109375 -1.421875 33.890625 -1.421875 
Q 20.796875 -1.421875 13.15625 6.1875 
Q 5.515625 13.8125 5.515625 26.8125 
Q 5.515625 40.234375 12.765625 48.109375 
Q 20.015625 56 32.328125 56 
Q 43.359375 56 49.78125 48.890625 
Q 56.203125 41.796875 56.203125 29.59375 
z
M 47.21875 32.234375 
Q 47.125 39.59375 43.09375 43.984375 
Q 39.0625 48.390625 32.421875 48.390625 
Q 24.90625 48.390625 20.390625 44.140625 
Q 15.875 39.890625 15.1875 32.171875 
z
" id="DejaVuSans-65"/>
     </defs>
     <g transform="translate(219.56625 316.706687)scale(0.1 -0.1)">
      <use xlink:href="#DejaVuSans-44"/>
      <use x="77.001953" xlink:href="#DejaVuSans-69"/>
      <use x="104.785156" xlink:href="#DejaVuSans-73"/>
      <use x="156.884766" xlink:href="#DejaVuSans-74"/>
      <use x="196.09375" xlink:href="#DejaVuSans-61"/>
      <use x="257.373047" xlink:href="#DejaVuSans-6e"/>
      <use x="320.751953" xlink:href="#DejaVuSans-63"/>
      <use x="375.732422" xlink:href="#DejaVuSans-65"/>
     </g>
    </g>
   </g>
   <g id="matplotlib.axis_2">
    <g id="ytick_1">
     <g id="line2d_8">
      <defs>
       <path d="M 0 0 
L -3.5 0 
" id="mca2e05738d" style="stroke:#000000;stroke-width:0.8;"/>
      </defs>
      <g>
       <use style="stroke:#000000;stroke-width:0.8;" x="62.86875" xlink:href="#mca2e05738d" y="288.430125"/>
      </g>
     </g>
     <g id="text_9">
      <!-- 0.0000 -->
      <defs>
       <path d="M 10.6875 12.40625 
L 21 12.40625 
L 21 0 
L 10.6875 0 
z
" id="DejaVuSans-2e"/>
      </defs>
      <g transform="translate(20.878125 292.229344)scale(0.1 -0.1)">
       <use xlink:href="#DejaVuSans-30"/>
       <use x="63.623047" xlink:href="#DejaVuSans-2e"/>
       <use x="95.410156" xlink:href="#DejaVuSans-30"/>
       <use x="159.033203" xlink:href="#DejaVuSans-30"/>
       <use x="222.65625" xlink:href="#DejaVuSans-30"/>
       <use x="286.279297" xlink:href="#DejaVuSans-30"/>
      </g>
     </g>
    </g>
    <g id="ytick_2">
     <g id="line2d_9">
      <g>
       <use style="stroke:#000000;stroke-width:0.8;" x="62.86875" xlink:href="#mca2e05738d" y="249.375378"/>
      </g>
     </g>
     <g id="text_10">
      <!-- 0.0002 -->
      <g transform="translate(20.878125 253.174597)scale(0.1 -0.1)">
       <use xlink:href="#DejaVuSans-30"/>
       <use x="63.623047" xlink:href="#DejaVuSans-2e"/>
       <use x="95.410156" xlink:href="#DejaVuSans-30"/>
       <use x="159.033203" xlink:href="#DejaVuSans-30"/>
       <use x="222.65625" xlink:href="#DejaVuSans-30"/>
       <use x="286.279297" xlink:href="#DejaVuSans-32"/>
      </g>
     </g>
    </g>
    <g id="ytick_3">
     <g id="line2d_10">
      <g>
       <use style="stroke:#000000;stroke-width:0.8;" x="62.86875" xlink:href="#mca2e05738d" y="210.320632"/>
      </g>
     </g>
     <g id="text_11">
      <!-- 0.0004 -->
      <defs>
       <path d="M 37.796875 64.3125 
L 12.890625 25.390625 
L 37.796875 25.390625 
z
M 35.203125 72.90625 
L 47.609375 72.90625 
L 47.609375 25.390625 
L 58.015625 25.390625 
L 58.015625 17.1875 
L 47.609375 17.1875 
L 47.609375 0 
L 37.796875 0 
L 37.796875 17.1875 
L 4.890625 17.1875 
L 4.890625 26.703125 
z
" id="DejaVuSans-34"/>
      </defs>
      <g transform="translate(20.878125 214.119851)scale(0.1 -0.1)">
       <use xlink:href="#DejaVuSans-30"/>
       <use x="63.623047" xlink:href="#DejaVuSans-2e"/>
       <use x="95.410156" xlink:href="#DejaVuSans-30"/>
       <use x="159.033203" xlink:href="#DejaVuSans-30"/>
       <use x="222.65625" xlink:href="#DejaVuSans-30"/>
       <use x="286.279297" xlink:href="#DejaVuSans-34"/>
      </g>
     </g>
    </g>
    <g id="ytick_4">
     <g id="line2d_11">
      <g>
       <use style="stroke:#000000;stroke-width:0.8;" x="62.86875" xlink:href="#mca2e05738d" y="171.265885"/>
      </g>
     </g>
     <g id="text_12">
      <!-- 0.0006 -->
      <defs>
       <path d="M 33.015625 40.375 
Q 26.375 40.375 22.484375 35.828125 
Q 18.609375 31.296875 18.609375 23.390625 
Q 18.609375 15.53125 22.484375 10.953125 
Q 26.375 6.390625 33.015625 6.390625 
Q 39.65625 6.390625 43.53125 10.953125 
Q 47.40625 15.53125 47.40625 23.390625 
Q 47.40625 31.296875 43.53125 35.828125 
Q 39.65625 40.375 33.015625 40.375 
z
M 52.59375 71.296875 
L 52.59375 62.3125 
Q 48.875 64.0625 45.09375 64.984375 
Q 41.3125 65.921875 37.59375 65.921875 
Q 27.828125 65.921875 22.671875 59.328125 
Q 17.53125 52.734375 16.796875 39.40625 
Q 19.671875 43.65625 24.015625 45.921875 
Q 28.375 48.1875 33.59375 48.1875 
Q 44.578125 48.1875 50.953125 41.515625 
Q 57.328125 34.859375 57.328125 23.390625 
Q 57.328125 12.15625 50.6875 5.359375 
Q 44.046875 -1.421875 33.015625 -1.421875 
Q 20.359375 -1.421875 13.671875 8.265625 
Q 6.984375 17.96875 6.984375 36.375 
Q 6.984375 53.65625 15.1875 63.9375 
Q 23.390625 74.21875 37.203125 74.21875 
Q 40.921875 74.21875 44.703125 73.484375 
Q 48.484375 72.75 52.59375 71.296875 
z
" id="DejaVuSans-36"/>
      </defs>
      <g transform="translate(20.878125 175.065104)scale(0.1 -0.1)">
       <use xlink:href="#DejaVuSans-30"/>
       <use x="63.623047" xlink:href="#DejaVuSans-2e"/>
       <use x="95.410156" xlink:href="#DejaVuSans-30"/>
       <use x="159.033203" xlink:href="#DejaVuSans-30"/>
       <use x="222.65625" xlink:href="#DejaVuSans-30"/>
       <use x="286.279297" xlink:href="#DejaVuSans-36"/>
      </g>
     </g>
    </g>
    <g id="ytick_5">
     <g id="line2d_12">
      <g>
       <use style="stroke:#000000;stroke-width:0.8;" x="62.86875" xlink:href="#mca2e05738d" y="132.211139"/>
      </g>
     </g>
     <g id="text_13">
      <!-- 0.0008 -->
      <defs>
       <path d="M 31.78125 34.625 
Q 24.75 34.625 20.71875 30.859375 
Q 16.703125 27.09375 16.703125 20.515625 
Q 16.703125 13.921875 20.71875 10.15625 
Q 24.75 6.390625 31.78125 6.390625 
Q 38.8125 6.390625 42.859375 10.171875 
Q 46.921875 13.96875 46.921875 20.515625 
Q 46.921875 27.09375 42.890625 30.859375 
Q 38.875 34.625 31.78125 34.625 
z
M 21.921875 38.8125 
Q 15.578125 40.375 12.03125 44.71875 
Q 8.5 49.078125 8.5 55.328125 
Q 8.5 64.0625 14.71875 69.140625 
Q 20.953125 74.21875 31.78125 74.21875 
Q 42.671875 74.21875 48.875 69.140625 
Q 55.078125 64.0625 55.078125 55.328125 
Q 55.078125 49.078125 51.53125 44.71875 
Q 48 40.375 41.703125 38.8125 
Q 48.828125 37.15625 52.796875 32.3125 
Q 56.78125 27.484375 56.78125 20.515625 
Q 56.78125 9.90625 50.3125 4.234375 
Q 43.84375 -1.421875 31.78125 -1.421875 
Q 19.734375 -1.421875 13.25 4.234375 
Q 6.78125 9.90625 6.78125 20.515625 
Q 6.78125 27.484375 10.78125 32.3125 
Q 14.796875 37.15625 21.921875 38.8125 
z
M 18.3125 54.390625 
Q 18.3125 48.734375 21.84375 45.5625 
Q 25.390625 42.390625 31.78125 42.390625 
Q 38.140625 42.390625 41.71875 45.5625 
Q 45.3125 48.734375 45.3125 54.390625 
Q 45.3125 60.0625 41.71875 63.234375 
Q 38.140625 66.40625 31.78125 66.40625 
Q 25.390625 66.40625 21.84375 63.234375 
Q 18.3125 60.0625 18.3125 54.390625 
z
" id="DejaVuSans-38"/>
      </defs>
      <g transform="translate(20.878125 136.010357)scale(0.1 -0.1)">
       <use xlink:href="#DejaVuSans-30"/>
       <use x="63.623047" xlink:href="#DejaVuSans-2e"/>
       <use x="95.410156" xlink:href="#DejaVuSans-30"/>
       <use x="159.033203" xlink:href="#DejaVuSans-30"/>
       <use x="222.65625" xlink:href="#DejaVuSans-30"/>
       <use x="286.279297" xlink:href="#DejaVuSans-38"/>
      </g>
     </g>
    </g>
    <g id="ytick_6">
     <g id="line2d_13">
      <g>
       <use style="stroke:#000000;stroke-width:0.8;" x="62.86875" xlink:href="#mca2e05738d" y="93.156392"/>
      </g>
     </g>
     <g id="text_14">
      <!-- 0.0010 -->
      <g transform="translate(20.878125 96.955611)scale(0.1 -0.1)">
       <use xlink:href="#DejaVuSans-30"/>
       <use x="63.623047" xlink:href="#DejaVuSans-2e"/>
       <use x="95.410156" xlink:href="#DejaVuSans-30"/>
       <use x="159.033203" xlink:href="#DejaVuSans-30"/>
       <use x="222.65625" xlink:href="#DejaVuSans-31"/>
       <use x="286.279297" xlink:href="#DejaVuSans-30"/>
      </g>
     </g>
    </g>
    <g id="ytick_7">
     <g id="line2d_14">
      <g>
       <use style="stroke:#000000;stroke-width:0.8;" x="62.86875" xlink:href="#mca2e05738d" y="54.101646"/>
      </g>
     </g>
     <g id="text_15">
      <!-- 0.0012 -->
      <g transform="translate(20.878125 57.900864)scale(0.1 -0.1)">
       <use xlink:href="#DejaVuSans-30"/>
       <use x="63.623047" xlink:href="#DejaVuSans-2e"/>
       <use x="95.410156" xlink:href="#DejaVuSans-30"/>
       <use x="159.033203" xlink:href="#DejaVuSans-30"/>
       <use x="222.65625" xlink:href="#DejaVuSans-31"/>
       <use x="286.279297" xlink:href="#DejaVuSans-32"/>
      </g>
     </g>
    </g>
    <g id="text_16">
     <!-- Probability -->
     <defs>
      <path d="M 19.671875 64.796875 
L 19.671875 37.40625 
L 32.078125 37.40625 
Q 38.96875 37.40625 42.71875 40.96875 
Q 46.484375 44.53125 46.484375 51.125 
Q 46.484375 57.671875 42.71875 61.234375 
Q 38.96875 64.796875 32.078125 64.796875 
z
M 9.8125 72.90625 
L 32.078125 72.90625 
Q 44.34375 72.90625 50.609375 67.359375 
Q 56.890625 61.8125 56.890625 51.125 
Q 56.890625 40.328125 50.609375 34.8125 
Q 44.34375 29.296875 32.078125 29.296875 
L 19.671875 29.296875 
L 19.671875 0 
L 9.8125 0 
z
" id="DejaVuSans-50"/>
      <path d="M 41.109375 46.296875 
Q 39.59375 47.171875 37.8125 47.578125 
Q 36.03125 48 33.890625 48 
Q 26.265625 48 22.1875 43.046875 
Q 18.109375 38.09375 18.109375 28.8125 
L 18.109375 0 
L 9.078125 0 
L 9.078125 54.6875 
L 18.109375 54.6875 
L 18.109375 46.1875 
Q 20.953125 51.171875 25.484375 53.578125 
Q 30.03125 56 36.53125 56 
Q 37.453125 56 38.578125 55.875 
Q 39.703125 55.765625 41.0625 55.515625 
z
" id="DejaVuSans-72"/>
      <path d="M 30.609375 48.390625 
Q 23.390625 48.390625 19.1875 42.75 
Q 14.984375 37.109375 14.984375 27.296875 
Q 14.984375 17.484375 19.15625 11.84375 
Q 23.34375 6.203125 30.609375 6.203125 
Q 37.796875 6.203125 41.984375 11.859375 
Q 46.1875 17.53125 46.1875 27.296875 
Q 46.1875 37.015625 41.984375 42.703125 
Q 37.796875 48.390625 30.609375 48.390625 
z
M 30.609375 56 
Q 42.328125 56 49.015625 48.375 
Q 55.71875 40.765625 55.71875 27.296875 
Q 55.71875 13.875 49.015625 6.21875 
Q 42.328125 -1.421875 30.609375 -1.421875 
Q 18.84375 -1.421875 12.171875 6.21875 
Q 5.515625 13.875 5.515625 27.296875 
Q 5.515625 40.765625 12.171875 48.375 
Q 18.84375 56 30.609375 56 
z
" id="DejaVuSans-6f"/>
      <path d="M 48.6875 27.296875 
Q 48.6875 37.203125 44.609375 42.84375 
Q 40.53125 48.484375 33.40625 48.484375 
Q 26.265625 48.484375 22.1875 42.84375 
Q 18.109375 37.203125 18.109375 27.296875 
Q 18.109375 17.390625 22.1875 11.75 
Q 26.265625 6.109375 33.40625 6.109375 
Q 40.53125 6.109375 44.609375 11.75 
Q 48.6875 17.390625 48.6875 27.296875 
z
M 18.109375 46.390625 
Q 20.953125 51.265625 25.265625 53.625 
Q 29.59375 56 35.59375 56 
Q 45.5625 56 51.78125 48.09375 
Q 58.015625 40.1875 58.015625 27.296875 
Q 58.015625 14.40625 51.78125 6.484375 
Q 45.5625 -1.421875 35.59375 -1.421875 
Q 29.59375 -1.421875 25.265625 0.953125 
Q 20.953125 3.328125 18.109375 8.203125 
L 18.109375 0 
L 9.078125 0 
L 9.078125 75.984375 
L 18.109375 75.984375 
z
" id="DejaVuSans-62"/>
      <path d="M 9.421875 75.984375 
L 18.40625 75.984375 
L 18.40625 0 
L 9.421875 0 
z
" id="DejaVuSans-6c"/>
      <path d="M 32.171875 -5.078125 
Q 28.375 -14.84375 24.75 -17.8125 
Q 21.140625 -20.796875 15.09375 -20.796875 
L 7.90625 -20.796875 
L 7.90625 -13.28125 
L 13.1875 -13.28125 
Q 16.890625 -13.28125 18.9375 -11.515625 
Q 21 -9.765625 23.484375 -3.21875 
L 25.09375 0.875 
L 2.984375 54.6875 
L 12.5 54.6875 
L 29.59375 11.921875 
L 46.6875 54.6875 
L 56.203125 54.6875 
z
" id="DejaVuSans-79"/>
     </defs>
     <g transform="translate(14.798438 182.000687)rotate(-90)scale(0.1 -0.1)">
      <use xlink:href="#DejaVuSans-50"/>
      <use x="60.287109" xlink:href="#DejaVuSans-72"/>
      <use x="101.369141" xlink:href="#DejaVuSans-6f"/>
      <use x="162.550781" xlink:href="#DejaVuSans-62"/>
      <use x="226.027344" xlink:href="#DejaVuSans-61"/>
      <use x="287.306641" xlink:href="#DejaVuSans-62"/>
      <use x="350.783203" xlink:href="#DejaVuSans-69"/>
      <use x="378.566406" xlink:href="#DejaVuSans-6c"/>
      <use x="406.349609" xlink:href="#DejaVuSans-69"/>
      <use x="434.132812" xlink:href="#DejaVuSans-74"/>
      <use x="473.341797" xlink:href="#DejaVuSans-79"/>
     </g>
    </g>
   </g>
   <g id="line2d_15">
    <path clip-path="url(#pa7e727aaaa)" d="M 79.101477 276.78504 
L 79.800272 276.432833 
L 84.180717 274.016629 
L 106.33394 255.017473 
L 115.733875 242.748142 
L 120.500713 235.429707 
L 132.707402 213.23449 
L 136.027379 206.359008 
L 143.11135 190.589043 
L 147.737847 179.566349 
L 153.587125 164.962562 
L 158.570869 152.0799 
L 177.490869 102.579471 
L 182.975551 89.116789 
L 187.484914 78.726787 
L 191.6736 69.775528 
L 194.496083 64.188355 
L 197.37809 58.896273 
L 201.016085 52.86732 
L 203.756905 48.842753 
L 204.446588 47.903655 
L 206.694327 45.055824 
L 210.156649 41.32851 
L 211.974841 39.702722 
L 214.464274 37.858126 
L 216.130182 36.874458 
L 217.427028 36.249759 
L 219.281318 35.573024 
L 222.068984 35.038919 
L 223.435819 34.990125 
L 225.146237 35.126831 
L 226.86242 35.484594 
L 228.500107 36.031179 
L 232.252694 38.031361 
L 233.695396 39.073417 
L 239.248998 44.454191 
L 245.037919 52.250236 
L 247.641591 56.42792 
L 249.728423 60.054625 
L 259.216914 79.277131 
L 263.58321 89.364363 
L 266.236766 95.788395 
L 271.881826 110.017033 
L 280.232361 131.897175 
L 289.843318 157.182602 
L 296.835423 174.94226 
L 301.218693 185.591668 
L 306.666124 198.164266 
L 308.837011 202.94517 
L 315.531914 216.785823 
L 321.551532 227.996051 
L 326.474315 236.265232 
L 331.351375 243.659789 
L 334.166393 247.572131 
L 352.615957 267.259619 
L 403.756023 286.411558 
L 403.756023 286.411558 
" style="fill:none;stroke:#1f77b4;stroke-linecap:square;stroke-width:1.5;"/>
    <defs>
     <path d="M 0 3 
C 0.795609 3 1.55874 2.683901 2.12132 2.12132 
C 2.683901 1.55874 3 0.795609 3 0 
C 3 -0.795609 2.683901 -1.55874 2.12132 -2.12132 
C 1.55874 -2.683901 0.795609 -3 0 -3 
C -0.795609 -3 -1.55874 -2.683901 -2.12132 -2.12132 
C -2.683901 -1.55874 -3 -0.795609 -3 0 
C -3 0.795609 -2.683901 1.55874 -2.12132 2.12132 
C -1.55874 2.683901 -0.795609 3 0 3 
z
" id="md22f220248" style="stroke:#1f77b4;"/>
    </defs>
    <g clip-path="url(#pa7e727aaaa)">
     <use style="fill:#1f77b4;stroke:#1f77b4;" x="79.101477" xlink:href="#md22f220248" y="276.78504"/>
     <use style="fill:#1f77b4;stroke:#1f77b4;" x="79.800272" xlink:href="#md22f220248" y="276.432833"/>
     <use style="fill:#1f77b4;stroke:#1f77b4;" x="84.180717" xlink:href="#md22f220248" y="274.016629"/>
     <use style="fill:#1f77b4;stroke:#1f77b4;" x="106.33394" xlink:href="#md22f220248" y="255.017473"/>
     <use style="fill:#1f77b4;stroke:#1f77b4;" x="115.733875" xlink:href="#md22f220248" y="242.748142"/>
     <use style="fill:#1f77b4;stroke:#1f77b4;" x="120.500713" xlink:href="#md22f220248" y="235.429707"/>
     <use style="fill:#1f77b4;stroke:#1f77b4;" x="131.588749" xlink:href="#md22f220248" y="215.472666"/>
     <use style="fill:#1f77b4;stroke:#1f77b4;" x="132.707402" xlink:href="#md22f220248" y="213.23449"/>
     <use style="fill:#1f77b4;stroke:#1f77b4;" x="133.409091" xlink:href="#md22f220248" y="211.810169"/>
     <use style="fill:#1f77b4;stroke:#1f77b4;" x="134.283914" xlink:href="#md22f220248" y="210.012606"/>
     <use style="fill:#1f77b4;stroke:#1f77b4;" x="136.027379" xlink:href="#md22f220248" y="206.359008"/>
     <use style="fill:#1f77b4;stroke:#1f77b4;" x="140.632337" xlink:href="#md22f220248" y="196.269658"/>
     <use style="fill:#1f77b4;stroke:#1f77b4;" x="140.869534" xlink:href="#md22f220248" y="195.733396"/>
     <use style="fill:#1f77b4;stroke:#1f77b4;" x="142.879733" xlink:href="#md22f220248" y="191.126784"/>
     <use style="fill:#1f77b4;stroke:#1f77b4;" x="143.11135" xlink:href="#md22f220248" y="190.589043"/>
     <use style="fill:#1f77b4;stroke:#1f77b4;" x="143.985717" xlink:href="#md22f220248" y="188.546437"/>
     <use style="fill:#1f77b4;stroke:#1f77b4;" x="146.964241" xlink:href="#md22f220248" y="181.445088"/>
     <use style="fill:#1f77b4;stroke:#1f77b4;" x="147.737847" xlink:href="#md22f220248" y="179.566349"/>
     <use style="fill:#1f77b4;stroke:#1f77b4;" x="150.157397" xlink:href="#md22f220248" y="173.606353"/>
     <use style="fill:#1f77b4;stroke:#1f77b4;" x="151.054118" xlink:href="#md22f220248" y="171.367182"/>
     <use style="fill:#1f77b4;stroke:#1f77b4;" x="152.451224" xlink:href="#md22f220248" y="167.848502"/>
     <use style="fill:#1f77b4;stroke:#1f77b4;" x="152.702774" xlink:href="#md22f220248" y="167.211272"/>
     <use style="fill:#1f77b4;stroke:#1f77b4;" x="153.587125" xlink:href="#md22f220248" y="164.962562"/>
     <use style="fill:#1f77b4;stroke:#1f77b4;" x="155.344508" xlink:href="#md22f220248" y="160.457486"/>
     <use style="fill:#1f77b4;stroke:#1f77b4;" x="155.345679" xlink:href="#md22f220248" y="160.454469"/>
     <use style="fill:#1f77b4;stroke:#1f77b4;" x="157.467537" xlink:href="#md22f220248" y="154.95843"/>
     <use style="fill:#1f77b4;stroke:#1f77b4;" x="158.570869" xlink:href="#md22f220248" y="152.0799"/>
     <use style="fill:#1f77b4;stroke:#1f77b4;" x="163.347159" xlink:href="#md22f220248" y="139.506869"/>
     <use style="fill:#1f77b4;stroke:#1f77b4;" x="164.410279" xlink:href="#md22f220248" y="136.693952"/>
     <use style="fill:#1f77b4;stroke:#1f77b4;" x="164.492619" xlink:href="#md22f220248" y="136.476007"/>
     <use style="fill:#1f77b4;stroke:#1f77b4;" x="166.33266" xlink:href="#md22f220248" y="131.605444"/>
     <use style="fill:#1f77b4;stroke:#1f77b4;" x="166.336459" xlink:href="#md22f220248" y="131.595391"/>
     <use style="fill:#1f77b4;stroke:#1f77b4;" x="166.704438" xlink:href="#md22f220248" y="130.621797"/>
     <use style="fill:#1f77b4;stroke:#1f77b4;" x="167.677611" xlink:href="#md22f220248" y="128.048806"/>
     <use style="fill:#1f77b4;stroke:#1f77b4;" x="168.285838" xlink:href="#md22f220248" y="126.442548"/>
     <use style="fill:#1f77b4;stroke:#1f77b4;" x="170.745939" xlink:href="#md22f220248" y="119.968573"/>
     <use style="fill:#1f77b4;stroke:#1f77b4;" x="171.06999" xlink:href="#md22f220248" y="119.11939"/>
     <use style="fill:#1f77b4;stroke:#1f77b4;" x="173.355165" xlink:href="#md22f220248" y="113.163301"/>
     <use style="fill:#1f77b4;stroke:#1f77b4;" x="174.500247" xlink:href="#md22f220248" y="110.204247"/>
     <use style="fill:#1f77b4;stroke:#1f77b4;" x="174.741179" xlink:href="#md22f220248" y="109.584169"/>
     <use style="fill:#1f77b4;stroke:#1f77b4;" x="175.013146" xlink:href="#md22f220248" y="108.885338"/>
     <use style="fill:#1f77b4;stroke:#1f77b4;" x="175.334548" xlink:href="#md22f220248" y="108.06106"/>
     <use style="fill:#1f77b4;stroke:#1f77b4;" x="175.52673" xlink:href="#md22f220248" y="107.569022"/>
     <use style="fill:#1f77b4;stroke:#1f77b4;" x="176.14888" xlink:href="#md22f220248" y="105.980641"/>
     <use style="fill:#1f77b4;stroke:#1f77b4;" x="176.297731" xlink:href="#md22f220248" y="105.601665"/>
     <use style="fill:#1f77b4;stroke:#1f77b4;" x="177.490869" xlink:href="#md22f220248" y="102.579471"/>
     <use style="fill:#1f77b4;stroke:#1f77b4;" x="179.314843" xlink:href="#md22f220248" y="98.017986"/>
     <use style="fill:#1f77b4;stroke:#1f77b4;" x="179.399754" xlink:href="#md22f220248" y="97.807511"/>
     <use style="fill:#1f77b4;stroke:#1f77b4;" x="179.690416" xlink:href="#md22f220248" y="97.088363"/>
     <use style="fill:#1f77b4;stroke:#1f77b4;" x="180.12882" xlink:href="#md22f220248" y="96.007664"/>
     <use style="fill:#1f77b4;stroke:#1f77b4;" x="181.731574" xlink:href="#md22f220248" y="92.099802"/>
     <use style="fill:#1f77b4;stroke:#1f77b4;" x="182.968318" xlink:href="#md22f220248" y="89.133998"/>
     <use style="fill:#1f77b4;stroke:#1f77b4;" x="182.975551" xlink:href="#md22f220248" y="89.116789"/>
     <use style="fill:#1f77b4;stroke:#1f77b4;" x="183.762211" xlink:href="#md22f220248" y="87.254714"/>
     <use style="fill:#1f77b4;stroke:#1f77b4;" x="183.858893" xlink:href="#md22f220248" y="87.027215"/>
     <use style="fill:#1f77b4;stroke:#1f77b4;" x="184.732142" xlink:href="#md22f220248" y="84.986267"/>
     <use style="fill:#1f77b4;stroke:#1f77b4;" x="187.484914" xlink:href="#md22f220248" y="78.726787"/>
     <use style="fill:#1f77b4;stroke:#1f77b4;" x="188.831816" xlink:href="#md22f220248" y="75.768487"/>
     <use style="fill:#1f77b4;stroke:#1f77b4;" x="188.904388" xlink:href="#md22f220248" y="75.611163"/>
     <use style="fill:#1f77b4;stroke:#1f77b4;" x="189.212907" xlink:href="#md22f220248" y="74.944766"/>
     <use style="fill:#1f77b4;stroke:#1f77b4;" x="191.6736" xlink:href="#md22f220248" y="69.775528"/>
     <use style="fill:#1f77b4;stroke:#1f77b4;" x="192.047071" xlink:href="#md22f220248" y="69.014545"/>
     <use style="fill:#1f77b4;stroke:#1f77b4;" x="192.076472" xlink:href="#md22f220248" y="68.95491"/>
     <use style="fill:#1f77b4;stroke:#1f77b4;" x="194.26392" xlink:href="#md22f220248" y="64.633311"/>
     <use style="fill:#1f77b4;stroke:#1f77b4;" x="194.496083" xlink:href="#md22f220248" y="64.188355"/>
     <use style="fill:#1f77b4;stroke:#1f77b4;" x="197.37809" xlink:href="#md22f220248" y="58.896273"/>
     <use style="fill:#1f77b4;stroke:#1f77b4;" x="199.237081" xlink:href="#md22f220248" y="55.720956"/>
     <use style="fill:#1f77b4;stroke:#1f77b4;" x="199.295795" xlink:href="#md22f220248" y="55.623842"/>
     <use style="fill:#1f77b4;stroke:#1f77b4;" x="201.016085" xlink:href="#md22f220248" y="52.86732"/>
     <use style="fill:#1f77b4;stroke:#1f77b4;" x="202.196972" xlink:href="#md22f220248" y="51.076858"/>
     <use style="fill:#1f77b4;stroke:#1f77b4;" x="203.319506" xlink:href="#md22f220248" y="49.453901"/>
     <use style="fill:#1f77b4;stroke:#1f77b4;" x="203.702036" xlink:href="#md22f220248" y="48.918757"/>
     <use style="fill:#1f77b4;stroke:#1f77b4;" x="203.756905" xlink:href="#md22f220248" y="48.842753"/>
     <use style="fill:#1f77b4;stroke:#1f77b4;" x="204.446588" xlink:href="#md22f220248" y="47.903655"/>
     <use style="fill:#1f77b4;stroke:#1f77b4;" x="206.637379" xlink:href="#md22f220248" y="45.12389"/>
     <use style="fill:#1f77b4;stroke:#1f77b4;" x="206.694327" xlink:href="#md22f220248" y="45.055824"/>
     <use style="fill:#1f77b4;stroke:#1f77b4;" x="208.756409" xlink:href="#md22f220248" y="42.737571"/>
     <use style="fill:#1f77b4;stroke:#1f77b4;" x="209.226938" xlink:href="#md22f220248" y="42.249007"/>
     <use style="fill:#1f77b4;stroke:#1f77b4;" x="209.32924" xlink:href="#md22f220248" y="42.144796"/>
     <use style="fill:#1f77b4;stroke:#1f77b4;" x="209.607836" xlink:href="#md22f220248" y="41.864656"/>
     <use style="fill:#1f77b4;stroke:#1f77b4;" x="209.641639" xlink:href="#md22f220248" y="41.831031"/>
     <use style="fill:#1f77b4;stroke:#1f77b4;" x="209.755657" xlink:href="#md22f220248" y="41.718193"/>
     <use style="fill:#1f77b4;stroke:#1f77b4;" x="210.156649" xlink:href="#md22f220248" y="41.32851"/>
     <use style="fill:#1f77b4;stroke:#1f77b4;" x="210.502544" xlink:href="#md22f220248" y="41.001355"/>
     <use style="fill:#1f77b4;stroke:#1f77b4;" x="210.521928" xlink:href="#md22f220248" y="40.983267"/>
     <use style="fill:#1f77b4;stroke:#1f77b4;" x="210.67771" xlink:href="#md22f220248" y="40.838864"/>
     <use style="fill:#1f77b4;stroke:#1f77b4;" x="211.087465" xlink:href="#md22f220248" y="40.467157"/>
     <use style="fill:#1f77b4;stroke:#1f77b4;" x="211.756662" xlink:href="#md22f220248" y="39.88551"/>
     <use style="fill:#1f77b4;stroke:#1f77b4;" x="211.77563" xlink:href="#md22f220248" y="39.869485"/>
     <use style="fill:#1f77b4;stroke:#1f77b4;" x="211.974841" xlink:href="#md22f220248" y="39.702722"/>
     <use style="fill:#1f77b4;stroke:#1f77b4;" x="214.464274" xlink:href="#md22f220248" y="37.858126"/>
     <use style="fill:#1f77b4;stroke:#1f77b4;" x="215.910035" xlink:href="#md22f220248" y="36.992802"/>
     <use style="fill:#1f77b4;stroke:#1f77b4;" x="215.985023" xlink:href="#md22f220248" y="36.952091"/>
     <use style="fill:#1f77b4;stroke:#1f77b4;" x="216.130182" xlink:href="#md22f220248" y="36.874458"/>
     <use style="fill:#1f77b4;stroke:#1f77b4;" x="217.427028" xlink:href="#md22f220248" y="36.249759"/>
     <use style="fill:#1f77b4;stroke:#1f77b4;" x="218.797426" xlink:href="#md22f220248" y="35.724951"/>
     <use style="fill:#1f77b4;stroke:#1f77b4;" x="219.020704" xlink:href="#md22f220248" y="35.652679"/>
     <use style="fill:#1f77b4;stroke:#1f77b4;" x="219.281318" xlink:href="#md22f220248" y="35.573024"/>
     <use style="fill:#1f77b4;stroke:#1f77b4;" x="221.017226" xlink:href="#md22f220248" y="35.172007"/>
     <use style="fill:#1f77b4;stroke:#1f77b4;" x="221.782671" xlink:href="#md22f220248" y="35.066922"/>
     <use style="fill:#1f77b4;stroke:#1f77b4;" x="222.068984" xlink:href="#md22f220248" y="35.038919"/>
     <use style="fill:#1f77b4;stroke:#1f77b4;" x="222.362555" xlink:href="#md22f220248" y="35.0166"/>
     <use style="fill:#1f77b4;stroke:#1f77b4;" x="223.435819" xlink:href="#md22f220248" y="34.990125"/>
     <use style="fill:#1f77b4;stroke:#1f77b4;" x="224.181889" xlink:href="#md22f220248" y="35.02273"/>
     <use style="fill:#1f77b4;stroke:#1f77b4;" x="225.0361" xlink:href="#md22f220248" y="35.11141"/>
     <use style="fill:#1f77b4;stroke:#1f77b4;" x="225.146237" xlink:href="#md22f220248" y="35.126831"/>
     <use style="fill:#1f77b4;stroke:#1f77b4;" x="225.854029" xlink:href="#md22f220248" y="35.247647"/>
     <use style="fill:#1f77b4;stroke:#1f77b4;" x="226.86242" xlink:href="#md22f220248" y="35.484594"/>
     <use style="fill:#1f77b4;stroke:#1f77b4;" x="228.485634" xlink:href="#md22f220248" y="36.025474"/>
     <use style="fill:#1f77b4;stroke:#1f77b4;" x="228.500107" xlink:href="#md22f220248" y="36.031179"/>
     <use style="fill:#1f77b4;stroke:#1f77b4;" x="231.61464" xlink:href="#md22f220248" y="37.618493"/>
     <use style="fill:#1f77b4;stroke:#1f77b4;" x="231.965302" xlink:href="#md22f220248" y="37.841737"/>
     <use style="fill:#1f77b4;stroke:#1f77b4;" x="232.252694" xlink:href="#md22f220248" y="38.031361"/>
     <use style="fill:#1f77b4;stroke:#1f77b4;" x="233.695396" xlink:href="#md22f220248" y="39.073417"/>
     <use style="fill:#1f77b4;stroke:#1f77b4;" x="239.051712" xlink:href="#md22f220248" y="44.226785"/>
     <use style="fill:#1f77b4;stroke:#1f77b4;" x="239.248998" xlink:href="#md22f220248" y="44.454191"/>
     <use style="fill:#1f77b4;stroke:#1f77b4;" x="244.187775" xlink:href="#md22f220248" y="50.973335"/>
     <use style="fill:#1f77b4;stroke:#1f77b4;" x="244.203179" xlink:href="#md22f220248" y="50.99608"/>
     <use style="fill:#1f77b4;stroke:#1f77b4;" x="244.98397" xlink:href="#md22f220248" y="52.167905"/>
     <use style="fill:#1f77b4;stroke:#1f77b4;" x="245.037919" xlink:href="#md22f220248" y="52.250236"/>
     <use style="fill:#1f77b4;stroke:#1f77b4;" x="245.198203" xlink:href="#md22f220248" y="52.495875"/>
     <use style="fill:#1f77b4;stroke:#1f77b4;" x="245.885434" xlink:href="#md22f220248" y="53.566467"/>
     <use style="fill:#1f77b4;stroke:#1f77b4;" x="246.675081" xlink:href="#md22f220248" y="54.83101"/>
     <use style="fill:#1f77b4;stroke:#1f77b4;" x="246.803588" xlink:href="#md22f220248" y="55.04024"/>
     <use style="fill:#1f77b4;stroke:#1f77b4;" x="247.641591" xlink:href="#md22f220248" y="56.42792"/>
     <use style="fill:#1f77b4;stroke:#1f77b4;" x="249.019605" xlink:href="#md22f220248" y="58.795916"/>
     <use style="fill:#1f77b4;stroke:#1f77b4;" x="249.728423" xlink:href="#md22f220248" y="60.054625"/>
     <use style="fill:#1f77b4;stroke:#1f77b4;" x="258.319401" xlink:href="#md22f220248" y="77.289117"/>
     <use style="fill:#1f77b4;stroke:#1f77b4;" x="259.157018" xlink:href="#md22f220248" y="79.143488"/>
     <use style="fill:#1f77b4;stroke:#1f77b4;" x="259.216914" xlink:href="#md22f220248" y="79.277131"/>
     <use style="fill:#1f77b4;stroke:#1f77b4;" x="261.221608" xlink:href="#md22f220248" y="83.826836"/>
     <use style="fill:#1f77b4;stroke:#1f77b4;" x="261.501494" xlink:href="#md22f220248" y="84.473462"/>
     <use style="fill:#1f77b4;stroke:#1f77b4;" x="261.884982" xlink:href="#md22f220248" y="85.363782"/>
     <use style="fill:#1f77b4;stroke:#1f77b4;" x="263.19628" xlink:href="#md22f220248" y="88.4448"/>
     <use style="fill:#1f77b4;stroke:#1f77b4;" x="263.344239" xlink:href="#md22f220248" y="88.795887"/>
     <use style="fill:#1f77b4;stroke:#1f77b4;" x="263.453497" xlink:href="#md22f220248" y="89.055578"/>
     <use style="fill:#1f77b4;stroke:#1f77b4;" x="263.577329" xlink:href="#md22f220248" y="89.350351"/>
     <use style="fill:#1f77b4;stroke:#1f77b4;" x="263.58321" xlink:href="#md22f220248" y="89.364363"/>
     <use style="fill:#1f77b4;stroke:#1f77b4;" x="264.495275" xlink:href="#md22f220248" y="91.549837"/>
     <use style="fill:#1f77b4;stroke:#1f77b4;" x="265.888655" xlink:href="#md22f220248" y="94.934582"/>
     <use style="fill:#1f77b4;stroke:#1f77b4;" x="265.963895" xlink:href="#md22f220248" y="95.118854"/>
     <use style="fill:#1f77b4;stroke:#1f77b4;" x="265.964084" xlink:href="#md22f220248" y="95.119319"/>
     <use style="fill:#1f77b4;stroke:#1f77b4;" x="266.236766" xlink:href="#md22f220248" y="95.788395"/>
     <use style="fill:#1f77b4;stroke:#1f77b4;" x="268.861426" xlink:href="#md22f220248" y="102.321229"/>
     <use style="fill:#1f77b4;stroke:#1f77b4;" x="268.891617" xlink:href="#md22f220248" y="102.397281"/>
     <use style="fill:#1f77b4;stroke:#1f77b4;" x="271.881826" xlink:href="#md22f220248" y="110.017033"/>
     <use style="fill:#1f77b4;stroke:#1f77b4;" x="273.181675" xlink:href="#md22f220248" y="113.376079"/>
     <use style="fill:#1f77b4;stroke:#1f77b4;" x="273.295191" xlink:href="#md22f220248" y="113.670563"/>
     <use style="fill:#1f77b4;stroke:#1f77b4;" x="275.384705" xlink:href="#md22f220248" y="119.119173"/>
     <use style="fill:#1f77b4;stroke:#1f77b4;" x="278.337932" xlink:href="#md22f220248" y="126.888667"/>
     <use style="fill:#1f77b4;stroke:#1f77b4;" x="278.456463" xlink:href="#md22f220248" y="127.201653"/>
     <use style="fill:#1f77b4;stroke:#1f77b4;" x="279.748909" xlink:href="#md22f220248" y="130.618012"/>
     <use style="fill:#1f77b4;stroke:#1f77b4;" x="279.761421" xlink:href="#md22f220248" y="130.651109"/>
     <use style="fill:#1f77b4;stroke:#1f77b4;" x="280.186225" xlink:href="#md22f220248" y="131.775085"/>
     <use style="fill:#1f77b4;stroke:#1f77b4;" x="280.232361" xlink:href="#md22f220248" y="131.897175"/>
     <use style="fill:#1f77b4;stroke:#1f77b4;" x="280.543831" xlink:href="#md22f220248" y="132.721515"/>
     <use style="fill:#1f77b4;stroke:#1f77b4;" x="281.651941" xlink:href="#md22f220248" y="135.654845"/>
     <use style="fill:#1f77b4;stroke:#1f77b4;" x="283.549834" xlink:href="#md22f220248" y="140.676103"/>
     <use style="fill:#1f77b4;stroke:#1f77b4;" x="283.64736" xlink:href="#md22f220248" y="140.93388"/>
     <use style="fill:#1f77b4;stroke:#1f77b4;" x="284.862626" xlink:href="#md22f220248" y="144.142682"/>
     <use style="fill:#1f77b4;stroke:#1f77b4;" x="285.454619" xlink:href="#md22f220248" y="145.703053"/>
     <use style="fill:#1f77b4;stroke:#1f77b4;" x="286.671613" xlink:href="#md22f220248" y="148.903551"/>
     <use style="fill:#1f77b4;stroke:#1f77b4;" x="286.814439" xlink:href="#md22f220248" y="149.278432"/>
     <use style="fill:#1f77b4;stroke:#1f77b4;" x="289.843318" xlink:href="#md22f220248" y="157.182602"/>
     <use style="fill:#1f77b4;stroke:#1f77b4;" x="292.237686" xlink:href="#md22f220248" y="163.352995"/>
     <use style="fill:#1f77b4;stroke:#1f77b4;" x="294.79751" xlink:href="#md22f220248" y="169.852473"/>
     <use style="fill:#1f77b4;stroke:#1f77b4;" x="295.256095" xlink:href="#md22f220248" y="171.004749"/>
     <use style="fill:#1f77b4;stroke:#1f77b4;" x="296.835423" xlink:href="#md22f220248" y="174.94226"/>
     <use style="fill:#1f77b4;stroke:#1f77b4;" x="298.157866" xlink:href="#md22f220248" y="178.200307"/>
     <use style="fill:#1f77b4;stroke:#1f77b4;" x="300.973268" xlink:href="#md22f220248" y="185.007147"/>
     <use style="fill:#1f77b4;stroke:#1f77b4;" x="300.985534" xlink:href="#md22f220248" y="185.036396"/>
     <use style="fill:#1f77b4;stroke:#1f77b4;" x="301.218693" xlink:href="#md22f220248" y="185.591668"/>
     <use style="fill:#1f77b4;stroke:#1f77b4;" x="303.771474" xlink:href="#md22f220248" y="191.581721"/>
     <use style="fill:#1f77b4;stroke:#1f77b4;" x="304.929157" xlink:href="#md22f220248" y="194.241978"/>
     <use style="fill:#1f77b4;stroke:#1f77b4;" x="306.248852" xlink:href="#md22f220248" y="197.229735"/>
     <use style="fill:#1f77b4;stroke:#1f77b4;" x="306.666124" xlink:href="#md22f220248" y="198.164266"/>
     <use style="fill:#1f77b4;stroke:#1f77b4;" x="307.985385" xlink:href="#md22f220248" y="201.08605"/>
     <use style="fill:#1f77b4;stroke:#1f77b4;" x="308.276745" xlink:href="#md22f220248" y="201.724504"/>
     <use style="fill:#1f77b4;stroke:#1f77b4;" x="308.82998" xlink:href="#md22f220248" y="202.92991"/>
     <use style="fill:#1f77b4;stroke:#1f77b4;" x="308.837011" xlink:href="#md22f220248" y="202.94517"/>
     <use style="fill:#1f77b4;stroke:#1f77b4;" x="315.346985" xlink:href="#md22f220248" y="216.422574"/>
     <use style="fill:#1f77b4;stroke:#1f77b4;" x="315.531914" xlink:href="#md22f220248" y="216.785823"/>
     <use style="fill:#1f77b4;stroke:#1f77b4;" x="320.730867" xlink:href="#md22f220248" y="226.538552"/>
     <use style="fill:#1f77b4;stroke:#1f77b4;" x="321.551532" xlink:href="#md22f220248" y="227.996051"/>
     <use style="fill:#1f77b4;stroke:#1f77b4;" x="324.117988" xlink:href="#md22f220248" y="232.408502"/>
     <use style="fill:#1f77b4;stroke:#1f77b4;" x="326.474315" xlink:href="#md22f220248" y="236.265232"/>
     <use style="fill:#1f77b4;stroke:#1f77b4;" x="331.351375" xlink:href="#md22f220248" y="243.659789"/>
     <use style="fill:#1f77b4;stroke:#1f77b4;" x="334.166393" xlink:href="#md22f220248" y="247.572131"/>
     <use style="fill:#1f77b4;stroke:#1f77b4;" x="352.615957" xlink:href="#md22f220248" y="267.259619"/>
     <use style="fill:#1f77b4;stroke:#1f77b4;" x="403.756023" xlink:href="#md22f220248" y="286.411558"/>
    </g>
   </g>
   <g id="patch_13">
    <path d="M 62.86875 288.430125 
L 62.86875 22.318125 
" style="fill:none;stroke:#000000;stroke-linecap:square;stroke-linejoin:miter;stroke-width:0.8;"/>
   </g>
   <g id="patch_14">
    <path d="M 419.98875 288.430125 
L 419.98875 22.318125 
" style="fill:none;stroke:#000000;stroke-linecap:square;stroke-linejoin:miter;stroke-width:0.8;"/>
   </g>
   <g id="patch_15">
    <path d="M 62.86875 288.430125 
L 419.98875 288.430125 
" style="fill:none;stroke:#000000;stroke-linecap:square;stroke-linejoin:miter;stroke-width:0.8;"/>
   </g>
   <g id="patch_16">
    <path d="M 62.86875 22.318125 
L 419.98875 22.318125 
" style="fill:none;stroke:#000000;stroke-linecap:square;stroke-linejoin:miter;stroke-width:0.8;"/>
   </g>
   <g id="text_17">
    <!-- Distribution Between Pairs [d-dim scaled] -->
    <defs>
     <path d="M 8.5 21.578125 
L 8.5 54.6875 
L 17.484375 54.6875 
L 17.484375 21.921875 
Q 17.484375 14.15625 20.5 10.265625 
Q 23.53125 6.390625 29.59375 6.390625 
Q 36.859375 6.390625 41.078125 11.03125 
Q 45.3125 15.671875 45.3125 23.6875 
L 45.3125 54.6875 
L 54.296875 54.6875 
L 54.296875 0 
L 45.3125 0 
L 45.3125 8.40625 
Q 42.046875 3.421875 37.71875 1 
Q 33.40625 -1.421875 27.6875 -1.421875 
Q 18.265625 -1.421875 13.375 4.4375 
Q 8.5 10.296875 8.5 21.578125 
z
M 31.109375 56 
z
" id="DejaVuSans-75"/>
     <path id="DejaVuSans-20"/>
     <path d="M 19.671875 34.8125 
L 19.671875 8.109375 
L 35.5 8.109375 
Q 43.453125 8.109375 47.28125 11.40625 
Q 51.125 14.703125 51.125 21.484375 
Q 51.125 28.328125 47.28125 31.5625 
Q 43.453125 34.8125 35.5 34.8125 
z
M 19.671875 64.796875 
L 19.671875 42.828125 
L 34.28125 42.828125 
Q 41.5 42.828125 45.03125 45.53125 
Q 48.578125 48.25 48.578125 53.8125 
Q 48.578125 59.328125 45.03125 62.0625 
Q 41.5 64.796875 34.28125 64.796875 
z
M 9.8125 72.90625 
L 35.015625 72.90625 
Q 46.296875 72.90625 52.390625 68.21875 
Q 58.5 63.53125 58.5 54.890625 
Q 58.5 48.1875 55.375 44.234375 
Q 52.25 40.28125 46.1875 39.3125 
Q 53.46875 37.75 57.5 32.78125 
Q 61.53125 27.828125 61.53125 20.40625 
Q 61.53125 10.640625 54.890625 5.3125 
Q 48.25 0 35.984375 0 
L 9.8125 0 
z
" id="DejaVuSans-42"/>
     <path d="M 4.203125 54.6875 
L 13.1875 54.6875 
L 24.421875 12.015625 
L 35.59375 54.6875 
L 46.1875 54.6875 
L 57.421875 12.015625 
L 68.609375 54.6875 
L 77.59375 54.6875 
L 63.28125 0 
L 52.6875 0 
L 40.921875 44.828125 
L 29.109375 0 
L 18.5 0 
z
" id="DejaVuSans-77"/>
     <path d="M 8.59375 75.984375 
L 29.296875 75.984375 
L 29.296875 69 
L 17.578125 69 
L 17.578125 -6.203125 
L 29.296875 -6.203125 
L 29.296875 -13.1875 
L 8.59375 -13.1875 
z
" id="DejaVuSans-5b"/>
     <path d="M 45.40625 46.390625 
L 45.40625 75.984375 
L 54.390625 75.984375 
L 54.390625 0 
L 45.40625 0 
L 45.40625 8.203125 
Q 42.578125 3.328125 38.25 0.953125 
Q 33.9375 -1.421875 27.875 -1.421875 
Q 17.96875 -1.421875 11.734375 6.484375 
Q 5.515625 14.40625 5.515625 27.296875 
Q 5.515625 40.1875 11.734375 48.09375 
Q 17.96875 56 27.875 56 
Q 33.9375 56 38.25 53.625 
Q 42.578125 51.265625 45.40625 46.390625 
z
M 14.796875 27.296875 
Q 14.796875 17.390625 18.875 11.75 
Q 22.953125 6.109375 30.078125 6.109375 
Q 37.203125 6.109375 41.296875 11.75 
Q 45.40625 17.390625 45.40625 27.296875 
Q 45.40625 37.203125 41.296875 42.84375 
Q 37.203125 48.484375 30.078125 48.484375 
Q 22.953125 48.484375 18.875 42.84375 
Q 14.796875 37.203125 14.796875 27.296875 
z
" id="DejaVuSans-64"/>
     <path d="M 4.890625 31.390625 
L 31.203125 31.390625 
L 31.203125 23.390625 
L 4.890625 23.390625 
z
" id="DejaVuSans-2d"/>
     <path d="M 52 44.1875 
Q 55.375 50.25 60.0625 53.125 
Q 64.75 56 71.09375 56 
Q 79.640625 56 84.28125 50.015625 
Q 88.921875 44.046875 88.921875 33.015625 
L 88.921875 0 
L 79.890625 0 
L 79.890625 32.71875 
Q 79.890625 40.578125 77.09375 44.375 
Q 74.3125 48.1875 68.609375 48.1875 
Q 61.625 48.1875 57.5625 43.546875 
Q 53.515625 38.921875 53.515625 30.90625 
L 53.515625 0 
L 44.484375 0 
L 44.484375 32.71875 
Q 44.484375 40.625 41.703125 44.40625 
Q 38.921875 48.1875 33.109375 48.1875 
Q 26.21875 48.1875 22.15625 43.53125 
Q 18.109375 38.875 18.109375 30.90625 
L 18.109375 0 
L 9.078125 0 
L 9.078125 54.6875 
L 18.109375 54.6875 
L 18.109375 46.1875 
Q 21.1875 51.21875 25.484375 53.609375 
Q 29.78125 56 35.6875 56 
Q 41.65625 56 45.828125 52.96875 
Q 50 49.953125 52 44.1875 
z
" id="DejaVuSans-6d"/>
     <path d="M 30.421875 75.984375 
L 30.421875 -13.1875 
L 9.71875 -13.1875 
L 9.71875 -6.203125 
L 21.390625 -6.203125 
L 21.390625 69 
L 9.71875 69 
L 9.71875 75.984375 
z
" id="DejaVuSans-5d"/>
    </defs>
    <g transform="translate(116.749688 16.318125)scale(0.12 -0.12)">
     <use xlink:href="#DejaVuSans-44"/>
     <use x="77.001953" xlink:href="#DejaVuSans-69"/>
     <use x="104.785156" xlink:href="#DejaVuSans-73"/>
     <use x="156.884766" xlink:href="#DejaVuSans-74"/>
     <use x="196.09375" xlink:href="#DejaVuSans-72"/>
     <use x="237.207031" xlink:href="#DejaVuSans-69"/>
     <use x="264.990234" xlink:href="#DejaVuSans-62"/>
     <use x="328.466797" xlink:href="#DejaVuSans-75"/>
     <use x="391.845703" xlink:href="#DejaVuSans-74"/>
     <use x="431.054688" xlink:href="#DejaVuSans-69"/>
     <use x="458.837891" xlink:href="#DejaVuSans-6f"/>
     <use x="520.019531" xlink:href="#DejaVuSans-6e"/>
     <use x="583.398438" xlink:href="#DejaVuSans-20"/>
     <use x="615.185547" xlink:href="#DejaVuSans-42"/>
     <use x="683.789062" xlink:href="#DejaVuSans-65"/>
     <use x="745.3125" xlink:href="#DejaVuSans-74"/>
     <use x="784.521484" xlink:href="#DejaVuSans-77"/>
     <use x="866.308594" xlink:href="#DejaVuSans-65"/>
     <use x="927.832031" xlink:href="#DejaVuSans-65"/>
     <use x="989.355469" xlink:href="#DejaVuSans-6e"/>
     <use x="1052.734375" xlink:href="#DejaVuSans-20"/>
     <use x="1084.521484" xlink:href="#DejaVuSans-50"/>
     <use x="1144.761719" xlink:href="#DejaVuSans-61"/>
     <use x="1206.041016" xlink:href="#DejaVuSans-69"/>
     <use x="1233.824219" xlink:href="#DejaVuSans-72"/>
     <use x="1274.9375" xlink:href="#DejaVuSans-73"/>
     <use x="1327.037109" xlink:href="#DejaVuSans-20"/>
     <use x="1358.824219" xlink:href="#DejaVuSans-5b"/>
     <use x="1397.837891" xlink:href="#DejaVuSans-64"/>
     <use x="1461.314453" xlink:href="#DejaVuSans-2d"/>
     <use x="1497.398438" xlink:href="#DejaVuSans-64"/>
     <use x="1560.875" xlink:href="#DejaVuSans-69"/>
     <use x="1588.658203" xlink:href="#DejaVuSans-6d"/>
     <use x="1686.070312" xlink:href="#DejaVuSans-20"/>
     <use x="1717.857422" xlink:href="#DejaVuSans-73"/>
     <use x="1769.957031" xlink:href="#DejaVuSans-63"/>
     <use x="1824.9375" xlink:href="#DejaVuSans-61"/>
     <use x="1886.216797" xlink:href="#DejaVuSans-6c"/>
     <use x="1914" xlink:href="#DejaVuSans-65"/>
     <use x="1975.523438" xlink:href="#DejaVuSans-64"/>
     <use x="2039" xlink:href="#DejaVuSans-5d"/>
    </g>
   </g>
  </g>
  <g id="text_18">
   <g id="patch_17">
    <path d="M 172.171875 386.78175 
L 299.165625 386.78175 
Q 305.165625 386.78175 305.165625 380.78175 
L 305.165625 342.29325 
Q 305.165625 336.29325 299.165625 336.29325 
L 172.171875 336.29325 
Q 166.171875 336.29325 166.171875 342.29325 
L 166.171875 380.78175 
Q 166.171875 386.78175 172.171875 386.78175 
z
" style="fill:#ffffff;stroke:#808080;stroke-linejoin:miter;"/>
   </g>
   <!-- Dimension: 900 -->
   <defs>
    <path d="M 11.71875 12.40625 
L 22.015625 12.40625 
L 22.015625 0 
L 11.71875 0 
z
M 11.71875 51.703125 
L 22.015625 51.703125 
L 22.015625 39.3125 
L 11.71875 39.3125 
z
" id="DejaVuSans-3a"/>
    <path d="M 10.984375 1.515625 
L 10.984375 10.5 
Q 14.703125 8.734375 18.5 7.8125 
Q 22.3125 6.890625 25.984375 6.890625 
Q 35.75 6.890625 40.890625 13.453125 
Q 46.046875 20.015625 46.78125 33.40625 
Q 43.953125 29.203125 39.59375 26.953125 
Q 35.25 24.703125 29.984375 24.703125 
Q 19.046875 24.703125 12.671875 31.3125 
Q 6.296875 37.9375 6.296875 49.421875 
Q 6.296875 60.640625 12.9375 67.421875 
Q 19.578125 74.21875 30.609375 74.21875 
Q 43.265625 74.21875 49.921875 64.515625 
Q 56.59375 54.828125 56.59375 36.375 
Q 56.59375 19.140625 48.40625 8.859375 
Q 40.234375 -1.421875 26.421875 -1.421875 
Q 22.703125 -1.421875 18.890625 -0.6875 
Q 15.09375 0.046875 10.984375 1.515625 
z
M 30.609375 32.421875 
Q 37.25 32.421875 41.125 36.953125 
Q 45.015625 41.5 45.015625 49.421875 
Q 45.015625 57.28125 41.125 61.84375 
Q 37.25 66.40625 30.609375 66.40625 
Q 23.96875 66.40625 20.09375 61.84375 
Q 16.21875 57.28125 16.21875 49.421875 
Q 16.21875 41.5 20.09375 36.953125 
Q 23.96875 32.421875 30.609375 32.421875 
z
" id="DejaVuSans-39"/>
   </defs>
   <g transform="translate(172.171875 351.411375)scale(0.12 -0.12)">
    <use xlink:href="#DejaVuSans-44"/>
    <use x="77.001953" xlink:href="#DejaVuSans-69"/>
    <use x="104.785156" xlink:href="#DejaVuSans-6d"/>
    <use x="202.197266" xlink:href="#DejaVuSans-65"/>
    <use x="263.720703" xlink:href="#DejaVuSans-6e"/>
    <use x="327.099609" xlink:href="#DejaVuSans-73"/>
    <use x="379.199219" xlink:href="#DejaVuSans-69"/>
    <use x="406.982422" xlink:href="#DejaVuSans-6f"/>
    <use x="468.164062" xlink:href="#DejaVuSans-6e"/>
    <use x="531.542969" xlink:href="#DejaVuSans-3a"/>
    <use x="565.234375" xlink:href="#DejaVuSans-20"/>
    <use x="597.021484" xlink:href="#DejaVuSans-39"/>
    <use x="660.644531" xlink:href="#DejaVuSans-30"/>
    <use x="724.267578" xlink:href="#DejaVuSans-30"/>
   </g>
   <!-- Subdimension: 100 -->
   <defs>
    <path d="M 53.515625 70.515625 
L 53.515625 60.890625 
Q 47.90625 63.578125 42.921875 64.890625 
Q 37.9375 66.21875 33.296875 66.21875 
Q 25.25 66.21875 20.875 63.09375 
Q 16.5 59.96875 16.5 54.203125 
Q 16.5 49.359375 19.40625 46.890625 
Q 22.3125 44.4375 30.421875 42.921875 
L 36.375 41.703125 
Q 47.40625 39.59375 52.65625 34.296875 
Q 57.90625 29 57.90625 20.125 
Q 57.90625 9.515625 50.796875 4.046875 
Q 43.703125 -1.421875 29.984375 -1.421875 
Q 24.8125 -1.421875 18.96875 -0.25 
Q 13.140625 0.921875 6.890625 3.21875 
L 6.890625 13.375 
Q 12.890625 10.015625 18.65625 8.296875 
Q 24.421875 6.59375 29.984375 6.59375 
Q 38.421875 6.59375 43.015625 9.90625 
Q 47.609375 13.234375 47.609375 19.390625 
Q 47.609375 24.75 44.3125 27.78125 
Q 41.015625 30.8125 33.5 32.328125 
L 27.484375 33.5 
Q 16.453125 35.6875 11.515625 40.375 
Q 6.59375 45.0625 6.59375 53.421875 
Q 6.59375 63.09375 13.40625 68.65625 
Q 20.21875 74.21875 32.171875 74.21875 
Q 37.3125 74.21875 42.625 73.28125 
Q 47.953125 72.359375 53.515625 70.515625 
z
" id="DejaVuSans-53"/>
   </defs>
   <g transform="translate(172.171875 364.84875)scale(0.12 -0.12)">
    <use xlink:href="#DejaVuSans-53"/>
    <use x="63.476562" xlink:href="#DejaVuSans-75"/>
    <use x="126.855469" xlink:href="#DejaVuSans-62"/>
    <use x="190.332031" xlink:href="#DejaVuSans-64"/>
    <use x="253.808594" xlink:href="#DejaVuSans-69"/>
    <use x="281.591797" xlink:href="#DejaVuSans-6d"/>
    <use x="379.003906" xlink:href="#DejaVuSans-65"/>
    <use x="440.527344" xlink:href="#DejaVuSans-6e"/>
    <use x="503.90625" xlink:href="#DejaVuSans-73"/>
    <use x="556.005859" xlink:href="#DejaVuSans-69"/>
    <use x="583.789062" xlink:href="#DejaVuSans-6f"/>
    <use x="644.970703" xlink:href="#DejaVuSans-6e"/>
    <use x="708.349609" xlink:href="#DejaVuSans-3a"/>
    <use x="742.041016" xlink:href="#DejaVuSans-20"/>
    <use x="773.828125" xlink:href="#DejaVuSans-31"/>
    <use x="837.451172" xlink:href="#DejaVuSans-30"/>
    <use x="901.074219" xlink:href="#DejaVuSans-30"/>
   </g>
   <!-- Number of Points: 20 -->
   <defs>
    <path d="M 9.8125 72.90625 
L 23.09375 72.90625 
L 55.421875 11.921875 
L 55.421875 72.90625 
L 64.984375 72.90625 
L 64.984375 0 
L 51.703125 0 
L 19.390625 60.984375 
L 19.390625 0 
L 9.8125 0 
z
" id="DejaVuSans-4e"/>
    <path d="M 37.109375 75.984375 
L 37.109375 68.5 
L 28.515625 68.5 
Q 23.6875 68.5 21.796875 66.546875 
Q 19.921875 64.59375 19.921875 59.515625 
L 19.921875 54.6875 
L 34.71875 54.6875 
L 34.71875 47.703125 
L 19.921875 47.703125 
L 19.921875 0 
L 10.890625 0 
L 10.890625 47.703125 
L 2.296875 47.703125 
L 2.296875 54.6875 
L 10.890625 54.6875 
L 10.890625 58.5 
Q 10.890625 67.625 15.140625 71.796875 
Q 19.390625 75.984375 28.609375 75.984375 
z
" id="DejaVuSans-66"/>
   </defs>
   <g transform="translate(172.171875 378.286125)scale(0.12 -0.12)">
    <use xlink:href="#DejaVuSans-4e"/>
    <use x="74.804688" xlink:href="#DejaVuSans-75"/>
    <use x="138.183594" xlink:href="#DejaVuSans-6d"/>
    <use x="235.595703" xlink:href="#DejaVuSans-62"/>
    <use x="299.072266" xlink:href="#DejaVuSans-65"/>
    <use x="360.595703" xlink:href="#DejaVuSans-72"/>
    <use x="401.708984" xlink:href="#DejaVuSans-20"/>
    <use x="433.496094" xlink:href="#DejaVuSans-6f"/>
    <use x="494.677734" xlink:href="#DejaVuSans-66"/>
    <use x="529.882812" xlink:href="#DejaVuSans-20"/>
    <use x="561.669922" xlink:href="#DejaVuSans-50"/>
    <use x="621.925781" xlink:href="#DejaVuSans-6f"/>
    <use x="683.107422" xlink:href="#DejaVuSans-69"/>
    <use x="710.890625" xlink:href="#DejaVuSans-6e"/>
    <use x="774.269531" xlink:href="#DejaVuSans-74"/>
    <use x="813.478516" xlink:href="#DejaVuSans-73"/>
    <use x="865.578125" xlink:href="#DejaVuSans-3a"/>
    <use x="899.269531" xlink:href="#DejaVuSans-20"/>
    <use x="931.056641" xlink:href="#DejaVuSans-32"/>
    <use x="994.679688" xlink:href="#DejaVuSans-30"/>
   </g>
  </g>
 </g>
 <defs>
  <clipPath id="pa7e727aaaa">
   <rect height="266.112" width="357.12" x="62.86875" y="22.318125"/>
  </clipPath>
 </defs>
</svg>
