<?xml version="1.0" encoding="utf-8" standalone="no"?>
<!DOCTYPE svg PUBLIC "-//W3C//DTD SVG 1.1//EN"
  "http://www.w3.org/Graphics/SVG/1.1/DTD/svg11.dtd">
<!-- Created with matplotlib (http://matplotlib.org/) -->
<svg height="387pt" version="1.1" viewBox="0 0 430 387" width="430pt" xmlns="http://www.w3.org/2000/svg" xmlns:xlink="http://www.w3.org/1999/xlink">
 <defs>
  <style type="text/css">
*{stroke-linecap:butt;stroke-linejoin:round;}
  </style>
 </defs>
 <g id="figure_1">
  <g id="patch_1">
   <path d="M 0 387.98175 
L 430.68875 387.98175 
L 430.68875 0 
L 0 0 
z
" style="fill:#ffffff;"/>
  </g>
  <g id="axes_1">
   <g id="patch_2">
    <path d="M 62.86875 288.430125 
L 419.98875 288.430125 
L 419.98875 22.318125 
L 62.86875 22.318125 
z
" style="fill:#ffffff;"/>
   </g>
   <g id="patch_3">
    <path clip-path="url(#p862343c033)" d="M 79.101477 288.430125 
L 111.566932 288.430125 
L 111.566932 54.48551 
L 79.101477 54.48551 
z
" style="fill:#ff7f0e;"/>
   </g>
   <g id="patch_4">
    <path clip-path="url(#p862343c033)" d="M 111.566932 288.430125 
L 144.032386 288.430125 
L 144.032386 34.990125 
L 111.566932 34.990125 
z
" style="fill:#ff7f0e;"/>
   </g>
   <g id="patch_5">
    <path clip-path="url(#p862343c033)" d="M 144.032386 288.430125 
L 176.497841 288.430125 
L 176.497841 54.48551 
L 144.032386 54.48551 
z
" style="fill:#ff7f0e;"/>
   </g>
   <g id="patch_6">
    <path clip-path="url(#p862343c033)" d="M 176.497841 288.430125 
L 208.963295 288.430125 
L 208.963295 86.977817 
L 176.497841 86.977817 
z
" style="fill:#ff7f0e;"/>
   </g>
   <g id="patch_7">
    <path clip-path="url(#p862343c033)" d="M 208.963295 288.430125 
L 241.42875 288.430125 
L 241.42875 197.451663 
L 208.963295 197.451663 
z
" style="fill:#ff7f0e;"/>
   </g>
   <g id="patch_8">
    <path clip-path="url(#p862343c033)" d="M 241.42875 288.430125 
L 273.894205 288.430125 
L 273.894205 171.457817 
L 241.42875 171.457817 
z
" style="fill:#ff7f0e;"/>
   </g>
   <g id="patch_9">
    <path clip-path="url(#p862343c033)" d="M 273.894205 288.430125 
L 306.359659 288.430125 
L 306.359659 236.442433 
L 273.894205 236.442433 
z
" style="fill:#ff7f0e;"/>
   </g>
   <g id="patch_10">
    <path clip-path="url(#p862343c033)" d="M 306.359659 288.430125 
L 338.825114 288.430125 
L 338.825114 262.436279 
L 306.359659 262.436279 
z
" style="fill:#ff7f0e;"/>
   </g>
   <g id="patch_11">
    <path clip-path="url(#p862343c033)" d="M 338.825114 288.430125 
L 371.290568 288.430125 
L 371.290568 268.93474 
L 338.825114 268.93474 
z
" style="fill:#ff7f0e;"/>
   </g>
   <g id="patch_12">
    <path clip-path="url(#p862343c033)" d="M 371.290568 288.430125 
L 403.756023 288.430125 
L 403.756023 281.931663 
L 371.290568 281.931663 
z
" style="fill:#ff7f0e;"/>
   </g>
   <g id="matplotlib.axis_1">
    <g id="xtick_1">
     <g id="line2d_1">
      <defs>
       <path d="M 0 0 
L 0 3.5 
" id="m10dd11bb04" style="stroke:#000000;stroke-width:0.8;"/>
      </defs>
      <g>
       <use style="stroke:#000000;stroke-width:0.8;" x="78.946425" xlink:href="#m10dd11bb04" y="288.430125"/>
      </g>
     </g>
     <g id="text_1">
      <!-- 0 -->
      <defs>
       <path d="M 31.78125 66.40625 
Q 24.171875 66.40625 20.328125 58.90625 
Q 16.5 51.421875 16.5 36.375 
Q 16.5 21.390625 20.328125 13.890625 
Q 24.171875 6.390625 31.78125 6.390625 
Q 39.453125 6.390625 43.28125 13.890625 
Q 47.125 21.390625 47.125 36.375 
Q 47.125 51.421875 43.28125 58.90625 
Q 39.453125 66.40625 31.78125 66.40625 
z
M 31.78125 74.21875 
Q 44.046875 74.21875 50.515625 64.515625 
Q 56.984375 54.828125 56.984375 36.375 
Q 56.984375 17.96875 50.515625 8.265625 
Q 44.046875 -1.421875 31.78125 -1.421875 
Q 19.53125 -1.421875 13.0625 8.265625 
Q 6.59375 17.96875 6.59375 36.375 
Q 6.59375 54.828125 13.0625 64.515625 
Q 19.53125 74.21875 31.78125 74.21875 
z
" id="DejaVuSans-30"/>
      </defs>
      <g transform="translate(75.765175 303.028562)scale(0.1 -0.1)">
       <use xlink:href="#DejaVuSans-30"/>
      </g>
     </g>
    </g>
    <g id="xtick_2">
     <g id="line2d_2">
      <g>
       <use style="stroke:#000000;stroke-width:0.8;" x="128.043734" xlink:href="#m10dd11bb04" y="288.430125"/>
      </g>
     </g>
     <g id="text_2">
      <!-- 500 -->
      <defs>
       <path d="M 10.796875 72.90625 
L 49.515625 72.90625 
L 49.515625 64.59375 
L 19.828125 64.59375 
L 19.828125 46.734375 
Q 21.96875 47.46875 24.109375 47.828125 
Q 26.265625 48.1875 28.421875 48.1875 
Q 40.625 48.1875 47.75 41.5 
Q 54.890625 34.8125 54.890625 23.390625 
Q 54.890625 11.625 47.5625 5.09375 
Q 40.234375 -1.421875 26.90625 -1.421875 
Q 22.3125 -1.421875 17.546875 -0.640625 
Q 12.796875 0.140625 7.71875 1.703125 
L 7.71875 11.625 
Q 12.109375 9.234375 16.796875 8.0625 
Q 21.484375 6.890625 26.703125 6.890625 
Q 35.15625 6.890625 40.078125 11.328125 
Q 45.015625 15.765625 45.015625 23.390625 
Q 45.015625 31 40.078125 35.4375 
Q 35.15625 39.890625 26.703125 39.890625 
Q 22.75 39.890625 18.8125 39.015625 
Q 14.890625 38.140625 10.796875 36.28125 
z
" id="DejaVuSans-35"/>
      </defs>
      <g transform="translate(118.499984 303.028562)scale(0.1 -0.1)">
       <use xlink:href="#DejaVuSans-35"/>
       <use x="63.623047" xlink:href="#DejaVuSans-30"/>
       <use x="127.246094" xlink:href="#DejaVuSans-30"/>
      </g>
     </g>
    </g>
    <g id="xtick_3">
     <g id="line2d_3">
      <g>
       <use style="stroke:#000000;stroke-width:0.8;" x="177.141042" xlink:href="#m10dd11bb04" y="288.430125"/>
      </g>
     </g>
     <g id="text_3">
      <!-- 1000 -->
      <defs>
       <path d="M 12.40625 8.296875 
L 28.515625 8.296875 
L 28.515625 63.921875 
L 10.984375 60.40625 
L 10.984375 69.390625 
L 28.421875 72.90625 
L 38.28125 72.90625 
L 38.28125 8.296875 
L 54.390625 8.296875 
L 54.390625 0 
L 12.40625 0 
z
" id="DejaVuSans-31"/>
      </defs>
      <g transform="translate(164.416042 303.028562)scale(0.1 -0.1)">
       <use xlink:href="#DejaVuSans-31"/>
       <use x="63.623047" xlink:href="#DejaVuSans-30"/>
       <use x="127.246094" xlink:href="#DejaVuSans-30"/>
       <use x="190.869141" xlink:href="#DejaVuSans-30"/>
      </g>
     </g>
    </g>
    <g id="xtick_4">
     <g id="line2d_4">
      <g>
       <use style="stroke:#000000;stroke-width:0.8;" x="226.238351" xlink:href="#m10dd11bb04" y="288.430125"/>
      </g>
     </g>
     <g id="text_4">
      <!-- 1500 -->
      <g transform="translate(213.513351 303.028562)scale(0.1 -0.1)">
       <use xlink:href="#DejaVuSans-31"/>
       <use x="63.623047" xlink:href="#DejaVuSans-35"/>
       <use x="127.246094" xlink:href="#DejaVuSans-30"/>
       <use x="190.869141" xlink:href="#DejaVuSans-30"/>
      </g>
     </g>
    </g>
    <g id="xtick_5">
     <g id="line2d_5">
      <g>
       <use style="stroke:#000000;stroke-width:0.8;" x="275.335659" xlink:href="#m10dd11bb04" y="288.430125"/>
      </g>
     </g>
     <g id="text_5">
      <!-- 2000 -->
      <defs>
       <path d="M 19.1875 8.296875 
L 53.609375 8.296875 
L 53.609375 0 
L 7.328125 0 
L 7.328125 8.296875 
Q 12.9375 14.109375 22.625 23.890625 
Q 32.328125 33.6875 34.8125 36.53125 
Q 39.546875 41.84375 41.421875 45.53125 
Q 43.3125 49.21875 43.3125 52.78125 
Q 43.3125 58.59375 39.234375 62.25 
Q 35.15625 65.921875 28.609375 65.921875 
Q 23.96875 65.921875 18.8125 64.3125 
Q 13.671875 62.703125 7.8125 59.421875 
L 7.8125 69.390625 
Q 13.765625 71.78125 18.9375 73 
Q 24.125 74.21875 28.421875 74.21875 
Q 39.75 74.21875 46.484375 68.546875 
Q 53.21875 62.890625 53.21875 53.421875 
Q 53.21875 48.921875 51.53125 44.890625 
Q 49.859375 40.875 45.40625 35.40625 
Q 44.1875 33.984375 37.640625 27.21875 
Q 31.109375 20.453125 19.1875 8.296875 
z
" id="DejaVuSans-32"/>
      </defs>
      <g transform="translate(262.610659 303.028562)scale(0.1 -0.1)">
       <use xlink:href="#DejaVuSans-32"/>
       <use x="63.623047" xlink:href="#DejaVuSans-30"/>
       <use x="127.246094" xlink:href="#DejaVuSans-30"/>
       <use x="190.869141" xlink:href="#DejaVuSans-30"/>
      </g>
     </g>
    </g>
    <g id="xtick_6">
     <g id="line2d_6">
      <g>
       <use style="stroke:#000000;stroke-width:0.8;" x="324.432967" xlink:href="#m10dd11bb04" y="288.430125"/>
      </g>
     </g>
     <g id="text_6">
      <!-- 2500 -->
      <g transform="translate(311.707967 303.028562)scale(0.1 -0.1)">
       <use xlink:href="#DejaVuSans-32"/>
       <use x="63.623047" xlink:href="#DejaVuSans-35"/>
       <use x="127.246094" xlink:href="#DejaVuSans-30"/>
       <use x="190.869141" xlink:href="#DejaVuSans-30"/>
      </g>
     </g>
    </g>
    <g id="xtick_7">
     <g id="line2d_7">
      <g>
       <use style="stroke:#000000;stroke-width:0.8;" x="373.530276" xlink:href="#m10dd11bb04" y="288.430125"/>
      </g>
     </g>
     <g id="text_7">
      <!-- 3000 -->
      <defs>
       <path d="M 40.578125 39.3125 
Q 47.65625 37.796875 51.625 33 
Q 55.609375 28.21875 55.609375 21.1875 
Q 55.609375 10.40625 48.1875 4.484375 
Q 40.765625 -1.421875 27.09375 -1.421875 
Q 22.515625 -1.421875 17.65625 -0.515625 
Q 12.796875 0.390625 7.625 2.203125 
L 7.625 11.71875 
Q 11.71875 9.328125 16.59375 8.109375 
Q 21.484375 6.890625 26.8125 6.890625 
Q 36.078125 6.890625 40.9375 10.546875 
Q 45.796875 14.203125 45.796875 21.1875 
Q 45.796875 27.640625 41.28125 31.265625 
Q 36.765625 34.90625 28.71875 34.90625 
L 20.21875 34.90625 
L 20.21875 43.015625 
L 29.109375 43.015625 
Q 36.375 43.015625 40.234375 45.921875 
Q 44.09375 48.828125 44.09375 54.296875 
Q 44.09375 59.90625 40.109375 62.90625 
Q 36.140625 65.921875 28.71875 65.921875 
Q 24.65625 65.921875 20.015625 65.03125 
Q 15.375 64.15625 9.8125 62.3125 
L 9.8125 71.09375 
Q 15.4375 72.65625 20.34375 73.4375 
Q 25.25 74.21875 29.59375 74.21875 
Q 40.828125 74.21875 47.359375 69.109375 
Q 53.90625 64.015625 53.90625 55.328125 
Q 53.90625 49.265625 50.4375 45.09375 
Q 46.96875 40.921875 40.578125 39.3125 
z
" id="DejaVuSans-33"/>
      </defs>
      <g transform="translate(360.805276 303.028562)scale(0.1 -0.1)">
       <use xlink:href="#DejaVuSans-33"/>
       <use x="63.623047" xlink:href="#DejaVuSans-30"/>
       <use x="127.246094" xlink:href="#DejaVuSans-30"/>
       <use x="190.869141" xlink:href="#DejaVuSans-30"/>
      </g>
     </g>
    </g>
    <g id="text_8">
     <!-- Distance -->
     <defs>
      <path d="M 19.671875 64.796875 
L 19.671875 8.109375 
L 31.59375 8.109375 
Q 46.6875 8.109375 53.6875 14.9375 
Q 60.6875 21.78125 60.6875 36.53125 
Q 60.6875 51.171875 53.6875 57.984375 
Q 46.6875 64.796875 31.59375 64.796875 
z
M 9.8125 72.90625 
L 30.078125 72.90625 
Q 51.265625 72.90625 61.171875 64.09375 
Q 71.09375 55.28125 71.09375 36.53125 
Q 71.09375 17.671875 61.125 8.828125 
Q 51.171875 0 30.078125 0 
L 9.8125 0 
z
" id="DejaVuSans-44"/>
      <path d="M 9.421875 54.6875 
L 18.40625 54.6875 
L 18.40625 0 
L 9.421875 0 
z
M 9.421875 75.984375 
L 18.40625 75.984375 
L 18.40625 64.59375 
L 9.421875 64.59375 
z
" id="DejaVuSans-69"/>
      <path d="M 44.28125 53.078125 
L 44.28125 44.578125 
Q 40.484375 46.53125 36.375 47.5 
Q 32.28125 48.484375 27.875 48.484375 
Q 21.1875 48.484375 17.84375 46.4375 
Q 14.5 44.390625 14.5 40.28125 
Q 14.5 37.15625 16.890625 35.375 
Q 19.28125 33.59375 26.515625 31.984375 
L 29.59375 31.296875 
Q 39.15625 29.25 43.1875 25.515625 
Q 47.21875 21.78125 47.21875 15.09375 
Q 47.21875 7.46875 41.1875 3.015625 
Q 35.15625 -1.421875 24.609375 -1.421875 
Q 20.21875 -1.421875 15.453125 -0.5625 
Q 10.6875 0.296875 5.421875 2 
L 5.421875 11.28125 
Q 10.40625 8.6875 15.234375 7.390625 
Q 20.0625 6.109375 24.8125 6.109375 
Q 31.15625 6.109375 34.5625 8.28125 
Q 37.984375 10.453125 37.984375 14.40625 
Q 37.984375 18.0625 35.515625 20.015625 
Q 33.0625 21.96875 24.703125 23.78125 
L 21.578125 24.515625 
Q 13.234375 26.265625 9.515625 29.90625 
Q 5.8125 33.546875 5.8125 39.890625 
Q 5.8125 47.609375 11.28125 51.796875 
Q 16.75 56 26.8125 56 
Q 31.78125 56 36.171875 55.265625 
Q 40.578125 54.546875 44.28125 53.078125 
z
" id="DejaVuSans-73"/>
      <path d="M 18.3125 70.21875 
L 18.3125 54.6875 
L 36.8125 54.6875 
L 36.8125 47.703125 
L 18.3125 47.703125 
L 18.3125 18.015625 
Q 18.3125 11.328125 20.140625 9.421875 
Q 21.96875 7.515625 27.59375 7.515625 
L 36.8125 7.515625 
L 36.8125 0 
L 27.59375 0 
Q 17.1875 0 13.234375 3.875 
Q 9.28125 7.765625 9.28125 18.015625 
L 9.28125 47.703125 
L 2.6875 47.703125 
L 2.6875 54.6875 
L 9.28125 54.6875 
L 9.28125 70.21875 
z
" id="DejaVuSans-74"/>
      <path d="M 34.28125 27.484375 
Q 23.390625 27.484375 19.1875 25 
Q 14.984375 22.515625 14.984375 16.5 
Q 14.984375 11.71875 18.140625 8.90625 
Q 21.296875 6.109375 26.703125 6.109375 
Q 34.1875 6.109375 38.703125 11.40625 
Q 43.21875 16.703125 43.21875 25.484375 
L 43.21875 27.484375 
z
M 52.203125 31.203125 
L 52.203125 0 
L 43.21875 0 
L 43.21875 8.296875 
Q 40.140625 3.328125 35.546875 0.953125 
Q 30.953125 -1.421875 24.3125 -1.421875 
Q 15.921875 -1.421875 10.953125 3.296875 
Q 6 8.015625 6 15.921875 
Q 6 25.140625 12.171875 29.828125 
Q 18.359375 34.515625 30.609375 34.515625 
L 43.21875 34.515625 
L 43.21875 35.40625 
Q 43.21875 41.609375 39.140625 45 
Q 35.0625 48.390625 27.6875 48.390625 
Q 23 48.390625 18.546875 47.265625 
Q 14.109375 46.140625 10.015625 43.890625 
L 10.015625 52.203125 
Q 14.9375 54.109375 19.578125 55.046875 
Q 24.21875 56 28.609375 56 
Q 40.484375 56 46.34375 49.84375 
Q 52.203125 43.703125 52.203125 31.203125 
z
" id="DejaVuSans-61"/>
      <path d="M 54.890625 33.015625 
L 54.890625 0 
L 45.90625 0 
L 45.90625 32.71875 
Q 45.90625 40.484375 42.875 44.328125 
Q 39.84375 48.1875 33.796875 48.1875 
Q 26.515625 48.1875 22.3125 43.546875 
Q 18.109375 38.921875 18.109375 30.90625 
L 18.109375 0 
L 9.078125 0 
L 9.078125 54.6875 
L 18.109375 54.6875 
L 18.109375 46.1875 
Q 21.34375 51.125 25.703125 53.5625 
Q 30.078125 56 35.796875 56 
Q 45.21875 56 50.046875 50.171875 
Q 54.890625 44.34375 54.890625 33.015625 
z
" id="DejaVuSans-6e"/>
      <path d="M 48.78125 52.59375 
L 48.78125 44.1875 
Q 44.96875 46.296875 41.140625 47.34375 
Q 37.3125 48.390625 33.40625 48.390625 
Q 24.65625 48.390625 19.8125 42.84375 
Q 14.984375 37.3125 14.984375 27.296875 
Q 14.984375 17.28125 19.8125 11.734375 
Q 24.65625 6.203125 33.40625 6.203125 
Q 37.3125 6.203125 41.140625 7.25 
Q 44.96875 8.296875 48.78125 10.40625 
L 48.78125 2.09375 
Q 45.015625 0.34375 40.984375 -0.53125 
Q 36.96875 -1.421875 32.421875 -1.421875 
Q 20.0625 -1.421875 12.78125 6.34375 
Q 5.515625 14.109375 5.515625 27.296875 
Q 5.515625 40.671875 12.859375 48.328125 
Q 20.21875 56 33.015625 56 
Q 37.15625 56 41.109375 55.140625 
Q 45.0625 54.296875 48.78125 52.59375 
z
" id="DejaVuSans-63"/>
      <path d="M 56.203125 29.59375 
L 56.203125 25.203125 
L 14.890625 25.203125 
Q 15.484375 15.921875 20.484375 11.0625 
Q 25.484375 6.203125 34.421875 6.203125 
Q 39.59375 6.203125 44.453125 7.46875 
Q 49.3125 8.734375 54.109375 11.28125 
L 54.109375 2.78125 
Q 49.265625 0.734375 44.1875 -0.34375 
Q 39.109375 -1.421875 33.890625 -1.421875 
Q 20.796875 -1.421875 13.15625 6.1875 
Q 5.515625 13.8125 5.515625 26.8125 
Q 5.515625 40.234375 12.765625 48.109375 
Q 20.015625 56 32.328125 56 
Q 43.359375 56 49.78125 48.890625 
Q 56.203125 41.796875 56.203125 29.59375 
z
M 47.21875 32.234375 
Q 47.125 39.59375 43.09375 43.984375 
Q 39.0625 48.390625 32.421875 48.390625 
Q 24.90625 48.390625 20.390625 44.140625 
Q 15.875 39.890625 15.1875 32.171875 
z
" id="DejaVuSans-65"/>
     </defs>
     <g transform="translate(219.56625 316.706687)scale(0.1 -0.1)">
      <use xlink:href="#DejaVuSans-44"/>
      <use x="77.001953" xlink:href="#DejaVuSans-69"/>
      <use x="104.785156" xlink:href="#DejaVuSans-73"/>
      <use x="156.884766" xlink:href="#DejaVuSans-74"/>
      <use x="196.09375" xlink:href="#DejaVuSans-61"/>
      <use x="257.373047" xlink:href="#DejaVuSans-6e"/>
      <use x="320.751953" xlink:href="#DejaVuSans-63"/>
      <use x="375.732422" xlink:href="#DejaVuSans-65"/>
     </g>
    </g>
   </g>
   <g id="matplotlib.axis_2">
    <g id="ytick_1">
     <g id="line2d_8">
      <defs>
       <path d="M 0 0 
L -3.5 0 
" id="m763e34e09f" style="stroke:#000000;stroke-width:0.8;"/>
      </defs>
      <g>
       <use style="stroke:#000000;stroke-width:0.8;" x="62.86875" xlink:href="#m763e34e09f" y="288.430125"/>
      </g>
     </g>
     <g id="text_9">
      <!-- 0.0000 -->
      <defs>
       <path d="M 10.6875 12.40625 
L 21 12.40625 
L 21 0 
L 10.6875 0 
z
" id="DejaVuSans-2e"/>
      </defs>
      <g transform="translate(20.878125 292.229344)scale(0.1 -0.1)">
       <use xlink:href="#DejaVuSans-30"/>
       <use x="63.623047" xlink:href="#DejaVuSans-2e"/>
       <use x="95.410156" xlink:href="#DejaVuSans-30"/>
       <use x="159.033203" xlink:href="#DejaVuSans-30"/>
       <use x="222.65625" xlink:href="#DejaVuSans-30"/>
       <use x="286.279297" xlink:href="#DejaVuSans-30"/>
      </g>
     </g>
    </g>
    <g id="ytick_2">
     <g id="line2d_9">
      <g>
       <use style="stroke:#000000;stroke-width:0.8;" x="62.86875" xlink:href="#m763e34e09f" y="247.607779"/>
      </g>
     </g>
     <g id="text_10">
      <!-- 0.0001 -->
      <g transform="translate(20.878125 251.406998)scale(0.1 -0.1)">
       <use xlink:href="#DejaVuSans-30"/>
       <use x="63.623047" xlink:href="#DejaVuSans-2e"/>
       <use x="95.410156" xlink:href="#DejaVuSans-30"/>
       <use x="159.033203" xlink:href="#DejaVuSans-30"/>
       <use x="222.65625" xlink:href="#DejaVuSans-30"/>
       <use x="286.279297" xlink:href="#DejaVuSans-31"/>
      </g>
     </g>
    </g>
    <g id="ytick_3">
     <g id="line2d_10">
      <g>
       <use style="stroke:#000000;stroke-width:0.8;" x="62.86875" xlink:href="#m763e34e09f" y="206.785433"/>
      </g>
     </g>
     <g id="text_11">
      <!-- 0.0002 -->
      <g transform="translate(20.878125 210.584651)scale(0.1 -0.1)">
       <use xlink:href="#DejaVuSans-30"/>
       <use x="63.623047" xlink:href="#DejaVuSans-2e"/>
       <use x="95.410156" xlink:href="#DejaVuSans-30"/>
       <use x="159.033203" xlink:href="#DejaVuSans-30"/>
       <use x="222.65625" xlink:href="#DejaVuSans-30"/>
       <use x="286.279297" xlink:href="#DejaVuSans-32"/>
      </g>
     </g>
    </g>
    <g id="ytick_4">
     <g id="line2d_11">
      <g>
       <use style="stroke:#000000;stroke-width:0.8;" x="62.86875" xlink:href="#m763e34e09f" y="165.963086"/>
      </g>
     </g>
     <g id="text_12">
      <!-- 0.0003 -->
      <g transform="translate(20.878125 169.762305)scale(0.1 -0.1)">
       <use xlink:href="#DejaVuSans-30"/>
       <use x="63.623047" xlink:href="#DejaVuSans-2e"/>
       <use x="95.410156" xlink:href="#DejaVuSans-30"/>
       <use x="159.033203" xlink:href="#DejaVuSans-30"/>
       <use x="222.65625" xlink:href="#DejaVuSans-30"/>
       <use x="286.279297" xlink:href="#DejaVuSans-33"/>
      </g>
     </g>
    </g>
    <g id="ytick_5">
     <g id="line2d_12">
      <g>
       <use style="stroke:#000000;stroke-width:0.8;" x="62.86875" xlink:href="#m763e34e09f" y="125.14074"/>
      </g>
     </g>
     <g id="text_13">
      <!-- 0.0004 -->
      <defs>
       <path d="M 37.796875 64.3125 
L 12.890625 25.390625 
L 37.796875 25.390625 
z
M 35.203125 72.90625 
L 47.609375 72.90625 
L 47.609375 25.390625 
L 58.015625 25.390625 
L 58.015625 17.1875 
L 47.609375 17.1875 
L 47.609375 0 
L 37.796875 0 
L 37.796875 17.1875 
L 4.890625 17.1875 
L 4.890625 26.703125 
z
" id="DejaVuSans-34"/>
      </defs>
      <g transform="translate(20.878125 128.939959)scale(0.1 -0.1)">
       <use xlink:href="#DejaVuSans-30"/>
       <use x="63.623047" xlink:href="#DejaVuSans-2e"/>
       <use x="95.410156" xlink:href="#DejaVuSans-30"/>
       <use x="159.033203" xlink:href="#DejaVuSans-30"/>
       <use x="222.65625" xlink:href="#DejaVuSans-30"/>
       <use x="286.279297" xlink:href="#DejaVuSans-34"/>
      </g>
     </g>
    </g>
    <g id="ytick_6">
     <g id="line2d_13">
      <g>
       <use style="stroke:#000000;stroke-width:0.8;" x="62.86875" xlink:href="#m763e34e09f" y="84.318394"/>
      </g>
     </g>
     <g id="text_14">
      <!-- 0.0005 -->
      <g transform="translate(20.878125 88.117613)scale(0.1 -0.1)">
       <use xlink:href="#DejaVuSans-30"/>
       <use x="63.623047" xlink:href="#DejaVuSans-2e"/>
       <use x="95.410156" xlink:href="#DejaVuSans-30"/>
       <use x="159.033203" xlink:href="#DejaVuSans-30"/>
       <use x="222.65625" xlink:href="#DejaVuSans-30"/>
       <use x="286.279297" xlink:href="#DejaVuSans-35"/>
      </g>
     </g>
    </g>
    <g id="ytick_7">
     <g id="line2d_14">
      <g>
       <use style="stroke:#000000;stroke-width:0.8;" x="62.86875" xlink:href="#m763e34e09f" y="43.496048"/>
      </g>
     </g>
     <g id="text_15">
      <!-- 0.0006 -->
      <defs>
       <path d="M 33.015625 40.375 
Q 26.375 40.375 22.484375 35.828125 
Q 18.609375 31.296875 18.609375 23.390625 
Q 18.609375 15.53125 22.484375 10.953125 
Q 26.375 6.390625 33.015625 6.390625 
Q 39.65625 6.390625 43.53125 10.953125 
Q 47.40625 15.53125 47.40625 23.390625 
Q 47.40625 31.296875 43.53125 35.828125 
Q 39.65625 40.375 33.015625 40.375 
z
M 52.59375 71.296875 
L 52.59375 62.3125 
Q 48.875 64.0625 45.09375 64.984375 
Q 41.3125 65.921875 37.59375 65.921875 
Q 27.828125 65.921875 22.671875 59.328125 
Q 17.53125 52.734375 16.796875 39.40625 
Q 19.671875 43.65625 24.015625 45.921875 
Q 28.375 48.1875 33.59375 48.1875 
Q 44.578125 48.1875 50.953125 41.515625 
Q 57.328125 34.859375 57.328125 23.390625 
Q 57.328125 12.15625 50.6875 5.359375 
Q 44.046875 -1.421875 33.015625 -1.421875 
Q 20.359375 -1.421875 13.671875 8.265625 
Q 6.984375 17.96875 6.984375 36.375 
Q 6.984375 53.65625 15.1875 63.9375 
Q 23.390625 74.21875 37.203125 74.21875 
Q 40.921875 74.21875 44.703125 73.484375 
Q 48.484375 72.75 52.59375 71.296875 
z
" id="DejaVuSans-36"/>
      </defs>
      <g transform="translate(20.878125 47.295266)scale(0.1 -0.1)">
       <use xlink:href="#DejaVuSans-30"/>
       <use x="63.623047" xlink:href="#DejaVuSans-2e"/>
       <use x="95.410156" xlink:href="#DejaVuSans-30"/>
       <use x="159.033203" xlink:href="#DejaVuSans-30"/>
       <use x="222.65625" xlink:href="#DejaVuSans-30"/>
       <use x="286.279297" xlink:href="#DejaVuSans-36"/>
      </g>
     </g>
    </g>
    <g id="text_16">
     <!-- Probability -->
     <defs>
      <path d="M 19.671875 64.796875 
L 19.671875 37.40625 
L 32.078125 37.40625 
Q 38.96875 37.40625 42.71875 40.96875 
Q 46.484375 44.53125 46.484375 51.125 
Q 46.484375 57.671875 42.71875 61.234375 
Q 38.96875 64.796875 32.078125 64.796875 
z
M 9.8125 72.90625 
L 32.078125 72.90625 
Q 44.34375 72.90625 50.609375 67.359375 
Q 56.890625 61.8125 56.890625 51.125 
Q 56.890625 40.328125 50.609375 34.8125 
Q 44.34375 29.296875 32.078125 29.296875 
L 19.671875 29.296875 
L 19.671875 0 
L 9.8125 0 
z
" id="DejaVuSans-50"/>
      <path d="M 41.109375 46.296875 
Q 39.59375 47.171875 37.8125 47.578125 
Q 36.03125 48 33.890625 48 
Q 26.265625 48 22.1875 43.046875 
Q 18.109375 38.09375 18.109375 28.8125 
L 18.109375 0 
L 9.078125 0 
L 9.078125 54.6875 
L 18.109375 54.6875 
L 18.109375 46.1875 
Q 20.953125 51.171875 25.484375 53.578125 
Q 30.03125 56 36.53125 56 
Q 37.453125 56 38.578125 55.875 
Q 39.703125 55.765625 41.0625 55.515625 
z
" id="DejaVuSans-72"/>
      <path d="M 30.609375 48.390625 
Q 23.390625 48.390625 19.1875 42.75 
Q 14.984375 37.109375 14.984375 27.296875 
Q 14.984375 17.484375 19.15625 11.84375 
Q 23.34375 6.203125 30.609375 6.203125 
Q 37.796875 6.203125 41.984375 11.859375 
Q 46.1875 17.53125 46.1875 27.296875 
Q 46.1875 37.015625 41.984375 42.703125 
Q 37.796875 48.390625 30.609375 48.390625 
z
M 30.609375 56 
Q 42.328125 56 49.015625 48.375 
Q 55.71875 40.765625 55.71875 27.296875 
Q 55.71875 13.875 49.015625 6.21875 
Q 42.328125 -1.421875 30.609375 -1.421875 
Q 18.84375 -1.421875 12.171875 6.21875 
Q 5.515625 13.875 5.515625 27.296875 
Q 5.515625 40.765625 12.171875 48.375 
Q 18.84375 56 30.609375 56 
z
" id="DejaVuSans-6f"/>
      <path d="M 48.6875 27.296875 
Q 48.6875 37.203125 44.609375 42.84375 
Q 40.53125 48.484375 33.40625 48.484375 
Q 26.265625 48.484375 22.1875 42.84375 
Q 18.109375 37.203125 18.109375 27.296875 
Q 18.109375 17.390625 22.1875 11.75 
Q 26.265625 6.109375 33.40625 6.109375 
Q 40.53125 6.109375 44.609375 11.75 
Q 48.6875 17.390625 48.6875 27.296875 
z
M 18.109375 46.390625 
Q 20.953125 51.265625 25.265625 53.625 
Q 29.59375 56 35.59375 56 
Q 45.5625 56 51.78125 48.09375 
Q 58.015625 40.1875 58.015625 27.296875 
Q 58.015625 14.40625 51.78125 6.484375 
Q 45.5625 -1.421875 35.59375 -1.421875 
Q 29.59375 -1.421875 25.265625 0.953125 
Q 20.953125 3.328125 18.109375 8.203125 
L 18.109375 0 
L 9.078125 0 
L 9.078125 75.984375 
L 18.109375 75.984375 
z
" id="DejaVuSans-62"/>
      <path d="M 9.421875 75.984375 
L 18.40625 75.984375 
L 18.40625 0 
L 9.421875 0 
z
" id="DejaVuSans-6c"/>
      <path d="M 32.171875 -5.078125 
Q 28.375 -14.84375 24.75 -17.8125 
Q 21.140625 -20.796875 15.09375 -20.796875 
L 7.90625 -20.796875 
L 7.90625 -13.28125 
L 13.1875 -13.28125 
Q 16.890625 -13.28125 18.9375 -11.515625 
Q 21 -9.765625 23.484375 -3.21875 
L 25.09375 0.875 
L 2.984375 54.6875 
L 12.5 54.6875 
L 29.59375 11.921875 
L 46.6875 54.6875 
L 56.203125 54.6875 
z
" id="DejaVuSans-79"/>
     </defs>
     <g transform="translate(14.798438 182.000687)rotate(-90)scale(0.1 -0.1)">
      <use xlink:href="#DejaVuSans-50"/>
      <use x="60.287109" xlink:href="#DejaVuSans-72"/>
      <use x="101.369141" xlink:href="#DejaVuSans-6f"/>
      <use x="162.550781" xlink:href="#DejaVuSans-62"/>
      <use x="226.027344" xlink:href="#DejaVuSans-61"/>
      <use x="287.306641" xlink:href="#DejaVuSans-62"/>
      <use x="350.783203" xlink:href="#DejaVuSans-69"/>
      <use x="378.566406" xlink:href="#DejaVuSans-6c"/>
      <use x="406.349609" xlink:href="#DejaVuSans-69"/>
      <use x="434.132812" xlink:href="#DejaVuSans-74"/>
      <use x="473.341797" xlink:href="#DejaVuSans-79"/>
     </g>
    </g>
   </g>
   <g id="line2d_15">
    <path clip-path="url(#p862343c033)" d="M 79.101477 198.866731 
L 84.599519 188.276181 
L 89.854186 177.687148 
L 96.92558 162.877172 
L 120.493763 112.444858 
L 124.913993 103.512093 
L 131.358303 91.218555 
L 135.83461 83.324427 
L 139.923686 76.66739 
L 142.274764 73.106903 
L 146.742371 66.930298 
L 149.771702 63.213687 
L 151.805827 60.944991 
L 156.528849 56.417319 
L 159.362023 54.218909 
L 162.022778 52.520821 
L 163.769688 51.603024 
L 165.907012 50.695799 
L 169.465771 49.7186 
L 171.827435 49.441421 
L 172.930539 49.413901 
L 175.477209 49.598435 
L 175.763714 49.640837 
L 179.724114 50.673281 
L 181.471023 51.391383 
L 184.45572 52.984974 
L 186.168424 54.105241 
L 187.915333 55.39975 
L 190.631875 57.71127 
L 193.456364 60.489144 
L 197.076185 64.584378 
L 201.80696 70.788233 
L 206.132985 77.236932 
L 210.070212 83.685206 
L 213.200351 89.163854 
L 219.644532 101.279993 
L 225.079904 112.200396 
L 229.356311 121.120425 
L 256.937602 179.935939 
L 262.431532 190.903951 
L 264.178441 194.286648 
L 271.047472 207.027874 
L 273.339293 211.064686 
L 278.279626 219.37482 
L 280.895488 223.550567 
L 287.440478 233.295903 
L 298.246728 247.161778 
L 306.938735 256.35227 
L 314.179574 262.757869 
L 323.340425 269.385088 
L 349.876921 281.216121 
L 353.75489 282.252198 
L 367.856075 285.012661 
L 403.756023 287.810706 
L 403.756023 287.810706 
" style="fill:none;stroke:#1f77b4;stroke-linecap:square;stroke-width:1.5;"/>
    <defs>
     <path d="M 0 3 
C 0.795609 3 1.55874 2.683901 2.12132 2.12132 
C 2.683901 1.55874 3 0.795609 3 0 
C 3 -0.795609 2.683901 -1.55874 2.12132 -2.12132 
C 1.55874 -2.683901 0.795609 -3 0 -3 
C -0.795609 -3 -1.55874 -2.683901 -2.12132 -2.12132 
C -2.683901 -1.55874 -3 -0.795609 -3 0 
C -3 0.795609 -2.683901 1.55874 -2.12132 2.12132 
C -1.55874 2.683901 -0.795609 3 0 3 
z
" id="m1223a00285" style="stroke:#1f77b4;"/>
    </defs>
    <g clip-path="url(#p862343c033)">
     <use style="fill:#1f77b4;stroke:#1f77b4;" x="79.101477" xlink:href="#m1223a00285" y="198.866731"/>
     <use style="fill:#1f77b4;stroke:#1f77b4;" x="80.693335" xlink:href="#m1223a00285" y="195.856915"/>
     <use style="fill:#1f77b4;stroke:#1f77b4;" x="81.024489" xlink:href="#m1223a00285" y="195.224814"/>
     <use style="fill:#1f77b4;stroke:#1f77b4;" x="82.350132" xlink:href="#m1223a00285" y="192.67443"/>
     <use style="fill:#1f77b4;stroke:#1f77b4;" x="82.505184" xlink:href="#m1223a00285" y="192.374069"/>
     <use style="fill:#1f77b4;stroke:#1f77b4;" x="82.824395" xlink:href="#m1223a00285" y="191.754369"/>
     <use style="fill:#1f77b4;stroke:#1f77b4;" x="84.440355" xlink:href="#m1223a00285" y="188.590221"/>
     <use style="fill:#1f77b4;stroke:#1f77b4;" x="84.525365" xlink:href="#m1223a00285" y="188.422544"/>
     <use style="fill:#1f77b4;stroke:#1f77b4;" x="84.599519" xlink:href="#m1223a00285" y="188.276181"/>
     <use style="fill:#1f77b4;stroke:#1f77b4;" x="85.235683" xlink:href="#m1223a00285" y="187.016827"/>
     <use style="fill:#1f77b4;stroke:#1f77b4;" x="85.390735" xlink:href="#m1223a00285" y="186.708887"/>
     <use style="fill:#1f77b4;stroke:#1f77b4;" x="86.187265" xlink:href="#m1223a00285" y="185.120886"/>
     <use style="fill:#1f77b4;stroke:#1f77b4;" x="86.603429" xlink:href="#m1223a00285" y="184.287237"/>
     <use style="fill:#1f77b4;stroke:#1f77b4;" x="87.638432" xlink:href="#m1223a00285" y="182.202479"/>
     <use style="fill:#1f77b4;stroke:#1f77b4;" x="88.003225" xlink:href="#m1223a00285" y="181.46389"/>
     <use style="fill:#1f77b4;stroke:#1f77b4;" x="88.107277" xlink:href="#m1223a00285" y="181.252863"/>
     <use style="fill:#1f77b4;stroke:#1f77b4;" x="88.158277" xlink:href="#m1223a00285" y="181.149372"/>
     <use style="fill:#1f77b4;stroke:#1f77b4;" x="88.377178" xlink:href="#m1223a00285" y="180.704749"/>
     <use style="fill:#1f77b4;stroke:#1f77b4;" x="88.794441" xlink:href="#m1223a00285" y="179.85533"/>
     <use style="fill:#1f77b4;stroke:#1f77b4;" x="89.854186" xlink:href="#m1223a00285" y="177.687148"/>
     <use style="fill:#1f77b4;stroke:#1f77b4;" x="93.04761" xlink:href="#m1223a00285" y="171.066412"/>
     <use style="fill:#1f77b4;stroke:#1f77b4;" x="93.132362" xlink:href="#m1223a00285" y="170.88906"/>
     <use style="fill:#1f77b4;stroke:#1f77b4;" x="93.956118" xlink:href="#m1223a00285" y="169.161197"/>
     <use style="fill:#1f77b4;stroke:#1f77b4;" x="94.447535" xlink:href="#m1223a00285" y="168.127042"/>
     <use style="fill:#1f77b4;stroke:#1f77b4;" x="94.879271" xlink:href="#m1223a00285" y="167.216481"/>
     <use style="fill:#1f77b4;stroke:#1f77b4;" x="95.348116" xlink:href="#m1223a00285" y="166.225611"/>
     <use style="fill:#1f77b4;stroke:#1f77b4;" x="96.034182" xlink:href="#m1223a00285" y="164.771988"/>
     <use style="fill:#1f77b4;stroke:#1f77b4;" x="96.647761" xlink:href="#m1223a00285" y="163.468437"/>
     <use style="fill:#1f77b4;stroke:#1f77b4;" x="96.92558" xlink:href="#m1223a00285" y="162.877172"/>
     <use style="fill:#1f77b4;stroke:#1f77b4;" x="102.937019" xlink:href="#m1223a00285" y="149.961354"/>
     <use style="fill:#1f77b4;stroke:#1f77b4;" x="103.092071" xlink:href="#m1223a00285" y="149.626026"/>
     <use style="fill:#1f77b4;stroke:#1f77b4;" x="104.040123" xlink:href="#m1223a00285" y="147.574403"/>
     <use style="fill:#1f77b4;stroke:#1f77b4;" x="104.560917" xlink:href="#m1223a00285" y="146.44664"/>
     <use style="fill:#1f77b4;stroke:#1f77b4;" x="105.134594" xlink:href="#m1223a00285" y="145.203952"/>
     <use style="fill:#1f77b4;stroke:#1f77b4;" x="106.495777" xlink:href="#m1223a00285" y="142.254695"/>
     <use style="fill:#1f77b4;stroke:#1f77b4;" x="107.212658" xlink:href="#m1223a00285" y="140.701687"/>
     <use style="fill:#1f77b4;stroke:#1f77b4;" x="112.148871" xlink:href="#m1223a00285" y="130.045189"/>
     <use style="fill:#1f77b4;stroke:#1f77b4;" x="112.791597" xlink:href="#m1223a00285" y="128.666227"/>
     <use style="fill:#1f77b4;stroke:#1f77b4;" x="113.252924" xlink:href="#m1223a00285" y="127.678206"/>
     <use style="fill:#1f77b4;stroke:#1f77b4;" x="113.99167" xlink:href="#m1223a00285" y="126.09937"/>
     <use style="fill:#1f77b4;stroke:#1f77b4;" x="114.846373" xlink:href="#m1223a00285" y="124.278328"/>
     <use style="fill:#1f77b4;stroke:#1f77b4;" x="118.746854" xlink:href="#m1223a00285" y="116.062549"/>
     <use style="fill:#1f77b4;stroke:#1f77b4;" x="119.57061" xlink:href="#m1223a00285" y="114.3512"/>
     <use style="fill:#1f77b4;stroke:#1f77b4;" x="120.493763" xlink:href="#m1223a00285" y="112.444858"/>
     <use style="fill:#1f77b4;stroke:#1f77b4;" x="121.648673" xlink:href="#m1223a00285" y="110.078324"/>
     <use style="fill:#1f77b4;stroke:#1f77b4;" x="122.22235" xlink:href="#m1223a00285" y="108.910881"/>
     <use style="fill:#1f77b4;stroke:#1f77b4;" x="122.683677" xlink:href="#m1223a00285" y="107.976155"/>
     <use style="fill:#1f77b4;stroke:#1f77b4;" x="122.83593" xlink:href="#m1223a00285" y="107.668485"/>
     <use style="fill:#1f77b4;stroke:#1f77b4;" x="124.913993" xlink:href="#m1223a00285" y="103.512093"/>
     <use style="fill:#1f77b4;stroke:#1f77b4;" x="128.177607" xlink:href="#m1223a00285" y="97.163495"/>
     <use style="fill:#1f77b4;stroke:#1f77b4;" x="128.262616" xlink:href="#m1223a00285" y="97.001335"/>
     <use style="fill:#1f77b4;stroke:#1f77b4;" x="128.947558" xlink:href="#m1223a00285" y="95.701099"/>
     <use style="fill:#1f77b4;stroke:#1f77b4;" x="129.125187" xlink:href="#m1223a00285" y="95.365767"/>
     <use style="fill:#1f77b4;stroke:#1f77b4;" x="129.280239" xlink:href="#m1223a00285" y="95.073694"/>
     <use style="fill:#1f77b4;stroke:#1f77b4;" x="129.654615" xlink:href="#m1223a00285" y="94.370952"/>
     <use style="fill:#1f77b4;stroke:#1f77b4;" x="129.924516" xlink:href="#m1223a00285" y="93.866514"/>
     <use style="fill:#1f77b4;stroke:#1f77b4;" x="130.34068" xlink:href="#m1223a00285" y="93.092374"/>
     <use style="fill:#1f77b4;stroke:#1f77b4;" x="130.492933" xlink:href="#m1223a00285" y="92.810279"/>
     <use style="fill:#1f77b4;stroke:#1f77b4;" x="131.203251" xlink:href="#m1223a00285" y="91.502278"/>
     <use style="fill:#1f77b4;stroke:#1f77b4;" x="131.358303" xlink:href="#m1223a00285" y="91.218555"/>
     <use style="fill:#1f77b4;stroke:#1f77b4;" x="132.683945" xlink:href="#m1223a00285" y="88.819842"/>
     <use style="fill:#1f77b4;stroke:#1f77b4;" x="132.825527" xlink:href="#m1223a00285" y="88.566573"/>
     <use style="fill:#1f77b4;stroke:#1f77b4;" x="133.756546" xlink:href="#m1223a00285" y="86.915571"/>
     <use style="fill:#1f77b4;stroke:#1f77b4;" x="134.762009" xlink:href="#m1223a00285" y="85.161446"/>
     <use style="fill:#1f77b4;stroke:#1f77b4;" x="135.503455" xlink:href="#m1223a00285" y="83.887743"/>
     <use style="fill:#1f77b4;stroke:#1f77b4;" x="135.83461" xlink:href="#m1223a00285" y="83.324427"/>
     <use style="fill:#1f77b4;stroke:#1f77b4;" x="136.78219" xlink:href="#m1223a00285" y="81.731919"/>
     <use style="fill:#1f77b4;stroke:#1f77b4;" x="136.937242" xlink:href="#m1223a00285" y="81.474116"/>
     <use style="fill:#1f77b4;stroke:#1f77b4;" x="137.581519" xlink:href="#m1223a00285" y="80.4114"/>
     <use style="fill:#1f77b4;stroke:#1f77b4;" x="138.337039" xlink:href="#m1223a00285" y="79.182958"/>
     <use style="fill:#1f77b4;stroke:#1f77b4;" x="139.085368" xlink:href="#m1223a00285" y="77.985511"/>
     <use style="fill:#1f77b4;stroke:#1f77b4;" x="139.923686" xlink:href="#m1223a00285" y="76.66739"/>
     <use style="fill:#1f77b4;stroke:#1f77b4;" x="140.340949" xlink:href="#m1223a00285" y="76.020667"/>
     <use style="fill:#1f77b4;stroke:#1f77b4;" x="140.415103" xlink:href="#m1223a00285" y="75.906393"/>
     <use style="fill:#1f77b4;stroke:#1f77b4;" x="142.274764" xlink:href="#m1223a00285" y="73.106903"/>
     <use style="fill:#1f77b4;stroke:#1f77b4;" x="144.664307" xlink:href="#m1223a00285" y="69.703742"/>
     <use style="fill:#1f77b4;stroke:#1f77b4;" x="145.994042" xlink:href="#m1223a00285" y="67.908559"/>
     <use style="fill:#1f77b4;stroke:#1f77b4;" x="146.152734" xlink:href="#m1223a00285" y="67.699162"/>
     <use style="fill:#1f77b4;stroke:#1f77b4;" x="146.212943" xlink:href="#m1223a00285" y="67.619987"/>
     <use style="fill:#1f77b4;stroke:#1f77b4;" x="146.367995" xlink:href="#m1223a00285" y="67.41679"/>
     <use style="fill:#1f77b4;stroke:#1f77b4;" x="146.742371" xlink:href="#m1223a00285" y="66.930298"/>
     <use style="fill:#1f77b4;stroke:#1f77b4;" x="147.836842" xlink:href="#m1223a00285" y="65.541934"/>
     <use style="fill:#1f77b4;stroke:#1f77b4;" x="147.927858" xlink:href="#m1223a00285" y="65.428775"/>
     <use style="fill:#1f77b4;stroke:#1f77b4;" x="149.771702" xlink:href="#m1223a00285" y="63.213687"/>
     <use style="fill:#1f77b4;stroke:#1f77b4;" x="151.331564" xlink:href="#m1223a00285" y="61.457226"/>
     <use style="fill:#1f77b4;stroke:#1f77b4;" x="151.486616" xlink:href="#m1223a00285" y="61.288631"/>
     <use style="fill:#1f77b4;stroke:#1f77b4;" x="151.805827" xlink:href="#m1223a00285" y="60.944991"/>
     <use style="fill:#1f77b4;stroke:#1f77b4;" x="155.209534" xlink:href="#m1223a00285" y="57.575298"/>
     <use style="fill:#1f77b4;stroke:#1f77b4;" x="155.364586" xlink:href="#m1223a00285" y="57.43485"/>
     <use style="fill:#1f77b4;stroke:#1f77b4;" x="155.424795" xlink:href="#m1223a00285" y="57.380622"/>
     <use style="fill:#1f77b4;stroke:#1f77b4;" x="156.528849" xlink:href="#m1223a00285" y="56.417319"/>
     <use style="fill:#1f77b4;stroke:#1f77b4;" x="157.775874" xlink:href="#m1223a00285" y="55.400762"/>
     <use style="fill:#1f77b4;stroke:#1f77b4;" x="159.362023" xlink:href="#m1223a00285" y="54.218909"/>
     <use style="fill:#1f77b4;stroke:#1f77b4;" x="160.253919" xlink:href="#m1223a00285" y="53.609694"/>
     <use style="fill:#1f77b4;stroke:#1f77b4;" x="161.653843" xlink:href="#m1223a00285" y="52.734749"/>
     <use style="fill:#1f77b4;stroke:#1f77b4;" x="162.022778" xlink:href="#m1223a00285" y="52.520821"/>
     <use style="fill:#1f77b4;stroke:#1f77b4;" x="163.769688" xlink:href="#m1223a00285" y="51.603024"/>
     <use style="fill:#1f77b4;stroke:#1f77b4;" x="165.538177" xlink:href="#m1223a00285" y="50.835295"/>
     <use style="fill:#1f77b4;stroke:#1f77b4;" x="165.907012" xlink:href="#m1223a00285" y="50.695799"/>
     <use style="fill:#1f77b4;stroke:#1f77b4;" x="168.522874" xlink:href="#m1223a00285" y="49.912199"/>
     <use style="fill:#1f77b4;stroke:#1f77b4;" x="169.310719" xlink:href="#m1223a00285" y="49.74719"/>
     <use style="fill:#1f77b4;stroke:#1f77b4;" x="169.465771" xlink:href="#m1223a00285" y="49.7186"/>
     <use style="fill:#1f77b4;stroke:#1f77b4;" x="170.269784" xlink:href="#m1223a00285" y="49.590865"/>
     <use style="fill:#1f77b4;stroke:#1f77b4;" x="171.827435" xlink:href="#m1223a00285" y="49.441421"/>
     <use style="fill:#1f77b4;stroke:#1f77b4;" x="171.982487" xlink:href="#m1223a00285" y="49.433629"/>
     <use style="fill:#1f77b4;stroke:#1f77b4;" x="172.930539" xlink:href="#m1223a00285" y="49.413901"/>
     <use style="fill:#1f77b4;stroke:#1f77b4;" x="174.230184" xlink:href="#m1223a00285" y="49.464838"/>
     <use style="fill:#1f77b4;stroke:#1f77b4;" x="175.386193" xlink:href="#m1223a00285" y="49.58588"/>
     <use style="fill:#1f77b4;stroke:#1f77b4;" x="175.477209" xlink:href="#m1223a00285" y="49.598435"/>
     <use style="fill:#1f77b4;stroke:#1f77b4;" x="175.755028" xlink:href="#m1223a00285" y="49.639487"/>
     <use style="fill:#1f77b4;stroke:#1f77b4;" x="175.763714" xlink:href="#m1223a00285" y="49.640837"/>
     <use style="fill:#1f77b4;stroke:#1f77b4;" x="179.355179" xlink:href="#m1223a00285" y="50.542087"/>
     <use style="fill:#1f77b4;stroke:#1f77b4;" x="179.724114" xlink:href="#m1223a00285" y="50.673281"/>
     <use style="fill:#1f77b4;stroke:#1f77b4;" x="180.519442" xlink:href="#m1223a00285" y="50.980415"/>
     <use style="fill:#1f77b4;stroke:#1f77b4;" x="180.674494" xlink:href="#m1223a00285" y="51.044152"/>
     <use style="fill:#1f77b4;stroke:#1f77b4;" x="181.039287" xlink:href="#m1223a00285" y="51.199067"/>
     <use style="fill:#1f77b4;stroke:#1f77b4;" x="181.471023" xlink:href="#m1223a00285" y="51.391383"/>
     <use style="fill:#1f77b4;stroke:#1f77b4;" x="184.0782" xlink:href="#m1223a00285" y="52.758094"/>
     <use style="fill:#1f77b4;stroke:#1f77b4;" x="184.45572" xlink:href="#m1223a00285" y="52.984974"/>
     <use style="fill:#1f77b4;stroke:#1f77b4;" x="186.013372" xlink:href="#m1223a00285" y="53.997719"/>
     <use style="fill:#1f77b4;stroke:#1f77b4;" x="186.168424" xlink:href="#m1223a00285" y="54.105241"/>
     <use style="fill:#1f77b4;stroke:#1f77b4;" x="187.760281" xlink:href="#m1223a00285" y="55.278714"/>
     <use style="fill:#1f77b4;stroke:#1f77b4;" x="187.915333" xlink:href="#m1223a00285" y="55.39975"/>
     <use style="fill:#1f77b4;stroke:#1f77b4;" x="189.57213" xlink:href="#m1223a00285" y="56.76684"/>
     <use style="fill:#1f77b4;stroke:#1f77b4;" x="189.731294" xlink:href="#m1223a00285" y="56.905225"/>
     <use style="fill:#1f77b4;stroke:#1f77b4;" x="190.631875" xlink:href="#m1223a00285" y="57.71127"/>
     <use style="fill:#1f77b4;stroke:#1f77b4;" x="191.319039" xlink:href="#m1223a00285" y="58.352454"/>
     <use style="fill:#1f77b4;stroke:#1f77b4;" x="193.456364" xlink:href="#m1223a00285" y="60.489144"/>
     <use style="fill:#1f77b4;stroke:#1f77b4;" x="195.225224" xlink:href="#m1223a00285" y="62.416957"/>
     <use style="fill:#1f77b4;stroke:#1f77b4;" x="196.153866" xlink:href="#m1223a00285" y="63.485462"/>
     <use style="fill:#1f77b4;stroke:#1f77b4;" x="196.921133" xlink:href="#m1223a00285" y="64.397037"/>
     <use style="fill:#1f77b4;stroke:#1f77b4;" x="196.972133" xlink:href="#m1223a00285" y="64.458543"/>
     <use style="fill:#1f77b4;stroke:#1f77b4;" x="197.076185" xlink:href="#m1223a00285" y="64.584378"/>
     <use style="fill:#1f77b4;stroke:#1f77b4;" x="200.479891" xlink:href="#m1223a00285" y="68.954795"/>
     <use style="fill:#1f77b4;stroke:#1f77b4;" x="201.665378" xlink:href="#m1223a00285" y="70.589276"/>
     <use style="fill:#1f77b4;stroke:#1f77b4;" x="201.80696" xlink:href="#m1223a00285" y="70.788233"/>
     <use style="fill:#1f77b4;stroke:#1f77b4;" x="203.743442" xlink:href="#m1223a00285" y="73.587878"/>
     <use style="fill:#1f77b4;stroke:#1f77b4;" x="205.210666" xlink:href="#m1223a00285" y="75.803733"/>
     <use style="fill:#1f77b4;stroke:#1f77b4;" x="205.365718" xlink:href="#m1223a00285" y="76.042526"/>
     <use style="fill:#1f77b4;stroke:#1f77b4;" x="205.543348" xlink:href="#m1223a00285" y="76.31716"/>
     <use style="fill:#1f77b4;stroke:#1f77b4;" x="206.132985" xlink:href="#m1223a00285" y="77.236932"/>
     <use style="fill:#1f77b4;stroke:#1f77b4;" x="207.621411" xlink:href="#m1223a00285" y="79.613174"/>
     <use style="fill:#1f77b4;stroke:#1f77b4;" x="209.322381" xlink:href="#m1223a00285" y="82.420889"/>
     <use style="fill:#1f77b4;stroke:#1f77b4;" x="210.070212" xlink:href="#m1223a00285" y="83.685206"/>
     <use style="fill:#1f77b4;stroke:#1f77b4;" x="211.654976" xlink:href="#m1223a00285" y="86.42232"/>
     <use style="fill:#1f77b4;stroke:#1f77b4;" x="213.200351" xlink:href="#m1223a00285" y="89.163854"/>
     <use style="fill:#1f77b4;stroke:#1f77b4;" x="218.753134" xlink:href="#m1223a00285" y="99.544569"/>
     <use style="fill:#1f77b4;stroke:#1f77b4;" x="219.500965" xlink:href="#m1223a00285" y="100.999321"/>
     <use style="fill:#1f77b4;stroke:#1f77b4;" x="219.644532" xlink:href="#m1223a00285" y="101.279993"/>
     <use style="fill:#1f77b4;stroke:#1f77b4;" x="221.722596" xlink:href="#m1223a00285" y="105.390228"/>
     <use style="fill:#1f77b4;stroke:#1f77b4;" x="222.631104" xlink:href="#m1223a00285" y="107.21363"/>
     <use style="fill:#1f77b4;stroke:#1f77b4;" x="225.079904" xlink:href="#m1223a00285" y="112.200396"/>
     <use style="fill:#1f77b4;stroke:#1f77b4;" x="227.157968" xlink:href="#m1223a00285" y="116.505143"/>
     <use style="fill:#1f77b4;stroke:#1f77b4;" x="227.301536" xlink:href="#m1223a00285" y="116.804747"/>
     <use style="fill:#1f77b4;stroke:#1f77b4;" x="229.356311" xlink:href="#m1223a00285" y="121.120425"/>
     <use style="fill:#1f77b4;stroke:#1f77b4;" x="236.732289" xlink:href="#m1223a00285" y="136.919309"/>
     <use style="fill:#1f77b4;stroke:#1f77b4;" x="244.367626" xlink:href="#m1223a00285" y="153.443249"/>
     <use style="fill:#1f77b4;stroke:#1f77b4;" x="248.245596" xlink:href="#m1223a00285" y="161.766009"/>
     <use style="fill:#1f77b4;stroke:#1f77b4;" x="253.059633" xlink:href="#m1223a00285" y="171.933162"/>
     <use style="fill:#1f77b4;stroke:#1f77b4;" x="253.346137" xlink:href="#m1223a00285" y="172.530768"/>
     <use style="fill:#1f77b4;stroke:#1f77b4;" x="255.54448" xlink:href="#m1223a00285" y="177.083302"/>
     <use style="fill:#1f77b4;stroke:#1f77b4;" x="256.937602" xlink:href="#m1223a00285" y="179.935939"/>
     <use style="fill:#1f77b4;stroke:#1f77b4;" x="257.622544" xlink:href="#m1223a00285" y="181.328577"/>
     <use style="fill:#1f77b4;stroke:#1f77b4;" x="258.553562" xlink:href="#m1223a00285" y="183.210608"/>
     <use style="fill:#1f77b4;stroke:#1f77b4;" x="260.300472" xlink:href="#m1223a00285" y="186.706322"/>
     <use style="fill:#1f77b4;stroke:#1f77b4;" x="262.34678" xlink:href="#m1223a00285" y="190.738476"/>
     <use style="fill:#1f77b4;stroke:#1f77b4;" x="262.431532" xlink:href="#m1223a00285" y="190.903951"/>
     <use style="fill:#1f77b4;stroke:#1f77b4;" x="263.201483" xlink:href="#m1223a00285" y="192.401535"/>
     <use style="fill:#1f77b4;stroke:#1f77b4;" x="264.178441" xlink:href="#m1223a00285" y="194.286648"/>
     <use style="fill:#1f77b4;stroke:#1f77b4;" x="269.461323" xlink:href="#m1223a00285" y="204.169257"/>
     <use style="fill:#1f77b4;stroke:#1f77b4;" x="271.038787" xlink:href="#m1223a00285" y="207.012364"/>
     <use style="fill:#1f77b4;stroke:#1f77b4;" x="271.047472" xlink:href="#m1223a00285" y="207.027874"/>
     <use style="fill:#1f77b4;stroke:#1f77b4;" x="272.632236" xlink:href="#m1223a00285" y="209.831269"/>
     <use style="fill:#1f77b4;stroke:#1f77b4;" x="273.339293" xlink:href="#m1223a00285" y="211.064686"/>
     <use style="fill:#1f77b4;stroke:#1f77b4;" x="276.532717" xlink:href="#m1223a00285" y="216.498831"/>
     <use style="fill:#1f77b4;stroke:#1f77b4;" x="277.33673" xlink:href="#m1223a00285" y="217.831107"/>
     <use style="fill:#1f77b4;stroke:#1f77b4;" x="277.491782" xlink:href="#m1223a00285" y="218.086349"/>
     <use style="fill:#1f77b4;stroke:#1f77b4;" x="278.279626" xlink:href="#m1223a00285" y="219.37482"/>
     <use style="fill:#1f77b4;stroke:#1f77b4;" x="280.895488" xlink:href="#m1223a00285" y="223.550567"/>
     <use style="fill:#1f77b4;stroke:#1f77b4;" x="286.548582" xlink:href="#m1223a00285" y="232.027618"/>
     <use style="fill:#1f77b4;stroke:#1f77b4;" x="287.440478" xlink:href="#m1223a00285" y="233.295903"/>
     <use style="fill:#1f77b4;stroke:#1f77b4;" x="298.246728" xlink:href="#m1223a00285" y="247.161778"/>
     <use style="fill:#1f77b4;stroke:#1f77b4;" x="306.938735" xlink:href="#m1223a00285" y="256.35227"/>
     <use style="fill:#1f77b4;stroke:#1f77b4;" x="312.432664" xlink:href="#m1223a00285" y="261.311405"/>
     <use style="fill:#1f77b4;stroke:#1f77b4;" x="314.179574" xlink:href="#m1223a00285" y="262.757869"/>
     <use style="fill:#1f77b4;stroke:#1f77b4;" x="323.340425" xlink:href="#m1223a00285" y="269.385088"/>
     <use style="fill:#1f77b4;stroke:#1f77b4;" x="349.876921" xlink:href="#m1223a00285" y="281.216121"/>
     <use style="fill:#1f77b4;stroke:#1f77b4;" x="353.75489" xlink:href="#m1223a00285" y="282.252198"/>
     <use style="fill:#1f77b4;stroke:#1f77b4;" x="367.856075" xlink:href="#m1223a00285" y="285.012661"/>
     <use style="fill:#1f77b4;stroke:#1f77b4;" x="403.756023" xlink:href="#m1223a00285" y="287.810706"/>
    </g>
   </g>
   <g id="patch_13">
    <path d="M 62.86875 288.430125 
L 62.86875 22.318125 
" style="fill:none;stroke:#000000;stroke-linecap:square;stroke-linejoin:miter;stroke-width:0.8;"/>
   </g>
   <g id="patch_14">
    <path d="M 419.98875 288.430125 
L 419.98875 22.318125 
" style="fill:none;stroke:#000000;stroke-linecap:square;stroke-linejoin:miter;stroke-width:0.8;"/>
   </g>
   <g id="patch_15">
    <path d="M 62.86875 288.430125 
L 419.98875 288.430125 
" style="fill:none;stroke:#000000;stroke-linecap:square;stroke-linejoin:miter;stroke-width:0.8;"/>
   </g>
   <g id="patch_16">
    <path d="M 62.86875 22.318125 
L 419.98875 22.318125 
" style="fill:none;stroke:#000000;stroke-linecap:square;stroke-linejoin:miter;stroke-width:0.8;"/>
   </g>
   <g id="text_17">
    <!-- Distribution Between Pairs [k-dim] -->
    <defs>
     <path d="M 8.5 21.578125 
L 8.5 54.6875 
L 17.484375 54.6875 
L 17.484375 21.921875 
Q 17.484375 14.15625 20.5 10.265625 
Q 23.53125 6.390625 29.59375 6.390625 
Q 36.859375 6.390625 41.078125 11.03125 
Q 45.3125 15.671875 45.3125 23.6875 
L 45.3125 54.6875 
L 54.296875 54.6875 
L 54.296875 0 
L 45.3125 0 
L 45.3125 8.40625 
Q 42.046875 3.421875 37.71875 1 
Q 33.40625 -1.421875 27.6875 -1.421875 
Q 18.265625 -1.421875 13.375 4.4375 
Q 8.5 10.296875 8.5 21.578125 
z
M 31.109375 56 
z
" id="DejaVuSans-75"/>
     <path id="DejaVuSans-20"/>
     <path d="M 19.671875 34.8125 
L 19.671875 8.109375 
L 35.5 8.109375 
Q 43.453125 8.109375 47.28125 11.40625 
Q 51.125 14.703125 51.125 21.484375 
Q 51.125 28.328125 47.28125 31.5625 
Q 43.453125 34.8125 35.5 34.8125 
z
M 19.671875 64.796875 
L 19.671875 42.828125 
L 34.28125 42.828125 
Q 41.5 42.828125 45.03125 45.53125 
Q 48.578125 48.25 48.578125 53.8125 
Q 48.578125 59.328125 45.03125 62.0625 
Q 41.5 64.796875 34.28125 64.796875 
z
M 9.8125 72.90625 
L 35.015625 72.90625 
Q 46.296875 72.90625 52.390625 68.21875 
Q 58.5 63.53125 58.5 54.890625 
Q 58.5 48.1875 55.375 44.234375 
Q 52.25 40.28125 46.1875 39.3125 
Q 53.46875 37.75 57.5 32.78125 
Q 61.53125 27.828125 61.53125 20.40625 
Q 61.53125 10.640625 54.890625 5.3125 
Q 48.25 0 35.984375 0 
L 9.8125 0 
z
" id="DejaVuSans-42"/>
     <path d="M 4.203125 54.6875 
L 13.1875 54.6875 
L 24.421875 12.015625 
L 35.59375 54.6875 
L 46.1875 54.6875 
L 57.421875 12.015625 
L 68.609375 54.6875 
L 77.59375 54.6875 
L 63.28125 0 
L 52.6875 0 
L 40.921875 44.828125 
L 29.109375 0 
L 18.5 0 
z
" id="DejaVuSans-77"/>
     <path d="M 8.59375 75.984375 
L 29.296875 75.984375 
L 29.296875 69 
L 17.578125 69 
L 17.578125 -6.203125 
L 29.296875 -6.203125 
L 29.296875 -13.1875 
L 8.59375 -13.1875 
z
" id="DejaVuSans-5b"/>
     <path d="M 9.078125 75.984375 
L 18.109375 75.984375 
L 18.109375 31.109375 
L 44.921875 54.6875 
L 56.390625 54.6875 
L 27.390625 29.109375 
L 57.625 0 
L 45.90625 0 
L 18.109375 26.703125 
L 18.109375 0 
L 9.078125 0 
z
" id="DejaVuSans-6b"/>
     <path d="M 4.890625 31.390625 
L 31.203125 31.390625 
L 31.203125 23.390625 
L 4.890625 23.390625 
z
" id="DejaVuSans-2d"/>
     <path d="M 45.40625 46.390625 
L 45.40625 75.984375 
L 54.390625 75.984375 
L 54.390625 0 
L 45.40625 0 
L 45.40625 8.203125 
Q 42.578125 3.328125 38.25 0.953125 
Q 33.9375 -1.421875 27.875 -1.421875 
Q 17.96875 -1.421875 11.734375 6.484375 
Q 5.515625 14.40625 5.515625 27.296875 
Q 5.515625 40.1875 11.734375 48.09375 
Q 17.96875 56 27.875 56 
Q 33.9375 56 38.25 53.625 
Q 42.578125 51.265625 45.40625 46.390625 
z
M 14.796875 27.296875 
Q 14.796875 17.390625 18.875 11.75 
Q 22.953125 6.109375 30.078125 6.109375 
Q 37.203125 6.109375 41.296875 11.75 
Q 45.40625 17.390625 45.40625 27.296875 
Q 45.40625 37.203125 41.296875 42.84375 
Q 37.203125 48.484375 30.078125 48.484375 
Q 22.953125 48.484375 18.875 42.84375 
Q 14.796875 37.203125 14.796875 27.296875 
z
" id="DejaVuSans-64"/>
     <path d="M 52 44.1875 
Q 55.375 50.25 60.0625 53.125 
Q 64.75 56 71.09375 56 
Q 79.640625 56 84.28125 50.015625 
Q 88.921875 44.046875 88.921875 33.015625 
L 88.921875 0 
L 79.890625 0 
L 79.890625 32.71875 
Q 79.890625 40.578125 77.09375 44.375 
Q 74.3125 48.1875 68.609375 48.1875 
Q 61.625 48.1875 57.5625 43.546875 
Q 53.515625 38.921875 53.515625 30.90625 
L 53.515625 0 
L 44.484375 0 
L 44.484375 32.71875 
Q 44.484375 40.625 41.703125 44.40625 
Q 38.921875 48.1875 33.109375 48.1875 
Q 26.21875 48.1875 22.15625 43.53125 
Q 18.109375 38.875 18.109375 30.90625 
L 18.109375 0 
L 9.078125 0 
L 9.078125 54.6875 
L 18.109375 54.6875 
L 18.109375 46.1875 
Q 21.1875 51.21875 25.484375 53.609375 
Q 29.78125 56 35.6875 56 
Q 41.65625 56 45.828125 52.96875 
Q 50 49.953125 52 44.1875 
z
" id="DejaVuSans-6d"/>
     <path d="M 30.421875 75.984375 
L 30.421875 -13.1875 
L 9.71875 -13.1875 
L 9.71875 -6.203125 
L 21.390625 -6.203125 
L 21.390625 69 
L 9.71875 69 
L 9.71875 75.984375 
z
" id="DejaVuSans-5d"/>
    </defs>
    <g transform="translate(138.260625 16.318125)scale(0.12 -0.12)">
     <use xlink:href="#DejaVuSans-44"/>
     <use x="77.001953" xlink:href="#DejaVuSans-69"/>
     <use x="104.785156" xlink:href="#DejaVuSans-73"/>
     <use x="156.884766" xlink:href="#DejaVuSans-74"/>
     <use x="196.09375" xlink:href="#DejaVuSans-72"/>
     <use x="237.207031" xlink:href="#DejaVuSans-69"/>
     <use x="264.990234" xlink:href="#DejaVuSans-62"/>
     <use x="328.466797" xlink:href="#DejaVuSans-75"/>
     <use x="391.845703" xlink:href="#DejaVuSans-74"/>
     <use x="431.054688" xlink:href="#DejaVuSans-69"/>
     <use x="458.837891" xlink:href="#DejaVuSans-6f"/>
     <use x="520.019531" xlink:href="#DejaVuSans-6e"/>
     <use x="583.398438" xlink:href="#DejaVuSans-20"/>
     <use x="615.185547" xlink:href="#DejaVuSans-42"/>
     <use x="683.789062" xlink:href="#DejaVuSans-65"/>
     <use x="745.3125" xlink:href="#DejaVuSans-74"/>
     <use x="784.521484" xlink:href="#DejaVuSans-77"/>
     <use x="866.308594" xlink:href="#DejaVuSans-65"/>
     <use x="927.832031" xlink:href="#DejaVuSans-65"/>
     <use x="989.355469" xlink:href="#DejaVuSans-6e"/>
     <use x="1052.734375" xlink:href="#DejaVuSans-20"/>
     <use x="1084.521484" xlink:href="#DejaVuSans-50"/>
     <use x="1144.761719" xlink:href="#DejaVuSans-61"/>
     <use x="1206.041016" xlink:href="#DejaVuSans-69"/>
     <use x="1233.824219" xlink:href="#DejaVuSans-72"/>
     <use x="1274.9375" xlink:href="#DejaVuSans-73"/>
     <use x="1327.037109" xlink:href="#DejaVuSans-20"/>
     <use x="1358.824219" xlink:href="#DejaVuSans-5b"/>
     <use x="1397.837891" xlink:href="#DejaVuSans-6b"/>
     <use x="1455.748047" xlink:href="#DejaVuSans-2d"/>
     <use x="1491.832031" xlink:href="#DejaVuSans-64"/>
     <use x="1555.308594" xlink:href="#DejaVuSans-69"/>
     <use x="1583.091797" xlink:href="#DejaVuSans-6d"/>
     <use x="1680.503906" xlink:href="#DejaVuSans-5d"/>
    </g>
   </g>
  </g>
  <g id="text_18">
   <g id="patch_17">
    <path d="M 172.171875 386.78175 
L 299.165625 386.78175 
Q 305.165625 386.78175 305.165625 380.78175 
L 305.165625 342.29325 
Q 305.165625 336.29325 299.165625 336.29325 
L 172.171875 336.29325 
Q 166.171875 336.29325 166.171875 342.29325 
L 166.171875 380.78175 
Q 166.171875 386.78175 172.171875 386.78175 
z
" style="fill:#ffffff;stroke:#808080;stroke-linejoin:miter;"/>
   </g>
   <!-- Dimension: 900 -->
   <defs>
    <path d="M 11.71875 12.40625 
L 22.015625 12.40625 
L 22.015625 0 
L 11.71875 0 
z
M 11.71875 51.703125 
L 22.015625 51.703125 
L 22.015625 39.3125 
L 11.71875 39.3125 
z
" id="DejaVuSans-3a"/>
    <path d="M 10.984375 1.515625 
L 10.984375 10.5 
Q 14.703125 8.734375 18.5 7.8125 
Q 22.3125 6.890625 25.984375 6.890625 
Q 35.75 6.890625 40.890625 13.453125 
Q 46.046875 20.015625 46.78125 33.40625 
Q 43.953125 29.203125 39.59375 26.953125 
Q 35.25 24.703125 29.984375 24.703125 
Q 19.046875 24.703125 12.671875 31.3125 
Q 6.296875 37.9375 6.296875 49.421875 
Q 6.296875 60.640625 12.9375 67.421875 
Q 19.578125 74.21875 30.609375 74.21875 
Q 43.265625 74.21875 49.921875 64.515625 
Q 56.59375 54.828125 56.59375 36.375 
Q 56.59375 19.140625 48.40625 8.859375 
Q 40.234375 -1.421875 26.421875 -1.421875 
Q 22.703125 -1.421875 18.890625 -0.6875 
Q 15.09375 0.046875 10.984375 1.515625 
z
M 30.609375 32.421875 
Q 37.25 32.421875 41.125 36.953125 
Q 45.015625 41.5 45.015625 49.421875 
Q 45.015625 57.28125 41.125 61.84375 
Q 37.25 66.40625 30.609375 66.40625 
Q 23.96875 66.40625 20.09375 61.84375 
Q 16.21875 57.28125 16.21875 49.421875 
Q 16.21875 41.5 20.09375 36.953125 
Q 23.96875 32.421875 30.609375 32.421875 
z
" id="DejaVuSans-39"/>
   </defs>
   <g transform="translate(172.171875 351.411375)scale(0.12 -0.12)">
    <use xlink:href="#DejaVuSans-44"/>
    <use x="77.001953" xlink:href="#DejaVuSans-69"/>
    <use x="104.785156" xlink:href="#DejaVuSans-6d"/>
    <use x="202.197266" xlink:href="#DejaVuSans-65"/>
    <use x="263.720703" xlink:href="#DejaVuSans-6e"/>
    <use x="327.099609" xlink:href="#DejaVuSans-73"/>
    <use x="379.199219" xlink:href="#DejaVuSans-69"/>
    <use x="406.982422" xlink:href="#DejaVuSans-6f"/>
    <use x="468.164062" xlink:href="#DejaVuSans-6e"/>
    <use x="531.542969" xlink:href="#DejaVuSans-3a"/>
    <use x="565.234375" xlink:href="#DejaVuSans-20"/>
    <use x="597.021484" xlink:href="#DejaVuSans-39"/>
    <use x="660.644531" xlink:href="#DejaVuSans-30"/>
    <use x="724.267578" xlink:href="#DejaVuSans-30"/>
   </g>
   <!-- Subdimension: 1 -->
   <defs>
    <path d="M 53.515625 70.515625 
L 53.515625 60.890625 
Q 47.90625 63.578125 42.921875 64.890625 
Q 37.9375 66.21875 33.296875 66.21875 
Q 25.25 66.21875 20.875 63.09375 
Q 16.5 59.96875 16.5 54.203125 
Q 16.5 49.359375 19.40625 46.890625 
Q 22.3125 44.4375 30.421875 42.921875 
L 36.375 41.703125 
Q 47.40625 39.59375 52.65625 34.296875 
Q 57.90625 29 57.90625 20.125 
Q 57.90625 9.515625 50.796875 4.046875 
Q 43.703125 -1.421875 29.984375 -1.421875 
Q 24.8125 -1.421875 18.96875 -0.25 
Q 13.140625 0.921875 6.890625 3.21875 
L 6.890625 13.375 
Q 12.890625 10.015625 18.65625 8.296875 
Q 24.421875 6.59375 29.984375 6.59375 
Q 38.421875 6.59375 43.015625 9.90625 
Q 47.609375 13.234375 47.609375 19.390625 
Q 47.609375 24.75 44.3125 27.78125 
Q 41.015625 30.8125 33.5 32.328125 
L 27.484375 33.5 
Q 16.453125 35.6875 11.515625 40.375 
Q 6.59375 45.0625 6.59375 53.421875 
Q 6.59375 63.09375 13.40625 68.65625 
Q 20.21875 74.21875 32.171875 74.21875 
Q 37.3125 74.21875 42.625 73.28125 
Q 47.953125 72.359375 53.515625 70.515625 
z
" id="DejaVuSans-53"/>
   </defs>
   <g transform="translate(172.171875 364.84875)scale(0.12 -0.12)">
    <use xlink:href="#DejaVuSans-53"/>
    <use x="63.476562" xlink:href="#DejaVuSans-75"/>
    <use x="126.855469" xlink:href="#DejaVuSans-62"/>
    <use x="190.332031" xlink:href="#DejaVuSans-64"/>
    <use x="253.808594" xlink:href="#DejaVuSans-69"/>
    <use x="281.591797" xlink:href="#DejaVuSans-6d"/>
    <use x="379.003906" xlink:href="#DejaVuSans-65"/>
    <use x="440.527344" xlink:href="#DejaVuSans-6e"/>
    <use x="503.90625" xlink:href="#DejaVuSans-73"/>
    <use x="556.005859" xlink:href="#DejaVuSans-69"/>
    <use x="583.789062" xlink:href="#DejaVuSans-6f"/>
    <use x="644.970703" xlink:href="#DejaVuSans-6e"/>
    <use x="708.349609" xlink:href="#DejaVuSans-3a"/>
    <use x="742.041016" xlink:href="#DejaVuSans-20"/>
    <use x="773.828125" xlink:href="#DejaVuSans-31"/>
   </g>
   <!-- Number of Points: 20 -->
   <defs>
    <path d="M 9.8125 72.90625 
L 23.09375 72.90625 
L 55.421875 11.921875 
L 55.421875 72.90625 
L 64.984375 72.90625 
L 64.984375 0 
L 51.703125 0 
L 19.390625 60.984375 
L 19.390625 0 
L 9.8125 0 
z
" id="DejaVuSans-4e"/>
    <path d="M 37.109375 75.984375 
L 37.109375 68.5 
L 28.515625 68.5 
Q 23.6875 68.5 21.796875 66.546875 
Q 19.921875 64.59375 19.921875 59.515625 
L 19.921875 54.6875 
L 34.71875 54.6875 
L 34.71875 47.703125 
L 19.921875 47.703125 
L 19.921875 0 
L 10.890625 0 
L 10.890625 47.703125 
L 2.296875 47.703125 
L 2.296875 54.6875 
L 10.890625 54.6875 
L 10.890625 58.5 
Q 10.890625 67.625 15.140625 71.796875 
Q 19.390625 75.984375 28.609375 75.984375 
z
" id="DejaVuSans-66"/>
   </defs>
   <g transform="translate(172.171875 378.286125)scale(0.12 -0.12)">
    <use xlink:href="#DejaVuSans-4e"/>
    <use x="74.804688" xlink:href="#DejaVuSans-75"/>
    <use x="138.183594" xlink:href="#DejaVuSans-6d"/>
    <use x="235.595703" xlink:href="#DejaVuSans-62"/>
    <use x="299.072266" xlink:href="#DejaVuSans-65"/>
    <use x="360.595703" xlink:href="#DejaVuSans-72"/>
    <use x="401.708984" xlink:href="#DejaVuSans-20"/>
    <use x="433.496094" xlink:href="#DejaVuSans-6f"/>
    <use x="494.677734" xlink:href="#DejaVuSans-66"/>
    <use x="529.882812" xlink:href="#DejaVuSans-20"/>
    <use x="561.669922" xlink:href="#DejaVuSans-50"/>
    <use x="621.925781" xlink:href="#DejaVuSans-6f"/>
    <use x="683.107422" xlink:href="#DejaVuSans-69"/>
    <use x="710.890625" xlink:href="#DejaVuSans-6e"/>
    <use x="774.269531" xlink:href="#DejaVuSans-74"/>
    <use x="813.478516" xlink:href="#DejaVuSans-73"/>
    <use x="865.578125" xlink:href="#DejaVuSans-3a"/>
    <use x="899.269531" xlink:href="#DejaVuSans-20"/>
    <use x="931.056641" xlink:href="#DejaVuSans-32"/>
    <use x="994.679688" xlink:href="#DejaVuSans-30"/>
   </g>
  </g>
 </g>
 <defs>
  <clipPath id="p862343c033">
   <rect height="266.112" width="357.12" x="62.86875" y="22.318125"/>
  </clipPath>
 </defs>
</svg>
