<?xml version="1.0" encoding="utf-8" standalone="no"?>
<!DOCTYPE svg PUBLIC "-//W3C//DTD SVG 1.1//EN"
  "http://www.w3.org/Graphics/SVG/1.1/DTD/svg11.dtd">
<!-- Created with matplotlib (http://matplotlib.org/) -->
<svg height="387pt" version="1.1" viewBox="0 0 444 387" width="444pt" xmlns="http://www.w3.org/2000/svg" xmlns:xlink="http://www.w3.org/1999/xlink">
 <defs>
  <style type="text/css">
*{stroke-linecap:butt;stroke-linejoin:round;}
  </style>
 </defs>
 <g id="figure_1">
  <g id="patch_1">
   <path d="M 0 387.98175 
L 444.841661 387.98175 
L 444.841661 0 
L 0 0 
z
" style="fill:#ffffff;"/>
  </g>
  <g id="axes_1">
   <g id="patch_2">
    <path d="M 69.23125 288.430125 
L 426.35125 288.430125 
L 426.35125 22.318125 
L 69.23125 22.318125 
z
" style="fill:#ffffff;"/>
   </g>
   <g id="patch_3">
    <path clip-path="url(#p8aaab99268)" d="M 85.463977 288.430125 
L 117.929432 288.430125 
L 117.929432 253.066404 
L 85.463977 253.066404 
z
" style="fill:#ff7f0e;"/>
   </g>
   <g id="patch_4">
    <path clip-path="url(#p8aaab99268)" d="M 117.929432 288.430125 
L 150.394886 288.430125 
L 150.394886 182.338962 
L 117.929432 182.338962 
z
" style="fill:#ff7f0e;"/>
   </g>
   <g id="patch_5">
    <path clip-path="url(#p8aaab99268)" d="M 150.394886 288.430125 
L 182.860341 288.430125 
L 182.860341 34.990125 
L 150.394886 34.990125 
z
" style="fill:#ff7f0e;"/>
   </g>
   <g id="patch_6">
    <path clip-path="url(#p8aaab99268)" d="M 182.860341 288.430125 
L 215.325795 288.430125 
L 215.325795 40.884078 
L 182.860341 40.884078 
z
" style="fill:#ff7f0e;"/>
   </g>
   <g id="patch_7">
    <path clip-path="url(#p8aaab99268)" d="M 215.325795 288.430125 
L 247.79125 288.430125 
L 247.79125 64.459892 
L 215.325795 64.459892 
z
" style="fill:#ff7f0e;"/>
   </g>
   <g id="patch_8">
    <path clip-path="url(#p8aaab99268)" d="M 247.79125 288.430125 
L 280.256705 288.430125 
L 280.256705 176.445009 
L 247.79125 176.445009 
z
" style="fill:#ff7f0e;"/>
   </g>
   <g id="patch_9">
    <path clip-path="url(#p8aaab99268)" d="M 280.256705 288.430125 
L 312.722159 288.430125 
L 312.722159 211.80873 
L 280.256705 211.80873 
z
" style="fill:#ff7f0e;"/>
   </g>
   <g id="patch_10">
    <path clip-path="url(#p8aaab99268)" d="M 312.722159 288.430125 
L 345.187614 288.430125 
L 345.187614 253.066404 
L 312.722159 253.066404 
z
" style="fill:#ff7f0e;"/>
   </g>
   <g id="patch_11">
    <path clip-path="url(#p8aaab99268)" d="M 345.187614 288.430125 
L 377.653068 288.430125 
L 377.653068 270.748265 
L 345.187614 270.748265 
z
" style="fill:#ff7f0e;"/>
   </g>
   <g id="patch_12">
    <path clip-path="url(#p8aaab99268)" d="M 377.653068 288.430125 
L 410.118523 288.430125 
L 410.118523 276.642218 
L 377.653068 276.642218 
z
" style="fill:#ff7f0e;"/>
   </g>
   <g id="matplotlib.axis_1">
    <g id="xtick_1">
     <g id="line2d_1">
      <defs>
       <path d="M 0 0 
L 0 3.5 
" id="m943b124a72" style="stroke:#000000;stroke-width:0.8;"/>
      </defs>
      <g>
       <use style="stroke:#000000;stroke-width:0.8;" x="99.167181" xlink:href="#m943b124a72" y="288.430125"/>
      </g>
     </g>
     <g id="text_1">
      <!-- 1000 -->
      <defs>
       <path d="M 12.40625 8.296875 
L 28.515625 8.296875 
L 28.515625 63.921875 
L 10.984375 60.40625 
L 10.984375 69.390625 
L 28.421875 72.90625 
L 38.28125 72.90625 
L 38.28125 8.296875 
L 54.390625 8.296875 
L 54.390625 0 
L 12.40625 0 
z
" id="DejaVuSans-31"/>
       <path d="M 31.78125 66.40625 
Q 24.171875 66.40625 20.328125 58.90625 
Q 16.5 51.421875 16.5 36.375 
Q 16.5 21.390625 20.328125 13.890625 
Q 24.171875 6.390625 31.78125 6.390625 
Q 39.453125 6.390625 43.28125 13.890625 
Q 47.125 21.390625 47.125 36.375 
Q 47.125 51.421875 43.28125 58.90625 
Q 39.453125 66.40625 31.78125 66.40625 
z
M 31.78125 74.21875 
Q 44.046875 74.21875 50.515625 64.515625 
Q 56.984375 54.828125 56.984375 36.375 
Q 56.984375 17.96875 50.515625 8.265625 
Q 44.046875 -1.421875 31.78125 -1.421875 
Q 19.53125 -1.421875 13.0625 8.265625 
Q 6.59375 17.96875 6.59375 36.375 
Q 6.59375 54.828125 13.0625 64.515625 
Q 19.53125 74.21875 31.78125 74.21875 
z
" id="DejaVuSans-30"/>
      </defs>
      <g transform="translate(86.442181 303.028562)scale(0.1 -0.1)">
       <use xlink:href="#DejaVuSans-31"/>
       <use x="63.623047" xlink:href="#DejaVuSans-30"/>
       <use x="127.246094" xlink:href="#DejaVuSans-30"/>
       <use x="190.869141" xlink:href="#DejaVuSans-30"/>
      </g>
     </g>
    </g>
    <g id="xtick_2">
     <g id="line2d_2">
      <g>
       <use style="stroke:#000000;stroke-width:0.8;" x="153.458761" xlink:href="#m943b124a72" y="288.430125"/>
      </g>
     </g>
     <g id="text_2">
      <!-- 2000 -->
      <defs>
       <path d="M 19.1875 8.296875 
L 53.609375 8.296875 
L 53.609375 0 
L 7.328125 0 
L 7.328125 8.296875 
Q 12.9375 14.109375 22.625 23.890625 
Q 32.328125 33.6875 34.8125 36.53125 
Q 39.546875 41.84375 41.421875 45.53125 
Q 43.3125 49.21875 43.3125 52.78125 
Q 43.3125 58.59375 39.234375 62.25 
Q 35.15625 65.921875 28.609375 65.921875 
Q 23.96875 65.921875 18.8125 64.3125 
Q 13.671875 62.703125 7.8125 59.421875 
L 7.8125 69.390625 
Q 13.765625 71.78125 18.9375 73 
Q 24.125 74.21875 28.421875 74.21875 
Q 39.75 74.21875 46.484375 68.546875 
Q 53.21875 62.890625 53.21875 53.421875 
Q 53.21875 48.921875 51.53125 44.890625 
Q 49.859375 40.875 45.40625 35.40625 
Q 44.1875 33.984375 37.640625 27.21875 
Q 31.109375 20.453125 19.1875 8.296875 
z
" id="DejaVuSans-32"/>
      </defs>
      <g transform="translate(140.733761 303.028562)scale(0.1 -0.1)">
       <use xlink:href="#DejaVuSans-32"/>
       <use x="63.623047" xlink:href="#DejaVuSans-30"/>
       <use x="127.246094" xlink:href="#DejaVuSans-30"/>
       <use x="190.869141" xlink:href="#DejaVuSans-30"/>
      </g>
     </g>
    </g>
    <g id="xtick_3">
     <g id="line2d_3">
      <g>
       <use style="stroke:#000000;stroke-width:0.8;" x="207.750341" xlink:href="#m943b124a72" y="288.430125"/>
      </g>
     </g>
     <g id="text_3">
      <!-- 3000 -->
      <defs>
       <path d="M 40.578125 39.3125 
Q 47.65625 37.796875 51.625 33 
Q 55.609375 28.21875 55.609375 21.1875 
Q 55.609375 10.40625 48.1875 4.484375 
Q 40.765625 -1.421875 27.09375 -1.421875 
Q 22.515625 -1.421875 17.65625 -0.515625 
Q 12.796875 0.390625 7.625 2.203125 
L 7.625 11.71875 
Q 11.71875 9.328125 16.59375 8.109375 
Q 21.484375 6.890625 26.8125 6.890625 
Q 36.078125 6.890625 40.9375 10.546875 
Q 45.796875 14.203125 45.796875 21.1875 
Q 45.796875 27.640625 41.28125 31.265625 
Q 36.765625 34.90625 28.71875 34.90625 
L 20.21875 34.90625 
L 20.21875 43.015625 
L 29.109375 43.015625 
Q 36.375 43.015625 40.234375 45.921875 
Q 44.09375 48.828125 44.09375 54.296875 
Q 44.09375 59.90625 40.109375 62.90625 
Q 36.140625 65.921875 28.71875 65.921875 
Q 24.65625 65.921875 20.015625 65.03125 
Q 15.375 64.15625 9.8125 62.3125 
L 9.8125 71.09375 
Q 15.4375 72.65625 20.34375 73.4375 
Q 25.25 74.21875 29.59375 74.21875 
Q 40.828125 74.21875 47.359375 69.109375 
Q 53.90625 64.015625 53.90625 55.328125 
Q 53.90625 49.265625 50.4375 45.09375 
Q 46.96875 40.921875 40.578125 39.3125 
z
" id="DejaVuSans-33"/>
      </defs>
      <g transform="translate(195.025341 303.028562)scale(0.1 -0.1)">
       <use xlink:href="#DejaVuSans-33"/>
       <use x="63.623047" xlink:href="#DejaVuSans-30"/>
       <use x="127.246094" xlink:href="#DejaVuSans-30"/>
       <use x="190.869141" xlink:href="#DejaVuSans-30"/>
      </g>
     </g>
    </g>
    <g id="xtick_4">
     <g id="line2d_4">
      <g>
       <use style="stroke:#000000;stroke-width:0.8;" x="262.041921" xlink:href="#m943b124a72" y="288.430125"/>
      </g>
     </g>
     <g id="text_4">
      <!-- 4000 -->
      <defs>
       <path d="M 37.796875 64.3125 
L 12.890625 25.390625 
L 37.796875 25.390625 
z
M 35.203125 72.90625 
L 47.609375 72.90625 
L 47.609375 25.390625 
L 58.015625 25.390625 
L 58.015625 17.1875 
L 47.609375 17.1875 
L 47.609375 0 
L 37.796875 0 
L 37.796875 17.1875 
L 4.890625 17.1875 
L 4.890625 26.703125 
z
" id="DejaVuSans-34"/>
      </defs>
      <g transform="translate(249.316921 303.028562)scale(0.1 -0.1)">
       <use xlink:href="#DejaVuSans-34"/>
       <use x="63.623047" xlink:href="#DejaVuSans-30"/>
       <use x="127.246094" xlink:href="#DejaVuSans-30"/>
       <use x="190.869141" xlink:href="#DejaVuSans-30"/>
      </g>
     </g>
    </g>
    <g id="xtick_5">
     <g id="line2d_5">
      <g>
       <use style="stroke:#000000;stroke-width:0.8;" x="316.333501" xlink:href="#m943b124a72" y="288.430125"/>
      </g>
     </g>
     <g id="text_5">
      <!-- 5000 -->
      <defs>
       <path d="M 10.796875 72.90625 
L 49.515625 72.90625 
L 49.515625 64.59375 
L 19.828125 64.59375 
L 19.828125 46.734375 
Q 21.96875 47.46875 24.109375 47.828125 
Q 26.265625 48.1875 28.421875 48.1875 
Q 40.625 48.1875 47.75 41.5 
Q 54.890625 34.8125 54.890625 23.390625 
Q 54.890625 11.625 47.5625 5.09375 
Q 40.234375 -1.421875 26.90625 -1.421875 
Q 22.3125 -1.421875 17.546875 -0.640625 
Q 12.796875 0.140625 7.71875 1.703125 
L 7.71875 11.625 
Q 12.109375 9.234375 16.796875 8.0625 
Q 21.484375 6.890625 26.703125 6.890625 
Q 35.15625 6.890625 40.078125 11.328125 
Q 45.015625 15.765625 45.015625 23.390625 
Q 45.015625 31 40.078125 35.4375 
Q 35.15625 39.890625 26.703125 39.890625 
Q 22.75 39.890625 18.8125 39.015625 
Q 14.890625 38.140625 10.796875 36.28125 
z
" id="DejaVuSans-35"/>
      </defs>
      <g transform="translate(303.608501 303.028562)scale(0.1 -0.1)">
       <use xlink:href="#DejaVuSans-35"/>
       <use x="63.623047" xlink:href="#DejaVuSans-30"/>
       <use x="127.246094" xlink:href="#DejaVuSans-30"/>
       <use x="190.869141" xlink:href="#DejaVuSans-30"/>
      </g>
     </g>
    </g>
    <g id="xtick_6">
     <g id="line2d_6">
      <g>
       <use style="stroke:#000000;stroke-width:0.8;" x="370.625081" xlink:href="#m943b124a72" y="288.430125"/>
      </g>
     </g>
     <g id="text_6">
      <!-- 6000 -->
      <defs>
       <path d="M 33.015625 40.375 
Q 26.375 40.375 22.484375 35.828125 
Q 18.609375 31.296875 18.609375 23.390625 
Q 18.609375 15.53125 22.484375 10.953125 
Q 26.375 6.390625 33.015625 6.390625 
Q 39.65625 6.390625 43.53125 10.953125 
Q 47.40625 15.53125 47.40625 23.390625 
Q 47.40625 31.296875 43.53125 35.828125 
Q 39.65625 40.375 33.015625 40.375 
z
M 52.59375 71.296875 
L 52.59375 62.3125 
Q 48.875 64.0625 45.09375 64.984375 
Q 41.3125 65.921875 37.59375 65.921875 
Q 27.828125 65.921875 22.671875 59.328125 
Q 17.53125 52.734375 16.796875 39.40625 
Q 19.671875 43.65625 24.015625 45.921875 
Q 28.375 48.1875 33.59375 48.1875 
Q 44.578125 48.1875 50.953125 41.515625 
Q 57.328125 34.859375 57.328125 23.390625 
Q 57.328125 12.15625 50.6875 5.359375 
Q 44.046875 -1.421875 33.015625 -1.421875 
Q 20.359375 -1.421875 13.671875 8.265625 
Q 6.984375 17.96875 6.984375 36.375 
Q 6.984375 53.65625 15.1875 63.9375 
Q 23.390625 74.21875 37.203125 74.21875 
Q 40.921875 74.21875 44.703125 73.484375 
Q 48.484375 72.75 52.59375 71.296875 
z
" id="DejaVuSans-36"/>
      </defs>
      <g transform="translate(357.900081 303.028562)scale(0.1 -0.1)">
       <use xlink:href="#DejaVuSans-36"/>
       <use x="63.623047" xlink:href="#DejaVuSans-30"/>
       <use x="127.246094" xlink:href="#DejaVuSans-30"/>
       <use x="190.869141" xlink:href="#DejaVuSans-30"/>
      </g>
     </g>
    </g>
    <g id="xtick_7">
     <g id="line2d_7">
      <g>
       <use style="stroke:#000000;stroke-width:0.8;" x="424.916661" xlink:href="#m943b124a72" y="288.430125"/>
      </g>
     </g>
     <g id="text_7">
      <!-- 7000 -->
      <defs>
       <path d="M 8.203125 72.90625 
L 55.078125 72.90625 
L 55.078125 68.703125 
L 28.609375 0 
L 18.3125 0 
L 43.21875 64.59375 
L 8.203125 64.59375 
z
" id="DejaVuSans-37"/>
      </defs>
      <g transform="translate(412.191661 303.028562)scale(0.1 -0.1)">
       <use xlink:href="#DejaVuSans-37"/>
       <use x="63.623047" xlink:href="#DejaVuSans-30"/>
       <use x="127.246094" xlink:href="#DejaVuSans-30"/>
       <use x="190.869141" xlink:href="#DejaVuSans-30"/>
      </g>
     </g>
    </g>
    <g id="text_8">
     <!-- Distance -->
     <defs>
      <path d="M 19.671875 64.796875 
L 19.671875 8.109375 
L 31.59375 8.109375 
Q 46.6875 8.109375 53.6875 14.9375 
Q 60.6875 21.78125 60.6875 36.53125 
Q 60.6875 51.171875 53.6875 57.984375 
Q 46.6875 64.796875 31.59375 64.796875 
z
M 9.8125 72.90625 
L 30.078125 72.90625 
Q 51.265625 72.90625 61.171875 64.09375 
Q 71.09375 55.28125 71.09375 36.53125 
Q 71.09375 17.671875 61.125 8.828125 
Q 51.171875 0 30.078125 0 
L 9.8125 0 
z
" id="DejaVuSans-44"/>
      <path d="M 9.421875 54.6875 
L 18.40625 54.6875 
L 18.40625 0 
L 9.421875 0 
z
M 9.421875 75.984375 
L 18.40625 75.984375 
L 18.40625 64.59375 
L 9.421875 64.59375 
z
" id="DejaVuSans-69"/>
      <path d="M 44.28125 53.078125 
L 44.28125 44.578125 
Q 40.484375 46.53125 36.375 47.5 
Q 32.28125 48.484375 27.875 48.484375 
Q 21.1875 48.484375 17.84375 46.4375 
Q 14.5 44.390625 14.5 40.28125 
Q 14.5 37.15625 16.890625 35.375 
Q 19.28125 33.59375 26.515625 31.984375 
L 29.59375 31.296875 
Q 39.15625 29.25 43.1875 25.515625 
Q 47.21875 21.78125 47.21875 15.09375 
Q 47.21875 7.46875 41.1875 3.015625 
Q 35.15625 -1.421875 24.609375 -1.421875 
Q 20.21875 -1.421875 15.453125 -0.5625 
Q 10.6875 0.296875 5.421875 2 
L 5.421875 11.28125 
Q 10.40625 8.6875 15.234375 7.390625 
Q 20.0625 6.109375 24.8125 6.109375 
Q 31.15625 6.109375 34.5625 8.28125 
Q 37.984375 10.453125 37.984375 14.40625 
Q 37.984375 18.0625 35.515625 20.015625 
Q 33.0625 21.96875 24.703125 23.78125 
L 21.578125 24.515625 
Q 13.234375 26.265625 9.515625 29.90625 
Q 5.8125 33.546875 5.8125 39.890625 
Q 5.8125 47.609375 11.28125 51.796875 
Q 16.75 56 26.8125 56 
Q 31.78125 56 36.171875 55.265625 
Q 40.578125 54.546875 44.28125 53.078125 
z
" id="DejaVuSans-73"/>
      <path d="M 18.3125 70.21875 
L 18.3125 54.6875 
L 36.8125 54.6875 
L 36.8125 47.703125 
L 18.3125 47.703125 
L 18.3125 18.015625 
Q 18.3125 11.328125 20.140625 9.421875 
Q 21.96875 7.515625 27.59375 7.515625 
L 36.8125 7.515625 
L 36.8125 0 
L 27.59375 0 
Q 17.1875 0 13.234375 3.875 
Q 9.28125 7.765625 9.28125 18.015625 
L 9.28125 47.703125 
L 2.6875 47.703125 
L 2.6875 54.6875 
L 9.28125 54.6875 
L 9.28125 70.21875 
z
" id="DejaVuSans-74"/>
      <path d="M 34.28125 27.484375 
Q 23.390625 27.484375 19.1875 25 
Q 14.984375 22.515625 14.984375 16.5 
Q 14.984375 11.71875 18.140625 8.90625 
Q 21.296875 6.109375 26.703125 6.109375 
Q 34.1875 6.109375 38.703125 11.40625 
Q 43.21875 16.703125 43.21875 25.484375 
L 43.21875 27.484375 
z
M 52.203125 31.203125 
L 52.203125 0 
L 43.21875 0 
L 43.21875 8.296875 
Q 40.140625 3.328125 35.546875 0.953125 
Q 30.953125 -1.421875 24.3125 -1.421875 
Q 15.921875 -1.421875 10.953125 3.296875 
Q 6 8.015625 6 15.921875 
Q 6 25.140625 12.171875 29.828125 
Q 18.359375 34.515625 30.609375 34.515625 
L 43.21875 34.515625 
L 43.21875 35.40625 
Q 43.21875 41.609375 39.140625 45 
Q 35.0625 48.390625 27.6875 48.390625 
Q 23 48.390625 18.546875 47.265625 
Q 14.109375 46.140625 10.015625 43.890625 
L 10.015625 52.203125 
Q 14.9375 54.109375 19.578125 55.046875 
Q 24.21875 56 28.609375 56 
Q 40.484375 56 46.34375 49.84375 
Q 52.203125 43.703125 52.203125 31.203125 
z
" id="DejaVuSans-61"/>
      <path d="M 54.890625 33.015625 
L 54.890625 0 
L 45.90625 0 
L 45.90625 32.71875 
Q 45.90625 40.484375 42.875 44.328125 
Q 39.84375 48.1875 33.796875 48.1875 
Q 26.515625 48.1875 22.3125 43.546875 
Q 18.109375 38.921875 18.109375 30.90625 
L 18.109375 0 
L 9.078125 0 
L 9.078125 54.6875 
L 18.109375 54.6875 
L 18.109375 46.1875 
Q 21.34375 51.125 25.703125 53.5625 
Q 30.078125 56 35.796875 56 
Q 45.21875 56 50.046875 50.171875 
Q 54.890625 44.34375 54.890625 33.015625 
z
" id="DejaVuSans-6e"/>
      <path d="M 48.78125 52.59375 
L 48.78125 44.1875 
Q 44.96875 46.296875 41.140625 47.34375 
Q 37.3125 48.390625 33.40625 48.390625 
Q 24.65625 48.390625 19.8125 42.84375 
Q 14.984375 37.3125 14.984375 27.296875 
Q 14.984375 17.28125 19.8125 11.734375 
Q 24.65625 6.203125 33.40625 6.203125 
Q 37.3125 6.203125 41.140625 7.25 
Q 44.96875 8.296875 48.78125 10.40625 
L 48.78125 2.09375 
Q 45.015625 0.34375 40.984375 -0.53125 
Q 36.96875 -1.421875 32.421875 -1.421875 
Q 20.0625 -1.421875 12.78125 6.34375 
Q 5.515625 14.109375 5.515625 27.296875 
Q 5.515625 40.671875 12.859375 48.328125 
Q 20.21875 56 33.015625 56 
Q 37.15625 56 41.109375 55.140625 
Q 45.0625 54.296875 48.78125 52.59375 
z
" id="DejaVuSans-63"/>
      <path d="M 56.203125 29.59375 
L 56.203125 25.203125 
L 14.890625 25.203125 
Q 15.484375 15.921875 20.484375 11.0625 
Q 25.484375 6.203125 34.421875 6.203125 
Q 39.59375 6.203125 44.453125 7.46875 
Q 49.3125 8.734375 54.109375 11.28125 
L 54.109375 2.78125 
Q 49.265625 0.734375 44.1875 -0.34375 
Q 39.109375 -1.421875 33.890625 -1.421875 
Q 20.796875 -1.421875 13.15625 6.1875 
Q 5.515625 13.8125 5.515625 26.8125 
Q 5.515625 40.234375 12.765625 48.109375 
Q 20.015625 56 32.328125 56 
Q 43.359375 56 49.78125 48.890625 
Q 56.203125 41.796875 56.203125 29.59375 
z
M 47.21875 32.234375 
Q 47.125 39.59375 43.09375 43.984375 
Q 39.0625 48.390625 32.421875 48.390625 
Q 24.90625 48.390625 20.390625 44.140625 
Q 15.875 39.890625 15.1875 32.171875 
z
" id="DejaVuSans-65"/>
     </defs>
     <g transform="translate(225.92875 316.706687)scale(0.1 -0.1)">
      <use xlink:href="#DejaVuSans-44"/>
      <use x="77.001953" xlink:href="#DejaVuSans-69"/>
      <use x="104.785156" xlink:href="#DejaVuSans-73"/>
      <use x="156.884766" xlink:href="#DejaVuSans-74"/>
      <use x="196.09375" xlink:href="#DejaVuSans-61"/>
      <use x="257.373047" xlink:href="#DejaVuSans-6e"/>
      <use x="320.751953" xlink:href="#DejaVuSans-63"/>
      <use x="375.732422" xlink:href="#DejaVuSans-65"/>
     </g>
    </g>
   </g>
   <g id="matplotlib.axis_2">
    <g id="ytick_1">
     <g id="line2d_8">
      <defs>
       <path d="M 0 0 
L -3.5 0 
" id="m87665f1216" style="stroke:#000000;stroke-width:0.8;"/>
      </defs>
      <g>
       <use style="stroke:#000000;stroke-width:0.8;" x="69.23125" xlink:href="#m87665f1216" y="288.430125"/>
      </g>
     </g>
     <g id="text_9">
      <!-- 0.00000 -->
      <defs>
       <path d="M 10.6875 12.40625 
L 21 12.40625 
L 21 0 
L 10.6875 0 
z
" id="DejaVuSans-2e"/>
      </defs>
      <g transform="translate(20.878125 292.229344)scale(0.1 -0.1)">
       <use xlink:href="#DejaVuSans-30"/>
       <use x="63.623047" xlink:href="#DejaVuSans-2e"/>
       <use x="95.410156" xlink:href="#DejaVuSans-30"/>
       <use x="159.033203" xlink:href="#DejaVuSans-30"/>
       <use x="222.65625" xlink:href="#DejaVuSans-30"/>
       <use x="286.279297" xlink:href="#DejaVuSans-30"/>
       <use x="349.902344" xlink:href="#DejaVuSans-30"/>
      </g>
     </g>
    </g>
    <g id="ytick_2">
     <g id="line2d_9">
      <g>
       <use style="stroke:#000000;stroke-width:0.8;" x="69.23125" xlink:href="#m87665f1216" y="254.947514"/>
      </g>
     </g>
     <g id="text_10">
      <!-- 0.00005 -->
      <g transform="translate(20.878125 258.746733)scale(0.1 -0.1)">
       <use xlink:href="#DejaVuSans-30"/>
       <use x="63.623047" xlink:href="#DejaVuSans-2e"/>
       <use x="95.410156" xlink:href="#DejaVuSans-30"/>
       <use x="159.033203" xlink:href="#DejaVuSans-30"/>
       <use x="222.65625" xlink:href="#DejaVuSans-30"/>
       <use x="286.279297" xlink:href="#DejaVuSans-30"/>
       <use x="349.902344" xlink:href="#DejaVuSans-35"/>
      </g>
     </g>
    </g>
    <g id="ytick_3">
     <g id="line2d_10">
      <g>
       <use style="stroke:#000000;stroke-width:0.8;" x="69.23125" xlink:href="#m87665f1216" y="221.464903"/>
      </g>
     </g>
     <g id="text_11">
      <!-- 0.00010 -->
      <g transform="translate(20.878125 225.264122)scale(0.1 -0.1)">
       <use xlink:href="#DejaVuSans-30"/>
       <use x="63.623047" xlink:href="#DejaVuSans-2e"/>
       <use x="95.410156" xlink:href="#DejaVuSans-30"/>
       <use x="159.033203" xlink:href="#DejaVuSans-30"/>
       <use x="222.65625" xlink:href="#DejaVuSans-30"/>
       <use x="286.279297" xlink:href="#DejaVuSans-31"/>
       <use x="349.902344" xlink:href="#DejaVuSans-30"/>
      </g>
     </g>
    </g>
    <g id="ytick_4">
     <g id="line2d_11">
      <g>
       <use style="stroke:#000000;stroke-width:0.8;" x="69.23125" xlink:href="#m87665f1216" y="187.982292"/>
      </g>
     </g>
     <g id="text_12">
      <!-- 0.00015 -->
      <g transform="translate(20.878125 191.781511)scale(0.1 -0.1)">
       <use xlink:href="#DejaVuSans-30"/>
       <use x="63.623047" xlink:href="#DejaVuSans-2e"/>
       <use x="95.410156" xlink:href="#DejaVuSans-30"/>
       <use x="159.033203" xlink:href="#DejaVuSans-30"/>
       <use x="222.65625" xlink:href="#DejaVuSans-30"/>
       <use x="286.279297" xlink:href="#DejaVuSans-31"/>
       <use x="349.902344" xlink:href="#DejaVuSans-35"/>
      </g>
     </g>
    </g>
    <g id="ytick_5">
     <g id="line2d_12">
      <g>
       <use style="stroke:#000000;stroke-width:0.8;" x="69.23125" xlink:href="#m87665f1216" y="154.499681"/>
      </g>
     </g>
     <g id="text_13">
      <!-- 0.00020 -->
      <g transform="translate(20.878125 158.2989)scale(0.1 -0.1)">
       <use xlink:href="#DejaVuSans-30"/>
       <use x="63.623047" xlink:href="#DejaVuSans-2e"/>
       <use x="95.410156" xlink:href="#DejaVuSans-30"/>
       <use x="159.033203" xlink:href="#DejaVuSans-30"/>
       <use x="222.65625" xlink:href="#DejaVuSans-30"/>
       <use x="286.279297" xlink:href="#DejaVuSans-32"/>
       <use x="349.902344" xlink:href="#DejaVuSans-30"/>
      </g>
     </g>
    </g>
    <g id="ytick_6">
     <g id="line2d_13">
      <g>
       <use style="stroke:#000000;stroke-width:0.8;" x="69.23125" xlink:href="#m87665f1216" y="121.01707"/>
      </g>
     </g>
     <g id="text_14">
      <!-- 0.00025 -->
      <g transform="translate(20.878125 124.816289)scale(0.1 -0.1)">
       <use xlink:href="#DejaVuSans-30"/>
       <use x="63.623047" xlink:href="#DejaVuSans-2e"/>
       <use x="95.410156" xlink:href="#DejaVuSans-30"/>
       <use x="159.033203" xlink:href="#DejaVuSans-30"/>
       <use x="222.65625" xlink:href="#DejaVuSans-30"/>
       <use x="286.279297" xlink:href="#DejaVuSans-32"/>
       <use x="349.902344" xlink:href="#DejaVuSans-35"/>
      </g>
     </g>
    </g>
    <g id="ytick_7">
     <g id="line2d_14">
      <g>
       <use style="stroke:#000000;stroke-width:0.8;" x="69.23125" xlink:href="#m87665f1216" y="87.534459"/>
      </g>
     </g>
     <g id="text_15">
      <!-- 0.00030 -->
      <g transform="translate(20.878125 91.333678)scale(0.1 -0.1)">
       <use xlink:href="#DejaVuSans-30"/>
       <use x="63.623047" xlink:href="#DejaVuSans-2e"/>
       <use x="95.410156" xlink:href="#DejaVuSans-30"/>
       <use x="159.033203" xlink:href="#DejaVuSans-30"/>
       <use x="222.65625" xlink:href="#DejaVuSans-30"/>
       <use x="286.279297" xlink:href="#DejaVuSans-33"/>
       <use x="349.902344" xlink:href="#DejaVuSans-30"/>
      </g>
     </g>
    </g>
    <g id="ytick_8">
     <g id="line2d_15">
      <g>
       <use style="stroke:#000000;stroke-width:0.8;" x="69.23125" xlink:href="#m87665f1216" y="54.051849"/>
      </g>
     </g>
     <g id="text_16">
      <!-- 0.00035 -->
      <g transform="translate(20.878125 57.851067)scale(0.1 -0.1)">
       <use xlink:href="#DejaVuSans-30"/>
       <use x="63.623047" xlink:href="#DejaVuSans-2e"/>
       <use x="95.410156" xlink:href="#DejaVuSans-30"/>
       <use x="159.033203" xlink:href="#DejaVuSans-30"/>
       <use x="222.65625" xlink:href="#DejaVuSans-30"/>
       <use x="286.279297" xlink:href="#DejaVuSans-33"/>
       <use x="349.902344" xlink:href="#DejaVuSans-35"/>
      </g>
     </g>
    </g>
    <g id="text_17">
     <!-- Probability -->
     <defs>
      <path d="M 19.671875 64.796875 
L 19.671875 37.40625 
L 32.078125 37.40625 
Q 38.96875 37.40625 42.71875 40.96875 
Q 46.484375 44.53125 46.484375 51.125 
Q 46.484375 57.671875 42.71875 61.234375 
Q 38.96875 64.796875 32.078125 64.796875 
z
M 9.8125 72.90625 
L 32.078125 72.90625 
Q 44.34375 72.90625 50.609375 67.359375 
Q 56.890625 61.8125 56.890625 51.125 
Q 56.890625 40.328125 50.609375 34.8125 
Q 44.34375 29.296875 32.078125 29.296875 
L 19.671875 29.296875 
L 19.671875 0 
L 9.8125 0 
z
" id="DejaVuSans-50"/>
      <path d="M 41.109375 46.296875 
Q 39.59375 47.171875 37.8125 47.578125 
Q 36.03125 48 33.890625 48 
Q 26.265625 48 22.1875 43.046875 
Q 18.109375 38.09375 18.109375 28.8125 
L 18.109375 0 
L 9.078125 0 
L 9.078125 54.6875 
L 18.109375 54.6875 
L 18.109375 46.1875 
Q 20.953125 51.171875 25.484375 53.578125 
Q 30.03125 56 36.53125 56 
Q 37.453125 56 38.578125 55.875 
Q 39.703125 55.765625 41.0625 55.515625 
z
" id="DejaVuSans-72"/>
      <path d="M 30.609375 48.390625 
Q 23.390625 48.390625 19.1875 42.75 
Q 14.984375 37.109375 14.984375 27.296875 
Q 14.984375 17.484375 19.15625 11.84375 
Q 23.34375 6.203125 30.609375 6.203125 
Q 37.796875 6.203125 41.984375 11.859375 
Q 46.1875 17.53125 46.1875 27.296875 
Q 46.1875 37.015625 41.984375 42.703125 
Q 37.796875 48.390625 30.609375 48.390625 
z
M 30.609375 56 
Q 42.328125 56 49.015625 48.375 
Q 55.71875 40.765625 55.71875 27.296875 
Q 55.71875 13.875 49.015625 6.21875 
Q 42.328125 -1.421875 30.609375 -1.421875 
Q 18.84375 -1.421875 12.171875 6.21875 
Q 5.515625 13.875 5.515625 27.296875 
Q 5.515625 40.765625 12.171875 48.375 
Q 18.84375 56 30.609375 56 
z
" id="DejaVuSans-6f"/>
      <path d="M 48.6875 27.296875 
Q 48.6875 37.203125 44.609375 42.84375 
Q 40.53125 48.484375 33.40625 48.484375 
Q 26.265625 48.484375 22.1875 42.84375 
Q 18.109375 37.203125 18.109375 27.296875 
Q 18.109375 17.390625 22.1875 11.75 
Q 26.265625 6.109375 33.40625 6.109375 
Q 40.53125 6.109375 44.609375 11.75 
Q 48.6875 17.390625 48.6875 27.296875 
z
M 18.109375 46.390625 
Q 20.953125 51.265625 25.265625 53.625 
Q 29.59375 56 35.59375 56 
Q 45.5625 56 51.78125 48.09375 
Q 58.015625 40.1875 58.015625 27.296875 
Q 58.015625 14.40625 51.78125 6.484375 
Q 45.5625 -1.421875 35.59375 -1.421875 
Q 29.59375 -1.421875 25.265625 0.953125 
Q 20.953125 3.328125 18.109375 8.203125 
L 18.109375 0 
L 9.078125 0 
L 9.078125 75.984375 
L 18.109375 75.984375 
z
" id="DejaVuSans-62"/>
      <path d="M 9.421875 75.984375 
L 18.40625 75.984375 
L 18.40625 0 
L 9.421875 0 
z
" id="DejaVuSans-6c"/>
      <path d="M 32.171875 -5.078125 
Q 28.375 -14.84375 24.75 -17.8125 
Q 21.140625 -20.796875 15.09375 -20.796875 
L 7.90625 -20.796875 
L 7.90625 -13.28125 
L 13.1875 -13.28125 
Q 16.890625 -13.28125 18.9375 -11.515625 
Q 21 -9.765625 23.484375 -3.21875 
L 25.09375 0.875 
L 2.984375 54.6875 
L 12.5 54.6875 
L 29.59375 11.921875 
L 46.6875 54.6875 
L 56.203125 54.6875 
z
" id="DejaVuSans-79"/>
     </defs>
     <g transform="translate(14.798438 182.000687)rotate(-90)scale(0.1 -0.1)">
      <use xlink:href="#DejaVuSans-50"/>
      <use x="60.287109" xlink:href="#DejaVuSans-72"/>
      <use x="101.369141" xlink:href="#DejaVuSans-6f"/>
      <use x="162.550781" xlink:href="#DejaVuSans-62"/>
      <use x="226.027344" xlink:href="#DejaVuSans-61"/>
      <use x="287.306641" xlink:href="#DejaVuSans-62"/>
      <use x="350.783203" xlink:href="#DejaVuSans-69"/>
      <use x="378.566406" xlink:href="#DejaVuSans-6c"/>
      <use x="406.349609" xlink:href="#DejaVuSans-69"/>
      <use x="434.132812" xlink:href="#DejaVuSans-74"/>
      <use x="473.341797" xlink:href="#DejaVuSans-79"/>
     </g>
    </g>
   </g>
   <g id="line2d_16">
    <path clip-path="url(#p8aaab99268)" d="M 85.463977 265.664988 
L 97.402211 253.346147 
L 107.620696 239.328641 
L 113.769996 229.223604 
L 115.498437 226.153577 
L 121.970034 213.77485 
L 125.654463 206.122198 
L 129.960452 196.655145 
L 137.461697 178.957452 
L 146.722488 155.474218 
L 167.247841 101.867102 
L 171.732694 90.89602 
L 176.646316 79.590143 
L 180.142998 72.111818 
L 182.741088 66.910806 
L 185.302464 62.111333 
L 189.471697 55.063042 
L 192.620073 50.421893 
L 195.106486 47.200462 
L 198.314796 43.653007 
L 200.476417 41.664855 
L 201.382345 40.930337 
L 204.243132 39.001173 
L 204.650755 38.77512 
L 206.626183 37.854253 
L 207.890111 37.417952 
L 209.879547 36.974657 
L 211.997949 36.83139 
L 215.21305 37.262639 
L 216.985741 37.833686 
L 219.815134 39.231129 
L 221.085505 40.050737 
L 223.594188 42.013097 
L 224.407984 42.746299 
L 227.00333 45.393822 
L 229.830349 48.798534 
L 231.01432 50.380383 
L 234.526181 55.589695 
L 237.317835 60.254157 
L 240.246932 65.610309 
L 243.049678 71.143492 
L 245.15673 75.544182 
L 248.922076 83.869208 
L 253.11912 93.746929 
L 259.108037 108.679018 
L 267.084163 129.488809 
L 279.333467 161.668938 
L 283.826678 173.076521 
L 290.341749 188.898587 
L 294.394071 198.208364 
L 300.366975 211.066694 
L 305.747001 221.688411 
L 311.22648 231.520564 
L 317.639282 241.742584 
L 328.550863 256.030184 
L 337.179921 264.767766 
L 346.679976 272.116832 
L 348.241835 273.124236 
L 356.68034 277.720439 
L 379.867649 284.834893 
L 410.118523 287.751486 
L 410.118523 287.751486 
" style="fill:none;stroke:#1f77b4;stroke-linecap:square;stroke-width:1.5;"/>
    <defs>
     <path d="M 0 3 
C 0.795609 3 1.55874 2.683901 2.12132 2.12132 
C 2.683901 1.55874 3 0.795609 3 0 
C 3 -0.795609 2.683901 -1.55874 2.12132 -2.12132 
C 1.55874 -2.683901 0.795609 -3 0 -3 
C -0.795609 -3 -1.55874 -2.683901 -2.12132 -2.12132 
C -2.683901 -1.55874 -3 -0.795609 -3 0 
C -3 0.795609 -2.683901 1.55874 -2.12132 2.12132 
C -1.55874 2.683901 -0.795609 3 0 3 
z
" id="m3ce190ea9b" style="stroke:#1f77b4;"/>
    </defs>
    <g clip-path="url(#p8aaab99268)">
     <use style="fill:#1f77b4;stroke:#1f77b4;" x="85.463977" xlink:href="#m3ce190ea9b" y="265.664988"/>
     <use style="fill:#1f77b4;stroke:#1f77b4;" x="97.402211" xlink:href="#m3ce190ea9b" y="253.346147"/>
     <use style="fill:#1f77b4;stroke:#1f77b4;" x="107.167405" xlink:href="#m3ce190ea9b" y="240.023152"/>
     <use style="fill:#1f77b4;stroke:#1f77b4;" x="107.620696" xlink:href="#m3ce190ea9b" y="239.328641"/>
     <use style="fill:#1f77b4;stroke:#1f77b4;" x="113.769996" xlink:href="#m3ce190ea9b" y="229.223604"/>
     <use style="fill:#1f77b4;stroke:#1f77b4;" x="115.498437" xlink:href="#m3ce190ea9b" y="226.153577"/>
     <use style="fill:#1f77b4;stroke:#1f77b4;" x="120.195094" xlink:href="#m3ce190ea9b" y="217.307038"/>
     <use style="fill:#1f77b4;stroke:#1f77b4;" x="121.970034" xlink:href="#m3ce190ea9b" y="213.77485"/>
     <use style="fill:#1f77b4;stroke:#1f77b4;" x="125.578447" xlink:href="#m3ce190ea9b" y="206.284358"/>
     <use style="fill:#1f77b4;stroke:#1f77b4;" x="125.654463" xlink:href="#m3ce190ea9b" y="206.122198"/>
     <use style="fill:#1f77b4;stroke:#1f77b4;" x="129.960452" xlink:href="#m3ce190ea9b" y="196.655145"/>
     <use style="fill:#1f77b4;stroke:#1f77b4;" x="135.123397" xlink:href="#m3ce190ea9b" y="184.62412"/>
     <use style="fill:#1f77b4;stroke:#1f77b4;" x="135.599173" xlink:href="#m3ce190ea9b" y="183.481407"/>
     <use style="fill:#1f77b4;stroke:#1f77b4;" x="136.131166" xlink:href="#m3ce190ea9b" y="182.197336"/>
     <use style="fill:#1f77b4;stroke:#1f77b4;" x="136.336932" xlink:href="#m3ce190ea9b" y="181.698913"/>
     <use style="fill:#1f77b4;stroke:#1f77b4;" x="137.2044" xlink:href="#m3ce190ea9b" y="179.587071"/>
     <use style="fill:#1f77b4;stroke:#1f77b4;" x="137.320749" xlink:href="#m3ce190ea9b" y="179.302539"/>
     <use style="fill:#1f77b4;stroke:#1f77b4;" x="137.461697" xlink:href="#m3ce190ea9b" y="178.957452"/>
     <use style="fill:#1f77b4;stroke:#1f77b4;" x="143.458028" xlink:href="#m3ce190ea9b" y="163.911381"/>
     <use style="fill:#1f77b4;stroke:#1f77b4;" x="143.61534" xlink:href="#m3ce190ea9b" y="163.508174"/>
     <use style="fill:#1f77b4;stroke:#1f77b4;" x="146.039585" xlink:href="#m3ce190ea9b" y="157.250467"/>
     <use style="fill:#1f77b4;stroke:#1f77b4;" x="146.699651" xlink:href="#m3ce190ea9b" y="155.533703"/>
     <use style="fill:#1f77b4;stroke:#1f77b4;" x="146.722488" xlink:href="#m3ce190ea9b" y="155.474218"/>
     <use style="fill:#1f77b4;stroke:#1f77b4;" x="149.638907" xlink:href="#m3ce190ea9b" y="147.83604"/>
     <use style="fill:#1f77b4;stroke:#1f77b4;" x="150.454902" xlink:href="#m3ce190ea9b" y="145.686846"/>
     <use style="fill:#1f77b4;stroke:#1f77b4;" x="153.59556" xlink:href="#m3ce190ea9b" y="137.386489"/>
     <use style="fill:#1f77b4;stroke:#1f77b4;" x="153.73125" xlink:href="#m3ce190ea9b" y="137.027323"/>
     <use style="fill:#1f77b4;stroke:#1f77b4;" x="154.656754" xlink:href="#m3ce190ea9b" y="134.577414"/>
     <use style="fill:#1f77b4;stroke:#1f77b4;" x="155.87691" xlink:href="#m3ce190ea9b" y="131.348724"/>
     <use style="fill:#1f77b4;stroke:#1f77b4;" x="156.16046" xlink:href="#m3ce190ea9b" y="130.598889"/>
     <use style="fill:#1f77b4;stroke:#1f77b4;" x="156.958205" xlink:href="#m3ce190ea9b" y="128.490791"/>
     <use style="fill:#1f77b4;stroke:#1f77b4;" x="157.529368" xlink:href="#m3ce190ea9b" y="126.983169"/>
     <use style="fill:#1f77b4;stroke:#1f77b4;" x="158.114749" xlink:href="#m3ce190ea9b" y="125.439875"/>
     <use style="fill:#1f77b4;stroke:#1f77b4;" x="158.377514" xlink:href="#m3ce190ea9b" y="124.747823"/>
     <use style="fill:#1f77b4;stroke:#1f77b4;" x="159.49092" xlink:href="#m3ce190ea9b" y="121.82107"/>
     <use style="fill:#1f77b4;stroke:#1f77b4;" x="160.725361" xlink:href="#m3ce190ea9b" y="118.589022"/>
     <use style="fill:#1f77b4;stroke:#1f77b4;" x="161.27049" xlink:href="#m3ce190ea9b" y="117.166862"/>
     <use style="fill:#1f77b4;stroke:#1f77b4;" x="163.460298" xlink:href="#m3ce190ea9b" y="111.492475"/>
     <use style="fill:#1f77b4;stroke:#1f77b4;" x="163.945602" xlink:href="#m3ce190ea9b" y="110.244494"/>
     <use style="fill:#1f77b4;stroke:#1f77b4;" x="164.638094" xlink:href="#m3ce190ea9b" y="108.470547"/>
     <use style="fill:#1f77b4;stroke:#1f77b4;" x="166.331865" xlink:href="#m3ce190ea9b" y="104.168942"/>
     <use style="fill:#1f77b4;stroke:#1f77b4;" x="166.477914" xlink:href="#m3ce190ea9b" y="103.800713"/>
     <use style="fill:#1f77b4;stroke:#1f77b4;" x="167.013936" xlink:href="#m3ce190ea9b" y="102.45316"/>
     <use style="fill:#1f77b4;stroke:#1f77b4;" x="167.247841" xlink:href="#m3ce190ea9b" y="101.867102"/>
     <use style="fill:#1f77b4;stroke:#1f77b4;" x="168.617103" xlink:href="#m3ce190ea9b" y="98.461881"/>
     <use style="fill:#1f77b4;stroke:#1f77b4;" x="168.844225" xlink:href="#m3ce190ea9b" y="97.901465"/>
     <use style="fill:#1f77b4;stroke:#1f77b4;" x="169.144989" xlink:href="#m3ce190ea9b" y="97.161366"/>
     <use style="fill:#1f77b4;stroke:#1f77b4;" x="169.446514" xlink:href="#m3ce190ea9b" y="96.421752"/>
     <use style="fill:#1f77b4;stroke:#1f77b4;" x="170.082072" xlink:href="#m3ce190ea9b" y="94.87075"/>
     <use style="fill:#1f77b4;stroke:#1f77b4;" x="170.224133" xlink:href="#m3ce190ea9b" y="94.52558"/>
     <use style="fill:#1f77b4;stroke:#1f77b4;" x="170.769452" xlink:href="#m3ce190ea9b" y="93.205891"/>
     <use style="fill:#1f77b4;stroke:#1f77b4;" x="171.051086" xlink:href="#m3ce190ea9b" y="92.527678"/>
     <use style="fill:#1f77b4;stroke:#1f77b4;" x="171.264972" xlink:href="#m3ce190ea9b" y="92.01417"/>
     <use style="fill:#1f77b4;stroke:#1f77b4;" x="171.498196" xlink:href="#m3ce190ea9b" y="91.455789"/>
     <use style="fill:#1f77b4;stroke:#1f77b4;" x="171.732694" xlink:href="#m3ce190ea9b" y="90.89602"/>
     <use style="fill:#1f77b4;stroke:#1f77b4;" x="173.537304" xlink:href="#m3ce190ea9b" y="86.646416"/>
     <use style="fill:#1f77b4;stroke:#1f77b4;" x="176.646316" xlink:href="#m3ce190ea9b" y="79.590143"/>
     <use style="fill:#1f77b4;stroke:#1f77b4;" x="177.034546" xlink:href="#m3ce190ea9b" y="78.734695"/>
     <use style="fill:#1f77b4;stroke:#1f77b4;" x="178.975674" xlink:href="#m3ce190ea9b" y="74.550197"/>
     <use style="fill:#1f77b4;stroke:#1f77b4;" x="179.381668" xlink:href="#m3ce190ea9b" y="73.69528"/>
     <use style="fill:#1f77b4;stroke:#1f77b4;" x="180.142998" xlink:href="#m3ce190ea9b" y="72.111818"/>
     <use style="fill:#1f77b4;stroke:#1f77b4;" x="180.496397" xlink:href="#m3ce190ea9b" y="71.385701"/>
     <use style="fill:#1f77b4;stroke:#1f77b4;" x="181.381272" xlink:href="#m3ce190ea9b" y="69.592944"/>
     <use style="fill:#1f77b4;stroke:#1f77b4;" x="181.771196" xlink:href="#m3ce190ea9b" y="68.81469"/>
     <use style="fill:#1f77b4;stroke:#1f77b4;" x="182.052284" xlink:href="#m3ce190ea9b" y="68.258196"/>
     <use style="fill:#1f77b4;stroke:#1f77b4;" x="182.724268" xlink:href="#m3ce190ea9b" y="66.94343"/>
     <use style="fill:#1f77b4;stroke:#1f77b4;" x="182.741088" xlink:href="#m3ce190ea9b" y="66.910806"/>
     <use style="fill:#1f77b4;stroke:#1f77b4;" x="184.870679" xlink:href="#m3ce190ea9b" y="62.896433"/>
     <use style="fill:#1f77b4;stroke:#1f77b4;" x="185.302464" xlink:href="#m3ce190ea9b" y="62.111333"/>
     <use style="fill:#1f77b4;stroke:#1f77b4;" x="187.982488" xlink:href="#m3ce190ea9b" y="57.466826"/>
     <use style="fill:#1f77b4;stroke:#1f77b4;" x="189.471697" xlink:href="#m3ce190ea9b" y="55.063042"/>
     <use style="fill:#1f77b4;stroke:#1f77b4;" x="191.714408" xlink:href="#m3ce190ea9b" y="51.694013"/>
     <use style="fill:#1f77b4;stroke:#1f77b4;" x="192.620073" xlink:href="#m3ce190ea9b" y="50.421893"/>
     <use style="fill:#1f77b4;stroke:#1f77b4;" x="193.418176" xlink:href="#m3ce190ea9b" y="49.34411"/>
     <use style="fill:#1f77b4;stroke:#1f77b4;" x="193.69762" xlink:href="#m3ce190ea9b" y="48.976437"/>
     <use style="fill:#1f77b4;stroke:#1f77b4;" x="194.034631" xlink:href="#m3ce190ea9b" y="48.539767"/>
     <use style="fill:#1f77b4;stroke:#1f77b4;" x="194.035175" xlink:href="#m3ce190ea9b" y="48.539068"/>
     <use style="fill:#1f77b4;stroke:#1f77b4;" x="194.771662" xlink:href="#m3ce190ea9b" y="47.610692"/>
     <use style="fill:#1f77b4;stroke:#1f77b4;" x="194.940845" xlink:href="#m3ce190ea9b" y="47.402477"/>
     <use style="fill:#1f77b4;stroke:#1f77b4;" x="195.106486" xlink:href="#m3ce190ea9b" y="47.200462"/>
     <use style="fill:#1f77b4;stroke:#1f77b4;" x="197.224885" xlink:href="#m3ce190ea9b" y="44.779318"/>
     <use style="fill:#1f77b4;stroke:#1f77b4;" x="197.375351" xlink:href="#m3ce190ea9b" y="44.618951"/>
     <use style="fill:#1f77b4;stroke:#1f77b4;" x="198.314796" xlink:href="#m3ce190ea9b" y="43.653007"/>
     <use style="fill:#1f77b4;stroke:#1f77b4;" x="199.667868" xlink:href="#m3ce190ea9b" y="42.369904"/>
     <use style="fill:#1f77b4;stroke:#1f77b4;" x="200.287161" xlink:href="#m3ce190ea9b" y="41.825717"/>
     <use style="fill:#1f77b4;stroke:#1f77b4;" x="200.476417" xlink:href="#m3ce190ea9b" y="41.664855"/>
     <use style="fill:#1f77b4;stroke:#1f77b4;" x="201.382345" xlink:href="#m3ce190ea9b" y="40.930337"/>
     <use style="fill:#1f77b4;stroke:#1f77b4;" x="203.360725" xlink:href="#m3ce190ea9b" y="39.532454"/>
     <use style="fill:#1f77b4;stroke:#1f77b4;" x="204.190258" xlink:href="#m3ce190ea9b" y="39.031393"/>
     <use style="fill:#1f77b4;stroke:#1f77b4;" x="204.243132" xlink:href="#m3ce190ea9b" y="39.001173"/>
     <use style="fill:#1f77b4;stroke:#1f77b4;" x="204.650755" xlink:href="#m3ce190ea9b" y="38.77512"/>
     <use style="fill:#1f77b4;stroke:#1f77b4;" x="206.626183" xlink:href="#m3ce190ea9b" y="37.854253"/>
     <use style="fill:#1f77b4;stroke:#1f77b4;" x="207.707299" xlink:href="#m3ce190ea9b" y="37.473643"/>
     <use style="fill:#1f77b4;stroke:#1f77b4;" x="207.814924" xlink:href="#m3ce190ea9b" y="37.440553"/>
     <use style="fill:#1f77b4;stroke:#1f77b4;" x="207.880069" xlink:href="#m3ce190ea9b" y="37.420946"/>
     <use style="fill:#1f77b4;stroke:#1f77b4;" x="207.890111" xlink:href="#m3ce190ea9b" y="37.417952"/>
     <use style="fill:#1f77b4;stroke:#1f77b4;" x="209.131781" xlink:href="#m3ce190ea9b" y="37.106264"/>
     <use style="fill:#1f77b4;stroke:#1f77b4;" x="209.736036" xlink:href="#m3ce190ea9b" y="36.99664"/>
     <use style="fill:#1f77b4;stroke:#1f77b4;" x="209.815592" xlink:href="#m3ce190ea9b" y="36.984262"/>
     <use style="fill:#1f77b4;stroke:#1f77b4;" x="209.879547" xlink:href="#m3ce190ea9b" y="36.974657"/>
     <use style="fill:#1f77b4;stroke:#1f77b4;" x="210.883383" xlink:href="#m3ce190ea9b" y="36.864435"/>
     <use style="fill:#1f77b4;stroke:#1f77b4;" x="210.986764" xlink:href="#m3ce190ea9b" y="36.857413"/>
     <use style="fill:#1f77b4;stroke:#1f77b4;" x="211.191373" xlink:href="#m3ce190ea9b" y="36.845901"/>
     <use style="fill:#1f77b4;stroke:#1f77b4;" x="211.997949" xlink:href="#m3ce190ea9b" y="36.83139"/>
     <use style="fill:#1f77b4;stroke:#1f77b4;" x="214.440445" xlink:href="#m3ce190ea9b" y="37.087724"/>
     <use style="fill:#1f77b4;stroke:#1f77b4;" x="214.585278" xlink:href="#m3ce190ea9b" y="37.117085"/>
     <use style="fill:#1f77b4;stroke:#1f77b4;" x="214.706177" xlink:href="#m3ce190ea9b" y="37.142806"/>
     <use style="fill:#1f77b4;stroke:#1f77b4;" x="215.010253" xlink:href="#m3ce190ea9b" y="37.21237"/>
     <use style="fill:#1f77b4;stroke:#1f77b4;" x="215.21305" xlink:href="#m3ce190ea9b" y="37.262639"/>
     <use style="fill:#1f77b4;stroke:#1f77b4;" x="216.747171" xlink:href="#m3ce190ea9b" y="37.743106"/>
     <use style="fill:#1f77b4;stroke:#1f77b4;" x="216.985741" xlink:href="#m3ce190ea9b" y="37.833686"/>
     <use style="fill:#1f77b4;stroke:#1f77b4;" x="218.878156" xlink:href="#m3ce190ea9b" y="38.702605"/>
     <use style="fill:#1f77b4;stroke:#1f77b4;" x="219.410301" xlink:href="#m3ce190ea9b" y="38.994826"/>
     <use style="fill:#1f77b4;stroke:#1f77b4;" x="219.815134" xlink:href="#m3ce190ea9b" y="39.231129"/>
     <use style="fill:#1f77b4;stroke:#1f77b4;" x="220.480785" xlink:href="#m3ce190ea9b" y="39.645859"/>
     <use style="fill:#1f77b4;stroke:#1f77b4;" x="221.085505" xlink:href="#m3ce190ea9b" y="40.050737"/>
     <use style="fill:#1f77b4;stroke:#1f77b4;" x="222.380311" xlink:href="#m3ce190ea9b" y="41.00701"/>
     <use style="fill:#1f77b4;stroke:#1f77b4;" x="222.519372" xlink:href="#m3ce190ea9b" y="41.116914"/>
     <use style="fill:#1f77b4;stroke:#1f77b4;" x="222.550545" xlink:href="#m3ce190ea9b" y="41.141741"/>
     <use style="fill:#1f77b4;stroke:#1f77b4;" x="223.594188" xlink:href="#m3ce190ea9b" y="42.013097"/>
     <use style="fill:#1f77b4;stroke:#1f77b4;" x="224.407984" xlink:href="#m3ce190ea9b" y="42.746299"/>
     <use style="fill:#1f77b4;stroke:#1f77b4;" x="227.00333" xlink:href="#m3ce190ea9b" y="45.393822"/>
     <use style="fill:#1f77b4;stroke:#1f77b4;" x="228.279538" xlink:href="#m3ce190ea9b" y="46.864847"/>
     <use style="fill:#1f77b4;stroke:#1f77b4;" x="229.139488" xlink:href="#m3ce190ea9b" y="47.91753"/>
     <use style="fill:#1f77b4;stroke:#1f77b4;" x="229.429701" xlink:href="#m3ce190ea9b" y="48.28381"/>
     <use style="fill:#1f77b4;stroke:#1f77b4;" x="229.830349" xlink:href="#m3ce190ea9b" y="48.798534"/>
     <use style="fill:#1f77b4;stroke:#1f77b4;" x="230.54697" xlink:href="#m3ce190ea9b" y="49.745203"/>
     <use style="fill:#1f77b4;stroke:#1f77b4;" x="231.01432" xlink:href="#m3ce190ea9b" y="50.380383"/>
     <use style="fill:#1f77b4;stroke:#1f77b4;" x="233.077559" xlink:href="#m3ce190ea9b" y="53.349152"/>
     <use style="fill:#1f77b4;stroke:#1f77b4;" x="233.135782" xlink:href="#m3ce190ea9b" y="53.436756"/>
     <use style="fill:#1f77b4;stroke:#1f77b4;" x="233.960141" xlink:href="#m3ce190ea9b" y="54.699202"/>
     <use style="fill:#1f77b4;stroke:#1f77b4;" x="234.526181" xlink:href="#m3ce190ea9b" y="55.589695"/>
     <use style="fill:#1f77b4;stroke:#1f77b4;" x="235.005044" xlink:href="#m3ce190ea9b" y="56.357863"/>
     <use style="fill:#1f77b4;stroke:#1f77b4;" x="235.767115" xlink:href="#m3ce190ea9b" y="57.607959"/>
     <use style="fill:#1f77b4;stroke:#1f77b4;" x="236.164967" xlink:href="#m3ce190ea9b" y="58.273897"/>
     <use style="fill:#1f77b4;stroke:#1f77b4;" x="236.390518" xlink:href="#m3ce190ea9b" y="58.65544"/>
     <use style="fill:#1f77b4;stroke:#1f77b4;" x="237.317835" xlink:href="#m3ce190ea9b" y="60.254157"/>
     <use style="fill:#1f77b4;stroke:#1f77b4;" x="237.712177" xlink:href="#m3ce190ea9b" y="60.948476"/>
     <use style="fill:#1f77b4;stroke:#1f77b4;" x="240.246932" xlink:href="#m3ce190ea9b" y="65.610309"/>
     <use style="fill:#1f77b4;stroke:#1f77b4;" x="240.877365" xlink:href="#m3ce190ea9b" y="66.821408"/>
     <use style="fill:#1f77b4;stroke:#1f77b4;" x="242.521021" xlink:href="#m3ce190ea9b" y="70.070941"/>
     <use style="fill:#1f77b4;stroke:#1f77b4;" x="243.049678" xlink:href="#m3ce190ea9b" y="71.143492"/>
     <use style="fill:#1f77b4;stroke:#1f77b4;" x="244.348269" xlink:href="#m3ce190ea9b" y="73.83241"/>
     <use style="fill:#1f77b4;stroke:#1f77b4;" x="244.77424" xlink:href="#m3ce190ea9b" y="74.730799"/>
     <use style="fill:#1f77b4;stroke:#1f77b4;" x="244.984002" xlink:href="#m3ce190ea9b" y="75.176088"/>
     <use style="fill:#1f77b4;stroke:#1f77b4;" x="245.15673" xlink:href="#m3ce190ea9b" y="75.544182"/>
     <use style="fill:#1f77b4;stroke:#1f77b4;" x="247.441521" xlink:href="#m3ce190ea9b" y="80.529538"/>
     <use style="fill:#1f77b4;stroke:#1f77b4;" x="248.652591" xlink:href="#m3ce190ea9b" y="83.255279"/>
     <use style="fill:#1f77b4;stroke:#1f77b4;" x="248.922076" xlink:href="#m3ce190ea9b" y="83.869208"/>
     <use style="fill:#1f77b4;stroke:#1f77b4;" x="251.204954" xlink:href="#m3ce190ea9b" y="89.171578"/>
     <use style="fill:#1f77b4;stroke:#1f77b4;" x="253.11912" xlink:href="#m3ce190ea9b" y="93.746929"/>
     <use style="fill:#1f77b4;stroke:#1f77b4;" x="255.230679" xlink:href="#m3ce190ea9b" y="98.914863"/>
     <use style="fill:#1f77b4;stroke:#1f77b4;" x="256.439732" xlink:href="#m3ce190ea9b" y="101.924652"/>
     <use style="fill:#1f77b4;stroke:#1f77b4;" x="258.229355" xlink:href="#m3ce190ea9b" y="106.439184"/>
     <use style="fill:#1f77b4;stroke:#1f77b4;" x="258.713228" xlink:href="#m3ce190ea9b" y="107.670852"/>
     <use style="fill:#1f77b4;stroke:#1f77b4;" x="259.108037" xlink:href="#m3ce190ea9b" y="108.679018"/>
     <use style="fill:#1f77b4;stroke:#1f77b4;" x="261.663706" xlink:href="#m3ce190ea9b" y="115.266984"/>
     <use style="fill:#1f77b4;stroke:#1f77b4;" x="261.695706" xlink:href="#m3ce190ea9b" y="115.350079"/>
     <use style="fill:#1f77b4;stroke:#1f77b4;" x="264.906077" xlink:href="#m3ce190ea9b" y="123.745248"/>
     <use style="fill:#1f77b4;stroke:#1f77b4;" x="267.084163" xlink:href="#m3ce190ea9b" y="129.488809"/>
     <use style="fill:#1f77b4;stroke:#1f77b4;" x="272.419183" xlink:href="#m3ce190ea9b" y="143.601158"/>
     <use style="fill:#1f77b4;stroke:#1f77b4;" x="274.131753" xlink:href="#m3ce190ea9b" y="148.115108"/>
     <use style="fill:#1f77b4;stroke:#1f77b4;" x="274.487382" xlink:href="#m3ce190ea9b" y="149.050101"/>
     <use style="fill:#1f77b4;stroke:#1f77b4;" x="274.994908" xlink:href="#m3ce190ea9b" y="150.382772"/>
     <use style="fill:#1f77b4;stroke:#1f77b4;" x="276.6382" xlink:href="#m3ce190ea9b" y="154.6821"/>
     <use style="fill:#1f77b4;stroke:#1f77b4;" x="279.333467" xlink:href="#m3ce190ea9b" y="161.668938"/>
     <use style="fill:#1f77b4;stroke:#1f77b4;" x="283.826678" xlink:href="#m3ce190ea9b" y="173.076521"/>
     <use style="fill:#1f77b4;stroke:#1f77b4;" x="288.330175" xlink:href="#m3ce190ea9b" y="184.117984"/>
     <use style="fill:#1f77b4;stroke:#1f77b4;" x="289.64782" xlink:href="#m3ce190ea9b" y="187.260791"/>
     <use style="fill:#1f77b4;stroke:#1f77b4;" x="290.341749" xlink:href="#m3ce190ea9b" y="188.898587"/>
     <use style="fill:#1f77b4;stroke:#1f77b4;" x="294.394071" xlink:href="#m3ce190ea9b" y="198.208364"/>
     <use style="fill:#1f77b4;stroke:#1f77b4;" x="298.665907" xlink:href="#m3ce190ea9b" y="207.515309"/>
     <use style="fill:#1f77b4;stroke:#1f77b4;" x="299.572907" xlink:href="#m3ce190ea9b" y="209.420151"/>
     <use style="fill:#1f77b4;stroke:#1f77b4;" x="299.967624" xlink:href="#m3ce190ea9b" y="210.241098"/>
     <use style="fill:#1f77b4;stroke:#1f77b4;" x="300.366975" xlink:href="#m3ce190ea9b" y="211.066694"/>
     <use style="fill:#1f77b4;stroke:#1f77b4;" x="303.860632" xlink:href="#m3ce190ea9b" y="218.071642"/>
     <use style="fill:#1f77b4;stroke:#1f77b4;" x="304.625533" xlink:href="#m3ce190ea9b" y="219.552355"/>
     <use style="fill:#1f77b4;stroke:#1f77b4;" x="305.747001" xlink:href="#m3ce190ea9b" y="221.688411"/>
     <use style="fill:#1f77b4;stroke:#1f77b4;" x="311.22648" xlink:href="#m3ce190ea9b" y="231.520564"/>
     <use style="fill:#1f77b4;stroke:#1f77b4;" x="315.790393" xlink:href="#m3ce190ea9b" y="238.937252"/>
     <use style="fill:#1f77b4;stroke:#1f77b4;" x="316.134601" xlink:href="#m3ce190ea9b" y="239.468181"/>
     <use style="fill:#1f77b4;stroke:#1f77b4;" x="317.26062" xlink:href="#m3ce190ea9b" y="241.177332"/>
     <use style="fill:#1f77b4;stroke:#1f77b4;" x="317.639282" xlink:href="#m3ce190ea9b" y="241.742584"/>
     <use style="fill:#1f77b4;stroke:#1f77b4;" x="328.550863" xlink:href="#m3ce190ea9b" y="256.030184"/>
     <use style="fill:#1f77b4;stroke:#1f77b4;" x="337.179921" xlink:href="#m3ce190ea9b" y="264.767766"/>
     <use style="fill:#1f77b4;stroke:#1f77b4;" x="346.679976" xlink:href="#m3ce190ea9b" y="272.116832"/>
     <use style="fill:#1f77b4;stroke:#1f77b4;" x="348.241835" xlink:href="#m3ce190ea9b" y="273.124236"/>
     <use style="fill:#1f77b4;stroke:#1f77b4;" x="356.68034" xlink:href="#m3ce190ea9b" y="277.720439"/>
     <use style="fill:#1f77b4;stroke:#1f77b4;" x="379.867649" xlink:href="#m3ce190ea9b" y="284.834893"/>
     <use style="fill:#1f77b4;stroke:#1f77b4;" x="410.118523" xlink:href="#m3ce190ea9b" y="287.751486"/>
    </g>
   </g>
   <g id="patch_13">
    <path d="M 69.23125 288.430125 
L 69.23125 22.318125 
" style="fill:none;stroke:#000000;stroke-linecap:square;stroke-linejoin:miter;stroke-width:0.8;"/>
   </g>
   <g id="patch_14">
    <path d="M 426.35125 288.430125 
L 426.35125 22.318125 
" style="fill:none;stroke:#000000;stroke-linecap:square;stroke-linejoin:miter;stroke-width:0.8;"/>
   </g>
   <g id="patch_15">
    <path d="M 69.23125 288.430125 
L 426.35125 288.430125 
" style="fill:none;stroke:#000000;stroke-linecap:square;stroke-linejoin:miter;stroke-width:0.8;"/>
   </g>
   <g id="patch_16">
    <path d="M 69.23125 22.318125 
L 426.35125 22.318125 
" style="fill:none;stroke:#000000;stroke-linecap:square;stroke-linejoin:miter;stroke-width:0.8;"/>
   </g>
   <g id="text_18">
    <!-- Distribution Between Pairs [k-dim] -->
    <defs>
     <path d="M 8.5 21.578125 
L 8.5 54.6875 
L 17.484375 54.6875 
L 17.484375 21.921875 
Q 17.484375 14.15625 20.5 10.265625 
Q 23.53125 6.390625 29.59375 6.390625 
Q 36.859375 6.390625 41.078125 11.03125 
Q 45.3125 15.671875 45.3125 23.6875 
L 45.3125 54.6875 
L 54.296875 54.6875 
L 54.296875 0 
L 45.3125 0 
L 45.3125 8.40625 
Q 42.046875 3.421875 37.71875 1 
Q 33.40625 -1.421875 27.6875 -1.421875 
Q 18.265625 -1.421875 13.375 4.4375 
Q 8.5 10.296875 8.5 21.578125 
z
M 31.109375 56 
z
" id="DejaVuSans-75"/>
     <path id="DejaVuSans-20"/>
     <path d="M 19.671875 34.8125 
L 19.671875 8.109375 
L 35.5 8.109375 
Q 43.453125 8.109375 47.28125 11.40625 
Q 51.125 14.703125 51.125 21.484375 
Q 51.125 28.328125 47.28125 31.5625 
Q 43.453125 34.8125 35.5 34.8125 
z
M 19.671875 64.796875 
L 19.671875 42.828125 
L 34.28125 42.828125 
Q 41.5 42.828125 45.03125 45.53125 
Q 48.578125 48.25 48.578125 53.8125 
Q 48.578125 59.328125 45.03125 62.0625 
Q 41.5 64.796875 34.28125 64.796875 
z
M 9.8125 72.90625 
L 35.015625 72.90625 
Q 46.296875 72.90625 52.390625 68.21875 
Q 58.5 63.53125 58.5 54.890625 
Q 58.5 48.1875 55.375 44.234375 
Q 52.25 40.28125 46.1875 39.3125 
Q 53.46875 37.75 57.5 32.78125 
Q 61.53125 27.828125 61.53125 20.40625 
Q 61.53125 10.640625 54.890625 5.3125 
Q 48.25 0 35.984375 0 
L 9.8125 0 
z
" id="DejaVuSans-42"/>
     <path d="M 4.203125 54.6875 
L 13.1875 54.6875 
L 24.421875 12.015625 
L 35.59375 54.6875 
L 46.1875 54.6875 
L 57.421875 12.015625 
L 68.609375 54.6875 
L 77.59375 54.6875 
L 63.28125 0 
L 52.6875 0 
L 40.921875 44.828125 
L 29.109375 0 
L 18.5 0 
z
" id="DejaVuSans-77"/>
     <path d="M 8.59375 75.984375 
L 29.296875 75.984375 
L 29.296875 69 
L 17.578125 69 
L 17.578125 -6.203125 
L 29.296875 -6.203125 
L 29.296875 -13.1875 
L 8.59375 -13.1875 
z
" id="DejaVuSans-5b"/>
     <path d="M 9.078125 75.984375 
L 18.109375 75.984375 
L 18.109375 31.109375 
L 44.921875 54.6875 
L 56.390625 54.6875 
L 27.390625 29.109375 
L 57.625 0 
L 45.90625 0 
L 18.109375 26.703125 
L 18.109375 0 
L 9.078125 0 
z
" id="DejaVuSans-6b"/>
     <path d="M 4.890625 31.390625 
L 31.203125 31.390625 
L 31.203125 23.390625 
L 4.890625 23.390625 
z
" id="DejaVuSans-2d"/>
     <path d="M 45.40625 46.390625 
L 45.40625 75.984375 
L 54.390625 75.984375 
L 54.390625 0 
L 45.40625 0 
L 45.40625 8.203125 
Q 42.578125 3.328125 38.25 0.953125 
Q 33.9375 -1.421875 27.875 -1.421875 
Q 17.96875 -1.421875 11.734375 6.484375 
Q 5.515625 14.40625 5.515625 27.296875 
Q 5.515625 40.1875 11.734375 48.09375 
Q 17.96875 56 27.875 56 
Q 33.9375 56 38.25 53.625 
Q 42.578125 51.265625 45.40625 46.390625 
z
M 14.796875 27.296875 
Q 14.796875 17.390625 18.875 11.75 
Q 22.953125 6.109375 30.078125 6.109375 
Q 37.203125 6.109375 41.296875 11.75 
Q 45.40625 17.390625 45.40625 27.296875 
Q 45.40625 37.203125 41.296875 42.84375 
Q 37.203125 48.484375 30.078125 48.484375 
Q 22.953125 48.484375 18.875 42.84375 
Q 14.796875 37.203125 14.796875 27.296875 
z
" id="DejaVuSans-64"/>
     <path d="M 52 44.1875 
Q 55.375 50.25 60.0625 53.125 
Q 64.75 56 71.09375 56 
Q 79.640625 56 84.28125 50.015625 
Q 88.921875 44.046875 88.921875 33.015625 
L 88.921875 0 
L 79.890625 0 
L 79.890625 32.71875 
Q 79.890625 40.578125 77.09375 44.375 
Q 74.3125 48.1875 68.609375 48.1875 
Q 61.625 48.1875 57.5625 43.546875 
Q 53.515625 38.921875 53.515625 30.90625 
L 53.515625 0 
L 44.484375 0 
L 44.484375 32.71875 
Q 44.484375 40.625 41.703125 44.40625 
Q 38.921875 48.1875 33.109375 48.1875 
Q 26.21875 48.1875 22.15625 43.53125 
Q 18.109375 38.875 18.109375 30.90625 
L 18.109375 0 
L 9.078125 0 
L 9.078125 54.6875 
L 18.109375 54.6875 
L 18.109375 46.1875 
Q 21.1875 51.21875 25.484375 53.609375 
Q 29.78125 56 35.6875 56 
Q 41.65625 56 45.828125 52.96875 
Q 50 49.953125 52 44.1875 
z
" id="DejaVuSans-6d"/>
     <path d="M 30.421875 75.984375 
L 30.421875 -13.1875 
L 9.71875 -13.1875 
L 9.71875 -6.203125 
L 21.390625 -6.203125 
L 21.390625 69 
L 9.71875 69 
L 9.71875 75.984375 
z
" id="DejaVuSans-5d"/>
    </defs>
    <g transform="translate(144.623125 16.318125)scale(0.12 -0.12)">
     <use xlink:href="#DejaVuSans-44"/>
     <use x="77.001953" xlink:href="#DejaVuSans-69"/>
     <use x="104.785156" xlink:href="#DejaVuSans-73"/>
     <use x="156.884766" xlink:href="#DejaVuSans-74"/>
     <use x="196.09375" xlink:href="#DejaVuSans-72"/>
     <use x="237.207031" xlink:href="#DejaVuSans-69"/>
     <use x="264.990234" xlink:href="#DejaVuSans-62"/>
     <use x="328.466797" xlink:href="#DejaVuSans-75"/>
     <use x="391.845703" xlink:href="#DejaVuSans-74"/>
     <use x="431.054688" xlink:href="#DejaVuSans-69"/>
     <use x="458.837891" xlink:href="#DejaVuSans-6f"/>
     <use x="520.019531" xlink:href="#DejaVuSans-6e"/>
     <use x="583.398438" xlink:href="#DejaVuSans-20"/>
     <use x="615.185547" xlink:href="#DejaVuSans-42"/>
     <use x="683.789062" xlink:href="#DejaVuSans-65"/>
     <use x="745.3125" xlink:href="#DejaVuSans-74"/>
     <use x="784.521484" xlink:href="#DejaVuSans-77"/>
     <use x="866.308594" xlink:href="#DejaVuSans-65"/>
     <use x="927.832031" xlink:href="#DejaVuSans-65"/>
     <use x="989.355469" xlink:href="#DejaVuSans-6e"/>
     <use x="1052.734375" xlink:href="#DejaVuSans-20"/>
     <use x="1084.521484" xlink:href="#DejaVuSans-50"/>
     <use x="1144.761719" xlink:href="#DejaVuSans-61"/>
     <use x="1206.041016" xlink:href="#DejaVuSans-69"/>
     <use x="1233.824219" xlink:href="#DejaVuSans-72"/>
     <use x="1274.9375" xlink:href="#DejaVuSans-73"/>
     <use x="1327.037109" xlink:href="#DejaVuSans-20"/>
     <use x="1358.824219" xlink:href="#DejaVuSans-5b"/>
     <use x="1397.837891" xlink:href="#DejaVuSans-6b"/>
     <use x="1455.748047" xlink:href="#DejaVuSans-2d"/>
     <use x="1491.832031" xlink:href="#DejaVuSans-64"/>
     <use x="1555.308594" xlink:href="#DejaVuSans-69"/>
     <use x="1583.091797" xlink:href="#DejaVuSans-6d"/>
     <use x="1680.503906" xlink:href="#DejaVuSans-5d"/>
    </g>
   </g>
  </g>
  <g id="text_19">
   <g id="patch_17">
    <path d="M 178.534375 386.78175 
L 305.528125 386.78175 
Q 311.528125 386.78175 311.528125 380.78175 
L 311.528125 342.29325 
Q 311.528125 336.29325 305.528125 336.29325 
L 178.534375 336.29325 
Q 172.534375 336.29325 172.534375 342.29325 
L 172.534375 380.78175 
Q 172.534375 386.78175 178.534375 386.78175 
z
" style="fill:#ffffff;stroke:#808080;stroke-linejoin:miter;"/>
   </g>
   <!-- Dimension: 900 -->
   <defs>
    <path d="M 11.71875 12.40625 
L 22.015625 12.40625 
L 22.015625 0 
L 11.71875 0 
z
M 11.71875 51.703125 
L 22.015625 51.703125 
L 22.015625 39.3125 
L 11.71875 39.3125 
z
" id="DejaVuSans-3a"/>
    <path d="M 10.984375 1.515625 
L 10.984375 10.5 
Q 14.703125 8.734375 18.5 7.8125 
Q 22.3125 6.890625 25.984375 6.890625 
Q 35.75 6.890625 40.890625 13.453125 
Q 46.046875 20.015625 46.78125 33.40625 
Q 43.953125 29.203125 39.59375 26.953125 
Q 35.25 24.703125 29.984375 24.703125 
Q 19.046875 24.703125 12.671875 31.3125 
Q 6.296875 37.9375 6.296875 49.421875 
Q 6.296875 60.640625 12.9375 67.421875 
Q 19.578125 74.21875 30.609375 74.21875 
Q 43.265625 74.21875 49.921875 64.515625 
Q 56.59375 54.828125 56.59375 36.375 
Q 56.59375 19.140625 48.40625 8.859375 
Q 40.234375 -1.421875 26.421875 -1.421875 
Q 22.703125 -1.421875 18.890625 -0.6875 
Q 15.09375 0.046875 10.984375 1.515625 
z
M 30.609375 32.421875 
Q 37.25 32.421875 41.125 36.953125 
Q 45.015625 41.5 45.015625 49.421875 
Q 45.015625 57.28125 41.125 61.84375 
Q 37.25 66.40625 30.609375 66.40625 
Q 23.96875 66.40625 20.09375 61.84375 
Q 16.21875 57.28125 16.21875 49.421875 
Q 16.21875 41.5 20.09375 36.953125 
Q 23.96875 32.421875 30.609375 32.421875 
z
" id="DejaVuSans-39"/>
   </defs>
   <g transform="translate(178.534375 351.411375)scale(0.12 -0.12)">
    <use xlink:href="#DejaVuSans-44"/>
    <use x="77.001953" xlink:href="#DejaVuSans-69"/>
    <use x="104.785156" xlink:href="#DejaVuSans-6d"/>
    <use x="202.197266" xlink:href="#DejaVuSans-65"/>
    <use x="263.720703" xlink:href="#DejaVuSans-6e"/>
    <use x="327.099609" xlink:href="#DejaVuSans-73"/>
    <use x="379.199219" xlink:href="#DejaVuSans-69"/>
    <use x="406.982422" xlink:href="#DejaVuSans-6f"/>
    <use x="468.164062" xlink:href="#DejaVuSans-6e"/>
    <use x="531.542969" xlink:href="#DejaVuSans-3a"/>
    <use x="565.234375" xlink:href="#DejaVuSans-20"/>
    <use x="597.021484" xlink:href="#DejaVuSans-39"/>
    <use x="660.644531" xlink:href="#DejaVuSans-30"/>
    <use x="724.267578" xlink:href="#DejaVuSans-30"/>
   </g>
   <!-- Subdimension: 5 -->
   <defs>
    <path d="M 53.515625 70.515625 
L 53.515625 60.890625 
Q 47.90625 63.578125 42.921875 64.890625 
Q 37.9375 66.21875 33.296875 66.21875 
Q 25.25 66.21875 20.875 63.09375 
Q 16.5 59.96875 16.5 54.203125 
Q 16.5 49.359375 19.40625 46.890625 
Q 22.3125 44.4375 30.421875 42.921875 
L 36.375 41.703125 
Q 47.40625 39.59375 52.65625 34.296875 
Q 57.90625 29 57.90625 20.125 
Q 57.90625 9.515625 50.796875 4.046875 
Q 43.703125 -1.421875 29.984375 -1.421875 
Q 24.8125 -1.421875 18.96875 -0.25 
Q 13.140625 0.921875 6.890625 3.21875 
L 6.890625 13.375 
Q 12.890625 10.015625 18.65625 8.296875 
Q 24.421875 6.59375 29.984375 6.59375 
Q 38.421875 6.59375 43.015625 9.90625 
Q 47.609375 13.234375 47.609375 19.390625 
Q 47.609375 24.75 44.3125 27.78125 
Q 41.015625 30.8125 33.5 32.328125 
L 27.484375 33.5 
Q 16.453125 35.6875 11.515625 40.375 
Q 6.59375 45.0625 6.59375 53.421875 
Q 6.59375 63.09375 13.40625 68.65625 
Q 20.21875 74.21875 32.171875 74.21875 
Q 37.3125 74.21875 42.625 73.28125 
Q 47.953125 72.359375 53.515625 70.515625 
z
" id="DejaVuSans-53"/>
   </defs>
   <g transform="translate(178.534375 364.84875)scale(0.12 -0.12)">
    <use xlink:href="#DejaVuSans-53"/>
    <use x="63.476562" xlink:href="#DejaVuSans-75"/>
    <use x="126.855469" xlink:href="#DejaVuSans-62"/>
    <use x="190.332031" xlink:href="#DejaVuSans-64"/>
    <use x="253.808594" xlink:href="#DejaVuSans-69"/>
    <use x="281.591797" xlink:href="#DejaVuSans-6d"/>
    <use x="379.003906" xlink:href="#DejaVuSans-65"/>
    <use x="440.527344" xlink:href="#DejaVuSans-6e"/>
    <use x="503.90625" xlink:href="#DejaVuSans-73"/>
    <use x="556.005859" xlink:href="#DejaVuSans-69"/>
    <use x="583.789062" xlink:href="#DejaVuSans-6f"/>
    <use x="644.970703" xlink:href="#DejaVuSans-6e"/>
    <use x="708.349609" xlink:href="#DejaVuSans-3a"/>
    <use x="742.041016" xlink:href="#DejaVuSans-20"/>
    <use x="773.828125" xlink:href="#DejaVuSans-35"/>
   </g>
   <!-- Number of Points: 20 -->
   <defs>
    <path d="M 9.8125 72.90625 
L 23.09375 72.90625 
L 55.421875 11.921875 
L 55.421875 72.90625 
L 64.984375 72.90625 
L 64.984375 0 
L 51.703125 0 
L 19.390625 60.984375 
L 19.390625 0 
L 9.8125 0 
z
" id="DejaVuSans-4e"/>
    <path d="M 37.109375 75.984375 
L 37.109375 68.5 
L 28.515625 68.5 
Q 23.6875 68.5 21.796875 66.546875 
Q 19.921875 64.59375 19.921875 59.515625 
L 19.921875 54.6875 
L 34.71875 54.6875 
L 34.71875 47.703125 
L 19.921875 47.703125 
L 19.921875 0 
L 10.890625 0 
L 10.890625 47.703125 
L 2.296875 47.703125 
L 2.296875 54.6875 
L 10.890625 54.6875 
L 10.890625 58.5 
Q 10.890625 67.625 15.140625 71.796875 
Q 19.390625 75.984375 28.609375 75.984375 
z
" id="DejaVuSans-66"/>
   </defs>
   <g transform="translate(178.534375 378.286125)scale(0.12 -0.12)">
    <use xlink:href="#DejaVuSans-4e"/>
    <use x="74.804688" xlink:href="#DejaVuSans-75"/>
    <use x="138.183594" xlink:href="#DejaVuSans-6d"/>
    <use x="235.595703" xlink:href="#DejaVuSans-62"/>
    <use x="299.072266" xlink:href="#DejaVuSans-65"/>
    <use x="360.595703" xlink:href="#DejaVuSans-72"/>
    <use x="401.708984" xlink:href="#DejaVuSans-20"/>
    <use x="433.496094" xlink:href="#DejaVuSans-6f"/>
    <use x="494.677734" xlink:href="#DejaVuSans-66"/>
    <use x="529.882812" xlink:href="#DejaVuSans-20"/>
    <use x="561.669922" xlink:href="#DejaVuSans-50"/>
    <use x="621.925781" xlink:href="#DejaVuSans-6f"/>
    <use x="683.107422" xlink:href="#DejaVuSans-69"/>
    <use x="710.890625" xlink:href="#DejaVuSans-6e"/>
    <use x="774.269531" xlink:href="#DejaVuSans-74"/>
    <use x="813.478516" xlink:href="#DejaVuSans-73"/>
    <use x="865.578125" xlink:href="#DejaVuSans-3a"/>
    <use x="899.269531" xlink:href="#DejaVuSans-20"/>
    <use x="931.056641" xlink:href="#DejaVuSans-32"/>
    <use x="994.679688" xlink:href="#DejaVuSans-30"/>
   </g>
  </g>
 </g>
 <defs>
  <clipPath id="p8aaab99268">
   <rect height="266.112" width="357.12" x="69.23125" y="22.318125"/>
  </clipPath>
 </defs>
</svg>
