<?xml version="1.0" encoding="utf-8" standalone="no"?>
<!DOCTYPE svg PUBLIC "-//W3C//DTD SVG 1.1//EN"
  "http://www.w3.org/Graphics/SVG/1.1/DTD/svg11.dtd">
<!-- Created with matplotlib (http://matplotlib.org/) -->
<svg height="370pt" version="1.1" viewBox="0 0 426 370" width="426pt" xmlns="http://www.w3.org/2000/svg" xmlns:xlink="http://www.w3.org/1999/xlink">
 <defs>
  <style type="text/css">
*{stroke-linecap:butt;stroke-linejoin:round;}
  </style>
 </defs>
 <g id="figure_1">
  <g id="patch_1">
   <path d="M 0 370.70175 
L 426.575288 370.70175 
L 426.575288 0 
L 0 0 
z
" style="fill:#ffffff;"/>
  </g>
  <g id="axes_1">
   <g id="patch_2">
    <path d="M 56.50625 288.430125 
L 413.62625 288.430125 
L 413.62625 22.318125 
L 56.50625 22.318125 
z
" style="fill:#ffffff;"/>
   </g>
   <g id="patch_3">
    <path clip-path="url(#pa191d6b848)" d="M 72.738977 288.430125 
L 105.204432 288.430125 
L 105.204432 275.927894 
L 72.738977 275.927894 
z
" style="fill:#ff7f0e;"/>
   </g>
   <g id="patch_4">
    <path clip-path="url(#pa191d6b848)" d="M 105.204432 288.430125 
L 137.669886 288.430125 
L 137.669886 263.425662 
L 105.204432 263.425662 
z
" style="fill:#ff7f0e;"/>
   </g>
   <g id="patch_5">
    <path clip-path="url(#pa191d6b848)" d="M 137.669886 288.430125 
L 170.135341 288.430125 
L 170.135341 157.156696 
L 137.669886 157.156696 
z
" style="fill:#ff7f0e;"/>
   </g>
   <g id="patch_6">
    <path clip-path="url(#pa191d6b848)" d="M 170.135341 288.430125 
L 202.600795 288.430125 
L 202.600795 144.654464 
L 170.135341 144.654464 
z
" style="fill:#ff7f0e;"/>
   </g>
   <g id="patch_7">
    <path clip-path="url(#pa191d6b848)" d="M 202.600795 288.430125 
L 235.06625 288.430125 
L 235.06625 38.385497 
L 202.600795 38.385497 
z
" style="fill:#ff7f0e;"/>
   </g>
   <g id="patch_8">
    <path clip-path="url(#pa191d6b848)" d="M 235.06625 288.430125 
L 267.531705 288.430125 
L 267.531705 69.641076 
L 235.06625 69.641076 
z
" style="fill:#ff7f0e;"/>
   </g>
   <g id="patch_9">
    <path clip-path="url(#pa191d6b848)" d="M 267.531705 288.430125 
L 299.997159 288.430125 
L 299.997159 82.143307 
L 267.531705 82.143307 
z
" style="fill:#ff7f0e;"/>
   </g>
   <g id="patch_10">
    <path clip-path="url(#pa191d6b848)" d="M 299.997159 288.430125 
L 332.462614 288.430125 
L 332.462614 175.910043 
L 299.997159 175.910043 
z
" style="fill:#ff7f0e;"/>
   </g>
   <g id="patch_11">
    <path clip-path="url(#pa191d6b848)" d="M 332.462614 288.430125 
L 364.928068 288.430125 
L 364.928068 225.918968 
L 332.462614 225.918968 
z
" style="fill:#ff7f0e;"/>
   </g>
   <g id="patch_12">
    <path clip-path="url(#pa191d6b848)" d="M 364.928068 288.430125 
L 397.393523 288.430125 
L 397.393523 263.425662 
L 364.928068 263.425662 
z
" style="fill:#ff7f0e;"/>
   </g>
   <g id="matplotlib.axis_1">
    <g id="xtick_1">
     <g id="line2d_1">
      <defs>
       <path d="M 0 0 
L 0 3.5 
" id="ma8ed2875bc" style="stroke:#000000;stroke-width:0.8;"/>
      </defs>
      <g>
       <use style="stroke:#000000;stroke-width:0.8;" x="67.405109" xlink:href="#ma8ed2875bc" y="288.430125"/>
      </g>
     </g>
     <g id="text_1">
      <!-- 1200 -->
      <defs>
       <path d="M 12.40625 8.296875 
L 28.515625 8.296875 
L 28.515625 63.921875 
L 10.984375 60.40625 
L 10.984375 69.390625 
L 28.421875 72.90625 
L 38.28125 72.90625 
L 38.28125 8.296875 
L 54.390625 8.296875 
L 54.390625 0 
L 12.40625 0 
z
" id="DejaVuSans-31"/>
       <path d="M 19.1875 8.296875 
L 53.609375 8.296875 
L 53.609375 0 
L 7.328125 0 
L 7.328125 8.296875 
Q 12.9375 14.109375 22.625 23.890625 
Q 32.328125 33.6875 34.8125 36.53125 
Q 39.546875 41.84375 41.421875 45.53125 
Q 43.3125 49.21875 43.3125 52.78125 
Q 43.3125 58.59375 39.234375 62.25 
Q 35.15625 65.921875 28.609375 65.921875 
Q 23.96875 65.921875 18.8125 64.3125 
Q 13.671875 62.703125 7.8125 59.421875 
L 7.8125 69.390625 
Q 13.765625 71.78125 18.9375 73 
Q 24.125 74.21875 28.421875 74.21875 
Q 39.75 74.21875 46.484375 68.546875 
Q 53.21875 62.890625 53.21875 53.421875 
Q 53.21875 48.921875 51.53125 44.890625 
Q 49.859375 40.875 45.40625 35.40625 
Q 44.1875 33.984375 37.640625 27.21875 
Q 31.109375 20.453125 19.1875 8.296875 
z
" id="DejaVuSans-32"/>
       <path d="M 31.78125 66.40625 
Q 24.171875 66.40625 20.328125 58.90625 
Q 16.5 51.421875 16.5 36.375 
Q 16.5 21.390625 20.328125 13.890625 
Q 24.171875 6.390625 31.78125 6.390625 
Q 39.453125 6.390625 43.28125 13.890625 
Q 47.125 21.390625 47.125 36.375 
Q 47.125 51.421875 43.28125 58.90625 
Q 39.453125 66.40625 31.78125 66.40625 
z
M 31.78125 74.21875 
Q 44.046875 74.21875 50.515625 64.515625 
Q 56.984375 54.828125 56.984375 36.375 
Q 56.984375 17.96875 50.515625 8.265625 
Q 44.046875 -1.421875 31.78125 -1.421875 
Q 19.53125 -1.421875 13.0625 8.265625 
Q 6.59375 17.96875 6.59375 36.375 
Q 6.59375 54.828125 13.0625 64.515625 
Q 19.53125 74.21875 31.78125 74.21875 
z
" id="DejaVuSans-30"/>
      </defs>
      <g transform="translate(54.680109 303.028562)scale(0.1 -0.1)">
       <use xlink:href="#DejaVuSans-31"/>
       <use x="63.623047" xlink:href="#DejaVuSans-32"/>
       <use x="127.246094" xlink:href="#DejaVuSans-30"/>
       <use x="190.869141" xlink:href="#DejaVuSans-30"/>
      </g>
     </g>
    </g>
    <g id="xtick_2">
     <g id="line2d_2">
      <g>
       <use style="stroke:#000000;stroke-width:0.8;" x="109.810756" xlink:href="#ma8ed2875bc" y="288.430125"/>
      </g>
     </g>
     <g id="text_2">
      <!-- 1220 -->
      <g transform="translate(97.085756 303.028562)scale(0.1 -0.1)">
       <use xlink:href="#DejaVuSans-31"/>
       <use x="63.623047" xlink:href="#DejaVuSans-32"/>
       <use x="127.246094" xlink:href="#DejaVuSans-32"/>
       <use x="190.869141" xlink:href="#DejaVuSans-30"/>
      </g>
     </g>
    </g>
    <g id="xtick_3">
     <g id="line2d_3">
      <g>
       <use style="stroke:#000000;stroke-width:0.8;" x="152.216404" xlink:href="#ma8ed2875bc" y="288.430125"/>
      </g>
     </g>
     <g id="text_3">
      <!-- 1240 -->
      <defs>
       <path d="M 37.796875 64.3125 
L 12.890625 25.390625 
L 37.796875 25.390625 
z
M 35.203125 72.90625 
L 47.609375 72.90625 
L 47.609375 25.390625 
L 58.015625 25.390625 
L 58.015625 17.1875 
L 47.609375 17.1875 
L 47.609375 0 
L 37.796875 0 
L 37.796875 17.1875 
L 4.890625 17.1875 
L 4.890625 26.703125 
z
" id="DejaVuSans-34"/>
      </defs>
      <g transform="translate(139.491404 303.028562)scale(0.1 -0.1)">
       <use xlink:href="#DejaVuSans-31"/>
       <use x="63.623047" xlink:href="#DejaVuSans-32"/>
       <use x="127.246094" xlink:href="#DejaVuSans-34"/>
       <use x="190.869141" xlink:href="#DejaVuSans-30"/>
      </g>
     </g>
    </g>
    <g id="xtick_4">
     <g id="line2d_4">
      <g>
       <use style="stroke:#000000;stroke-width:0.8;" x="194.622051" xlink:href="#ma8ed2875bc" y="288.430125"/>
      </g>
     </g>
     <g id="text_4">
      <!-- 1260 -->
      <defs>
       <path d="M 33.015625 40.375 
Q 26.375 40.375 22.484375 35.828125 
Q 18.609375 31.296875 18.609375 23.390625 
Q 18.609375 15.53125 22.484375 10.953125 
Q 26.375 6.390625 33.015625 6.390625 
Q 39.65625 6.390625 43.53125 10.953125 
Q 47.40625 15.53125 47.40625 23.390625 
Q 47.40625 31.296875 43.53125 35.828125 
Q 39.65625 40.375 33.015625 40.375 
z
M 52.59375 71.296875 
L 52.59375 62.3125 
Q 48.875 64.0625 45.09375 64.984375 
Q 41.3125 65.921875 37.59375 65.921875 
Q 27.828125 65.921875 22.671875 59.328125 
Q 17.53125 52.734375 16.796875 39.40625 
Q 19.671875 43.65625 24.015625 45.921875 
Q 28.375 48.1875 33.59375 48.1875 
Q 44.578125 48.1875 50.953125 41.515625 
Q 57.328125 34.859375 57.328125 23.390625 
Q 57.328125 12.15625 50.6875 5.359375 
Q 44.046875 -1.421875 33.015625 -1.421875 
Q 20.359375 -1.421875 13.671875 8.265625 
Q 6.984375 17.96875 6.984375 36.375 
Q 6.984375 53.65625 15.1875 63.9375 
Q 23.390625 74.21875 37.203125 74.21875 
Q 40.921875 74.21875 44.703125 73.484375 
Q 48.484375 72.75 52.59375 71.296875 
z
" id="DejaVuSans-36"/>
      </defs>
      <g transform="translate(181.897051 303.028562)scale(0.1 -0.1)">
       <use xlink:href="#DejaVuSans-31"/>
       <use x="63.623047" xlink:href="#DejaVuSans-32"/>
       <use x="127.246094" xlink:href="#DejaVuSans-36"/>
       <use x="190.869141" xlink:href="#DejaVuSans-30"/>
      </g>
     </g>
    </g>
    <g id="xtick_5">
     <g id="line2d_5">
      <g>
       <use style="stroke:#000000;stroke-width:0.8;" x="237.027699" xlink:href="#ma8ed2875bc" y="288.430125"/>
      </g>
     </g>
     <g id="text_5">
      <!-- 1280 -->
      <defs>
       <path d="M 31.78125 34.625 
Q 24.75 34.625 20.71875 30.859375 
Q 16.703125 27.09375 16.703125 20.515625 
Q 16.703125 13.921875 20.71875 10.15625 
Q 24.75 6.390625 31.78125 6.390625 
Q 38.8125 6.390625 42.859375 10.171875 
Q 46.921875 13.96875 46.921875 20.515625 
Q 46.921875 27.09375 42.890625 30.859375 
Q 38.875 34.625 31.78125 34.625 
z
M 21.921875 38.8125 
Q 15.578125 40.375 12.03125 44.71875 
Q 8.5 49.078125 8.5 55.328125 
Q 8.5 64.0625 14.71875 69.140625 
Q 20.953125 74.21875 31.78125 74.21875 
Q 42.671875 74.21875 48.875 69.140625 
Q 55.078125 64.0625 55.078125 55.328125 
Q 55.078125 49.078125 51.53125 44.71875 
Q 48 40.375 41.703125 38.8125 
Q 48.828125 37.15625 52.796875 32.3125 
Q 56.78125 27.484375 56.78125 20.515625 
Q 56.78125 9.90625 50.3125 4.234375 
Q 43.84375 -1.421875 31.78125 -1.421875 
Q 19.734375 -1.421875 13.25 4.234375 
Q 6.78125 9.90625 6.78125 20.515625 
Q 6.78125 27.484375 10.78125 32.3125 
Q 14.796875 37.15625 21.921875 38.8125 
z
M 18.3125 54.390625 
Q 18.3125 48.734375 21.84375 45.5625 
Q 25.390625 42.390625 31.78125 42.390625 
Q 38.140625 42.390625 41.71875 45.5625 
Q 45.3125 48.734375 45.3125 54.390625 
Q 45.3125 60.0625 41.71875 63.234375 
Q 38.140625 66.40625 31.78125 66.40625 
Q 25.390625 66.40625 21.84375 63.234375 
Q 18.3125 60.0625 18.3125 54.390625 
z
" id="DejaVuSans-38"/>
      </defs>
      <g transform="translate(224.302699 303.028562)scale(0.1 -0.1)">
       <use xlink:href="#DejaVuSans-31"/>
       <use x="63.623047" xlink:href="#DejaVuSans-32"/>
       <use x="127.246094" xlink:href="#DejaVuSans-38"/>
       <use x="190.869141" xlink:href="#DejaVuSans-30"/>
      </g>
     </g>
    </g>
    <g id="xtick_6">
     <g id="line2d_6">
      <g>
       <use style="stroke:#000000;stroke-width:0.8;" x="279.433346" xlink:href="#ma8ed2875bc" y="288.430125"/>
      </g>
     </g>
     <g id="text_6">
      <!-- 1300 -->
      <defs>
       <path d="M 40.578125 39.3125 
Q 47.65625 37.796875 51.625 33 
Q 55.609375 28.21875 55.609375 21.1875 
Q 55.609375 10.40625 48.1875 4.484375 
Q 40.765625 -1.421875 27.09375 -1.421875 
Q 22.515625 -1.421875 17.65625 -0.515625 
Q 12.796875 0.390625 7.625 2.203125 
L 7.625 11.71875 
Q 11.71875 9.328125 16.59375 8.109375 
Q 21.484375 6.890625 26.8125 6.890625 
Q 36.078125 6.890625 40.9375 10.546875 
Q 45.796875 14.203125 45.796875 21.1875 
Q 45.796875 27.640625 41.28125 31.265625 
Q 36.765625 34.90625 28.71875 34.90625 
L 20.21875 34.90625 
L 20.21875 43.015625 
L 29.109375 43.015625 
Q 36.375 43.015625 40.234375 45.921875 
Q 44.09375 48.828125 44.09375 54.296875 
Q 44.09375 59.90625 40.109375 62.90625 
Q 36.140625 65.921875 28.71875 65.921875 
Q 24.65625 65.921875 20.015625 65.03125 
Q 15.375 64.15625 9.8125 62.3125 
L 9.8125 71.09375 
Q 15.4375 72.65625 20.34375 73.4375 
Q 25.25 74.21875 29.59375 74.21875 
Q 40.828125 74.21875 47.359375 69.109375 
Q 53.90625 64.015625 53.90625 55.328125 
Q 53.90625 49.265625 50.4375 45.09375 
Q 46.96875 40.921875 40.578125 39.3125 
z
" id="DejaVuSans-33"/>
      </defs>
      <g transform="translate(266.708346 303.028562)scale(0.1 -0.1)">
       <use xlink:href="#DejaVuSans-31"/>
       <use x="63.623047" xlink:href="#DejaVuSans-33"/>
       <use x="127.246094" xlink:href="#DejaVuSans-30"/>
       <use x="190.869141" xlink:href="#DejaVuSans-30"/>
      </g>
     </g>
    </g>
    <g id="xtick_7">
     <g id="line2d_7">
      <g>
       <use style="stroke:#000000;stroke-width:0.8;" x="321.838993" xlink:href="#ma8ed2875bc" y="288.430125"/>
      </g>
     </g>
     <g id="text_7">
      <!-- 1320 -->
      <g transform="translate(309.113993 303.028562)scale(0.1 -0.1)">
       <use xlink:href="#DejaVuSans-31"/>
       <use x="63.623047" xlink:href="#DejaVuSans-33"/>
       <use x="127.246094" xlink:href="#DejaVuSans-32"/>
       <use x="190.869141" xlink:href="#DejaVuSans-30"/>
      </g>
     </g>
    </g>
    <g id="xtick_8">
     <g id="line2d_8">
      <g>
       <use style="stroke:#000000;stroke-width:0.8;" x="364.244641" xlink:href="#ma8ed2875bc" y="288.430125"/>
      </g>
     </g>
     <g id="text_8">
      <!-- 1340 -->
      <g transform="translate(351.519641 303.028562)scale(0.1 -0.1)">
       <use xlink:href="#DejaVuSans-31"/>
       <use x="63.623047" xlink:href="#DejaVuSans-33"/>
       <use x="127.246094" xlink:href="#DejaVuSans-34"/>
       <use x="190.869141" xlink:href="#DejaVuSans-30"/>
      </g>
     </g>
    </g>
    <g id="xtick_9">
     <g id="line2d_9">
      <g>
       <use style="stroke:#000000;stroke-width:0.8;" x="406.650288" xlink:href="#ma8ed2875bc" y="288.430125"/>
      </g>
     </g>
     <g id="text_9">
      <!-- 1360 -->
      <g transform="translate(393.925288 303.028562)scale(0.1 -0.1)">
       <use xlink:href="#DejaVuSans-31"/>
       <use x="63.623047" xlink:href="#DejaVuSans-33"/>
       <use x="127.246094" xlink:href="#DejaVuSans-36"/>
       <use x="190.869141" xlink:href="#DejaVuSans-30"/>
      </g>
     </g>
    </g>
    <g id="text_10">
     <!-- Distance -->
     <defs>
      <path d="M 19.671875 64.796875 
L 19.671875 8.109375 
L 31.59375 8.109375 
Q 46.6875 8.109375 53.6875 14.9375 
Q 60.6875 21.78125 60.6875 36.53125 
Q 60.6875 51.171875 53.6875 57.984375 
Q 46.6875 64.796875 31.59375 64.796875 
z
M 9.8125 72.90625 
L 30.078125 72.90625 
Q 51.265625 72.90625 61.171875 64.09375 
Q 71.09375 55.28125 71.09375 36.53125 
Q 71.09375 17.671875 61.125 8.828125 
Q 51.171875 0 30.078125 0 
L 9.8125 0 
z
" id="DejaVuSans-44"/>
      <path d="M 9.421875 54.6875 
L 18.40625 54.6875 
L 18.40625 0 
L 9.421875 0 
z
M 9.421875 75.984375 
L 18.40625 75.984375 
L 18.40625 64.59375 
L 9.421875 64.59375 
z
" id="DejaVuSans-69"/>
      <path d="M 44.28125 53.078125 
L 44.28125 44.578125 
Q 40.484375 46.53125 36.375 47.5 
Q 32.28125 48.484375 27.875 48.484375 
Q 21.1875 48.484375 17.84375 46.4375 
Q 14.5 44.390625 14.5 40.28125 
Q 14.5 37.15625 16.890625 35.375 
Q 19.28125 33.59375 26.515625 31.984375 
L 29.59375 31.296875 
Q 39.15625 29.25 43.1875 25.515625 
Q 47.21875 21.78125 47.21875 15.09375 
Q 47.21875 7.46875 41.1875 3.015625 
Q 35.15625 -1.421875 24.609375 -1.421875 
Q 20.21875 -1.421875 15.453125 -0.5625 
Q 10.6875 0.296875 5.421875 2 
L 5.421875 11.28125 
Q 10.40625 8.6875 15.234375 7.390625 
Q 20.0625 6.109375 24.8125 6.109375 
Q 31.15625 6.109375 34.5625 8.28125 
Q 37.984375 10.453125 37.984375 14.40625 
Q 37.984375 18.0625 35.515625 20.015625 
Q 33.0625 21.96875 24.703125 23.78125 
L 21.578125 24.515625 
Q 13.234375 26.265625 9.515625 29.90625 
Q 5.8125 33.546875 5.8125 39.890625 
Q 5.8125 47.609375 11.28125 51.796875 
Q 16.75 56 26.8125 56 
Q 31.78125 56 36.171875 55.265625 
Q 40.578125 54.546875 44.28125 53.078125 
z
" id="DejaVuSans-73"/>
      <path d="M 18.3125 70.21875 
L 18.3125 54.6875 
L 36.8125 54.6875 
L 36.8125 47.703125 
L 18.3125 47.703125 
L 18.3125 18.015625 
Q 18.3125 11.328125 20.140625 9.421875 
Q 21.96875 7.515625 27.59375 7.515625 
L 36.8125 7.515625 
L 36.8125 0 
L 27.59375 0 
Q 17.1875 0 13.234375 3.875 
Q 9.28125 7.765625 9.28125 18.015625 
L 9.28125 47.703125 
L 2.6875 47.703125 
L 2.6875 54.6875 
L 9.28125 54.6875 
L 9.28125 70.21875 
z
" id="DejaVuSans-74"/>
      <path d="M 34.28125 27.484375 
Q 23.390625 27.484375 19.1875 25 
Q 14.984375 22.515625 14.984375 16.5 
Q 14.984375 11.71875 18.140625 8.90625 
Q 21.296875 6.109375 26.703125 6.109375 
Q 34.1875 6.109375 38.703125 11.40625 
Q 43.21875 16.703125 43.21875 25.484375 
L 43.21875 27.484375 
z
M 52.203125 31.203125 
L 52.203125 0 
L 43.21875 0 
L 43.21875 8.296875 
Q 40.140625 3.328125 35.546875 0.953125 
Q 30.953125 -1.421875 24.3125 -1.421875 
Q 15.921875 -1.421875 10.953125 3.296875 
Q 6 8.015625 6 15.921875 
Q 6 25.140625 12.171875 29.828125 
Q 18.359375 34.515625 30.609375 34.515625 
L 43.21875 34.515625 
L 43.21875 35.40625 
Q 43.21875 41.609375 39.140625 45 
Q 35.0625 48.390625 27.6875 48.390625 
Q 23 48.390625 18.546875 47.265625 
Q 14.109375 46.140625 10.015625 43.890625 
L 10.015625 52.203125 
Q 14.9375 54.109375 19.578125 55.046875 
Q 24.21875 56 28.609375 56 
Q 40.484375 56 46.34375 49.84375 
Q 52.203125 43.703125 52.203125 31.203125 
z
" id="DejaVuSans-61"/>
      <path d="M 54.890625 33.015625 
L 54.890625 0 
L 45.90625 0 
L 45.90625 32.71875 
Q 45.90625 40.484375 42.875 44.328125 
Q 39.84375 48.1875 33.796875 48.1875 
Q 26.515625 48.1875 22.3125 43.546875 
Q 18.109375 38.921875 18.109375 30.90625 
L 18.109375 0 
L 9.078125 0 
L 9.078125 54.6875 
L 18.109375 54.6875 
L 18.109375 46.1875 
Q 21.34375 51.125 25.703125 53.5625 
Q 30.078125 56 35.796875 56 
Q 45.21875 56 50.046875 50.171875 
Q 54.890625 44.34375 54.890625 33.015625 
z
" id="DejaVuSans-6e"/>
      <path d="M 48.78125 52.59375 
L 48.78125 44.1875 
Q 44.96875 46.296875 41.140625 47.34375 
Q 37.3125 48.390625 33.40625 48.390625 
Q 24.65625 48.390625 19.8125 42.84375 
Q 14.984375 37.3125 14.984375 27.296875 
Q 14.984375 17.28125 19.8125 11.734375 
Q 24.65625 6.203125 33.40625 6.203125 
Q 37.3125 6.203125 41.140625 7.25 
Q 44.96875 8.296875 48.78125 10.40625 
L 48.78125 2.09375 
Q 45.015625 0.34375 40.984375 -0.53125 
Q 36.96875 -1.421875 32.421875 -1.421875 
Q 20.0625 -1.421875 12.78125 6.34375 
Q 5.515625 14.109375 5.515625 27.296875 
Q 5.515625 40.671875 12.859375 48.328125 
Q 20.21875 56 33.015625 56 
Q 37.15625 56 41.109375 55.140625 
Q 45.0625 54.296875 48.78125 52.59375 
z
" id="DejaVuSans-63"/>
      <path d="M 56.203125 29.59375 
L 56.203125 25.203125 
L 14.890625 25.203125 
Q 15.484375 15.921875 20.484375 11.0625 
Q 25.484375 6.203125 34.421875 6.203125 
Q 39.59375 6.203125 44.453125 7.46875 
Q 49.3125 8.734375 54.109375 11.28125 
L 54.109375 2.78125 
Q 49.265625 0.734375 44.1875 -0.34375 
Q 39.109375 -1.421875 33.890625 -1.421875 
Q 20.796875 -1.421875 13.15625 6.1875 
Q 5.515625 13.8125 5.515625 26.8125 
Q 5.515625 40.234375 12.765625 48.109375 
Q 20.015625 56 32.328125 56 
Q 43.359375 56 49.78125 48.890625 
Q 56.203125 41.796875 56.203125 29.59375 
z
M 47.21875 32.234375 
Q 47.125 39.59375 43.09375 43.984375 
Q 39.0625 48.390625 32.421875 48.390625 
Q 24.90625 48.390625 20.390625 44.140625 
Q 15.875 39.890625 15.1875 32.171875 
z
" id="DejaVuSans-65"/>
     </defs>
     <g transform="translate(213.20375 316.706687)scale(0.1 -0.1)">
      <use xlink:href="#DejaVuSans-44"/>
      <use x="77.001953" xlink:href="#DejaVuSans-69"/>
      <use x="104.785156" xlink:href="#DejaVuSans-73"/>
      <use x="156.884766" xlink:href="#DejaVuSans-74"/>
      <use x="196.09375" xlink:href="#DejaVuSans-61"/>
      <use x="257.373047" xlink:href="#DejaVuSans-6e"/>
      <use x="320.751953" xlink:href="#DejaVuSans-63"/>
      <use x="375.732422" xlink:href="#DejaVuSans-65"/>
     </g>
    </g>
   </g>
   <g id="matplotlib.axis_2">
    <g id="ytick_1">
     <g id="line2d_10">
      <defs>
       <path d="M 0 0 
L -3.5 0 
" id="m09d9df692e" style="stroke:#000000;stroke-width:0.8;"/>
      </defs>
      <g>
       <use style="stroke:#000000;stroke-width:0.8;" x="56.50625" xlink:href="#m09d9df692e" y="288.430125"/>
      </g>
     </g>
     <g id="text_11">
      <!-- 0.000 -->
      <defs>
       <path d="M 10.6875 12.40625 
L 21 12.40625 
L 21 0 
L 10.6875 0 
z
" id="DejaVuSans-2e"/>
      </defs>
      <g transform="translate(20.878125 292.229344)scale(0.1 -0.1)">
       <use xlink:href="#DejaVuSans-30"/>
       <use x="63.623047" xlink:href="#DejaVuSans-2e"/>
       <use x="95.410156" xlink:href="#DejaVuSans-30"/>
       <use x="159.033203" xlink:href="#DejaVuSans-30"/>
       <use x="222.65625" xlink:href="#DejaVuSans-30"/>
      </g>
     </g>
    </g>
    <g id="ytick_2">
     <g id="line2d_11">
      <g>
       <use style="stroke:#000000;stroke-width:0.8;" x="56.50625" xlink:href="#m09d9df692e" y="252.05798"/>
      </g>
     </g>
     <g id="text_12">
      <!-- 0.002 -->
      <g transform="translate(20.878125 255.857198)scale(0.1 -0.1)">
       <use xlink:href="#DejaVuSans-30"/>
       <use x="63.623047" xlink:href="#DejaVuSans-2e"/>
       <use x="95.410156" xlink:href="#DejaVuSans-30"/>
       <use x="159.033203" xlink:href="#DejaVuSans-30"/>
       <use x="222.65625" xlink:href="#DejaVuSans-32"/>
      </g>
     </g>
    </g>
    <g id="ytick_3">
     <g id="line2d_12">
      <g>
       <use style="stroke:#000000;stroke-width:0.8;" x="56.50625" xlink:href="#m09d9df692e" y="215.685834"/>
      </g>
     </g>
     <g id="text_13">
      <!-- 0.004 -->
      <g transform="translate(20.878125 219.485053)scale(0.1 -0.1)">
       <use xlink:href="#DejaVuSans-30"/>
       <use x="63.623047" xlink:href="#DejaVuSans-2e"/>
       <use x="95.410156" xlink:href="#DejaVuSans-30"/>
       <use x="159.033203" xlink:href="#DejaVuSans-30"/>
       <use x="222.65625" xlink:href="#DejaVuSans-34"/>
      </g>
     </g>
    </g>
    <g id="ytick_4">
     <g id="line2d_13">
      <g>
       <use style="stroke:#000000;stroke-width:0.8;" x="56.50625" xlink:href="#m09d9df692e" y="179.313689"/>
      </g>
     </g>
     <g id="text_14">
      <!-- 0.006 -->
      <g transform="translate(20.878125 183.112907)scale(0.1 -0.1)">
       <use xlink:href="#DejaVuSans-30"/>
       <use x="63.623047" xlink:href="#DejaVuSans-2e"/>
       <use x="95.410156" xlink:href="#DejaVuSans-30"/>
       <use x="159.033203" xlink:href="#DejaVuSans-30"/>
       <use x="222.65625" xlink:href="#DejaVuSans-36"/>
      </g>
     </g>
    </g>
    <g id="ytick_5">
     <g id="line2d_14">
      <g>
       <use style="stroke:#000000;stroke-width:0.8;" x="56.50625" xlink:href="#m09d9df692e" y="142.941543"/>
      </g>
     </g>
     <g id="text_15">
      <!-- 0.008 -->
      <g transform="translate(20.878125 146.740762)scale(0.1 -0.1)">
       <use xlink:href="#DejaVuSans-30"/>
       <use x="63.623047" xlink:href="#DejaVuSans-2e"/>
       <use x="95.410156" xlink:href="#DejaVuSans-30"/>
       <use x="159.033203" xlink:href="#DejaVuSans-30"/>
       <use x="222.65625" xlink:href="#DejaVuSans-38"/>
      </g>
     </g>
    </g>
    <g id="ytick_6">
     <g id="line2d_15">
      <g>
       <use style="stroke:#000000;stroke-width:0.8;" x="56.50625" xlink:href="#m09d9df692e" y="106.569398"/>
      </g>
     </g>
     <g id="text_16">
      <!-- 0.010 -->
      <g transform="translate(20.878125 110.368616)scale(0.1 -0.1)">
       <use xlink:href="#DejaVuSans-30"/>
       <use x="63.623047" xlink:href="#DejaVuSans-2e"/>
       <use x="95.410156" xlink:href="#DejaVuSans-30"/>
       <use x="159.033203" xlink:href="#DejaVuSans-31"/>
       <use x="222.65625" xlink:href="#DejaVuSans-30"/>
      </g>
     </g>
    </g>
    <g id="ytick_7">
     <g id="line2d_16">
      <g>
       <use style="stroke:#000000;stroke-width:0.8;" x="56.50625" xlink:href="#m09d9df692e" y="70.197252"/>
      </g>
     </g>
     <g id="text_17">
      <!-- 0.012 -->
      <g transform="translate(20.878125 73.996471)scale(0.1 -0.1)">
       <use xlink:href="#DejaVuSans-30"/>
       <use x="63.623047" xlink:href="#DejaVuSans-2e"/>
       <use x="95.410156" xlink:href="#DejaVuSans-30"/>
       <use x="159.033203" xlink:href="#DejaVuSans-31"/>
       <use x="222.65625" xlink:href="#DejaVuSans-32"/>
      </g>
     </g>
    </g>
    <g id="ytick_8">
     <g id="line2d_17">
      <g>
       <use style="stroke:#000000;stroke-width:0.8;" x="56.50625" xlink:href="#m09d9df692e" y="33.825107"/>
      </g>
     </g>
     <g id="text_18">
      <!-- 0.014 -->
      <g transform="translate(20.878125 37.624326)scale(0.1 -0.1)">
       <use xlink:href="#DejaVuSans-30"/>
       <use x="63.623047" xlink:href="#DejaVuSans-2e"/>
       <use x="95.410156" xlink:href="#DejaVuSans-30"/>
       <use x="159.033203" xlink:href="#DejaVuSans-31"/>
       <use x="222.65625" xlink:href="#DejaVuSans-34"/>
      </g>
     </g>
    </g>
    <g id="text_19">
     <!-- Probability -->
     <defs>
      <path d="M 19.671875 64.796875 
L 19.671875 37.40625 
L 32.078125 37.40625 
Q 38.96875 37.40625 42.71875 40.96875 
Q 46.484375 44.53125 46.484375 51.125 
Q 46.484375 57.671875 42.71875 61.234375 
Q 38.96875 64.796875 32.078125 64.796875 
z
M 9.8125 72.90625 
L 32.078125 72.90625 
Q 44.34375 72.90625 50.609375 67.359375 
Q 56.890625 61.8125 56.890625 51.125 
Q 56.890625 40.328125 50.609375 34.8125 
Q 44.34375 29.296875 32.078125 29.296875 
L 19.671875 29.296875 
L 19.671875 0 
L 9.8125 0 
z
" id="DejaVuSans-50"/>
      <path d="M 41.109375 46.296875 
Q 39.59375 47.171875 37.8125 47.578125 
Q 36.03125 48 33.890625 48 
Q 26.265625 48 22.1875 43.046875 
Q 18.109375 38.09375 18.109375 28.8125 
L 18.109375 0 
L 9.078125 0 
L 9.078125 54.6875 
L 18.109375 54.6875 
L 18.109375 46.1875 
Q 20.953125 51.171875 25.484375 53.578125 
Q 30.03125 56 36.53125 56 
Q 37.453125 56 38.578125 55.875 
Q 39.703125 55.765625 41.0625 55.515625 
z
" id="DejaVuSans-72"/>
      <path d="M 30.609375 48.390625 
Q 23.390625 48.390625 19.1875 42.75 
Q 14.984375 37.109375 14.984375 27.296875 
Q 14.984375 17.484375 19.15625 11.84375 
Q 23.34375 6.203125 30.609375 6.203125 
Q 37.796875 6.203125 41.984375 11.859375 
Q 46.1875 17.53125 46.1875 27.296875 
Q 46.1875 37.015625 41.984375 42.703125 
Q 37.796875 48.390625 30.609375 48.390625 
z
M 30.609375 56 
Q 42.328125 56 49.015625 48.375 
Q 55.71875 40.765625 55.71875 27.296875 
Q 55.71875 13.875 49.015625 6.21875 
Q 42.328125 -1.421875 30.609375 -1.421875 
Q 18.84375 -1.421875 12.171875 6.21875 
Q 5.515625 13.875 5.515625 27.296875 
Q 5.515625 40.765625 12.171875 48.375 
Q 18.84375 56 30.609375 56 
z
" id="DejaVuSans-6f"/>
      <path d="M 48.6875 27.296875 
Q 48.6875 37.203125 44.609375 42.84375 
Q 40.53125 48.484375 33.40625 48.484375 
Q 26.265625 48.484375 22.1875 42.84375 
Q 18.109375 37.203125 18.109375 27.296875 
Q 18.109375 17.390625 22.1875 11.75 
Q 26.265625 6.109375 33.40625 6.109375 
Q 40.53125 6.109375 44.609375 11.75 
Q 48.6875 17.390625 48.6875 27.296875 
z
M 18.109375 46.390625 
Q 20.953125 51.265625 25.265625 53.625 
Q 29.59375 56 35.59375 56 
Q 45.5625 56 51.78125 48.09375 
Q 58.015625 40.1875 58.015625 27.296875 
Q 58.015625 14.40625 51.78125 6.484375 
Q 45.5625 -1.421875 35.59375 -1.421875 
Q 29.59375 -1.421875 25.265625 0.953125 
Q 20.953125 3.328125 18.109375 8.203125 
L 18.109375 0 
L 9.078125 0 
L 9.078125 75.984375 
L 18.109375 75.984375 
z
" id="DejaVuSans-62"/>
      <path d="M 9.421875 75.984375 
L 18.40625 75.984375 
L 18.40625 0 
L 9.421875 0 
z
" id="DejaVuSans-6c"/>
      <path d="M 32.171875 -5.078125 
Q 28.375 -14.84375 24.75 -17.8125 
Q 21.140625 -20.796875 15.09375 -20.796875 
L 7.90625 -20.796875 
L 7.90625 -13.28125 
L 13.1875 -13.28125 
Q 16.890625 -13.28125 18.9375 -11.515625 
Q 21 -9.765625 23.484375 -3.21875 
L 25.09375 0.875 
L 2.984375 54.6875 
L 12.5 54.6875 
L 29.59375 11.921875 
L 46.6875 54.6875 
L 56.203125 54.6875 
z
" id="DejaVuSans-79"/>
     </defs>
     <g transform="translate(14.798437 182.000687)rotate(-90)scale(0.1 -0.1)">
      <use xlink:href="#DejaVuSans-50"/>
      <use x="60.287109" xlink:href="#DejaVuSans-72"/>
      <use x="101.369141" xlink:href="#DejaVuSans-6f"/>
      <use x="162.550781" xlink:href="#DejaVuSans-62"/>
      <use x="226.027344" xlink:href="#DejaVuSans-61"/>
      <use x="287.306641" xlink:href="#DejaVuSans-62"/>
      <use x="350.783203" xlink:href="#DejaVuSans-69"/>
      <use x="378.566406" xlink:href="#DejaVuSans-6c"/>
      <use x="406.349609" xlink:href="#DejaVuSans-69"/>
      <use x="434.132812" xlink:href="#DejaVuSans-74"/>
      <use x="473.341797" xlink:href="#DejaVuSans-79"/>
     </g>
    </g>
   </g>
   <g id="line2d_18">
    <path clip-path="url(#pa191d6b848)" d="M 72.738977 283.123487 
L 93.632114 275.402851 
L 121.658759 252.354124 
L 122.606403 251.228933 
L 129.116818 242.791694 
L 131.389484 239.548784 
L 143.244391 220.073777 
L 149.645029 207.795718 
L 152.380754 202.189862 
L 157.676704 190.771862 
L 163.214415 178.114828 
L 169.900933 162.037146 
L 177.267562 143.647538 
L 191.618104 107.603202 
L 194.531273 100.543046 
L 199.975001 87.8455 
L 204.723638 77.461286 
L 208.494645 69.78903 
L 211.980056 63.224533 
L 216.035784 56.303226 
L 219.734035 50.7339 
L 221.741619 48.029001 
L 224.706458 44.466726 
L 227.546927 41.557666 
L 229.983222 39.469813 
L 231.099632 38.641722 
L 233.490991 37.14499 
L 235.730256 36.090799 
L 238.531378 35.251623 
L 239.867057 35.040639 
L 242.584872 34.990125 
L 244.975687 35.365649 
L 246.695599 35.877977 
L 248.652184 36.705493 
L 251.264851 38.212125 
L 252.93026 39.408782 
L 257.301048 43.401416 
L 259.2199 45.53228 
L 261.768635 48.704865 
L 264.721923 52.849498 
L 265.547288 54.094187 
L 268.479695 58.807215 
L 272.053588 65.129318 
L 275.343464 71.461187 
L 278.609047 78.180662 
L 283.528953 89.006607 
L 287.638257 98.579145 
L 292.044193 109.247816 
L 299.790565 128.627577 
L 313.511958 163.069687 
L 316.423271 170.142998 
L 324.262549 188.418472 
L 329.210782 199.240792 
L 333.730095 208.563774 
L 339.002922 218.707155 
L 339.796674 220.162918 
L 343.541942 226.774705 
L 349.538597 236.467442 
L 350.809676 238.380338 
L 356.203789 245.953018 
L 368.750498 260.300636 
L 371.761902 263.111603 
L 383.056191 271.741301 
L 397.393523 279.0766 
L 397.393523 279.0766 
" style="fill:none;stroke:#1f77b4;stroke-linecap:square;stroke-width:1.5;"/>
    <defs>
     <path d="M 0 3 
C 0.795609 3 1.55874 2.683901 2.12132 2.12132 
C 2.683901 1.55874 3 0.795609 3 0 
C 3 -0.795609 2.683901 -1.55874 2.12132 -2.12132 
C 1.55874 -2.683901 0.795609 -3 0 -3 
C -0.795609 -3 -1.55874 -2.683901 -2.12132 -2.12132 
C -2.683901 -1.55874 -3 -0.795609 -3 0 
C -3 0.795609 -2.683901 1.55874 -2.12132 2.12132 
C -1.55874 2.683901 -0.795609 3 0 3 
z
" id="m2185a5efe8" style="stroke:#1f77b4;"/>
    </defs>
    <g clip-path="url(#pa191d6b848)">
     <use style="fill:#1f77b4;stroke:#1f77b4;" x="72.738977" xlink:href="#m2185a5efe8" y="283.123487"/>
     <use style="fill:#1f77b4;stroke:#1f77b4;" x="93.632114" xlink:href="#m2185a5efe8" y="275.402851"/>
     <use style="fill:#1f77b4;stroke:#1f77b4;" x="121.658759" xlink:href="#m2185a5efe8" y="252.354124"/>
     <use style="fill:#1f77b4;stroke:#1f77b4;" x="122.606403" xlink:href="#m2185a5efe8" y="251.228933"/>
     <use style="fill:#1f77b4;stroke:#1f77b4;" x="129.116818" xlink:href="#m2185a5efe8" y="242.791694"/>
     <use style="fill:#1f77b4;stroke:#1f77b4;" x="131.389484" xlink:href="#m2185a5efe8" y="239.548784"/>
     <use style="fill:#1f77b4;stroke:#1f77b4;" x="143.244391" xlink:href="#m2185a5efe8" y="220.073777"/>
     <use style="fill:#1f77b4;stroke:#1f77b4;" x="148.378302" xlink:href="#m2185a5efe8" y="210.32029"/>
     <use style="fill:#1f77b4;stroke:#1f77b4;" x="148.953139" xlink:href="#m2185a5efe8" y="209.180315"/>
     <use style="fill:#1f77b4;stroke:#1f77b4;" x="149.645029" xlink:href="#m2185a5efe8" y="207.795718"/>
     <use style="fill:#1f77b4;stroke:#1f77b4;" x="150.647611" xlink:href="#m2185a5efe8" y="205.765404"/>
     <use style="fill:#1f77b4;stroke:#1f77b4;" x="151.839441" xlink:href="#m2185a5efe8" y="203.315459"/>
     <use style="fill:#1f77b4;stroke:#1f77b4;" x="152.347473" xlink:href="#m2185a5efe8" y="202.259294"/>
     <use style="fill:#1f77b4;stroke:#1f77b4;" x="152.380754" xlink:href="#m2185a5efe8" y="202.189862"/>
     <use style="fill:#1f77b4;stroke:#1f77b4;" x="154.729094" xlink:href="#m2185a5efe8" y="197.215915"/>
     <use style="fill:#1f77b4;stroke:#1f77b4;" x="154.99883" xlink:href="#m2185a5efe8" y="196.635334"/>
     <use style="fill:#1f77b4;stroke:#1f77b4;" x="155.467957" xlink:href="#m2185a5efe8" y="195.621132"/>
     <use style="fill:#1f77b4;stroke:#1f77b4;" x="157.676704" xlink:href="#m2185a5efe8" y="190.771862"/>
     <use style="fill:#1f77b4;stroke:#1f77b4;" x="158.977461" xlink:href="#m2185a5efe8" y="187.860705"/>
     <use style="fill:#1f77b4;stroke:#1f77b4;" x="161.322375" xlink:href="#m2185a5efe8" y="182.514696"/>
     <use style="fill:#1f77b4;stroke:#1f77b4;" x="162.481671" xlink:href="#m2185a5efe8" y="179.827553"/>
     <use style="fill:#1f77b4;stroke:#1f77b4;" x="163.214415" xlink:href="#m2185a5efe8" y="178.114828"/>
     <use style="fill:#1f77b4;stroke:#1f77b4;" x="165.181364" xlink:href="#m2185a5efe8" y="173.465417"/>
     <use style="fill:#1f77b4;stroke:#1f77b4;" x="165.76264" xlink:href="#m2185a5efe8" y="172.077667"/>
     <use style="fill:#1f77b4;stroke:#1f77b4;" x="166.952485" xlink:href="#m2185a5efe8" y="169.21866"/>
     <use style="fill:#1f77b4;stroke:#1f77b4;" x="169.900933" xlink:href="#m2185a5efe8" y="162.037146"/>
     <use style="fill:#1f77b4;stroke:#1f77b4;" x="170.055728" xlink:href="#m2185a5efe8" y="161.65665"/>
     <use style="fill:#1f77b4;stroke:#1f77b4;" x="171.504404" xlink:href="#m2185a5efe8" y="158.080824"/>
     <use style="fill:#1f77b4;stroke:#1f77b4;" x="171.740854" xlink:href="#m2185a5efe8" y="157.494768"/>
     <use style="fill:#1f77b4;stroke:#1f77b4;" x="172.123803" xlink:href="#m2185a5efe8" y="156.544255"/>
     <use style="fill:#1f77b4;stroke:#1f77b4;" x="174.449121" xlink:href="#m2185a5efe8" y="150.740405"/>
     <use style="fill:#1f77b4;stroke:#1f77b4;" x="174.898634" xlink:href="#m2185a5efe8" y="149.612841"/>
     <use style="fill:#1f77b4;stroke:#1f77b4;" x="177.096447" xlink:href="#m2185a5efe8" y="144.079522"/>
     <use style="fill:#1f77b4;stroke:#1f77b4;" x="177.267562" xlink:href="#m2185a5efe8" y="143.647538"/>
     <use style="fill:#1f77b4;stroke:#1f77b4;" x="179.036531" xlink:href="#m2185a5efe8" y="139.174832"/>
     <use style="fill:#1f77b4;stroke:#1f77b4;" x="182.861491" xlink:href="#m2185a5efe8" y="129.488025"/>
     <use style="fill:#1f77b4;stroke:#1f77b4;" x="182.98353" xlink:href="#m2185a5efe8" y="129.179233"/>
     <use style="fill:#1f77b4;stroke:#1f77b4;" x="183.629494" xlink:href="#m2185a5efe8" y="127.545586"/>
     <use style="fill:#1f77b4;stroke:#1f77b4;" x="186.680954" xlink:href="#m2185a5efe8" y="119.857359"/>
     <use style="fill:#1f77b4;stroke:#1f77b4;" x="186.781722" xlink:href="#m2185a5efe8" y="119.60458"/>
     <use style="fill:#1f77b4;stroke:#1f77b4;" x="189.89027" xlink:href="#m2185a5efe8" y="111.857005"/>
     <use style="fill:#1f77b4;stroke:#1f77b4;" x="191.075817" xlink:href="#m2185a5efe8" y="108.933526"/>
     <use style="fill:#1f77b4;stroke:#1f77b4;" x="191.272355" xlink:href="#m2185a5efe8" y="108.450857"/>
     <use style="fill:#1f77b4;stroke:#1f77b4;" x="191.618104" xlink:href="#m2185a5efe8" y="107.603202"/>
     <use style="fill:#1f77b4;stroke:#1f77b4;" x="193.162888" xlink:href="#m2185a5efe8" y="103.840092"/>
     <use style="fill:#1f77b4;stroke:#1f77b4;" x="194.531273" xlink:href="#m2185a5efe8" y="100.543046"/>
     <use style="fill:#1f77b4;stroke:#1f77b4;" x="197.916188" xlink:href="#m2185a5efe8" y="92.560361"/>
     <use style="fill:#1f77b4;stroke:#1f77b4;" x="198.918143" xlink:href="#m2185a5efe8" y="90.251316"/>
     <use style="fill:#1f77b4;stroke:#1f77b4;" x="199.586269" xlink:href="#m2185a5efe8" y="88.726739"/>
     <use style="fill:#1f77b4;stroke:#1f77b4;" x="199.975001" xlink:href="#m2185a5efe8" y="87.8455"/>
     <use style="fill:#1f77b4;stroke:#1f77b4;" x="203.256444" xlink:href="#m2185a5efe8" y="80.590039"/>
     <use style="fill:#1f77b4;stroke:#1f77b4;" x="204.222978" xlink:href="#m2185a5efe8" y="78.520398"/>
     <use style="fill:#1f77b4;stroke:#1f77b4;" x="204.244778" xlink:href="#m2185a5efe8" y="78.474096"/>
     <use style="fill:#1f77b4;stroke:#1f77b4;" x="204.723638" xlink:href="#m2185a5efe8" y="77.461286"/>
     <use style="fill:#1f77b4;stroke:#1f77b4;" x="206.190195" xlink:href="#m2185a5efe8" y="74.41187"/>
     <use style="fill:#1f77b4;stroke:#1f77b4;" x="208.494645" xlink:href="#m2185a5efe8" y="69.78903"/>
     <use style="fill:#1f77b4;stroke:#1f77b4;" x="209.96381" xlink:href="#m2185a5efe8" y="66.956583"/>
     <use style="fill:#1f77b4;stroke:#1f77b4;" x="211.155923" xlink:href="#m2185a5efe8" y="64.7277"/>
     <use style="fill:#1f77b4;stroke:#1f77b4;" x="211.980056" xlink:href="#m2185a5efe8" y="63.224533"/>
     <use style="fill:#1f77b4;stroke:#1f77b4;" x="214.556806" xlink:href="#m2185a5efe8" y="58.732671"/>
     <use style="fill:#1f77b4;stroke:#1f77b4;" x="216.035784" xlink:href="#m2185a5efe8" y="56.303226"/>
     <use style="fill:#1f77b4;stroke:#1f77b4;" x="217.768669" xlink:href="#m2185a5efe8" y="53.601498"/>
     <use style="fill:#1f77b4;stroke:#1f77b4;" x="218.254616" xlink:href="#m2185a5efe8" y="52.872715"/>
     <use style="fill:#1f77b4;stroke:#1f77b4;" x="218.25639" xlink:href="#m2185a5efe8" y="52.870078"/>
     <use style="fill:#1f77b4;stroke:#1f77b4;" x="218.709336" xlink:href="#m2185a5efe8" y="52.202434"/>
     <use style="fill:#1f77b4;stroke:#1f77b4;" x="219.734035" xlink:href="#m2185a5efe8" y="50.7339"/>
     <use style="fill:#1f77b4;stroke:#1f77b4;" x="219.800104" xlink:href="#m2185a5efe8" y="50.641228"/>
     <use style="fill:#1f77b4;stroke:#1f77b4;" x="219.956984" xlink:href="#m2185a5efe8" y="50.422164"/>
     <use style="fill:#1f77b4;stroke:#1f77b4;" x="220.834333" xlink:href="#m2185a5efe8" y="49.222797"/>
     <use style="fill:#1f77b4;stroke:#1f77b4;" x="221.440811" xlink:href="#m2185a5efe8" y="48.419515"/>
     <use style="fill:#1f77b4;stroke:#1f77b4;" x="221.741619" xlink:href="#m2185a5efe8" y="48.029001"/>
     <use style="fill:#1f77b4;stroke:#1f77b4;" x="222.991599" xlink:href="#m2185a5efe8" y="46.463123"/>
     <use style="fill:#1f77b4;stroke:#1f77b4;" x="223.049594" xlink:href="#m2185a5efe8" y="46.392717"/>
     <use style="fill:#1f77b4;stroke:#1f77b4;" x="223.535024" xlink:href="#m2185a5efe8" y="45.811289"/>
     <use style="fill:#1f77b4;stroke:#1f77b4;" x="223.813014" xlink:href="#m2185a5efe8" y="45.484695"/>
     <use style="fill:#1f77b4;stroke:#1f77b4;" x="223.832963" xlink:href="#m2185a5efe8" y="45.461436"/>
     <use style="fill:#1f77b4;stroke:#1f77b4;" x="224.409813" xlink:href="#m2185a5efe8" y="44.799333"/>
     <use style="fill:#1f77b4;stroke:#1f77b4;" x="224.637669" xlink:href="#m2185a5efe8" y="44.543375"/>
     <use style="fill:#1f77b4;stroke:#1f77b4;" x="224.706458" xlink:href="#m2185a5efe8" y="44.466726"/>
     <use style="fill:#1f77b4;stroke:#1f77b4;" x="225.900966" xlink:href="#m2185a5efe8" y="43.182121"/>
     <use style="fill:#1f77b4;stroke:#1f77b4;" x="225.98051" xlink:href="#m2185a5efe8" y="43.099712"/>
     <use style="fill:#1f77b4;stroke:#1f77b4;" x="227.234784" xlink:href="#m2185a5efe8" y="41.852619"/>
     <use style="fill:#1f77b4;stroke:#1f77b4;" x="227.441409" xlink:href="#m2185a5efe8" y="41.656683"/>
     <use style="fill:#1f77b4;stroke:#1f77b4;" x="227.546927" xlink:href="#m2185a5efe8" y="41.557666"/>
     <use style="fill:#1f77b4;stroke:#1f77b4;" x="228.254968" xlink:href="#m2185a5efe8" y="40.911586"/>
     <use style="fill:#1f77b4;stroke:#1f77b4;" x="229.983222" xlink:href="#m2185a5efe8" y="39.469813"/>
     <use style="fill:#1f77b4;stroke:#1f77b4;" x="230.278592" xlink:href="#m2185a5efe8" y="39.242787"/>
     <use style="fill:#1f77b4;stroke:#1f77b4;" x="231.099632" xlink:href="#m2185a5efe8" y="38.641722"/>
     <use style="fill:#1f77b4;stroke:#1f77b4;" x="233.135317" xlink:href="#m2185a5efe8" y="37.34349"/>
     <use style="fill:#1f77b4;stroke:#1f77b4;" x="233.490991" xlink:href="#m2185a5efe8" y="37.14499"/>
     <use style="fill:#1f77b4;stroke:#1f77b4;" x="235.730256" xlink:href="#m2185a5efe8" y="36.090799"/>
     <use style="fill:#1f77b4;stroke:#1f77b4;" x="237.871769" xlink:href="#m2185a5efe8" y="35.400964"/>
     <use style="fill:#1f77b4;stroke:#1f77b4;" x="238.531378" xlink:href="#m2185a5efe8" y="35.251623"/>
     <use style="fill:#1f77b4;stroke:#1f77b4;" x="239.065584" xlink:href="#m2185a5efe8" y="35.152539"/>
     <use style="fill:#1f77b4;stroke:#1f77b4;" x="239.867057" xlink:href="#m2185a5efe8" y="35.040639"/>
     <use style="fill:#1f77b4;stroke:#1f77b4;" x="242.584872" xlink:href="#m2185a5efe8" y="34.990125"/>
     <use style="fill:#1f77b4;stroke:#1f77b4;" x="243.691283" xlink:href="#m2185a5efe8" y="35.115111"/>
     <use style="fill:#1f77b4;stroke:#1f77b4;" x="244.397988" xlink:href="#m2185a5efe8" y="35.23896"/>
     <use style="fill:#1f77b4;stroke:#1f77b4;" x="244.597135" xlink:href="#m2185a5efe8" y="35.280049"/>
     <use style="fill:#1f77b4;stroke:#1f77b4;" x="244.975687" xlink:href="#m2185a5efe8" y="35.365649"/>
     <use style="fill:#1f77b4;stroke:#1f77b4;" x="246.634046" xlink:href="#m2185a5efe8" y="35.856159"/>
     <use style="fill:#1f77b4;stroke:#1f77b4;" x="246.695599" xlink:href="#m2185a5efe8" y="35.877977"/>
     <use style="fill:#1f77b4;stroke:#1f77b4;" x="248.395982" xlink:href="#m2185a5efe8" y="36.582395"/>
     <use style="fill:#1f77b4;stroke:#1f77b4;" x="248.652184" xlink:href="#m2185a5efe8" y="36.705493"/>
     <use style="fill:#1f77b4;stroke:#1f77b4;" x="250.139" xlink:href="#m2185a5efe8" y="37.506979"/>
     <use style="fill:#1f77b4;stroke:#1f77b4;" x="251.264851" xlink:href="#m2185a5efe8" y="38.212125"/>
     <use style="fill:#1f77b4;stroke:#1f77b4;" x="252.384255" xlink:href="#m2185a5efe8" y="38.996393"/>
     <use style="fill:#1f77b4;stroke:#1f77b4;" x="252.593506" xlink:href="#m2185a5efe8" y="39.152133"/>
     <use style="fill:#1f77b4;stroke:#1f77b4;" x="252.93026" xlink:href="#m2185a5efe8" y="39.408782"/>
     <use style="fill:#1f77b4;stroke:#1f77b4;" x="256.301417" xlink:href="#m2185a5efe8" y="42.381413"/>
     <use style="fill:#1f77b4;stroke:#1f77b4;" x="256.771744" xlink:href="#m2185a5efe8" y="42.853553"/>
     <use style="fill:#1f77b4;stroke:#1f77b4;" x="257.301048" xlink:href="#m2185a5efe8" y="43.401416"/>
     <use style="fill:#1f77b4;stroke:#1f77b4;" x="257.765663" xlink:href="#m2185a5efe8" y="43.896645"/>
     <use style="fill:#1f77b4;stroke:#1f77b4;" x="257.82265" xlink:href="#m2185a5efe8" y="43.958305"/>
     <use style="fill:#1f77b4;stroke:#1f77b4;" x="257.977805" xlink:href="#m2185a5efe8" y="44.127194"/>
     <use style="fill:#1f77b4;stroke:#1f77b4;" x="257.984862" xlink:href="#m2185a5efe8" y="44.134911"/>
     <use style="fill:#1f77b4;stroke:#1f77b4;" x="258.947281" xlink:href="#m2185a5efe8" y="45.215854"/>
     <use style="fill:#1f77b4;stroke:#1f77b4;" x="259.2199" xlink:href="#m2185a5efe8" y="45.53228"/>
     <use style="fill:#1f77b4;stroke:#1f77b4;" x="261.683202" xlink:href="#m2185a5efe8" y="48.592343"/>
     <use style="fill:#1f77b4;stroke:#1f77b4;" x="261.768635" xlink:href="#m2185a5efe8" y="48.704865"/>
     <use style="fill:#1f77b4;stroke:#1f77b4;" x="263.534051" xlink:href="#m2185a5efe8" y="51.123576"/>
     <use style="fill:#1f77b4;stroke:#1f77b4;" x="264.305238" xlink:href="#m2185a5efe8" y="52.235204"/>
     <use style="fill:#1f77b4;stroke:#1f77b4;" x="264.66701" xlink:href="#m2185a5efe8" y="52.767999"/>
     <use style="fill:#1f77b4;stroke:#1f77b4;" x="264.721923" xlink:href="#m2185a5efe8" y="52.849498"/>
     <use style="fill:#1f77b4;stroke:#1f77b4;" x="265.547288" xlink:href="#m2185a5efe8" y="54.094187"/>
     <use style="fill:#1f77b4;stroke:#1f77b4;" x="268.479695" xlink:href="#m2185a5efe8" y="58.807215"/>
     <use style="fill:#1f77b4;stroke:#1f77b4;" x="270.475013" xlink:href="#m2185a5efe8" y="62.261928"/>
     <use style="fill:#1f77b4;stroke:#1f77b4;" x="271.870832" xlink:href="#m2185a5efe8" y="64.791477"/>
     <use style="fill:#1f77b4;stroke:#1f77b4;" x="272.053588" xlink:href="#m2185a5efe8" y="65.129318"/>
     <use style="fill:#1f77b4;stroke:#1f77b4;" x="272.934119" xlink:href="#m2185a5efe8" y="66.778094"/>
     <use style="fill:#1f77b4;stroke:#1f77b4;" x="273.643976" xlink:href="#m2185a5efe8" y="68.132186"/>
     <use style="fill:#1f77b4;stroke:#1f77b4;" x="274.983965" xlink:href="#m2185a5efe8" y="70.746977"/>
     <use style="fill:#1f77b4;stroke:#1f77b4;" x="275.343464" xlink:href="#m2185a5efe8" y="71.461187"/>
     <use style="fill:#1f77b4;stroke:#1f77b4;" x="277.414617" xlink:href="#m2185a5efe8" y="75.675968"/>
     <use style="fill:#1f77b4;stroke:#1f77b4;" x="277.960254" xlink:href="#m2185a5efe8" y="76.813669"/>
     <use style="fill:#1f77b4;stroke:#1f77b4;" x="278.021727" xlink:href="#m2185a5efe8" y="76.942534"/>
     <use style="fill:#1f77b4;stroke:#1f77b4;" x="278.609047" xlink:href="#m2185a5efe8" y="78.180662"/>
     <use style="fill:#1f77b4;stroke:#1f77b4;" x="280.447916" xlink:href="#m2185a5efe8" y="82.135486"/>
     <use style="fill:#1f77b4;stroke:#1f77b4;" x="280.471035" xlink:href="#m2185a5efe8" y="82.185937"/>
     <use style="fill:#1f77b4;stroke:#1f77b4;" x="280.558082" xlink:href="#m2185a5efe8" y="82.37605"/>
     <use style="fill:#1f77b4;stroke:#1f77b4;" x="283.52093" xlink:href="#m2185a5efe8" y="88.988348"/>
     <use style="fill:#1f77b4;stroke:#1f77b4;" x="283.528953" xlink:href="#m2185a5efe8" y="89.006607"/>
     <use style="fill:#1f77b4;stroke:#1f77b4;" x="283.718698" xlink:href="#m2185a5efe8" y="89.43897"/>
     <use style="fill:#1f77b4;stroke:#1f77b4;" x="286.397674" xlink:href="#m2185a5efe8" y="95.645568"/>
     <use style="fill:#1f77b4;stroke:#1f77b4;" x="287.550096" xlink:href="#m2185a5efe8" y="98.369533"/>
     <use style="fill:#1f77b4;stroke:#1f77b4;" x="287.638257" xlink:href="#m2185a5efe8" y="98.579145"/>
     <use style="fill:#1f77b4;stroke:#1f77b4;" x="289.542829" xlink:href="#m2185a5efe8" y="103.146946"/>
     <use style="fill:#1f77b4;stroke:#1f77b4;" x="289.90236" xlink:href="#m2185a5efe8" y="104.017191"/>
     <use style="fill:#1f77b4;stroke:#1f77b4;" x="292.044193" xlink:href="#m2185a5efe8" y="109.247816"/>
     <use style="fill:#1f77b4;stroke:#1f77b4;" x="294.820217" xlink:href="#m2185a5efe8" y="116.126727"/>
     <use style="fill:#1f77b4;stroke:#1f77b4;" x="295.027916" xlink:href="#m2185a5efe8" y="116.645106"/>
     <use style="fill:#1f77b4;stroke:#1f77b4;" x="295.80872" xlink:href="#m2185a5efe8" y="118.597736"/>
     <use style="fill:#1f77b4;stroke:#1f77b4;" x="296.552153" xlink:href="#m2185a5efe8" y="120.46212"/>
     <use style="fill:#1f77b4;stroke:#1f77b4;" x="297.669669" xlink:href="#m2185a5efe8" y="123.272833"/>
     <use style="fill:#1f77b4;stroke:#1f77b4;" x="297.936855" xlink:href="#m2185a5efe8" y="123.946108"/>
     <use style="fill:#1f77b4;stroke:#1f77b4;" x="298.446024" xlink:href="#m2185a5efe8" y="125.230321"/>
     <use style="fill:#1f77b4;stroke:#1f77b4;" x="299.156946" xlink:href="#m2185a5efe8" y="127.025641"/>
     <use style="fill:#1f77b4;stroke:#1f77b4;" x="299.790565" xlink:href="#m2185a5efe8" y="128.627577"/>
     <use style="fill:#1f77b4;stroke:#1f77b4;" x="302.028442" xlink:href="#m2185a5efe8" y="134.293799"/>
     <use style="fill:#1f77b4;stroke:#1f77b4;" x="302.330679" xlink:href="#m2185a5efe8" y="135.059476"/>
     <use style="fill:#1f77b4;stroke:#1f77b4;" x="304.278572" xlink:href="#m2185a5efe8" y="139.992138"/>
     <use style="fill:#1f77b4;stroke:#1f77b4;" x="305.387341" xlink:href="#m2185a5efe8" y="142.795723"/>
     <use style="fill:#1f77b4;stroke:#1f77b4;" x="306.129471" xlink:href="#m2185a5efe8" y="144.669407"/>
     <use style="fill:#1f77b4;stroke:#1f77b4;" x="307.217548" xlink:href="#m2185a5efe8" y="147.411152"/>
     <use style="fill:#1f77b4;stroke:#1f77b4;" x="307.786839" xlink:href="#m2185a5efe8" y="148.84264"/>
     <use style="fill:#1f77b4;stroke:#1f77b4;" x="310.747883" xlink:href="#m2185a5efe8" y="156.244887"/>
     <use style="fill:#1f77b4;stroke:#1f77b4;" x="311.674423" xlink:href="#m2185a5efe8" y="158.543023"/>
     <use style="fill:#1f77b4;stroke:#1f77b4;" x="312.026292" xlink:href="#m2185a5efe8" y="159.413153"/>
     <use style="fill:#1f77b4;stroke:#1f77b4;" x="313.511958" xlink:href="#m2185a5efe8" y="163.069687"/>
     <use style="fill:#1f77b4;stroke:#1f77b4;" x="315.201525" xlink:href="#m2185a5efe8" y="167.190623"/>
     <use style="fill:#1f77b4;stroke:#1f77b4;" x="316.423271" xlink:href="#m2185a5efe8" y="170.142998"/>
     <use style="fill:#1f77b4;stroke:#1f77b4;" x="322.113796" xlink:href="#m2185a5efe8" y="183.536306"/>
     <use style="fill:#1f77b4;stroke:#1f77b4;" x="324.262549" xlink:href="#m2185a5efe8" y="188.418472"/>
     <use style="fill:#1f77b4;stroke:#1f77b4;" x="328.837338" xlink:href="#m2185a5efe8" y="198.445698"/>
     <use style="fill:#1f77b4;stroke:#1f77b4;" x="329.210782" xlink:href="#m2185a5efe8" y="199.240792"/>
     <use style="fill:#1f77b4;stroke:#1f77b4;" x="332.448916" xlink:href="#m2185a5efe8" y="205.978063"/>
     <use style="fill:#1f77b4;stroke:#1f77b4;" x="333.730095" xlink:href="#m2185a5efe8" y="208.563774"/>
     <use style="fill:#1f77b4;stroke:#1f77b4;" x="335.895594" xlink:href="#m2185a5efe8" y="212.827863"/>
     <use style="fill:#1f77b4;stroke:#1f77b4;" x="339.002922" xlink:href="#m2185a5efe8" y="218.707155"/>
     <use style="fill:#1f77b4;stroke:#1f77b4;" x="339.796674" xlink:href="#m2185a5efe8" y="220.162918"/>
     <use style="fill:#1f77b4;stroke:#1f77b4;" x="343.541942" xlink:href="#m2185a5efe8" y="226.774705"/>
     <use style="fill:#1f77b4;stroke:#1f77b4;" x="347.866079" xlink:href="#m2185a5efe8" y="233.875042"/>
     <use style="fill:#1f77b4;stroke:#1f77b4;" x="348.700905" xlink:href="#m2185a5efe8" y="235.179741"/>
     <use style="fill:#1f77b4;stroke:#1f77b4;" x="349.538597" xlink:href="#m2185a5efe8" y="236.467442"/>
     <use style="fill:#1f77b4;stroke:#1f77b4;" x="350.809676" xlink:href="#m2185a5efe8" y="238.380338"/>
     <use style="fill:#1f77b4;stroke:#1f77b4;" x="356.203789" xlink:href="#m2185a5efe8" y="245.953018"/>
     <use style="fill:#1f77b4;stroke:#1f77b4;" x="368.750498" xlink:href="#m2185a5efe8" y="260.300636"/>
     <use style="fill:#1f77b4;stroke:#1f77b4;" x="371.761902" xlink:href="#m2185a5efe8" y="263.111603"/>
     <use style="fill:#1f77b4;stroke:#1f77b4;" x="383.056191" xlink:href="#m2185a5efe8" y="271.741301"/>
     <use style="fill:#1f77b4;stroke:#1f77b4;" x="397.393523" xlink:href="#m2185a5efe8" y="279.0766"/>
    </g>
   </g>
   <g id="patch_13">
    <path d="M 56.50625 288.430125 
L 56.50625 22.318125 
" style="fill:none;stroke:#000000;stroke-linecap:square;stroke-linejoin:miter;stroke-width:0.8;"/>
   </g>
   <g id="patch_14">
    <path d="M 413.62625 288.430125 
L 413.62625 22.318125 
" style="fill:none;stroke:#000000;stroke-linecap:square;stroke-linejoin:miter;stroke-width:0.8;"/>
   </g>
   <g id="patch_15">
    <path d="M 56.50625 288.430125 
L 413.62625 288.430125 
" style="fill:none;stroke:#000000;stroke-linecap:square;stroke-linejoin:miter;stroke-width:0.8;"/>
   </g>
   <g id="patch_16">
    <path d="M 56.50625 22.318125 
L 413.62625 22.318125 
" style="fill:none;stroke:#000000;stroke-linecap:square;stroke-linejoin:miter;stroke-width:0.8;"/>
   </g>
   <g id="text_20">
    <!-- Distribution Between Pairs [d-dim] -->
    <defs>
     <path d="M 8.5 21.578125 
L 8.5 54.6875 
L 17.484375 54.6875 
L 17.484375 21.921875 
Q 17.484375 14.15625 20.5 10.265625 
Q 23.53125 6.390625 29.59375 6.390625 
Q 36.859375 6.390625 41.078125 11.03125 
Q 45.3125 15.671875 45.3125 23.6875 
L 45.3125 54.6875 
L 54.296875 54.6875 
L 54.296875 0 
L 45.3125 0 
L 45.3125 8.40625 
Q 42.046875 3.421875 37.71875 1 
Q 33.40625 -1.421875 27.6875 -1.421875 
Q 18.265625 -1.421875 13.375 4.4375 
Q 8.5 10.296875 8.5 21.578125 
z
M 31.109375 56 
z
" id="DejaVuSans-75"/>
     <path id="DejaVuSans-20"/>
     <path d="M 19.671875 34.8125 
L 19.671875 8.109375 
L 35.5 8.109375 
Q 43.453125 8.109375 47.28125 11.40625 
Q 51.125 14.703125 51.125 21.484375 
Q 51.125 28.328125 47.28125 31.5625 
Q 43.453125 34.8125 35.5 34.8125 
z
M 19.671875 64.796875 
L 19.671875 42.828125 
L 34.28125 42.828125 
Q 41.5 42.828125 45.03125 45.53125 
Q 48.578125 48.25 48.578125 53.8125 
Q 48.578125 59.328125 45.03125 62.0625 
Q 41.5 64.796875 34.28125 64.796875 
z
M 9.8125 72.90625 
L 35.015625 72.90625 
Q 46.296875 72.90625 52.390625 68.21875 
Q 58.5 63.53125 58.5 54.890625 
Q 58.5 48.1875 55.375 44.234375 
Q 52.25 40.28125 46.1875 39.3125 
Q 53.46875 37.75 57.5 32.78125 
Q 61.53125 27.828125 61.53125 20.40625 
Q 61.53125 10.640625 54.890625 5.3125 
Q 48.25 0 35.984375 0 
L 9.8125 0 
z
" id="DejaVuSans-42"/>
     <path d="M 4.203125 54.6875 
L 13.1875 54.6875 
L 24.421875 12.015625 
L 35.59375 54.6875 
L 46.1875 54.6875 
L 57.421875 12.015625 
L 68.609375 54.6875 
L 77.59375 54.6875 
L 63.28125 0 
L 52.6875 0 
L 40.921875 44.828125 
L 29.109375 0 
L 18.5 0 
z
" id="DejaVuSans-77"/>
     <path d="M 8.59375 75.984375 
L 29.296875 75.984375 
L 29.296875 69 
L 17.578125 69 
L 17.578125 -6.203125 
L 29.296875 -6.203125 
L 29.296875 -13.1875 
L 8.59375 -13.1875 
z
" id="DejaVuSans-5b"/>
     <path d="M 45.40625 46.390625 
L 45.40625 75.984375 
L 54.390625 75.984375 
L 54.390625 0 
L 45.40625 0 
L 45.40625 8.203125 
Q 42.578125 3.328125 38.25 0.953125 
Q 33.9375 -1.421875 27.875 -1.421875 
Q 17.96875 -1.421875 11.734375 6.484375 
Q 5.515625 14.40625 5.515625 27.296875 
Q 5.515625 40.1875 11.734375 48.09375 
Q 17.96875 56 27.875 56 
Q 33.9375 56 38.25 53.625 
Q 42.578125 51.265625 45.40625 46.390625 
z
M 14.796875 27.296875 
Q 14.796875 17.390625 18.875 11.75 
Q 22.953125 6.109375 30.078125 6.109375 
Q 37.203125 6.109375 41.296875 11.75 
Q 45.40625 17.390625 45.40625 27.296875 
Q 45.40625 37.203125 41.296875 42.84375 
Q 37.203125 48.484375 30.078125 48.484375 
Q 22.953125 48.484375 18.875 42.84375 
Q 14.796875 37.203125 14.796875 27.296875 
z
" id="DejaVuSans-64"/>
     <path d="M 4.890625 31.390625 
L 31.203125 31.390625 
L 31.203125 23.390625 
L 4.890625 23.390625 
z
" id="DejaVuSans-2d"/>
     <path d="M 52 44.1875 
Q 55.375 50.25 60.0625 53.125 
Q 64.75 56 71.09375 56 
Q 79.640625 56 84.28125 50.015625 
Q 88.921875 44.046875 88.921875 33.015625 
L 88.921875 0 
L 79.890625 0 
L 79.890625 32.71875 
Q 79.890625 40.578125 77.09375 44.375 
Q 74.3125 48.1875 68.609375 48.1875 
Q 61.625 48.1875 57.5625 43.546875 
Q 53.515625 38.921875 53.515625 30.90625 
L 53.515625 0 
L 44.484375 0 
L 44.484375 32.71875 
Q 44.484375 40.625 41.703125 44.40625 
Q 38.921875 48.1875 33.109375 48.1875 
Q 26.21875 48.1875 22.15625 43.53125 
Q 18.109375 38.875 18.109375 30.90625 
L 18.109375 0 
L 9.078125 0 
L 9.078125 54.6875 
L 18.109375 54.6875 
L 18.109375 46.1875 
Q 21.1875 51.21875 25.484375 53.609375 
Q 29.78125 56 35.6875 56 
Q 41.65625 56 45.828125 52.96875 
Q 50 49.953125 52 44.1875 
z
" id="DejaVuSans-6d"/>
     <path d="M 30.421875 75.984375 
L 30.421875 -13.1875 
L 9.71875 -13.1875 
L 9.71875 -6.203125 
L 21.390625 -6.203125 
L 21.390625 69 
L 9.71875 69 
L 9.71875 75.984375 
z
" id="DejaVuSans-5d"/>
    </defs>
    <g transform="translate(131.563438 16.318125)scale(0.12 -0.12)">
     <use xlink:href="#DejaVuSans-44"/>
     <use x="77.001953" xlink:href="#DejaVuSans-69"/>
     <use x="104.785156" xlink:href="#DejaVuSans-73"/>
     <use x="156.884766" xlink:href="#DejaVuSans-74"/>
     <use x="196.09375" xlink:href="#DejaVuSans-72"/>
     <use x="237.207031" xlink:href="#DejaVuSans-69"/>
     <use x="264.990234" xlink:href="#DejaVuSans-62"/>
     <use x="328.466797" xlink:href="#DejaVuSans-75"/>
     <use x="391.845703" xlink:href="#DejaVuSans-74"/>
     <use x="431.054688" xlink:href="#DejaVuSans-69"/>
     <use x="458.837891" xlink:href="#DejaVuSans-6f"/>
     <use x="520.019531" xlink:href="#DejaVuSans-6e"/>
     <use x="583.398438" xlink:href="#DejaVuSans-20"/>
     <use x="615.185547" xlink:href="#DejaVuSans-42"/>
     <use x="683.789062" xlink:href="#DejaVuSans-65"/>
     <use x="745.3125" xlink:href="#DejaVuSans-74"/>
     <use x="784.521484" xlink:href="#DejaVuSans-77"/>
     <use x="866.308594" xlink:href="#DejaVuSans-65"/>
     <use x="927.832031" xlink:href="#DejaVuSans-65"/>
     <use x="989.355469" xlink:href="#DejaVuSans-6e"/>
     <use x="1052.734375" xlink:href="#DejaVuSans-20"/>
     <use x="1084.521484" xlink:href="#DejaVuSans-50"/>
     <use x="1144.761719" xlink:href="#DejaVuSans-61"/>
     <use x="1206.041016" xlink:href="#DejaVuSans-69"/>
     <use x="1233.824219" xlink:href="#DejaVuSans-72"/>
     <use x="1274.9375" xlink:href="#DejaVuSans-73"/>
     <use x="1327.037109" xlink:href="#DejaVuSans-20"/>
     <use x="1358.824219" xlink:href="#DejaVuSans-5b"/>
     <use x="1397.837891" xlink:href="#DejaVuSans-64"/>
     <use x="1461.314453" xlink:href="#DejaVuSans-2d"/>
     <use x="1497.398438" xlink:href="#DejaVuSans-64"/>
     <use x="1560.875" xlink:href="#DejaVuSans-69"/>
     <use x="1588.658203" xlink:href="#DejaVuSans-6d"/>
     <use x="1686.070312" xlink:href="#DejaVuSans-5d"/>
    </g>
   </g>
  </g>
  <g id="text_21">
   <g id="patch_17">
    <path d="M 165.809375 369.50175 
L 292.803125 369.50175 
Q 298.803125 369.50175 298.803125 363.50175 
L 298.803125 338.450625 
Q 298.803125 332.450625 292.803125 332.450625 
L 165.809375 332.450625 
Q 159.809375 332.450625 159.809375 338.450625 
L 159.809375 363.50175 
Q 159.809375 369.50175 165.809375 369.50175 
z
" style="fill:#ffffff;stroke:#808080;stroke-linejoin:miter;"/>
   </g>
   <!-- Dimension: 900 -->
   <defs>
    <path d="M 11.71875 12.40625 
L 22.015625 12.40625 
L 22.015625 0 
L 11.71875 0 
z
M 11.71875 51.703125 
L 22.015625 51.703125 
L 22.015625 39.3125 
L 11.71875 39.3125 
z
" id="DejaVuSans-3a"/>
    <path d="M 10.984375 1.515625 
L 10.984375 10.5 
Q 14.703125 8.734375 18.5 7.8125 
Q 22.3125 6.890625 25.984375 6.890625 
Q 35.75 6.890625 40.890625 13.453125 
Q 46.046875 20.015625 46.78125 33.40625 
Q 43.953125 29.203125 39.59375 26.953125 
Q 35.25 24.703125 29.984375 24.703125 
Q 19.046875 24.703125 12.671875 31.3125 
Q 6.296875 37.9375 6.296875 49.421875 
Q 6.296875 60.640625 12.9375 67.421875 
Q 19.578125 74.21875 30.609375 74.21875 
Q 43.265625 74.21875 49.921875 64.515625 
Q 56.59375 54.828125 56.59375 36.375 
Q 56.59375 19.140625 48.40625 8.859375 
Q 40.234375 -1.421875 26.421875 -1.421875 
Q 22.703125 -1.421875 18.890625 -0.6875 
Q 15.09375 0.046875 10.984375 1.515625 
z
M 30.609375 32.421875 
Q 37.25 32.421875 41.125 36.953125 
Q 45.015625 41.5 45.015625 49.421875 
Q 45.015625 57.28125 41.125 61.84375 
Q 37.25 66.40625 30.609375 66.40625 
Q 23.96875 66.40625 20.09375 61.84375 
Q 16.21875 57.28125 16.21875 49.421875 
Q 16.21875 41.5 20.09375 36.953125 
Q 23.96875 32.421875 30.609375 32.421875 
z
" id="DejaVuSans-39"/>
   </defs>
   <g transform="translate(165.809375 347.56875)scale(0.12 -0.12)">
    <use xlink:href="#DejaVuSans-44"/>
    <use x="77.001953" xlink:href="#DejaVuSans-69"/>
    <use x="104.785156" xlink:href="#DejaVuSans-6d"/>
    <use x="202.197266" xlink:href="#DejaVuSans-65"/>
    <use x="263.720703" xlink:href="#DejaVuSans-6e"/>
    <use x="327.099609" xlink:href="#DejaVuSans-73"/>
    <use x="379.199219" xlink:href="#DejaVuSans-69"/>
    <use x="406.982422" xlink:href="#DejaVuSans-6f"/>
    <use x="468.164062" xlink:href="#DejaVuSans-6e"/>
    <use x="531.542969" xlink:href="#DejaVuSans-3a"/>
    <use x="565.234375" xlink:href="#DejaVuSans-20"/>
    <use x="597.021484" xlink:href="#DejaVuSans-39"/>
    <use x="660.644531" xlink:href="#DejaVuSans-30"/>
    <use x="724.267578" xlink:href="#DejaVuSans-30"/>
   </g>
   <!-- Number of Points: 20 -->
   <defs>
    <path d="M 9.8125 72.90625 
L 23.09375 72.90625 
L 55.421875 11.921875 
L 55.421875 72.90625 
L 64.984375 72.90625 
L 64.984375 0 
L 51.703125 0 
L 19.390625 60.984375 
L 19.390625 0 
L 9.8125 0 
z
" id="DejaVuSans-4e"/>
    <path d="M 37.109375 75.984375 
L 37.109375 68.5 
L 28.515625 68.5 
Q 23.6875 68.5 21.796875 66.546875 
Q 19.921875 64.59375 19.921875 59.515625 
L 19.921875 54.6875 
L 34.71875 54.6875 
L 34.71875 47.703125 
L 19.921875 47.703125 
L 19.921875 0 
L 10.890625 0 
L 10.890625 47.703125 
L 2.296875 47.703125 
L 2.296875 54.6875 
L 10.890625 54.6875 
L 10.890625 58.5 
Q 10.890625 67.625 15.140625 71.796875 
Q 19.390625 75.984375 28.609375 75.984375 
z
" id="DejaVuSans-66"/>
   </defs>
   <g transform="translate(165.809375 361.006125)scale(0.12 -0.12)">
    <use xlink:href="#DejaVuSans-4e"/>
    <use x="74.804688" xlink:href="#DejaVuSans-75"/>
    <use x="138.183594" xlink:href="#DejaVuSans-6d"/>
    <use x="235.595703" xlink:href="#DejaVuSans-62"/>
    <use x="299.072266" xlink:href="#DejaVuSans-65"/>
    <use x="360.595703" xlink:href="#DejaVuSans-72"/>
    <use x="401.708984" xlink:href="#DejaVuSans-20"/>
    <use x="433.496094" xlink:href="#DejaVuSans-6f"/>
    <use x="494.677734" xlink:href="#DejaVuSans-66"/>
    <use x="529.882812" xlink:href="#DejaVuSans-20"/>
    <use x="561.669922" xlink:href="#DejaVuSans-50"/>
    <use x="621.925781" xlink:href="#DejaVuSans-6f"/>
    <use x="683.107422" xlink:href="#DejaVuSans-69"/>
    <use x="710.890625" xlink:href="#DejaVuSans-6e"/>
    <use x="774.269531" xlink:href="#DejaVuSans-74"/>
    <use x="813.478516" xlink:href="#DejaVuSans-73"/>
    <use x="865.578125" xlink:href="#DejaVuSans-3a"/>
    <use x="899.269531" xlink:href="#DejaVuSans-20"/>
    <use x="931.056641" xlink:href="#DejaVuSans-32"/>
    <use x="994.679688" xlink:href="#DejaVuSans-30"/>
   </g>
  </g>
 </g>
 <defs>
  <clipPath id="pa191d6b848">
   <rect height="266.112" width="357.12" x="56.50625" y="22.318125"/>
  </clipPath>
 </defs>
</svg>
