<?xml version="1.0" encoding="utf-8" standalone="no"?>
<!DOCTYPE svg PUBLIC "-//W3C//DTD SVG 1.1//EN"
  "http://www.w3.org/Graphics/SVG/1.1/DTD/svg11.dtd">
<!-- Created with matplotlib (http://matplotlib.org/) -->
<svg height="387pt" version="1.1" viewBox="0 0 430 387" width="430pt" xmlns="http://www.w3.org/2000/svg" xmlns:xlink="http://www.w3.org/1999/xlink">
 <defs>
  <style type="text/css">
*{stroke-linecap:butt;stroke-linejoin:round;}
  </style>
 </defs>
 <g id="figure_1">
  <g id="patch_1">
   <path d="M 0 387.98175 
L 430.68875 387.98175 
L 430.68875 0 
L 0 0 
z
" style="fill:#ffffff;"/>
  </g>
  <g id="axes_1">
   <g id="patch_2">
    <path d="M 62.86875 288.430125 
L 419.98875 288.430125 
L 419.98875 22.318125 
L 62.86875 22.318125 
z
" style="fill:#ffffff;"/>
   </g>
   <g id="patch_3">
    <path clip-path="url(#p8da1fd8d96)" d="M 79.101477 288.430125 
L 111.566932 288.430125 
L 111.566932 238.978418 
L 79.101477 238.978418 
z
" style="fill:#ff7f0e;"/>
   </g>
   <g id="patch_4">
    <path clip-path="url(#p8da1fd8d96)" d="M 111.566932 288.430125 
L 144.032386 288.430125 
L 144.032386 164.800857 
L 111.566932 164.800857 
z
" style="fill:#ff7f0e;"/>
   </g>
   <g id="patch_5">
    <path clip-path="url(#p8da1fd8d96)" d="M 144.032386 288.430125 
L 176.497841 288.430125 
L 176.497841 34.990125 
L 144.032386 34.990125 
z
" style="fill:#ff7f0e;"/>
   </g>
   <g id="patch_6">
    <path clip-path="url(#p8da1fd8d96)" d="M 176.497841 288.430125 
L 208.963295 288.430125 
L 208.963295 78.260369 
L 176.497841 78.260369 
z
" style="fill:#ff7f0e;"/>
   </g>
   <g id="patch_7">
    <path clip-path="url(#p8da1fd8d96)" d="M 208.963295 288.430125 
L 241.42875 288.430125 
L 241.42875 65.897442 
L 208.963295 65.897442 
z
" style="fill:#ff7f0e;"/>
   </g>
   <g id="patch_8">
    <path clip-path="url(#p8da1fd8d96)" d="M 241.42875 288.430125 
L 273.894205 288.430125 
L 273.894205 164.800857 
L 241.42875 164.800857 
z
" style="fill:#ff7f0e;"/>
   </g>
   <g id="patch_9">
    <path clip-path="url(#p8da1fd8d96)" d="M 273.894205 288.430125 
L 306.359659 288.430125 
L 306.359659 214.252564 
L 273.894205 214.252564 
z
" style="fill:#ff7f0e;"/>
   </g>
   <g id="patch_10">
    <path clip-path="url(#p8da1fd8d96)" d="M 306.359659 288.430125 
L 338.825114 288.430125 
L 338.825114 201.889637 
L 306.359659 201.889637 
z
" style="fill:#ff7f0e;"/>
   </g>
   <g id="patch_11">
    <path clip-path="url(#p8da1fd8d96)" d="M 338.825114 288.430125 
L 371.290568 288.430125 
L 371.290568 269.885735 
L 338.825114 269.885735 
z
" style="fill:#ff7f0e;"/>
   </g>
   <g id="patch_12">
    <path clip-path="url(#p8da1fd8d96)" d="M 371.290568 288.430125 
L 403.756023 288.430125 
L 403.756023 276.067198 
L 371.290568 276.067198 
z
" style="fill:#ff7f0e;"/>
   </g>
   <g id="matplotlib.axis_1">
    <g id="xtick_1">
     <g id="line2d_1">
      <defs>
       <path d="M 0 0 
L 0 3.5 
" id="m78ee639a3b" style="stroke:#000000;stroke-width:0.8;"/>
      </defs>
      <g>
       <use style="stroke:#000000;stroke-width:0.8;" x="100.954283" xlink:href="#m78ee639a3b" y="288.430125"/>
      </g>
     </g>
     <g id="text_1">
      <!-- 500 -->
      <defs>
       <path d="M 10.796875 72.90625 
L 49.515625 72.90625 
L 49.515625 64.59375 
L 19.828125 64.59375 
L 19.828125 46.734375 
Q 21.96875 47.46875 24.109375 47.828125 
Q 26.265625 48.1875 28.421875 48.1875 
Q 40.625 48.1875 47.75 41.5 
Q 54.890625 34.8125 54.890625 23.390625 
Q 54.890625 11.625 47.5625 5.09375 
Q 40.234375 -1.421875 26.90625 -1.421875 
Q 22.3125 -1.421875 17.546875 -0.640625 
Q 12.796875 0.140625 7.71875 1.703125 
L 7.71875 11.625 
Q 12.109375 9.234375 16.796875 8.0625 
Q 21.484375 6.890625 26.703125 6.890625 
Q 35.15625 6.890625 40.078125 11.328125 
Q 45.015625 15.765625 45.015625 23.390625 
Q 45.015625 31 40.078125 35.4375 
Q 35.15625 39.890625 26.703125 39.890625 
Q 22.75 39.890625 18.8125 39.015625 
Q 14.890625 38.140625 10.796875 36.28125 
z
" id="DejaVuSans-35"/>
       <path d="M 31.78125 66.40625 
Q 24.171875 66.40625 20.328125 58.90625 
Q 16.5 51.421875 16.5 36.375 
Q 16.5 21.390625 20.328125 13.890625 
Q 24.171875 6.390625 31.78125 6.390625 
Q 39.453125 6.390625 43.28125 13.890625 
Q 47.125 21.390625 47.125 36.375 
Q 47.125 51.421875 43.28125 58.90625 
Q 39.453125 66.40625 31.78125 66.40625 
z
M 31.78125 74.21875 
Q 44.046875 74.21875 50.515625 64.515625 
Q 56.984375 54.828125 56.984375 36.375 
Q 56.984375 17.96875 50.515625 8.265625 
Q 44.046875 -1.421875 31.78125 -1.421875 
Q 19.53125 -1.421875 13.0625 8.265625 
Q 6.59375 17.96875 6.59375 36.375 
Q 6.59375 54.828125 13.0625 64.515625 
Q 19.53125 74.21875 31.78125 74.21875 
z
" id="DejaVuSans-30"/>
      </defs>
      <g transform="translate(91.410533 303.028562)scale(0.1 -0.1)">
       <use xlink:href="#DejaVuSans-35"/>
       <use x="63.623047" xlink:href="#DejaVuSans-30"/>
       <use x="127.246094" xlink:href="#DejaVuSans-30"/>
      </g>
     </g>
    </g>
    <g id="xtick_2">
     <g id="line2d_2">
      <g>
       <use style="stroke:#000000;stroke-width:0.8;" x="147.679753" xlink:href="#m78ee639a3b" y="288.430125"/>
      </g>
     </g>
     <g id="text_2">
      <!-- 1000 -->
      <defs>
       <path d="M 12.40625 8.296875 
L 28.515625 8.296875 
L 28.515625 63.921875 
L 10.984375 60.40625 
L 10.984375 69.390625 
L 28.421875 72.90625 
L 38.28125 72.90625 
L 38.28125 8.296875 
L 54.390625 8.296875 
L 54.390625 0 
L 12.40625 0 
z
" id="DejaVuSans-31"/>
      </defs>
      <g transform="translate(134.954753 303.028562)scale(0.1 -0.1)">
       <use xlink:href="#DejaVuSans-31"/>
       <use x="63.623047" xlink:href="#DejaVuSans-30"/>
       <use x="127.246094" xlink:href="#DejaVuSans-30"/>
       <use x="190.869141" xlink:href="#DejaVuSans-30"/>
      </g>
     </g>
    </g>
    <g id="xtick_3">
     <g id="line2d_3">
      <g>
       <use style="stroke:#000000;stroke-width:0.8;" x="194.405223" xlink:href="#m78ee639a3b" y="288.430125"/>
      </g>
     </g>
     <g id="text_3">
      <!-- 1500 -->
      <g transform="translate(181.680223 303.028562)scale(0.1 -0.1)">
       <use xlink:href="#DejaVuSans-31"/>
       <use x="63.623047" xlink:href="#DejaVuSans-35"/>
       <use x="127.246094" xlink:href="#DejaVuSans-30"/>
       <use x="190.869141" xlink:href="#DejaVuSans-30"/>
      </g>
     </g>
    </g>
    <g id="xtick_4">
     <g id="line2d_4">
      <g>
       <use style="stroke:#000000;stroke-width:0.8;" x="241.130693" xlink:href="#m78ee639a3b" y="288.430125"/>
      </g>
     </g>
     <g id="text_4">
      <!-- 2000 -->
      <defs>
       <path d="M 19.1875 8.296875 
L 53.609375 8.296875 
L 53.609375 0 
L 7.328125 0 
L 7.328125 8.296875 
Q 12.9375 14.109375 22.625 23.890625 
Q 32.328125 33.6875 34.8125 36.53125 
Q 39.546875 41.84375 41.421875 45.53125 
Q 43.3125 49.21875 43.3125 52.78125 
Q 43.3125 58.59375 39.234375 62.25 
Q 35.15625 65.921875 28.609375 65.921875 
Q 23.96875 65.921875 18.8125 64.3125 
Q 13.671875 62.703125 7.8125 59.421875 
L 7.8125 69.390625 
Q 13.765625 71.78125 18.9375 73 
Q 24.125 74.21875 28.421875 74.21875 
Q 39.75 74.21875 46.484375 68.546875 
Q 53.21875 62.890625 53.21875 53.421875 
Q 53.21875 48.921875 51.53125 44.890625 
Q 49.859375 40.875 45.40625 35.40625 
Q 44.1875 33.984375 37.640625 27.21875 
Q 31.109375 20.453125 19.1875 8.296875 
z
" id="DejaVuSans-32"/>
      </defs>
      <g transform="translate(228.405693 303.028562)scale(0.1 -0.1)">
       <use xlink:href="#DejaVuSans-32"/>
       <use x="63.623047" xlink:href="#DejaVuSans-30"/>
       <use x="127.246094" xlink:href="#DejaVuSans-30"/>
       <use x="190.869141" xlink:href="#DejaVuSans-30"/>
      </g>
     </g>
    </g>
    <g id="xtick_5">
     <g id="line2d_5">
      <g>
       <use style="stroke:#000000;stroke-width:0.8;" x="287.856162" xlink:href="#m78ee639a3b" y="288.430125"/>
      </g>
     </g>
     <g id="text_5">
      <!-- 2500 -->
      <g transform="translate(275.131162 303.028562)scale(0.1 -0.1)">
       <use xlink:href="#DejaVuSans-32"/>
       <use x="63.623047" xlink:href="#DejaVuSans-35"/>
       <use x="127.246094" xlink:href="#DejaVuSans-30"/>
       <use x="190.869141" xlink:href="#DejaVuSans-30"/>
      </g>
     </g>
    </g>
    <g id="xtick_6">
     <g id="line2d_6">
      <g>
       <use style="stroke:#000000;stroke-width:0.8;" x="334.581632" xlink:href="#m78ee639a3b" y="288.430125"/>
      </g>
     </g>
     <g id="text_6">
      <!-- 3000 -->
      <defs>
       <path d="M 40.578125 39.3125 
Q 47.65625 37.796875 51.625 33 
Q 55.609375 28.21875 55.609375 21.1875 
Q 55.609375 10.40625 48.1875 4.484375 
Q 40.765625 -1.421875 27.09375 -1.421875 
Q 22.515625 -1.421875 17.65625 -0.515625 
Q 12.796875 0.390625 7.625 2.203125 
L 7.625 11.71875 
Q 11.71875 9.328125 16.59375 8.109375 
Q 21.484375 6.890625 26.8125 6.890625 
Q 36.078125 6.890625 40.9375 10.546875 
Q 45.796875 14.203125 45.796875 21.1875 
Q 45.796875 27.640625 41.28125 31.265625 
Q 36.765625 34.90625 28.71875 34.90625 
L 20.21875 34.90625 
L 20.21875 43.015625 
L 29.109375 43.015625 
Q 36.375 43.015625 40.234375 45.921875 
Q 44.09375 48.828125 44.09375 54.296875 
Q 44.09375 59.90625 40.109375 62.90625 
Q 36.140625 65.921875 28.71875 65.921875 
Q 24.65625 65.921875 20.015625 65.03125 
Q 15.375 64.15625 9.8125 62.3125 
L 9.8125 71.09375 
Q 15.4375 72.65625 20.34375 73.4375 
Q 25.25 74.21875 29.59375 74.21875 
Q 40.828125 74.21875 47.359375 69.109375 
Q 53.90625 64.015625 53.90625 55.328125 
Q 53.90625 49.265625 50.4375 45.09375 
Q 46.96875 40.921875 40.578125 39.3125 
z
" id="DejaVuSans-33"/>
      </defs>
      <g transform="translate(321.856632 303.028562)scale(0.1 -0.1)">
       <use xlink:href="#DejaVuSans-33"/>
       <use x="63.623047" xlink:href="#DejaVuSans-30"/>
       <use x="127.246094" xlink:href="#DejaVuSans-30"/>
       <use x="190.869141" xlink:href="#DejaVuSans-30"/>
      </g>
     </g>
    </g>
    <g id="xtick_7">
     <g id="line2d_7">
      <g>
       <use style="stroke:#000000;stroke-width:0.8;" x="381.307102" xlink:href="#m78ee639a3b" y="288.430125"/>
      </g>
     </g>
     <g id="text_7">
      <!-- 3500 -->
      <g transform="translate(368.582102 303.028562)scale(0.1 -0.1)">
       <use xlink:href="#DejaVuSans-33"/>
       <use x="63.623047" xlink:href="#DejaVuSans-35"/>
       <use x="127.246094" xlink:href="#DejaVuSans-30"/>
       <use x="190.869141" xlink:href="#DejaVuSans-30"/>
      </g>
     </g>
    </g>
    <g id="text_8">
     <!-- Distance -->
     <defs>
      <path d="M 19.671875 64.796875 
L 19.671875 8.109375 
L 31.59375 8.109375 
Q 46.6875 8.109375 53.6875 14.9375 
Q 60.6875 21.78125 60.6875 36.53125 
Q 60.6875 51.171875 53.6875 57.984375 
Q 46.6875 64.796875 31.59375 64.796875 
z
M 9.8125 72.90625 
L 30.078125 72.90625 
Q 51.265625 72.90625 61.171875 64.09375 
Q 71.09375 55.28125 71.09375 36.53125 
Q 71.09375 17.671875 61.125 8.828125 
Q 51.171875 0 30.078125 0 
L 9.8125 0 
z
" id="DejaVuSans-44"/>
      <path d="M 9.421875 54.6875 
L 18.40625 54.6875 
L 18.40625 0 
L 9.421875 0 
z
M 9.421875 75.984375 
L 18.40625 75.984375 
L 18.40625 64.59375 
L 9.421875 64.59375 
z
" id="DejaVuSans-69"/>
      <path d="M 44.28125 53.078125 
L 44.28125 44.578125 
Q 40.484375 46.53125 36.375 47.5 
Q 32.28125 48.484375 27.875 48.484375 
Q 21.1875 48.484375 17.84375 46.4375 
Q 14.5 44.390625 14.5 40.28125 
Q 14.5 37.15625 16.890625 35.375 
Q 19.28125 33.59375 26.515625 31.984375 
L 29.59375 31.296875 
Q 39.15625 29.25 43.1875 25.515625 
Q 47.21875 21.78125 47.21875 15.09375 
Q 47.21875 7.46875 41.1875 3.015625 
Q 35.15625 -1.421875 24.609375 -1.421875 
Q 20.21875 -1.421875 15.453125 -0.5625 
Q 10.6875 0.296875 5.421875 2 
L 5.421875 11.28125 
Q 10.40625 8.6875 15.234375 7.390625 
Q 20.0625 6.109375 24.8125 6.109375 
Q 31.15625 6.109375 34.5625 8.28125 
Q 37.984375 10.453125 37.984375 14.40625 
Q 37.984375 18.0625 35.515625 20.015625 
Q 33.0625 21.96875 24.703125 23.78125 
L 21.578125 24.515625 
Q 13.234375 26.265625 9.515625 29.90625 
Q 5.8125 33.546875 5.8125 39.890625 
Q 5.8125 47.609375 11.28125 51.796875 
Q 16.75 56 26.8125 56 
Q 31.78125 56 36.171875 55.265625 
Q 40.578125 54.546875 44.28125 53.078125 
z
" id="DejaVuSans-73"/>
      <path d="M 18.3125 70.21875 
L 18.3125 54.6875 
L 36.8125 54.6875 
L 36.8125 47.703125 
L 18.3125 47.703125 
L 18.3125 18.015625 
Q 18.3125 11.328125 20.140625 9.421875 
Q 21.96875 7.515625 27.59375 7.515625 
L 36.8125 7.515625 
L 36.8125 0 
L 27.59375 0 
Q 17.1875 0 13.234375 3.875 
Q 9.28125 7.765625 9.28125 18.015625 
L 9.28125 47.703125 
L 2.6875 47.703125 
L 2.6875 54.6875 
L 9.28125 54.6875 
L 9.28125 70.21875 
z
" id="DejaVuSans-74"/>
      <path d="M 34.28125 27.484375 
Q 23.390625 27.484375 19.1875 25 
Q 14.984375 22.515625 14.984375 16.5 
Q 14.984375 11.71875 18.140625 8.90625 
Q 21.296875 6.109375 26.703125 6.109375 
Q 34.1875 6.109375 38.703125 11.40625 
Q 43.21875 16.703125 43.21875 25.484375 
L 43.21875 27.484375 
z
M 52.203125 31.203125 
L 52.203125 0 
L 43.21875 0 
L 43.21875 8.296875 
Q 40.140625 3.328125 35.546875 0.953125 
Q 30.953125 -1.421875 24.3125 -1.421875 
Q 15.921875 -1.421875 10.953125 3.296875 
Q 6 8.015625 6 15.921875 
Q 6 25.140625 12.171875 29.828125 
Q 18.359375 34.515625 30.609375 34.515625 
L 43.21875 34.515625 
L 43.21875 35.40625 
Q 43.21875 41.609375 39.140625 45 
Q 35.0625 48.390625 27.6875 48.390625 
Q 23 48.390625 18.546875 47.265625 
Q 14.109375 46.140625 10.015625 43.890625 
L 10.015625 52.203125 
Q 14.9375 54.109375 19.578125 55.046875 
Q 24.21875 56 28.609375 56 
Q 40.484375 56 46.34375 49.84375 
Q 52.203125 43.703125 52.203125 31.203125 
z
" id="DejaVuSans-61"/>
      <path d="M 54.890625 33.015625 
L 54.890625 0 
L 45.90625 0 
L 45.90625 32.71875 
Q 45.90625 40.484375 42.875 44.328125 
Q 39.84375 48.1875 33.796875 48.1875 
Q 26.515625 48.1875 22.3125 43.546875 
Q 18.109375 38.921875 18.109375 30.90625 
L 18.109375 0 
L 9.078125 0 
L 9.078125 54.6875 
L 18.109375 54.6875 
L 18.109375 46.1875 
Q 21.34375 51.125 25.703125 53.5625 
Q 30.078125 56 35.796875 56 
Q 45.21875 56 50.046875 50.171875 
Q 54.890625 44.34375 54.890625 33.015625 
z
" id="DejaVuSans-6e"/>
      <path d="M 48.78125 52.59375 
L 48.78125 44.1875 
Q 44.96875 46.296875 41.140625 47.34375 
Q 37.3125 48.390625 33.40625 48.390625 
Q 24.65625 48.390625 19.8125 42.84375 
Q 14.984375 37.3125 14.984375 27.296875 
Q 14.984375 17.28125 19.8125 11.734375 
Q 24.65625 6.203125 33.40625 6.203125 
Q 37.3125 6.203125 41.140625 7.25 
Q 44.96875 8.296875 48.78125 10.40625 
L 48.78125 2.09375 
Q 45.015625 0.34375 40.984375 -0.53125 
Q 36.96875 -1.421875 32.421875 -1.421875 
Q 20.0625 -1.421875 12.78125 6.34375 
Q 5.515625 14.109375 5.515625 27.296875 
Q 5.515625 40.671875 12.859375 48.328125 
Q 20.21875 56 33.015625 56 
Q 37.15625 56 41.109375 55.140625 
Q 45.0625 54.296875 48.78125 52.59375 
z
" id="DejaVuSans-63"/>
      <path d="M 56.203125 29.59375 
L 56.203125 25.203125 
L 14.890625 25.203125 
Q 15.484375 15.921875 20.484375 11.0625 
Q 25.484375 6.203125 34.421875 6.203125 
Q 39.59375 6.203125 44.453125 7.46875 
Q 49.3125 8.734375 54.109375 11.28125 
L 54.109375 2.78125 
Q 49.265625 0.734375 44.1875 -0.34375 
Q 39.109375 -1.421875 33.890625 -1.421875 
Q 20.796875 -1.421875 13.15625 6.1875 
Q 5.515625 13.8125 5.515625 26.8125 
Q 5.515625 40.234375 12.765625 48.109375 
Q 20.015625 56 32.328125 56 
Q 43.359375 56 49.78125 48.890625 
Q 56.203125 41.796875 56.203125 29.59375 
z
M 47.21875 32.234375 
Q 47.125 39.59375 43.09375 43.984375 
Q 39.0625 48.390625 32.421875 48.390625 
Q 24.90625 48.390625 20.390625 44.140625 
Q 15.875 39.890625 15.1875 32.171875 
z
" id="DejaVuSans-65"/>
     </defs>
     <g transform="translate(219.56625 316.706687)scale(0.1 -0.1)">
      <use xlink:href="#DejaVuSans-44"/>
      <use x="77.001953" xlink:href="#DejaVuSans-69"/>
      <use x="104.785156" xlink:href="#DejaVuSans-73"/>
      <use x="156.884766" xlink:href="#DejaVuSans-74"/>
      <use x="196.09375" xlink:href="#DejaVuSans-61"/>
      <use x="257.373047" xlink:href="#DejaVuSans-6e"/>
      <use x="320.751953" xlink:href="#DejaVuSans-63"/>
      <use x="375.732422" xlink:href="#DejaVuSans-65"/>
     </g>
    </g>
   </g>
   <g id="matplotlib.axis_2">
    <g id="ytick_1">
     <g id="line2d_8">
      <defs>
       <path d="M 0 0 
L -3.5 0 
" id="m4cbff76988" style="stroke:#000000;stroke-width:0.8;"/>
      </defs>
      <g>
       <use style="stroke:#000000;stroke-width:0.8;" x="62.86875" xlink:href="#m4cbff76988" y="288.430125"/>
      </g>
     </g>
     <g id="text_9">
      <!-- 0.0000 -->
      <defs>
       <path d="M 10.6875 12.40625 
L 21 12.40625 
L 21 0 
L 10.6875 0 
z
" id="DejaVuSans-2e"/>
      </defs>
      <g transform="translate(20.878125 292.229344)scale(0.1 -0.1)">
       <use xlink:href="#DejaVuSans-30"/>
       <use x="63.623047" xlink:href="#DejaVuSans-2e"/>
       <use x="95.410156" xlink:href="#DejaVuSans-30"/>
       <use x="159.033203" xlink:href="#DejaVuSans-30"/>
       <use x="222.65625" xlink:href="#DejaVuSans-30"/>
       <use x="286.279297" xlink:href="#DejaVuSans-30"/>
      </g>
     </g>
    </g>
    <g id="ytick_2">
     <g id="line2d_9">
      <g>
       <use style="stroke:#000000;stroke-width:0.8;" x="62.86875" xlink:href="#m4cbff76988" y="247.628006"/>
      </g>
     </g>
     <g id="text_10">
      <!-- 0.0001 -->
      <g transform="translate(20.878125 251.427225)scale(0.1 -0.1)">
       <use xlink:href="#DejaVuSans-30"/>
       <use x="63.623047" xlink:href="#DejaVuSans-2e"/>
       <use x="95.410156" xlink:href="#DejaVuSans-30"/>
       <use x="159.033203" xlink:href="#DejaVuSans-30"/>
       <use x="222.65625" xlink:href="#DejaVuSans-30"/>
       <use x="286.279297" xlink:href="#DejaVuSans-31"/>
      </g>
     </g>
    </g>
    <g id="ytick_3">
     <g id="line2d_10">
      <g>
       <use style="stroke:#000000;stroke-width:0.8;" x="62.86875" xlink:href="#m4cbff76988" y="206.825887"/>
      </g>
     </g>
     <g id="text_11">
      <!-- 0.0002 -->
      <g transform="translate(20.878125 210.625106)scale(0.1 -0.1)">
       <use xlink:href="#DejaVuSans-30"/>
       <use x="63.623047" xlink:href="#DejaVuSans-2e"/>
       <use x="95.410156" xlink:href="#DejaVuSans-30"/>
       <use x="159.033203" xlink:href="#DejaVuSans-30"/>
       <use x="222.65625" xlink:href="#DejaVuSans-30"/>
       <use x="286.279297" xlink:href="#DejaVuSans-32"/>
      </g>
     </g>
    </g>
    <g id="ytick_4">
     <g id="line2d_11">
      <g>
       <use style="stroke:#000000;stroke-width:0.8;" x="62.86875" xlink:href="#m4cbff76988" y="166.023768"/>
      </g>
     </g>
     <g id="text_12">
      <!-- 0.0003 -->
      <g transform="translate(20.878125 169.822987)scale(0.1 -0.1)">
       <use xlink:href="#DejaVuSans-30"/>
       <use x="63.623047" xlink:href="#DejaVuSans-2e"/>
       <use x="95.410156" xlink:href="#DejaVuSans-30"/>
       <use x="159.033203" xlink:href="#DejaVuSans-30"/>
       <use x="222.65625" xlink:href="#DejaVuSans-30"/>
       <use x="286.279297" xlink:href="#DejaVuSans-33"/>
      </g>
     </g>
    </g>
    <g id="ytick_5">
     <g id="line2d_12">
      <g>
       <use style="stroke:#000000;stroke-width:0.8;" x="62.86875" xlink:href="#m4cbff76988" y="125.221649"/>
      </g>
     </g>
     <g id="text_13">
      <!-- 0.0004 -->
      <defs>
       <path d="M 37.796875 64.3125 
L 12.890625 25.390625 
L 37.796875 25.390625 
z
M 35.203125 72.90625 
L 47.609375 72.90625 
L 47.609375 25.390625 
L 58.015625 25.390625 
L 58.015625 17.1875 
L 47.609375 17.1875 
L 47.609375 0 
L 37.796875 0 
L 37.796875 17.1875 
L 4.890625 17.1875 
L 4.890625 26.703125 
z
" id="DejaVuSans-34"/>
      </defs>
      <g transform="translate(20.878125 129.020868)scale(0.1 -0.1)">
       <use xlink:href="#DejaVuSans-30"/>
       <use x="63.623047" xlink:href="#DejaVuSans-2e"/>
       <use x="95.410156" xlink:href="#DejaVuSans-30"/>
       <use x="159.033203" xlink:href="#DejaVuSans-30"/>
       <use x="222.65625" xlink:href="#DejaVuSans-30"/>
       <use x="286.279297" xlink:href="#DejaVuSans-34"/>
      </g>
     </g>
    </g>
    <g id="ytick_6">
     <g id="line2d_13">
      <g>
       <use style="stroke:#000000;stroke-width:0.8;" x="62.86875" xlink:href="#m4cbff76988" y="84.41953"/>
      </g>
     </g>
     <g id="text_14">
      <!-- 0.0005 -->
      <g transform="translate(20.878125 88.218749)scale(0.1 -0.1)">
       <use xlink:href="#DejaVuSans-30"/>
       <use x="63.623047" xlink:href="#DejaVuSans-2e"/>
       <use x="95.410156" xlink:href="#DejaVuSans-30"/>
       <use x="159.033203" xlink:href="#DejaVuSans-30"/>
       <use x="222.65625" xlink:href="#DejaVuSans-30"/>
       <use x="286.279297" xlink:href="#DejaVuSans-35"/>
      </g>
     </g>
    </g>
    <g id="ytick_7">
     <g id="line2d_14">
      <g>
       <use style="stroke:#000000;stroke-width:0.8;" x="62.86875" xlink:href="#m4cbff76988" y="43.617411"/>
      </g>
     </g>
     <g id="text_15">
      <!-- 0.0006 -->
      <defs>
       <path d="M 33.015625 40.375 
Q 26.375 40.375 22.484375 35.828125 
Q 18.609375 31.296875 18.609375 23.390625 
Q 18.609375 15.53125 22.484375 10.953125 
Q 26.375 6.390625 33.015625 6.390625 
Q 39.65625 6.390625 43.53125 10.953125 
Q 47.40625 15.53125 47.40625 23.390625 
Q 47.40625 31.296875 43.53125 35.828125 
Q 39.65625 40.375 33.015625 40.375 
z
M 52.59375 71.296875 
L 52.59375 62.3125 
Q 48.875 64.0625 45.09375 64.984375 
Q 41.3125 65.921875 37.59375 65.921875 
Q 27.828125 65.921875 22.671875 59.328125 
Q 17.53125 52.734375 16.796875 39.40625 
Q 19.671875 43.65625 24.015625 45.921875 
Q 28.375 48.1875 33.59375 48.1875 
Q 44.578125 48.1875 50.953125 41.515625 
Q 57.328125 34.859375 57.328125 23.390625 
Q 57.328125 12.15625 50.6875 5.359375 
Q 44.046875 -1.421875 33.015625 -1.421875 
Q 20.359375 -1.421875 13.671875 8.265625 
Q 6.984375 17.96875 6.984375 36.375 
Q 6.984375 53.65625 15.1875 63.9375 
Q 23.390625 74.21875 37.203125 74.21875 
Q 40.921875 74.21875 44.703125 73.484375 
Q 48.484375 72.75 52.59375 71.296875 
z
" id="DejaVuSans-36"/>
      </defs>
      <g transform="translate(20.878125 47.41663)scale(0.1 -0.1)">
       <use xlink:href="#DejaVuSans-30"/>
       <use x="63.623047" xlink:href="#DejaVuSans-2e"/>
       <use x="95.410156" xlink:href="#DejaVuSans-30"/>
       <use x="159.033203" xlink:href="#DejaVuSans-30"/>
       <use x="222.65625" xlink:href="#DejaVuSans-30"/>
       <use x="286.279297" xlink:href="#DejaVuSans-36"/>
      </g>
     </g>
    </g>
    <g id="text_16">
     <!-- Probability -->
     <defs>
      <path d="M 19.671875 64.796875 
L 19.671875 37.40625 
L 32.078125 37.40625 
Q 38.96875 37.40625 42.71875 40.96875 
Q 46.484375 44.53125 46.484375 51.125 
Q 46.484375 57.671875 42.71875 61.234375 
Q 38.96875 64.796875 32.078125 64.796875 
z
M 9.8125 72.90625 
L 32.078125 72.90625 
Q 44.34375 72.90625 50.609375 67.359375 
Q 56.890625 61.8125 56.890625 51.125 
Q 56.890625 40.328125 50.609375 34.8125 
Q 44.34375 29.296875 32.078125 29.296875 
L 19.671875 29.296875 
L 19.671875 0 
L 9.8125 0 
z
" id="DejaVuSans-50"/>
      <path d="M 41.109375 46.296875 
Q 39.59375 47.171875 37.8125 47.578125 
Q 36.03125 48 33.890625 48 
Q 26.265625 48 22.1875 43.046875 
Q 18.109375 38.09375 18.109375 28.8125 
L 18.109375 0 
L 9.078125 0 
L 9.078125 54.6875 
L 18.109375 54.6875 
L 18.109375 46.1875 
Q 20.953125 51.171875 25.484375 53.578125 
Q 30.03125 56 36.53125 56 
Q 37.453125 56 38.578125 55.875 
Q 39.703125 55.765625 41.0625 55.515625 
z
" id="DejaVuSans-72"/>
      <path d="M 30.609375 48.390625 
Q 23.390625 48.390625 19.1875 42.75 
Q 14.984375 37.109375 14.984375 27.296875 
Q 14.984375 17.484375 19.15625 11.84375 
Q 23.34375 6.203125 30.609375 6.203125 
Q 37.796875 6.203125 41.984375 11.859375 
Q 46.1875 17.53125 46.1875 27.296875 
Q 46.1875 37.015625 41.984375 42.703125 
Q 37.796875 48.390625 30.609375 48.390625 
z
M 30.609375 56 
Q 42.328125 56 49.015625 48.375 
Q 55.71875 40.765625 55.71875 27.296875 
Q 55.71875 13.875 49.015625 6.21875 
Q 42.328125 -1.421875 30.609375 -1.421875 
Q 18.84375 -1.421875 12.171875 6.21875 
Q 5.515625 13.875 5.515625 27.296875 
Q 5.515625 40.765625 12.171875 48.375 
Q 18.84375 56 30.609375 56 
z
" id="DejaVuSans-6f"/>
      <path d="M 48.6875 27.296875 
Q 48.6875 37.203125 44.609375 42.84375 
Q 40.53125 48.484375 33.40625 48.484375 
Q 26.265625 48.484375 22.1875 42.84375 
Q 18.109375 37.203125 18.109375 27.296875 
Q 18.109375 17.390625 22.1875 11.75 
Q 26.265625 6.109375 33.40625 6.109375 
Q 40.53125 6.109375 44.609375 11.75 
Q 48.6875 17.390625 48.6875 27.296875 
z
M 18.109375 46.390625 
Q 20.953125 51.265625 25.265625 53.625 
Q 29.59375 56 35.59375 56 
Q 45.5625 56 51.78125 48.09375 
Q 58.015625 40.1875 58.015625 27.296875 
Q 58.015625 14.40625 51.78125 6.484375 
Q 45.5625 -1.421875 35.59375 -1.421875 
Q 29.59375 -1.421875 25.265625 0.953125 
Q 20.953125 3.328125 18.109375 8.203125 
L 18.109375 0 
L 9.078125 0 
L 9.078125 75.984375 
L 18.109375 75.984375 
z
" id="DejaVuSans-62"/>
      <path d="M 9.421875 75.984375 
L 18.40625 75.984375 
L 18.40625 0 
L 9.421875 0 
z
" id="DejaVuSans-6c"/>
      <path d="M 32.171875 -5.078125 
Q 28.375 -14.84375 24.75 -17.8125 
Q 21.140625 -20.796875 15.09375 -20.796875 
L 7.90625 -20.796875 
L 7.90625 -13.28125 
L 13.1875 -13.28125 
Q 16.890625 -13.28125 18.9375 -11.515625 
Q 21 -9.765625 23.484375 -3.21875 
L 25.09375 0.875 
L 2.984375 54.6875 
L 12.5 54.6875 
L 29.59375 11.921875 
L 46.6875 54.6875 
L 56.203125 54.6875 
z
" id="DejaVuSans-79"/>
     </defs>
     <g transform="translate(14.798438 182.000687)rotate(-90)scale(0.1 -0.1)">
      <use xlink:href="#DejaVuSans-50"/>
      <use x="60.287109" xlink:href="#DejaVuSans-72"/>
      <use x="101.369141" xlink:href="#DejaVuSans-6f"/>
      <use x="162.550781" xlink:href="#DejaVuSans-62"/>
      <use x="226.027344" xlink:href="#DejaVuSans-61"/>
      <use x="287.306641" xlink:href="#DejaVuSans-62"/>
      <use x="350.783203" xlink:href="#DejaVuSans-69"/>
      <use x="378.566406" xlink:href="#DejaVuSans-6c"/>
      <use x="406.349609" xlink:href="#DejaVuSans-69"/>
      <use x="434.132812" xlink:href="#DejaVuSans-74"/>
      <use x="473.341797" xlink:href="#DejaVuSans-79"/>
     </g>
    </g>
   </g>
   <g id="line2d_15">
    <path clip-path="url(#p8da1fd8d96)" d="M 79.101477 257.568994 
L 83.682954 252.858948 
L 92.983217 241.712682 
L 95.627497 238.142177 
L 99.755073 232.207715 
L 102.568253 227.91091 
L 109.213063 216.962397 
L 115.226908 206.123356 
L 118.583891 199.714278 
L 125.639868 185.496511 
L 132.279339 171.349648 
L 135.818458 163.580471 
L 158.201678 113.801531 
L 163.415769 102.890061 
L 167.325516 95.106387 
L 171.784038 86.751058 
L 173.642487 83.456346 
L 176.250642 79.039387 
L 178.366297 75.646271 
L 183.09071 68.737268 
L 185.645233 65.415045 
L 189.04981 61.47156 
L 192.846488 57.762345 
L 195.541025 55.590567 
L 197.643164 54.170437 
L 200.966083 52.427538 
L 203.699435 51.463236 
L 205.737431 51.023509 
L 207.593529 50.831933 
L 210.724568 50.961251 
L 212.625218 51.316543 
L 215.723052 52.340928 
L 218.673814 53.823988 
L 220.268249 54.828112 
L 223.941828 57.670778 
L 226.349401 59.923539 
L 229.127074 62.891964 
L 232.05963 66.438077 
L 234.995201 70.390734 
L 238.538387 75.664631 
L 241.458624 80.394881 
L 244.831847 86.252478 
L 249.439797 94.85906 
L 253.008754 101.937642 
L 259.209402 114.913057 
L 263.604349 124.493441 
L 286.920252 176.335703 
L 291.201956 185.390194 
L 297.577995 198.286583 
L 300.977871 204.829691 
L 306.930246 215.658302 
L 313.340863 226.360286 
L 317.879661 233.306731 
L 320.819299 237.521984 
L 328.337721 247.29061 
L 330.904198 250.296992 
L 338.483768 258.23778 
L 345.227386 264.188749 
L 379.838882 281.832527 
L 403.756023 286.1672 
L 403.756023 286.1672 
" style="fill:none;stroke:#1f77b4;stroke-linecap:square;stroke-width:1.5;"/>
    <defs>
     <path d="M 0 3 
C 0.795609 3 1.55874 2.683901 2.12132 2.12132 
C 2.683901 1.55874 3 0.795609 3 0 
C 3 -0.795609 2.683901 -1.55874 2.12132 -2.12132 
C 1.55874 -2.683901 0.795609 -3 0 -3 
C -0.795609 -3 -1.55874 -2.683901 -2.12132 -2.12132 
C -2.683901 -1.55874 -3 -0.795609 -3 0 
C -3 0.795609 -2.683901 1.55874 -2.12132 2.12132 
C -1.55874 2.683901 -0.795609 3 0 3 
z
" id="m2a438decdd" style="stroke:#1f77b4;"/>
    </defs>
    <g clip-path="url(#p8da1fd8d96)">
     <use style="fill:#1f77b4;stroke:#1f77b4;" x="79.101477" xlink:href="#m2a438decdd" y="257.568994"/>
     <use style="fill:#1f77b4;stroke:#1f77b4;" x="83.682954" xlink:href="#m2a438decdd" y="252.858948"/>
     <use style="fill:#1f77b4;stroke:#1f77b4;" x="92.983217" xlink:href="#m2a438decdd" y="241.712682"/>
     <use style="fill:#1f77b4;stroke:#1f77b4;" x="95.627497" xlink:href="#m2a438decdd" y="238.142177"/>
     <use style="fill:#1f77b4;stroke:#1f77b4;" x="98.495256" xlink:href="#m2a438decdd" y="234.065755"/>
     <use style="fill:#1f77b4;stroke:#1f77b4;" x="99.755073" xlink:href="#m2a438decdd" y="232.207715"/>
     <use style="fill:#1f77b4;stroke:#1f77b4;" x="102.568253" xlink:href="#m2a438decdd" y="227.91091"/>
     <use style="fill:#1f77b4;stroke:#1f77b4;" x="109.213063" xlink:href="#m2a438decdd" y="216.962397"/>
     <use style="fill:#1f77b4;stroke:#1f77b4;" x="112.113286" xlink:href="#m2a438decdd" y="211.841693"/>
     <use style="fill:#1f77b4;stroke:#1f77b4;" x="114.602433" xlink:href="#m2a438decdd" y="207.288097"/>
     <use style="fill:#1f77b4;stroke:#1f77b4;" x="115.226908" xlink:href="#m2a438decdd" y="206.123356"/>
     <use style="fill:#1f77b4;stroke:#1f77b4;" x="117.266509" xlink:href="#m2a438decdd" y="202.258592"/>
     <use style="fill:#1f77b4;stroke:#1f77b4;" x="117.830525" xlink:href="#m2a438decdd" y="201.173817"/>
     <use style="fill:#1f77b4;stroke:#1f77b4;" x="118.583891" xlink:href="#m2a438decdd" y="199.714278"/>
     <use style="fill:#1f77b4;stroke:#1f77b4;" x="122.818463" xlink:href="#m2a438decdd" y="191.294871"/>
     <use style="fill:#1f77b4;stroke:#1f77b4;" x="123.265066" xlink:href="#m2a438decdd" y="190.386603"/>
     <use style="fill:#1f77b4;stroke:#1f77b4;" x="125.639868" xlink:href="#m2a438decdd" y="185.496511"/>
     <use style="fill:#1f77b4;stroke:#1f77b4;" x="127.819746" xlink:href="#m2a438decdd" y="180.923701"/>
     <use style="fill:#1f77b4;stroke:#1f77b4;" x="130.110206" xlink:href="#m2a438decdd" y="176.040377"/>
     <use style="fill:#1f77b4;stroke:#1f77b4;" x="130.299729" xlink:href="#m2a438decdd" y="175.632977"/>
     <use style="fill:#1f77b4;stroke:#1f77b4;" x="132.2699" xlink:href="#m2a438decdd" y="171.370187"/>
     <use style="fill:#1f77b4;stroke:#1f77b4;" x="132.279339" xlink:href="#m2a438decdd" y="171.349648"/>
     <use style="fill:#1f77b4;stroke:#1f77b4;" x="132.935551" xlink:href="#m2a438decdd" y="169.919202"/>
     <use style="fill:#1f77b4;stroke:#1f77b4;" x="135.298635" xlink:href="#m2a438decdd" y="164.729426"/>
     <use style="fill:#1f77b4;stroke:#1f77b4;" x="135.818458" xlink:href="#m2a438decdd" y="163.580471"/>
     <use style="fill:#1f77b4;stroke:#1f77b4;" x="141.142217" xlink:href="#m2a438decdd" y="151.701194"/>
     <use style="fill:#1f77b4;stroke:#1f77b4;" x="143.412675" xlink:href="#m2a438decdd" y="146.595866"/>
     <use style="fill:#1f77b4;stroke:#1f77b4;" x="144.012781" xlink:href="#m2a438decdd" y="145.245005"/>
     <use style="fill:#1f77b4;stroke:#1f77b4;" x="145.780376" xlink:href="#m2a438decdd" y="141.266028"/>
     <use style="fill:#1f77b4;stroke:#1f77b4;" x="147.836731" xlink:href="#m2a438decdd" y="136.643371"/>
     <use style="fill:#1f77b4;stroke:#1f77b4;" x="147.939484" xlink:href="#m2a438decdd" y="136.412728"/>
     <use style="fill:#1f77b4;stroke:#1f77b4;" x="148.396983" xlink:href="#m2a438decdd" y="135.386327"/>
     <use style="fill:#1f77b4;stroke:#1f77b4;" x="149.8716" xlink:href="#m2a438decdd" y="132.084976"/>
     <use style="fill:#1f77b4;stroke:#1f77b4;" x="150.351705" xlink:href="#m2a438decdd" y="131.012854"/>
     <use style="fill:#1f77b4;stroke:#1f77b4;" x="151.388367" xlink:href="#m2a438decdd" y="128.703391"/>
     <use style="fill:#1f77b4;stroke:#1f77b4;" x="151.926305" xlink:href="#m2a438decdd" y="127.508288"/>
     <use style="fill:#1f77b4;stroke:#1f77b4;" x="153.370494" xlink:href="#m2a438decdd" y="124.31274"/>
     <use style="fill:#1f77b4;stroke:#1f77b4;" x="153.382424" xlink:href="#m2a438decdd" y="124.286428"/>
     <use style="fill:#1f77b4;stroke:#1f77b4;" x="153.997322" xlink:href="#m2a438decdd" y="122.932302"/>
     <use style="fill:#1f77b4;stroke:#1f77b4;" x="154.362585" xlink:href="#m2a438decdd" y="122.129902"/>
     <use style="fill:#1f77b4;stroke:#1f77b4;" x="154.395484" xlink:href="#m2a438decdd" y="122.057705"/>
     <use style="fill:#1f77b4;stroke:#1f77b4;" x="154.432867" xlink:href="#m2a438decdd" y="121.975684"/>
     <use style="fill:#1f77b4;stroke:#1f77b4;" x="154.867654" xlink:href="#m2a438decdd" y="121.022945"/>
     <use style="fill:#1f77b4;stroke:#1f77b4;" x="156.229072" xlink:href="#m2a438decdd" y="118.055124"/>
     <use style="fill:#1f77b4;stroke:#1f77b4;" x="157.068798" xlink:href="#m2a438decdd" y="116.237226"/>
     <use style="fill:#1f77b4;stroke:#1f77b4;" x="157.095837" xlink:href="#m2a438decdd" y="116.178861"/>
     <use style="fill:#1f77b4;stroke:#1f77b4;" x="158.201678" xlink:href="#m2a438decdd" y="113.801531"/>
     <use style="fill:#1f77b4;stroke:#1f77b4;" x="159.880204" xlink:href="#m2a438decdd" y="110.231837"/>
     <use style="fill:#1f77b4;stroke:#1f77b4;" x="160.962476" xlink:href="#m2a438decdd" y="107.95739"/>
     <use style="fill:#1f77b4;stroke:#1f77b4;" x="161.525921" xlink:href="#m2a438decdd" y="106.782368"/>
     <use style="fill:#1f77b4;stroke:#1f77b4;" x="162.659061" xlink:href="#m2a438decdd" y="104.439233"/>
     <use style="fill:#1f77b4;stroke:#1f77b4;" x="163.03855" xlink:href="#m2a438decdd" y="103.660721"/>
     <use style="fill:#1f77b4;stroke:#1f77b4;" x="163.393843" xlink:href="#m2a438decdd" y="102.934769"/>
     <use style="fill:#1f77b4;stroke:#1f77b4;" x="163.415769" xlink:href="#m2a438decdd" y="102.890061"/>
     <use style="fill:#1f77b4;stroke:#1f77b4;" x="164.458282" xlink:href="#m2a438decdd" y="100.777337"/>
     <use style="fill:#1f77b4;stroke:#1f77b4;" x="165.883419" xlink:href="#m2a438decdd" y="97.931978"/>
     <use style="fill:#1f77b4;stroke:#1f77b4;" x="166.261124" xlink:href="#m2a438decdd" y="97.186552"/>
     <use style="fill:#1f77b4;stroke:#1f77b4;" x="167.241863" xlink:href="#m2a438decdd" y="95.268754"/>
     <use style="fill:#1f77b4;stroke:#1f77b4;" x="167.325516" xlink:href="#m2a438decdd" y="95.106387"/>
     <use style="fill:#1f77b4;stroke:#1f77b4;" x="169.000653" xlink:href="#m2a438decdd" y="91.896776"/>
     <use style="fill:#1f77b4;stroke:#1f77b4;" x="170.711281" xlink:href="#m2a438decdd" y="88.705348"/>
     <use style="fill:#1f77b4;stroke:#1f77b4;" x="170.89824" xlink:href="#m2a438decdd" y="88.362081"/>
     <use style="fill:#1f77b4;stroke:#1f77b4;" x="171.058641" xlink:href="#m2a438decdd" y="88.068469"/>
     <use style="fill:#1f77b4;stroke:#1f77b4;" x="171.564099" xlink:href="#m2a438decdd" y="87.148677"/>
     <use style="fill:#1f77b4;stroke:#1f77b4;" x="171.784038" xlink:href="#m2a438decdd" y="86.751058"/>
     <use style="fill:#1f77b4;stroke:#1f77b4;" x="172.307777" xlink:href="#m2a438decdd" y="85.810675"/>
     <use style="fill:#1f77b4;stroke:#1f77b4;" x="173.642487" xlink:href="#m2a438decdd" y="83.456346"/>
     <use style="fill:#1f77b4;stroke:#1f77b4;" x="175.854619" xlink:href="#m2a438decdd" y="79.693829"/>
     <use style="fill:#1f77b4;stroke:#1f77b4;" x="176.250642" xlink:href="#m2a438decdd" y="79.039387"/>
     <use style="fill:#1f77b4;stroke:#1f77b4;" x="178.366297" xlink:href="#m2a438decdd" y="75.646271"/>
     <use style="fill:#1f77b4;stroke:#1f77b4;" x="181.426198" xlink:href="#m2a438decdd" y="71.061654"/>
     <use style="fill:#1f77b4;stroke:#1f77b4;" x="182.723907" xlink:href="#m2a438decdd" y="69.238882"/>
     <use style="fill:#1f77b4;stroke:#1f77b4;" x="183.09071" xlink:href="#m2a438decdd" y="68.737268"/>
     <use style="fill:#1f77b4;stroke:#1f77b4;" x="183.368264" xlink:href="#m2a438decdd" y="68.361744"/>
     <use style="fill:#1f77b4;stroke:#1f77b4;" x="183.850457" xlink:href="#m2a438decdd" y="67.717687"/>
     <use style="fill:#1f77b4;stroke:#1f77b4;" x="185.645233" xlink:href="#m2a438decdd" y="65.415045"/>
     <use style="fill:#1f77b4;stroke:#1f77b4;" x="187.970208" xlink:href="#m2a438decdd" y="62.660414"/>
     <use style="fill:#1f77b4;stroke:#1f77b4;" x="188.735034" xlink:href="#m2a438decdd" y="61.812179"/>
     <use style="fill:#1f77b4;stroke:#1f77b4;" x="189.04981" xlink:href="#m2a438decdd" y="61.47156"/>
     <use style="fill:#1f77b4;stroke:#1f77b4;" x="192.214432" xlink:href="#m2a438decdd" y="58.327873"/>
     <use style="fill:#1f77b4;stroke:#1f77b4;" x="192.846488" xlink:href="#m2a438decdd" y="57.762345"/>
     <use style="fill:#1f77b4;stroke:#1f77b4;" x="193.79083" xlink:href="#m2a438decdd" y="56.956856"/>
     <use style="fill:#1f77b4;stroke:#1f77b4;" x="194.182632" xlink:href="#m2a438decdd" y="56.636643"/>
     <use style="fill:#1f77b4;stroke:#1f77b4;" x="194.760753" xlink:href="#m2a438decdd" y="56.179235"/>
     <use style="fill:#1f77b4;stroke:#1f77b4;" x="195.329619" xlink:href="#m2a438decdd" y="55.746793"/>
     <use style="fill:#1f77b4;stroke:#1f77b4;" x="195.541025" xlink:href="#m2a438decdd" y="55.590567"/>
     <use style="fill:#1f77b4;stroke:#1f77b4;" x="195.848963" xlink:href="#m2a438decdd" y="55.367365"/>
     <use style="fill:#1f77b4;stroke:#1f77b4;" x="197.643164" xlink:href="#m2a438decdd" y="54.170437"/>
     <use style="fill:#1f77b4;stroke:#1f77b4;" x="199.687882" xlink:href="#m2a438decdd" y="53.024443"/>
     <use style="fill:#1f77b4;stroke:#1f77b4;" x="200.413936" xlink:href="#m2a438decdd" y="52.674039"/>
     <use style="fill:#1f77b4;stroke:#1f77b4;" x="200.966083" xlink:href="#m2a438decdd" y="52.427538"/>
     <use style="fill:#1f77b4;stroke:#1f77b4;" x="202.32321" xlink:href="#m2a438decdd" y="51.895354"/>
     <use style="fill:#1f77b4;stroke:#1f77b4;" x="203.124756" xlink:href="#m2a438decdd" y="51.630467"/>
     <use style="fill:#1f77b4;stroke:#1f77b4;" x="203.379622" xlink:href="#m2a438decdd" y="51.55396"/>
     <use style="fill:#1f77b4;stroke:#1f77b4;" x="203.699435" xlink:href="#m2a438decdd" y="51.463236"/>
     <use style="fill:#1f77b4;stroke:#1f77b4;" x="204.63092" xlink:href="#m2a438decdd" y="51.23253"/>
     <use style="fill:#1f77b4;stroke:#1f77b4;" x="205.737431" xlink:href="#m2a438decdd" y="51.023509"/>
     <use style="fill:#1f77b4;stroke:#1f77b4;" x="206.653998" xlink:href="#m2a438decdd" y="50.903971"/>
     <use style="fill:#1f77b4;stroke:#1f77b4;" x="206.697969" xlink:href="#m2a438decdd" y="50.899459"/>
     <use style="fill:#1f77b4;stroke:#1f77b4;" x="207.024509" xlink:href="#m2a438decdd" y="50.869455"/>
     <use style="fill:#1f77b4;stroke:#1f77b4;" x="207.056173" xlink:href="#m2a438decdd" y="50.866874"/>
     <use style="fill:#1f77b4;stroke:#1f77b4;" x="207.452638" xlink:href="#m2a438decdd" y="50.839476"/>
     <use style="fill:#1f77b4;stroke:#1f77b4;" x="207.593529" xlink:href="#m2a438decdd" y="50.831933"/>
     <use style="fill:#1f77b4;stroke:#1f77b4;" x="209.526936" xlink:href="#m2a438decdd" y="50.844685"/>
     <use style="fill:#1f77b4;stroke:#1f77b4;" x="210.724568" xlink:href="#m2a438decdd" y="50.961251"/>
     <use style="fill:#1f77b4;stroke:#1f77b4;" x="211.438666" xlink:href="#m2a438decdd" y="51.070265"/>
     <use style="fill:#1f77b4;stroke:#1f77b4;" x="212.041211" xlink:href="#m2a438decdd" y="51.185175"/>
     <use style="fill:#1f77b4;stroke:#1f77b4;" x="212.455677" xlink:href="#m2a438decdd" y="51.27638"/>
     <use style="fill:#1f77b4;stroke:#1f77b4;" x="212.625218" xlink:href="#m2a438decdd" y="51.316543"/>
     <use style="fill:#1f77b4;stroke:#1f77b4;" x="215.187666" xlink:href="#m2a438decdd" y="52.124655"/>
     <use style="fill:#1f77b4;stroke:#1f77b4;" x="215.723052" xlink:href="#m2a438decdd" y="52.340928"/>
     <use style="fill:#1f77b4;stroke:#1f77b4;" x="217.59898" xlink:href="#m2a438decdd" y="53.227003"/>
     <use style="fill:#1f77b4;stroke:#1f77b4;" x="218.429409" xlink:href="#m2a438decdd" y="53.682561"/>
     <use style="fill:#1f77b4;stroke:#1f77b4;" x="218.454844" xlink:href="#m2a438decdd" y="53.697124"/>
     <use style="fill:#1f77b4;stroke:#1f77b4;" x="218.673814" xlink:href="#m2a438decdd" y="53.823988"/>
     <use style="fill:#1f77b4;stroke:#1f77b4;" x="220.268249" xlink:href="#m2a438decdd" y="54.828112"/>
     <use style="fill:#1f77b4;stroke:#1f77b4;" x="223.838201" xlink:href="#m2a438decdd" y="57.580647"/>
     <use style="fill:#1f77b4;stroke:#1f77b4;" x="223.941828" xlink:href="#m2a438decdd" y="57.670778"/>
     <use style="fill:#1f77b4;stroke:#1f77b4;" x="225.065512" xlink:href="#m2a438decdd" y="58.684521"/>
     <use style="fill:#1f77b4;stroke:#1f77b4;" x="226.349401" xlink:href="#m2a438decdd" y="59.923539"/>
     <use style="fill:#1f77b4;stroke:#1f77b4;" x="227.426779" xlink:href="#m2a438decdd" y="61.028695"/>
     <use style="fill:#1f77b4;stroke:#1f77b4;" x="227.516952" xlink:href="#m2a438decdd" y="61.12387"/>
     <use style="fill:#1f77b4;stroke:#1f77b4;" x="228.193412" xlink:href="#m2a438decdd" y="61.850923"/>
     <use style="fill:#1f77b4;stroke:#1f77b4;" x="229.127074" xlink:href="#m2a438decdd" y="62.891964"/>
     <use style="fill:#1f77b4;stroke:#1f77b4;" x="229.938382" xlink:href="#m2a438decdd" y="63.831492"/>
     <use style="fill:#1f77b4;stroke:#1f77b4;" x="230.078364" xlink:href="#m2a438decdd" y="63.996847"/>
     <use style="fill:#1f77b4;stroke:#1f77b4;" x="230.858872" xlink:href="#m2a438decdd" y="64.93619"/>
     <use style="fill:#1f77b4;stroke:#1f77b4;" x="232.05963" xlink:href="#m2a438decdd" y="66.438077"/>
     <use style="fill:#1f77b4;stroke:#1f77b4;" x="233.08617" xlink:href="#m2a438decdd" y="67.775613"/>
     <use style="fill:#1f77b4;stroke:#1f77b4;" x="233.201852" xlink:href="#m2a438decdd" y="67.929391"/>
     <use style="fill:#1f77b4;stroke:#1f77b4;" x="233.217519" xlink:href="#m2a438decdd" y="67.950264"/>
     <use style="fill:#1f77b4;stroke:#1f77b4;" x="234.995201" xlink:href="#m2a438decdd" y="70.390734"/>
     <use style="fill:#1f77b4;stroke:#1f77b4;" x="236.092969" xlink:href="#m2a438decdd" y="71.967663"/>
     <use style="fill:#1f77b4;stroke:#1f77b4;" x="237.443092" xlink:href="#m2a438decdd" y="73.977954"/>
     <use style="fill:#1f77b4;stroke:#1f77b4;" x="237.62008" xlink:href="#m2a438decdd" y="74.247159"/>
     <use style="fill:#1f77b4;stroke:#1f77b4;" x="238.538387" xlink:href="#m2a438decdd" y="75.664631"/>
     <use style="fill:#1f77b4;stroke:#1f77b4;" x="239.147568" xlink:href="#m2a438decdd" y="76.623813"/>
     <use style="fill:#1f77b4;stroke:#1f77b4;" x="240.638564" xlink:href="#m2a438decdd" y="79.033261"/>
     <use style="fill:#1f77b4;stroke:#1f77b4;" x="241.249367" xlink:href="#m2a438decdd" y="80.045027"/>
     <use style="fill:#1f77b4;stroke:#1f77b4;" x="241.458624" xlink:href="#m2a438decdd" y="80.394881"/>
     <use style="fill:#1f77b4;stroke:#1f77b4;" x="244.831847" xlink:href="#m2a438decdd" y="86.252478"/>
     <use style="fill:#1f77b4;stroke:#1f77b4;" x="247.214773" xlink:href="#m2a438decdd" y="90.622046"/>
     <use style="fill:#1f77b4;stroke:#1f77b4;" x="249.439797" xlink:href="#m2a438decdd" y="94.85906"/>
     <use style="fill:#1f77b4;stroke:#1f77b4;" x="250.312126" xlink:href="#m2a438decdd" y="96.558583"/>
     <use style="fill:#1f77b4;stroke:#1f77b4;" x="252.483579" xlink:href="#m2a438decdd" y="100.875922"/>
     <use style="fill:#1f77b4;stroke:#1f77b4;" x="252.671422" xlink:href="#m2a438decdd" y="101.25492"/>
     <use style="fill:#1f77b4;stroke:#1f77b4;" x="253.008754" xlink:href="#m2a438decdd" y="101.937642"/>
     <use style="fill:#1f77b4;stroke:#1f77b4;" x="255.244114" xlink:href="#m2a438decdd" y="106.526935"/>
     <use style="fill:#1f77b4;stroke:#1f77b4;" x="256.370676" xlink:href="#m2a438decdd" y="108.879828"/>
     <use style="fill:#1f77b4;stroke:#1f77b4;" x="258.075259" xlink:href="#m2a438decdd" y="112.485842"/>
     <use style="fill:#1f77b4;stroke:#1f77b4;" x="259.209402" xlink:href="#m2a438decdd" y="114.913057"/>
     <use style="fill:#1f77b4;stroke:#1f77b4;" x="263.04721" xlink:href="#m2a438decdd" y="123.265777"/>
     <use style="fill:#1f77b4;stroke:#1f77b4;" x="263.23376" xlink:href="#m2a438decdd" y="123.676475"/>
     <use style="fill:#1f77b4;stroke:#1f77b4;" x="263.604349" xlink:href="#m2a438decdd" y="124.493441"/>
     <use style="fill:#1f77b4;stroke:#1f77b4;" x="268.825189" xlink:href="#m2a438decdd" y="136.124895"/>
     <use style="fill:#1f77b4;stroke:#1f77b4;" x="270.758421" xlink:href="#m2a438decdd" y="140.469215"/>
     <use style="fill:#1f77b4;stroke:#1f77b4;" x="271.51523" xlink:href="#m2a438decdd" y="142.172287"/>
     <use style="fill:#1f77b4;stroke:#1f77b4;" x="272.069934" xlink:href="#m2a438decdd" y="143.420966"/>
     <use style="fill:#1f77b4;stroke:#1f77b4;" x="273.082644" xlink:href="#m2a438decdd" y="145.700857"/>
     <use style="fill:#1f77b4;stroke:#1f77b4;" x="274.606337" xlink:href="#m2a438decdd" y="149.129455"/>
     <use style="fill:#1f77b4;stroke:#1f77b4;" x="275.418452" xlink:href="#m2a438decdd" y="150.954913"/>
     <use style="fill:#1f77b4;stroke:#1f77b4;" x="278.282952" xlink:href="#m2a438decdd" y="157.373296"/>
     <use style="fill:#1f77b4;stroke:#1f77b4;" x="279.154519" xlink:href="#m2a438decdd" y="159.317373"/>
     <use style="fill:#1f77b4;stroke:#1f77b4;" x="281.634165" xlink:href="#m2a438decdd" y="164.817448"/>
     <use style="fill:#1f77b4;stroke:#1f77b4;" x="284.010481" xlink:href="#m2a438decdd" y="170.035139"/>
     <use style="fill:#1f77b4;stroke:#1f77b4;" x="286.920252" xlink:href="#m2a438decdd" y="176.335703"/>
     <use style="fill:#1f77b4;stroke:#1f77b4;" x="291.201956" xlink:href="#m2a438decdd" y="185.390194"/>
     <use style="fill:#1f77b4;stroke:#1f77b4;" x="297.127791" xlink:href="#m2a438decdd" y="197.401855"/>
     <use style="fill:#1f77b4;stroke:#1f77b4;" x="297.577995" xlink:href="#m2a438decdd" y="198.286583"/>
     <use style="fill:#1f77b4;stroke:#1f77b4;" x="300.271532" xlink:href="#m2a438decdd" y="203.490894"/>
     <use style="fill:#1f77b4;stroke:#1f77b4;" x="300.977871" xlink:href="#m2a438decdd" y="204.829691"/>
     <use style="fill:#1f77b4;stroke:#1f77b4;" x="306.44258" xlink:href="#m2a438decdd" y="214.802594"/>
     <use style="fill:#1f77b4;stroke:#1f77b4;" x="306.930246" xlink:href="#m2a438decdd" y="215.658302"/>
     <use style="fill:#1f77b4;stroke:#1f77b4;" x="310.621955" xlink:href="#m2a438decdd" y="221.946882"/>
     <use style="fill:#1f77b4;stroke:#1f77b4;" x="313.340863" xlink:href="#m2a438decdd" y="226.360286"/>
     <use style="fill:#1f77b4;stroke:#1f77b4;" x="315.439028" xlink:href="#m2a438decdd" y="229.637313"/>
     <use style="fill:#1f77b4;stroke:#1f77b4;" x="316.368586" xlink:href="#m2a438decdd" y="231.052994"/>
     <use style="fill:#1f77b4;stroke:#1f77b4;" x="317.152014" xlink:href="#m2a438decdd" y="232.228821"/>
     <use style="fill:#1f77b4;stroke:#1f77b4;" x="317.879661" xlink:href="#m2a438decdd" y="233.306731"/>
     <use style="fill:#1f77b4;stroke:#1f77b4;" x="320.250185" xlink:href="#m2a438decdd" y="236.723361"/>
     <use style="fill:#1f77b4;stroke:#1f77b4;" x="320.819299" xlink:href="#m2a438decdd" y="237.521984"/>
     <use style="fill:#1f77b4;stroke:#1f77b4;" x="328.337721" xlink:href="#m2a438decdd" y="247.29061"/>
     <use style="fill:#1f77b4;stroke:#1f77b4;" x="330.057129" xlink:href="#m2a438decdd" y="249.322895"/>
     <use style="fill:#1f77b4;stroke:#1f77b4;" x="330.904198" xlink:href="#m2a438decdd" y="250.296992"/>
     <use style="fill:#1f77b4;stroke:#1f77b4;" x="338.483768" xlink:href="#m2a438decdd" y="258.23778"/>
     <use style="fill:#1f77b4;stroke:#1f77b4;" x="344.690003" xlink:href="#m2a438decdd" y="263.750909"/>
     <use style="fill:#1f77b4;stroke:#1f77b4;" x="344.860619" xlink:href="#m2a438decdd" y="263.890584"/>
     <use style="fill:#1f77b4;stroke:#1f77b4;" x="345.227386" xlink:href="#m2a438decdd" y="264.188749"/>
     <use style="fill:#1f77b4;stroke:#1f77b4;" x="379.838882" xlink:href="#m2a438decdd" y="281.832527"/>
     <use style="fill:#1f77b4;stroke:#1f77b4;" x="403.756023" xlink:href="#m2a438decdd" y="286.1672"/>
    </g>
   </g>
   <g id="patch_13">
    <path d="M 62.86875 288.430125 
L 62.86875 22.318125 
" style="fill:none;stroke:#000000;stroke-linecap:square;stroke-linejoin:miter;stroke-width:0.8;"/>
   </g>
   <g id="patch_14">
    <path d="M 419.98875 288.430125 
L 419.98875 22.318125 
" style="fill:none;stroke:#000000;stroke-linecap:square;stroke-linejoin:miter;stroke-width:0.8;"/>
   </g>
   <g id="patch_15">
    <path d="M 62.86875 288.430125 
L 419.98875 288.430125 
" style="fill:none;stroke:#000000;stroke-linecap:square;stroke-linejoin:miter;stroke-width:0.8;"/>
   </g>
   <g id="patch_16">
    <path d="M 62.86875 22.318125 
L 419.98875 22.318125 
" style="fill:none;stroke:#000000;stroke-linecap:square;stroke-linejoin:miter;stroke-width:0.8;"/>
   </g>
   <g id="text_17">
    <!-- Distribution Between Pairs [k-dim] -->
    <defs>
     <path d="M 8.5 21.578125 
L 8.5 54.6875 
L 17.484375 54.6875 
L 17.484375 21.921875 
Q 17.484375 14.15625 20.5 10.265625 
Q 23.53125 6.390625 29.59375 6.390625 
Q 36.859375 6.390625 41.078125 11.03125 
Q 45.3125 15.671875 45.3125 23.6875 
L 45.3125 54.6875 
L 54.296875 54.6875 
L 54.296875 0 
L 45.3125 0 
L 45.3125 8.40625 
Q 42.046875 3.421875 37.71875 1 
Q 33.40625 -1.421875 27.6875 -1.421875 
Q 18.265625 -1.421875 13.375 4.4375 
Q 8.5 10.296875 8.5 21.578125 
z
M 31.109375 56 
z
" id="DejaVuSans-75"/>
     <path id="DejaVuSans-20"/>
     <path d="M 19.671875 34.8125 
L 19.671875 8.109375 
L 35.5 8.109375 
Q 43.453125 8.109375 47.28125 11.40625 
Q 51.125 14.703125 51.125 21.484375 
Q 51.125 28.328125 47.28125 31.5625 
Q 43.453125 34.8125 35.5 34.8125 
z
M 19.671875 64.796875 
L 19.671875 42.828125 
L 34.28125 42.828125 
Q 41.5 42.828125 45.03125 45.53125 
Q 48.578125 48.25 48.578125 53.8125 
Q 48.578125 59.328125 45.03125 62.0625 
Q 41.5 64.796875 34.28125 64.796875 
z
M 9.8125 72.90625 
L 35.015625 72.90625 
Q 46.296875 72.90625 52.390625 68.21875 
Q 58.5 63.53125 58.5 54.890625 
Q 58.5 48.1875 55.375 44.234375 
Q 52.25 40.28125 46.1875 39.3125 
Q 53.46875 37.75 57.5 32.78125 
Q 61.53125 27.828125 61.53125 20.40625 
Q 61.53125 10.640625 54.890625 5.3125 
Q 48.25 0 35.984375 0 
L 9.8125 0 
z
" id="DejaVuSans-42"/>
     <path d="M 4.203125 54.6875 
L 13.1875 54.6875 
L 24.421875 12.015625 
L 35.59375 54.6875 
L 46.1875 54.6875 
L 57.421875 12.015625 
L 68.609375 54.6875 
L 77.59375 54.6875 
L 63.28125 0 
L 52.6875 0 
L 40.921875 44.828125 
L 29.109375 0 
L 18.5 0 
z
" id="DejaVuSans-77"/>
     <path d="M 8.59375 75.984375 
L 29.296875 75.984375 
L 29.296875 69 
L 17.578125 69 
L 17.578125 -6.203125 
L 29.296875 -6.203125 
L 29.296875 -13.1875 
L 8.59375 -13.1875 
z
" id="DejaVuSans-5b"/>
     <path d="M 9.078125 75.984375 
L 18.109375 75.984375 
L 18.109375 31.109375 
L 44.921875 54.6875 
L 56.390625 54.6875 
L 27.390625 29.109375 
L 57.625 0 
L 45.90625 0 
L 18.109375 26.703125 
L 18.109375 0 
L 9.078125 0 
z
" id="DejaVuSans-6b"/>
     <path d="M 4.890625 31.390625 
L 31.203125 31.390625 
L 31.203125 23.390625 
L 4.890625 23.390625 
z
" id="DejaVuSans-2d"/>
     <path d="M 45.40625 46.390625 
L 45.40625 75.984375 
L 54.390625 75.984375 
L 54.390625 0 
L 45.40625 0 
L 45.40625 8.203125 
Q 42.578125 3.328125 38.25 0.953125 
Q 33.9375 -1.421875 27.875 -1.421875 
Q 17.96875 -1.421875 11.734375 6.484375 
Q 5.515625 14.40625 5.515625 27.296875 
Q 5.515625 40.1875 11.734375 48.09375 
Q 17.96875 56 27.875 56 
Q 33.9375 56 38.25 53.625 
Q 42.578125 51.265625 45.40625 46.390625 
z
M 14.796875 27.296875 
Q 14.796875 17.390625 18.875 11.75 
Q 22.953125 6.109375 30.078125 6.109375 
Q 37.203125 6.109375 41.296875 11.75 
Q 45.40625 17.390625 45.40625 27.296875 
Q 45.40625 37.203125 41.296875 42.84375 
Q 37.203125 48.484375 30.078125 48.484375 
Q 22.953125 48.484375 18.875 42.84375 
Q 14.796875 37.203125 14.796875 27.296875 
z
" id="DejaVuSans-64"/>
     <path d="M 52 44.1875 
Q 55.375 50.25 60.0625 53.125 
Q 64.75 56 71.09375 56 
Q 79.640625 56 84.28125 50.015625 
Q 88.921875 44.046875 88.921875 33.015625 
L 88.921875 0 
L 79.890625 0 
L 79.890625 32.71875 
Q 79.890625 40.578125 77.09375 44.375 
Q 74.3125 48.1875 68.609375 48.1875 
Q 61.625 48.1875 57.5625 43.546875 
Q 53.515625 38.921875 53.515625 30.90625 
L 53.515625 0 
L 44.484375 0 
L 44.484375 32.71875 
Q 44.484375 40.625 41.703125 44.40625 
Q 38.921875 48.1875 33.109375 48.1875 
Q 26.21875 48.1875 22.15625 43.53125 
Q 18.109375 38.875 18.109375 30.90625 
L 18.109375 0 
L 9.078125 0 
L 9.078125 54.6875 
L 18.109375 54.6875 
L 18.109375 46.1875 
Q 21.1875 51.21875 25.484375 53.609375 
Q 29.78125 56 35.6875 56 
Q 41.65625 56 45.828125 52.96875 
Q 50 49.953125 52 44.1875 
z
" id="DejaVuSans-6d"/>
     <path d="M 30.421875 75.984375 
L 30.421875 -13.1875 
L 9.71875 -13.1875 
L 9.71875 -6.203125 
L 21.390625 -6.203125 
L 21.390625 69 
L 9.71875 69 
L 9.71875 75.984375 
z
" id="DejaVuSans-5d"/>
    </defs>
    <g transform="translate(138.260625 16.318125)scale(0.12 -0.12)">
     <use xlink:href="#DejaVuSans-44"/>
     <use x="77.001953" xlink:href="#DejaVuSans-69"/>
     <use x="104.785156" xlink:href="#DejaVuSans-73"/>
     <use x="156.884766" xlink:href="#DejaVuSans-74"/>
     <use x="196.09375" xlink:href="#DejaVuSans-72"/>
     <use x="237.207031" xlink:href="#DejaVuSans-69"/>
     <use x="264.990234" xlink:href="#DejaVuSans-62"/>
     <use x="328.466797" xlink:href="#DejaVuSans-75"/>
     <use x="391.845703" xlink:href="#DejaVuSans-74"/>
     <use x="431.054688" xlink:href="#DejaVuSans-69"/>
     <use x="458.837891" xlink:href="#DejaVuSans-6f"/>
     <use x="520.019531" xlink:href="#DejaVuSans-6e"/>
     <use x="583.398438" xlink:href="#DejaVuSans-20"/>
     <use x="615.185547" xlink:href="#DejaVuSans-42"/>
     <use x="683.789062" xlink:href="#DejaVuSans-65"/>
     <use x="745.3125" xlink:href="#DejaVuSans-74"/>
     <use x="784.521484" xlink:href="#DejaVuSans-77"/>
     <use x="866.308594" xlink:href="#DejaVuSans-65"/>
     <use x="927.832031" xlink:href="#DejaVuSans-65"/>
     <use x="989.355469" xlink:href="#DejaVuSans-6e"/>
     <use x="1052.734375" xlink:href="#DejaVuSans-20"/>
     <use x="1084.521484" xlink:href="#DejaVuSans-50"/>
     <use x="1144.761719" xlink:href="#DejaVuSans-61"/>
     <use x="1206.041016" xlink:href="#DejaVuSans-69"/>
     <use x="1233.824219" xlink:href="#DejaVuSans-72"/>
     <use x="1274.9375" xlink:href="#DejaVuSans-73"/>
     <use x="1327.037109" xlink:href="#DejaVuSans-20"/>
     <use x="1358.824219" xlink:href="#DejaVuSans-5b"/>
     <use x="1397.837891" xlink:href="#DejaVuSans-6b"/>
     <use x="1455.748047" xlink:href="#DejaVuSans-2d"/>
     <use x="1491.832031" xlink:href="#DejaVuSans-64"/>
     <use x="1555.308594" xlink:href="#DejaVuSans-69"/>
     <use x="1583.091797" xlink:href="#DejaVuSans-6d"/>
     <use x="1680.503906" xlink:href="#DejaVuSans-5d"/>
    </g>
   </g>
  </g>
  <g id="text_18">
   <g id="patch_17">
    <path d="M 172.171875 386.78175 
L 299.165625 386.78175 
Q 305.165625 386.78175 305.165625 380.78175 
L 305.165625 342.29325 
Q 305.165625 336.29325 299.165625 336.29325 
L 172.171875 336.29325 
Q 166.171875 336.29325 166.171875 342.29325 
L 166.171875 380.78175 
Q 166.171875 386.78175 172.171875 386.78175 
z
" style="fill:#ffffff;stroke:#808080;stroke-linejoin:miter;"/>
   </g>
   <!-- Dimension: 900 -->
   <defs>
    <path d="M 11.71875 12.40625 
L 22.015625 12.40625 
L 22.015625 0 
L 11.71875 0 
z
M 11.71875 51.703125 
L 22.015625 51.703125 
L 22.015625 39.3125 
L 11.71875 39.3125 
z
" id="DejaVuSans-3a"/>
    <path d="M 10.984375 1.515625 
L 10.984375 10.5 
Q 14.703125 8.734375 18.5 7.8125 
Q 22.3125 6.890625 25.984375 6.890625 
Q 35.75 6.890625 40.890625 13.453125 
Q 46.046875 20.015625 46.78125 33.40625 
Q 43.953125 29.203125 39.59375 26.953125 
Q 35.25 24.703125 29.984375 24.703125 
Q 19.046875 24.703125 12.671875 31.3125 
Q 6.296875 37.9375 6.296875 49.421875 
Q 6.296875 60.640625 12.9375 67.421875 
Q 19.578125 74.21875 30.609375 74.21875 
Q 43.265625 74.21875 49.921875 64.515625 
Q 56.59375 54.828125 56.59375 36.375 
Q 56.59375 19.140625 48.40625 8.859375 
Q 40.234375 -1.421875 26.421875 -1.421875 
Q 22.703125 -1.421875 18.890625 -0.6875 
Q 15.09375 0.046875 10.984375 1.515625 
z
M 30.609375 32.421875 
Q 37.25 32.421875 41.125 36.953125 
Q 45.015625 41.5 45.015625 49.421875 
Q 45.015625 57.28125 41.125 61.84375 
Q 37.25 66.40625 30.609375 66.40625 
Q 23.96875 66.40625 20.09375 61.84375 
Q 16.21875 57.28125 16.21875 49.421875 
Q 16.21875 41.5 20.09375 36.953125 
Q 23.96875 32.421875 30.609375 32.421875 
z
" id="DejaVuSans-39"/>
   </defs>
   <g transform="translate(172.171875 351.411375)scale(0.12 -0.12)">
    <use xlink:href="#DejaVuSans-44"/>
    <use x="77.001953" xlink:href="#DejaVuSans-69"/>
    <use x="104.785156" xlink:href="#DejaVuSans-6d"/>
    <use x="202.197266" xlink:href="#DejaVuSans-65"/>
    <use x="263.720703" xlink:href="#DejaVuSans-6e"/>
    <use x="327.099609" xlink:href="#DejaVuSans-73"/>
    <use x="379.199219" xlink:href="#DejaVuSans-69"/>
    <use x="406.982422" xlink:href="#DejaVuSans-6f"/>
    <use x="468.164062" xlink:href="#DejaVuSans-6e"/>
    <use x="531.542969" xlink:href="#DejaVuSans-3a"/>
    <use x="565.234375" xlink:href="#DejaVuSans-20"/>
    <use x="597.021484" xlink:href="#DejaVuSans-39"/>
    <use x="660.644531" xlink:href="#DejaVuSans-30"/>
    <use x="724.267578" xlink:href="#DejaVuSans-30"/>
   </g>
   <!-- Subdimension: 3 -->
   <defs>
    <path d="M 53.515625 70.515625 
L 53.515625 60.890625 
Q 47.90625 63.578125 42.921875 64.890625 
Q 37.9375 66.21875 33.296875 66.21875 
Q 25.25 66.21875 20.875 63.09375 
Q 16.5 59.96875 16.5 54.203125 
Q 16.5 49.359375 19.40625 46.890625 
Q 22.3125 44.4375 30.421875 42.921875 
L 36.375 41.703125 
Q 47.40625 39.59375 52.65625 34.296875 
Q 57.90625 29 57.90625 20.125 
Q 57.90625 9.515625 50.796875 4.046875 
Q 43.703125 -1.421875 29.984375 -1.421875 
Q 24.8125 -1.421875 18.96875 -0.25 
Q 13.140625 0.921875 6.890625 3.21875 
L 6.890625 13.375 
Q 12.890625 10.015625 18.65625 8.296875 
Q 24.421875 6.59375 29.984375 6.59375 
Q 38.421875 6.59375 43.015625 9.90625 
Q 47.609375 13.234375 47.609375 19.390625 
Q 47.609375 24.75 44.3125 27.78125 
Q 41.015625 30.8125 33.5 32.328125 
L 27.484375 33.5 
Q 16.453125 35.6875 11.515625 40.375 
Q 6.59375 45.0625 6.59375 53.421875 
Q 6.59375 63.09375 13.40625 68.65625 
Q 20.21875 74.21875 32.171875 74.21875 
Q 37.3125 74.21875 42.625 73.28125 
Q 47.953125 72.359375 53.515625 70.515625 
z
" id="DejaVuSans-53"/>
   </defs>
   <g transform="translate(172.171875 364.84875)scale(0.12 -0.12)">
    <use xlink:href="#DejaVuSans-53"/>
    <use x="63.476562" xlink:href="#DejaVuSans-75"/>
    <use x="126.855469" xlink:href="#DejaVuSans-62"/>
    <use x="190.332031" xlink:href="#DejaVuSans-64"/>
    <use x="253.808594" xlink:href="#DejaVuSans-69"/>
    <use x="281.591797" xlink:href="#DejaVuSans-6d"/>
    <use x="379.003906" xlink:href="#DejaVuSans-65"/>
    <use x="440.527344" xlink:href="#DejaVuSans-6e"/>
    <use x="503.90625" xlink:href="#DejaVuSans-73"/>
    <use x="556.005859" xlink:href="#DejaVuSans-69"/>
    <use x="583.789062" xlink:href="#DejaVuSans-6f"/>
    <use x="644.970703" xlink:href="#DejaVuSans-6e"/>
    <use x="708.349609" xlink:href="#DejaVuSans-3a"/>
    <use x="742.041016" xlink:href="#DejaVuSans-20"/>
    <use x="773.828125" xlink:href="#DejaVuSans-33"/>
   </g>
   <!-- Number of Points: 20 -->
   <defs>
    <path d="M 9.8125 72.90625 
L 23.09375 72.90625 
L 55.421875 11.921875 
L 55.421875 72.90625 
L 64.984375 72.90625 
L 64.984375 0 
L 51.703125 0 
L 19.390625 60.984375 
L 19.390625 0 
L 9.8125 0 
z
" id="DejaVuSans-4e"/>
    <path d="M 37.109375 75.984375 
L 37.109375 68.5 
L 28.515625 68.5 
Q 23.6875 68.5 21.796875 66.546875 
Q 19.921875 64.59375 19.921875 59.515625 
L 19.921875 54.6875 
L 34.71875 54.6875 
L 34.71875 47.703125 
L 19.921875 47.703125 
L 19.921875 0 
L 10.890625 0 
L 10.890625 47.703125 
L 2.296875 47.703125 
L 2.296875 54.6875 
L 10.890625 54.6875 
L 10.890625 58.5 
Q 10.890625 67.625 15.140625 71.796875 
Q 19.390625 75.984375 28.609375 75.984375 
z
" id="DejaVuSans-66"/>
   </defs>
   <g transform="translate(172.171875 378.286125)scale(0.12 -0.12)">
    <use xlink:href="#DejaVuSans-4e"/>
    <use x="74.804688" xlink:href="#DejaVuSans-75"/>
    <use x="138.183594" xlink:href="#DejaVuSans-6d"/>
    <use x="235.595703" xlink:href="#DejaVuSans-62"/>
    <use x="299.072266" xlink:href="#DejaVuSans-65"/>
    <use x="360.595703" xlink:href="#DejaVuSans-72"/>
    <use x="401.708984" xlink:href="#DejaVuSans-20"/>
    <use x="433.496094" xlink:href="#DejaVuSans-6f"/>
    <use x="494.677734" xlink:href="#DejaVuSans-66"/>
    <use x="529.882812" xlink:href="#DejaVuSans-20"/>
    <use x="561.669922" xlink:href="#DejaVuSans-50"/>
    <use x="621.925781" xlink:href="#DejaVuSans-6f"/>
    <use x="683.107422" xlink:href="#DejaVuSans-69"/>
    <use x="710.890625" xlink:href="#DejaVuSans-6e"/>
    <use x="774.269531" xlink:href="#DejaVuSans-74"/>
    <use x="813.478516" xlink:href="#DejaVuSans-73"/>
    <use x="865.578125" xlink:href="#DejaVuSans-3a"/>
    <use x="899.269531" xlink:href="#DejaVuSans-20"/>
    <use x="931.056641" xlink:href="#DejaVuSans-32"/>
    <use x="994.679688" xlink:href="#DejaVuSans-30"/>
   </g>
  </g>
 </g>
 <defs>
  <clipPath id="p8da1fd8d96">
   <rect height="266.112" width="357.12" x="62.86875" y="22.318125"/>
  </clipPath>
 </defs>
</svg>
