<?xml version="1.0" encoding="utf-8" standalone="no"?>
<!DOCTYPE svg PUBLIC "-//W3C//DTD SVG 1.1//EN"
  "http://www.w3.org/Graphics/SVG/1.1/DTD/svg11.dtd">
<!-- Created with matplotlib (http://matplotlib.org/) -->
<svg height="387pt" version="1.1" viewBox="0 0 424 387" width="424pt" xmlns="http://www.w3.org/2000/svg" xmlns:xlink="http://www.w3.org/1999/xlink">
 <defs>
  <style type="text/css">
*{stroke-linecap:butt;stroke-linejoin:round;}
  </style>
 </defs>
 <g id="figure_1">
  <g id="patch_1">
   <path d="M 0 387.98175 
L 424.32625 387.98175 
L 424.32625 0 
L 0 0 
z
" style="fill:#ffffff;"/>
  </g>
  <g id="axes_1">
   <g id="patch_2">
    <path d="M 56.50625 288.430125 
L 413.62625 288.430125 
L 413.62625 22.318125 
L 56.50625 22.318125 
z
" style="fill:#ffffff;"/>
   </g>
   <g id="patch_3">
    <path clip-path="url(#pc4a04b0995)" d="M 72.738977 288.430125 
L 105.204432 288.430125 
L 105.204432 260.423804 
L 72.738977 260.423804 
z
" style="fill:#ff7f0e;"/>
   </g>
   <g id="patch_4">
    <path clip-path="url(#pc4a04b0995)" d="M 105.204432 288.430125 
L 137.669886 288.430125 
L 137.669886 225.415903 
L 105.204432 225.415903 
z
" style="fill:#ff7f0e;"/>
   </g>
   <g id="patch_5">
    <path clip-path="url(#pc4a04b0995)" d="M 137.669886 288.430125 
L 170.135341 288.430125 
L 170.135341 141.396941 
L 137.669886 141.396941 
z
" style="fill:#ff7f0e;"/>
   </g>
   <g id="patch_6">
    <path clip-path="url(#pc4a04b0995)" d="M 170.135341 288.430125 
L 202.600795 288.430125 
L 202.600795 50.376398 
L 170.135341 50.376398 
z
" style="fill:#ff7f0e;"/>
   </g>
   <g id="patch_7">
    <path clip-path="url(#pc4a04b0995)" d="M 202.600795 288.430125 
L 235.06625 288.430125 
L 235.06625 113.39062 
L 202.600795 113.39062 
z
" style="fill:#ff7f0e;"/>
   </g>
   <g id="patch_8">
    <path clip-path="url(#pc4a04b0995)" d="M 235.06625 288.430125 
L 267.531705 288.430125 
L 267.531705 50.376398 
L 235.06625 50.376398 
z
" style="fill:#ff7f0e;"/>
   </g>
   <g id="patch_9">
    <path clip-path="url(#pc4a04b0995)" d="M 267.531705 288.430125 
L 299.997159 288.430125 
L 299.997159 71.381139 
L 267.531705 71.381139 
z
" style="fill:#ff7f0e;"/>
   </g>
   <g id="patch_10">
    <path clip-path="url(#pc4a04b0995)" d="M 299.997159 288.430125 
L 332.462614 288.430125 
L 332.462614 197.409582 
L 299.997159 197.409582 
z
" style="fill:#ff7f0e;"/>
   </g>
   <g id="patch_11">
    <path clip-path="url(#pc4a04b0995)" d="M 332.462614 288.430125 
L 364.928068 288.430125 
L 364.928068 183.406422 
L 332.462614 183.406422 
z
" style="fill:#ff7f0e;"/>
   </g>
   <g id="patch_12">
    <path clip-path="url(#pc4a04b0995)" d="M 364.928068 288.430125 
L 397.393523 288.430125 
L 397.393523 260.423804 
L 364.928068 260.423804 
z
" style="fill:#ff7f0e;"/>
   </g>
   <g id="matplotlib.axis_1">
    <g id="xtick_1">
     <g id="line2d_1">
      <defs>
       <path d="M 0 0 
L 0 3.5 
" id="m82903022bb" style="stroke:#000000;stroke-width:0.8;"/>
      </defs>
      <g>
       <use style="stroke:#000000;stroke-width:0.8;" x="84.201749" xlink:href="#m82903022bb" y="288.430125"/>
      </g>
     </g>
     <g id="text_1">
      <!-- 1725 -->
      <defs>
       <path d="M 12.40625 8.296875 
L 28.515625 8.296875 
L 28.515625 63.921875 
L 10.984375 60.40625 
L 10.984375 69.390625 
L 28.421875 72.90625 
L 38.28125 72.90625 
L 38.28125 8.296875 
L 54.390625 8.296875 
L 54.390625 0 
L 12.40625 0 
z
" id="DejaVuSans-31"/>
       <path d="M 8.203125 72.90625 
L 55.078125 72.90625 
L 55.078125 68.703125 
L 28.609375 0 
L 18.3125 0 
L 43.21875 64.59375 
L 8.203125 64.59375 
z
" id="DejaVuSans-37"/>
       <path d="M 19.1875 8.296875 
L 53.609375 8.296875 
L 53.609375 0 
L 7.328125 0 
L 7.328125 8.296875 
Q 12.9375 14.109375 22.625 23.890625 
Q 32.328125 33.6875 34.8125 36.53125 
Q 39.546875 41.84375 41.421875 45.53125 
Q 43.3125 49.21875 43.3125 52.78125 
Q 43.3125 58.59375 39.234375 62.25 
Q 35.15625 65.921875 28.609375 65.921875 
Q 23.96875 65.921875 18.8125 64.3125 
Q 13.671875 62.703125 7.8125 59.421875 
L 7.8125 69.390625 
Q 13.765625 71.78125 18.9375 73 
Q 24.125 74.21875 28.421875 74.21875 
Q 39.75 74.21875 46.484375 68.546875 
Q 53.21875 62.890625 53.21875 53.421875 
Q 53.21875 48.921875 51.53125 44.890625 
Q 49.859375 40.875 45.40625 35.40625 
Q 44.1875 33.984375 37.640625 27.21875 
Q 31.109375 20.453125 19.1875 8.296875 
z
" id="DejaVuSans-32"/>
       <path d="M 10.796875 72.90625 
L 49.515625 72.90625 
L 49.515625 64.59375 
L 19.828125 64.59375 
L 19.828125 46.734375 
Q 21.96875 47.46875 24.109375 47.828125 
Q 26.265625 48.1875 28.421875 48.1875 
Q 40.625 48.1875 47.75 41.5 
Q 54.890625 34.8125 54.890625 23.390625 
Q 54.890625 11.625 47.5625 5.09375 
Q 40.234375 -1.421875 26.90625 -1.421875 
Q 22.3125 -1.421875 17.546875 -0.640625 
Q 12.796875 0.140625 7.71875 1.703125 
L 7.71875 11.625 
Q 12.109375 9.234375 16.796875 8.0625 
Q 21.484375 6.890625 26.703125 6.890625 
Q 35.15625 6.890625 40.078125 11.328125 
Q 45.015625 15.765625 45.015625 23.390625 
Q 45.015625 31 40.078125 35.4375 
Q 35.15625 39.890625 26.703125 39.890625 
Q 22.75 39.890625 18.8125 39.015625 
Q 14.890625 38.140625 10.796875 36.28125 
z
" id="DejaVuSans-35"/>
      </defs>
      <g transform="translate(71.476749 303.028562)scale(0.1 -0.1)">
       <use xlink:href="#DejaVuSans-31"/>
       <use x="63.623047" xlink:href="#DejaVuSans-37"/>
       <use x="127.246094" xlink:href="#DejaVuSans-32"/>
       <use x="190.869141" xlink:href="#DejaVuSans-35"/>
      </g>
     </g>
    </g>
    <g id="xtick_2">
     <g id="line2d_2">
      <g>
       <use style="stroke:#000000;stroke-width:0.8;" x="127.810605" xlink:href="#m82903022bb" y="288.430125"/>
      </g>
     </g>
     <g id="text_2">
      <!-- 1750 -->
      <defs>
       <path d="M 31.78125 66.40625 
Q 24.171875 66.40625 20.328125 58.90625 
Q 16.5 51.421875 16.5 36.375 
Q 16.5 21.390625 20.328125 13.890625 
Q 24.171875 6.390625 31.78125 6.390625 
Q 39.453125 6.390625 43.28125 13.890625 
Q 47.125 21.390625 47.125 36.375 
Q 47.125 51.421875 43.28125 58.90625 
Q 39.453125 66.40625 31.78125 66.40625 
z
M 31.78125 74.21875 
Q 44.046875 74.21875 50.515625 64.515625 
Q 56.984375 54.828125 56.984375 36.375 
Q 56.984375 17.96875 50.515625 8.265625 
Q 44.046875 -1.421875 31.78125 -1.421875 
Q 19.53125 -1.421875 13.0625 8.265625 
Q 6.59375 17.96875 6.59375 36.375 
Q 6.59375 54.828125 13.0625 64.515625 
Q 19.53125 74.21875 31.78125 74.21875 
z
" id="DejaVuSans-30"/>
      </defs>
      <g transform="translate(115.085605 303.028562)scale(0.1 -0.1)">
       <use xlink:href="#DejaVuSans-31"/>
       <use x="63.623047" xlink:href="#DejaVuSans-37"/>
       <use x="127.246094" xlink:href="#DejaVuSans-35"/>
       <use x="190.869141" xlink:href="#DejaVuSans-30"/>
      </g>
     </g>
    </g>
    <g id="xtick_3">
     <g id="line2d_3">
      <g>
       <use style="stroke:#000000;stroke-width:0.8;" x="171.41946" xlink:href="#m82903022bb" y="288.430125"/>
      </g>
     </g>
     <g id="text_3">
      <!-- 1775 -->
      <g transform="translate(158.69446 303.028562)scale(0.1 -0.1)">
       <use xlink:href="#DejaVuSans-31"/>
       <use x="63.623047" xlink:href="#DejaVuSans-37"/>
       <use x="127.246094" xlink:href="#DejaVuSans-37"/>
       <use x="190.869141" xlink:href="#DejaVuSans-35"/>
      </g>
     </g>
    </g>
    <g id="xtick_4">
     <g id="line2d_4">
      <g>
       <use style="stroke:#000000;stroke-width:0.8;" x="215.028315" xlink:href="#m82903022bb" y="288.430125"/>
      </g>
     </g>
     <g id="text_4">
      <!-- 1800 -->
      <defs>
       <path d="M 31.78125 34.625 
Q 24.75 34.625 20.71875 30.859375 
Q 16.703125 27.09375 16.703125 20.515625 
Q 16.703125 13.921875 20.71875 10.15625 
Q 24.75 6.390625 31.78125 6.390625 
Q 38.8125 6.390625 42.859375 10.171875 
Q 46.921875 13.96875 46.921875 20.515625 
Q 46.921875 27.09375 42.890625 30.859375 
Q 38.875 34.625 31.78125 34.625 
z
M 21.921875 38.8125 
Q 15.578125 40.375 12.03125 44.71875 
Q 8.5 49.078125 8.5 55.328125 
Q 8.5 64.0625 14.71875 69.140625 
Q 20.953125 74.21875 31.78125 74.21875 
Q 42.671875 74.21875 48.875 69.140625 
Q 55.078125 64.0625 55.078125 55.328125 
Q 55.078125 49.078125 51.53125 44.71875 
Q 48 40.375 41.703125 38.8125 
Q 48.828125 37.15625 52.796875 32.3125 
Q 56.78125 27.484375 56.78125 20.515625 
Q 56.78125 9.90625 50.3125 4.234375 
Q 43.84375 -1.421875 31.78125 -1.421875 
Q 19.734375 -1.421875 13.25 4.234375 
Q 6.78125 9.90625 6.78125 20.515625 
Q 6.78125 27.484375 10.78125 32.3125 
Q 14.796875 37.15625 21.921875 38.8125 
z
M 18.3125 54.390625 
Q 18.3125 48.734375 21.84375 45.5625 
Q 25.390625 42.390625 31.78125 42.390625 
Q 38.140625 42.390625 41.71875 45.5625 
Q 45.3125 48.734375 45.3125 54.390625 
Q 45.3125 60.0625 41.71875 63.234375 
Q 38.140625 66.40625 31.78125 66.40625 
Q 25.390625 66.40625 21.84375 63.234375 
Q 18.3125 60.0625 18.3125 54.390625 
z
" id="DejaVuSans-38"/>
      </defs>
      <g transform="translate(202.303315 303.028562)scale(0.1 -0.1)">
       <use xlink:href="#DejaVuSans-31"/>
       <use x="63.623047" xlink:href="#DejaVuSans-38"/>
       <use x="127.246094" xlink:href="#DejaVuSans-30"/>
       <use x="190.869141" xlink:href="#DejaVuSans-30"/>
      </g>
     </g>
    </g>
    <g id="xtick_5">
     <g id="line2d_5">
      <g>
       <use style="stroke:#000000;stroke-width:0.8;" x="258.637171" xlink:href="#m82903022bb" y="288.430125"/>
      </g>
     </g>
     <g id="text_5">
      <!-- 1825 -->
      <g transform="translate(245.912171 303.028562)scale(0.1 -0.1)">
       <use xlink:href="#DejaVuSans-31"/>
       <use x="63.623047" xlink:href="#DejaVuSans-38"/>
       <use x="127.246094" xlink:href="#DejaVuSans-32"/>
       <use x="190.869141" xlink:href="#DejaVuSans-35"/>
      </g>
     </g>
    </g>
    <g id="xtick_6">
     <g id="line2d_6">
      <g>
       <use style="stroke:#000000;stroke-width:0.8;" x="302.246026" xlink:href="#m82903022bb" y="288.430125"/>
      </g>
     </g>
     <g id="text_6">
      <!-- 1850 -->
      <g transform="translate(289.521026 303.028562)scale(0.1 -0.1)">
       <use xlink:href="#DejaVuSans-31"/>
       <use x="63.623047" xlink:href="#DejaVuSans-38"/>
       <use x="127.246094" xlink:href="#DejaVuSans-35"/>
       <use x="190.869141" xlink:href="#DejaVuSans-30"/>
      </g>
     </g>
    </g>
    <g id="xtick_7">
     <g id="line2d_7">
      <g>
       <use style="stroke:#000000;stroke-width:0.8;" x="345.854882" xlink:href="#m82903022bb" y="288.430125"/>
      </g>
     </g>
     <g id="text_7">
      <!-- 1875 -->
      <g transform="translate(333.129882 303.028562)scale(0.1 -0.1)">
       <use xlink:href="#DejaVuSans-31"/>
       <use x="63.623047" xlink:href="#DejaVuSans-38"/>
       <use x="127.246094" xlink:href="#DejaVuSans-37"/>
       <use x="190.869141" xlink:href="#DejaVuSans-35"/>
      </g>
     </g>
    </g>
    <g id="xtick_8">
     <g id="line2d_8">
      <g>
       <use style="stroke:#000000;stroke-width:0.8;" x="389.463737" xlink:href="#m82903022bb" y="288.430125"/>
      </g>
     </g>
     <g id="text_8">
      <!-- 1900 -->
      <defs>
       <path d="M 10.984375 1.515625 
L 10.984375 10.5 
Q 14.703125 8.734375 18.5 7.8125 
Q 22.3125 6.890625 25.984375 6.890625 
Q 35.75 6.890625 40.890625 13.453125 
Q 46.046875 20.015625 46.78125 33.40625 
Q 43.953125 29.203125 39.59375 26.953125 
Q 35.25 24.703125 29.984375 24.703125 
Q 19.046875 24.703125 12.671875 31.3125 
Q 6.296875 37.9375 6.296875 49.421875 
Q 6.296875 60.640625 12.9375 67.421875 
Q 19.578125 74.21875 30.609375 74.21875 
Q 43.265625 74.21875 49.921875 64.515625 
Q 56.59375 54.828125 56.59375 36.375 
Q 56.59375 19.140625 48.40625 8.859375 
Q 40.234375 -1.421875 26.421875 -1.421875 
Q 22.703125 -1.421875 18.890625 -0.6875 
Q 15.09375 0.046875 10.984375 1.515625 
z
M 30.609375 32.421875 
Q 37.25 32.421875 41.125 36.953125 
Q 45.015625 41.5 45.015625 49.421875 
Q 45.015625 57.28125 41.125 61.84375 
Q 37.25 66.40625 30.609375 66.40625 
Q 23.96875 66.40625 20.09375 61.84375 
Q 16.21875 57.28125 16.21875 49.421875 
Q 16.21875 41.5 20.09375 36.953125 
Q 23.96875 32.421875 30.609375 32.421875 
z
" id="DejaVuSans-39"/>
      </defs>
      <g transform="translate(376.738737 303.028562)scale(0.1 -0.1)">
       <use xlink:href="#DejaVuSans-31"/>
       <use x="63.623047" xlink:href="#DejaVuSans-39"/>
       <use x="127.246094" xlink:href="#DejaVuSans-30"/>
       <use x="190.869141" xlink:href="#DejaVuSans-30"/>
      </g>
     </g>
    </g>
    <g id="text_9">
     <!-- Distance -->
     <defs>
      <path d="M 19.671875 64.796875 
L 19.671875 8.109375 
L 31.59375 8.109375 
Q 46.6875 8.109375 53.6875 14.9375 
Q 60.6875 21.78125 60.6875 36.53125 
Q 60.6875 51.171875 53.6875 57.984375 
Q 46.6875 64.796875 31.59375 64.796875 
z
M 9.8125 72.90625 
L 30.078125 72.90625 
Q 51.265625 72.90625 61.171875 64.09375 
Q 71.09375 55.28125 71.09375 36.53125 
Q 71.09375 17.671875 61.125 8.828125 
Q 51.171875 0 30.078125 0 
L 9.8125 0 
z
" id="DejaVuSans-44"/>
      <path d="M 9.421875 54.6875 
L 18.40625 54.6875 
L 18.40625 0 
L 9.421875 0 
z
M 9.421875 75.984375 
L 18.40625 75.984375 
L 18.40625 64.59375 
L 9.421875 64.59375 
z
" id="DejaVuSans-69"/>
      <path d="M 44.28125 53.078125 
L 44.28125 44.578125 
Q 40.484375 46.53125 36.375 47.5 
Q 32.28125 48.484375 27.875 48.484375 
Q 21.1875 48.484375 17.84375 46.4375 
Q 14.5 44.390625 14.5 40.28125 
Q 14.5 37.15625 16.890625 35.375 
Q 19.28125 33.59375 26.515625 31.984375 
L 29.59375 31.296875 
Q 39.15625 29.25 43.1875 25.515625 
Q 47.21875 21.78125 47.21875 15.09375 
Q 47.21875 7.46875 41.1875 3.015625 
Q 35.15625 -1.421875 24.609375 -1.421875 
Q 20.21875 -1.421875 15.453125 -0.5625 
Q 10.6875 0.296875 5.421875 2 
L 5.421875 11.28125 
Q 10.40625 8.6875 15.234375 7.390625 
Q 20.0625 6.109375 24.8125 6.109375 
Q 31.15625 6.109375 34.5625 8.28125 
Q 37.984375 10.453125 37.984375 14.40625 
Q 37.984375 18.0625 35.515625 20.015625 
Q 33.0625 21.96875 24.703125 23.78125 
L 21.578125 24.515625 
Q 13.234375 26.265625 9.515625 29.90625 
Q 5.8125 33.546875 5.8125 39.890625 
Q 5.8125 47.609375 11.28125 51.796875 
Q 16.75 56 26.8125 56 
Q 31.78125 56 36.171875 55.265625 
Q 40.578125 54.546875 44.28125 53.078125 
z
" id="DejaVuSans-73"/>
      <path d="M 18.3125 70.21875 
L 18.3125 54.6875 
L 36.8125 54.6875 
L 36.8125 47.703125 
L 18.3125 47.703125 
L 18.3125 18.015625 
Q 18.3125 11.328125 20.140625 9.421875 
Q 21.96875 7.515625 27.59375 7.515625 
L 36.8125 7.515625 
L 36.8125 0 
L 27.59375 0 
Q 17.1875 0 13.234375 3.875 
Q 9.28125 7.765625 9.28125 18.015625 
L 9.28125 47.703125 
L 2.6875 47.703125 
L 2.6875 54.6875 
L 9.28125 54.6875 
L 9.28125 70.21875 
z
" id="DejaVuSans-74"/>
      <path d="M 34.28125 27.484375 
Q 23.390625 27.484375 19.1875 25 
Q 14.984375 22.515625 14.984375 16.5 
Q 14.984375 11.71875 18.140625 8.90625 
Q 21.296875 6.109375 26.703125 6.109375 
Q 34.1875 6.109375 38.703125 11.40625 
Q 43.21875 16.703125 43.21875 25.484375 
L 43.21875 27.484375 
z
M 52.203125 31.203125 
L 52.203125 0 
L 43.21875 0 
L 43.21875 8.296875 
Q 40.140625 3.328125 35.546875 0.953125 
Q 30.953125 -1.421875 24.3125 -1.421875 
Q 15.921875 -1.421875 10.953125 3.296875 
Q 6 8.015625 6 15.921875 
Q 6 25.140625 12.171875 29.828125 
Q 18.359375 34.515625 30.609375 34.515625 
L 43.21875 34.515625 
L 43.21875 35.40625 
Q 43.21875 41.609375 39.140625 45 
Q 35.0625 48.390625 27.6875 48.390625 
Q 23 48.390625 18.546875 47.265625 
Q 14.109375 46.140625 10.015625 43.890625 
L 10.015625 52.203125 
Q 14.9375 54.109375 19.578125 55.046875 
Q 24.21875 56 28.609375 56 
Q 40.484375 56 46.34375 49.84375 
Q 52.203125 43.703125 52.203125 31.203125 
z
" id="DejaVuSans-61"/>
      <path d="M 54.890625 33.015625 
L 54.890625 0 
L 45.90625 0 
L 45.90625 32.71875 
Q 45.90625 40.484375 42.875 44.328125 
Q 39.84375 48.1875 33.796875 48.1875 
Q 26.515625 48.1875 22.3125 43.546875 
Q 18.109375 38.921875 18.109375 30.90625 
L 18.109375 0 
L 9.078125 0 
L 9.078125 54.6875 
L 18.109375 54.6875 
L 18.109375 46.1875 
Q 21.34375 51.125 25.703125 53.5625 
Q 30.078125 56 35.796875 56 
Q 45.21875 56 50.046875 50.171875 
Q 54.890625 44.34375 54.890625 33.015625 
z
" id="DejaVuSans-6e"/>
      <path d="M 48.78125 52.59375 
L 48.78125 44.1875 
Q 44.96875 46.296875 41.140625 47.34375 
Q 37.3125 48.390625 33.40625 48.390625 
Q 24.65625 48.390625 19.8125 42.84375 
Q 14.984375 37.3125 14.984375 27.296875 
Q 14.984375 17.28125 19.8125 11.734375 
Q 24.65625 6.203125 33.40625 6.203125 
Q 37.3125 6.203125 41.140625 7.25 
Q 44.96875 8.296875 48.78125 10.40625 
L 48.78125 2.09375 
Q 45.015625 0.34375 40.984375 -0.53125 
Q 36.96875 -1.421875 32.421875 -1.421875 
Q 20.0625 -1.421875 12.78125 6.34375 
Q 5.515625 14.109375 5.515625 27.296875 
Q 5.515625 40.671875 12.859375 48.328125 
Q 20.21875 56 33.015625 56 
Q 37.15625 56 41.109375 55.140625 
Q 45.0625 54.296875 48.78125 52.59375 
z
" id="DejaVuSans-63"/>
      <path d="M 56.203125 29.59375 
L 56.203125 25.203125 
L 14.890625 25.203125 
Q 15.484375 15.921875 20.484375 11.0625 
Q 25.484375 6.203125 34.421875 6.203125 
Q 39.59375 6.203125 44.453125 7.46875 
Q 49.3125 8.734375 54.109375 11.28125 
L 54.109375 2.78125 
Q 49.265625 0.734375 44.1875 -0.34375 
Q 39.109375 -1.421875 33.890625 -1.421875 
Q 20.796875 -1.421875 13.15625 6.1875 
Q 5.515625 13.8125 5.515625 26.8125 
Q 5.515625 40.234375 12.765625 48.109375 
Q 20.015625 56 32.328125 56 
Q 43.359375 56 49.78125 48.890625 
Q 56.203125 41.796875 56.203125 29.59375 
z
M 47.21875 32.234375 
Q 47.125 39.59375 43.09375 43.984375 
Q 39.0625 48.390625 32.421875 48.390625 
Q 24.90625 48.390625 20.390625 44.140625 
Q 15.875 39.890625 15.1875 32.171875 
z
" id="DejaVuSans-65"/>
     </defs>
     <g transform="translate(213.20375 316.706687)scale(0.1 -0.1)">
      <use xlink:href="#DejaVuSans-44"/>
      <use x="77.001953" xlink:href="#DejaVuSans-69"/>
      <use x="104.785156" xlink:href="#DejaVuSans-73"/>
      <use x="156.884766" xlink:href="#DejaVuSans-74"/>
      <use x="196.09375" xlink:href="#DejaVuSans-61"/>
      <use x="257.373047" xlink:href="#DejaVuSans-6e"/>
      <use x="320.751953" xlink:href="#DejaVuSans-63"/>
      <use x="375.732422" xlink:href="#DejaVuSans-65"/>
     </g>
    </g>
   </g>
   <g id="matplotlib.axis_2">
    <g id="ytick_1">
     <g id="line2d_9">
      <defs>
       <path d="M 0 0 
L -3.5 0 
" id="m5b81218a5d" style="stroke:#000000;stroke-width:0.8;"/>
      </defs>
      <g>
       <use style="stroke:#000000;stroke-width:0.8;" x="56.50625" xlink:href="#m5b81218a5d" y="288.430125"/>
      </g>
     </g>
     <g id="text_10">
      <!-- 0.000 -->
      <defs>
       <path d="M 10.6875 12.40625 
L 21 12.40625 
L 21 0 
L 10.6875 0 
z
" id="DejaVuSans-2e"/>
      </defs>
      <g transform="translate(20.878125 292.229344)scale(0.1 -0.1)">
       <use xlink:href="#DejaVuSans-30"/>
       <use x="63.623047" xlink:href="#DejaVuSans-2e"/>
       <use x="95.410156" xlink:href="#DejaVuSans-30"/>
       <use x="159.033203" xlink:href="#DejaVuSans-30"/>
       <use x="222.65625" xlink:href="#DejaVuSans-30"/>
      </g>
     </g>
    </g>
    <g id="ytick_2">
     <g id="line2d_10">
      <g>
       <use style="stroke:#000000;stroke-width:0.8;" x="56.50625" xlink:href="#m5b81218a5d" y="238.91174"/>
      </g>
     </g>
     <g id="text_11">
      <!-- 0.002 -->
      <g transform="translate(20.878125 242.710959)scale(0.1 -0.1)">
       <use xlink:href="#DejaVuSans-30"/>
       <use x="63.623047" xlink:href="#DejaVuSans-2e"/>
       <use x="95.410156" xlink:href="#DejaVuSans-30"/>
       <use x="159.033203" xlink:href="#DejaVuSans-30"/>
       <use x="222.65625" xlink:href="#DejaVuSans-32"/>
      </g>
     </g>
    </g>
    <g id="ytick_3">
     <g id="line2d_11">
      <g>
       <use style="stroke:#000000;stroke-width:0.8;" x="56.50625" xlink:href="#m5b81218a5d" y="189.393355"/>
      </g>
     </g>
     <g id="text_12">
      <!-- 0.004 -->
      <defs>
       <path d="M 37.796875 64.3125 
L 12.890625 25.390625 
L 37.796875 25.390625 
z
M 35.203125 72.90625 
L 47.609375 72.90625 
L 47.609375 25.390625 
L 58.015625 25.390625 
L 58.015625 17.1875 
L 47.609375 17.1875 
L 47.609375 0 
L 37.796875 0 
L 37.796875 17.1875 
L 4.890625 17.1875 
L 4.890625 26.703125 
z
" id="DejaVuSans-34"/>
      </defs>
      <g transform="translate(20.878125 193.192574)scale(0.1 -0.1)">
       <use xlink:href="#DejaVuSans-30"/>
       <use x="63.623047" xlink:href="#DejaVuSans-2e"/>
       <use x="95.410156" xlink:href="#DejaVuSans-30"/>
       <use x="159.033203" xlink:href="#DejaVuSans-30"/>
       <use x="222.65625" xlink:href="#DejaVuSans-34"/>
      </g>
     </g>
    </g>
    <g id="ytick_4">
     <g id="line2d_12">
      <g>
       <use style="stroke:#000000;stroke-width:0.8;" x="56.50625" xlink:href="#m5b81218a5d" y="139.87497"/>
      </g>
     </g>
     <g id="text_13">
      <!-- 0.006 -->
      <defs>
       <path d="M 33.015625 40.375 
Q 26.375 40.375 22.484375 35.828125 
Q 18.609375 31.296875 18.609375 23.390625 
Q 18.609375 15.53125 22.484375 10.953125 
Q 26.375 6.390625 33.015625 6.390625 
Q 39.65625 6.390625 43.53125 10.953125 
Q 47.40625 15.53125 47.40625 23.390625 
Q 47.40625 31.296875 43.53125 35.828125 
Q 39.65625 40.375 33.015625 40.375 
z
M 52.59375 71.296875 
L 52.59375 62.3125 
Q 48.875 64.0625 45.09375 64.984375 
Q 41.3125 65.921875 37.59375 65.921875 
Q 27.828125 65.921875 22.671875 59.328125 
Q 17.53125 52.734375 16.796875 39.40625 
Q 19.671875 43.65625 24.015625 45.921875 
Q 28.375 48.1875 33.59375 48.1875 
Q 44.578125 48.1875 50.953125 41.515625 
Q 57.328125 34.859375 57.328125 23.390625 
Q 57.328125 12.15625 50.6875 5.359375 
Q 44.046875 -1.421875 33.015625 -1.421875 
Q 20.359375 -1.421875 13.671875 8.265625 
Q 6.984375 17.96875 6.984375 36.375 
Q 6.984375 53.65625 15.1875 63.9375 
Q 23.390625 74.21875 37.203125 74.21875 
Q 40.921875 74.21875 44.703125 73.484375 
Q 48.484375 72.75 52.59375 71.296875 
z
" id="DejaVuSans-36"/>
      </defs>
      <g transform="translate(20.878125 143.674189)scale(0.1 -0.1)">
       <use xlink:href="#DejaVuSans-30"/>
       <use x="63.623047" xlink:href="#DejaVuSans-2e"/>
       <use x="95.410156" xlink:href="#DejaVuSans-30"/>
       <use x="159.033203" xlink:href="#DejaVuSans-30"/>
       <use x="222.65625" xlink:href="#DejaVuSans-36"/>
      </g>
     </g>
    </g>
    <g id="ytick_5">
     <g id="line2d_13">
      <g>
       <use style="stroke:#000000;stroke-width:0.8;" x="56.50625" xlink:href="#m5b81218a5d" y="90.356585"/>
      </g>
     </g>
     <g id="text_14">
      <!-- 0.008 -->
      <g transform="translate(20.878125 94.155804)scale(0.1 -0.1)">
       <use xlink:href="#DejaVuSans-30"/>
       <use x="63.623047" xlink:href="#DejaVuSans-2e"/>
       <use x="95.410156" xlink:href="#DejaVuSans-30"/>
       <use x="159.033203" xlink:href="#DejaVuSans-30"/>
       <use x="222.65625" xlink:href="#DejaVuSans-38"/>
      </g>
     </g>
    </g>
    <g id="ytick_6">
     <g id="line2d_14">
      <g>
       <use style="stroke:#000000;stroke-width:0.8;" x="56.50625" xlink:href="#m5b81218a5d" y="40.8382"/>
      </g>
     </g>
     <g id="text_15">
      <!-- 0.010 -->
      <g transform="translate(20.878125 44.637418)scale(0.1 -0.1)">
       <use xlink:href="#DejaVuSans-30"/>
       <use x="63.623047" xlink:href="#DejaVuSans-2e"/>
       <use x="95.410156" xlink:href="#DejaVuSans-30"/>
       <use x="159.033203" xlink:href="#DejaVuSans-31"/>
       <use x="222.65625" xlink:href="#DejaVuSans-30"/>
      </g>
     </g>
    </g>
    <g id="text_16">
     <!-- Probability -->
     <defs>
      <path d="M 19.671875 64.796875 
L 19.671875 37.40625 
L 32.078125 37.40625 
Q 38.96875 37.40625 42.71875 40.96875 
Q 46.484375 44.53125 46.484375 51.125 
Q 46.484375 57.671875 42.71875 61.234375 
Q 38.96875 64.796875 32.078125 64.796875 
z
M 9.8125 72.90625 
L 32.078125 72.90625 
Q 44.34375 72.90625 50.609375 67.359375 
Q 56.890625 61.8125 56.890625 51.125 
Q 56.890625 40.328125 50.609375 34.8125 
Q 44.34375 29.296875 32.078125 29.296875 
L 19.671875 29.296875 
L 19.671875 0 
L 9.8125 0 
z
" id="DejaVuSans-50"/>
      <path d="M 41.109375 46.296875 
Q 39.59375 47.171875 37.8125 47.578125 
Q 36.03125 48 33.890625 48 
Q 26.265625 48 22.1875 43.046875 
Q 18.109375 38.09375 18.109375 28.8125 
L 18.109375 0 
L 9.078125 0 
L 9.078125 54.6875 
L 18.109375 54.6875 
L 18.109375 46.1875 
Q 20.953125 51.171875 25.484375 53.578125 
Q 30.03125 56 36.53125 56 
Q 37.453125 56 38.578125 55.875 
Q 39.703125 55.765625 41.0625 55.515625 
z
" id="DejaVuSans-72"/>
      <path d="M 30.609375 48.390625 
Q 23.390625 48.390625 19.1875 42.75 
Q 14.984375 37.109375 14.984375 27.296875 
Q 14.984375 17.484375 19.15625 11.84375 
Q 23.34375 6.203125 30.609375 6.203125 
Q 37.796875 6.203125 41.984375 11.859375 
Q 46.1875 17.53125 46.1875 27.296875 
Q 46.1875 37.015625 41.984375 42.703125 
Q 37.796875 48.390625 30.609375 48.390625 
z
M 30.609375 56 
Q 42.328125 56 49.015625 48.375 
Q 55.71875 40.765625 55.71875 27.296875 
Q 55.71875 13.875 49.015625 6.21875 
Q 42.328125 -1.421875 30.609375 -1.421875 
Q 18.84375 -1.421875 12.171875 6.21875 
Q 5.515625 13.875 5.515625 27.296875 
Q 5.515625 40.765625 12.171875 48.375 
Q 18.84375 56 30.609375 56 
z
" id="DejaVuSans-6f"/>
      <path d="M 48.6875 27.296875 
Q 48.6875 37.203125 44.609375 42.84375 
Q 40.53125 48.484375 33.40625 48.484375 
Q 26.265625 48.484375 22.1875 42.84375 
Q 18.109375 37.203125 18.109375 27.296875 
Q 18.109375 17.390625 22.1875 11.75 
Q 26.265625 6.109375 33.40625 6.109375 
Q 40.53125 6.109375 44.609375 11.75 
Q 48.6875 17.390625 48.6875 27.296875 
z
M 18.109375 46.390625 
Q 20.953125 51.265625 25.265625 53.625 
Q 29.59375 56 35.59375 56 
Q 45.5625 56 51.78125 48.09375 
Q 58.015625 40.1875 58.015625 27.296875 
Q 58.015625 14.40625 51.78125 6.484375 
Q 45.5625 -1.421875 35.59375 -1.421875 
Q 29.59375 -1.421875 25.265625 0.953125 
Q 20.953125 3.328125 18.109375 8.203125 
L 18.109375 0 
L 9.078125 0 
L 9.078125 75.984375 
L 18.109375 75.984375 
z
" id="DejaVuSans-62"/>
      <path d="M 9.421875 75.984375 
L 18.40625 75.984375 
L 18.40625 0 
L 9.421875 0 
z
" id="DejaVuSans-6c"/>
      <path d="M 32.171875 -5.078125 
Q 28.375 -14.84375 24.75 -17.8125 
Q 21.140625 -20.796875 15.09375 -20.796875 
L 7.90625 -20.796875 
L 7.90625 -13.28125 
L 13.1875 -13.28125 
Q 16.890625 -13.28125 18.9375 -11.515625 
Q 21 -9.765625 23.484375 -3.21875 
L 25.09375 0.875 
L 2.984375 54.6875 
L 12.5 54.6875 
L 29.59375 11.921875 
L 46.6875 54.6875 
L 56.203125 54.6875 
z
" id="DejaVuSans-79"/>
     </defs>
     <g transform="translate(14.798437 182.000687)rotate(-90)scale(0.1 -0.1)">
      <use xlink:href="#DejaVuSans-50"/>
      <use x="60.287109" xlink:href="#DejaVuSans-72"/>
      <use x="101.369141" xlink:href="#DejaVuSans-6f"/>
      <use x="162.550781" xlink:href="#DejaVuSans-62"/>
      <use x="226.027344" xlink:href="#DejaVuSans-61"/>
      <use x="287.306641" xlink:href="#DejaVuSans-62"/>
      <use x="350.783203" xlink:href="#DejaVuSans-69"/>
      <use x="378.566406" xlink:href="#DejaVuSans-6c"/>
      <use x="406.349609" xlink:href="#DejaVuSans-69"/>
      <use x="434.132812" xlink:href="#DejaVuSans-74"/>
      <use x="473.341797" xlink:href="#DejaVuSans-79"/>
     </g>
    </g>
   </g>
   <g id="line2d_15">
    <path clip-path="url(#pc4a04b0995)" d="M 72.738977 273.979169 
L 87.622776 264.603535 
L 94.641947 258.764507 
L 97.085763 256.492027 
L 112.397763 239.182694 
L 115.243374 235.352912 
L 121.784224 225.799949 
L 127.992005 215.772555 
L 132.487674 207.942535 
L 135.73677 201.99903 
L 143.538199 186.825729 
L 149.384934 174.718155 
L 156.192499 159.993908 
L 166.801047 136.230227 
L 176.344334 114.769102 
L 185.227738 95.527413 
L 189.340195 87.07907 
L 193.701844 78.555015 
L 198.372985 70.024752 
L 202.074968 63.773364 
L 204.167103 60.460804 
L 209.444728 52.879123 
L 212.997731 48.449417 
L 215.056475 46.147665 
L 222.04884 39.871504 
L 224.830767 38.067105 
L 226.390981 37.23357 
L 228.683039 36.245023 
L 231.898427 35.337021 
L 234.207523 35.032873 
L 236.625568 35.027528 
L 238.365155 35.22188 
L 240.68628 35.738763 
L 242.237329 36.247479 
L 245.070592 37.511515 
L 249.50881 40.346517 
L 252.755396 43.063197 
L 256.322645 46.650522 
L 258.988878 49.727039 
L 262.718585 54.569411 
L 264.923021 57.711909 
L 267.548433 61.710702 
L 269.198136 64.358874 
L 274.713727 73.909327 
L 278.98144 81.953525 
L 279.395791 82.761455 
L 285.185526 94.480621 
L 292.206605 109.549062 
L 299.350613 125.474034 
L 309.660159 148.735461 
L 319.025079 169.371366 
L 323.294204 178.433 
L 331.206168 194.428184 
L 338.250248 207.62694 
L 341.994947 214.196759 
L 348.083798 224.175878 
L 352.378275 230.675564 
L 356.109747 235.957159 
L 361.166368 242.573107 
L 363.920709 245.917902 
L 376.823282 259.259772 
L 379.059613 261.203112 
L 391.24573 270.082258 
L 397.393523 273.57717 
L 397.393523 273.57717 
" style="fill:none;stroke:#1f77b4;stroke-linecap:square;stroke-width:1.5;"/>
    <defs>
     <path d="M 0 3 
C 0.795609 3 1.55874 2.683901 2.12132 2.12132 
C 2.683901 1.55874 3 0.795609 3 0 
C 3 -0.795609 2.683901 -1.55874 2.12132 -2.12132 
C 1.55874 -2.683901 0.795609 -3 0 -3 
C -0.795609 -3 -1.55874 -2.683901 -2.12132 -2.12132 
C -2.683901 -1.55874 -3 -0.795609 -3 0 
C -3 0.795609 -2.683901 1.55874 -2.12132 2.12132 
C -1.55874 2.683901 -0.795609 3 0 3 
z
" id="m12048cff86" style="stroke:#1f77b4;"/>
    </defs>
    <g clip-path="url(#pc4a04b0995)">
     <use style="fill:#1f77b4;stroke:#1f77b4;" x="72.738977" xlink:href="#m12048cff86" y="273.979169"/>
     <use style="fill:#1f77b4;stroke:#1f77b4;" x="87.622776" xlink:href="#m12048cff86" y="264.603535"/>
     <use style="fill:#1f77b4;stroke:#1f77b4;" x="94.641947" xlink:href="#m12048cff86" y="258.764507"/>
     <use style="fill:#1f77b4;stroke:#1f77b4;" x="97.085763" xlink:href="#m12048cff86" y="256.492027"/>
     <use style="fill:#1f77b4;stroke:#1f77b4;" x="112.397763" xlink:href="#m12048cff86" y="239.182694"/>
     <use style="fill:#1f77b4;stroke:#1f77b4;" x="113.96189" xlink:href="#m12048cff86" y="237.102013"/>
     <use style="fill:#1f77b4;stroke:#1f77b4;" x="115.243374" xlink:href="#m12048cff86" y="235.352912"/>
     <use style="fill:#1f77b4;stroke:#1f77b4;" x="121.784224" xlink:href="#m12048cff86" y="225.799949"/>
     <use style="fill:#1f77b4;stroke:#1f77b4;" x="125.760448" xlink:href="#m12048cff86" y="219.483587"/>
     <use style="fill:#1f77b4;stroke:#1f77b4;" x="127.992005" xlink:href="#m12048cff86" y="215.772555"/>
     <use style="fill:#1f77b4;stroke:#1f77b4;" x="132.353156" xlink:href="#m12048cff86" y="208.183546"/>
     <use style="fill:#1f77b4;stroke:#1f77b4;" x="132.487674" xlink:href="#m12048cff86" y="207.942535"/>
     <use style="fill:#1f77b4;stroke:#1f77b4;" x="135.73677" xlink:href="#m12048cff86" y="201.99903"/>
     <use style="fill:#1f77b4;stroke:#1f77b4;" x="141.007357" xlink:href="#m12048cff86" y="191.880183"/>
     <use style="fill:#1f77b4;stroke:#1f77b4;" x="142.298103" xlink:href="#m12048cff86" y="189.317448"/>
     <use style="fill:#1f77b4;stroke:#1f77b4;" x="142.911936" xlink:href="#m12048cff86" y="188.087636"/>
     <use style="fill:#1f77b4;stroke:#1f77b4;" x="143.538199" xlink:href="#m12048cff86" y="186.825729"/>
     <use style="fill:#1f77b4;stroke:#1f77b4;" x="145.023636" xlink:href="#m12048cff86" y="183.804292"/>
     <use style="fill:#1f77b4;stroke:#1f77b4;" x="146.147602" xlink:href="#m12048cff86" y="181.492463"/>
     <use style="fill:#1f77b4;stroke:#1f77b4;" x="147.970041" xlink:href="#m12048cff86" y="177.699267"/>
     <use style="fill:#1f77b4;stroke:#1f77b4;" x="148.234214" xlink:href="#m12048cff86" y="177.145004"/>
     <use style="fill:#1f77b4;stroke:#1f77b4;" x="149.384934" xlink:href="#m12048cff86" y="174.718155"/>
     <use style="fill:#1f77b4;stroke:#1f77b4;" x="151.959109" xlink:href="#m12048cff86" y="169.219645"/>
     <use style="fill:#1f77b4;stroke:#1f77b4;" x="153.506774" xlink:href="#m12048cff86" y="165.871227"/>
     <use style="fill:#1f77b4;stroke:#1f77b4;" x="154.314163" xlink:href="#m12048cff86" y="164.112828"/>
     <use style="fill:#1f77b4;stroke:#1f77b4;" x="156.192499" xlink:href="#m12048cff86" y="159.993908"/>
     <use style="fill:#1f77b4;stroke:#1f77b4;" x="159.333146" xlink:href="#m12048cff86" y="153.030894"/>
     <use style="fill:#1f77b4;stroke:#1f77b4;" x="160.809489" xlink:href="#m12048cff86" y="149.730856"/>
     <use style="fill:#1f77b4;stroke:#1f77b4;" x="164.202217" xlink:href="#m12048cff86" y="142.100885"/>
     <use style="fill:#1f77b4;stroke:#1f77b4;" x="165.864254" xlink:href="#m12048cff86" y="138.347795"/>
     <use style="fill:#1f77b4;stroke:#1f77b4;" x="166.801047" xlink:href="#m12048cff86" y="136.230227"/>
     <use style="fill:#1f77b4;stroke:#1f77b4;" x="169.077282" xlink:href="#m12048cff86" y="131.08413"/>
     <use style="fill:#1f77b4;stroke:#1f77b4;" x="169.701629" xlink:href="#m12048cff86" y="129.673555"/>
     <use style="fill:#1f77b4;stroke:#1f77b4;" x="169.738837" xlink:href="#m12048cff86" y="129.589516"/>
     <use style="fill:#1f77b4;stroke:#1f77b4;" x="172.605273" xlink:href="#m12048cff86" y="123.128714"/>
     <use style="fill:#1f77b4;stroke:#1f77b4;" x="173.786192" xlink:href="#m12048cff86" y="120.478014"/>
     <use style="fill:#1f77b4;stroke:#1f77b4;" x="174.632416" xlink:href="#m12048cff86" y="118.583993"/>
     <use style="fill:#1f77b4;stroke:#1f77b4;" x="176.344334" xlink:href="#m12048cff86" y="114.769102"/>
     <use style="fill:#1f77b4;stroke:#1f77b4;" x="182.193699" xlink:href="#m12048cff86" y="101.970143"/>
     <use style="fill:#1f77b4;stroke:#1f77b4;" x="182.38441" xlink:href="#m12048cff86" y="101.560624"/>
     <use style="fill:#1f77b4;stroke:#1f77b4;" x="182.482939" xlink:href="#m12048cff86" y="101.349275"/>
     <use style="fill:#1f77b4;stroke:#1f77b4;" x="183.056952" xlink:href="#m12048cff86" y="100.12109"/>
     <use style="fill:#1f77b4;stroke:#1f77b4;" x="183.974883" xlink:href="#m12048cff86" y="98.168454"/>
     <use style="fill:#1f77b4;stroke:#1f77b4;" x="184.085308" xlink:href="#m12048cff86" y="97.934536"/>
     <use style="fill:#1f77b4;stroke:#1f77b4;" x="184.212063" xlink:href="#m12048cff86" y="97.666294"/>
     <use style="fill:#1f77b4;stroke:#1f77b4;" x="184.30849" xlink:href="#m12048cff86" y="97.462422"/>
     <use style="fill:#1f77b4;stroke:#1f77b4;" x="185.227738" xlink:href="#m12048cff86" y="95.527413"/>
     <use style="fill:#1f77b4;stroke:#1f77b4;" x="185.989857" xlink:href="#m12048cff86" y="93.935263"/>
     <use style="fill:#1f77b4;stroke:#1f77b4;" x="186.205988" xlink:href="#m12048cff86" y="93.485814"/>
     <use style="fill:#1f77b4;stroke:#1f77b4;" x="186.81246" xlink:href="#m12048cff86" y="92.229678"/>
     <use style="fill:#1f77b4;stroke:#1f77b4;" x="188.083205" xlink:href="#m12048cff86" y="89.622692"/>
     <use style="fill:#1f77b4;stroke:#1f77b4;" x="189.340195" xlink:href="#m12048cff86" y="87.07907"/>
     <use style="fill:#1f77b4;stroke:#1f77b4;" x="191.309635" xlink:href="#m12048cff86" y="83.169296"/>
     <use style="fill:#1f77b4;stroke:#1f77b4;" x="192.152424" xlink:href="#m12048cff86" y="81.526121"/>
     <use style="fill:#1f77b4;stroke:#1f77b4;" x="192.382803" xlink:href="#m12048cff86" y="81.080217"/>
     <use style="fill:#1f77b4;stroke:#1f77b4;" x="192.556831" xlink:href="#m12048cff86" y="80.744324"/>
     <use style="fill:#1f77b4;stroke:#1f77b4;" x="193.701844" xlink:href="#m12048cff86" y="78.555015"/>
     <use style="fill:#1f77b4;stroke:#1f77b4;" x="195.590922" xlink:href="#m12048cff86" y="75.024827"/>
     <use style="fill:#1f77b4;stroke:#1f77b4;" x="196.572855" xlink:href="#m12048cff86" y="73.232105"/>
     <use style="fill:#1f77b4;stroke:#1f77b4;" x="196.843491" xlink:href="#m12048cff86" y="72.74327"/>
     <use style="fill:#1f77b4;stroke:#1f77b4;" x="197.045083" xlink:href="#m12048cff86" y="72.380649"/>
     <use style="fill:#1f77b4;stroke:#1f77b4;" x="198.372985" xlink:href="#m12048cff86" y="70.024752"/>
     <use style="fill:#1f77b4;stroke:#1f77b4;" x="199.356586" xlink:href="#m12048cff86" y="68.317295"/>
     <use style="fill:#1f77b4;stroke:#1f77b4;" x="199.675698" xlink:href="#m12048cff86" y="67.770404"/>
     <use style="fill:#1f77b4;stroke:#1f77b4;" x="201.579266" xlink:href="#m12048cff86" y="64.582214"/>
     <use style="fill:#1f77b4;stroke:#1f77b4;" x="201.717884" xlink:href="#m12048cff86" y="64.355121"/>
     <use style="fill:#1f77b4;stroke:#1f77b4;" x="201.826083" xlink:href="#m12048cff86" y="64.17835"/>
     <use style="fill:#1f77b4;stroke:#1f77b4;" x="202.074968" xlink:href="#m12048cff86" y="63.773364"/>
     <use style="fill:#1f77b4;stroke:#1f77b4;" x="203.036142" xlink:href="#m12048cff86" y="62.23092"/>
     <use style="fill:#1f77b4;stroke:#1f77b4;" x="204.167103" xlink:href="#m12048cff86" y="60.460804"/>
     <use style="fill:#1f77b4;stroke:#1f77b4;" x="208.742102" xlink:href="#m12048cff86" y="53.821293"/>
     <use style="fill:#1f77b4;stroke:#1f77b4;" x="208.897281" xlink:href="#m12048cff86" y="53.611376"/>
     <use style="fill:#1f77b4;stroke:#1f77b4;" x="209.147874" xlink:href="#m12048cff86" y="53.274579"/>
     <use style="fill:#1f77b4;stroke:#1f77b4;" x="209.259849" xlink:href="#m12048cff86" y="53.124961"/>
     <use style="fill:#1f77b4;stroke:#1f77b4;" x="209.444728" xlink:href="#m12048cff86" y="52.879123"/>
     <use style="fill:#1f77b4;stroke:#1f77b4;" x="211.219651" xlink:href="#m12048cff86" y="50.595366"/>
     <use style="fill:#1f77b4;stroke:#1f77b4;" x="211.380916" xlink:href="#m12048cff86" y="50.394816"/>
     <use style="fill:#1f77b4;stroke:#1f77b4;" x="211.718519" xlink:href="#m12048cff86" y="49.978769"/>
     <use style="fill:#1f77b4;stroke:#1f77b4;" x="212.183514" xlink:href="#m12048cff86" y="49.414189"/>
     <use style="fill:#1f77b4;stroke:#1f77b4;" x="212.466817" xlink:href="#m12048cff86" y="49.075047"/>
     <use style="fill:#1f77b4;stroke:#1f77b4;" x="212.524864" xlink:href="#m12048cff86" y="49.006013"/>
     <use style="fill:#1f77b4;stroke:#1f77b4;" x="212.997731" xlink:href="#m12048cff86" y="48.449417"/>
     <use style="fill:#1f77b4;stroke:#1f77b4;" x="215.056475" xlink:href="#m12048cff86" y="46.147665"/>
     <use style="fill:#1f77b4;stroke:#1f77b4;" x="222.04884" xlink:href="#m12048cff86" y="39.871504"/>
     <use style="fill:#1f77b4;stroke:#1f77b4;" x="224.830767" xlink:href="#m12048cff86" y="38.067105"/>
     <use style="fill:#1f77b4;stroke:#1f77b4;" x="226.390981" xlink:href="#m12048cff86" y="37.23357"/>
     <use style="fill:#1f77b4;stroke:#1f77b4;" x="228.683039" xlink:href="#m12048cff86" y="36.245023"/>
     <use style="fill:#1f77b4;stroke:#1f77b4;" x="231.676577" xlink:href="#m12048cff86" y="35.381595"/>
     <use style="fill:#1f77b4;stroke:#1f77b4;" x="231.898427" xlink:href="#m12048cff86" y="35.337021"/>
     <use style="fill:#1f77b4;stroke:#1f77b4;" x="232.99326" xlink:href="#m12048cff86" y="35.156435"/>
     <use style="fill:#1f77b4;stroke:#1f77b4;" x="233.031255" xlink:href="#m12048cff86" y="35.151345"/>
     <use style="fill:#1f77b4;stroke:#1f77b4;" x="233.085453" xlink:href="#m12048cff86" y="35.144221"/>
     <use style="fill:#1f77b4;stroke:#1f77b4;" x="234.207523" xlink:href="#m12048cff86" y="35.032873"/>
     <use style="fill:#1f77b4;stroke:#1f77b4;" x="235.416839" xlink:href="#m12048cff86" y="34.990125"/>
     <use style="fill:#1f77b4;stroke:#1f77b4;" x="235.551674" xlink:href="#m12048cff86" y="34.990328"/>
     <use style="fill:#1f77b4;stroke:#1f77b4;" x="235.605505" xlink:href="#m12048cff86" y="34.990687"/>
     <use style="fill:#1f77b4;stroke:#1f77b4;" x="236.625568" xlink:href="#m12048cff86" y="35.027528"/>
     <use style="fill:#1f77b4;stroke:#1f77b4;" x="237.783424" xlink:href="#m12048cff86" y="35.138447"/>
     <use style="fill:#1f77b4;stroke:#1f77b4;" x="238.114709" xlink:href="#m12048cff86" y="35.183691"/>
     <use style="fill:#1f77b4;stroke:#1f77b4;" x="238.365155" xlink:href="#m12048cff86" y="35.22188"/>
     <use style="fill:#1f77b4;stroke:#1f77b4;" x="239.615583" xlink:href="#m12048cff86" y="35.463828"/>
     <use style="fill:#1f77b4;stroke:#1f77b4;" x="239.865522" xlink:href="#m12048cff86" y="35.522422"/>
     <use style="fill:#1f77b4;stroke:#1f77b4;" x="240.32779" xlink:href="#m12048cff86" y="35.639761"/>
     <use style="fill:#1f77b4;stroke:#1f77b4;" x="240.68628" xlink:href="#m12048cff86" y="35.738763"/>
     <use style="fill:#1f77b4;stroke:#1f77b4;" x="241.243609" xlink:href="#m12048cff86" y="35.906546"/>
     <use style="fill:#1f77b4;stroke:#1f77b4;" x="242.116311" xlink:href="#m12048cff86" y="36.203102"/>
     <use style="fill:#1f77b4;stroke:#1f77b4;" x="242.189624" xlink:href="#m12048cff86" y="36.229891"/>
     <use style="fill:#1f77b4;stroke:#1f77b4;" x="242.237329" xlink:href="#m12048cff86" y="36.247479"/>
     <use style="fill:#1f77b4;stroke:#1f77b4;" x="244.68881" xlink:href="#m12048cff86" y="37.316132"/>
     <use style="fill:#1f77b4;stroke:#1f77b4;" x="245.01219" xlink:href="#m12048cff86" y="37.481125"/>
     <use style="fill:#1f77b4;stroke:#1f77b4;" x="245.070592" xlink:href="#m12048cff86" y="37.511515"/>
     <use style="fill:#1f77b4;stroke:#1f77b4;" x="248.589767" xlink:href="#m12048cff86" y="39.675079"/>
     <use style="fill:#1f77b4;stroke:#1f77b4;" x="249.50881" xlink:href="#m12048cff86" y="40.346517"/>
     <use style="fill:#1f77b4;stroke:#1f77b4;" x="252.755396" xlink:href="#m12048cff86" y="43.063197"/>
     <use style="fill:#1f77b4;stroke:#1f77b4;" x="255.032148" xlink:href="#m12048cff86" y="45.281584"/>
     <use style="fill:#1f77b4;stroke:#1f77b4;" x="256.322645" xlink:href="#m12048cff86" y="46.650522"/>
     <use style="fill:#1f77b4;stroke:#1f77b4;" x="258.154476" xlink:href="#m12048cff86" y="48.728837"/>
     <use style="fill:#1f77b4;stroke:#1f77b4;" x="258.208928" xlink:href="#m12048cff86" y="48.793004"/>
     <use style="fill:#1f77b4;stroke:#1f77b4;" x="258.988878" xlink:href="#m12048cff86" y="49.727039"/>
     <use style="fill:#1f77b4;stroke:#1f77b4;" x="260.811309" xlink:href="#m12048cff86" y="52.016665"/>
     <use style="fill:#1f77b4;stroke:#1f77b4;" x="261.524495" xlink:href="#m12048cff86" y="52.952763"/>
     <use style="fill:#1f77b4;stroke:#1f77b4;" x="261.715666" xlink:href="#m12048cff86" y="53.207456"/>
     <use style="fill:#1f77b4;stroke:#1f77b4;" x="262.25897" xlink:href="#m12048cff86" y="53.939905"/>
     <use style="fill:#1f77b4;stroke:#1f77b4;" x="262.718585" xlink:href="#m12048cff86" y="54.569411"/>
     <use style="fill:#1f77b4;stroke:#1f77b4;" x="263.142365" xlink:href="#m12048cff86" y="55.157787"/>
     <use style="fill:#1f77b4;stroke:#1f77b4;" x="264.923021" xlink:href="#m12048cff86" y="57.711909"/>
     <use style="fill:#1f77b4;stroke:#1f77b4;" x="266.757525" xlink:href="#m12048cff86" y="60.477635"/>
     <use style="fill:#1f77b4;stroke:#1f77b4;" x="267.548433" xlink:href="#m12048cff86" y="61.710702"/>
     <use style="fill:#1f77b4;stroke:#1f77b4;" x="269.198136" xlink:href="#m12048cff86" y="64.358874"/>
     <use style="fill:#1f77b4;stroke:#1f77b4;" x="272.79235" xlink:href="#m12048cff86" y="70.466724"/>
     <use style="fill:#1f77b4;stroke:#1f77b4;" x="273.357391" xlink:href="#m12048cff86" y="71.466837"/>
     <use style="fill:#1f77b4;stroke:#1f77b4;" x="273.922483" xlink:href="#m12048cff86" y="72.477371"/>
     <use style="fill:#1f77b4;stroke:#1f77b4;" x="274.060875" xlink:href="#m12048cff86" y="72.726406"/>
     <use style="fill:#1f77b4;stroke:#1f77b4;" x="274.23864" xlink:href="#m12048cff86" y="73.047181"/>
     <use style="fill:#1f77b4;stroke:#1f77b4;" x="274.509261" xlink:href="#m12048cff86" y="73.537417"/>
     <use style="fill:#1f77b4;stroke:#1f77b4;" x="274.713727" xlink:href="#m12048cff86" y="73.909327"/>
     <use style="fill:#1f77b4;stroke:#1f77b4;" x="275.531156" xlink:href="#m12048cff86" y="75.409009"/>
     <use style="fill:#1f77b4;stroke:#1f77b4;" x="275.687378" xlink:href="#m12048cff86" y="75.697923"/>
     <use style="fill:#1f77b4;stroke:#1f77b4;" x="276.074368" xlink:href="#m12048cff86" y="76.416752"/>
     <use style="fill:#1f77b4;stroke:#1f77b4;" x="276.579098" xlink:href="#m12048cff86" y="77.36091"/>
     <use style="fill:#1f77b4;stroke:#1f77b4;" x="277.919444" xlink:href="#m12048cff86" y="79.903628"/>
     <use style="fill:#1f77b4;stroke:#1f77b4;" x="278.004919" xlink:href="#m12048cff86" y="80.067483"/>
     <use style="fill:#1f77b4;stroke:#1f77b4;" x="278.98144" xlink:href="#m12048cff86" y="81.953525"/>
     <use style="fill:#1f77b4;stroke:#1f77b4;" x="279.266756" xlink:href="#m12048cff86" y="82.509373"/>
     <use style="fill:#1f77b4;stroke:#1f77b4;" x="279.395791" xlink:href="#m12048cff86" y="82.761455"/>
     <use style="fill:#1f77b4;stroke:#1f77b4;" x="284.759711" xlink:href="#m12048cff86" y="93.593809"/>
     <use style="fill:#1f77b4;stroke:#1f77b4;" x="285.185526" xlink:href="#m12048cff86" y="94.480621"/>
     <use style="fill:#1f77b4;stroke:#1f77b4;" x="288.22971" xlink:href="#m12048cff86" y="100.918435"/>
     <use style="fill:#1f77b4;stroke:#1f77b4;" x="288.683906" xlink:href="#m12048cff86" y="101.892537"/>
     <use style="fill:#1f77b4;stroke:#1f77b4;" x="292.124973" xlink:href="#m12048cff86" y="109.369804"/>
     <use style="fill:#1f77b4;stroke:#1f77b4;" x="292.206605" xlink:href="#m12048cff86" y="109.549062"/>
     <use style="fill:#1f77b4;stroke:#1f77b4;" x="294.086022" xlink:href="#m12048cff86" y="113.696578"/>
     <use style="fill:#1f77b4;stroke:#1f77b4;" x="296.26786" xlink:href="#m12048cff86" y="118.55393"/>
     <use style="fill:#1f77b4;stroke:#1f77b4;" x="296.889534" xlink:href="#m12048cff86" y="119.944829"/>
     <use style="fill:#1f77b4;stroke:#1f77b4;" x="297.47819" xlink:href="#m12048cff86" y="121.264241"/>
     <use style="fill:#1f77b4;stroke:#1f77b4;" x="297.842503" xlink:href="#m12048cff86" y="122.081879"/>
     <use style="fill:#1f77b4;stroke:#1f77b4;" x="299.239164" xlink:href="#m12048cff86" y="125.22299"/>
     <use style="fill:#1f77b4;stroke:#1f77b4;" x="299.350613" xlink:href="#m12048cff86" y="125.474034"/>
     <use style="fill:#1f77b4;stroke:#1f77b4;" x="305.767396" xlink:href="#m12048cff86" y="139.969741"/>
     <use style="fill:#1f77b4;stroke:#1f77b4;" x="305.828348" xlink:href="#m12048cff86" y="140.107396"/>
     <use style="fill:#1f77b4;stroke:#1f77b4;" x="306.599258" xlink:href="#m12048cff86" y="141.847633"/>
     <use style="fill:#1f77b4;stroke:#1f77b4;" x="309.660159" xlink:href="#m12048cff86" y="148.735461"/>
     <use style="fill:#1f77b4;stroke:#1f77b4;" x="315.948454" xlink:href="#m12048cff86" y="162.689349"/>
     <use style="fill:#1f77b4;stroke:#1f77b4;" x="316.594622" xlink:href="#m12048cff86" y="164.102046"/>
     <use style="fill:#1f77b4;stroke:#1f77b4;" x="316.950526" xlink:href="#m12048cff86" y="164.878124"/>
     <use style="fill:#1f77b4;stroke:#1f77b4;" x="319.025079" xlink:href="#m12048cff86" y="169.371366"/>
     <use style="fill:#1f77b4;stroke:#1f77b4;" x="320.822946" xlink:href="#m12048cff86" y="173.219758"/>
     <use style="fill:#1f77b4;stroke:#1f77b4;" x="323.294204" xlink:href="#m12048cff86" y="178.433"/>
     <use style="fill:#1f77b4;stroke:#1f77b4;" x="328.206269" xlink:href="#m12048cff86" y="188.49809"/>
     <use style="fill:#1f77b4;stroke:#1f77b4;" x="330.62883" xlink:href="#m12048cff86" y="193.300541"/>
     <use style="fill:#1f77b4;stroke:#1f77b4;" x="331.206168" xlink:href="#m12048cff86" y="194.428184"/>
     <use style="fill:#1f77b4;stroke:#1f77b4;" x="335.188913" xlink:href="#m12048cff86" y="202.021328"/>
     <use style="fill:#1f77b4;stroke:#1f77b4;" x="338.250248" xlink:href="#m12048cff86" y="207.62694"/>
     <use style="fill:#1f77b4;stroke:#1f77b4;" x="338.793147" xlink:href="#m12048cff86" y="208.599285"/>
     <use style="fill:#1f77b4;stroke:#1f77b4;" x="339.611042" xlink:href="#m12048cff86" y="210.051543"/>
     <use style="fill:#1f77b4;stroke:#1f77b4;" x="341.994947" xlink:href="#m12048cff86" y="214.196759"/>
     <use style="fill:#1f77b4;stroke:#1f77b4;" x="345.576667" xlink:href="#m12048cff86" y="220.174282"/>
     <use style="fill:#1f77b4;stroke:#1f77b4;" x="348.083798" xlink:href="#m12048cff86" y="224.175878"/>
     <use style="fill:#1f77b4;stroke:#1f77b4;" x="350.164664" xlink:href="#m12048cff86" y="227.381441"/>
     <use style="fill:#1f77b4;stroke:#1f77b4;" x="350.623506" xlink:href="#m12048cff86" y="228.074091"/>
     <use style="fill:#1f77b4;stroke:#1f77b4;" x="351.700254" xlink:href="#m12048cff86" y="229.679311"/>
     <use style="fill:#1f77b4;stroke:#1f77b4;" x="352.378275" xlink:href="#m12048cff86" y="230.675564"/>
     <use style="fill:#1f77b4;stroke:#1f77b4;" x="354.733081" xlink:href="#m12048cff86" y="234.048239"/>
     <use style="fill:#1f77b4;stroke:#1f77b4;" x="356.109747" xlink:href="#m12048cff86" y="235.957159"/>
     <use style="fill:#1f77b4;stroke:#1f77b4;" x="361.166368" xlink:href="#m12048cff86" y="242.573107"/>
     <use style="fill:#1f77b4;stroke:#1f77b4;" x="363.920709" xlink:href="#m12048cff86" y="245.917902"/>
     <use style="fill:#1f77b4;stroke:#1f77b4;" x="376.823282" xlink:href="#m12048cff86" y="259.259772"/>
     <use style="fill:#1f77b4;stroke:#1f77b4;" x="379.059613" xlink:href="#m12048cff86" y="261.203112"/>
     <use style="fill:#1f77b4;stroke:#1f77b4;" x="391.24573" xlink:href="#m12048cff86" y="270.082258"/>
     <use style="fill:#1f77b4;stroke:#1f77b4;" x="397.393523" xlink:href="#m12048cff86" y="273.57717"/>
    </g>
   </g>
   <g id="patch_13">
    <path d="M 56.50625 288.430125 
L 56.50625 22.318125 
" style="fill:none;stroke:#000000;stroke-linecap:square;stroke-linejoin:miter;stroke-width:0.8;"/>
   </g>
   <g id="patch_14">
    <path d="M 413.62625 288.430125 
L 413.62625 22.318125 
" style="fill:none;stroke:#000000;stroke-linecap:square;stroke-linejoin:miter;stroke-width:0.8;"/>
   </g>
   <g id="patch_15">
    <path d="M 56.50625 288.430125 
L 413.62625 288.430125 
" style="fill:none;stroke:#000000;stroke-linecap:square;stroke-linejoin:miter;stroke-width:0.8;"/>
   </g>
   <g id="patch_16">
    <path d="M 56.50625 22.318125 
L 413.62625 22.318125 
" style="fill:none;stroke:#000000;stroke-linecap:square;stroke-linejoin:miter;stroke-width:0.8;"/>
   </g>
   <g id="text_17">
    <!-- Distribution Between Pairs [d-dim scaled] -->
    <defs>
     <path d="M 8.5 21.578125 
L 8.5 54.6875 
L 17.484375 54.6875 
L 17.484375 21.921875 
Q 17.484375 14.15625 20.5 10.265625 
Q 23.53125 6.390625 29.59375 6.390625 
Q 36.859375 6.390625 41.078125 11.03125 
Q 45.3125 15.671875 45.3125 23.6875 
L 45.3125 54.6875 
L 54.296875 54.6875 
L 54.296875 0 
L 45.3125 0 
L 45.3125 8.40625 
Q 42.046875 3.421875 37.71875 1 
Q 33.40625 -1.421875 27.6875 -1.421875 
Q 18.265625 -1.421875 13.375 4.4375 
Q 8.5 10.296875 8.5 21.578125 
z
M 31.109375 56 
z
" id="DejaVuSans-75"/>
     <path id="DejaVuSans-20"/>
     <path d="M 19.671875 34.8125 
L 19.671875 8.109375 
L 35.5 8.109375 
Q 43.453125 8.109375 47.28125 11.40625 
Q 51.125 14.703125 51.125 21.484375 
Q 51.125 28.328125 47.28125 31.5625 
Q 43.453125 34.8125 35.5 34.8125 
z
M 19.671875 64.796875 
L 19.671875 42.828125 
L 34.28125 42.828125 
Q 41.5 42.828125 45.03125 45.53125 
Q 48.578125 48.25 48.578125 53.8125 
Q 48.578125 59.328125 45.03125 62.0625 
Q 41.5 64.796875 34.28125 64.796875 
z
M 9.8125 72.90625 
L 35.015625 72.90625 
Q 46.296875 72.90625 52.390625 68.21875 
Q 58.5 63.53125 58.5 54.890625 
Q 58.5 48.1875 55.375 44.234375 
Q 52.25 40.28125 46.1875 39.3125 
Q 53.46875 37.75 57.5 32.78125 
Q 61.53125 27.828125 61.53125 20.40625 
Q 61.53125 10.640625 54.890625 5.3125 
Q 48.25 0 35.984375 0 
L 9.8125 0 
z
" id="DejaVuSans-42"/>
     <path d="M 4.203125 54.6875 
L 13.1875 54.6875 
L 24.421875 12.015625 
L 35.59375 54.6875 
L 46.1875 54.6875 
L 57.421875 12.015625 
L 68.609375 54.6875 
L 77.59375 54.6875 
L 63.28125 0 
L 52.6875 0 
L 40.921875 44.828125 
L 29.109375 0 
L 18.5 0 
z
" id="DejaVuSans-77"/>
     <path d="M 8.59375 75.984375 
L 29.296875 75.984375 
L 29.296875 69 
L 17.578125 69 
L 17.578125 -6.203125 
L 29.296875 -6.203125 
L 29.296875 -13.1875 
L 8.59375 -13.1875 
z
" id="DejaVuSans-5b"/>
     <path d="M 45.40625 46.390625 
L 45.40625 75.984375 
L 54.390625 75.984375 
L 54.390625 0 
L 45.40625 0 
L 45.40625 8.203125 
Q 42.578125 3.328125 38.25 0.953125 
Q 33.9375 -1.421875 27.875 -1.421875 
Q 17.96875 -1.421875 11.734375 6.484375 
Q 5.515625 14.40625 5.515625 27.296875 
Q 5.515625 40.1875 11.734375 48.09375 
Q 17.96875 56 27.875 56 
Q 33.9375 56 38.25 53.625 
Q 42.578125 51.265625 45.40625 46.390625 
z
M 14.796875 27.296875 
Q 14.796875 17.390625 18.875 11.75 
Q 22.953125 6.109375 30.078125 6.109375 
Q 37.203125 6.109375 41.296875 11.75 
Q 45.40625 17.390625 45.40625 27.296875 
Q 45.40625 37.203125 41.296875 42.84375 
Q 37.203125 48.484375 30.078125 48.484375 
Q 22.953125 48.484375 18.875 42.84375 
Q 14.796875 37.203125 14.796875 27.296875 
z
" id="DejaVuSans-64"/>
     <path d="M 4.890625 31.390625 
L 31.203125 31.390625 
L 31.203125 23.390625 
L 4.890625 23.390625 
z
" id="DejaVuSans-2d"/>
     <path d="M 52 44.1875 
Q 55.375 50.25 60.0625 53.125 
Q 64.75 56 71.09375 56 
Q 79.640625 56 84.28125 50.015625 
Q 88.921875 44.046875 88.921875 33.015625 
L 88.921875 0 
L 79.890625 0 
L 79.890625 32.71875 
Q 79.890625 40.578125 77.09375 44.375 
Q 74.3125 48.1875 68.609375 48.1875 
Q 61.625 48.1875 57.5625 43.546875 
Q 53.515625 38.921875 53.515625 30.90625 
L 53.515625 0 
L 44.484375 0 
L 44.484375 32.71875 
Q 44.484375 40.625 41.703125 44.40625 
Q 38.921875 48.1875 33.109375 48.1875 
Q 26.21875 48.1875 22.15625 43.53125 
Q 18.109375 38.875 18.109375 30.90625 
L 18.109375 0 
L 9.078125 0 
L 9.078125 54.6875 
L 18.109375 54.6875 
L 18.109375 46.1875 
Q 21.1875 51.21875 25.484375 53.609375 
Q 29.78125 56 35.6875 56 
Q 41.65625 56 45.828125 52.96875 
Q 50 49.953125 52 44.1875 
z
" id="DejaVuSans-6d"/>
     <path d="M 30.421875 75.984375 
L 30.421875 -13.1875 
L 9.71875 -13.1875 
L 9.71875 -6.203125 
L 21.390625 -6.203125 
L 21.390625 69 
L 9.71875 69 
L 9.71875 75.984375 
z
" id="DejaVuSans-5d"/>
    </defs>
    <g transform="translate(110.387187 16.318125)scale(0.12 -0.12)">
     <use xlink:href="#DejaVuSans-44"/>
     <use x="77.001953" xlink:href="#DejaVuSans-69"/>
     <use x="104.785156" xlink:href="#DejaVuSans-73"/>
     <use x="156.884766" xlink:href="#DejaVuSans-74"/>
     <use x="196.09375" xlink:href="#DejaVuSans-72"/>
     <use x="237.207031" xlink:href="#DejaVuSans-69"/>
     <use x="264.990234" xlink:href="#DejaVuSans-62"/>
     <use x="328.466797" xlink:href="#DejaVuSans-75"/>
     <use x="391.845703" xlink:href="#DejaVuSans-74"/>
     <use x="431.054688" xlink:href="#DejaVuSans-69"/>
     <use x="458.837891" xlink:href="#DejaVuSans-6f"/>
     <use x="520.019531" xlink:href="#DejaVuSans-6e"/>
     <use x="583.398438" xlink:href="#DejaVuSans-20"/>
     <use x="615.185547" xlink:href="#DejaVuSans-42"/>
     <use x="683.789062" xlink:href="#DejaVuSans-65"/>
     <use x="745.3125" xlink:href="#DejaVuSans-74"/>
     <use x="784.521484" xlink:href="#DejaVuSans-77"/>
     <use x="866.308594" xlink:href="#DejaVuSans-65"/>
     <use x="927.832031" xlink:href="#DejaVuSans-65"/>
     <use x="989.355469" xlink:href="#DejaVuSans-6e"/>
     <use x="1052.734375" xlink:href="#DejaVuSans-20"/>
     <use x="1084.521484" xlink:href="#DejaVuSans-50"/>
     <use x="1144.761719" xlink:href="#DejaVuSans-61"/>
     <use x="1206.041016" xlink:href="#DejaVuSans-69"/>
     <use x="1233.824219" xlink:href="#DejaVuSans-72"/>
     <use x="1274.9375" xlink:href="#DejaVuSans-73"/>
     <use x="1327.037109" xlink:href="#DejaVuSans-20"/>
     <use x="1358.824219" xlink:href="#DejaVuSans-5b"/>
     <use x="1397.837891" xlink:href="#DejaVuSans-64"/>
     <use x="1461.314453" xlink:href="#DejaVuSans-2d"/>
     <use x="1497.398438" xlink:href="#DejaVuSans-64"/>
     <use x="1560.875" xlink:href="#DejaVuSans-69"/>
     <use x="1588.658203" xlink:href="#DejaVuSans-6d"/>
     <use x="1686.070312" xlink:href="#DejaVuSans-20"/>
     <use x="1717.857422" xlink:href="#DejaVuSans-73"/>
     <use x="1769.957031" xlink:href="#DejaVuSans-63"/>
     <use x="1824.9375" xlink:href="#DejaVuSans-61"/>
     <use x="1886.216797" xlink:href="#DejaVuSans-6c"/>
     <use x="1914" xlink:href="#DejaVuSans-65"/>
     <use x="1975.523438" xlink:href="#DejaVuSans-64"/>
     <use x="2039" xlink:href="#DejaVuSans-5d"/>
    </g>
   </g>
  </g>
  <g id="text_18">
   <g id="patch_17">
    <path d="M 165.809375 386.78175 
L 292.803125 386.78175 
Q 298.803125 386.78175 298.803125 380.78175 
L 298.803125 342.29325 
Q 298.803125 336.29325 292.803125 336.29325 
L 165.809375 336.29325 
Q 159.809375 336.29325 159.809375 342.29325 
L 159.809375 380.78175 
Q 159.809375 386.78175 165.809375 386.78175 
z
" style="fill:#ffffff;stroke:#808080;stroke-linejoin:miter;"/>
   </g>
   <!-- Dimension: 900 -->
   <defs>
    <path d="M 11.71875 12.40625 
L 22.015625 12.40625 
L 22.015625 0 
L 11.71875 0 
z
M 11.71875 51.703125 
L 22.015625 51.703125 
L 22.015625 39.3125 
L 11.71875 39.3125 
z
" id="DejaVuSans-3a"/>
   </defs>
   <g transform="translate(165.809375 351.411375)scale(0.12 -0.12)">
    <use xlink:href="#DejaVuSans-44"/>
    <use x="77.001953" xlink:href="#DejaVuSans-69"/>
    <use x="104.785156" xlink:href="#DejaVuSans-6d"/>
    <use x="202.197266" xlink:href="#DejaVuSans-65"/>
    <use x="263.720703" xlink:href="#DejaVuSans-6e"/>
    <use x="327.099609" xlink:href="#DejaVuSans-73"/>
    <use x="379.199219" xlink:href="#DejaVuSans-69"/>
    <use x="406.982422" xlink:href="#DejaVuSans-6f"/>
    <use x="468.164062" xlink:href="#DejaVuSans-6e"/>
    <use x="531.542969" xlink:href="#DejaVuSans-3a"/>
    <use x="565.234375" xlink:href="#DejaVuSans-20"/>
    <use x="597.021484" xlink:href="#DejaVuSans-39"/>
    <use x="660.644531" xlink:href="#DejaVuSans-30"/>
    <use x="724.267578" xlink:href="#DejaVuSans-30"/>
   </g>
   <!-- Subdimension: 2 -->
   <defs>
    <path d="M 53.515625 70.515625 
L 53.515625 60.890625 
Q 47.90625 63.578125 42.921875 64.890625 
Q 37.9375 66.21875 33.296875 66.21875 
Q 25.25 66.21875 20.875 63.09375 
Q 16.5 59.96875 16.5 54.203125 
Q 16.5 49.359375 19.40625 46.890625 
Q 22.3125 44.4375 30.421875 42.921875 
L 36.375 41.703125 
Q 47.40625 39.59375 52.65625 34.296875 
Q 57.90625 29 57.90625 20.125 
Q 57.90625 9.515625 50.796875 4.046875 
Q 43.703125 -1.421875 29.984375 -1.421875 
Q 24.8125 -1.421875 18.96875 -0.25 
Q 13.140625 0.921875 6.890625 3.21875 
L 6.890625 13.375 
Q 12.890625 10.015625 18.65625 8.296875 
Q 24.421875 6.59375 29.984375 6.59375 
Q 38.421875 6.59375 43.015625 9.90625 
Q 47.609375 13.234375 47.609375 19.390625 
Q 47.609375 24.75 44.3125 27.78125 
Q 41.015625 30.8125 33.5 32.328125 
L 27.484375 33.5 
Q 16.453125 35.6875 11.515625 40.375 
Q 6.59375 45.0625 6.59375 53.421875 
Q 6.59375 63.09375 13.40625 68.65625 
Q 20.21875 74.21875 32.171875 74.21875 
Q 37.3125 74.21875 42.625 73.28125 
Q 47.953125 72.359375 53.515625 70.515625 
z
" id="DejaVuSans-53"/>
   </defs>
   <g transform="translate(165.809375 364.84875)scale(0.12 -0.12)">
    <use xlink:href="#DejaVuSans-53"/>
    <use x="63.476562" xlink:href="#DejaVuSans-75"/>
    <use x="126.855469" xlink:href="#DejaVuSans-62"/>
    <use x="190.332031" xlink:href="#DejaVuSans-64"/>
    <use x="253.808594" xlink:href="#DejaVuSans-69"/>
    <use x="281.591797" xlink:href="#DejaVuSans-6d"/>
    <use x="379.003906" xlink:href="#DejaVuSans-65"/>
    <use x="440.527344" xlink:href="#DejaVuSans-6e"/>
    <use x="503.90625" xlink:href="#DejaVuSans-73"/>
    <use x="556.005859" xlink:href="#DejaVuSans-69"/>
    <use x="583.789062" xlink:href="#DejaVuSans-6f"/>
    <use x="644.970703" xlink:href="#DejaVuSans-6e"/>
    <use x="708.349609" xlink:href="#DejaVuSans-3a"/>
    <use x="742.041016" xlink:href="#DejaVuSans-20"/>
    <use x="773.828125" xlink:href="#DejaVuSans-32"/>
   </g>
   <!-- Number of Points: 20 -->
   <defs>
    <path d="M 9.8125 72.90625 
L 23.09375 72.90625 
L 55.421875 11.921875 
L 55.421875 72.90625 
L 64.984375 72.90625 
L 64.984375 0 
L 51.703125 0 
L 19.390625 60.984375 
L 19.390625 0 
L 9.8125 0 
z
" id="DejaVuSans-4e"/>
    <path d="M 37.109375 75.984375 
L 37.109375 68.5 
L 28.515625 68.5 
Q 23.6875 68.5 21.796875 66.546875 
Q 19.921875 64.59375 19.921875 59.515625 
L 19.921875 54.6875 
L 34.71875 54.6875 
L 34.71875 47.703125 
L 19.921875 47.703125 
L 19.921875 0 
L 10.890625 0 
L 10.890625 47.703125 
L 2.296875 47.703125 
L 2.296875 54.6875 
L 10.890625 54.6875 
L 10.890625 58.5 
Q 10.890625 67.625 15.140625 71.796875 
Q 19.390625 75.984375 28.609375 75.984375 
z
" id="DejaVuSans-66"/>
   </defs>
   <g transform="translate(165.809375 378.286125)scale(0.12 -0.12)">
    <use xlink:href="#DejaVuSans-4e"/>
    <use x="74.804688" xlink:href="#DejaVuSans-75"/>
    <use x="138.183594" xlink:href="#DejaVuSans-6d"/>
    <use x="235.595703" xlink:href="#DejaVuSans-62"/>
    <use x="299.072266" xlink:href="#DejaVuSans-65"/>
    <use x="360.595703" xlink:href="#DejaVuSans-72"/>
    <use x="401.708984" xlink:href="#DejaVuSans-20"/>
    <use x="433.496094" xlink:href="#DejaVuSans-6f"/>
    <use x="494.677734" xlink:href="#DejaVuSans-66"/>
    <use x="529.882812" xlink:href="#DejaVuSans-20"/>
    <use x="561.669922" xlink:href="#DejaVuSans-50"/>
    <use x="621.925781" xlink:href="#DejaVuSans-6f"/>
    <use x="683.107422" xlink:href="#DejaVuSans-69"/>
    <use x="710.890625" xlink:href="#DejaVuSans-6e"/>
    <use x="774.269531" xlink:href="#DejaVuSans-74"/>
    <use x="813.478516" xlink:href="#DejaVuSans-73"/>
    <use x="865.578125" xlink:href="#DejaVuSans-3a"/>
    <use x="899.269531" xlink:href="#DejaVuSans-20"/>
    <use x="931.056641" xlink:href="#DejaVuSans-32"/>
    <use x="994.679688" xlink:href="#DejaVuSans-30"/>
   </g>
  </g>
 </g>
 <defs>
  <clipPath id="pc4a04b0995">
   <rect height="266.112" width="357.12" x="56.50625" y="22.318125"/>
  </clipPath>
 </defs>
</svg>
