<?xml version="1.0" encoding="utf-8" standalone="no"?>
<!DOCTYPE svg PUBLIC "-//W3C//DTD SVG 1.1//EN"
  "http://www.w3.org/Graphics/SVG/1.1/DTD/svg11.dtd">
<!-- Created with matplotlib (http://matplotlib.org/) -->
<svg height="370pt" version="1.1" viewBox="0 0 417 370" width="417pt" xmlns="http://www.w3.org/2000/svg" xmlns:xlink="http://www.w3.org/1999/xlink">
 <defs>
  <style type="text/css">
*{stroke-linecap:butt;stroke-linejoin:round;}
  </style>
 </defs>
 <g id="figure_1">
  <g id="patch_1">
   <path d="M 0 370.70175 
L 417.96375 370.70175 
L 417.96375 0 
L 0 0 
z
" style="fill:#ffffff;"/>
  </g>
  <g id="axes_1">
   <g id="patch_2">
    <path d="M 50.14375 288.430125 
L 407.26375 288.430125 
L 407.26375 22.318125 
L 50.14375 22.318125 
z
" style="fill:#ffffff;"/>
   </g>
   <g id="patch_3">
    <path clip-path="url(#pfaf609d107)" d="M 66.376477 288.430125 
L 98.841932 288.430125 
L 98.841932 282.829942 
L 66.376477 282.829942 
z
" style="fill:#ff7f0e;"/>
   </g>
   <g id="patch_4">
    <path clip-path="url(#pfaf609d107)" d="M 98.841932 288.430125 
L 131.307386 288.430125 
L 131.307386 277.229758 
L 98.841932 277.229758 
z
" style="fill:#ff7f0e;"/>
   </g>
   <g id="patch_5">
    <path clip-path="url(#pfaf609d107)" d="M 131.307386 288.430125 
L 163.772841 288.430125 
L 163.772841 260.429208 
L 131.307386 260.429208 
z
" style="fill:#ff7f0e;"/>
   </g>
   <g id="patch_6">
    <path clip-path="url(#pfaf609d107)" d="M 163.772841 288.430125 
L 196.238295 288.430125 
L 196.238295 170.826275 
L 163.772841 170.826275 
z
" style="fill:#ff7f0e;"/>
   </g>
   <g id="patch_7">
    <path clip-path="url(#pfaf609d107)" d="M 196.238295 288.430125 
L 228.70375 288.430125 
L 228.70375 64.422791 
L 196.238295 64.422791 
z
" style="fill:#ff7f0e;"/>
   </g>
   <g id="patch_8">
    <path clip-path="url(#pfaf609d107)" d="M 228.70375 288.430125 
L 261.169205 288.430125 
L 261.169205 47.622241 
L 228.70375 47.622241 
z
" style="fill:#ff7f0e;"/>
   </g>
   <g id="patch_9">
    <path clip-path="url(#pfaf609d107)" d="M 261.169205 288.430125 
L 293.634659 288.430125 
L 293.634659 86.823525 
L 261.169205 86.823525 
z
" style="fill:#ff7f0e;"/>
   </g>
   <g id="patch_10">
    <path clip-path="url(#pfaf609d107)" d="M 293.634659 288.430125 
L 326.100114 288.430125 
L 326.100114 148.425541 
L 293.634659 148.425541 
z
" style="fill:#ff7f0e;"/>
   </g>
   <g id="patch_11">
    <path clip-path="url(#pfaf609d107)" d="M 326.100114 288.430125 
L 358.565568 288.430125 
L 358.565568 226.828108 
L 326.100114 226.828108 
z
" style="fill:#ff7f0e;"/>
   </g>
   <g id="patch_12">
    <path clip-path="url(#pfaf609d107)" d="M 358.565568 288.430125 
L 391.031023 288.430125 
L 391.031023 254.829025 
L 358.565568 254.829025 
z
" style="fill:#ff7f0e;"/>
   </g>
   <g id="matplotlib.axis_1">
    <g id="xtick_1">
     <g id="line2d_1">
      <defs>
       <path d="M 0 0 
L 0 3.5 
" id="mcec16eaca5" style="stroke:#000000;stroke-width:0.8;"/>
      </defs>
      <g>
       <use style="stroke:#000000;stroke-width:0.8;" x="72.636803" xlink:href="#mcec16eaca5" y="288.430125"/>
      </g>
     </g>
     <g id="text_1">
      <!-- 39 -->
      <defs>
       <path d="M 40.578125 39.3125 
Q 47.65625 37.796875 51.625 33 
Q 55.609375 28.21875 55.609375 21.1875 
Q 55.609375 10.40625 48.1875 4.484375 
Q 40.765625 -1.421875 27.09375 -1.421875 
Q 22.515625 -1.421875 17.65625 -0.515625 
Q 12.796875 0.390625 7.625 2.203125 
L 7.625 11.71875 
Q 11.71875 9.328125 16.59375 8.109375 
Q 21.484375 6.890625 26.8125 6.890625 
Q 36.078125 6.890625 40.9375 10.546875 
Q 45.796875 14.203125 45.796875 21.1875 
Q 45.796875 27.640625 41.28125 31.265625 
Q 36.765625 34.90625 28.71875 34.90625 
L 20.21875 34.90625 
L 20.21875 43.015625 
L 29.109375 43.015625 
Q 36.375 43.015625 40.234375 45.921875 
Q 44.09375 48.828125 44.09375 54.296875 
Q 44.09375 59.90625 40.109375 62.90625 
Q 36.140625 65.921875 28.71875 65.921875 
Q 24.65625 65.921875 20.015625 65.03125 
Q 15.375 64.15625 9.8125 62.3125 
L 9.8125 71.09375 
Q 15.4375 72.65625 20.34375 73.4375 
Q 25.25 74.21875 29.59375 74.21875 
Q 40.828125 74.21875 47.359375 69.109375 
Q 53.90625 64.015625 53.90625 55.328125 
Q 53.90625 49.265625 50.4375 45.09375 
Q 46.96875 40.921875 40.578125 39.3125 
z
" id="DejaVuSans-33"/>
       <path d="M 10.984375 1.515625 
L 10.984375 10.5 
Q 14.703125 8.734375 18.5 7.8125 
Q 22.3125 6.890625 25.984375 6.890625 
Q 35.75 6.890625 40.890625 13.453125 
Q 46.046875 20.015625 46.78125 33.40625 
Q 43.953125 29.203125 39.59375 26.953125 
Q 35.25 24.703125 29.984375 24.703125 
Q 19.046875 24.703125 12.671875 31.3125 
Q 6.296875 37.9375 6.296875 49.421875 
Q 6.296875 60.640625 12.9375 67.421875 
Q 19.578125 74.21875 30.609375 74.21875 
Q 43.265625 74.21875 49.921875 64.515625 
Q 56.59375 54.828125 56.59375 36.375 
Q 56.59375 19.140625 48.40625 8.859375 
Q 40.234375 -1.421875 26.421875 -1.421875 
Q 22.703125 -1.421875 18.890625 -0.6875 
Q 15.09375 0.046875 10.984375 1.515625 
z
M 30.609375 32.421875 
Q 37.25 32.421875 41.125 36.953125 
Q 45.015625 41.5 45.015625 49.421875 
Q 45.015625 57.28125 41.125 61.84375 
Q 37.25 66.40625 30.609375 66.40625 
Q 23.96875 66.40625 20.09375 61.84375 
Q 16.21875 57.28125 16.21875 49.421875 
Q 16.21875 41.5 20.09375 36.953125 
Q 23.96875 32.421875 30.609375 32.421875 
z
" id="DejaVuSans-39"/>
      </defs>
      <g transform="translate(66.274303 303.028562)scale(0.1 -0.1)">
       <use xlink:href="#DejaVuSans-33"/>
       <use x="63.623047" xlink:href="#DejaVuSans-39"/>
      </g>
     </g>
    </g>
    <g id="xtick_2">
     <g id="line2d_2">
      <g>
       <use style="stroke:#000000;stroke-width:0.8;" x="129.770441" xlink:href="#mcec16eaca5" y="288.430125"/>
      </g>
     </g>
     <g id="text_2">
      <!-- 40 -->
      <defs>
       <path d="M 37.796875 64.3125 
L 12.890625 25.390625 
L 37.796875 25.390625 
z
M 35.203125 72.90625 
L 47.609375 72.90625 
L 47.609375 25.390625 
L 58.015625 25.390625 
L 58.015625 17.1875 
L 47.609375 17.1875 
L 47.609375 0 
L 37.796875 0 
L 37.796875 17.1875 
L 4.890625 17.1875 
L 4.890625 26.703125 
z
" id="DejaVuSans-34"/>
       <path d="M 31.78125 66.40625 
Q 24.171875 66.40625 20.328125 58.90625 
Q 16.5 51.421875 16.5 36.375 
Q 16.5 21.390625 20.328125 13.890625 
Q 24.171875 6.390625 31.78125 6.390625 
Q 39.453125 6.390625 43.28125 13.890625 
Q 47.125 21.390625 47.125 36.375 
Q 47.125 51.421875 43.28125 58.90625 
Q 39.453125 66.40625 31.78125 66.40625 
z
M 31.78125 74.21875 
Q 44.046875 74.21875 50.515625 64.515625 
Q 56.984375 54.828125 56.984375 36.375 
Q 56.984375 17.96875 50.515625 8.265625 
Q 44.046875 -1.421875 31.78125 -1.421875 
Q 19.53125 -1.421875 13.0625 8.265625 
Q 6.59375 17.96875 6.59375 36.375 
Q 6.59375 54.828125 13.0625 64.515625 
Q 19.53125 74.21875 31.78125 74.21875 
z
" id="DejaVuSans-30"/>
      </defs>
      <g transform="translate(123.407941 303.028562)scale(0.1 -0.1)">
       <use xlink:href="#DejaVuSans-34"/>
       <use x="63.623047" xlink:href="#DejaVuSans-30"/>
      </g>
     </g>
    </g>
    <g id="xtick_3">
     <g id="line2d_3">
      <g>
       <use style="stroke:#000000;stroke-width:0.8;" x="186.90408" xlink:href="#mcec16eaca5" y="288.430125"/>
      </g>
     </g>
     <g id="text_3">
      <!-- 41 -->
      <defs>
       <path d="M 12.40625 8.296875 
L 28.515625 8.296875 
L 28.515625 63.921875 
L 10.984375 60.40625 
L 10.984375 69.390625 
L 28.421875 72.90625 
L 38.28125 72.90625 
L 38.28125 8.296875 
L 54.390625 8.296875 
L 54.390625 0 
L 12.40625 0 
z
" id="DejaVuSans-31"/>
      </defs>
      <g transform="translate(180.54158 303.028562)scale(0.1 -0.1)">
       <use xlink:href="#DejaVuSans-34"/>
       <use x="63.623047" xlink:href="#DejaVuSans-31"/>
      </g>
     </g>
    </g>
    <g id="xtick_4">
     <g id="line2d_4">
      <g>
       <use style="stroke:#000000;stroke-width:0.8;" x="244.037718" xlink:href="#mcec16eaca5" y="288.430125"/>
      </g>
     </g>
     <g id="text_4">
      <!-- 42 -->
      <defs>
       <path d="M 19.1875 8.296875 
L 53.609375 8.296875 
L 53.609375 0 
L 7.328125 0 
L 7.328125 8.296875 
Q 12.9375 14.109375 22.625 23.890625 
Q 32.328125 33.6875 34.8125 36.53125 
Q 39.546875 41.84375 41.421875 45.53125 
Q 43.3125 49.21875 43.3125 52.78125 
Q 43.3125 58.59375 39.234375 62.25 
Q 35.15625 65.921875 28.609375 65.921875 
Q 23.96875 65.921875 18.8125 64.3125 
Q 13.671875 62.703125 7.8125 59.421875 
L 7.8125 69.390625 
Q 13.765625 71.78125 18.9375 73 
Q 24.125 74.21875 28.421875 74.21875 
Q 39.75 74.21875 46.484375 68.546875 
Q 53.21875 62.890625 53.21875 53.421875 
Q 53.21875 48.921875 51.53125 44.890625 
Q 49.859375 40.875 45.40625 35.40625 
Q 44.1875 33.984375 37.640625 27.21875 
Q 31.109375 20.453125 19.1875 8.296875 
z
" id="DejaVuSans-32"/>
      </defs>
      <g transform="translate(237.675218 303.028562)scale(0.1 -0.1)">
       <use xlink:href="#DejaVuSans-34"/>
       <use x="63.623047" xlink:href="#DejaVuSans-32"/>
      </g>
     </g>
    </g>
    <g id="xtick_5">
     <g id="line2d_5">
      <g>
       <use style="stroke:#000000;stroke-width:0.8;" x="301.171357" xlink:href="#mcec16eaca5" y="288.430125"/>
      </g>
     </g>
     <g id="text_5">
      <!-- 43 -->
      <g transform="translate(294.808857 303.028562)scale(0.1 -0.1)">
       <use xlink:href="#DejaVuSans-34"/>
       <use x="63.623047" xlink:href="#DejaVuSans-33"/>
      </g>
     </g>
    </g>
    <g id="xtick_6">
     <g id="line2d_6">
      <g>
       <use style="stroke:#000000;stroke-width:0.8;" x="358.304996" xlink:href="#mcec16eaca5" y="288.430125"/>
      </g>
     </g>
     <g id="text_6">
      <!-- 44 -->
      <g transform="translate(351.942496 303.028562)scale(0.1 -0.1)">
       <use xlink:href="#DejaVuSans-34"/>
       <use x="63.623047" xlink:href="#DejaVuSans-34"/>
      </g>
     </g>
    </g>
    <g id="text_7">
     <!-- Distance -->
     <defs>
      <path d="M 19.671875 64.796875 
L 19.671875 8.109375 
L 31.59375 8.109375 
Q 46.6875 8.109375 53.6875 14.9375 
Q 60.6875 21.78125 60.6875 36.53125 
Q 60.6875 51.171875 53.6875 57.984375 
Q 46.6875 64.796875 31.59375 64.796875 
z
M 9.8125 72.90625 
L 30.078125 72.90625 
Q 51.265625 72.90625 61.171875 64.09375 
Q 71.09375 55.28125 71.09375 36.53125 
Q 71.09375 17.671875 61.125 8.828125 
Q 51.171875 0 30.078125 0 
L 9.8125 0 
z
" id="DejaVuSans-44"/>
      <path d="M 9.421875 54.6875 
L 18.40625 54.6875 
L 18.40625 0 
L 9.421875 0 
z
M 9.421875 75.984375 
L 18.40625 75.984375 
L 18.40625 64.59375 
L 9.421875 64.59375 
z
" id="DejaVuSans-69"/>
      <path d="M 44.28125 53.078125 
L 44.28125 44.578125 
Q 40.484375 46.53125 36.375 47.5 
Q 32.28125 48.484375 27.875 48.484375 
Q 21.1875 48.484375 17.84375 46.4375 
Q 14.5 44.390625 14.5 40.28125 
Q 14.5 37.15625 16.890625 35.375 
Q 19.28125 33.59375 26.515625 31.984375 
L 29.59375 31.296875 
Q 39.15625 29.25 43.1875 25.515625 
Q 47.21875 21.78125 47.21875 15.09375 
Q 47.21875 7.46875 41.1875 3.015625 
Q 35.15625 -1.421875 24.609375 -1.421875 
Q 20.21875 -1.421875 15.453125 -0.5625 
Q 10.6875 0.296875 5.421875 2 
L 5.421875 11.28125 
Q 10.40625 8.6875 15.234375 7.390625 
Q 20.0625 6.109375 24.8125 6.109375 
Q 31.15625 6.109375 34.5625 8.28125 
Q 37.984375 10.453125 37.984375 14.40625 
Q 37.984375 18.0625 35.515625 20.015625 
Q 33.0625 21.96875 24.703125 23.78125 
L 21.578125 24.515625 
Q 13.234375 26.265625 9.515625 29.90625 
Q 5.8125 33.546875 5.8125 39.890625 
Q 5.8125 47.609375 11.28125 51.796875 
Q 16.75 56 26.8125 56 
Q 31.78125 56 36.171875 55.265625 
Q 40.578125 54.546875 44.28125 53.078125 
z
" id="DejaVuSans-73"/>
      <path d="M 18.3125 70.21875 
L 18.3125 54.6875 
L 36.8125 54.6875 
L 36.8125 47.703125 
L 18.3125 47.703125 
L 18.3125 18.015625 
Q 18.3125 11.328125 20.140625 9.421875 
Q 21.96875 7.515625 27.59375 7.515625 
L 36.8125 7.515625 
L 36.8125 0 
L 27.59375 0 
Q 17.1875 0 13.234375 3.875 
Q 9.28125 7.765625 9.28125 18.015625 
L 9.28125 47.703125 
L 2.6875 47.703125 
L 2.6875 54.6875 
L 9.28125 54.6875 
L 9.28125 70.21875 
z
" id="DejaVuSans-74"/>
      <path d="M 34.28125 27.484375 
Q 23.390625 27.484375 19.1875 25 
Q 14.984375 22.515625 14.984375 16.5 
Q 14.984375 11.71875 18.140625 8.90625 
Q 21.296875 6.109375 26.703125 6.109375 
Q 34.1875 6.109375 38.703125 11.40625 
Q 43.21875 16.703125 43.21875 25.484375 
L 43.21875 27.484375 
z
M 52.203125 31.203125 
L 52.203125 0 
L 43.21875 0 
L 43.21875 8.296875 
Q 40.140625 3.328125 35.546875 0.953125 
Q 30.953125 -1.421875 24.3125 -1.421875 
Q 15.921875 -1.421875 10.953125 3.296875 
Q 6 8.015625 6 15.921875 
Q 6 25.140625 12.171875 29.828125 
Q 18.359375 34.515625 30.609375 34.515625 
L 43.21875 34.515625 
L 43.21875 35.40625 
Q 43.21875 41.609375 39.140625 45 
Q 35.0625 48.390625 27.6875 48.390625 
Q 23 48.390625 18.546875 47.265625 
Q 14.109375 46.140625 10.015625 43.890625 
L 10.015625 52.203125 
Q 14.9375 54.109375 19.578125 55.046875 
Q 24.21875 56 28.609375 56 
Q 40.484375 56 46.34375 49.84375 
Q 52.203125 43.703125 52.203125 31.203125 
z
" id="DejaVuSans-61"/>
      <path d="M 54.890625 33.015625 
L 54.890625 0 
L 45.90625 0 
L 45.90625 32.71875 
Q 45.90625 40.484375 42.875 44.328125 
Q 39.84375 48.1875 33.796875 48.1875 
Q 26.515625 48.1875 22.3125 43.546875 
Q 18.109375 38.921875 18.109375 30.90625 
L 18.109375 0 
L 9.078125 0 
L 9.078125 54.6875 
L 18.109375 54.6875 
L 18.109375 46.1875 
Q 21.34375 51.125 25.703125 53.5625 
Q 30.078125 56 35.796875 56 
Q 45.21875 56 50.046875 50.171875 
Q 54.890625 44.34375 54.890625 33.015625 
z
" id="DejaVuSans-6e"/>
      <path d="M 48.78125 52.59375 
L 48.78125 44.1875 
Q 44.96875 46.296875 41.140625 47.34375 
Q 37.3125 48.390625 33.40625 48.390625 
Q 24.65625 48.390625 19.8125 42.84375 
Q 14.984375 37.3125 14.984375 27.296875 
Q 14.984375 17.28125 19.8125 11.734375 
Q 24.65625 6.203125 33.40625 6.203125 
Q 37.3125 6.203125 41.140625 7.25 
Q 44.96875 8.296875 48.78125 10.40625 
L 48.78125 2.09375 
Q 45.015625 0.34375 40.984375 -0.53125 
Q 36.96875 -1.421875 32.421875 -1.421875 
Q 20.0625 -1.421875 12.78125 6.34375 
Q 5.515625 14.109375 5.515625 27.296875 
Q 5.515625 40.671875 12.859375 48.328125 
Q 20.21875 56 33.015625 56 
Q 37.15625 56 41.109375 55.140625 
Q 45.0625 54.296875 48.78125 52.59375 
z
" id="DejaVuSans-63"/>
      <path d="M 56.203125 29.59375 
L 56.203125 25.203125 
L 14.890625 25.203125 
Q 15.484375 15.921875 20.484375 11.0625 
Q 25.484375 6.203125 34.421875 6.203125 
Q 39.59375 6.203125 44.453125 7.46875 
Q 49.3125 8.734375 54.109375 11.28125 
L 54.109375 2.78125 
Q 49.265625 0.734375 44.1875 -0.34375 
Q 39.109375 -1.421875 33.890625 -1.421875 
Q 20.796875 -1.421875 13.15625 6.1875 
Q 5.515625 13.8125 5.515625 26.8125 
Q 5.515625 40.234375 12.765625 48.109375 
Q 20.015625 56 32.328125 56 
Q 43.359375 56 49.78125 48.890625 
Q 56.203125 41.796875 56.203125 29.59375 
z
M 47.21875 32.234375 
Q 47.125 39.59375 43.09375 43.984375 
Q 39.0625 48.390625 32.421875 48.390625 
Q 24.90625 48.390625 20.390625 44.140625 
Q 15.875 39.890625 15.1875 32.171875 
z
" id="DejaVuSans-65"/>
     </defs>
     <g transform="translate(206.84125 316.706687)scale(0.1 -0.1)">
      <use xlink:href="#DejaVuSans-44"/>
      <use x="77.001953" xlink:href="#DejaVuSans-69"/>
      <use x="104.785156" xlink:href="#DejaVuSans-73"/>
      <use x="156.884766" xlink:href="#DejaVuSans-74"/>
      <use x="196.09375" xlink:href="#DejaVuSans-61"/>
      <use x="257.373047" xlink:href="#DejaVuSans-6e"/>
      <use x="320.751953" xlink:href="#DejaVuSans-63"/>
      <use x="375.732422" xlink:href="#DejaVuSans-65"/>
     </g>
    </g>
   </g>
   <g id="matplotlib.axis_2">
    <g id="ytick_1">
     <g id="line2d_7">
      <defs>
       <path d="M 0 0 
L -3.5 0 
" id="made5a4daaa" style="stroke:#000000;stroke-width:0.8;"/>
      </defs>
      <g>
       <use style="stroke:#000000;stroke-width:0.8;" x="50.14375" xlink:href="#made5a4daaa" y="288.430125"/>
      </g>
     </g>
     <g id="text_8">
      <!-- 0.00 -->
      <defs>
       <path d="M 10.6875 12.40625 
L 21 12.40625 
L 21 0 
L 10.6875 0 
z
" id="DejaVuSans-2e"/>
      </defs>
      <g transform="translate(20.878125 292.229344)scale(0.1 -0.1)">
       <use xlink:href="#DejaVuSans-30"/>
       <use x="63.623047" xlink:href="#DejaVuSans-2e"/>
       <use x="95.410156" xlink:href="#DejaVuSans-30"/>
       <use x="159.033203" xlink:href="#DejaVuSans-30"/>
      </g>
     </g>
    </g>
    <g id="ytick_2">
     <g id="line2d_8">
      <g>
       <use style="stroke:#000000;stroke-width:0.8;" x="50.14375" xlink:href="#made5a4daaa" y="258.19892"/>
      </g>
     </g>
     <g id="text_9">
      <!-- 0.05 -->
      <defs>
       <path d="M 10.796875 72.90625 
L 49.515625 72.90625 
L 49.515625 64.59375 
L 19.828125 64.59375 
L 19.828125 46.734375 
Q 21.96875 47.46875 24.109375 47.828125 
Q 26.265625 48.1875 28.421875 48.1875 
Q 40.625 48.1875 47.75 41.5 
Q 54.890625 34.8125 54.890625 23.390625 
Q 54.890625 11.625 47.5625 5.09375 
Q 40.234375 -1.421875 26.90625 -1.421875 
Q 22.3125 -1.421875 17.546875 -0.640625 
Q 12.796875 0.140625 7.71875 1.703125 
L 7.71875 11.625 
Q 12.109375 9.234375 16.796875 8.0625 
Q 21.484375 6.890625 26.703125 6.890625 
Q 35.15625 6.890625 40.078125 11.328125 
Q 45.015625 15.765625 45.015625 23.390625 
Q 45.015625 31 40.078125 35.4375 
Q 35.15625 39.890625 26.703125 39.890625 
Q 22.75 39.890625 18.8125 39.015625 
Q 14.890625 38.140625 10.796875 36.28125 
z
" id="DejaVuSans-35"/>
      </defs>
      <g transform="translate(20.878125 261.998139)scale(0.1 -0.1)">
       <use xlink:href="#DejaVuSans-30"/>
       <use x="63.623047" xlink:href="#DejaVuSans-2e"/>
       <use x="95.410156" xlink:href="#DejaVuSans-30"/>
       <use x="159.033203" xlink:href="#DejaVuSans-35"/>
      </g>
     </g>
    </g>
    <g id="ytick_3">
     <g id="line2d_9">
      <g>
       <use style="stroke:#000000;stroke-width:0.8;" x="50.14375" xlink:href="#made5a4daaa" y="227.967715"/>
      </g>
     </g>
     <g id="text_10">
      <!-- 0.10 -->
      <g transform="translate(20.878125 231.766934)scale(0.1 -0.1)">
       <use xlink:href="#DejaVuSans-30"/>
       <use x="63.623047" xlink:href="#DejaVuSans-2e"/>
       <use x="95.410156" xlink:href="#DejaVuSans-31"/>
       <use x="159.033203" xlink:href="#DejaVuSans-30"/>
      </g>
     </g>
    </g>
    <g id="ytick_4">
     <g id="line2d_10">
      <g>
       <use style="stroke:#000000;stroke-width:0.8;" x="50.14375" xlink:href="#made5a4daaa" y="197.736511"/>
      </g>
     </g>
     <g id="text_11">
      <!-- 0.15 -->
      <g transform="translate(20.878125 201.535729)scale(0.1 -0.1)">
       <use xlink:href="#DejaVuSans-30"/>
       <use x="63.623047" xlink:href="#DejaVuSans-2e"/>
       <use x="95.410156" xlink:href="#DejaVuSans-31"/>
       <use x="159.033203" xlink:href="#DejaVuSans-35"/>
      </g>
     </g>
    </g>
    <g id="ytick_5">
     <g id="line2d_11">
      <g>
       <use style="stroke:#000000;stroke-width:0.8;" x="50.14375" xlink:href="#made5a4daaa" y="167.505306"/>
      </g>
     </g>
     <g id="text_12">
      <!-- 0.20 -->
      <g transform="translate(20.878125 171.304525)scale(0.1 -0.1)">
       <use xlink:href="#DejaVuSans-30"/>
       <use x="63.623047" xlink:href="#DejaVuSans-2e"/>
       <use x="95.410156" xlink:href="#DejaVuSans-32"/>
       <use x="159.033203" xlink:href="#DejaVuSans-30"/>
      </g>
     </g>
    </g>
    <g id="ytick_6">
     <g id="line2d_12">
      <g>
       <use style="stroke:#000000;stroke-width:0.8;" x="50.14375" xlink:href="#made5a4daaa" y="137.274101"/>
      </g>
     </g>
     <g id="text_13">
      <!-- 0.25 -->
      <g transform="translate(20.878125 141.07332)scale(0.1 -0.1)">
       <use xlink:href="#DejaVuSans-30"/>
       <use x="63.623047" xlink:href="#DejaVuSans-2e"/>
       <use x="95.410156" xlink:href="#DejaVuSans-32"/>
       <use x="159.033203" xlink:href="#DejaVuSans-35"/>
      </g>
     </g>
    </g>
    <g id="ytick_7">
     <g id="line2d_13">
      <g>
       <use style="stroke:#000000;stroke-width:0.8;" x="50.14375" xlink:href="#made5a4daaa" y="107.042896"/>
      </g>
     </g>
     <g id="text_14">
      <!-- 0.30 -->
      <g transform="translate(20.878125 110.842115)scale(0.1 -0.1)">
       <use xlink:href="#DejaVuSans-30"/>
       <use x="63.623047" xlink:href="#DejaVuSans-2e"/>
       <use x="95.410156" xlink:href="#DejaVuSans-33"/>
       <use x="159.033203" xlink:href="#DejaVuSans-30"/>
      </g>
     </g>
    </g>
    <g id="ytick_8">
     <g id="line2d_14">
      <g>
       <use style="stroke:#000000;stroke-width:0.8;" x="50.14375" xlink:href="#made5a4daaa" y="76.811691"/>
      </g>
     </g>
     <g id="text_15">
      <!-- 0.35 -->
      <g transform="translate(20.878125 80.61091)scale(0.1 -0.1)">
       <use xlink:href="#DejaVuSans-30"/>
       <use x="63.623047" xlink:href="#DejaVuSans-2e"/>
       <use x="95.410156" xlink:href="#DejaVuSans-33"/>
       <use x="159.033203" xlink:href="#DejaVuSans-35"/>
      </g>
     </g>
    </g>
    <g id="ytick_9">
     <g id="line2d_15">
      <g>
       <use style="stroke:#000000;stroke-width:0.8;" x="50.14375" xlink:href="#made5a4daaa" y="46.580487"/>
      </g>
     </g>
     <g id="text_16">
      <!-- 0.40 -->
      <g transform="translate(20.878125 50.379705)scale(0.1 -0.1)">
       <use xlink:href="#DejaVuSans-30"/>
       <use x="63.623047" xlink:href="#DejaVuSans-2e"/>
       <use x="95.410156" xlink:href="#DejaVuSans-34"/>
       <use x="159.033203" xlink:href="#DejaVuSans-30"/>
      </g>
     </g>
    </g>
    <g id="text_17">
     <!-- Frequency -->
     <defs>
      <path d="M 9.8125 72.90625 
L 51.703125 72.90625 
L 51.703125 64.59375 
L 19.671875 64.59375 
L 19.671875 43.109375 
L 48.578125 43.109375 
L 48.578125 34.8125 
L 19.671875 34.8125 
L 19.671875 0 
L 9.8125 0 
z
" id="DejaVuSans-46"/>
      <path d="M 41.109375 46.296875 
Q 39.59375 47.171875 37.8125 47.578125 
Q 36.03125 48 33.890625 48 
Q 26.265625 48 22.1875 43.046875 
Q 18.109375 38.09375 18.109375 28.8125 
L 18.109375 0 
L 9.078125 0 
L 9.078125 54.6875 
L 18.109375 54.6875 
L 18.109375 46.1875 
Q 20.953125 51.171875 25.484375 53.578125 
Q 30.03125 56 36.53125 56 
Q 37.453125 56 38.578125 55.875 
Q 39.703125 55.765625 41.0625 55.515625 
z
" id="DejaVuSans-72"/>
      <path d="M 14.796875 27.296875 
Q 14.796875 17.390625 18.875 11.75 
Q 22.953125 6.109375 30.078125 6.109375 
Q 37.203125 6.109375 41.296875 11.75 
Q 45.40625 17.390625 45.40625 27.296875 
Q 45.40625 37.203125 41.296875 42.84375 
Q 37.203125 48.484375 30.078125 48.484375 
Q 22.953125 48.484375 18.875 42.84375 
Q 14.796875 37.203125 14.796875 27.296875 
z
M 45.40625 8.203125 
Q 42.578125 3.328125 38.25 0.953125 
Q 33.9375 -1.421875 27.875 -1.421875 
Q 17.96875 -1.421875 11.734375 6.484375 
Q 5.515625 14.40625 5.515625 27.296875 
Q 5.515625 40.1875 11.734375 48.09375 
Q 17.96875 56 27.875 56 
Q 33.9375 56 38.25 53.625 
Q 42.578125 51.265625 45.40625 46.390625 
L 45.40625 54.6875 
L 54.390625 54.6875 
L 54.390625 -20.796875 
L 45.40625 -20.796875 
z
" id="DejaVuSans-71"/>
      <path d="M 8.5 21.578125 
L 8.5 54.6875 
L 17.484375 54.6875 
L 17.484375 21.921875 
Q 17.484375 14.15625 20.5 10.265625 
Q 23.53125 6.390625 29.59375 6.390625 
Q 36.859375 6.390625 41.078125 11.03125 
Q 45.3125 15.671875 45.3125 23.6875 
L 45.3125 54.6875 
L 54.296875 54.6875 
L 54.296875 0 
L 45.3125 0 
L 45.3125 8.40625 
Q 42.046875 3.421875 37.71875 1 
Q 33.40625 -1.421875 27.6875 -1.421875 
Q 18.265625 -1.421875 13.375 4.4375 
Q 8.5 10.296875 8.5 21.578125 
z
M 31.109375 56 
z
" id="DejaVuSans-75"/>
      <path d="M 32.171875 -5.078125 
Q 28.375 -14.84375 24.75 -17.8125 
Q 21.140625 -20.796875 15.09375 -20.796875 
L 7.90625 -20.796875 
L 7.90625 -13.28125 
L 13.1875 -13.28125 
Q 16.890625 -13.28125 18.9375 -11.515625 
Q 21 -9.765625 23.484375 -3.21875 
L 25.09375 0.875 
L 2.984375 54.6875 
L 12.5 54.6875 
L 29.59375 11.921875 
L 46.6875 54.6875 
L 56.203125 54.6875 
z
" id="DejaVuSans-79"/>
     </defs>
     <g transform="translate(14.798438 181.671781)rotate(-90)scale(0.1 -0.1)">
      <use xlink:href="#DejaVuSans-46"/>
      <use x="57.410156" xlink:href="#DejaVuSans-72"/>
      <use x="98.492188" xlink:href="#DejaVuSans-65"/>
      <use x="160.015625" xlink:href="#DejaVuSans-71"/>
      <use x="223.492188" xlink:href="#DejaVuSans-75"/>
      <use x="286.871094" xlink:href="#DejaVuSans-65"/>
      <use x="348.394531" xlink:href="#DejaVuSans-6e"/>
      <use x="411.773438" xlink:href="#DejaVuSans-63"/>
      <use x="466.753906" xlink:href="#DejaVuSans-79"/>
     </g>
    </g>
   </g>
   <g id="line2d_16">
    <path clip-path="url(#pfaf609d107)" d="M 66.376477 287.611604 
L 120.897367 273.655241 
L 127.29397 269.006781 
L 139.343511 257.112492 
L 147.433109 246.443759 
L 157.060392 230.606881 
L 161.941294 221.229995 
L 166.288884 212.123935 
L 168.427886 207.391146 
L 177.810948 184.821502 
L 181.614705 174.937508 
L 187.832887 158.089217 
L 197.889528 129.838015 
L 204.755226 110.636603 
L 211.331248 93.012123 
L 216.008688 81.274727 
L 217.730763 77.172114 
L 220.981133 69.804174 
L 224.663088 62.12592 
L 227.677345 56.432938 
L 230.062429 52.34163 
L 232.531316 48.51723 
L 235.573156 44.412685 
L 236.07629 43.800831 
L 238.753029 40.876379 
L 241.004399 38.858288 
L 243.089012 37.35906 
L 244.362662 36.620835 
L 246.75625 35.603162 
L 247.416008 35.408139 
L 249.17292 35.070039 
L 251.031318 35.000014 
L 254.216861 35.567913 
L 255.707466 36.130768 
L 258.087216 37.418028 
L 258.784663 37.884991 
L 260.476861 39.184858 
L 262.795061 41.343405 
L 265.613369 44.540218 
L 267.496229 47.014499 
L 269.419166 49.811019 
L 272.387749 54.639525 
L 273.296165 56.235806 
L 276.069912 61.435123 
L 279.387153 68.254123 
L 282.845634 75.988946 
L 285.737315 82.886384 
L 289.387797 92.069488 
L 296.4397 110.943172 
L 304.371441 133.164739 
L 314.907625 162.648266 
L 319.391515 174.732681 
L 324.706993 188.448 
L 330.222584 201.812761 
L 333.002691 208.169886 
L 338.135057 219.182688 
L 342.950584 228.623982 
L 345.497864 233.26112 
L 353.17048 245.736689 
L 359.974996 254.980661 
L 370.921665 266.57075 
L 379.821548 273.41742 
L 384.533011 276.258042 
L 391.031023 279.427286 
L 391.031023 279.427286 
" style="fill:none;stroke:#1f77b4;stroke-linecap:square;stroke-width:1.5;"/>
    <defs>
     <path d="M 0 3 
C 0.795609 3 1.55874 2.683901 2.12132 2.12132 
C 2.683901 1.55874 3 0.795609 3 0 
C 3 -0.795609 2.683901 -1.55874 2.12132 -2.12132 
C 1.55874 -2.683901 0.795609 -3 0 -3 
C -0.795609 -3 -1.55874 -2.683901 -2.12132 -2.12132 
C -2.683901 -1.55874 -3 -0.795609 -3 0 
C -3 0.795609 -2.683901 1.55874 -2.12132 2.12132 
C -1.55874 2.683901 -0.795609 3 0 3 
z
" id="ma0b2d4bd1d" style="stroke:#1f77b4;"/>
    </defs>
    <g clip-path="url(#pfaf609d107)">
     <use style="fill:#1f77b4;stroke:#1f77b4;" x="66.376477" xlink:href="#ma0b2d4bd1d" y="287.611604"/>
     <use style="fill:#1f77b4;stroke:#1f77b4;" x="120.897367" xlink:href="#ma0b2d4bd1d" y="273.655241"/>
     <use style="fill:#1f77b4;stroke:#1f77b4;" x="127.29397" xlink:href="#ma0b2d4bd1d" y="269.006781"/>
     <use style="fill:#1f77b4;stroke:#1f77b4;" x="139.343511" xlink:href="#ma0b2d4bd1d" y="257.112492"/>
     <use style="fill:#1f77b4;stroke:#1f77b4;" x="147.433109" xlink:href="#ma0b2d4bd1d" y="246.443759"/>
     <use style="fill:#1f77b4;stroke:#1f77b4;" x="157.060392" xlink:href="#ma0b2d4bd1d" y="230.606881"/>
     <use style="fill:#1f77b4;stroke:#1f77b4;" x="159.496817" xlink:href="#ma0b2d4bd1d" y="226.039428"/>
     <use style="fill:#1f77b4;stroke:#1f77b4;" x="161.941294" xlink:href="#ma0b2d4bd1d" y="221.229995"/>
     <use style="fill:#1f77b4;stroke:#1f77b4;" x="165.090334" xlink:href="#ma0b2d4bd1d" y="214.703868"/>
     <use style="fill:#1f77b4;stroke:#1f77b4;" x="165.177437" xlink:href="#ma0b2d4bd1d" y="214.51814"/>
     <use style="fill:#1f77b4;stroke:#1f77b4;" x="165.777626" xlink:href="#ma0b2d4bd1d" y="213.230834"/>
     <use style="fill:#1f77b4;stroke:#1f77b4;" x="166.288884" xlink:href="#ma0b2d4bd1d" y="212.123935"/>
     <use style="fill:#1f77b4;stroke:#1f77b4;" x="168.427886" xlink:href="#ma0b2d4bd1d" y="207.391146"/>
     <use style="fill:#1f77b4;stroke:#1f77b4;" x="177.810948" xlink:href="#ma0b2d4bd1d" y="184.821502"/>
     <use style="fill:#1f77b4;stroke:#1f77b4;" x="181.309038" xlink:href="#ma0b2d4bd1d" y="175.745105"/>
     <use style="fill:#1f77b4;stroke:#1f77b4;" x="181.614705" xlink:href="#ma0b2d4bd1d" y="174.937508"/>
     <use style="fill:#1f77b4;stroke:#1f77b4;" x="185.110204" xlink:href="#ma0b2d4bd1d" y="165.556507"/>
     <use style="fill:#1f77b4;stroke:#1f77b4;" x="185.177756" xlink:href="#ma0b2d4bd1d" y="165.372787"/>
     <use style="fill:#1f77b4;stroke:#1f77b4;" x="185.284404" xlink:href="#ma0b2d4bd1d" y="165.082561"/>
     <use style="fill:#1f77b4;stroke:#1f77b4;" x="186.813614" xlink:href="#ma0b2d4bd1d" y="160.898976"/>
     <use style="fill:#1f77b4;stroke:#1f77b4;" x="187.165185" xlink:href="#ma0b2d4bd1d" y="159.931633"/>
     <use style="fill:#1f77b4;stroke:#1f77b4;" x="187.832887" xlink:href="#ma0b2d4bd1d" y="158.089217"/>
     <use style="fill:#1f77b4;stroke:#1f77b4;" x="189.862156" xlink:href="#ma0b2d4bd1d" y="152.451946"/>
     <use style="fill:#1f77b4;stroke:#1f77b4;" x="190.81379" xlink:href="#ma0b2d4bd1d" y="149.791502"/>
     <use style="fill:#1f77b4;stroke:#1f77b4;" x="191.258442" xlink:href="#ma0b2d4bd1d" y="148.54531"/>
     <use style="fill:#1f77b4;stroke:#1f77b4;" x="194.429483" xlink:href="#ma0b2d4bd1d" y="139.616065"/>
     <use style="fill:#1f77b4;stroke:#1f77b4;" x="195.122875" xlink:href="#ma0b2d4bd1d" y="137.65718"/>
     <use style="fill:#1f77b4;stroke:#1f77b4;" x="195.843634" xlink:href="#ma0b2d4bd1d" y="135.619982"/>
     <use style="fill:#1f77b4;stroke:#1f77b4;" x="195.892621" xlink:href="#ma0b2d4bd1d" y="135.481503"/>
     <use style="fill:#1f77b4;stroke:#1f77b4;" x="197.618635" xlink:href="#ma0b2d4bd1d" y="130.603153"/>
     <use style="fill:#1f77b4;stroke:#1f77b4;" x="197.729874" xlink:href="#ma0b2d4bd1d" y="130.28893"/>
     <use style="fill:#1f77b4;stroke:#1f77b4;" x="197.889528" xlink:href="#ma0b2d4bd1d" y="129.838015"/>
     <use style="fill:#1f77b4;stroke:#1f77b4;" x="198.961402" xlink:href="#ma0b2d4bd1d" y="126.813296"/>
     <use style="fill:#1f77b4;stroke:#1f77b4;" x="199.923258" xlink:href="#ma0b2d4bd1d" y="124.104325"/>
     <use style="fill:#1f77b4;stroke:#1f77b4;" x="200.219117" xlink:href="#ma0b2d4bd1d" y="123.272364"/>
     <use style="fill:#1f77b4;stroke:#1f77b4;" x="201.725629" xlink:href="#ma0b2d4bd1d" y="119.04803"/>
     <use style="fill:#1f77b4;stroke:#1f77b4;" x="203.198429" xlink:href="#ma0b2d4bd1d" y="114.942575"/>
     <use style="fill:#1f77b4;stroke:#1f77b4;" x="203.690793" xlink:href="#ma0b2d4bd1d" y="113.576639"/>
     <use style="fill:#1f77b4;stroke:#1f77b4;" x="204.755226" xlink:href="#ma0b2d4bd1d" y="110.636603"/>
     <use style="fill:#1f77b4;stroke:#1f77b4;" x="208.193029" xlink:href="#ma0b2d4bd1d" y="101.289711"/>
     <use style="fill:#1f77b4;stroke:#1f77b4;" x="209.824703" xlink:href="#ma0b2d4bd1d" y="96.951038"/>
     <use style="fill:#1f77b4;stroke:#1f77b4;" x="210.226201" xlink:href="#ma0b2d4bd1d" y="95.894688"/>
     <use style="fill:#1f77b4;stroke:#1f77b4;" x="210.579969" xlink:href="#ma0b2d4bd1d" y="94.967832"/>
     <use style="fill:#1f77b4;stroke:#1f77b4;" x="211.331248" xlink:href="#ma0b2d4bd1d" y="93.012123"/>
     <use style="fill:#1f77b4;stroke:#1f77b4;" x="213.46308" xlink:href="#ma0b2d4bd1d" y="87.563164"/>
     <use style="fill:#1f77b4;stroke:#1f77b4;" x="213.55587" xlink:href="#ma0b2d4bd1d" y="87.329592"/>
     <use style="fill:#1f77b4;stroke:#1f77b4;" x="213.724633" xlink:href="#ma0b2d4bd1d" y="86.905589"/>
     <use style="fill:#1f77b4;stroke:#1f77b4;" x="214.006988" xlink:href="#ma0b2d4bd1d" y="86.198551"/>
     <use style="fill:#1f77b4;stroke:#1f77b4;" x="214.130156" xlink:href="#ma0b2d4bd1d" y="85.891062"/>
     <use style="fill:#1f77b4;stroke:#1f77b4;" x="214.675959" xlink:href="#ma0b2d4bd1d" y="84.535423"/>
     <use style="fill:#1f77b4;stroke:#1f77b4;" x="215.438036" xlink:href="#ma0b2d4bd1d" y="82.662106"/>
     <use style="fill:#1f77b4;stroke:#1f77b4;" x="216.008688" xlink:href="#ma0b2d4bd1d" y="81.274727"/>
     <use style="fill:#1f77b4;stroke:#1f77b4;" x="217.150675" xlink:href="#ma0b2d4bd1d" y="78.539579"/>
     <use style="fill:#1f77b4;stroke:#1f77b4;" x="217.184413" xlink:href="#ma0b2d4bd1d" y="78.459637"/>
     <use style="fill:#1f77b4;stroke:#1f77b4;" x="217.730763" xlink:href="#ma0b2d4bd1d" y="77.172114"/>
     <use style="fill:#1f77b4;stroke:#1f77b4;" x="220.981133" xlink:href="#ma0b2d4bd1d" y="69.804174"/>
     <use style="fill:#1f77b4;stroke:#1f77b4;" x="223.147851" xlink:href="#ma0b2d4bd1d" y="65.193979"/>
     <use style="fill:#1f77b4;stroke:#1f77b4;" x="223.418951" xlink:href="#ma0b2d4bd1d" y="64.635363"/>
     <use style="fill:#1f77b4;stroke:#1f77b4;" x="224.145896" xlink:href="#ma0b2d4bd1d" y="63.158182"/>
     <use style="fill:#1f77b4;stroke:#1f77b4;" x="224.663088" xlink:href="#ma0b2d4bd1d" y="62.12592"/>
     <use style="fill:#1f77b4;stroke:#1f77b4;" x="225.410291" xlink:href="#ma0b2d4bd1d" y="60.662612"/>
     <use style="fill:#1f77b4;stroke:#1f77b4;" x="225.980027" xlink:href="#ma0b2d4bd1d" y="59.569536"/>
     <use style="fill:#1f77b4;stroke:#1f77b4;" x="226.367951" xlink:href="#ma0b2d4bd1d" y="58.836702"/>
     <use style="fill:#1f77b4;stroke:#1f77b4;" x="227.028214" xlink:href="#ma0b2d4bd1d" y="57.611002"/>
     <use style="fill:#1f77b4;stroke:#1f77b4;" x="227.677345" xlink:href="#ma0b2d4bd1d" y="56.432938"/>
     <use style="fill:#1f77b4;stroke:#1f77b4;" x="228.029996" xlink:href="#ma0b2d4bd1d" y="55.804313"/>
     <use style="fill:#1f77b4;stroke:#1f77b4;" x="228.085283" xlink:href="#ma0b2d4bd1d" y="55.706493"/>
     <use style="fill:#1f77b4;stroke:#1f77b4;" x="228.160117" xlink:href="#ma0b2d4bd1d" y="55.574407"/>
     <use style="fill:#1f77b4;stroke:#1f77b4;" x="228.254431" xlink:href="#ma0b2d4bd1d" y="55.408459"/>
     <use style="fill:#1f77b4;stroke:#1f77b4;" x="229.175493" xlink:href="#ma0b2d4bd1d" y="53.818704"/>
     <use style="fill:#1f77b4;stroke:#1f77b4;" x="229.620022" xlink:href="#ma0b2d4bd1d" y="53.071731"/>
     <use style="fill:#1f77b4;stroke:#1f77b4;" x="230.062429" xlink:href="#ma0b2d4bd1d" y="52.34163"/>
     <use style="fill:#1f77b4;stroke:#1f77b4;" x="230.702067" xlink:href="#ma0b2d4bd1d" y="51.309784"/>
     <use style="fill:#1f77b4;stroke:#1f77b4;" x="232.531316" xlink:href="#ma0b2d4bd1d" y="48.51723"/>
     <use style="fill:#1f77b4;stroke:#1f77b4;" x="234.199305" xlink:href="#ma0b2d4bd1d" y="46.181278"/>
     <use style="fill:#1f77b4;stroke:#1f77b4;" x="234.491981" xlink:href="#ma0b2d4bd1d" y="45.792603"/>
     <use style="fill:#1f77b4;stroke:#1f77b4;" x="235.041466" xlink:href="#ma0b2d4bd1d" y="45.080244"/>
     <use style="fill:#1f77b4;stroke:#1f77b4;" x="235.059976" xlink:href="#ma0b2d4bd1d" y="45.056643"/>
     <use style="fill:#1f77b4;stroke:#1f77b4;" x="235.242039" xlink:href="#ma0b2d4bd1d" y="44.825894"/>
     <use style="fill:#1f77b4;stroke:#1f77b4;" x="235.573156" xlink:href="#ma0b2d4bd1d" y="44.412685"/>
     <use style="fill:#1f77b4;stroke:#1f77b4;" x="236.067127" xlink:href="#ma0b2d4bd1d" y="43.811801"/>
     <use style="fill:#1f77b4;stroke:#1f77b4;" x="236.07629" xlink:href="#ma0b2d4bd1d" y="43.800831"/>
     <use style="fill:#1f77b4;stroke:#1f77b4;" x="238.137244" xlink:href="#ma0b2d4bd1d" y="41.499244"/>
     <use style="fill:#1f77b4;stroke:#1f77b4;" x="238.753029" xlink:href="#ma0b2d4bd1d" y="40.876379"/>
     <use style="fill:#1f77b4;stroke:#1f77b4;" x="240.166277" xlink:href="#ma0b2d4bd1d" y="39.561639"/>
     <use style="fill:#1f77b4;stroke:#1f77b4;" x="240.444076" xlink:href="#ma0b2d4bd1d" y="39.322173"/>
     <use style="fill:#1f77b4;stroke:#1f77b4;" x="241.004399" xlink:href="#ma0b2d4bd1d" y="38.858288"/>
     <use style="fill:#1f77b4;stroke:#1f77b4;" x="241.723603" xlink:href="#ma0b2d4bd1d" y="38.300527"/>
     <use style="fill:#1f77b4;stroke:#1f77b4;" x="243.089012" xlink:href="#ma0b2d4bd1d" y="37.35906"/>
     <use style="fill:#1f77b4;stroke:#1f77b4;" x="243.686129" xlink:href="#ma0b2d4bd1d" y="36.996058"/>
     <use style="fill:#1f77b4;stroke:#1f77b4;" x="244.362662" xlink:href="#ma0b2d4bd1d" y="36.620835"/>
     <use style="fill:#1f77b4;stroke:#1f77b4;" x="245.79845" xlink:href="#ma0b2d4bd1d" y="35.952172"/>
     <use style="fill:#1f77b4;stroke:#1f77b4;" x="246.75625" xlink:href="#ma0b2d4bd1d" y="35.603162"/>
     <use style="fill:#1f77b4;stroke:#1f77b4;" x="247.416008" xlink:href="#ma0b2d4bd1d" y="35.408139"/>
     <use style="fill:#1f77b4;stroke:#1f77b4;" x="249.17292" xlink:href="#ma0b2d4bd1d" y="35.070039"/>
     <use style="fill:#1f77b4;stroke:#1f77b4;" x="250.447569" xlink:href="#ma0b2d4bd1d" y="34.990125"/>
     <use style="fill:#1f77b4;stroke:#1f77b4;" x="250.707103" xlink:href="#ma0b2d4bd1d" y="34.990915"/>
     <use style="fill:#1f77b4;stroke:#1f77b4;" x="251.031318" xlink:href="#ma0b2d4bd1d" y="35.000014"/>
     <use style="fill:#1f77b4;stroke:#1f77b4;" x="253.427788" xlink:href="#ma0b2d4bd1d" y="35.346445"/>
     <use style="fill:#1f77b4;stroke:#1f77b4;" x="253.478947" xlink:href="#ma0b2d4bd1d" y="35.359194"/>
     <use style="fill:#1f77b4;stroke:#1f77b4;" x="253.488924" xlink:href="#ma0b2d4bd1d" y="35.361706"/>
     <use style="fill:#1f77b4;stroke:#1f77b4;" x="254.216861" xlink:href="#ma0b2d4bd1d" y="35.567913"/>
     <use style="fill:#1f77b4;stroke:#1f77b4;" x="255.476366" xlink:href="#ma0b2d4bd1d" y="36.031164"/>
     <use style="fill:#1f77b4;stroke:#1f77b4;" x="255.548285" xlink:href="#ma0b2d4bd1d" y="36.061677"/>
     <use style="fill:#1f77b4;stroke:#1f77b4;" x="255.707466" xlink:href="#ma0b2d4bd1d" y="36.130768"/>
     <use style="fill:#1f77b4;stroke:#1f77b4;" x="257.097478" xlink:href="#ma0b2d4bd1d" y="36.82493"/>
     <use style="fill:#1f77b4;stroke:#1f77b4;" x="257.988502" xlink:href="#ma0b2d4bd1d" y="37.355202"/>
     <use style="fill:#1f77b4;stroke:#1f77b4;" x="258.087216" xlink:href="#ma0b2d4bd1d" y="37.418028"/>
     <use style="fill:#1f77b4;stroke:#1f77b4;" x="258.784663" xlink:href="#ma0b2d4bd1d" y="37.884991"/>
     <use style="fill:#1f77b4;stroke:#1f77b4;" x="260.350128" xlink:href="#ma0b2d4bd1d" y="39.079377"/>
     <use style="fill:#1f77b4;stroke:#1f77b4;" x="260.454929" xlink:href="#ma0b2d4bd1d" y="39.16651"/>
     <use style="fill:#1f77b4;stroke:#1f77b4;" x="260.476861" xlink:href="#ma0b2d4bd1d" y="39.184858"/>
     <use style="fill:#1f77b4;stroke:#1f77b4;" x="261.784048" xlink:href="#ma0b2d4bd1d" y="40.348893"/>
     <use style="fill:#1f77b4;stroke:#1f77b4;" x="262.257431" xlink:href="#ma0b2d4bd1d" y="40.80439"/>
     <use style="fill:#1f77b4;stroke:#1f77b4;" x="262.622212" xlink:href="#ma0b2d4bd1d" y="41.167603"/>
     <use style="fill:#1f77b4;stroke:#1f77b4;" x="262.795061" xlink:href="#ma0b2d4bd1d" y="41.343405"/>
     <use style="fill:#1f77b4;stroke:#1f77b4;" x="264.441065" xlink:href="#ma0b2d4bd1d" y="43.135499"/>
     <use style="fill:#1f77b4;stroke:#1f77b4;" x="264.627331" xlink:href="#ma0b2d4bd1d" y="43.351622"/>
     <use style="fill:#1f77b4;stroke:#1f77b4;" x="265.613369" xlink:href="#ma0b2d4bd1d" y="44.540218"/>
     <use style="fill:#1f77b4;stroke:#1f77b4;" x="266.166821" xlink:href="#ma0b2d4bd1d" y="45.239877"/>
     <use style="fill:#1f77b4;stroke:#1f77b4;" x="267.496229" xlink:href="#ma0b2d4bd1d" y="47.014499"/>
     <use style="fill:#1f77b4;stroke:#1f77b4;" x="268.33484" xlink:href="#ma0b2d4bd1d" y="48.201157"/>
     <use style="fill:#1f77b4;stroke:#1f77b4;" x="268.508918" xlink:href="#ma0b2d4bd1d" y="48.453905"/>
     <use style="fill:#1f77b4;stroke:#1f77b4;" x="269.377709" xlink:href="#ma0b2d4bd1d" y="49.747923"/>
     <use style="fill:#1f77b4;stroke:#1f77b4;" x="269.419166" xlink:href="#ma0b2d4bd1d" y="49.811019"/>
     <use style="fill:#1f77b4;stroke:#1f77b4;" x="270.677295" xlink:href="#ma0b2d4bd1d" y="51.783368"/>
     <use style="fill:#1f77b4;stroke:#1f77b4;" x="270.686264" xlink:href="#ma0b2d4bd1d" y="51.797824"/>
     <use style="fill:#1f77b4;stroke:#1f77b4;" x="270.988328" xlink:href="#ma0b2d4bd1d" y="52.287941"/>
     <use style="fill:#1f77b4;stroke:#1f77b4;" x="272.387749" xlink:href="#ma0b2d4bd1d" y="54.639525"/>
     <use style="fill:#1f77b4;stroke:#1f77b4;" x="272.672363" xlink:href="#ma0b2d4bd1d" y="55.133825"/>
     <use style="fill:#1f77b4;stroke:#1f77b4;" x="273.296165" xlink:href="#ma0b2d4bd1d" y="56.235806"/>
     <use style="fill:#1f77b4;stroke:#1f77b4;" x="276.069912" xlink:href="#ma0b2d4bd1d" y="61.435123"/>
     <use style="fill:#1f77b4;stroke:#1f77b4;" x="278.207883" xlink:href="#ma0b2d4bd1d" y="65.758865"/>
     <use style="fill:#1f77b4;stroke:#1f77b4;" x="278.826421" xlink:href="#ma0b2d4bd1d" y="67.058174"/>
     <use style="fill:#1f77b4;stroke:#1f77b4;" x="279.387153" xlink:href="#ma0b2d4bd1d" y="68.254123"/>
     <use style="fill:#1f77b4;stroke:#1f77b4;" x="280.407017" xlink:href="#ma0b2d4bd1d" y="70.47221"/>
     <use style="fill:#1f77b4;stroke:#1f77b4;" x="280.85209" xlink:href="#ma0b2d4bd1d" y="71.457099"/>
     <use style="fill:#1f77b4;stroke:#1f77b4;" x="281.139933" xlink:href="#ma0b2d4bd1d" y="72.099405"/>
     <use style="fill:#1f77b4;stroke:#1f77b4;" x="282.845634" xlink:href="#ma0b2d4bd1d" y="75.988946"/>
     <use style="fill:#1f77b4;stroke:#1f77b4;" x="283.471978" xlink:href="#ma0b2d4bd1d" y="77.451704"/>
     <use style="fill:#1f77b4;stroke:#1f77b4;" x="283.638058" xlink:href="#ma0b2d4bd1d" y="77.842562"/>
     <use style="fill:#1f77b4;stroke:#1f77b4;" x="283.697721" xlink:href="#ma0b2d4bd1d" y="77.983276"/>
     <use style="fill:#1f77b4;stroke:#1f77b4;" x="284.11955" xlink:href="#ma0b2d4bd1d" y="78.982673"/>
     <use style="fill:#1f77b4;stroke:#1f77b4;" x="284.55794" xlink:href="#ma0b2d4bd1d" y="80.029564"/>
     <use style="fill:#1f77b4;stroke:#1f77b4;" x="285.737315" xlink:href="#ma0b2d4bd1d" y="82.886384"/>
     <use style="fill:#1f77b4;stroke:#1f77b4;" x="286.840884" xlink:href="#ma0b2d4bd1d" y="85.610527"/>
     <use style="fill:#1f77b4;stroke:#1f77b4;" x="287.87707" xlink:href="#ma0b2d4bd1d" y="88.210545"/>
     <use style="fill:#1f77b4;stroke:#1f77b4;" x="289.387797" xlink:href="#ma0b2d4bd1d" y="92.069488"/>
     <use style="fill:#1f77b4;stroke:#1f77b4;" x="294.257714" xlink:href="#ma0b2d4bd1d" y="104.976395"/>
     <use style="fill:#1f77b4;stroke:#1f77b4;" x="296.229697" xlink:href="#ma0b2d4bd1d" y="110.36498"/>
     <use style="fill:#1f77b4;stroke:#1f77b4;" x="296.4397" xlink:href="#ma0b2d4bd1d" y="110.943172"/>
     <use style="fill:#1f77b4;stroke:#1f77b4;" x="297.666487" xlink:href="#ma0b2d4bd1d" y="114.335416"/>
     <use style="fill:#1f77b4;stroke:#1f77b4;" x="297.714627" xlink:href="#ma0b2d4bd1d" y="114.469006"/>
     <use style="fill:#1f77b4;stroke:#1f77b4;" x="297.85677" xlink:href="#ma0b2d4bd1d" y="114.863653"/>
     <use style="fill:#1f77b4;stroke:#1f77b4;" x="298.758794" xlink:href="#ma0b2d4bd1d" y="117.374492"/>
     <use style="fill:#1f77b4;stroke:#1f77b4;" x="299.421101" xlink:href="#ma0b2d4bd1d" y="119.224556"/>
     <use style="fill:#1f77b4;stroke:#1f77b4;" x="300.160853" xlink:href="#ma0b2d4bd1d" y="121.296624"/>
     <use style="fill:#1f77b4;stroke:#1f77b4;" x="300.674714" xlink:href="#ma0b2d4bd1d" y="122.739059"/>
     <use style="fill:#1f77b4;stroke:#1f77b4;" x="301.54329" xlink:href="#ma0b2d4bd1d" y="125.182101"/>
     <use style="fill:#1f77b4;stroke:#1f77b4;" x="301.587767" xlink:href="#ma0b2d4bd1d" y="125.307347"/>
     <use style="fill:#1f77b4;stroke:#1f77b4;" x="303.414577" xlink:href="#ma0b2d4bd1d" y="130.46078"/>
     <use style="fill:#1f77b4;stroke:#1f77b4;" x="303.804516" xlink:href="#ma0b2d4bd1d" y="131.562464"/>
     <use style="fill:#1f77b4;stroke:#1f77b4;" x="304.371441" xlink:href="#ma0b2d4bd1d" y="133.164739"/>
     <use style="fill:#1f77b4;stroke:#1f77b4;" x="305.812393" xlink:href="#ma0b2d4bd1d" y="137.237949"/>
     <use style="fill:#1f77b4;stroke:#1f77b4;" x="308.686885" xlink:href="#ma0b2d4bd1d" y="145.347451"/>
     <use style="fill:#1f77b4;stroke:#1f77b4;" x="314.907625" xlink:href="#ma0b2d4bd1d" y="162.648266"/>
     <use style="fill:#1f77b4;stroke:#1f77b4;" x="315.827646" xlink:href="#ma0b2d4bd1d" y="165.159968"/>
     <use style="fill:#1f77b4;stroke:#1f77b4;" x="316.673342" xlink:href="#ma0b2d4bd1d" y="167.455046"/>
     <use style="fill:#1f77b4;stroke:#1f77b4;" x="319.391515" xlink:href="#ma0b2d4bd1d" y="174.732681"/>
     <use style="fill:#1f77b4;stroke:#1f77b4;" x="322.437137" xlink:href="#ma0b2d4bd1d" y="182.682579"/>
     <use style="fill:#1f77b4;stroke:#1f77b4;" x="323.768623" xlink:href="#ma0b2d4bd1d" y="186.082049"/>
     <use style="fill:#1f77b4;stroke:#1f77b4;" x="324.100284" xlink:href="#ma0b2d4bd1d" y="186.921156"/>
     <use style="fill:#1f77b4;stroke:#1f77b4;" x="324.706993" xlink:href="#ma0b2d4bd1d" y="188.448"/>
     <use style="fill:#1f77b4;stroke:#1f77b4;" x="327.730981" xlink:href="#ma0b2d4bd1d" y="195.894396"/>
     <use style="fill:#1f77b4;stroke:#1f77b4;" x="330.222584" xlink:href="#ma0b2d4bd1d" y="201.812761"/>
     <use style="fill:#1f77b4;stroke:#1f77b4;" x="333.002691" xlink:href="#ma0b2d4bd1d" y="208.169886"/>
     <use style="fill:#1f77b4;stroke:#1f77b4;" x="336.752636" xlink:href="#ma0b2d4bd1d" y="216.311224"/>
     <use style="fill:#1f77b4;stroke:#1f77b4;" x="337.908706" xlink:href="#ma0b2d4bd1d" y="218.717396"/>
     <use style="fill:#1f77b4;stroke:#1f77b4;" x="338.135057" xlink:href="#ma0b2d4bd1d" y="219.182688"/>
     <use style="fill:#1f77b4;stroke:#1f77b4;" x="340.48526" xlink:href="#ma0b2d4bd1d" y="223.900199"/>
     <use style="fill:#1f77b4;stroke:#1f77b4;" x="342.950584" xlink:href="#ma0b2d4bd1d" y="228.623982"/>
     <use style="fill:#1f77b4;stroke:#1f77b4;" x="345.497864" xlink:href="#ma0b2d4bd1d" y="233.26112"/>
     <use style="fill:#1f77b4;stroke:#1f77b4;" x="351.89528" xlink:href="#ma0b2d4bd1d" y="243.81685"/>
     <use style="fill:#1f77b4;stroke:#1f77b4;" x="353.17048" xlink:href="#ma0b2d4bd1d" y="245.736689"/>
     <use style="fill:#1f77b4;stroke:#1f77b4;" x="359.974996" xlink:href="#ma0b2d4bd1d" y="254.980661"/>
     <use style="fill:#1f77b4;stroke:#1f77b4;" x="370.120797" xlink:href="#ma0b2d4bd1d" y="265.848716"/>
     <use style="fill:#1f77b4;stroke:#1f77b4;" x="370.921665" xlink:href="#ma0b2d4bd1d" y="266.57075"/>
     <use style="fill:#1f77b4;stroke:#1f77b4;" x="379.821548" xlink:href="#ma0b2d4bd1d" y="273.41742"/>
     <use style="fill:#1f77b4;stroke:#1f77b4;" x="384.533011" xlink:href="#ma0b2d4bd1d" y="276.258042"/>
     <use style="fill:#1f77b4;stroke:#1f77b4;" x="391.031023" xlink:href="#ma0b2d4bd1d" y="279.427286"/>
    </g>
   </g>
   <g id="patch_13">
    <path d="M 50.14375 288.430125 
L 50.14375 22.318125 
" style="fill:none;stroke:#000000;stroke-linecap:square;stroke-linejoin:miter;stroke-width:0.8;"/>
   </g>
   <g id="patch_14">
    <path d="M 407.26375 288.430125 
L 407.26375 22.318125 
" style="fill:none;stroke:#000000;stroke-linecap:square;stroke-linejoin:miter;stroke-width:0.8;"/>
   </g>
   <g id="patch_15">
    <path d="M 50.14375 288.430125 
L 407.26375 288.430125 
" style="fill:none;stroke:#000000;stroke-linecap:square;stroke-linejoin:miter;stroke-width:0.8;"/>
   </g>
   <g id="patch_16">
    <path d="M 50.14375 22.318125 
L 407.26375 22.318125 
" style="fill:none;stroke:#000000;stroke-linecap:square;stroke-linejoin:miter;stroke-width:0.8;"/>
   </g>
   <g id="text_18">
    <!-- Distribution Between Pairs [d-dim] -->
    <defs>
     <path d="M 48.6875 27.296875 
Q 48.6875 37.203125 44.609375 42.84375 
Q 40.53125 48.484375 33.40625 48.484375 
Q 26.265625 48.484375 22.1875 42.84375 
Q 18.109375 37.203125 18.109375 27.296875 
Q 18.109375 17.390625 22.1875 11.75 
Q 26.265625 6.109375 33.40625 6.109375 
Q 40.53125 6.109375 44.609375 11.75 
Q 48.6875 17.390625 48.6875 27.296875 
z
M 18.109375 46.390625 
Q 20.953125 51.265625 25.265625 53.625 
Q 29.59375 56 35.59375 56 
Q 45.5625 56 51.78125 48.09375 
Q 58.015625 40.1875 58.015625 27.296875 
Q 58.015625 14.40625 51.78125 6.484375 
Q 45.5625 -1.421875 35.59375 -1.421875 
Q 29.59375 -1.421875 25.265625 0.953125 
Q 20.953125 3.328125 18.109375 8.203125 
L 18.109375 0 
L 9.078125 0 
L 9.078125 75.984375 
L 18.109375 75.984375 
z
" id="DejaVuSans-62"/>
     <path d="M 30.609375 48.390625 
Q 23.390625 48.390625 19.1875 42.75 
Q 14.984375 37.109375 14.984375 27.296875 
Q 14.984375 17.484375 19.15625 11.84375 
Q 23.34375 6.203125 30.609375 6.203125 
Q 37.796875 6.203125 41.984375 11.859375 
Q 46.1875 17.53125 46.1875 27.296875 
Q 46.1875 37.015625 41.984375 42.703125 
Q 37.796875 48.390625 30.609375 48.390625 
z
M 30.609375 56 
Q 42.328125 56 49.015625 48.375 
Q 55.71875 40.765625 55.71875 27.296875 
Q 55.71875 13.875 49.015625 6.21875 
Q 42.328125 -1.421875 30.609375 -1.421875 
Q 18.84375 -1.421875 12.171875 6.21875 
Q 5.515625 13.875 5.515625 27.296875 
Q 5.515625 40.765625 12.171875 48.375 
Q 18.84375 56 30.609375 56 
z
" id="DejaVuSans-6f"/>
     <path id="DejaVuSans-20"/>
     <path d="M 19.671875 34.8125 
L 19.671875 8.109375 
L 35.5 8.109375 
Q 43.453125 8.109375 47.28125 11.40625 
Q 51.125 14.703125 51.125 21.484375 
Q 51.125 28.328125 47.28125 31.5625 
Q 43.453125 34.8125 35.5 34.8125 
z
M 19.671875 64.796875 
L 19.671875 42.828125 
L 34.28125 42.828125 
Q 41.5 42.828125 45.03125 45.53125 
Q 48.578125 48.25 48.578125 53.8125 
Q 48.578125 59.328125 45.03125 62.0625 
Q 41.5 64.796875 34.28125 64.796875 
z
M 9.8125 72.90625 
L 35.015625 72.90625 
Q 46.296875 72.90625 52.390625 68.21875 
Q 58.5 63.53125 58.5 54.890625 
Q 58.5 48.1875 55.375 44.234375 
Q 52.25 40.28125 46.1875 39.3125 
Q 53.46875 37.75 57.5 32.78125 
Q 61.53125 27.828125 61.53125 20.40625 
Q 61.53125 10.640625 54.890625 5.3125 
Q 48.25 0 35.984375 0 
L 9.8125 0 
z
" id="DejaVuSans-42"/>
     <path d="M 4.203125 54.6875 
L 13.1875 54.6875 
L 24.421875 12.015625 
L 35.59375 54.6875 
L 46.1875 54.6875 
L 57.421875 12.015625 
L 68.609375 54.6875 
L 77.59375 54.6875 
L 63.28125 0 
L 52.6875 0 
L 40.921875 44.828125 
L 29.109375 0 
L 18.5 0 
z
" id="DejaVuSans-77"/>
     <path d="M 19.671875 64.796875 
L 19.671875 37.40625 
L 32.078125 37.40625 
Q 38.96875 37.40625 42.71875 40.96875 
Q 46.484375 44.53125 46.484375 51.125 
Q 46.484375 57.671875 42.71875 61.234375 
Q 38.96875 64.796875 32.078125 64.796875 
z
M 9.8125 72.90625 
L 32.078125 72.90625 
Q 44.34375 72.90625 50.609375 67.359375 
Q 56.890625 61.8125 56.890625 51.125 
Q 56.890625 40.328125 50.609375 34.8125 
Q 44.34375 29.296875 32.078125 29.296875 
L 19.671875 29.296875 
L 19.671875 0 
L 9.8125 0 
z
" id="DejaVuSans-50"/>
     <path d="M 8.59375 75.984375 
L 29.296875 75.984375 
L 29.296875 69 
L 17.578125 69 
L 17.578125 -6.203125 
L 29.296875 -6.203125 
L 29.296875 -13.1875 
L 8.59375 -13.1875 
z
" id="DejaVuSans-5b"/>
     <path d="M 45.40625 46.390625 
L 45.40625 75.984375 
L 54.390625 75.984375 
L 54.390625 0 
L 45.40625 0 
L 45.40625 8.203125 
Q 42.578125 3.328125 38.25 0.953125 
Q 33.9375 -1.421875 27.875 -1.421875 
Q 17.96875 -1.421875 11.734375 6.484375 
Q 5.515625 14.40625 5.515625 27.296875 
Q 5.515625 40.1875 11.734375 48.09375 
Q 17.96875 56 27.875 56 
Q 33.9375 56 38.25 53.625 
Q 42.578125 51.265625 45.40625 46.390625 
z
M 14.796875 27.296875 
Q 14.796875 17.390625 18.875 11.75 
Q 22.953125 6.109375 30.078125 6.109375 
Q 37.203125 6.109375 41.296875 11.75 
Q 45.40625 17.390625 45.40625 27.296875 
Q 45.40625 37.203125 41.296875 42.84375 
Q 37.203125 48.484375 30.078125 48.484375 
Q 22.953125 48.484375 18.875 42.84375 
Q 14.796875 37.203125 14.796875 27.296875 
z
" id="DejaVuSans-64"/>
     <path d="M 4.890625 31.390625 
L 31.203125 31.390625 
L 31.203125 23.390625 
L 4.890625 23.390625 
z
" id="DejaVuSans-2d"/>
     <path d="M 52 44.1875 
Q 55.375 50.25 60.0625 53.125 
Q 64.75 56 71.09375 56 
Q 79.640625 56 84.28125 50.015625 
Q 88.921875 44.046875 88.921875 33.015625 
L 88.921875 0 
L 79.890625 0 
L 79.890625 32.71875 
Q 79.890625 40.578125 77.09375 44.375 
Q 74.3125 48.1875 68.609375 48.1875 
Q 61.625 48.1875 57.5625 43.546875 
Q 53.515625 38.921875 53.515625 30.90625 
L 53.515625 0 
L 44.484375 0 
L 44.484375 32.71875 
Q 44.484375 40.625 41.703125 44.40625 
Q 38.921875 48.1875 33.109375 48.1875 
Q 26.21875 48.1875 22.15625 43.53125 
Q 18.109375 38.875 18.109375 30.90625 
L 18.109375 0 
L 9.078125 0 
L 9.078125 54.6875 
L 18.109375 54.6875 
L 18.109375 46.1875 
Q 21.1875 51.21875 25.484375 53.609375 
Q 29.78125 56 35.6875 56 
Q 41.65625 56 45.828125 52.96875 
Q 50 49.953125 52 44.1875 
z
" id="DejaVuSans-6d"/>
     <path d="M 30.421875 75.984375 
L 30.421875 -13.1875 
L 9.71875 -13.1875 
L 9.71875 -6.203125 
L 21.390625 -6.203125 
L 21.390625 69 
L 9.71875 69 
L 9.71875 75.984375 
z
" id="DejaVuSans-5d"/>
    </defs>
    <g transform="translate(125.200938 16.318125)scale(0.12 -0.12)">
     <use xlink:href="#DejaVuSans-44"/>
     <use x="77.001953" xlink:href="#DejaVuSans-69"/>
     <use x="104.785156" xlink:href="#DejaVuSans-73"/>
     <use x="156.884766" xlink:href="#DejaVuSans-74"/>
     <use x="196.09375" xlink:href="#DejaVuSans-72"/>
     <use x="237.207031" xlink:href="#DejaVuSans-69"/>
     <use x="264.990234" xlink:href="#DejaVuSans-62"/>
     <use x="328.466797" xlink:href="#DejaVuSans-75"/>
     <use x="391.845703" xlink:href="#DejaVuSans-74"/>
     <use x="431.054688" xlink:href="#DejaVuSans-69"/>
     <use x="458.837891" xlink:href="#DejaVuSans-6f"/>
     <use x="520.019531" xlink:href="#DejaVuSans-6e"/>
     <use x="583.398438" xlink:href="#DejaVuSans-20"/>
     <use x="615.185547" xlink:href="#DejaVuSans-42"/>
     <use x="683.789062" xlink:href="#DejaVuSans-65"/>
     <use x="745.3125" xlink:href="#DejaVuSans-74"/>
     <use x="784.521484" xlink:href="#DejaVuSans-77"/>
     <use x="866.308594" xlink:href="#DejaVuSans-65"/>
     <use x="927.832031" xlink:href="#DejaVuSans-65"/>
     <use x="989.355469" xlink:href="#DejaVuSans-6e"/>
     <use x="1052.734375" xlink:href="#DejaVuSans-20"/>
     <use x="1084.521484" xlink:href="#DejaVuSans-50"/>
     <use x="1144.761719" xlink:href="#DejaVuSans-61"/>
     <use x="1206.041016" xlink:href="#DejaVuSans-69"/>
     <use x="1233.824219" xlink:href="#DejaVuSans-72"/>
     <use x="1274.9375" xlink:href="#DejaVuSans-73"/>
     <use x="1327.037109" xlink:href="#DejaVuSans-20"/>
     <use x="1358.824219" xlink:href="#DejaVuSans-5b"/>
     <use x="1397.837891" xlink:href="#DejaVuSans-64"/>
     <use x="1461.314453" xlink:href="#DejaVuSans-2d"/>
     <use x="1497.398438" xlink:href="#DejaVuSans-64"/>
     <use x="1560.875" xlink:href="#DejaVuSans-69"/>
     <use x="1588.658203" xlink:href="#DejaVuSans-6d"/>
     <use x="1686.070312" xlink:href="#DejaVuSans-5d"/>
    </g>
   </g>
  </g>
  <g id="text_19">
   <g id="patch_17">
    <path d="M 159.446875 369.50175 
L 286.440625 369.50175 
Q 292.440625 369.50175 292.440625 363.50175 
L 292.440625 338.450625 
Q 292.440625 332.450625 286.440625 332.450625 
L 159.446875 332.450625 
Q 153.446875 332.450625 153.446875 338.450625 
L 153.446875 363.50175 
Q 153.446875 369.50175 159.446875 369.50175 
z
" style="fill:#ffffff;stroke:#808080;stroke-linejoin:miter;"/>
   </g>
   <!-- Dimension: 900 -->
   <defs>
    <path d="M 11.71875 12.40625 
L 22.015625 12.40625 
L 22.015625 0 
L 11.71875 0 
z
M 11.71875 51.703125 
L 22.015625 51.703125 
L 22.015625 39.3125 
L 11.71875 39.3125 
z
" id="DejaVuSans-3a"/>
   </defs>
   <g transform="translate(159.446875 347.56875)scale(0.12 -0.12)">
    <use xlink:href="#DejaVuSans-44"/>
    <use x="77.001953" xlink:href="#DejaVuSans-69"/>
    <use x="104.785156" xlink:href="#DejaVuSans-6d"/>
    <use x="202.197266" xlink:href="#DejaVuSans-65"/>
    <use x="263.720703" xlink:href="#DejaVuSans-6e"/>
    <use x="327.099609" xlink:href="#DejaVuSans-73"/>
    <use x="379.199219" xlink:href="#DejaVuSans-69"/>
    <use x="406.982422" xlink:href="#DejaVuSans-6f"/>
    <use x="468.164062" xlink:href="#DejaVuSans-6e"/>
    <use x="531.542969" xlink:href="#DejaVuSans-3a"/>
    <use x="565.234375" xlink:href="#DejaVuSans-20"/>
    <use x="597.021484" xlink:href="#DejaVuSans-39"/>
    <use x="660.644531" xlink:href="#DejaVuSans-30"/>
    <use x="724.267578" xlink:href="#DejaVuSans-30"/>
   </g>
   <!-- Number of Points: 20 -->
   <defs>
    <path d="M 9.8125 72.90625 
L 23.09375 72.90625 
L 55.421875 11.921875 
L 55.421875 72.90625 
L 64.984375 72.90625 
L 64.984375 0 
L 51.703125 0 
L 19.390625 60.984375 
L 19.390625 0 
L 9.8125 0 
z
" id="DejaVuSans-4e"/>
    <path d="M 37.109375 75.984375 
L 37.109375 68.5 
L 28.515625 68.5 
Q 23.6875 68.5 21.796875 66.546875 
Q 19.921875 64.59375 19.921875 59.515625 
L 19.921875 54.6875 
L 34.71875 54.6875 
L 34.71875 47.703125 
L 19.921875 47.703125 
L 19.921875 0 
L 10.890625 0 
L 10.890625 47.703125 
L 2.296875 47.703125 
L 2.296875 54.6875 
L 10.890625 54.6875 
L 10.890625 58.5 
Q 10.890625 67.625 15.140625 71.796875 
Q 19.390625 75.984375 28.609375 75.984375 
z
" id="DejaVuSans-66"/>
   </defs>
   <g transform="translate(159.446875 361.006125)scale(0.12 -0.12)">
    <use xlink:href="#DejaVuSans-4e"/>
    <use x="74.804688" xlink:href="#DejaVuSans-75"/>
    <use x="138.183594" xlink:href="#DejaVuSans-6d"/>
    <use x="235.595703" xlink:href="#DejaVuSans-62"/>
    <use x="299.072266" xlink:href="#DejaVuSans-65"/>
    <use x="360.595703" xlink:href="#DejaVuSans-72"/>
    <use x="401.708984" xlink:href="#DejaVuSans-20"/>
    <use x="433.496094" xlink:href="#DejaVuSans-6f"/>
    <use x="494.677734" xlink:href="#DejaVuSans-66"/>
    <use x="529.882812" xlink:href="#DejaVuSans-20"/>
    <use x="561.669922" xlink:href="#DejaVuSans-50"/>
    <use x="621.925781" xlink:href="#DejaVuSans-6f"/>
    <use x="683.107422" xlink:href="#DejaVuSans-69"/>
    <use x="710.890625" xlink:href="#DejaVuSans-6e"/>
    <use x="774.269531" xlink:href="#DejaVuSans-74"/>
    <use x="813.478516" xlink:href="#DejaVuSans-73"/>
    <use x="865.578125" xlink:href="#DejaVuSans-3a"/>
    <use x="899.269531" xlink:href="#DejaVuSans-20"/>
    <use x="931.056641" xlink:href="#DejaVuSans-32"/>
    <use x="994.679688" xlink:href="#DejaVuSans-30"/>
   </g>
  </g>
 </g>
 <defs>
  <clipPath id="pfaf609d107">
   <rect height="266.112" width="357.12" x="50.14375" y="22.318125"/>
  </clipPath>
 </defs>
</svg>
