<?xml version="1.0" encoding="utf-8" standalone="no"?>
<!DOCTYPE svg PUBLIC "-//W3C//DTD SVG 1.1//EN"
  "http://www.w3.org/Graphics/SVG/1.1/DTD/svg11.dtd">
<!-- Created with matplotlib (http://matplotlib.org/) -->
<svg height="370pt" version="1.1" viewBox="0 0 424 370" width="424pt" xmlns="http://www.w3.org/2000/svg" xmlns:xlink="http://www.w3.org/1999/xlink">
 <defs>
  <style type="text/css">
*{stroke-linecap:butt;stroke-linejoin:round;}
  </style>
 </defs>
 <g id="figure_1">
  <g id="patch_1">
   <path d="M 0 370.70175 
L 424.32625 370.70175 
L 424.32625 0 
L 0 0 
z
" style="fill:#ffffff;"/>
  </g>
  <g id="axes_1">
   <g id="patch_2">
    <path d="M 56.50625 288.430125 
L 413.62625 288.430125 
L 413.62625 22.318125 
L 56.50625 22.318125 
z
" style="fill:#ffffff;"/>
   </g>
   <g id="patch_3">
    <path clip-path="url(#p8e983004b7)" d="M 72.738977 288.430125 
L 105.204432 288.430125 
L 105.204432 282.829942 
L 72.738977 282.829942 
z
" style="fill:#ff7f0e;"/>
   </g>
   <g id="patch_4">
    <path clip-path="url(#p8e983004b7)" d="M 105.204432 288.430125 
L 137.669886 288.430125 
L 137.669886 277.229758 
L 105.204432 277.229758 
z
" style="fill:#ff7f0e;"/>
   </g>
   <g id="patch_5">
    <path clip-path="url(#p8e983004b7)" d="M 137.669886 288.430125 
L 170.135341 288.430125 
L 170.135341 260.429208 
L 137.669886 260.429208 
z
" style="fill:#ff7f0e;"/>
   </g>
   <g id="patch_6">
    <path clip-path="url(#p8e983004b7)" d="M 170.135341 288.430125 
L 202.600795 288.430125 
L 202.600795 170.826275 
L 170.135341 170.826275 
z
" style="fill:#ff7f0e;"/>
   </g>
   <g id="patch_7">
    <path clip-path="url(#p8e983004b7)" d="M 202.600795 288.430125 
L 235.06625 288.430125 
L 235.06625 64.422791 
L 202.600795 64.422791 
z
" style="fill:#ff7f0e;"/>
   </g>
   <g id="patch_8">
    <path clip-path="url(#p8e983004b7)" d="M 235.06625 288.430125 
L 267.531705 288.430125 
L 267.531705 47.622241 
L 235.06625 47.622241 
z
" style="fill:#ff7f0e;"/>
   </g>
   <g id="patch_9">
    <path clip-path="url(#p8e983004b7)" d="M 267.531705 288.430125 
L 299.997159 288.430125 
L 299.997159 86.823525 
L 267.531705 86.823525 
z
" style="fill:#ff7f0e;"/>
   </g>
   <g id="patch_10">
    <path clip-path="url(#p8e983004b7)" d="M 299.997159 288.430125 
L 332.462614 288.430125 
L 332.462614 148.425541 
L 299.997159 148.425541 
z
" style="fill:#ff7f0e;"/>
   </g>
   <g id="patch_11">
    <path clip-path="url(#p8e983004b7)" d="M 332.462614 288.430125 
L 364.928068 288.430125 
L 364.928068 226.828108 
L 332.462614 226.828108 
z
" style="fill:#ff7f0e;"/>
   </g>
   <g id="patch_12">
    <path clip-path="url(#p8e983004b7)" d="M 364.928068 288.430125 
L 397.393523 288.430125 
L 397.393523 254.829025 
L 364.928068 254.829025 
z
" style="fill:#ff7f0e;"/>
   </g>
   <g id="matplotlib.axis_1">
    <g id="xtick_1">
     <g id="line2d_1">
      <defs>
       <path d="M 0 0 
L 0 3.5 
" id="m358283189b" style="stroke:#000000;stroke-width:0.8;"/>
      </defs>
      <g>
       <use style="stroke:#000000;stroke-width:0.8;" x="78.999303" xlink:href="#m358283189b" y="288.430125"/>
      </g>
     </g>
     <g id="text_1">
      <!-- 390 -->
      <defs>
       <path d="M 40.578125 39.3125 
Q 47.65625 37.796875 51.625 33 
Q 55.609375 28.21875 55.609375 21.1875 
Q 55.609375 10.40625 48.1875 4.484375 
Q 40.765625 -1.421875 27.09375 -1.421875 
Q 22.515625 -1.421875 17.65625 -0.515625 
Q 12.796875 0.390625 7.625 2.203125 
L 7.625 11.71875 
Q 11.71875 9.328125 16.59375 8.109375 
Q 21.484375 6.890625 26.8125 6.890625 
Q 36.078125 6.890625 40.9375 10.546875 
Q 45.796875 14.203125 45.796875 21.1875 
Q 45.796875 27.640625 41.28125 31.265625 
Q 36.765625 34.90625 28.71875 34.90625 
L 20.21875 34.90625 
L 20.21875 43.015625 
L 29.109375 43.015625 
Q 36.375 43.015625 40.234375 45.921875 
Q 44.09375 48.828125 44.09375 54.296875 
Q 44.09375 59.90625 40.109375 62.90625 
Q 36.140625 65.921875 28.71875 65.921875 
Q 24.65625 65.921875 20.015625 65.03125 
Q 15.375 64.15625 9.8125 62.3125 
L 9.8125 71.09375 
Q 15.4375 72.65625 20.34375 73.4375 
Q 25.25 74.21875 29.59375 74.21875 
Q 40.828125 74.21875 47.359375 69.109375 
Q 53.90625 64.015625 53.90625 55.328125 
Q 53.90625 49.265625 50.4375 45.09375 
Q 46.96875 40.921875 40.578125 39.3125 
z
" id="DejaVuSans-33"/>
       <path d="M 10.984375 1.515625 
L 10.984375 10.5 
Q 14.703125 8.734375 18.5 7.8125 
Q 22.3125 6.890625 25.984375 6.890625 
Q 35.75 6.890625 40.890625 13.453125 
Q 46.046875 20.015625 46.78125 33.40625 
Q 43.953125 29.203125 39.59375 26.953125 
Q 35.25 24.703125 29.984375 24.703125 
Q 19.046875 24.703125 12.671875 31.3125 
Q 6.296875 37.9375 6.296875 49.421875 
Q 6.296875 60.640625 12.9375 67.421875 
Q 19.578125 74.21875 30.609375 74.21875 
Q 43.265625 74.21875 49.921875 64.515625 
Q 56.59375 54.828125 56.59375 36.375 
Q 56.59375 19.140625 48.40625 8.859375 
Q 40.234375 -1.421875 26.421875 -1.421875 
Q 22.703125 -1.421875 18.890625 -0.6875 
Q 15.09375 0.046875 10.984375 1.515625 
z
M 30.609375 32.421875 
Q 37.25 32.421875 41.125 36.953125 
Q 45.015625 41.5 45.015625 49.421875 
Q 45.015625 57.28125 41.125 61.84375 
Q 37.25 66.40625 30.609375 66.40625 
Q 23.96875 66.40625 20.09375 61.84375 
Q 16.21875 57.28125 16.21875 49.421875 
Q 16.21875 41.5 20.09375 36.953125 
Q 23.96875 32.421875 30.609375 32.421875 
z
" id="DejaVuSans-39"/>
       <path d="M 31.78125 66.40625 
Q 24.171875 66.40625 20.328125 58.90625 
Q 16.5 51.421875 16.5 36.375 
Q 16.5 21.390625 20.328125 13.890625 
Q 24.171875 6.390625 31.78125 6.390625 
Q 39.453125 6.390625 43.28125 13.890625 
Q 47.125 21.390625 47.125 36.375 
Q 47.125 51.421875 43.28125 58.90625 
Q 39.453125 66.40625 31.78125 66.40625 
z
M 31.78125 74.21875 
Q 44.046875 74.21875 50.515625 64.515625 
Q 56.984375 54.828125 56.984375 36.375 
Q 56.984375 17.96875 50.515625 8.265625 
Q 44.046875 -1.421875 31.78125 -1.421875 
Q 19.53125 -1.421875 13.0625 8.265625 
Q 6.59375 17.96875 6.59375 36.375 
Q 6.59375 54.828125 13.0625 64.515625 
Q 19.53125 74.21875 31.78125 74.21875 
z
" id="DejaVuSans-30"/>
      </defs>
      <g transform="translate(69.455553 303.028562)scale(0.1 -0.1)">
       <use xlink:href="#DejaVuSans-33"/>
       <use x="63.623047" xlink:href="#DejaVuSans-39"/>
       <use x="127.246094" xlink:href="#DejaVuSans-30"/>
      </g>
     </g>
    </g>
    <g id="xtick_2">
     <g id="line2d_2">
      <g>
       <use style="stroke:#000000;stroke-width:0.8;" x="136.132941" xlink:href="#m358283189b" y="288.430125"/>
      </g>
     </g>
     <g id="text_2">
      <!-- 400 -->
      <defs>
       <path d="M 37.796875 64.3125 
L 12.890625 25.390625 
L 37.796875 25.390625 
z
M 35.203125 72.90625 
L 47.609375 72.90625 
L 47.609375 25.390625 
L 58.015625 25.390625 
L 58.015625 17.1875 
L 47.609375 17.1875 
L 47.609375 0 
L 37.796875 0 
L 37.796875 17.1875 
L 4.890625 17.1875 
L 4.890625 26.703125 
z
" id="DejaVuSans-34"/>
      </defs>
      <g transform="translate(126.589191 303.028562)scale(0.1 -0.1)">
       <use xlink:href="#DejaVuSans-34"/>
       <use x="63.623047" xlink:href="#DejaVuSans-30"/>
       <use x="127.246094" xlink:href="#DejaVuSans-30"/>
      </g>
     </g>
    </g>
    <g id="xtick_3">
     <g id="line2d_3">
      <g>
       <use style="stroke:#000000;stroke-width:0.8;" x="193.26658" xlink:href="#m358283189b" y="288.430125"/>
      </g>
     </g>
     <g id="text_3">
      <!-- 410 -->
      <defs>
       <path d="M 12.40625 8.296875 
L 28.515625 8.296875 
L 28.515625 63.921875 
L 10.984375 60.40625 
L 10.984375 69.390625 
L 28.421875 72.90625 
L 38.28125 72.90625 
L 38.28125 8.296875 
L 54.390625 8.296875 
L 54.390625 0 
L 12.40625 0 
z
" id="DejaVuSans-31"/>
      </defs>
      <g transform="translate(183.72283 303.028562)scale(0.1 -0.1)">
       <use xlink:href="#DejaVuSans-34"/>
       <use x="63.623047" xlink:href="#DejaVuSans-31"/>
       <use x="127.246094" xlink:href="#DejaVuSans-30"/>
      </g>
     </g>
    </g>
    <g id="xtick_4">
     <g id="line2d_4">
      <g>
       <use style="stroke:#000000;stroke-width:0.8;" x="250.400218" xlink:href="#m358283189b" y="288.430125"/>
      </g>
     </g>
     <g id="text_4">
      <!-- 420 -->
      <defs>
       <path d="M 19.1875 8.296875 
L 53.609375 8.296875 
L 53.609375 0 
L 7.328125 0 
L 7.328125 8.296875 
Q 12.9375 14.109375 22.625 23.890625 
Q 32.328125 33.6875 34.8125 36.53125 
Q 39.546875 41.84375 41.421875 45.53125 
Q 43.3125 49.21875 43.3125 52.78125 
Q 43.3125 58.59375 39.234375 62.25 
Q 35.15625 65.921875 28.609375 65.921875 
Q 23.96875 65.921875 18.8125 64.3125 
Q 13.671875 62.703125 7.8125 59.421875 
L 7.8125 69.390625 
Q 13.765625 71.78125 18.9375 73 
Q 24.125 74.21875 28.421875 74.21875 
Q 39.75 74.21875 46.484375 68.546875 
Q 53.21875 62.890625 53.21875 53.421875 
Q 53.21875 48.921875 51.53125 44.890625 
Q 49.859375 40.875 45.40625 35.40625 
Q 44.1875 33.984375 37.640625 27.21875 
Q 31.109375 20.453125 19.1875 8.296875 
z
" id="DejaVuSans-32"/>
      </defs>
      <g transform="translate(240.856468 303.028562)scale(0.1 -0.1)">
       <use xlink:href="#DejaVuSans-34"/>
       <use x="63.623047" xlink:href="#DejaVuSans-32"/>
       <use x="127.246094" xlink:href="#DejaVuSans-30"/>
      </g>
     </g>
    </g>
    <g id="xtick_5">
     <g id="line2d_5">
      <g>
       <use style="stroke:#000000;stroke-width:0.8;" x="307.533857" xlink:href="#m358283189b" y="288.430125"/>
      </g>
     </g>
     <g id="text_5">
      <!-- 430 -->
      <g transform="translate(297.990107 303.028562)scale(0.1 -0.1)">
       <use xlink:href="#DejaVuSans-34"/>
       <use x="63.623047" xlink:href="#DejaVuSans-33"/>
       <use x="127.246094" xlink:href="#DejaVuSans-30"/>
      </g>
     </g>
    </g>
    <g id="xtick_6">
     <g id="line2d_6">
      <g>
       <use style="stroke:#000000;stroke-width:0.8;" x="364.667496" xlink:href="#m358283189b" y="288.430125"/>
      </g>
     </g>
     <g id="text_6">
      <!-- 440 -->
      <g transform="translate(355.123746 303.028562)scale(0.1 -0.1)">
       <use xlink:href="#DejaVuSans-34"/>
       <use x="63.623047" xlink:href="#DejaVuSans-34"/>
       <use x="127.246094" xlink:href="#DejaVuSans-30"/>
      </g>
     </g>
    </g>
    <g id="text_7">
     <!-- Distance -->
     <defs>
      <path d="M 19.671875 64.796875 
L 19.671875 8.109375 
L 31.59375 8.109375 
Q 46.6875 8.109375 53.6875 14.9375 
Q 60.6875 21.78125 60.6875 36.53125 
Q 60.6875 51.171875 53.6875 57.984375 
Q 46.6875 64.796875 31.59375 64.796875 
z
M 9.8125 72.90625 
L 30.078125 72.90625 
Q 51.265625 72.90625 61.171875 64.09375 
Q 71.09375 55.28125 71.09375 36.53125 
Q 71.09375 17.671875 61.125 8.828125 
Q 51.171875 0 30.078125 0 
L 9.8125 0 
z
" id="DejaVuSans-44"/>
      <path d="M 9.421875 54.6875 
L 18.40625 54.6875 
L 18.40625 0 
L 9.421875 0 
z
M 9.421875 75.984375 
L 18.40625 75.984375 
L 18.40625 64.59375 
L 9.421875 64.59375 
z
" id="DejaVuSans-69"/>
      <path d="M 44.28125 53.078125 
L 44.28125 44.578125 
Q 40.484375 46.53125 36.375 47.5 
Q 32.28125 48.484375 27.875 48.484375 
Q 21.1875 48.484375 17.84375 46.4375 
Q 14.5 44.390625 14.5 40.28125 
Q 14.5 37.15625 16.890625 35.375 
Q 19.28125 33.59375 26.515625 31.984375 
L 29.59375 31.296875 
Q 39.15625 29.25 43.1875 25.515625 
Q 47.21875 21.78125 47.21875 15.09375 
Q 47.21875 7.46875 41.1875 3.015625 
Q 35.15625 -1.421875 24.609375 -1.421875 
Q 20.21875 -1.421875 15.453125 -0.5625 
Q 10.6875 0.296875 5.421875 2 
L 5.421875 11.28125 
Q 10.40625 8.6875 15.234375 7.390625 
Q 20.0625 6.109375 24.8125 6.109375 
Q 31.15625 6.109375 34.5625 8.28125 
Q 37.984375 10.453125 37.984375 14.40625 
Q 37.984375 18.0625 35.515625 20.015625 
Q 33.0625 21.96875 24.703125 23.78125 
L 21.578125 24.515625 
Q 13.234375 26.265625 9.515625 29.90625 
Q 5.8125 33.546875 5.8125 39.890625 
Q 5.8125 47.609375 11.28125 51.796875 
Q 16.75 56 26.8125 56 
Q 31.78125 56 36.171875 55.265625 
Q 40.578125 54.546875 44.28125 53.078125 
z
" id="DejaVuSans-73"/>
      <path d="M 18.3125 70.21875 
L 18.3125 54.6875 
L 36.8125 54.6875 
L 36.8125 47.703125 
L 18.3125 47.703125 
L 18.3125 18.015625 
Q 18.3125 11.328125 20.140625 9.421875 
Q 21.96875 7.515625 27.59375 7.515625 
L 36.8125 7.515625 
L 36.8125 0 
L 27.59375 0 
Q 17.1875 0 13.234375 3.875 
Q 9.28125 7.765625 9.28125 18.015625 
L 9.28125 47.703125 
L 2.6875 47.703125 
L 2.6875 54.6875 
L 9.28125 54.6875 
L 9.28125 70.21875 
z
" id="DejaVuSans-74"/>
      <path d="M 34.28125 27.484375 
Q 23.390625 27.484375 19.1875 25 
Q 14.984375 22.515625 14.984375 16.5 
Q 14.984375 11.71875 18.140625 8.90625 
Q 21.296875 6.109375 26.703125 6.109375 
Q 34.1875 6.109375 38.703125 11.40625 
Q 43.21875 16.703125 43.21875 25.484375 
L 43.21875 27.484375 
z
M 52.203125 31.203125 
L 52.203125 0 
L 43.21875 0 
L 43.21875 8.296875 
Q 40.140625 3.328125 35.546875 0.953125 
Q 30.953125 -1.421875 24.3125 -1.421875 
Q 15.921875 -1.421875 10.953125 3.296875 
Q 6 8.015625 6 15.921875 
Q 6 25.140625 12.171875 29.828125 
Q 18.359375 34.515625 30.609375 34.515625 
L 43.21875 34.515625 
L 43.21875 35.40625 
Q 43.21875 41.609375 39.140625 45 
Q 35.0625 48.390625 27.6875 48.390625 
Q 23 48.390625 18.546875 47.265625 
Q 14.109375 46.140625 10.015625 43.890625 
L 10.015625 52.203125 
Q 14.9375 54.109375 19.578125 55.046875 
Q 24.21875 56 28.609375 56 
Q 40.484375 56 46.34375 49.84375 
Q 52.203125 43.703125 52.203125 31.203125 
z
" id="DejaVuSans-61"/>
      <path d="M 54.890625 33.015625 
L 54.890625 0 
L 45.90625 0 
L 45.90625 32.71875 
Q 45.90625 40.484375 42.875 44.328125 
Q 39.84375 48.1875 33.796875 48.1875 
Q 26.515625 48.1875 22.3125 43.546875 
Q 18.109375 38.921875 18.109375 30.90625 
L 18.109375 0 
L 9.078125 0 
L 9.078125 54.6875 
L 18.109375 54.6875 
L 18.109375 46.1875 
Q 21.34375 51.125 25.703125 53.5625 
Q 30.078125 56 35.796875 56 
Q 45.21875 56 50.046875 50.171875 
Q 54.890625 44.34375 54.890625 33.015625 
z
" id="DejaVuSans-6e"/>
      <path d="M 48.78125 52.59375 
L 48.78125 44.1875 
Q 44.96875 46.296875 41.140625 47.34375 
Q 37.3125 48.390625 33.40625 48.390625 
Q 24.65625 48.390625 19.8125 42.84375 
Q 14.984375 37.3125 14.984375 27.296875 
Q 14.984375 17.28125 19.8125 11.734375 
Q 24.65625 6.203125 33.40625 6.203125 
Q 37.3125 6.203125 41.140625 7.25 
Q 44.96875 8.296875 48.78125 10.40625 
L 48.78125 2.09375 
Q 45.015625 0.34375 40.984375 -0.53125 
Q 36.96875 -1.421875 32.421875 -1.421875 
Q 20.0625 -1.421875 12.78125 6.34375 
Q 5.515625 14.109375 5.515625 27.296875 
Q 5.515625 40.671875 12.859375 48.328125 
Q 20.21875 56 33.015625 56 
Q 37.15625 56 41.109375 55.140625 
Q 45.0625 54.296875 48.78125 52.59375 
z
" id="DejaVuSans-63"/>
      <path d="M 56.203125 29.59375 
L 56.203125 25.203125 
L 14.890625 25.203125 
Q 15.484375 15.921875 20.484375 11.0625 
Q 25.484375 6.203125 34.421875 6.203125 
Q 39.59375 6.203125 44.453125 7.46875 
Q 49.3125 8.734375 54.109375 11.28125 
L 54.109375 2.78125 
Q 49.265625 0.734375 44.1875 -0.34375 
Q 39.109375 -1.421875 33.890625 -1.421875 
Q 20.796875 -1.421875 13.15625 6.1875 
Q 5.515625 13.8125 5.515625 26.8125 
Q 5.515625 40.234375 12.765625 48.109375 
Q 20.015625 56 32.328125 56 
Q 43.359375 56 49.78125 48.890625 
Q 56.203125 41.796875 56.203125 29.59375 
z
M 47.21875 32.234375 
Q 47.125 39.59375 43.09375 43.984375 
Q 39.0625 48.390625 32.421875 48.390625 
Q 24.90625 48.390625 20.390625 44.140625 
Q 15.875 39.890625 15.1875 32.171875 
z
" id="DejaVuSans-65"/>
     </defs>
     <g transform="translate(213.20375 316.706687)scale(0.1 -0.1)">
      <use xlink:href="#DejaVuSans-44"/>
      <use x="77.001953" xlink:href="#DejaVuSans-69"/>
      <use x="104.785156" xlink:href="#DejaVuSans-73"/>
      <use x="156.884766" xlink:href="#DejaVuSans-74"/>
      <use x="196.09375" xlink:href="#DejaVuSans-61"/>
      <use x="257.373047" xlink:href="#DejaVuSans-6e"/>
      <use x="320.751953" xlink:href="#DejaVuSans-63"/>
      <use x="375.732422" xlink:href="#DejaVuSans-65"/>
     </g>
    </g>
   </g>
   <g id="matplotlib.axis_2">
    <g id="ytick_1">
     <g id="line2d_7">
      <defs>
       <path d="M 0 0 
L -3.5 0 
" id="macc97f3d6d" style="stroke:#000000;stroke-width:0.8;"/>
      </defs>
      <g>
       <use style="stroke:#000000;stroke-width:0.8;" x="56.50625" xlink:href="#macc97f3d6d" y="288.430125"/>
      </g>
     </g>
     <g id="text_8">
      <!-- 0.000 -->
      <defs>
       <path d="M 10.6875 12.40625 
L 21 12.40625 
L 21 0 
L 10.6875 0 
z
" id="DejaVuSans-2e"/>
      </defs>
      <g transform="translate(20.878125 292.229344)scale(0.1 -0.1)">
       <use xlink:href="#DejaVuSans-30"/>
       <use x="63.623047" xlink:href="#DejaVuSans-2e"/>
       <use x="95.410156" xlink:href="#DejaVuSans-30"/>
       <use x="159.033203" xlink:href="#DejaVuSans-30"/>
       <use x="222.65625" xlink:href="#DejaVuSans-30"/>
      </g>
     </g>
    </g>
    <g id="ytick_2">
     <g id="line2d_8">
      <g>
       <use style="stroke:#000000;stroke-width:0.8;" x="56.50625" xlink:href="#macc97f3d6d" y="258.19892"/>
      </g>
     </g>
     <g id="text_9">
      <!-- 0.005 -->
      <defs>
       <path d="M 10.796875 72.90625 
L 49.515625 72.90625 
L 49.515625 64.59375 
L 19.828125 64.59375 
L 19.828125 46.734375 
Q 21.96875 47.46875 24.109375 47.828125 
Q 26.265625 48.1875 28.421875 48.1875 
Q 40.625 48.1875 47.75 41.5 
Q 54.890625 34.8125 54.890625 23.390625 
Q 54.890625 11.625 47.5625 5.09375 
Q 40.234375 -1.421875 26.90625 -1.421875 
Q 22.3125 -1.421875 17.546875 -0.640625 
Q 12.796875 0.140625 7.71875 1.703125 
L 7.71875 11.625 
Q 12.109375 9.234375 16.796875 8.0625 
Q 21.484375 6.890625 26.703125 6.890625 
Q 35.15625 6.890625 40.078125 11.328125 
Q 45.015625 15.765625 45.015625 23.390625 
Q 45.015625 31 40.078125 35.4375 
Q 35.15625 39.890625 26.703125 39.890625 
Q 22.75 39.890625 18.8125 39.015625 
Q 14.890625 38.140625 10.796875 36.28125 
z
" id="DejaVuSans-35"/>
      </defs>
      <g transform="translate(20.878125 261.998139)scale(0.1 -0.1)">
       <use xlink:href="#DejaVuSans-30"/>
       <use x="63.623047" xlink:href="#DejaVuSans-2e"/>
       <use x="95.410156" xlink:href="#DejaVuSans-30"/>
       <use x="159.033203" xlink:href="#DejaVuSans-30"/>
       <use x="222.65625" xlink:href="#DejaVuSans-35"/>
      </g>
     </g>
    </g>
    <g id="ytick_3">
     <g id="line2d_9">
      <g>
       <use style="stroke:#000000;stroke-width:0.8;" x="56.50625" xlink:href="#macc97f3d6d" y="227.967715"/>
      </g>
     </g>
     <g id="text_10">
      <!-- 0.010 -->
      <g transform="translate(20.878125 231.766934)scale(0.1 -0.1)">
       <use xlink:href="#DejaVuSans-30"/>
       <use x="63.623047" xlink:href="#DejaVuSans-2e"/>
       <use x="95.410156" xlink:href="#DejaVuSans-30"/>
       <use x="159.033203" xlink:href="#DejaVuSans-31"/>
       <use x="222.65625" xlink:href="#DejaVuSans-30"/>
      </g>
     </g>
    </g>
    <g id="ytick_4">
     <g id="line2d_10">
      <g>
       <use style="stroke:#000000;stroke-width:0.8;" x="56.50625" xlink:href="#macc97f3d6d" y="197.736511"/>
      </g>
     </g>
     <g id="text_11">
      <!-- 0.015 -->
      <g transform="translate(20.878125 201.535729)scale(0.1 -0.1)">
       <use xlink:href="#DejaVuSans-30"/>
       <use x="63.623047" xlink:href="#DejaVuSans-2e"/>
       <use x="95.410156" xlink:href="#DejaVuSans-30"/>
       <use x="159.033203" xlink:href="#DejaVuSans-31"/>
       <use x="222.65625" xlink:href="#DejaVuSans-35"/>
      </g>
     </g>
    </g>
    <g id="ytick_5">
     <g id="line2d_11">
      <g>
       <use style="stroke:#000000;stroke-width:0.8;" x="56.50625" xlink:href="#macc97f3d6d" y="167.505306"/>
      </g>
     </g>
     <g id="text_12">
      <!-- 0.020 -->
      <g transform="translate(20.878125 171.304525)scale(0.1 -0.1)">
       <use xlink:href="#DejaVuSans-30"/>
       <use x="63.623047" xlink:href="#DejaVuSans-2e"/>
       <use x="95.410156" xlink:href="#DejaVuSans-30"/>
       <use x="159.033203" xlink:href="#DejaVuSans-32"/>
       <use x="222.65625" xlink:href="#DejaVuSans-30"/>
      </g>
     </g>
    </g>
    <g id="ytick_6">
     <g id="line2d_12">
      <g>
       <use style="stroke:#000000;stroke-width:0.8;" x="56.50625" xlink:href="#macc97f3d6d" y="137.274101"/>
      </g>
     </g>
     <g id="text_13">
      <!-- 0.025 -->
      <g transform="translate(20.878125 141.07332)scale(0.1 -0.1)">
       <use xlink:href="#DejaVuSans-30"/>
       <use x="63.623047" xlink:href="#DejaVuSans-2e"/>
       <use x="95.410156" xlink:href="#DejaVuSans-30"/>
       <use x="159.033203" xlink:href="#DejaVuSans-32"/>
       <use x="222.65625" xlink:href="#DejaVuSans-35"/>
      </g>
     </g>
    </g>
    <g id="ytick_7">
     <g id="line2d_13">
      <g>
       <use style="stroke:#000000;stroke-width:0.8;" x="56.50625" xlink:href="#macc97f3d6d" y="107.042896"/>
      </g>
     </g>
     <g id="text_14">
      <!-- 0.030 -->
      <g transform="translate(20.878125 110.842115)scale(0.1 -0.1)">
       <use xlink:href="#DejaVuSans-30"/>
       <use x="63.623047" xlink:href="#DejaVuSans-2e"/>
       <use x="95.410156" xlink:href="#DejaVuSans-30"/>
       <use x="159.033203" xlink:href="#DejaVuSans-33"/>
       <use x="222.65625" xlink:href="#DejaVuSans-30"/>
      </g>
     </g>
    </g>
    <g id="ytick_8">
     <g id="line2d_14">
      <g>
       <use style="stroke:#000000;stroke-width:0.8;" x="56.50625" xlink:href="#macc97f3d6d" y="76.811691"/>
      </g>
     </g>
     <g id="text_15">
      <!-- 0.035 -->
      <g transform="translate(20.878125 80.61091)scale(0.1 -0.1)">
       <use xlink:href="#DejaVuSans-30"/>
       <use x="63.623047" xlink:href="#DejaVuSans-2e"/>
       <use x="95.410156" xlink:href="#DejaVuSans-30"/>
       <use x="159.033203" xlink:href="#DejaVuSans-33"/>
       <use x="222.65625" xlink:href="#DejaVuSans-35"/>
      </g>
     </g>
    </g>
    <g id="ytick_9">
     <g id="line2d_15">
      <g>
       <use style="stroke:#000000;stroke-width:0.8;" x="56.50625" xlink:href="#macc97f3d6d" y="46.580487"/>
      </g>
     </g>
     <g id="text_16">
      <!-- 0.040 -->
      <g transform="translate(20.878125 50.379705)scale(0.1 -0.1)">
       <use xlink:href="#DejaVuSans-30"/>
       <use x="63.623047" xlink:href="#DejaVuSans-2e"/>
       <use x="95.410156" xlink:href="#DejaVuSans-30"/>
       <use x="159.033203" xlink:href="#DejaVuSans-34"/>
       <use x="222.65625" xlink:href="#DejaVuSans-30"/>
      </g>
     </g>
    </g>
    <g id="text_17">
     <!-- Frequency -->
     <defs>
      <path d="M 9.8125 72.90625 
L 51.703125 72.90625 
L 51.703125 64.59375 
L 19.671875 64.59375 
L 19.671875 43.109375 
L 48.578125 43.109375 
L 48.578125 34.8125 
L 19.671875 34.8125 
L 19.671875 0 
L 9.8125 0 
z
" id="DejaVuSans-46"/>
      <path d="M 41.109375 46.296875 
Q 39.59375 47.171875 37.8125 47.578125 
Q 36.03125 48 33.890625 48 
Q 26.265625 48 22.1875 43.046875 
Q 18.109375 38.09375 18.109375 28.8125 
L 18.109375 0 
L 9.078125 0 
L 9.078125 54.6875 
L 18.109375 54.6875 
L 18.109375 46.1875 
Q 20.953125 51.171875 25.484375 53.578125 
Q 30.03125 56 36.53125 56 
Q 37.453125 56 38.578125 55.875 
Q 39.703125 55.765625 41.0625 55.515625 
z
" id="DejaVuSans-72"/>
      <path d="M 14.796875 27.296875 
Q 14.796875 17.390625 18.875 11.75 
Q 22.953125 6.109375 30.078125 6.109375 
Q 37.203125 6.109375 41.296875 11.75 
Q 45.40625 17.390625 45.40625 27.296875 
Q 45.40625 37.203125 41.296875 42.84375 
Q 37.203125 48.484375 30.078125 48.484375 
Q 22.953125 48.484375 18.875 42.84375 
Q 14.796875 37.203125 14.796875 27.296875 
z
M 45.40625 8.203125 
Q 42.578125 3.328125 38.25 0.953125 
Q 33.9375 -1.421875 27.875 -1.421875 
Q 17.96875 -1.421875 11.734375 6.484375 
Q 5.515625 14.40625 5.515625 27.296875 
Q 5.515625 40.1875 11.734375 48.09375 
Q 17.96875 56 27.875 56 
Q 33.9375 56 38.25 53.625 
Q 42.578125 51.265625 45.40625 46.390625 
L 45.40625 54.6875 
L 54.390625 54.6875 
L 54.390625 -20.796875 
L 45.40625 -20.796875 
z
" id="DejaVuSans-71"/>
      <path d="M 8.5 21.578125 
L 8.5 54.6875 
L 17.484375 54.6875 
L 17.484375 21.921875 
Q 17.484375 14.15625 20.5 10.265625 
Q 23.53125 6.390625 29.59375 6.390625 
Q 36.859375 6.390625 41.078125 11.03125 
Q 45.3125 15.671875 45.3125 23.6875 
L 45.3125 54.6875 
L 54.296875 54.6875 
L 54.296875 0 
L 45.3125 0 
L 45.3125 8.40625 
Q 42.046875 3.421875 37.71875 1 
Q 33.40625 -1.421875 27.6875 -1.421875 
Q 18.265625 -1.421875 13.375 4.4375 
Q 8.5 10.296875 8.5 21.578125 
z
M 31.109375 56 
z
" id="DejaVuSans-75"/>
      <path d="M 32.171875 -5.078125 
Q 28.375 -14.84375 24.75 -17.8125 
Q 21.140625 -20.796875 15.09375 -20.796875 
L 7.90625 -20.796875 
L 7.90625 -13.28125 
L 13.1875 -13.28125 
Q 16.890625 -13.28125 18.9375 -11.515625 
Q 21 -9.765625 23.484375 -3.21875 
L 25.09375 0.875 
L 2.984375 54.6875 
L 12.5 54.6875 
L 29.59375 11.921875 
L 46.6875 54.6875 
L 56.203125 54.6875 
z
" id="DejaVuSans-79"/>
     </defs>
     <g transform="translate(14.798437 181.671781)rotate(-90)scale(0.1 -0.1)">
      <use xlink:href="#DejaVuSans-46"/>
      <use x="57.410156" xlink:href="#DejaVuSans-72"/>
      <use x="98.492188" xlink:href="#DejaVuSans-65"/>
      <use x="160.015625" xlink:href="#DejaVuSans-71"/>
      <use x="223.492188" xlink:href="#DejaVuSans-75"/>
      <use x="286.871094" xlink:href="#DejaVuSans-65"/>
      <use x="348.394531" xlink:href="#DejaVuSans-6e"/>
      <use x="411.773438" xlink:href="#DejaVuSans-63"/>
      <use x="466.753906" xlink:href="#DejaVuSans-79"/>
     </g>
    </g>
   </g>
   <g id="line2d_16">
    <path clip-path="url(#p8e983004b7)" d="M 72.738977 287.611604 
L 127.259867 273.655241 
L 133.65647 269.006781 
L 145.706011 257.112492 
L 153.795609 246.443759 
L 163.422892 230.606881 
L 168.303794 221.229995 
L 172.651384 212.123935 
L 174.790386 207.391146 
L 184.173448 184.821502 
L 187.977205 174.937508 
L 194.195387 158.089217 
L 204.252028 129.838015 
L 211.117726 110.636603 
L 217.693748 93.012123 
L 222.371188 81.274727 
L 224.093263 77.172114 
L 227.343633 69.804174 
L 231.025588 62.12592 
L 234.039845 56.432938 
L 236.424929 52.34163 
L 238.893816 48.51723 
L 241.935656 44.412685 
L 242.43879 43.800831 
L 245.115529 40.876379 
L 247.366899 38.858288 
L 249.451512 37.35906 
L 250.725162 36.620835 
L 253.11875 35.603162 
L 253.778508 35.408139 
L 255.53542 35.070039 
L 257.393818 35.000014 
L 260.579361 35.567913 
L 262.069966 36.130768 
L 264.449716 37.418028 
L 265.147163 37.884991 
L 266.839361 39.184858 
L 269.157561 41.343405 
L 271.975869 44.540218 
L 273.858729 47.014499 
L 275.781666 49.811019 
L 278.750249 54.639525 
L 279.658665 56.235806 
L 282.432412 61.435123 
L 285.749653 68.254123 
L 289.208134 75.988946 
L 292.099815 82.886384 
L 295.750297 92.069488 
L 302.8022 110.943172 
L 310.733941 133.164739 
L 321.270125 162.648266 
L 325.754015 174.732681 
L 331.069493 188.448 
L 336.585084 201.812761 
L 339.365191 208.169886 
L 344.497557 219.182688 
L 349.313084 228.623982 
L 351.860364 233.26112 
L 359.53298 245.736689 
L 366.337496 254.980661 
L 377.284165 266.57075 
L 386.184048 273.41742 
L 390.895511 276.258042 
L 397.393523 279.427286 
L 397.393523 279.427286 
" style="fill:none;stroke:#1f77b4;stroke-linecap:square;stroke-width:1.5;"/>
    <defs>
     <path d="M 0 3 
C 0.795609 3 1.55874 2.683901 2.12132 2.12132 
C 2.683901 1.55874 3 0.795609 3 0 
C 3 -0.795609 2.683901 -1.55874 2.12132 -2.12132 
C 1.55874 -2.683901 0.795609 -3 0 -3 
C -0.795609 -3 -1.55874 -2.683901 -2.12132 -2.12132 
C -2.683901 -1.55874 -3 -0.795609 -3 0 
C -3 0.795609 -2.683901 1.55874 -2.12132 2.12132 
C -1.55874 2.683901 -0.795609 3 0 3 
z
" id="ma2424cdf5b" style="stroke:#1f77b4;"/>
    </defs>
    <g clip-path="url(#p8e983004b7)">
     <use style="fill:#1f77b4;stroke:#1f77b4;" x="72.738977" xlink:href="#ma2424cdf5b" y="287.611604"/>
     <use style="fill:#1f77b4;stroke:#1f77b4;" x="127.259867" xlink:href="#ma2424cdf5b" y="273.655241"/>
     <use style="fill:#1f77b4;stroke:#1f77b4;" x="133.65647" xlink:href="#ma2424cdf5b" y="269.006781"/>
     <use style="fill:#1f77b4;stroke:#1f77b4;" x="145.706011" xlink:href="#ma2424cdf5b" y="257.112492"/>
     <use style="fill:#1f77b4;stroke:#1f77b4;" x="153.795609" xlink:href="#ma2424cdf5b" y="246.443759"/>
     <use style="fill:#1f77b4;stroke:#1f77b4;" x="163.422892" xlink:href="#ma2424cdf5b" y="230.606881"/>
     <use style="fill:#1f77b4;stroke:#1f77b4;" x="165.859317" xlink:href="#ma2424cdf5b" y="226.039428"/>
     <use style="fill:#1f77b4;stroke:#1f77b4;" x="168.303794" xlink:href="#ma2424cdf5b" y="221.229995"/>
     <use style="fill:#1f77b4;stroke:#1f77b4;" x="171.452834" xlink:href="#ma2424cdf5b" y="214.703868"/>
     <use style="fill:#1f77b4;stroke:#1f77b4;" x="171.539937" xlink:href="#ma2424cdf5b" y="214.51814"/>
     <use style="fill:#1f77b4;stroke:#1f77b4;" x="172.140126" xlink:href="#ma2424cdf5b" y="213.230834"/>
     <use style="fill:#1f77b4;stroke:#1f77b4;" x="172.651384" xlink:href="#ma2424cdf5b" y="212.123935"/>
     <use style="fill:#1f77b4;stroke:#1f77b4;" x="174.790386" xlink:href="#ma2424cdf5b" y="207.391146"/>
     <use style="fill:#1f77b4;stroke:#1f77b4;" x="184.173448" xlink:href="#ma2424cdf5b" y="184.821502"/>
     <use style="fill:#1f77b4;stroke:#1f77b4;" x="187.671538" xlink:href="#ma2424cdf5b" y="175.745105"/>
     <use style="fill:#1f77b4;stroke:#1f77b4;" x="187.977205" xlink:href="#ma2424cdf5b" y="174.937508"/>
     <use style="fill:#1f77b4;stroke:#1f77b4;" x="191.472704" xlink:href="#ma2424cdf5b" y="165.556507"/>
     <use style="fill:#1f77b4;stroke:#1f77b4;" x="191.540256" xlink:href="#ma2424cdf5b" y="165.372787"/>
     <use style="fill:#1f77b4;stroke:#1f77b4;" x="191.646904" xlink:href="#ma2424cdf5b" y="165.082561"/>
     <use style="fill:#1f77b4;stroke:#1f77b4;" x="193.176114" xlink:href="#ma2424cdf5b" y="160.898976"/>
     <use style="fill:#1f77b4;stroke:#1f77b4;" x="193.527685" xlink:href="#ma2424cdf5b" y="159.931633"/>
     <use style="fill:#1f77b4;stroke:#1f77b4;" x="194.195387" xlink:href="#ma2424cdf5b" y="158.089217"/>
     <use style="fill:#1f77b4;stroke:#1f77b4;" x="196.224656" xlink:href="#ma2424cdf5b" y="152.451946"/>
     <use style="fill:#1f77b4;stroke:#1f77b4;" x="197.17629" xlink:href="#ma2424cdf5b" y="149.791502"/>
     <use style="fill:#1f77b4;stroke:#1f77b4;" x="197.620942" xlink:href="#ma2424cdf5b" y="148.54531"/>
     <use style="fill:#1f77b4;stroke:#1f77b4;" x="200.791983" xlink:href="#ma2424cdf5b" y="139.616065"/>
     <use style="fill:#1f77b4;stroke:#1f77b4;" x="201.485375" xlink:href="#ma2424cdf5b" y="137.65718"/>
     <use style="fill:#1f77b4;stroke:#1f77b4;" x="202.206134" xlink:href="#ma2424cdf5b" y="135.619982"/>
     <use style="fill:#1f77b4;stroke:#1f77b4;" x="202.255121" xlink:href="#ma2424cdf5b" y="135.481503"/>
     <use style="fill:#1f77b4;stroke:#1f77b4;" x="203.981135" xlink:href="#ma2424cdf5b" y="130.603153"/>
     <use style="fill:#1f77b4;stroke:#1f77b4;" x="204.092374" xlink:href="#ma2424cdf5b" y="130.28893"/>
     <use style="fill:#1f77b4;stroke:#1f77b4;" x="204.252028" xlink:href="#ma2424cdf5b" y="129.838015"/>
     <use style="fill:#1f77b4;stroke:#1f77b4;" x="205.323902" xlink:href="#ma2424cdf5b" y="126.813296"/>
     <use style="fill:#1f77b4;stroke:#1f77b4;" x="206.285758" xlink:href="#ma2424cdf5b" y="124.104325"/>
     <use style="fill:#1f77b4;stroke:#1f77b4;" x="206.581617" xlink:href="#ma2424cdf5b" y="123.272364"/>
     <use style="fill:#1f77b4;stroke:#1f77b4;" x="208.088129" xlink:href="#ma2424cdf5b" y="119.04803"/>
     <use style="fill:#1f77b4;stroke:#1f77b4;" x="209.560929" xlink:href="#ma2424cdf5b" y="114.942575"/>
     <use style="fill:#1f77b4;stroke:#1f77b4;" x="210.053293" xlink:href="#ma2424cdf5b" y="113.576639"/>
     <use style="fill:#1f77b4;stroke:#1f77b4;" x="211.117726" xlink:href="#ma2424cdf5b" y="110.636603"/>
     <use style="fill:#1f77b4;stroke:#1f77b4;" x="214.555529" xlink:href="#ma2424cdf5b" y="101.289711"/>
     <use style="fill:#1f77b4;stroke:#1f77b4;" x="216.187203" xlink:href="#ma2424cdf5b" y="96.951038"/>
     <use style="fill:#1f77b4;stroke:#1f77b4;" x="216.588701" xlink:href="#ma2424cdf5b" y="95.894688"/>
     <use style="fill:#1f77b4;stroke:#1f77b4;" x="216.942469" xlink:href="#ma2424cdf5b" y="94.967832"/>
     <use style="fill:#1f77b4;stroke:#1f77b4;" x="217.693748" xlink:href="#ma2424cdf5b" y="93.012123"/>
     <use style="fill:#1f77b4;stroke:#1f77b4;" x="219.82558" xlink:href="#ma2424cdf5b" y="87.563164"/>
     <use style="fill:#1f77b4;stroke:#1f77b4;" x="219.91837" xlink:href="#ma2424cdf5b" y="87.329592"/>
     <use style="fill:#1f77b4;stroke:#1f77b4;" x="220.087133" xlink:href="#ma2424cdf5b" y="86.905589"/>
     <use style="fill:#1f77b4;stroke:#1f77b4;" x="220.369488" xlink:href="#ma2424cdf5b" y="86.198551"/>
     <use style="fill:#1f77b4;stroke:#1f77b4;" x="220.492656" xlink:href="#ma2424cdf5b" y="85.891062"/>
     <use style="fill:#1f77b4;stroke:#1f77b4;" x="221.038459" xlink:href="#ma2424cdf5b" y="84.535423"/>
     <use style="fill:#1f77b4;stroke:#1f77b4;" x="221.800536" xlink:href="#ma2424cdf5b" y="82.662106"/>
     <use style="fill:#1f77b4;stroke:#1f77b4;" x="222.371188" xlink:href="#ma2424cdf5b" y="81.274727"/>
     <use style="fill:#1f77b4;stroke:#1f77b4;" x="223.513175" xlink:href="#ma2424cdf5b" y="78.539579"/>
     <use style="fill:#1f77b4;stroke:#1f77b4;" x="223.546913" xlink:href="#ma2424cdf5b" y="78.459637"/>
     <use style="fill:#1f77b4;stroke:#1f77b4;" x="224.093263" xlink:href="#ma2424cdf5b" y="77.172114"/>
     <use style="fill:#1f77b4;stroke:#1f77b4;" x="227.343633" xlink:href="#ma2424cdf5b" y="69.804174"/>
     <use style="fill:#1f77b4;stroke:#1f77b4;" x="229.510351" xlink:href="#ma2424cdf5b" y="65.193979"/>
     <use style="fill:#1f77b4;stroke:#1f77b4;" x="229.781451" xlink:href="#ma2424cdf5b" y="64.635363"/>
     <use style="fill:#1f77b4;stroke:#1f77b4;" x="230.508396" xlink:href="#ma2424cdf5b" y="63.158182"/>
     <use style="fill:#1f77b4;stroke:#1f77b4;" x="231.025588" xlink:href="#ma2424cdf5b" y="62.12592"/>
     <use style="fill:#1f77b4;stroke:#1f77b4;" x="231.772791" xlink:href="#ma2424cdf5b" y="60.662612"/>
     <use style="fill:#1f77b4;stroke:#1f77b4;" x="232.342527" xlink:href="#ma2424cdf5b" y="59.569536"/>
     <use style="fill:#1f77b4;stroke:#1f77b4;" x="232.730451" xlink:href="#ma2424cdf5b" y="58.836702"/>
     <use style="fill:#1f77b4;stroke:#1f77b4;" x="233.390714" xlink:href="#ma2424cdf5b" y="57.611002"/>
     <use style="fill:#1f77b4;stroke:#1f77b4;" x="234.039845" xlink:href="#ma2424cdf5b" y="56.432938"/>
     <use style="fill:#1f77b4;stroke:#1f77b4;" x="234.392496" xlink:href="#ma2424cdf5b" y="55.804313"/>
     <use style="fill:#1f77b4;stroke:#1f77b4;" x="234.447783" xlink:href="#ma2424cdf5b" y="55.706493"/>
     <use style="fill:#1f77b4;stroke:#1f77b4;" x="234.522617" xlink:href="#ma2424cdf5b" y="55.574407"/>
     <use style="fill:#1f77b4;stroke:#1f77b4;" x="234.616931" xlink:href="#ma2424cdf5b" y="55.408459"/>
     <use style="fill:#1f77b4;stroke:#1f77b4;" x="235.537993" xlink:href="#ma2424cdf5b" y="53.818704"/>
     <use style="fill:#1f77b4;stroke:#1f77b4;" x="235.982522" xlink:href="#ma2424cdf5b" y="53.071731"/>
     <use style="fill:#1f77b4;stroke:#1f77b4;" x="236.424929" xlink:href="#ma2424cdf5b" y="52.34163"/>
     <use style="fill:#1f77b4;stroke:#1f77b4;" x="237.064567" xlink:href="#ma2424cdf5b" y="51.309784"/>
     <use style="fill:#1f77b4;stroke:#1f77b4;" x="238.893816" xlink:href="#ma2424cdf5b" y="48.51723"/>
     <use style="fill:#1f77b4;stroke:#1f77b4;" x="240.561805" xlink:href="#ma2424cdf5b" y="46.181278"/>
     <use style="fill:#1f77b4;stroke:#1f77b4;" x="240.854481" xlink:href="#ma2424cdf5b" y="45.792603"/>
     <use style="fill:#1f77b4;stroke:#1f77b4;" x="241.403966" xlink:href="#ma2424cdf5b" y="45.080244"/>
     <use style="fill:#1f77b4;stroke:#1f77b4;" x="241.422476" xlink:href="#ma2424cdf5b" y="45.056643"/>
     <use style="fill:#1f77b4;stroke:#1f77b4;" x="241.604539" xlink:href="#ma2424cdf5b" y="44.825894"/>
     <use style="fill:#1f77b4;stroke:#1f77b4;" x="241.935656" xlink:href="#ma2424cdf5b" y="44.412685"/>
     <use style="fill:#1f77b4;stroke:#1f77b4;" x="242.429627" xlink:href="#ma2424cdf5b" y="43.811801"/>
     <use style="fill:#1f77b4;stroke:#1f77b4;" x="242.43879" xlink:href="#ma2424cdf5b" y="43.800831"/>
     <use style="fill:#1f77b4;stroke:#1f77b4;" x="244.499744" xlink:href="#ma2424cdf5b" y="41.499244"/>
     <use style="fill:#1f77b4;stroke:#1f77b4;" x="245.115529" xlink:href="#ma2424cdf5b" y="40.876379"/>
     <use style="fill:#1f77b4;stroke:#1f77b4;" x="246.528777" xlink:href="#ma2424cdf5b" y="39.561639"/>
     <use style="fill:#1f77b4;stroke:#1f77b4;" x="246.806576" xlink:href="#ma2424cdf5b" y="39.322173"/>
     <use style="fill:#1f77b4;stroke:#1f77b4;" x="247.366899" xlink:href="#ma2424cdf5b" y="38.858288"/>
     <use style="fill:#1f77b4;stroke:#1f77b4;" x="248.086103" xlink:href="#ma2424cdf5b" y="38.300527"/>
     <use style="fill:#1f77b4;stroke:#1f77b4;" x="249.451512" xlink:href="#ma2424cdf5b" y="37.35906"/>
     <use style="fill:#1f77b4;stroke:#1f77b4;" x="250.048629" xlink:href="#ma2424cdf5b" y="36.996058"/>
     <use style="fill:#1f77b4;stroke:#1f77b4;" x="250.725162" xlink:href="#ma2424cdf5b" y="36.620835"/>
     <use style="fill:#1f77b4;stroke:#1f77b4;" x="252.16095" xlink:href="#ma2424cdf5b" y="35.952172"/>
     <use style="fill:#1f77b4;stroke:#1f77b4;" x="253.11875" xlink:href="#ma2424cdf5b" y="35.603162"/>
     <use style="fill:#1f77b4;stroke:#1f77b4;" x="253.778508" xlink:href="#ma2424cdf5b" y="35.408139"/>
     <use style="fill:#1f77b4;stroke:#1f77b4;" x="255.53542" xlink:href="#ma2424cdf5b" y="35.070039"/>
     <use style="fill:#1f77b4;stroke:#1f77b4;" x="256.810069" xlink:href="#ma2424cdf5b" y="34.990125"/>
     <use style="fill:#1f77b4;stroke:#1f77b4;" x="257.069603" xlink:href="#ma2424cdf5b" y="34.990915"/>
     <use style="fill:#1f77b4;stroke:#1f77b4;" x="257.393818" xlink:href="#ma2424cdf5b" y="35.000014"/>
     <use style="fill:#1f77b4;stroke:#1f77b4;" x="259.790288" xlink:href="#ma2424cdf5b" y="35.346445"/>
     <use style="fill:#1f77b4;stroke:#1f77b4;" x="259.841447" xlink:href="#ma2424cdf5b" y="35.359194"/>
     <use style="fill:#1f77b4;stroke:#1f77b4;" x="259.851424" xlink:href="#ma2424cdf5b" y="35.361706"/>
     <use style="fill:#1f77b4;stroke:#1f77b4;" x="260.579361" xlink:href="#ma2424cdf5b" y="35.567913"/>
     <use style="fill:#1f77b4;stroke:#1f77b4;" x="261.838866" xlink:href="#ma2424cdf5b" y="36.031164"/>
     <use style="fill:#1f77b4;stroke:#1f77b4;" x="261.910785" xlink:href="#ma2424cdf5b" y="36.061677"/>
     <use style="fill:#1f77b4;stroke:#1f77b4;" x="262.069966" xlink:href="#ma2424cdf5b" y="36.130768"/>
     <use style="fill:#1f77b4;stroke:#1f77b4;" x="263.459978" xlink:href="#ma2424cdf5b" y="36.82493"/>
     <use style="fill:#1f77b4;stroke:#1f77b4;" x="264.351002" xlink:href="#ma2424cdf5b" y="37.355202"/>
     <use style="fill:#1f77b4;stroke:#1f77b4;" x="264.449716" xlink:href="#ma2424cdf5b" y="37.418028"/>
     <use style="fill:#1f77b4;stroke:#1f77b4;" x="265.147163" xlink:href="#ma2424cdf5b" y="37.884991"/>
     <use style="fill:#1f77b4;stroke:#1f77b4;" x="266.712628" xlink:href="#ma2424cdf5b" y="39.079377"/>
     <use style="fill:#1f77b4;stroke:#1f77b4;" x="266.817429" xlink:href="#ma2424cdf5b" y="39.16651"/>
     <use style="fill:#1f77b4;stroke:#1f77b4;" x="266.839361" xlink:href="#ma2424cdf5b" y="39.184858"/>
     <use style="fill:#1f77b4;stroke:#1f77b4;" x="268.146548" xlink:href="#ma2424cdf5b" y="40.348893"/>
     <use style="fill:#1f77b4;stroke:#1f77b4;" x="268.619931" xlink:href="#ma2424cdf5b" y="40.80439"/>
     <use style="fill:#1f77b4;stroke:#1f77b4;" x="268.984712" xlink:href="#ma2424cdf5b" y="41.167603"/>
     <use style="fill:#1f77b4;stroke:#1f77b4;" x="269.157561" xlink:href="#ma2424cdf5b" y="41.343405"/>
     <use style="fill:#1f77b4;stroke:#1f77b4;" x="270.803565" xlink:href="#ma2424cdf5b" y="43.135499"/>
     <use style="fill:#1f77b4;stroke:#1f77b4;" x="270.989831" xlink:href="#ma2424cdf5b" y="43.351622"/>
     <use style="fill:#1f77b4;stroke:#1f77b4;" x="271.975869" xlink:href="#ma2424cdf5b" y="44.540218"/>
     <use style="fill:#1f77b4;stroke:#1f77b4;" x="272.529321" xlink:href="#ma2424cdf5b" y="45.239877"/>
     <use style="fill:#1f77b4;stroke:#1f77b4;" x="273.858729" xlink:href="#ma2424cdf5b" y="47.014499"/>
     <use style="fill:#1f77b4;stroke:#1f77b4;" x="274.69734" xlink:href="#ma2424cdf5b" y="48.201157"/>
     <use style="fill:#1f77b4;stroke:#1f77b4;" x="274.871418" xlink:href="#ma2424cdf5b" y="48.453905"/>
     <use style="fill:#1f77b4;stroke:#1f77b4;" x="275.740209" xlink:href="#ma2424cdf5b" y="49.747923"/>
     <use style="fill:#1f77b4;stroke:#1f77b4;" x="275.781666" xlink:href="#ma2424cdf5b" y="49.811019"/>
     <use style="fill:#1f77b4;stroke:#1f77b4;" x="277.039795" xlink:href="#ma2424cdf5b" y="51.783368"/>
     <use style="fill:#1f77b4;stroke:#1f77b4;" x="277.048764" xlink:href="#ma2424cdf5b" y="51.797824"/>
     <use style="fill:#1f77b4;stroke:#1f77b4;" x="277.350828" xlink:href="#ma2424cdf5b" y="52.287941"/>
     <use style="fill:#1f77b4;stroke:#1f77b4;" x="278.750249" xlink:href="#ma2424cdf5b" y="54.639525"/>
     <use style="fill:#1f77b4;stroke:#1f77b4;" x="279.034863" xlink:href="#ma2424cdf5b" y="55.133825"/>
     <use style="fill:#1f77b4;stroke:#1f77b4;" x="279.658665" xlink:href="#ma2424cdf5b" y="56.235806"/>
     <use style="fill:#1f77b4;stroke:#1f77b4;" x="282.432412" xlink:href="#ma2424cdf5b" y="61.435123"/>
     <use style="fill:#1f77b4;stroke:#1f77b4;" x="284.570383" xlink:href="#ma2424cdf5b" y="65.758865"/>
     <use style="fill:#1f77b4;stroke:#1f77b4;" x="285.188921" xlink:href="#ma2424cdf5b" y="67.058174"/>
     <use style="fill:#1f77b4;stroke:#1f77b4;" x="285.749653" xlink:href="#ma2424cdf5b" y="68.254123"/>
     <use style="fill:#1f77b4;stroke:#1f77b4;" x="286.769517" xlink:href="#ma2424cdf5b" y="70.47221"/>
     <use style="fill:#1f77b4;stroke:#1f77b4;" x="287.21459" xlink:href="#ma2424cdf5b" y="71.457099"/>
     <use style="fill:#1f77b4;stroke:#1f77b4;" x="287.502433" xlink:href="#ma2424cdf5b" y="72.099405"/>
     <use style="fill:#1f77b4;stroke:#1f77b4;" x="289.208134" xlink:href="#ma2424cdf5b" y="75.988946"/>
     <use style="fill:#1f77b4;stroke:#1f77b4;" x="289.834478" xlink:href="#ma2424cdf5b" y="77.451704"/>
     <use style="fill:#1f77b4;stroke:#1f77b4;" x="290.000558" xlink:href="#ma2424cdf5b" y="77.842562"/>
     <use style="fill:#1f77b4;stroke:#1f77b4;" x="290.060221" xlink:href="#ma2424cdf5b" y="77.983276"/>
     <use style="fill:#1f77b4;stroke:#1f77b4;" x="290.48205" xlink:href="#ma2424cdf5b" y="78.982673"/>
     <use style="fill:#1f77b4;stroke:#1f77b4;" x="290.92044" xlink:href="#ma2424cdf5b" y="80.029564"/>
     <use style="fill:#1f77b4;stroke:#1f77b4;" x="292.099815" xlink:href="#ma2424cdf5b" y="82.886384"/>
     <use style="fill:#1f77b4;stroke:#1f77b4;" x="293.203384" xlink:href="#ma2424cdf5b" y="85.610527"/>
     <use style="fill:#1f77b4;stroke:#1f77b4;" x="294.23957" xlink:href="#ma2424cdf5b" y="88.210545"/>
     <use style="fill:#1f77b4;stroke:#1f77b4;" x="295.750297" xlink:href="#ma2424cdf5b" y="92.069488"/>
     <use style="fill:#1f77b4;stroke:#1f77b4;" x="300.620214" xlink:href="#ma2424cdf5b" y="104.976395"/>
     <use style="fill:#1f77b4;stroke:#1f77b4;" x="302.592197" xlink:href="#ma2424cdf5b" y="110.36498"/>
     <use style="fill:#1f77b4;stroke:#1f77b4;" x="302.8022" xlink:href="#ma2424cdf5b" y="110.943172"/>
     <use style="fill:#1f77b4;stroke:#1f77b4;" x="304.028987" xlink:href="#ma2424cdf5b" y="114.335416"/>
     <use style="fill:#1f77b4;stroke:#1f77b4;" x="304.077127" xlink:href="#ma2424cdf5b" y="114.469006"/>
     <use style="fill:#1f77b4;stroke:#1f77b4;" x="304.21927" xlink:href="#ma2424cdf5b" y="114.863653"/>
     <use style="fill:#1f77b4;stroke:#1f77b4;" x="305.121294" xlink:href="#ma2424cdf5b" y="117.374492"/>
     <use style="fill:#1f77b4;stroke:#1f77b4;" x="305.783601" xlink:href="#ma2424cdf5b" y="119.224556"/>
     <use style="fill:#1f77b4;stroke:#1f77b4;" x="306.523353" xlink:href="#ma2424cdf5b" y="121.296624"/>
     <use style="fill:#1f77b4;stroke:#1f77b4;" x="307.037214" xlink:href="#ma2424cdf5b" y="122.739059"/>
     <use style="fill:#1f77b4;stroke:#1f77b4;" x="307.90579" xlink:href="#ma2424cdf5b" y="125.182101"/>
     <use style="fill:#1f77b4;stroke:#1f77b4;" x="307.950267" xlink:href="#ma2424cdf5b" y="125.307347"/>
     <use style="fill:#1f77b4;stroke:#1f77b4;" x="309.777077" xlink:href="#ma2424cdf5b" y="130.46078"/>
     <use style="fill:#1f77b4;stroke:#1f77b4;" x="310.167016" xlink:href="#ma2424cdf5b" y="131.562464"/>
     <use style="fill:#1f77b4;stroke:#1f77b4;" x="310.733941" xlink:href="#ma2424cdf5b" y="133.164739"/>
     <use style="fill:#1f77b4;stroke:#1f77b4;" x="312.174893" xlink:href="#ma2424cdf5b" y="137.237949"/>
     <use style="fill:#1f77b4;stroke:#1f77b4;" x="315.049385" xlink:href="#ma2424cdf5b" y="145.347451"/>
     <use style="fill:#1f77b4;stroke:#1f77b4;" x="321.270125" xlink:href="#ma2424cdf5b" y="162.648266"/>
     <use style="fill:#1f77b4;stroke:#1f77b4;" x="322.190146" xlink:href="#ma2424cdf5b" y="165.159968"/>
     <use style="fill:#1f77b4;stroke:#1f77b4;" x="323.035842" xlink:href="#ma2424cdf5b" y="167.455046"/>
     <use style="fill:#1f77b4;stroke:#1f77b4;" x="325.754015" xlink:href="#ma2424cdf5b" y="174.732681"/>
     <use style="fill:#1f77b4;stroke:#1f77b4;" x="328.799637" xlink:href="#ma2424cdf5b" y="182.682579"/>
     <use style="fill:#1f77b4;stroke:#1f77b4;" x="330.131123" xlink:href="#ma2424cdf5b" y="186.082049"/>
     <use style="fill:#1f77b4;stroke:#1f77b4;" x="330.462784" xlink:href="#ma2424cdf5b" y="186.921156"/>
     <use style="fill:#1f77b4;stroke:#1f77b4;" x="331.069493" xlink:href="#ma2424cdf5b" y="188.448"/>
     <use style="fill:#1f77b4;stroke:#1f77b4;" x="334.093481" xlink:href="#ma2424cdf5b" y="195.894396"/>
     <use style="fill:#1f77b4;stroke:#1f77b4;" x="336.585084" xlink:href="#ma2424cdf5b" y="201.812761"/>
     <use style="fill:#1f77b4;stroke:#1f77b4;" x="339.365191" xlink:href="#ma2424cdf5b" y="208.169886"/>
     <use style="fill:#1f77b4;stroke:#1f77b4;" x="343.115136" xlink:href="#ma2424cdf5b" y="216.311224"/>
     <use style="fill:#1f77b4;stroke:#1f77b4;" x="344.271206" xlink:href="#ma2424cdf5b" y="218.717396"/>
     <use style="fill:#1f77b4;stroke:#1f77b4;" x="344.497557" xlink:href="#ma2424cdf5b" y="219.182688"/>
     <use style="fill:#1f77b4;stroke:#1f77b4;" x="346.84776" xlink:href="#ma2424cdf5b" y="223.900199"/>
     <use style="fill:#1f77b4;stroke:#1f77b4;" x="349.313084" xlink:href="#ma2424cdf5b" y="228.623982"/>
     <use style="fill:#1f77b4;stroke:#1f77b4;" x="351.860364" xlink:href="#ma2424cdf5b" y="233.26112"/>
     <use style="fill:#1f77b4;stroke:#1f77b4;" x="358.25778" xlink:href="#ma2424cdf5b" y="243.81685"/>
     <use style="fill:#1f77b4;stroke:#1f77b4;" x="359.53298" xlink:href="#ma2424cdf5b" y="245.736689"/>
     <use style="fill:#1f77b4;stroke:#1f77b4;" x="366.337496" xlink:href="#ma2424cdf5b" y="254.980661"/>
     <use style="fill:#1f77b4;stroke:#1f77b4;" x="376.483297" xlink:href="#ma2424cdf5b" y="265.848716"/>
     <use style="fill:#1f77b4;stroke:#1f77b4;" x="377.284165" xlink:href="#ma2424cdf5b" y="266.57075"/>
     <use style="fill:#1f77b4;stroke:#1f77b4;" x="386.184048" xlink:href="#ma2424cdf5b" y="273.41742"/>
     <use style="fill:#1f77b4;stroke:#1f77b4;" x="390.895511" xlink:href="#ma2424cdf5b" y="276.258042"/>
     <use style="fill:#1f77b4;stroke:#1f77b4;" x="397.393523" xlink:href="#ma2424cdf5b" y="279.427286"/>
    </g>
   </g>
   <g id="patch_13">
    <path d="M 56.50625 288.430125 
L 56.50625 22.318125 
" style="fill:none;stroke:#000000;stroke-linecap:square;stroke-linejoin:miter;stroke-width:0.8;"/>
   </g>
   <g id="patch_14">
    <path d="M 413.62625 288.430125 
L 413.62625 22.318125 
" style="fill:none;stroke:#000000;stroke-linecap:square;stroke-linejoin:miter;stroke-width:0.8;"/>
   </g>
   <g id="patch_15">
    <path d="M 56.50625 288.430125 
L 413.62625 288.430125 
" style="fill:none;stroke:#000000;stroke-linecap:square;stroke-linejoin:miter;stroke-width:0.8;"/>
   </g>
   <g id="patch_16">
    <path d="M 56.50625 22.318125 
L 413.62625 22.318125 
" style="fill:none;stroke:#000000;stroke-linecap:square;stroke-linejoin:miter;stroke-width:0.8;"/>
   </g>
   <g id="text_18">
    <!-- Distribution Between Pairs [d-dim * k^(1/2)] -->
    <defs>
     <path d="M 48.6875 27.296875 
Q 48.6875 37.203125 44.609375 42.84375 
Q 40.53125 48.484375 33.40625 48.484375 
Q 26.265625 48.484375 22.1875 42.84375 
Q 18.109375 37.203125 18.109375 27.296875 
Q 18.109375 17.390625 22.1875 11.75 
Q 26.265625 6.109375 33.40625 6.109375 
Q 40.53125 6.109375 44.609375 11.75 
Q 48.6875 17.390625 48.6875 27.296875 
z
M 18.109375 46.390625 
Q 20.953125 51.265625 25.265625 53.625 
Q 29.59375 56 35.59375 56 
Q 45.5625 56 51.78125 48.09375 
Q 58.015625 40.1875 58.015625 27.296875 
Q 58.015625 14.40625 51.78125 6.484375 
Q 45.5625 -1.421875 35.59375 -1.421875 
Q 29.59375 -1.421875 25.265625 0.953125 
Q 20.953125 3.328125 18.109375 8.203125 
L 18.109375 0 
L 9.078125 0 
L 9.078125 75.984375 
L 18.109375 75.984375 
z
" id="DejaVuSans-62"/>
     <path d="M 30.609375 48.390625 
Q 23.390625 48.390625 19.1875 42.75 
Q 14.984375 37.109375 14.984375 27.296875 
Q 14.984375 17.484375 19.15625 11.84375 
Q 23.34375 6.203125 30.609375 6.203125 
Q 37.796875 6.203125 41.984375 11.859375 
Q 46.1875 17.53125 46.1875 27.296875 
Q 46.1875 37.015625 41.984375 42.703125 
Q 37.796875 48.390625 30.609375 48.390625 
z
M 30.609375 56 
Q 42.328125 56 49.015625 48.375 
Q 55.71875 40.765625 55.71875 27.296875 
Q 55.71875 13.875 49.015625 6.21875 
Q 42.328125 -1.421875 30.609375 -1.421875 
Q 18.84375 -1.421875 12.171875 6.21875 
Q 5.515625 13.875 5.515625 27.296875 
Q 5.515625 40.765625 12.171875 48.375 
Q 18.84375 56 30.609375 56 
z
" id="DejaVuSans-6f"/>
     <path id="DejaVuSans-20"/>
     <path d="M 19.671875 34.8125 
L 19.671875 8.109375 
L 35.5 8.109375 
Q 43.453125 8.109375 47.28125 11.40625 
Q 51.125 14.703125 51.125 21.484375 
Q 51.125 28.328125 47.28125 31.5625 
Q 43.453125 34.8125 35.5 34.8125 
z
M 19.671875 64.796875 
L 19.671875 42.828125 
L 34.28125 42.828125 
Q 41.5 42.828125 45.03125 45.53125 
Q 48.578125 48.25 48.578125 53.8125 
Q 48.578125 59.328125 45.03125 62.0625 
Q 41.5 64.796875 34.28125 64.796875 
z
M 9.8125 72.90625 
L 35.015625 72.90625 
Q 46.296875 72.90625 52.390625 68.21875 
Q 58.5 63.53125 58.5 54.890625 
Q 58.5 48.1875 55.375 44.234375 
Q 52.25 40.28125 46.1875 39.3125 
Q 53.46875 37.75 57.5 32.78125 
Q 61.53125 27.828125 61.53125 20.40625 
Q 61.53125 10.640625 54.890625 5.3125 
Q 48.25 0 35.984375 0 
L 9.8125 0 
z
" id="DejaVuSans-42"/>
     <path d="M 4.203125 54.6875 
L 13.1875 54.6875 
L 24.421875 12.015625 
L 35.59375 54.6875 
L 46.1875 54.6875 
L 57.421875 12.015625 
L 68.609375 54.6875 
L 77.59375 54.6875 
L 63.28125 0 
L 52.6875 0 
L 40.921875 44.828125 
L 29.109375 0 
L 18.5 0 
z
" id="DejaVuSans-77"/>
     <path d="M 19.671875 64.796875 
L 19.671875 37.40625 
L 32.078125 37.40625 
Q 38.96875 37.40625 42.71875 40.96875 
Q 46.484375 44.53125 46.484375 51.125 
Q 46.484375 57.671875 42.71875 61.234375 
Q 38.96875 64.796875 32.078125 64.796875 
z
M 9.8125 72.90625 
L 32.078125 72.90625 
Q 44.34375 72.90625 50.609375 67.359375 
Q 56.890625 61.8125 56.890625 51.125 
Q 56.890625 40.328125 50.609375 34.8125 
Q 44.34375 29.296875 32.078125 29.296875 
L 19.671875 29.296875 
L 19.671875 0 
L 9.8125 0 
z
" id="DejaVuSans-50"/>
     <path d="M 8.59375 75.984375 
L 29.296875 75.984375 
L 29.296875 69 
L 17.578125 69 
L 17.578125 -6.203125 
L 29.296875 -6.203125 
L 29.296875 -13.1875 
L 8.59375 -13.1875 
z
" id="DejaVuSans-5b"/>
     <path d="M 45.40625 46.390625 
L 45.40625 75.984375 
L 54.390625 75.984375 
L 54.390625 0 
L 45.40625 0 
L 45.40625 8.203125 
Q 42.578125 3.328125 38.25 0.953125 
Q 33.9375 -1.421875 27.875 -1.421875 
Q 17.96875 -1.421875 11.734375 6.484375 
Q 5.515625 14.40625 5.515625 27.296875 
Q 5.515625 40.1875 11.734375 48.09375 
Q 17.96875 56 27.875 56 
Q 33.9375 56 38.25 53.625 
Q 42.578125 51.265625 45.40625 46.390625 
z
M 14.796875 27.296875 
Q 14.796875 17.390625 18.875 11.75 
Q 22.953125 6.109375 30.078125 6.109375 
Q 37.203125 6.109375 41.296875 11.75 
Q 45.40625 17.390625 45.40625 27.296875 
Q 45.40625 37.203125 41.296875 42.84375 
Q 37.203125 48.484375 30.078125 48.484375 
Q 22.953125 48.484375 18.875 42.84375 
Q 14.796875 37.203125 14.796875 27.296875 
z
" id="DejaVuSans-64"/>
     <path d="M 4.890625 31.390625 
L 31.203125 31.390625 
L 31.203125 23.390625 
L 4.890625 23.390625 
z
" id="DejaVuSans-2d"/>
     <path d="M 52 44.1875 
Q 55.375 50.25 60.0625 53.125 
Q 64.75 56 71.09375 56 
Q 79.640625 56 84.28125 50.015625 
Q 88.921875 44.046875 88.921875 33.015625 
L 88.921875 0 
L 79.890625 0 
L 79.890625 32.71875 
Q 79.890625 40.578125 77.09375 44.375 
Q 74.3125 48.1875 68.609375 48.1875 
Q 61.625 48.1875 57.5625 43.546875 
Q 53.515625 38.921875 53.515625 30.90625 
L 53.515625 0 
L 44.484375 0 
L 44.484375 32.71875 
Q 44.484375 40.625 41.703125 44.40625 
Q 38.921875 48.1875 33.109375 48.1875 
Q 26.21875 48.1875 22.15625 43.53125 
Q 18.109375 38.875 18.109375 30.90625 
L 18.109375 0 
L 9.078125 0 
L 9.078125 54.6875 
L 18.109375 54.6875 
L 18.109375 46.1875 
Q 21.1875 51.21875 25.484375 53.609375 
Q 29.78125 56 35.6875 56 
Q 41.65625 56 45.828125 52.96875 
Q 50 49.953125 52 44.1875 
z
" id="DejaVuSans-6d"/>
     <path d="M 47.015625 60.890625 
L 29.5 51.421875 
L 47.015625 41.890625 
L 44.1875 37.109375 
L 27.78125 47.015625 
L 27.78125 28.609375 
L 22.21875 28.609375 
L 22.21875 47.015625 
L 5.8125 37.109375 
L 2.984375 41.890625 
L 20.515625 51.421875 
L 2.984375 60.890625 
L 5.8125 65.71875 
L 22.21875 55.8125 
L 22.21875 74.21875 
L 27.78125 74.21875 
L 27.78125 55.8125 
L 44.1875 65.71875 
z
" id="DejaVuSans-2a"/>
     <path d="M 9.078125 75.984375 
L 18.109375 75.984375 
L 18.109375 31.109375 
L 44.921875 54.6875 
L 56.390625 54.6875 
L 27.390625 29.109375 
L 57.625 0 
L 45.90625 0 
L 18.109375 26.703125 
L 18.109375 0 
L 9.078125 0 
z
" id="DejaVuSans-6b"/>
     <path d="M 46.6875 72.90625 
L 73.1875 45.703125 
L 63.375 45.703125 
L 41.890625 64.984375 
L 20.40625 45.703125 
L 10.59375 45.703125 
L 37.109375 72.90625 
z
" id="DejaVuSans-5e"/>
     <path d="M 31 75.875 
Q 24.46875 64.65625 21.28125 53.65625 
Q 18.109375 42.671875 18.109375 31.390625 
Q 18.109375 20.125 21.3125 9.0625 
Q 24.515625 -2 31 -13.1875 
L 23.1875 -13.1875 
Q 15.875 -1.703125 12.234375 9.375 
Q 8.59375 20.453125 8.59375 31.390625 
Q 8.59375 42.28125 12.203125 53.3125 
Q 15.828125 64.359375 23.1875 75.875 
z
" id="DejaVuSans-28"/>
     <path d="M 25.390625 72.90625 
L 33.6875 72.90625 
L 8.296875 -9.28125 
L 0 -9.28125 
z
" id="DejaVuSans-2f"/>
     <path d="M 8.015625 75.875 
L 15.828125 75.875 
Q 23.140625 64.359375 26.78125 53.3125 
Q 30.421875 42.28125 30.421875 31.390625 
Q 30.421875 20.453125 26.78125 9.375 
Q 23.140625 -1.703125 15.828125 -13.1875 
L 8.015625 -13.1875 
Q 14.5 -2 17.703125 9.0625 
Q 20.90625 20.125 20.90625 31.390625 
Q 20.90625 42.671875 17.703125 53.65625 
Q 14.5 64.65625 8.015625 75.875 
z
" id="DejaVuSans-29"/>
     <path d="M 30.421875 75.984375 
L 30.421875 -13.1875 
L 9.71875 -13.1875 
L 9.71875 -6.203125 
L 21.390625 -6.203125 
L 21.390625 69 
L 9.71875 69 
L 9.71875 75.984375 
z
" id="DejaVuSans-5d"/>
    </defs>
    <g transform="translate(101.909375 16.318125)scale(0.12 -0.12)">
     <use xlink:href="#DejaVuSans-44"/>
     <use x="77.001953" xlink:href="#DejaVuSans-69"/>
     <use x="104.785156" xlink:href="#DejaVuSans-73"/>
     <use x="156.884766" xlink:href="#DejaVuSans-74"/>
     <use x="196.09375" xlink:href="#DejaVuSans-72"/>
     <use x="237.207031" xlink:href="#DejaVuSans-69"/>
     <use x="264.990234" xlink:href="#DejaVuSans-62"/>
     <use x="328.466797" xlink:href="#DejaVuSans-75"/>
     <use x="391.845703" xlink:href="#DejaVuSans-74"/>
     <use x="431.054688" xlink:href="#DejaVuSans-69"/>
     <use x="458.837891" xlink:href="#DejaVuSans-6f"/>
     <use x="520.019531" xlink:href="#DejaVuSans-6e"/>
     <use x="583.398438" xlink:href="#DejaVuSans-20"/>
     <use x="615.185547" xlink:href="#DejaVuSans-42"/>
     <use x="683.789062" xlink:href="#DejaVuSans-65"/>
     <use x="745.3125" xlink:href="#DejaVuSans-74"/>
     <use x="784.521484" xlink:href="#DejaVuSans-77"/>
     <use x="866.308594" xlink:href="#DejaVuSans-65"/>
     <use x="927.832031" xlink:href="#DejaVuSans-65"/>
     <use x="989.355469" xlink:href="#DejaVuSans-6e"/>
     <use x="1052.734375" xlink:href="#DejaVuSans-20"/>
     <use x="1084.521484" xlink:href="#DejaVuSans-50"/>
     <use x="1144.761719" xlink:href="#DejaVuSans-61"/>
     <use x="1206.041016" xlink:href="#DejaVuSans-69"/>
     <use x="1233.824219" xlink:href="#DejaVuSans-72"/>
     <use x="1274.9375" xlink:href="#DejaVuSans-73"/>
     <use x="1327.037109" xlink:href="#DejaVuSans-20"/>
     <use x="1358.824219" xlink:href="#DejaVuSans-5b"/>
     <use x="1397.837891" xlink:href="#DejaVuSans-64"/>
     <use x="1461.314453" xlink:href="#DejaVuSans-2d"/>
     <use x="1497.398438" xlink:href="#DejaVuSans-64"/>
     <use x="1560.875" xlink:href="#DejaVuSans-69"/>
     <use x="1588.658203" xlink:href="#DejaVuSans-6d"/>
     <use x="1686.070312" xlink:href="#DejaVuSans-20"/>
     <use x="1717.857422" xlink:href="#DejaVuSans-2a"/>
     <use x="1767.857422" xlink:href="#DejaVuSans-20"/>
     <use x="1799.644531" xlink:href="#DejaVuSans-6b"/>
     <use x="1857.554688" xlink:href="#DejaVuSans-5e"/>
     <use x="1941.34375" xlink:href="#DejaVuSans-28"/>
     <use x="1980.357422" xlink:href="#DejaVuSans-31"/>
     <use x="2043.980469" xlink:href="#DejaVuSans-2f"/>
     <use x="2077.671875" xlink:href="#DejaVuSans-32"/>
     <use x="2141.294922" xlink:href="#DejaVuSans-29"/>
     <use x="2180.308594" xlink:href="#DejaVuSans-5d"/>
    </g>
   </g>
  </g>
  <g id="text_19">
   <g id="patch_17">
    <path d="M 165.809375 369.50175 
L 292.803125 369.50175 
Q 298.803125 369.50175 298.803125 363.50175 
L 298.803125 338.450625 
Q 298.803125 332.450625 292.803125 332.450625 
L 165.809375 332.450625 
Q 159.809375 332.450625 159.809375 338.450625 
L 159.809375 363.50175 
Q 159.809375 369.50175 165.809375 369.50175 
z
" style="fill:#ffffff;stroke:#808080;stroke-linejoin:miter;"/>
   </g>
   <!-- Dimension: 900 -->
   <defs>
    <path d="M 11.71875 12.40625 
L 22.015625 12.40625 
L 22.015625 0 
L 11.71875 0 
z
M 11.71875 51.703125 
L 22.015625 51.703125 
L 22.015625 39.3125 
L 11.71875 39.3125 
z
" id="DejaVuSans-3a"/>
   </defs>
   <g transform="translate(165.809375 347.56875)scale(0.12 -0.12)">
    <use xlink:href="#DejaVuSans-44"/>
    <use x="77.001953" xlink:href="#DejaVuSans-69"/>
    <use x="104.785156" xlink:href="#DejaVuSans-6d"/>
    <use x="202.197266" xlink:href="#DejaVuSans-65"/>
    <use x="263.720703" xlink:href="#DejaVuSans-6e"/>
    <use x="327.099609" xlink:href="#DejaVuSans-73"/>
    <use x="379.199219" xlink:href="#DejaVuSans-69"/>
    <use x="406.982422" xlink:href="#DejaVuSans-6f"/>
    <use x="468.164062" xlink:href="#DejaVuSans-6e"/>
    <use x="531.542969" xlink:href="#DejaVuSans-3a"/>
    <use x="565.234375" xlink:href="#DejaVuSans-20"/>
    <use x="597.021484" xlink:href="#DejaVuSans-39"/>
    <use x="660.644531" xlink:href="#DejaVuSans-30"/>
    <use x="724.267578" xlink:href="#DejaVuSans-30"/>
   </g>
   <!-- Number of Points: 20 -->
   <defs>
    <path d="M 9.8125 72.90625 
L 23.09375 72.90625 
L 55.421875 11.921875 
L 55.421875 72.90625 
L 64.984375 72.90625 
L 64.984375 0 
L 51.703125 0 
L 19.390625 60.984375 
L 19.390625 0 
L 9.8125 0 
z
" id="DejaVuSans-4e"/>
    <path d="M 37.109375 75.984375 
L 37.109375 68.5 
L 28.515625 68.5 
Q 23.6875 68.5 21.796875 66.546875 
Q 19.921875 64.59375 19.921875 59.515625 
L 19.921875 54.6875 
L 34.71875 54.6875 
L 34.71875 47.703125 
L 19.921875 47.703125 
L 19.921875 0 
L 10.890625 0 
L 10.890625 47.703125 
L 2.296875 47.703125 
L 2.296875 54.6875 
L 10.890625 54.6875 
L 10.890625 58.5 
Q 10.890625 67.625 15.140625 71.796875 
Q 19.390625 75.984375 28.609375 75.984375 
z
" id="DejaVuSans-66"/>
   </defs>
   <g transform="translate(165.809375 361.006125)scale(0.12 -0.12)">
    <use xlink:href="#DejaVuSans-4e"/>
    <use x="74.804688" xlink:href="#DejaVuSans-75"/>
    <use x="138.183594" xlink:href="#DejaVuSans-6d"/>
    <use x="235.595703" xlink:href="#DejaVuSans-62"/>
    <use x="299.072266" xlink:href="#DejaVuSans-65"/>
    <use x="360.595703" xlink:href="#DejaVuSans-72"/>
    <use x="401.708984" xlink:href="#DejaVuSans-20"/>
    <use x="433.496094" xlink:href="#DejaVuSans-6f"/>
    <use x="494.677734" xlink:href="#DejaVuSans-66"/>
    <use x="529.882812" xlink:href="#DejaVuSans-20"/>
    <use x="561.669922" xlink:href="#DejaVuSans-50"/>
    <use x="621.925781" xlink:href="#DejaVuSans-6f"/>
    <use x="683.107422" xlink:href="#DejaVuSans-69"/>
    <use x="710.890625" xlink:href="#DejaVuSans-6e"/>
    <use x="774.269531" xlink:href="#DejaVuSans-74"/>
    <use x="813.478516" xlink:href="#DejaVuSans-73"/>
    <use x="865.578125" xlink:href="#DejaVuSans-3a"/>
    <use x="899.269531" xlink:href="#DejaVuSans-20"/>
    <use x="931.056641" xlink:href="#DejaVuSans-32"/>
    <use x="994.679688" xlink:href="#DejaVuSans-30"/>
   </g>
  </g>
 </g>
 <defs>
  <clipPath id="p8e983004b7">
   <rect height="266.112" width="357.12" x="56.50625" y="22.318125"/>
  </clipPath>
 </defs>
</svg>
