<?xml version="1.0" encoding="utf-8" standalone="no"?>
<!DOCTYPE svg PUBLIC "-//W3C//DTD SVG 1.1//EN"
  "http://www.w3.org/Graphics/SVG/1.1/DTD/svg11.dtd">
<!-- Created with matplotlib (http://matplotlib.org/) -->
<svg height="370pt" version="1.1" viewBox="0 0 411 370" width="411pt" xmlns="http://www.w3.org/2000/svg" xmlns:xlink="http://www.w3.org/1999/xlink">
 <defs>
  <style type="text/css">
*{stroke-linecap:butt;stroke-linejoin:round;}
  </style>
 </defs>
 <g id="figure_1">
  <g id="patch_1">
   <path d="M 0 370.70175 
L 411.60125 370.70175 
L 411.60125 0 
L 0 0 
z
" style="fill:#ffffff;"/>
  </g>
  <g id="axes_1">
   <g id="patch_2">
    <path d="M 43.78125 288.430125 
L 400.90125 288.430125 
L 400.90125 22.318125 
L 43.78125 22.318125 
z
" style="fill:#ffffff;"/>
   </g>
   <g id="patch_3">
    <path clip-path="url(#p48776685ca)" d="M 60.013977 288.430125 
L 92.479432 288.430125 
L 92.479432 254.638125 
L 60.013977 254.638125 
z
" style="fill:#ff7f0e;"/>
   </g>
   <g id="patch_4">
    <path clip-path="url(#p48776685ca)" d="M 92.479432 288.430125 
L 124.944886 288.430125 
L 124.944886 271.534125 
L 92.479432 271.534125 
z
" style="fill:#ff7f0e;"/>
   </g>
   <g id="patch_5">
    <path clip-path="url(#p48776685ca)" d="M 124.944886 288.430125 
L 157.410341 288.430125 
L 157.410341 249.006125 
L 124.944886 249.006125 
z
" style="fill:#ff7f0e;"/>
   </g>
   <g id="patch_6">
    <path clip-path="url(#p48776685ca)" d="M 157.410341 288.430125 
L 189.875795 288.430125 
L 189.875795 158.894125 
L 157.410341 158.894125 
z
" style="fill:#ff7f0e;"/>
   </g>
   <g id="patch_7">
    <path clip-path="url(#p48776685ca)" d="M 189.875795 288.430125 
L 222.34125 288.430125 
L 222.34125 119.470125 
L 189.875795 119.470125 
z
" style="fill:#ff7f0e;"/>
   </g>
   <g id="patch_8">
    <path clip-path="url(#p48776685ca)" d="M 222.34125 288.430125 
L 254.806705 288.430125 
L 254.806705 74.414125 
L 222.34125 74.414125 
z
" style="fill:#ff7f0e;"/>
   </g>
   <g id="patch_9">
    <path clip-path="url(#p48776685ca)" d="M 254.806705 288.430125 
L 287.272159 288.430125 
L 287.272159 34.990125 
L 254.806705 34.990125 
z
" style="fill:#ff7f0e;"/>
   </g>
   <g id="patch_10">
    <path clip-path="url(#p48776685ca)" d="M 287.272159 288.430125 
L 319.737614 288.430125 
L 319.737614 119.470125 
L 287.272159 119.470125 
z
" style="fill:#ff7f0e;"/>
   </g>
   <g id="patch_11">
    <path clip-path="url(#p48776685ca)" d="M 319.737614 288.430125 
L 352.203068 288.430125 
L 352.203068 215.214125 
L 319.737614 215.214125 
z
" style="fill:#ff7f0e;"/>
   </g>
   <g id="patch_12">
    <path clip-path="url(#p48776685ca)" d="M 352.203068 288.430125 
L 384.668523 288.430125 
L 384.668523 260.270125 
L 352.203068 260.270125 
z
" style="fill:#ff7f0e;"/>
   </g>
   <g id="matplotlib.axis_1">
    <g id="xtick_1">
     <g id="line2d_1">
      <defs>
       <path d="M 0 0 
L 0 3.5 
" id="m9403f9ecca" style="stroke:#000000;stroke-width:0.8;"/>
      </defs>
      <g>
       <use style="stroke:#000000;stroke-width:0.8;" x="46.944031" xlink:href="#m9403f9ecca" y="288.430125"/>
      </g>
     </g>
     <g id="text_1">
      <!-- 29.5 -->
      <defs>
       <path d="M 19.1875 8.296875 
L 53.609375 8.296875 
L 53.609375 0 
L 7.328125 0 
L 7.328125 8.296875 
Q 12.9375 14.109375 22.625 23.890625 
Q 32.328125 33.6875 34.8125 36.53125 
Q 39.546875 41.84375 41.421875 45.53125 
Q 43.3125 49.21875 43.3125 52.78125 
Q 43.3125 58.59375 39.234375 62.25 
Q 35.15625 65.921875 28.609375 65.921875 
Q 23.96875 65.921875 18.8125 64.3125 
Q 13.671875 62.703125 7.8125 59.421875 
L 7.8125 69.390625 
Q 13.765625 71.78125 18.9375 73 
Q 24.125 74.21875 28.421875 74.21875 
Q 39.75 74.21875 46.484375 68.546875 
Q 53.21875 62.890625 53.21875 53.421875 
Q 53.21875 48.921875 51.53125 44.890625 
Q 49.859375 40.875 45.40625 35.40625 
Q 44.1875 33.984375 37.640625 27.21875 
Q 31.109375 20.453125 19.1875 8.296875 
z
" id="DejaVuSans-32"/>
       <path d="M 10.984375 1.515625 
L 10.984375 10.5 
Q 14.703125 8.734375 18.5 7.8125 
Q 22.3125 6.890625 25.984375 6.890625 
Q 35.75 6.890625 40.890625 13.453125 
Q 46.046875 20.015625 46.78125 33.40625 
Q 43.953125 29.203125 39.59375 26.953125 
Q 35.25 24.703125 29.984375 24.703125 
Q 19.046875 24.703125 12.671875 31.3125 
Q 6.296875 37.9375 6.296875 49.421875 
Q 6.296875 60.640625 12.9375 67.421875 
Q 19.578125 74.21875 30.609375 74.21875 
Q 43.265625 74.21875 49.921875 64.515625 
Q 56.59375 54.828125 56.59375 36.375 
Q 56.59375 19.140625 48.40625 8.859375 
Q 40.234375 -1.421875 26.421875 -1.421875 
Q 22.703125 -1.421875 18.890625 -0.6875 
Q 15.09375 0.046875 10.984375 1.515625 
z
M 30.609375 32.421875 
Q 37.25 32.421875 41.125 36.953125 
Q 45.015625 41.5 45.015625 49.421875 
Q 45.015625 57.28125 41.125 61.84375 
Q 37.25 66.40625 30.609375 66.40625 
Q 23.96875 66.40625 20.09375 61.84375 
Q 16.21875 57.28125 16.21875 49.421875 
Q 16.21875 41.5 20.09375 36.953125 
Q 23.96875 32.421875 30.609375 32.421875 
z
" id="DejaVuSans-39"/>
       <path d="M 10.6875 12.40625 
L 21 12.40625 
L 21 0 
L 10.6875 0 
z
" id="DejaVuSans-2e"/>
       <path d="M 10.796875 72.90625 
L 49.515625 72.90625 
L 49.515625 64.59375 
L 19.828125 64.59375 
L 19.828125 46.734375 
Q 21.96875 47.46875 24.109375 47.828125 
Q 26.265625 48.1875 28.421875 48.1875 
Q 40.625 48.1875 47.75 41.5 
Q 54.890625 34.8125 54.890625 23.390625 
Q 54.890625 11.625 47.5625 5.09375 
Q 40.234375 -1.421875 26.90625 -1.421875 
Q 22.3125 -1.421875 17.546875 -0.640625 
Q 12.796875 0.140625 7.71875 1.703125 
L 7.71875 11.625 
Q 12.109375 9.234375 16.796875 8.0625 
Q 21.484375 6.890625 26.703125 6.890625 
Q 35.15625 6.890625 40.078125 11.328125 
Q 45.015625 15.765625 45.015625 23.390625 
Q 45.015625 31 40.078125 35.4375 
Q 35.15625 39.890625 26.703125 39.890625 
Q 22.75 39.890625 18.8125 39.015625 
Q 14.890625 38.140625 10.796875 36.28125 
z
" id="DejaVuSans-35"/>
      </defs>
      <g transform="translate(35.811219 303.028562)scale(0.1 -0.1)">
       <use xlink:href="#DejaVuSans-32"/>
       <use x="63.623047" xlink:href="#DejaVuSans-39"/>
       <use x="127.246094" xlink:href="#DejaVuSans-2e"/>
       <use x="159.033203" xlink:href="#DejaVuSans-35"/>
      </g>
     </g>
    </g>
    <g id="xtick_2">
     <g id="line2d_2">
      <g>
       <use style="stroke:#000000;stroke-width:0.8;" x="92.954801" xlink:href="#m9403f9ecca" y="288.430125"/>
      </g>
     </g>
     <g id="text_2">
      <!-- 30.0 -->
      <defs>
       <path d="M 40.578125 39.3125 
Q 47.65625 37.796875 51.625 33 
Q 55.609375 28.21875 55.609375 21.1875 
Q 55.609375 10.40625 48.1875 4.484375 
Q 40.765625 -1.421875 27.09375 -1.421875 
Q 22.515625 -1.421875 17.65625 -0.515625 
Q 12.796875 0.390625 7.625 2.203125 
L 7.625 11.71875 
Q 11.71875 9.328125 16.59375 8.109375 
Q 21.484375 6.890625 26.8125 6.890625 
Q 36.078125 6.890625 40.9375 10.546875 
Q 45.796875 14.203125 45.796875 21.1875 
Q 45.796875 27.640625 41.28125 31.265625 
Q 36.765625 34.90625 28.71875 34.90625 
L 20.21875 34.90625 
L 20.21875 43.015625 
L 29.109375 43.015625 
Q 36.375 43.015625 40.234375 45.921875 
Q 44.09375 48.828125 44.09375 54.296875 
Q 44.09375 59.90625 40.109375 62.90625 
Q 36.140625 65.921875 28.71875 65.921875 
Q 24.65625 65.921875 20.015625 65.03125 
Q 15.375 64.15625 9.8125 62.3125 
L 9.8125 71.09375 
Q 15.4375 72.65625 20.34375 73.4375 
Q 25.25 74.21875 29.59375 74.21875 
Q 40.828125 74.21875 47.359375 69.109375 
Q 53.90625 64.015625 53.90625 55.328125 
Q 53.90625 49.265625 50.4375 45.09375 
Q 46.96875 40.921875 40.578125 39.3125 
z
" id="DejaVuSans-33"/>
       <path d="M 31.78125 66.40625 
Q 24.171875 66.40625 20.328125 58.90625 
Q 16.5 51.421875 16.5 36.375 
Q 16.5 21.390625 20.328125 13.890625 
Q 24.171875 6.390625 31.78125 6.390625 
Q 39.453125 6.390625 43.28125 13.890625 
Q 47.125 21.390625 47.125 36.375 
Q 47.125 51.421875 43.28125 58.90625 
Q 39.453125 66.40625 31.78125 66.40625 
z
M 31.78125 74.21875 
Q 44.046875 74.21875 50.515625 64.515625 
Q 56.984375 54.828125 56.984375 36.375 
Q 56.984375 17.96875 50.515625 8.265625 
Q 44.046875 -1.421875 31.78125 -1.421875 
Q 19.53125 -1.421875 13.0625 8.265625 
Q 6.59375 17.96875 6.59375 36.375 
Q 6.59375 54.828125 13.0625 64.515625 
Q 19.53125 74.21875 31.78125 74.21875 
z
" id="DejaVuSans-30"/>
      </defs>
      <g transform="translate(81.821989 303.028562)scale(0.1 -0.1)">
       <use xlink:href="#DejaVuSans-33"/>
       <use x="63.623047" xlink:href="#DejaVuSans-30"/>
       <use x="127.246094" xlink:href="#DejaVuSans-2e"/>
       <use x="159.033203" xlink:href="#DejaVuSans-30"/>
      </g>
     </g>
    </g>
    <g id="xtick_3">
     <g id="line2d_3">
      <g>
       <use style="stroke:#000000;stroke-width:0.8;" x="138.965571" xlink:href="#m9403f9ecca" y="288.430125"/>
      </g>
     </g>
     <g id="text_3">
      <!-- 30.5 -->
      <g transform="translate(127.832758 303.028562)scale(0.1 -0.1)">
       <use xlink:href="#DejaVuSans-33"/>
       <use x="63.623047" xlink:href="#DejaVuSans-30"/>
       <use x="127.246094" xlink:href="#DejaVuSans-2e"/>
       <use x="159.033203" xlink:href="#DejaVuSans-35"/>
      </g>
     </g>
    </g>
    <g id="xtick_4">
     <g id="line2d_4">
      <g>
       <use style="stroke:#000000;stroke-width:0.8;" x="184.97634" xlink:href="#m9403f9ecca" y="288.430125"/>
      </g>
     </g>
     <g id="text_4">
      <!-- 31.0 -->
      <defs>
       <path d="M 12.40625 8.296875 
L 28.515625 8.296875 
L 28.515625 63.921875 
L 10.984375 60.40625 
L 10.984375 69.390625 
L 28.421875 72.90625 
L 38.28125 72.90625 
L 38.28125 8.296875 
L 54.390625 8.296875 
L 54.390625 0 
L 12.40625 0 
z
" id="DejaVuSans-31"/>
      </defs>
      <g transform="translate(173.843528 303.028562)scale(0.1 -0.1)">
       <use xlink:href="#DejaVuSans-33"/>
       <use x="63.623047" xlink:href="#DejaVuSans-31"/>
       <use x="127.246094" xlink:href="#DejaVuSans-2e"/>
       <use x="159.033203" xlink:href="#DejaVuSans-30"/>
      </g>
     </g>
    </g>
    <g id="xtick_5">
     <g id="line2d_5">
      <g>
       <use style="stroke:#000000;stroke-width:0.8;" x="230.98711" xlink:href="#m9403f9ecca" y="288.430125"/>
      </g>
     </g>
     <g id="text_5">
      <!-- 31.5 -->
      <g transform="translate(219.854298 303.028562)scale(0.1 -0.1)">
       <use xlink:href="#DejaVuSans-33"/>
       <use x="63.623047" xlink:href="#DejaVuSans-31"/>
       <use x="127.246094" xlink:href="#DejaVuSans-2e"/>
       <use x="159.033203" xlink:href="#DejaVuSans-35"/>
      </g>
     </g>
    </g>
    <g id="xtick_6">
     <g id="line2d_6">
      <g>
       <use style="stroke:#000000;stroke-width:0.8;" x="276.99788" xlink:href="#m9403f9ecca" y="288.430125"/>
      </g>
     </g>
     <g id="text_6">
      <!-- 32.0 -->
      <g transform="translate(265.865067 303.028562)scale(0.1 -0.1)">
       <use xlink:href="#DejaVuSans-33"/>
       <use x="63.623047" xlink:href="#DejaVuSans-32"/>
       <use x="127.246094" xlink:href="#DejaVuSans-2e"/>
       <use x="159.033203" xlink:href="#DejaVuSans-30"/>
      </g>
     </g>
    </g>
    <g id="xtick_7">
     <g id="line2d_7">
      <g>
       <use style="stroke:#000000;stroke-width:0.8;" x="323.00865" xlink:href="#m9403f9ecca" y="288.430125"/>
      </g>
     </g>
     <g id="text_7">
      <!-- 32.5 -->
      <g transform="translate(311.875837 303.028562)scale(0.1 -0.1)">
       <use xlink:href="#DejaVuSans-33"/>
       <use x="63.623047" xlink:href="#DejaVuSans-32"/>
       <use x="127.246094" xlink:href="#DejaVuSans-2e"/>
       <use x="159.033203" xlink:href="#DejaVuSans-35"/>
      </g>
     </g>
    </g>
    <g id="xtick_8">
     <g id="line2d_8">
      <g>
       <use style="stroke:#000000;stroke-width:0.8;" x="369.019419" xlink:href="#m9403f9ecca" y="288.430125"/>
      </g>
     </g>
     <g id="text_8">
      <!-- 33.0 -->
      <g transform="translate(357.886607 303.028562)scale(0.1 -0.1)">
       <use xlink:href="#DejaVuSans-33"/>
       <use x="63.623047" xlink:href="#DejaVuSans-33"/>
       <use x="127.246094" xlink:href="#DejaVuSans-2e"/>
       <use x="159.033203" xlink:href="#DejaVuSans-30"/>
      </g>
     </g>
    </g>
    <g id="text_9">
     <!-- Distance -->
     <defs>
      <path d="M 19.671875 64.796875 
L 19.671875 8.109375 
L 31.59375 8.109375 
Q 46.6875 8.109375 53.6875 14.9375 
Q 60.6875 21.78125 60.6875 36.53125 
Q 60.6875 51.171875 53.6875 57.984375 
Q 46.6875 64.796875 31.59375 64.796875 
z
M 9.8125 72.90625 
L 30.078125 72.90625 
Q 51.265625 72.90625 61.171875 64.09375 
Q 71.09375 55.28125 71.09375 36.53125 
Q 71.09375 17.671875 61.125 8.828125 
Q 51.171875 0 30.078125 0 
L 9.8125 0 
z
" id="DejaVuSans-44"/>
      <path d="M 9.421875 54.6875 
L 18.40625 54.6875 
L 18.40625 0 
L 9.421875 0 
z
M 9.421875 75.984375 
L 18.40625 75.984375 
L 18.40625 64.59375 
L 9.421875 64.59375 
z
" id="DejaVuSans-69"/>
      <path d="M 44.28125 53.078125 
L 44.28125 44.578125 
Q 40.484375 46.53125 36.375 47.5 
Q 32.28125 48.484375 27.875 48.484375 
Q 21.1875 48.484375 17.84375 46.4375 
Q 14.5 44.390625 14.5 40.28125 
Q 14.5 37.15625 16.890625 35.375 
Q 19.28125 33.59375 26.515625 31.984375 
L 29.59375 31.296875 
Q 39.15625 29.25 43.1875 25.515625 
Q 47.21875 21.78125 47.21875 15.09375 
Q 47.21875 7.46875 41.1875 3.015625 
Q 35.15625 -1.421875 24.609375 -1.421875 
Q 20.21875 -1.421875 15.453125 -0.5625 
Q 10.6875 0.296875 5.421875 2 
L 5.421875 11.28125 
Q 10.40625 8.6875 15.234375 7.390625 
Q 20.0625 6.109375 24.8125 6.109375 
Q 31.15625 6.109375 34.5625 8.28125 
Q 37.984375 10.453125 37.984375 14.40625 
Q 37.984375 18.0625 35.515625 20.015625 
Q 33.0625 21.96875 24.703125 23.78125 
L 21.578125 24.515625 
Q 13.234375 26.265625 9.515625 29.90625 
Q 5.8125 33.546875 5.8125 39.890625 
Q 5.8125 47.609375 11.28125 51.796875 
Q 16.75 56 26.8125 56 
Q 31.78125 56 36.171875 55.265625 
Q 40.578125 54.546875 44.28125 53.078125 
z
" id="DejaVuSans-73"/>
      <path d="M 18.3125 70.21875 
L 18.3125 54.6875 
L 36.8125 54.6875 
L 36.8125 47.703125 
L 18.3125 47.703125 
L 18.3125 18.015625 
Q 18.3125 11.328125 20.140625 9.421875 
Q 21.96875 7.515625 27.59375 7.515625 
L 36.8125 7.515625 
L 36.8125 0 
L 27.59375 0 
Q 17.1875 0 13.234375 3.875 
Q 9.28125 7.765625 9.28125 18.015625 
L 9.28125 47.703125 
L 2.6875 47.703125 
L 2.6875 54.6875 
L 9.28125 54.6875 
L 9.28125 70.21875 
z
" id="DejaVuSans-74"/>
      <path d="M 34.28125 27.484375 
Q 23.390625 27.484375 19.1875 25 
Q 14.984375 22.515625 14.984375 16.5 
Q 14.984375 11.71875 18.140625 8.90625 
Q 21.296875 6.109375 26.703125 6.109375 
Q 34.1875 6.109375 38.703125 11.40625 
Q 43.21875 16.703125 43.21875 25.484375 
L 43.21875 27.484375 
z
M 52.203125 31.203125 
L 52.203125 0 
L 43.21875 0 
L 43.21875 8.296875 
Q 40.140625 3.328125 35.546875 0.953125 
Q 30.953125 -1.421875 24.3125 -1.421875 
Q 15.921875 -1.421875 10.953125 3.296875 
Q 6 8.015625 6 15.921875 
Q 6 25.140625 12.171875 29.828125 
Q 18.359375 34.515625 30.609375 34.515625 
L 43.21875 34.515625 
L 43.21875 35.40625 
Q 43.21875 41.609375 39.140625 45 
Q 35.0625 48.390625 27.6875 48.390625 
Q 23 48.390625 18.546875 47.265625 
Q 14.109375 46.140625 10.015625 43.890625 
L 10.015625 52.203125 
Q 14.9375 54.109375 19.578125 55.046875 
Q 24.21875 56 28.609375 56 
Q 40.484375 56 46.34375 49.84375 
Q 52.203125 43.703125 52.203125 31.203125 
z
" id="DejaVuSans-61"/>
      <path d="M 54.890625 33.015625 
L 54.890625 0 
L 45.90625 0 
L 45.90625 32.71875 
Q 45.90625 40.484375 42.875 44.328125 
Q 39.84375 48.1875 33.796875 48.1875 
Q 26.515625 48.1875 22.3125 43.546875 
Q 18.109375 38.921875 18.109375 30.90625 
L 18.109375 0 
L 9.078125 0 
L 9.078125 54.6875 
L 18.109375 54.6875 
L 18.109375 46.1875 
Q 21.34375 51.125 25.703125 53.5625 
Q 30.078125 56 35.796875 56 
Q 45.21875 56 50.046875 50.171875 
Q 54.890625 44.34375 54.890625 33.015625 
z
" id="DejaVuSans-6e"/>
      <path d="M 48.78125 52.59375 
L 48.78125 44.1875 
Q 44.96875 46.296875 41.140625 47.34375 
Q 37.3125 48.390625 33.40625 48.390625 
Q 24.65625 48.390625 19.8125 42.84375 
Q 14.984375 37.3125 14.984375 27.296875 
Q 14.984375 17.28125 19.8125 11.734375 
Q 24.65625 6.203125 33.40625 6.203125 
Q 37.3125 6.203125 41.140625 7.25 
Q 44.96875 8.296875 48.78125 10.40625 
L 48.78125 2.09375 
Q 45.015625 0.34375 40.984375 -0.53125 
Q 36.96875 -1.421875 32.421875 -1.421875 
Q 20.0625 -1.421875 12.78125 6.34375 
Q 5.515625 14.109375 5.515625 27.296875 
Q 5.515625 40.671875 12.859375 48.328125 
Q 20.21875 56 33.015625 56 
Q 37.15625 56 41.109375 55.140625 
Q 45.0625 54.296875 48.78125 52.59375 
z
" id="DejaVuSans-63"/>
      <path d="M 56.203125 29.59375 
L 56.203125 25.203125 
L 14.890625 25.203125 
Q 15.484375 15.921875 20.484375 11.0625 
Q 25.484375 6.203125 34.421875 6.203125 
Q 39.59375 6.203125 44.453125 7.46875 
Q 49.3125 8.734375 54.109375 11.28125 
L 54.109375 2.78125 
Q 49.265625 0.734375 44.1875 -0.34375 
Q 39.109375 -1.421875 33.890625 -1.421875 
Q 20.796875 -1.421875 13.15625 6.1875 
Q 5.515625 13.8125 5.515625 26.8125 
Q 5.515625 40.234375 12.765625 48.109375 
Q 20.015625 56 32.328125 56 
Q 43.359375 56 49.78125 48.890625 
Q 56.203125 41.796875 56.203125 29.59375 
z
M 47.21875 32.234375 
Q 47.125 39.59375 43.09375 43.984375 
Q 39.0625 48.390625 32.421875 48.390625 
Q 24.90625 48.390625 20.390625 44.140625 
Q 15.875 39.890625 15.1875 32.171875 
z
" id="DejaVuSans-65"/>
     </defs>
     <g transform="translate(200.47875 316.706687)scale(0.1 -0.1)">
      <use xlink:href="#DejaVuSans-44"/>
      <use x="77.001953" xlink:href="#DejaVuSans-69"/>
      <use x="104.785156" xlink:href="#DejaVuSans-73"/>
      <use x="156.884766" xlink:href="#DejaVuSans-74"/>
      <use x="196.09375" xlink:href="#DejaVuSans-61"/>
      <use x="257.373047" xlink:href="#DejaVuSans-6e"/>
      <use x="320.751953" xlink:href="#DejaVuSans-63"/>
      <use x="375.732422" xlink:href="#DejaVuSans-65"/>
     </g>
    </g>
   </g>
   <g id="matplotlib.axis_2">
    <g id="ytick_1">
     <g id="line2d_9">
      <defs>
       <path d="M 0 0 
L -3.5 0 
" id="m17c37d86fb" style="stroke:#000000;stroke-width:0.8;"/>
      </defs>
      <g>
       <use style="stroke:#000000;stroke-width:0.8;" x="43.78125" xlink:href="#m17c37d86fb" y="288.430125"/>
      </g>
     </g>
     <g id="text_10">
      <!-- 0.0 -->
      <g transform="translate(20.878125 292.229344)scale(0.1 -0.1)">
       <use xlink:href="#DejaVuSans-30"/>
       <use x="63.623047" xlink:href="#DejaVuSans-2e"/>
       <use x="95.410156" xlink:href="#DejaVuSans-30"/>
      </g>
     </g>
    </g>
    <g id="ytick_2">
     <g id="line2d_10">
      <g>
       <use style="stroke:#000000;stroke-width:0.8;" x="43.78125" xlink:href="#m17c37d86fb" y="248.69042"/>
      </g>
     </g>
     <g id="text_11">
      <!-- 0.1 -->
      <g transform="translate(20.878125 252.489639)scale(0.1 -0.1)">
       <use xlink:href="#DejaVuSans-30"/>
       <use x="63.623047" xlink:href="#DejaVuSans-2e"/>
       <use x="95.410156" xlink:href="#DejaVuSans-31"/>
      </g>
     </g>
    </g>
    <g id="ytick_3">
     <g id="line2d_11">
      <g>
       <use style="stroke:#000000;stroke-width:0.8;" x="43.78125" xlink:href="#m17c37d86fb" y="208.950716"/>
      </g>
     </g>
     <g id="text_12">
      <!-- 0.2 -->
      <g transform="translate(20.878125 212.749934)scale(0.1 -0.1)">
       <use xlink:href="#DejaVuSans-30"/>
       <use x="63.623047" xlink:href="#DejaVuSans-2e"/>
       <use x="95.410156" xlink:href="#DejaVuSans-32"/>
      </g>
     </g>
    </g>
    <g id="ytick_4">
     <g id="line2d_12">
      <g>
       <use style="stroke:#000000;stroke-width:0.8;" x="43.78125" xlink:href="#m17c37d86fb" y="169.211011"/>
      </g>
     </g>
     <g id="text_13">
      <!-- 0.3 -->
      <g transform="translate(20.878125 173.01023)scale(0.1 -0.1)">
       <use xlink:href="#DejaVuSans-30"/>
       <use x="63.623047" xlink:href="#DejaVuSans-2e"/>
       <use x="95.410156" xlink:href="#DejaVuSans-33"/>
      </g>
     </g>
    </g>
    <g id="ytick_5">
     <g id="line2d_13">
      <g>
       <use style="stroke:#000000;stroke-width:0.8;" x="43.78125" xlink:href="#m17c37d86fb" y="129.471306"/>
      </g>
     </g>
     <g id="text_14">
      <!-- 0.4 -->
      <defs>
       <path d="M 37.796875 64.3125 
L 12.890625 25.390625 
L 37.796875 25.390625 
z
M 35.203125 72.90625 
L 47.609375 72.90625 
L 47.609375 25.390625 
L 58.015625 25.390625 
L 58.015625 17.1875 
L 47.609375 17.1875 
L 47.609375 0 
L 37.796875 0 
L 37.796875 17.1875 
L 4.890625 17.1875 
L 4.890625 26.703125 
z
" id="DejaVuSans-34"/>
      </defs>
      <g transform="translate(20.878125 133.270525)scale(0.1 -0.1)">
       <use xlink:href="#DejaVuSans-30"/>
       <use x="63.623047" xlink:href="#DejaVuSans-2e"/>
       <use x="95.410156" xlink:href="#DejaVuSans-34"/>
      </g>
     </g>
    </g>
    <g id="ytick_6">
     <g id="line2d_14">
      <g>
       <use style="stroke:#000000;stroke-width:0.8;" x="43.78125" xlink:href="#m17c37d86fb" y="89.731602"/>
      </g>
     </g>
     <g id="text_15">
      <!-- 0.5 -->
      <g transform="translate(20.878125 93.53082)scale(0.1 -0.1)">
       <use xlink:href="#DejaVuSans-30"/>
       <use x="63.623047" xlink:href="#DejaVuSans-2e"/>
       <use x="95.410156" xlink:href="#DejaVuSans-35"/>
      </g>
     </g>
    </g>
    <g id="ytick_7">
     <g id="line2d_15">
      <g>
       <use style="stroke:#000000;stroke-width:0.8;" x="43.78125" xlink:href="#m17c37d86fb" y="49.991897"/>
      </g>
     </g>
     <g id="text_16">
      <!-- 0.6 -->
      <defs>
       <path d="M 33.015625 40.375 
Q 26.375 40.375 22.484375 35.828125 
Q 18.609375 31.296875 18.609375 23.390625 
Q 18.609375 15.53125 22.484375 10.953125 
Q 26.375 6.390625 33.015625 6.390625 
Q 39.65625 6.390625 43.53125 10.953125 
Q 47.40625 15.53125 47.40625 23.390625 
Q 47.40625 31.296875 43.53125 35.828125 
Q 39.65625 40.375 33.015625 40.375 
z
M 52.59375 71.296875 
L 52.59375 62.3125 
Q 48.875 64.0625 45.09375 64.984375 
Q 41.3125 65.921875 37.59375 65.921875 
Q 27.828125 65.921875 22.671875 59.328125 
Q 17.53125 52.734375 16.796875 39.40625 
Q 19.671875 43.65625 24.015625 45.921875 
Q 28.375 48.1875 33.59375 48.1875 
Q 44.578125 48.1875 50.953125 41.515625 
Q 57.328125 34.859375 57.328125 23.390625 
Q 57.328125 12.15625 50.6875 5.359375 
Q 44.046875 -1.421875 33.015625 -1.421875 
Q 20.359375 -1.421875 13.671875 8.265625 
Q 6.984375 17.96875 6.984375 36.375 
Q 6.984375 53.65625 15.1875 63.9375 
Q 23.390625 74.21875 37.203125 74.21875 
Q 40.921875 74.21875 44.703125 73.484375 
Q 48.484375 72.75 52.59375 71.296875 
z
" id="DejaVuSans-36"/>
      </defs>
      <g transform="translate(20.878125 53.791116)scale(0.1 -0.1)">
       <use xlink:href="#DejaVuSans-30"/>
       <use x="63.623047" xlink:href="#DejaVuSans-2e"/>
       <use x="95.410156" xlink:href="#DejaVuSans-36"/>
      </g>
     </g>
    </g>
    <g id="text_17">
     <!-- Frequency -->
     <defs>
      <path d="M 9.8125 72.90625 
L 51.703125 72.90625 
L 51.703125 64.59375 
L 19.671875 64.59375 
L 19.671875 43.109375 
L 48.578125 43.109375 
L 48.578125 34.8125 
L 19.671875 34.8125 
L 19.671875 0 
L 9.8125 0 
z
" id="DejaVuSans-46"/>
      <path d="M 41.109375 46.296875 
Q 39.59375 47.171875 37.8125 47.578125 
Q 36.03125 48 33.890625 48 
Q 26.265625 48 22.1875 43.046875 
Q 18.109375 38.09375 18.109375 28.8125 
L 18.109375 0 
L 9.078125 0 
L 9.078125 54.6875 
L 18.109375 54.6875 
L 18.109375 46.1875 
Q 20.953125 51.171875 25.484375 53.578125 
Q 30.03125 56 36.53125 56 
Q 37.453125 56 38.578125 55.875 
Q 39.703125 55.765625 41.0625 55.515625 
z
" id="DejaVuSans-72"/>
      <path d="M 14.796875 27.296875 
Q 14.796875 17.390625 18.875 11.75 
Q 22.953125 6.109375 30.078125 6.109375 
Q 37.203125 6.109375 41.296875 11.75 
Q 45.40625 17.390625 45.40625 27.296875 
Q 45.40625 37.203125 41.296875 42.84375 
Q 37.203125 48.484375 30.078125 48.484375 
Q 22.953125 48.484375 18.875 42.84375 
Q 14.796875 37.203125 14.796875 27.296875 
z
M 45.40625 8.203125 
Q 42.578125 3.328125 38.25 0.953125 
Q 33.9375 -1.421875 27.875 -1.421875 
Q 17.96875 -1.421875 11.734375 6.484375 
Q 5.515625 14.40625 5.515625 27.296875 
Q 5.515625 40.1875 11.734375 48.09375 
Q 17.96875 56 27.875 56 
Q 33.9375 56 38.25 53.625 
Q 42.578125 51.265625 45.40625 46.390625 
L 45.40625 54.6875 
L 54.390625 54.6875 
L 54.390625 -20.796875 
L 45.40625 -20.796875 
z
" id="DejaVuSans-71"/>
      <path d="M 8.5 21.578125 
L 8.5 54.6875 
L 17.484375 54.6875 
L 17.484375 21.921875 
Q 17.484375 14.15625 20.5 10.265625 
Q 23.53125 6.390625 29.59375 6.390625 
Q 36.859375 6.390625 41.078125 11.03125 
Q 45.3125 15.671875 45.3125 23.6875 
L 45.3125 54.6875 
L 54.296875 54.6875 
L 54.296875 0 
L 45.3125 0 
L 45.3125 8.40625 
Q 42.046875 3.421875 37.71875 1 
Q 33.40625 -1.421875 27.6875 -1.421875 
Q 18.265625 -1.421875 13.375 4.4375 
Q 8.5 10.296875 8.5 21.578125 
z
M 31.109375 56 
z
" id="DejaVuSans-75"/>
      <path d="M 32.171875 -5.078125 
Q 28.375 -14.84375 24.75 -17.8125 
Q 21.140625 -20.796875 15.09375 -20.796875 
L 7.90625 -20.796875 
L 7.90625 -13.28125 
L 13.1875 -13.28125 
Q 16.890625 -13.28125 18.9375 -11.515625 
Q 21 -9.765625 23.484375 -3.21875 
L 25.09375 0.875 
L 2.984375 54.6875 
L 12.5 54.6875 
L 29.59375 11.921875 
L 46.6875 54.6875 
L 56.203125 54.6875 
z
" id="DejaVuSans-79"/>
     </defs>
     <g transform="translate(14.798438 181.671781)rotate(-90)scale(0.1 -0.1)">
      <use xlink:href="#DejaVuSans-46"/>
      <use x="57.410156" xlink:href="#DejaVuSans-72"/>
      <use x="98.492188" xlink:href="#DejaVuSans-65"/>
      <use x="160.015625" xlink:href="#DejaVuSans-71"/>
      <use x="223.492188" xlink:href="#DejaVuSans-75"/>
      <use x="286.871094" xlink:href="#DejaVuSans-65"/>
      <use x="348.394531" xlink:href="#DejaVuSans-6e"/>
      <use x="411.773438" xlink:href="#DejaVuSans-63"/>
      <use x="466.753906" xlink:href="#DejaVuSans-79"/>
     </g>
    </g>
   </g>
   <g id="line2d_16">
    <path clip-path="url(#p48776685ca)" d="M 60.013977 284.883083 
L 68.53209 283.235455 
L 83.004874 278.904522 
L 85.584084 277.876106 
L 95.998675 272.73333 
L 115.737968 257.52536 
L 117.332802 255.926117 
L 127.966248 243.666674 
L 130.122388 240.831029 
L 134.605773 234.548718 
L 137.424211 230.33224 
L 142.803901 221.717683 
L 155.197188 199.202626 
L 161.296025 186.925901 
L 166.107516 176.79958 
L 174.277433 158.977085 
L 189.769484 124.725567 
L 196.143633 111.260369 
L 201.148047 101.263089 
L 206.098434 92.040549 
L 210.229828 84.959846 
L 211.833035 82.382421 
L 215.795565 76.460168 
L 217.523428 74.090132 
L 219.936646 71.009209 
L 224.053909 66.402718 
L 226.302525 64.250039 
L 229.905757 61.360266 
L 230.554086 60.915304 
L 235.289215 58.378111 
L 238.260722 57.438132 
L 240.135198 57.107786 
L 242.006178 56.981784 
L 243.711341 57.044521 
L 245.824309 57.356958 
L 247.638409 57.831696 
L 250.69008 59.057115 
L 254.019381 60.995445 
L 255.989016 62.431483 
L 258.069549 64.176459 
L 261.246908 67.280829 
L 263.917324 70.285758 
L 267.02458 74.215401 
L 269.191635 77.218048 
L 270.632995 79.328742 
L 274.809081 85.924487 
L 278.377724 92.079838 
L 283.402356 101.449456 
L 288.493318 111.636337 
L 293.296591 121.738124 
L 300.68422 137.876175 
L 317.332753 174.624723 
L 322.6492 185.871499 
L 327.496321 195.73041 
L 332.745559 205.893515 
L 335.681731 211.317768 
L 338.356283 216.08459 
L 347.780785 231.475611 
L 349.046812 233.370482 
L 352.761342 238.689898 
L 358.285505 245.939233 
L 364.54244 253.210845 
L 379.031366 266.472235 
L 384.668523 270.418313 
L 384.668523 270.418313 
" style="fill:none;stroke:#1f77b4;stroke-linecap:square;stroke-width:1.5;"/>
    <defs>
     <path d="M 0 3 
C 0.795609 3 1.55874 2.683901 2.12132 2.12132 
C 2.683901 1.55874 3 0.795609 3 0 
C 3 -0.795609 2.683901 -1.55874 2.12132 -2.12132 
C 1.55874 -2.683901 0.795609 -3 0 -3 
C -0.795609 -3 -1.55874 -2.683901 -2.12132 -2.12132 
C -2.683901 -1.55874 -3 -0.795609 -3 0 
C -3 0.795609 -2.683901 1.55874 -2.12132 2.12132 
C -1.55874 2.683901 -0.795609 3 0 3 
z
" id="m3335938c8f" style="stroke:#1f77b4;"/>
    </defs>
    <g clip-path="url(#p48776685ca)">
     <use style="fill:#1f77b4;stroke:#1f77b4;" x="60.013977" xlink:href="#m3335938c8f" y="284.883083"/>
     <use style="fill:#1f77b4;stroke:#1f77b4;" x="68.348248" xlink:href="#m3335938c8f" y="283.277059"/>
     <use style="fill:#1f77b4;stroke:#1f77b4;" x="68.53209" xlink:href="#m3335938c8f" y="283.235455"/>
     <use style="fill:#1f77b4;stroke:#1f77b4;" x="82.61416" xlink:href="#m3335938c8f" y="279.05269"/>
     <use style="fill:#1f77b4;stroke:#1f77b4;" x="83.004874" xlink:href="#m3335938c8f" y="278.904522"/>
     <use style="fill:#1f77b4;stroke:#1f77b4;" x="85.584084" xlink:href="#m3335938c8f" y="277.876106"/>
     <use style="fill:#1f77b4;stroke:#1f77b4;" x="95.998675" xlink:href="#m3335938c8f" y="272.73333"/>
     <use style="fill:#1f77b4;stroke:#1f77b4;" x="115.737968" xlink:href="#m3335938c8f" y="257.52536"/>
     <use style="fill:#1f77b4;stroke:#1f77b4;" x="117.332802" xlink:href="#m3335938c8f" y="255.926117"/>
     <use style="fill:#1f77b4;stroke:#1f77b4;" x="127.966248" xlink:href="#m3335938c8f" y="243.666674"/>
     <use style="fill:#1f77b4;stroke:#1f77b4;" x="129.851593" xlink:href="#m3335938c8f" y="241.193768"/>
     <use style="fill:#1f77b4;stroke:#1f77b4;" x="130.122388" xlink:href="#m3335938c8f" y="240.831029"/>
     <use style="fill:#1f77b4;stroke:#1f77b4;" x="134.605773" xlink:href="#m3335938c8f" y="234.548718"/>
     <use style="fill:#1f77b4;stroke:#1f77b4;" x="137.424211" xlink:href="#m3335938c8f" y="230.33224"/>
     <use style="fill:#1f77b4;stroke:#1f77b4;" x="142.803901" xlink:href="#m3335938c8f" y="221.717683"/>
     <use style="fill:#1f77b4;stroke:#1f77b4;" x="155.197188" xlink:href="#m3335938c8f" y="199.202626"/>
     <use style="fill:#1f77b4;stroke:#1f77b4;" x="157.482678" xlink:href="#m3335938c8f" y="194.683611"/>
     <use style="fill:#1f77b4;stroke:#1f77b4;" x="159.685823" xlink:href="#m3335938c8f" y="190.233178"/>
     <use style="fill:#1f77b4;stroke:#1f77b4;" x="160.63767" xlink:href="#m3335938c8f" y="188.283485"/>
     <use style="fill:#1f77b4;stroke:#1f77b4;" x="161.296025" xlink:href="#m3335938c8f" y="186.925901"/>
     <use style="fill:#1f77b4;stroke:#1f77b4;" x="162.595789" xlink:href="#m3335938c8f" y="184.224787"/>
     <use style="fill:#1f77b4;stroke:#1f77b4;" x="166.107516" xlink:href="#m3335938c8f" y="176.79958"/>
     <use style="fill:#1f77b4;stroke:#1f77b4;" x="168.885957" xlink:href="#m3335938c8f" y="170.810728"/>
     <use style="fill:#1f77b4;stroke:#1f77b4;" x="169.377016" xlink:href="#m3335938c8f" y="169.743317"/>
     <use style="fill:#1f77b4;stroke:#1f77b4;" x="169.382413" xlink:href="#m3335938c8f" y="169.73157"/>
     <use style="fill:#1f77b4;stroke:#1f77b4;" x="169.928907" xlink:href="#m3335938c8f" y="168.540793"/>
     <use style="fill:#1f77b4;stroke:#1f77b4;" x="174.277433" xlink:href="#m3335938c8f" y="158.977085"/>
     <use style="fill:#1f77b4;stroke:#1f77b4;" x="175.304745" xlink:href="#m3335938c8f" y="156.700085"/>
     <use style="fill:#1f77b4;stroke:#1f77b4;" x="176.870241" xlink:href="#m3335938c8f" y="153.222044"/>
     <use style="fill:#1f77b4;stroke:#1f77b4;" x="176.874556" xlink:href="#m3335938c8f" y="153.212448"/>
     <use style="fill:#1f77b4;stroke:#1f77b4;" x="177.746161" xlink:href="#m3335938c8f" y="151.273031"/>
     <use style="fill:#1f77b4;stroke:#1f77b4;" x="179.729048" xlink:href="#m3335938c8f" y="146.857513"/>
     <use style="fill:#1f77b4;stroke:#1f77b4;" x="182.898001" xlink:href="#m3335938c8f" y="139.809499"/>
     <use style="fill:#1f77b4;stroke:#1f77b4;" x="186.968533" xlink:href="#m3335938c8f" y="130.824634"/>
     <use style="fill:#1f77b4;stroke:#1f77b4;" x="187.52086" xlink:href="#m3335938c8f" y="129.615381"/>
     <use style="fill:#1f77b4;stroke:#1f77b4;" x="188.087296" xlink:href="#m3335938c8f" y="128.378367"/>
     <use style="fill:#1f77b4;stroke:#1f77b4;" x="188.778971" xlink:href="#m3335938c8f" y="126.872467"/>
     <use style="fill:#1f77b4;stroke:#1f77b4;" x="189.103123" xlink:href="#m3335938c8f" y="126.168586"/>
     <use style="fill:#1f77b4;stroke:#1f77b4;" x="189.769484" xlink:href="#m3335938c8f" y="124.725567"/>
     <use style="fill:#1f77b4;stroke:#1f77b4;" x="193.481428" xlink:href="#m3335938c8f" y="116.800593"/>
     <use style="fill:#1f77b4;stroke:#1f77b4;" x="194.009945" xlink:href="#m3335938c8f" y="115.69016"/>
     <use style="fill:#1f77b4;stroke:#1f77b4;" x="196.028391" xlink:href="#m3335938c8f" y="111.497322"/>
     <use style="fill:#1f77b4;stroke:#1f77b4;" x="196.143633" xlink:href="#m3335938c8f" y="111.260369"/>
     <use style="fill:#1f77b4;stroke:#1f77b4;" x="199.464254" xlink:href="#m3335938c8f" y="104.558897"/>
     <use style="fill:#1f77b4;stroke:#1f77b4;" x="199.554913" xlink:href="#m3335938c8f" y="104.379585"/>
     <use style="fill:#1f77b4;stroke:#1f77b4;" x="200.074395" xlink:href="#m3335938c8f" y="103.356127"/>
     <use style="fill:#1f77b4;stroke:#1f77b4;" x="201.090568" xlink:href="#m3335938c8f" y="101.374362"/>
     <use style="fill:#1f77b4;stroke:#1f77b4;" x="201.148047" xlink:href="#m3335938c8f" y="101.263089"/>
     <use style="fill:#1f77b4;stroke:#1f77b4;" x="204.792747" xlink:href="#m3335938c8f" y="94.400103"/>
     <use style="fill:#1f77b4;stroke:#1f77b4;" x="205.257832" xlink:href="#m3335938c8f" y="93.553312"/>
     <use style="fill:#1f77b4;stroke:#1f77b4;" x="205.422848" xlink:href="#m3335938c8f" y="93.25453"/>
     <use style="fill:#1f77b4;stroke:#1f77b4;" x="205.484094" xlink:href="#m3335938c8f" y="93.143859"/>
     <use style="fill:#1f77b4;stroke:#1f77b4;" x="205.951211" xlink:href="#m3335938c8f" y="92.30382"/>
     <use style="fill:#1f77b4;stroke:#1f77b4;" x="206.098434" xlink:href="#m3335938c8f" y="92.040549"/>
     <use style="fill:#1f77b4;stroke:#1f77b4;" x="207.492953" xlink:href="#m3335938c8f" y="89.583017"/>
     <use style="fill:#1f77b4;stroke:#1f77b4;" x="207.849116" xlink:href="#m3335938c8f" y="88.966094"/>
     <use style="fill:#1f77b4;stroke:#1f77b4;" x="208.497538" xlink:href="#m3335938c8f" y="87.854466"/>
     <use style="fill:#1f77b4;stroke:#1f77b4;" x="209.129945" xlink:href="#m3335938c8f" y="86.78488"/>
     <use style="fill:#1f77b4;stroke:#1f77b4;" x="209.398837" xlink:href="#m3335938c8f" y="86.334542"/>
     <use style="fill:#1f77b4;stroke:#1f77b4;" x="209.637508" xlink:href="#m3335938c8f" y="85.937064"/>
     <use style="fill:#1f77b4;stroke:#1f77b4;" x="209.810215" xlink:href="#m3335938c8f" y="85.650765"/>
     <use style="fill:#1f77b4;stroke:#1f77b4;" x="210.229828" xlink:href="#m3335938c8f" y="84.959846"/>
     <use style="fill:#1f77b4;stroke:#1f77b4;" x="211.266088" xlink:href="#m3335938c8f" y="83.282428"/>
     <use style="fill:#1f77b4;stroke:#1f77b4;" x="211.833035" xlink:href="#m3335938c8f" y="82.382421"/>
     <use style="fill:#1f77b4;stroke:#1f77b4;" x="215.429174" xlink:href="#m3335938c8f" y="76.979773"/>
     <use style="fill:#1f77b4;stroke:#1f77b4;" x="215.795565" xlink:href="#m3335938c8f" y="76.460168"/>
     <use style="fill:#1f77b4;stroke:#1f77b4;" x="217.523428" xlink:href="#m3335938c8f" y="74.090132"/>
     <use style="fill:#1f77b4;stroke:#1f77b4;" x="219.888726" xlink:href="#m3335938c8f" y="71.067716"/>
     <use style="fill:#1f77b4;stroke:#1f77b4;" x="219.936646" xlink:href="#m3335938c8f" y="71.009209"/>
     <use style="fill:#1f77b4;stroke:#1f77b4;" x="222.97044" xlink:href="#m3335938c8f" y="67.532951"/>
     <use style="fill:#1f77b4;stroke:#1f77b4;" x="223.02413" xlink:href="#m3335938c8f" y="67.475542"/>
     <use style="fill:#1f77b4;stroke:#1f77b4;" x="223.466856" xlink:href="#m3335938c8f" y="67.007704"/>
     <use style="fill:#1f77b4;stroke:#1f77b4;" x="224.053909" xlink:href="#m3335938c8f" y="66.402718"/>
     <use style="fill:#1f77b4;stroke:#1f77b4;" x="225.025536" xlink:href="#m3335938c8f" y="65.440278"/>
     <use style="fill:#1f77b4;stroke:#1f77b4;" x="226.302525" xlink:href="#m3335938c8f" y="64.250039"/>
     <use style="fill:#1f77b4;stroke:#1f77b4;" x="228.45848" xlink:href="#m3335938c8f" y="62.436701"/>
     <use style="fill:#1f77b4;stroke:#1f77b4;" x="229.019954" xlink:href="#m3335938c8f" y="62.005532"/>
     <use style="fill:#1f77b4;stroke:#1f77b4;" x="229.905757" xlink:href="#m3335938c8f" y="61.360266"/>
     <use style="fill:#1f77b4;stroke:#1f77b4;" x="230.554086" xlink:href="#m3335938c8f" y="60.915304"/>
     <use style="fill:#1f77b4;stroke:#1f77b4;" x="234.618451" xlink:href="#m3335938c8f" y="58.660419"/>
     <use style="fill:#1f77b4;stroke:#1f77b4;" x="235.289215" xlink:href="#m3335938c8f" y="58.378111"/>
     <use style="fill:#1f77b4;stroke:#1f77b4;" x="236.935817" xlink:href="#m3335938c8f" y="57.794403"/>
     <use style="fill:#1f77b4;stroke:#1f77b4;" x="237.318767" xlink:href="#m3335938c8f" y="57.681008"/>
     <use style="fill:#1f77b4;stroke:#1f77b4;" x="238.260722" xlink:href="#m3335938c8f" y="57.438132"/>
     <use style="fill:#1f77b4;stroke:#1f77b4;" x="238.678444" xlink:href="#m3335938c8f" y="57.34686"/>
     <use style="fill:#1f77b4;stroke:#1f77b4;" x="238.92102" xlink:href="#m3335938c8f" y="57.2985"/>
     <use style="fill:#1f77b4;stroke:#1f77b4;" x="240.135198" xlink:href="#m3335938c8f" y="57.107786"/>
     <use style="fill:#1f77b4;stroke:#1f77b4;" x="240.648626" xlink:href="#m3335938c8f" y="57.052921"/>
     <use style="fill:#1f77b4;stroke:#1f77b4;" x="241.359244" xlink:href="#m3335938c8f" y="57.002298"/>
     <use style="fill:#1f77b4;stroke:#1f77b4;" x="242.006178" xlink:href="#m3335938c8f" y="56.981784"/>
     <use style="fill:#1f77b4;stroke:#1f77b4;" x="242.849519" xlink:href="#m3335938c8f" y="56.991647"/>
     <use style="fill:#1f77b4;stroke:#1f77b4;" x="243.226366" xlink:href="#m3335938c8f" y="57.009446"/>
     <use style="fill:#1f77b4;stroke:#1f77b4;" x="243.543608" xlink:href="#m3335938c8f" y="57.030841"/>
     <use style="fill:#1f77b4;stroke:#1f77b4;" x="243.711341" xlink:href="#m3335938c8f" y="57.044521"/>
     <use style="fill:#1f77b4;stroke:#1f77b4;" x="245.248268" xlink:href="#m3335938c8f" y="57.246067"/>
     <use style="fill:#1f77b4;stroke:#1f77b4;" x="245.781246" xlink:href="#m3335938c8f" y="57.348002"/>
     <use style="fill:#1f77b4;stroke:#1f77b4;" x="245.824309" xlink:href="#m3335938c8f" y="57.356958"/>
     <use style="fill:#1f77b4;stroke:#1f77b4;" x="247.638409" xlink:href="#m3335938c8f" y="57.831696"/>
     <use style="fill:#1f77b4;stroke:#1f77b4;" x="250.154528" xlink:href="#m3335938c8f" y="58.803597"/>
     <use style="fill:#1f77b4;stroke:#1f77b4;" x="250.17125" xlink:href="#m3335938c8f" y="58.811266"/>
     <use style="fill:#1f77b4;stroke:#1f77b4;" x="250.191045" xlink:href="#m3335938c8f" y="58.820365"/>
     <use style="fill:#1f77b4;stroke:#1f77b4;" x="250.444784" xlink:href="#m3335938c8f" y="58.938976"/>
     <use style="fill:#1f77b4;stroke:#1f77b4;" x="250.69008" xlink:href="#m3335938c8f" y="59.057115"/>
     <use style="fill:#1f77b4;stroke:#1f77b4;" x="252.864279" xlink:href="#m3335938c8f" y="60.2527"/>
     <use style="fill:#1f77b4;stroke:#1f77b4;" x="253.187685" xlink:href="#m3335938c8f" y="60.453181"/>
     <use style="fill:#1f77b4;stroke:#1f77b4;" x="254.019381" xlink:href="#m3335938c8f" y="60.995445"/>
     <use style="fill:#1f77b4;stroke:#1f77b4;" x="254.195672" xlink:href="#m3335938c8f" y="61.115304"/>
     <use style="fill:#1f77b4;stroke:#1f77b4;" x="254.828904" xlink:href="#m3335938c8f" y="61.559949"/>
     <use style="fill:#1f77b4;stroke:#1f77b4;" x="255.084959" xlink:href="#m3335938c8f" y="61.745995"/>
     <use style="fill:#1f77b4;stroke:#1f77b4;" x="255.982237" xlink:href="#m3335938c8f" y="62.426177"/>
     <use style="fill:#1f77b4;stroke:#1f77b4;" x="255.989016" xlink:href="#m3335938c8f" y="62.431483"/>
     <use style="fill:#1f77b4;stroke:#1f77b4;" x="256.978797" xlink:href="#m3335938c8f" y="63.232721"/>
     <use style="fill:#1f77b4;stroke:#1f77b4;" x="257.224608" xlink:href="#m3335938c8f" y="63.439866"/>
     <use style="fill:#1f77b4;stroke:#1f77b4;" x="257.604989" xlink:href="#m3335938c8f" y="63.766774"/>
     <use style="fill:#1f77b4;stroke:#1f77b4;" x="257.778667" xlink:href="#m3335938c8f" y="63.918597"/>
     <use style="fill:#1f77b4;stroke:#1f77b4;" x="258.069549" xlink:href="#m3335938c8f" y="64.176459"/>
     <use style="fill:#1f77b4;stroke:#1f77b4;" x="259.54001" xlink:href="#m3335938c8f" y="65.548134"/>
     <use style="fill:#1f77b4;stroke:#1f77b4;" x="260.495768" xlink:href="#m3335938c8f" y="66.499953"/>
     <use style="fill:#1f77b4;stroke:#1f77b4;" x="261.246908" xlink:href="#m3335938c8f" y="67.280829"/>
     <use style="fill:#1f77b4;stroke:#1f77b4;" x="262.618726" xlink:href="#m3335938c8f" y="68.780387"/>
     <use style="fill:#1f77b4;stroke:#1f77b4;" x="263.622349" xlink:href="#m3335938c8f" y="69.936582"/>
     <use style="fill:#1f77b4;stroke:#1f77b4;" x="263.740223" xlink:href="#m3335938c8f" y="70.075608"/>
     <use style="fill:#1f77b4;stroke:#1f77b4;" x="263.844657" xlink:href="#m3335938c8f" y="70.199346"/>
     <use style="fill:#1f77b4;stroke:#1f77b4;" x="263.917324" xlink:href="#m3335938c8f" y="70.285758"/>
     <use style="fill:#1f77b4;stroke:#1f77b4;" x="264.652178" xlink:href="#m3335938c8f" y="71.173903"/>
     <use style="fill:#1f77b4;stroke:#1f77b4;" x="265.204264" xlink:href="#m3335938c8f" y="71.85814"/>
     <use style="fill:#1f77b4;stroke:#1f77b4;" x="265.672735" xlink:href="#m3335938c8f" y="72.450053"/>
     <use style="fill:#1f77b4;stroke:#1f77b4;" x="265.953217" xlink:href="#m3335938c8f" y="72.809368"/>
     <use style="fill:#1f77b4;stroke:#1f77b4;" x="266.222409" xlink:href="#m3335938c8f" y="73.157665"/>
     <use style="fill:#1f77b4;stroke:#1f77b4;" x="266.322623" xlink:href="#m3335938c8f" y="73.288187"/>
     <use style="fill:#1f77b4;stroke:#1f77b4;" x="266.648105" xlink:href="#m3335938c8f" y="73.715303"/>
     <use style="fill:#1f77b4;stroke:#1f77b4;" x="266.848746" xlink:href="#m3335938c8f" y="73.981021"/>
     <use style="fill:#1f77b4;stroke:#1f77b4;" x="267.02458" xlink:href="#m3335938c8f" y="74.215401"/>
     <use style="fill:#1f77b4;stroke:#1f77b4;" x="267.425522" xlink:href="#m3335938c8f" y="74.755103"/>
     <use style="fill:#1f77b4;stroke:#1f77b4;" x="269.191635" xlink:href="#m3335938c8f" y="77.218048"/>
     <use style="fill:#1f77b4;stroke:#1f77b4;" x="270.426363" xlink:href="#m3335938c8f" y="79.020732"/>
     <use style="fill:#1f77b4;stroke:#1f77b4;" x="270.632995" xlink:href="#m3335938c8f" y="79.328742"/>
     <use style="fill:#1f77b4;stroke:#1f77b4;" x="273.114581" xlink:href="#m3335938c8f" y="83.165046"/>
     <use style="fill:#1f77b4;stroke:#1f77b4;" x="273.949662" xlink:href="#m3335938c8f" y="84.511201"/>
     <use style="fill:#1f77b4;stroke:#1f77b4;" x="274.469173" xlink:href="#m3335938c8f" y="85.362182"/>
     <use style="fill:#1f77b4;stroke:#1f77b4;" x="274.717911" xlink:href="#m3335938c8f" y="85.773241"/>
     <use style="fill:#1f77b4;stroke:#1f77b4;" x="274.764343" xlink:href="#m3335938c8f" y="85.850231"/>
     <use style="fill:#1f77b4;stroke:#1f77b4;" x="274.809081" xlink:href="#m3335938c8f" y="85.924487"/>
     <use style="fill:#1f77b4;stroke:#1f77b4;" x="275.791788" xlink:href="#m3335938c8f" y="87.574281"/>
     <use style="fill:#1f77b4;stroke:#1f77b4;" x="277.550839" xlink:href="#m3335938c8f" y="90.614026"/>
     <use style="fill:#1f77b4;stroke:#1f77b4;" x="278.377724" xlink:href="#m3335938c8f" y="92.079838"/>
     <use style="fill:#1f77b4;stroke:#1f77b4;" x="280.537892" xlink:href="#m3335938c8f" y="96.014411"/>
     <use style="fill:#1f77b4;stroke:#1f77b4;" x="282.350058" xlink:href="#m3335938c8f" y="99.425544"/>
     <use style="fill:#1f77b4;stroke:#1f77b4;" x="283.002346" xlink:href="#m3335938c8f" y="100.676507"/>
     <use style="fill:#1f77b4;stroke:#1f77b4;" x="283.402356" xlink:href="#m3335938c8f" y="101.449456"/>
     <use style="fill:#1f77b4;stroke:#1f77b4;" x="285.123164" xlink:href="#m3335938c8f" y="104.822833"/>
     <use style="fill:#1f77b4;stroke:#1f77b4;" x="286.535786" xlink:href="#m3335938c8f" y="107.647252"/>
     <use style="fill:#1f77b4;stroke:#1f77b4;" x="288.020437" xlink:href="#m3335938c8f" y="110.665126"/>
     <use style="fill:#1f77b4;stroke:#1f77b4;" x="288.493318" xlink:href="#m3335938c8f" y="111.636337"/>
     <use style="fill:#1f77b4;stroke:#1f77b4;" x="289.559618" xlink:href="#m3335938c8f" y="113.842956"/>
     <use style="fill:#1f77b4;stroke:#1f77b4;" x="289.964512" xlink:href="#m3335938c8f" y="114.68664"/>
     <use style="fill:#1f77b4;stroke:#1f77b4;" x="291.751136" xlink:href="#m3335938c8f" y="118.444822"/>
     <use style="fill:#1f77b4;stroke:#1f77b4;" x="293.296591" xlink:href="#m3335938c8f" y="121.738124"/>
     <use style="fill:#1f77b4;stroke:#1f77b4;" x="295.200154" xlink:href="#m3335938c8f" y="125.841368"/>
     <use style="fill:#1f77b4;stroke:#1f77b4;" x="296.704375" xlink:href="#m3335938c8f" y="129.115046"/>
     <use style="fill:#1f77b4;stroke:#1f77b4;" x="297.073187" xlink:href="#m3335938c8f" y="129.921369"/>
     <use style="fill:#1f77b4;stroke:#1f77b4;" x="298.090748" xlink:href="#m3335938c8f" y="132.152678"/>
     <use style="fill:#1f77b4;stroke:#1f77b4;" x="299.441145" xlink:href="#m3335938c8f" y="135.127109"/>
     <use style="fill:#1f77b4;stroke:#1f77b4;" x="299.508051" xlink:href="#m3335938c8f" y="135.274825"/>
     <use style="fill:#1f77b4;stroke:#1f77b4;" x="300.68422" xlink:href="#m3335938c8f" y="137.876175"/>
     <use style="fill:#1f77b4;stroke:#1f77b4;" x="305.091548" xlink:href="#m3335938c8f" y="147.673576"/>
     <use style="fill:#1f77b4;stroke:#1f77b4;" x="305.200874" xlink:href="#m3335938c8f" y="147.917057"/>
     <use style="fill:#1f77b4;stroke:#1f77b4;" x="305.713933" xlink:href="#m3335938c8f" y="149.05968"/>
     <use style="fill:#1f77b4;stroke:#1f77b4;" x="307.834508" xlink:href="#m3335938c8f" y="153.7793"/>
     <use style="fill:#1f77b4;stroke:#1f77b4;" x="308.98055" xlink:href="#m3335938c8f" y="156.325343"/>
     <use style="fill:#1f77b4;stroke:#1f77b4;" x="309.341877" xlink:href="#m3335938c8f" y="157.127039"/>
     <use style="fill:#1f77b4;stroke:#1f77b4;" x="310.575137" xlink:href="#m3335938c8f" y="159.858706"/>
     <use style="fill:#1f77b4;stroke:#1f77b4;" x="313.083764" xlink:href="#m3335938c8f" y="165.386626"/>
     <use style="fill:#1f77b4;stroke:#1f77b4;" x="313.535445" xlink:href="#m3335938c8f" y="166.37692"/>
     <use style="fill:#1f77b4;stroke:#1f77b4;" x="313.828708" xlink:href="#m3335938c8f" y="167.018956"/>
     <use style="fill:#1f77b4;stroke:#1f77b4;" x="315.02575" xlink:href="#m3335938c8f" y="169.631457"/>
     <use style="fill:#1f77b4;stroke:#1f77b4;" x="315.564134" xlink:href="#m3335938c8f" y="170.801891"/>
     <use style="fill:#1f77b4;stroke:#1f77b4;" x="315.773351" xlink:href="#m3335938c8f" y="171.255913"/>
     <use style="fill:#1f77b4;stroke:#1f77b4;" x="316.533887" xlink:href="#m3335938c8f" y="172.902361"/>
     <use style="fill:#1f77b4;stroke:#1f77b4;" x="317.044106" xlink:href="#m3335938c8f" y="174.003261"/>
     <use style="fill:#1f77b4;stroke:#1f77b4;" x="317.332753" xlink:href="#m3335938c8f" y="174.624723"/>
     <use style="fill:#1f77b4;stroke:#1f77b4;" x="318.222153" xlink:href="#m3335938c8f" y="176.533234"/>
     <use style="fill:#1f77b4;stroke:#1f77b4;" x="322.6492" xlink:href="#m3335938c8f" y="185.871499"/>
     <use style="fill:#1f77b4;stroke:#1f77b4;" x="323.939089" xlink:href="#m3335938c8f" y="188.535483"/>
     <use style="fill:#1f77b4;stroke:#1f77b4;" x="324.822092" xlink:href="#m3335938c8f" y="190.34281"/>
     <use style="fill:#1f77b4;stroke:#1f77b4;" x="327.496321" xlink:href="#m3335938c8f" y="195.73041"/>
     <use style="fill:#1f77b4;stroke:#1f77b4;" x="329.672112" xlink:href="#m3335938c8f" y="200.012248"/>
     <use style="fill:#1f77b4;stroke:#1f77b4;" x="332.745559" xlink:href="#m3335938c8f" y="205.893515"/>
     <use style="fill:#1f77b4;stroke:#1f77b4;" x="334.45628" xlink:href="#m3335938c8f" y="209.077693"/>
     <use style="fill:#1f77b4;stroke:#1f77b4;" x="334.492465" xlink:href="#m3335938c8f" y="209.144332"/>
     <use style="fill:#1f77b4;stroke:#1f77b4;" x="335.681731" xlink:href="#m3335938c8f" y="211.317768"/>
     <use style="fill:#1f77b4;stroke:#1f77b4;" x="338.356283" xlink:href="#m3335938c8f" y="216.08459"/>
     <use style="fill:#1f77b4;stroke:#1f77b4;" x="346.365586" xlink:href="#m3335938c8f" y="229.308417"/>
     <use style="fill:#1f77b4;stroke:#1f77b4;" x="347.780785" xlink:href="#m3335938c8f" y="231.475611"/>
     <use style="fill:#1f77b4;stroke:#1f77b4;" x="349.046812" xlink:href="#m3335938c8f" y="233.370482"/>
     <use style="fill:#1f77b4;stroke:#1f77b4;" x="352.761342" xlink:href="#m3335938c8f" y="238.689898"/>
     <use style="fill:#1f77b4;stroke:#1f77b4;" x="358.285505" xlink:href="#m3335938c8f" y="245.939233"/>
     <use style="fill:#1f77b4;stroke:#1f77b4;" x="364.54244" xlink:href="#m3335938c8f" y="253.210845"/>
     <use style="fill:#1f77b4;stroke:#1f77b4;" x="379.031366" xlink:href="#m3335938c8f" y="266.472235"/>
     <use style="fill:#1f77b4;stroke:#1f77b4;" x="384.668523" xlink:href="#m3335938c8f" y="270.418313"/>
    </g>
   </g>
   <g id="patch_13">
    <path d="M 43.78125 288.430125 
L 43.78125 22.318125 
" style="fill:none;stroke:#000000;stroke-linecap:square;stroke-linejoin:miter;stroke-width:0.8;"/>
   </g>
   <g id="patch_14">
    <path d="M 400.90125 288.430125 
L 400.90125 22.318125 
" style="fill:none;stroke:#000000;stroke-linecap:square;stroke-linejoin:miter;stroke-width:0.8;"/>
   </g>
   <g id="patch_15">
    <path d="M 43.78125 288.430125 
L 400.90125 288.430125 
" style="fill:none;stroke:#000000;stroke-linecap:square;stroke-linejoin:miter;stroke-width:0.8;"/>
   </g>
   <g id="patch_16">
    <path d="M 43.78125 22.318125 
L 400.90125 22.318125 
" style="fill:none;stroke:#000000;stroke-linecap:square;stroke-linejoin:miter;stroke-width:0.8;"/>
   </g>
   <g id="text_18">
    <!-- Distribution From Origin -->
    <defs>
     <path d="M 48.6875 27.296875 
Q 48.6875 37.203125 44.609375 42.84375 
Q 40.53125 48.484375 33.40625 48.484375 
Q 26.265625 48.484375 22.1875 42.84375 
Q 18.109375 37.203125 18.109375 27.296875 
Q 18.109375 17.390625 22.1875 11.75 
Q 26.265625 6.109375 33.40625 6.109375 
Q 40.53125 6.109375 44.609375 11.75 
Q 48.6875 17.390625 48.6875 27.296875 
z
M 18.109375 46.390625 
Q 20.953125 51.265625 25.265625 53.625 
Q 29.59375 56 35.59375 56 
Q 45.5625 56 51.78125 48.09375 
Q 58.015625 40.1875 58.015625 27.296875 
Q 58.015625 14.40625 51.78125 6.484375 
Q 45.5625 -1.421875 35.59375 -1.421875 
Q 29.59375 -1.421875 25.265625 0.953125 
Q 20.953125 3.328125 18.109375 8.203125 
L 18.109375 0 
L 9.078125 0 
L 9.078125 75.984375 
L 18.109375 75.984375 
z
" id="DejaVuSans-62"/>
     <path d="M 30.609375 48.390625 
Q 23.390625 48.390625 19.1875 42.75 
Q 14.984375 37.109375 14.984375 27.296875 
Q 14.984375 17.484375 19.15625 11.84375 
Q 23.34375 6.203125 30.609375 6.203125 
Q 37.796875 6.203125 41.984375 11.859375 
Q 46.1875 17.53125 46.1875 27.296875 
Q 46.1875 37.015625 41.984375 42.703125 
Q 37.796875 48.390625 30.609375 48.390625 
z
M 30.609375 56 
Q 42.328125 56 49.015625 48.375 
Q 55.71875 40.765625 55.71875 27.296875 
Q 55.71875 13.875 49.015625 6.21875 
Q 42.328125 -1.421875 30.609375 -1.421875 
Q 18.84375 -1.421875 12.171875 6.21875 
Q 5.515625 13.875 5.515625 27.296875 
Q 5.515625 40.765625 12.171875 48.375 
Q 18.84375 56 30.609375 56 
z
" id="DejaVuSans-6f"/>
     <path id="DejaVuSans-20"/>
     <path d="M 52 44.1875 
Q 55.375 50.25 60.0625 53.125 
Q 64.75 56 71.09375 56 
Q 79.640625 56 84.28125 50.015625 
Q 88.921875 44.046875 88.921875 33.015625 
L 88.921875 0 
L 79.890625 0 
L 79.890625 32.71875 
Q 79.890625 40.578125 77.09375 44.375 
Q 74.3125 48.1875 68.609375 48.1875 
Q 61.625 48.1875 57.5625 43.546875 
Q 53.515625 38.921875 53.515625 30.90625 
L 53.515625 0 
L 44.484375 0 
L 44.484375 32.71875 
Q 44.484375 40.625 41.703125 44.40625 
Q 38.921875 48.1875 33.109375 48.1875 
Q 26.21875 48.1875 22.15625 43.53125 
Q 18.109375 38.875 18.109375 30.90625 
L 18.109375 0 
L 9.078125 0 
L 9.078125 54.6875 
L 18.109375 54.6875 
L 18.109375 46.1875 
Q 21.1875 51.21875 25.484375 53.609375 
Q 29.78125 56 35.6875 56 
Q 41.65625 56 45.828125 52.96875 
Q 50 49.953125 52 44.1875 
z
" id="DejaVuSans-6d"/>
     <path d="M 39.40625 66.21875 
Q 28.65625 66.21875 22.328125 58.203125 
Q 16.015625 50.203125 16.015625 36.375 
Q 16.015625 22.609375 22.328125 14.59375 
Q 28.65625 6.59375 39.40625 6.59375 
Q 50.140625 6.59375 56.421875 14.59375 
Q 62.703125 22.609375 62.703125 36.375 
Q 62.703125 50.203125 56.421875 58.203125 
Q 50.140625 66.21875 39.40625 66.21875 
z
M 39.40625 74.21875 
Q 54.734375 74.21875 63.90625 63.9375 
Q 73.09375 53.65625 73.09375 36.375 
Q 73.09375 19.140625 63.90625 8.859375 
Q 54.734375 -1.421875 39.40625 -1.421875 
Q 24.03125 -1.421875 14.8125 8.828125 
Q 5.609375 19.09375 5.609375 36.375 
Q 5.609375 53.65625 14.8125 63.9375 
Q 24.03125 74.21875 39.40625 74.21875 
z
" id="DejaVuSans-4f"/>
     <path d="M 45.40625 27.984375 
Q 45.40625 37.75 41.375 43.109375 
Q 37.359375 48.484375 30.078125 48.484375 
Q 22.859375 48.484375 18.828125 43.109375 
Q 14.796875 37.75 14.796875 27.984375 
Q 14.796875 18.265625 18.828125 12.890625 
Q 22.859375 7.515625 30.078125 7.515625 
Q 37.359375 7.515625 41.375 12.890625 
Q 45.40625 18.265625 45.40625 27.984375 
z
M 54.390625 6.78125 
Q 54.390625 -7.171875 48.1875 -13.984375 
Q 42 -20.796875 29.203125 -20.796875 
Q 24.46875 -20.796875 20.265625 -20.09375 
Q 16.0625 -19.390625 12.109375 -17.921875 
L 12.109375 -9.1875 
Q 16.0625 -11.328125 19.921875 -12.34375 
Q 23.78125 -13.375 27.78125 -13.375 
Q 36.625 -13.375 41.015625 -8.765625 
Q 45.40625 -4.15625 45.40625 5.171875 
L 45.40625 9.625 
Q 42.625 4.78125 38.28125 2.390625 
Q 33.9375 0 27.875 0 
Q 17.828125 0 11.671875 7.65625 
Q 5.515625 15.328125 5.515625 27.984375 
Q 5.515625 40.671875 11.671875 48.328125 
Q 17.828125 56 27.875 56 
Q 33.9375 56 38.28125 53.609375 
Q 42.625 51.21875 45.40625 46.390625 
L 45.40625 54.6875 
L 54.390625 54.6875 
z
" id="DejaVuSans-67"/>
    </defs>
    <g transform="translate(149.965313 16.318125)scale(0.12 -0.12)">
     <use xlink:href="#DejaVuSans-44"/>
     <use x="77.001953" xlink:href="#DejaVuSans-69"/>
     <use x="104.785156" xlink:href="#DejaVuSans-73"/>
     <use x="156.884766" xlink:href="#DejaVuSans-74"/>
     <use x="196.09375" xlink:href="#DejaVuSans-72"/>
     <use x="237.207031" xlink:href="#DejaVuSans-69"/>
     <use x="264.990234" xlink:href="#DejaVuSans-62"/>
     <use x="328.466797" xlink:href="#DejaVuSans-75"/>
     <use x="391.845703" xlink:href="#DejaVuSans-74"/>
     <use x="431.054688" xlink:href="#DejaVuSans-69"/>
     <use x="458.837891" xlink:href="#DejaVuSans-6f"/>
     <use x="520.019531" xlink:href="#DejaVuSans-6e"/>
     <use x="583.398438" xlink:href="#DejaVuSans-20"/>
     <use x="615.185547" xlink:href="#DejaVuSans-46"/>
     <use x="672.595703" xlink:href="#DejaVuSans-72"/>
     <use x="713.677734" xlink:href="#DejaVuSans-6f"/>
     <use x="774.859375" xlink:href="#DejaVuSans-6d"/>
     <use x="872.271484" xlink:href="#DejaVuSans-20"/>
     <use x="904.058594" xlink:href="#DejaVuSans-4f"/>
     <use x="982.769531" xlink:href="#DejaVuSans-72"/>
     <use x="1023.882812" xlink:href="#DejaVuSans-69"/>
     <use x="1051.666016" xlink:href="#DejaVuSans-67"/>
     <use x="1115.142578" xlink:href="#DejaVuSans-69"/>
     <use x="1142.925781" xlink:href="#DejaVuSans-6e"/>
    </g>
   </g>
  </g>
  <g id="text_19">
   <g id="patch_17">
    <path d="M 149.266875 369.50175 
L 283.895625 369.50175 
Q 289.895625 369.50175 289.895625 363.50175 
L 289.895625 338.450625 
Q 289.895625 332.450625 283.895625 332.450625 
L 149.266875 332.450625 
Q 143.266875 332.450625 143.266875 338.450625 
L 143.266875 363.50175 
Q 143.266875 369.50175 149.266875 369.50175 
z
" style="fill:#ffffff;stroke:#808080;stroke-linejoin:miter;"/>
   </g>
   <!-- Dimension: 1000 -->
   <defs>
    <path d="M 11.71875 12.40625 
L 22.015625 12.40625 
L 22.015625 0 
L 11.71875 0 
z
M 11.71875 51.703125 
L 22.015625 51.703125 
L 22.015625 39.3125 
L 11.71875 39.3125 
z
" id="DejaVuSans-3a"/>
   </defs>
   <g transform="translate(149.266875 347.56875)scale(0.12 -0.12)">
    <use xlink:href="#DejaVuSans-44"/>
    <use x="77.001953" xlink:href="#DejaVuSans-69"/>
    <use x="104.785156" xlink:href="#DejaVuSans-6d"/>
    <use x="202.197266" xlink:href="#DejaVuSans-65"/>
    <use x="263.720703" xlink:href="#DejaVuSans-6e"/>
    <use x="327.099609" xlink:href="#DejaVuSans-73"/>
    <use x="379.199219" xlink:href="#DejaVuSans-69"/>
    <use x="406.982422" xlink:href="#DejaVuSans-6f"/>
    <use x="468.164062" xlink:href="#DejaVuSans-6e"/>
    <use x="531.542969" xlink:href="#DejaVuSans-3a"/>
    <use x="565.234375" xlink:href="#DejaVuSans-20"/>
    <use x="597.021484" xlink:href="#DejaVuSans-31"/>
    <use x="660.644531" xlink:href="#DejaVuSans-30"/>
    <use x="724.267578" xlink:href="#DejaVuSans-30"/>
    <use x="787.890625" xlink:href="#DejaVuSans-30"/>
   </g>
   <!-- Number of Points: 200 -->
   <defs>
    <path d="M 9.8125 72.90625 
L 23.09375 72.90625 
L 55.421875 11.921875 
L 55.421875 72.90625 
L 64.984375 72.90625 
L 64.984375 0 
L 51.703125 0 
L 19.390625 60.984375 
L 19.390625 0 
L 9.8125 0 
z
" id="DejaVuSans-4e"/>
    <path d="M 37.109375 75.984375 
L 37.109375 68.5 
L 28.515625 68.5 
Q 23.6875 68.5 21.796875 66.546875 
Q 19.921875 64.59375 19.921875 59.515625 
L 19.921875 54.6875 
L 34.71875 54.6875 
L 34.71875 47.703125 
L 19.921875 47.703125 
L 19.921875 0 
L 10.890625 0 
L 10.890625 47.703125 
L 2.296875 47.703125 
L 2.296875 54.6875 
L 10.890625 54.6875 
L 10.890625 58.5 
Q 10.890625 67.625 15.140625 71.796875 
Q 19.390625 75.984375 28.609375 75.984375 
z
" id="DejaVuSans-66"/>
    <path d="M 19.671875 64.796875 
L 19.671875 37.40625 
L 32.078125 37.40625 
Q 38.96875 37.40625 42.71875 40.96875 
Q 46.484375 44.53125 46.484375 51.125 
Q 46.484375 57.671875 42.71875 61.234375 
Q 38.96875 64.796875 32.078125 64.796875 
z
M 9.8125 72.90625 
L 32.078125 72.90625 
Q 44.34375 72.90625 50.609375 67.359375 
Q 56.890625 61.8125 56.890625 51.125 
Q 56.890625 40.328125 50.609375 34.8125 
Q 44.34375 29.296875 32.078125 29.296875 
L 19.671875 29.296875 
L 19.671875 0 
L 9.8125 0 
z
" id="DejaVuSans-50"/>
   </defs>
   <g transform="translate(149.266875 361.006125)scale(0.12 -0.12)">
    <use xlink:href="#DejaVuSans-4e"/>
    <use x="74.804688" xlink:href="#DejaVuSans-75"/>
    <use x="138.183594" xlink:href="#DejaVuSans-6d"/>
    <use x="235.595703" xlink:href="#DejaVuSans-62"/>
    <use x="299.072266" xlink:href="#DejaVuSans-65"/>
    <use x="360.595703" xlink:href="#DejaVuSans-72"/>
    <use x="401.708984" xlink:href="#DejaVuSans-20"/>
    <use x="433.496094" xlink:href="#DejaVuSans-6f"/>
    <use x="494.677734" xlink:href="#DejaVuSans-66"/>
    <use x="529.882812" xlink:href="#DejaVuSans-20"/>
    <use x="561.669922" xlink:href="#DejaVuSans-50"/>
    <use x="621.925781" xlink:href="#DejaVuSans-6f"/>
    <use x="683.107422" xlink:href="#DejaVuSans-69"/>
    <use x="710.890625" xlink:href="#DejaVuSans-6e"/>
    <use x="774.269531" xlink:href="#DejaVuSans-74"/>
    <use x="813.478516" xlink:href="#DejaVuSans-73"/>
    <use x="865.578125" xlink:href="#DejaVuSans-3a"/>
    <use x="899.269531" xlink:href="#DejaVuSans-20"/>
    <use x="931.056641" xlink:href="#DejaVuSans-32"/>
    <use x="994.679688" xlink:href="#DejaVuSans-30"/>
    <use x="1058.302734" xlink:href="#DejaVuSans-30"/>
   </g>
  </g>
 </g>
 <defs>
  <clipPath id="p48776685ca">
   <rect height="266.112" width="357.12" x="43.78125" y="22.318125"/>
  </clipPath>
 </defs>
</svg>
