<?xml version="1.0" encoding="utf-8" standalone="no"?>
<!DOCTYPE svg PUBLIC "-//W3C//DTD SVG 1.1//EN"
  "http://www.w3.org/Graphics/SVG/1.1/DTD/svg11.dtd">
<!-- Created with matplotlib (http://matplotlib.org/) -->
<svg height="370pt" version="1.1" viewBox="0 0 417 370" width="417pt" xmlns="http://www.w3.org/2000/svg" xmlns:xlink="http://www.w3.org/1999/xlink">
 <defs>
  <style type="text/css">
*{stroke-linecap:butt;stroke-linejoin:round;}
  </style>
 </defs>
 <g id="figure_1">
  <g id="patch_1">
   <path d="M 0 370.70175 
L 417.96375 370.70175 
L 417.96375 0 
L 0 0 
z
" style="fill:#ffffff;"/>
  </g>
  <g id="axes_1">
   <g id="patch_2">
    <path d="M 50.14375 288.430125 
L 407.26375 288.430125 
L 407.26375 22.318125 
L 50.14375 22.318125 
z
" style="fill:#ffffff;"/>
   </g>
   <g id="patch_3">
    <path clip-path="url(#pbe1f9a2313)" d="M 66.376477 288.430125 
L 98.841932 288.430125 
L 98.841932 231.406125 
L 66.376477 231.406125 
z
" style="fill:#ff7f0e;"/>
   </g>
   <g id="patch_4">
    <path clip-path="url(#pbe1f9a2313)" d="M 98.841932 288.430125 
L 131.307386 288.430125 
L 131.307386 225.070125 
L 98.841932 225.070125 
z
" style="fill:#ff7f0e;"/>
   </g>
   <g id="patch_5">
    <path clip-path="url(#pbe1f9a2313)" d="M 131.307386 288.430125 
L 163.772841 288.430125 
L 163.772841 117.358125 
L 131.307386 117.358125 
z
" style="fill:#ff7f0e;"/>
   </g>
   <g id="patch_6">
    <path clip-path="url(#pbe1f9a2313)" d="M 163.772841 288.430125 
L 196.238295 288.430125 
L 196.238295 34.990125 
L 163.772841 34.990125 
z
" style="fill:#ff7f0e;"/>
   </g>
   <g id="patch_7">
    <path clip-path="url(#pbe1f9a2313)" d="M 196.238295 288.430125 
L 228.70375 288.430125 
L 228.70375 79.342125 
L 196.238295 79.342125 
z
" style="fill:#ff7f0e;"/>
   </g>
   <g id="patch_8">
    <path clip-path="url(#pbe1f9a2313)" d="M 228.70375 288.430125 
L 261.169205 288.430125 
L 261.169205 111.022125 
L 228.70375 111.022125 
z
" style="fill:#ff7f0e;"/>
   </g>
   <g id="patch_9">
    <path clip-path="url(#pbe1f9a2313)" d="M 261.169205 288.430125 
L 293.634659 288.430125 
L 293.634659 123.694125 
L 261.169205 123.694125 
z
" style="fill:#ff7f0e;"/>
   </g>
   <g id="patch_10">
    <path clip-path="url(#pbe1f9a2313)" d="M 293.634659 288.430125 
L 326.100114 288.430125 
L 326.100114 231.406125 
L 293.634659 231.406125 
z
" style="fill:#ff7f0e;"/>
   </g>
   <g id="patch_11">
    <path clip-path="url(#pbe1f9a2313)" d="M 326.100114 288.430125 
L 358.565568 288.430125 
L 358.565568 256.750125 
L 326.100114 256.750125 
z
" style="fill:#ff7f0e;"/>
   </g>
   <g id="patch_12">
    <path clip-path="url(#pbe1f9a2313)" d="M 358.565568 288.430125 
L 391.031023 288.430125 
L 391.031023 269.422125 
L 358.565568 269.422125 
z
" style="fill:#ff7f0e;"/>
   </g>
   <g id="matplotlib.axis_1">
    <g id="xtick_1">
     <g id="line2d_1">
      <defs>
       <path d="M 0 0 
L 0 3.5 
" id="mfb37893e98" style="stroke:#000000;stroke-width:0.8;"/>
      </defs>
      <g>
       <use style="stroke:#000000;stroke-width:0.8;" x="62.826286" xlink:href="#mfb37893e98" y="288.430125"/>
      </g>
     </g>
     <g id="text_1">
      <!-- 86 -->
      <defs>
       <path d="M 31.78125 34.625 
Q 24.75 34.625 20.71875 30.859375 
Q 16.703125 27.09375 16.703125 20.515625 
Q 16.703125 13.921875 20.71875 10.15625 
Q 24.75 6.390625 31.78125 6.390625 
Q 38.8125 6.390625 42.859375 10.171875 
Q 46.921875 13.96875 46.921875 20.515625 
Q 46.921875 27.09375 42.890625 30.859375 
Q 38.875 34.625 31.78125 34.625 
z
M 21.921875 38.8125 
Q 15.578125 40.375 12.03125 44.71875 
Q 8.5 49.078125 8.5 55.328125 
Q 8.5 64.0625 14.71875 69.140625 
Q 20.953125 74.21875 31.78125 74.21875 
Q 42.671875 74.21875 48.875 69.140625 
Q 55.078125 64.0625 55.078125 55.328125 
Q 55.078125 49.078125 51.53125 44.71875 
Q 48 40.375 41.703125 38.8125 
Q 48.828125 37.15625 52.796875 32.3125 
Q 56.78125 27.484375 56.78125 20.515625 
Q 56.78125 9.90625 50.3125 4.234375 
Q 43.84375 -1.421875 31.78125 -1.421875 
Q 19.734375 -1.421875 13.25 4.234375 
Q 6.78125 9.90625 6.78125 20.515625 
Q 6.78125 27.484375 10.78125 32.3125 
Q 14.796875 37.15625 21.921875 38.8125 
z
M 18.3125 54.390625 
Q 18.3125 48.734375 21.84375 45.5625 
Q 25.390625 42.390625 31.78125 42.390625 
Q 38.140625 42.390625 41.71875 45.5625 
Q 45.3125 48.734375 45.3125 54.390625 
Q 45.3125 60.0625 41.71875 63.234375 
Q 38.140625 66.40625 31.78125 66.40625 
Q 25.390625 66.40625 21.84375 63.234375 
Q 18.3125 60.0625 18.3125 54.390625 
z
" id="DejaVuSans-38"/>
       <path d="M 33.015625 40.375 
Q 26.375 40.375 22.484375 35.828125 
Q 18.609375 31.296875 18.609375 23.390625 
Q 18.609375 15.53125 22.484375 10.953125 
Q 26.375 6.390625 33.015625 6.390625 
Q 39.65625 6.390625 43.53125 10.953125 
Q 47.40625 15.53125 47.40625 23.390625 
Q 47.40625 31.296875 43.53125 35.828125 
Q 39.65625 40.375 33.015625 40.375 
z
M 52.59375 71.296875 
L 52.59375 62.3125 
Q 48.875 64.0625 45.09375 64.984375 
Q 41.3125 65.921875 37.59375 65.921875 
Q 27.828125 65.921875 22.671875 59.328125 
Q 17.53125 52.734375 16.796875 39.40625 
Q 19.671875 43.65625 24.015625 45.921875 
Q 28.375 48.1875 33.59375 48.1875 
Q 44.578125 48.1875 50.953125 41.515625 
Q 57.328125 34.859375 57.328125 23.390625 
Q 57.328125 12.15625 50.6875 5.359375 
Q 44.046875 -1.421875 33.015625 -1.421875 
Q 20.359375 -1.421875 13.671875 8.265625 
Q 6.984375 17.96875 6.984375 36.375 
Q 6.984375 53.65625 15.1875 63.9375 
Q 23.390625 74.21875 37.203125 74.21875 
Q 40.921875 74.21875 44.703125 73.484375 
Q 48.484375 72.75 52.59375 71.296875 
z
" id="DejaVuSans-36"/>
      </defs>
      <g transform="translate(56.463786 303.028562)scale(0.1 -0.1)">
       <use xlink:href="#DejaVuSans-38"/>
       <use x="63.623047" xlink:href="#DejaVuSans-36"/>
      </g>
     </g>
    </g>
    <g id="xtick_2">
     <g id="line2d_2">
      <g>
       <use style="stroke:#000000;stroke-width:0.8;" x="134.118018" xlink:href="#mfb37893e98" y="288.430125"/>
      </g>
     </g>
     <g id="text_2">
      <!-- 88 -->
      <g transform="translate(127.755518 303.028562)scale(0.1 -0.1)">
       <use xlink:href="#DejaVuSans-38"/>
       <use x="63.623047" xlink:href="#DejaVuSans-38"/>
      </g>
     </g>
    </g>
    <g id="xtick_3">
     <g id="line2d_3">
      <g>
       <use style="stroke:#000000;stroke-width:0.8;" x="205.409751" xlink:href="#mfb37893e98" y="288.430125"/>
      </g>
     </g>
     <g id="text_3">
      <!-- 90 -->
      <defs>
       <path d="M 10.984375 1.515625 
L 10.984375 10.5 
Q 14.703125 8.734375 18.5 7.8125 
Q 22.3125 6.890625 25.984375 6.890625 
Q 35.75 6.890625 40.890625 13.453125 
Q 46.046875 20.015625 46.78125 33.40625 
Q 43.953125 29.203125 39.59375 26.953125 
Q 35.25 24.703125 29.984375 24.703125 
Q 19.046875 24.703125 12.671875 31.3125 
Q 6.296875 37.9375 6.296875 49.421875 
Q 6.296875 60.640625 12.9375 67.421875 
Q 19.578125 74.21875 30.609375 74.21875 
Q 43.265625 74.21875 49.921875 64.515625 
Q 56.59375 54.828125 56.59375 36.375 
Q 56.59375 19.140625 48.40625 8.859375 
Q 40.234375 -1.421875 26.421875 -1.421875 
Q 22.703125 -1.421875 18.890625 -0.6875 
Q 15.09375 0.046875 10.984375 1.515625 
z
M 30.609375 32.421875 
Q 37.25 32.421875 41.125 36.953125 
Q 45.015625 41.5 45.015625 49.421875 
Q 45.015625 57.28125 41.125 61.84375 
Q 37.25 66.40625 30.609375 66.40625 
Q 23.96875 66.40625 20.09375 61.84375 
Q 16.21875 57.28125 16.21875 49.421875 
Q 16.21875 41.5 20.09375 36.953125 
Q 23.96875 32.421875 30.609375 32.421875 
z
" id="DejaVuSans-39"/>
       <path d="M 31.78125 66.40625 
Q 24.171875 66.40625 20.328125 58.90625 
Q 16.5 51.421875 16.5 36.375 
Q 16.5 21.390625 20.328125 13.890625 
Q 24.171875 6.390625 31.78125 6.390625 
Q 39.453125 6.390625 43.28125 13.890625 
Q 47.125 21.390625 47.125 36.375 
Q 47.125 51.421875 43.28125 58.90625 
Q 39.453125 66.40625 31.78125 66.40625 
z
M 31.78125 74.21875 
Q 44.046875 74.21875 50.515625 64.515625 
Q 56.984375 54.828125 56.984375 36.375 
Q 56.984375 17.96875 50.515625 8.265625 
Q 44.046875 -1.421875 31.78125 -1.421875 
Q 19.53125 -1.421875 13.0625 8.265625 
Q 6.59375 17.96875 6.59375 36.375 
Q 6.59375 54.828125 13.0625 64.515625 
Q 19.53125 74.21875 31.78125 74.21875 
z
" id="DejaVuSans-30"/>
      </defs>
      <g transform="translate(199.047251 303.028562)scale(0.1 -0.1)">
       <use xlink:href="#DejaVuSans-39"/>
       <use x="63.623047" xlink:href="#DejaVuSans-30"/>
      </g>
     </g>
    </g>
    <g id="xtick_4">
     <g id="line2d_4">
      <g>
       <use style="stroke:#000000;stroke-width:0.8;" x="276.701483" xlink:href="#mfb37893e98" y="288.430125"/>
      </g>
     </g>
     <g id="text_4">
      <!-- 92 -->
      <defs>
       <path d="M 19.1875 8.296875 
L 53.609375 8.296875 
L 53.609375 0 
L 7.328125 0 
L 7.328125 8.296875 
Q 12.9375 14.109375 22.625 23.890625 
Q 32.328125 33.6875 34.8125 36.53125 
Q 39.546875 41.84375 41.421875 45.53125 
Q 43.3125 49.21875 43.3125 52.78125 
Q 43.3125 58.59375 39.234375 62.25 
Q 35.15625 65.921875 28.609375 65.921875 
Q 23.96875 65.921875 18.8125 64.3125 
Q 13.671875 62.703125 7.8125 59.421875 
L 7.8125 69.390625 
Q 13.765625 71.78125 18.9375 73 
Q 24.125 74.21875 28.421875 74.21875 
Q 39.75 74.21875 46.484375 68.546875 
Q 53.21875 62.890625 53.21875 53.421875 
Q 53.21875 48.921875 51.53125 44.890625 
Q 49.859375 40.875 45.40625 35.40625 
Q 44.1875 33.984375 37.640625 27.21875 
Q 31.109375 20.453125 19.1875 8.296875 
z
" id="DejaVuSans-32"/>
      </defs>
      <g transform="translate(270.338983 303.028562)scale(0.1 -0.1)">
       <use xlink:href="#DejaVuSans-39"/>
       <use x="63.623047" xlink:href="#DejaVuSans-32"/>
      </g>
     </g>
    </g>
    <g id="xtick_5">
     <g id="line2d_5">
      <g>
       <use style="stroke:#000000;stroke-width:0.8;" x="347.993216" xlink:href="#mfb37893e98" y="288.430125"/>
      </g>
     </g>
     <g id="text_5">
      <!-- 94 -->
      <defs>
       <path d="M 37.796875 64.3125 
L 12.890625 25.390625 
L 37.796875 25.390625 
z
M 35.203125 72.90625 
L 47.609375 72.90625 
L 47.609375 25.390625 
L 58.015625 25.390625 
L 58.015625 17.1875 
L 47.609375 17.1875 
L 47.609375 0 
L 37.796875 0 
L 37.796875 17.1875 
L 4.890625 17.1875 
L 4.890625 26.703125 
z
" id="DejaVuSans-34"/>
      </defs>
      <g transform="translate(341.630716 303.028562)scale(0.1 -0.1)">
       <use xlink:href="#DejaVuSans-39"/>
       <use x="63.623047" xlink:href="#DejaVuSans-34"/>
      </g>
     </g>
    </g>
    <g id="text_6">
     <!-- Angle (degrees) -->
     <defs>
      <path d="M 34.1875 63.1875 
L 20.796875 26.90625 
L 47.609375 26.90625 
z
M 28.609375 72.90625 
L 39.796875 72.90625 
L 67.578125 0 
L 57.328125 0 
L 50.6875 18.703125 
L 17.828125 18.703125 
L 11.1875 0 
L 0.78125 0 
z
" id="DejaVuSans-41"/>
      <path d="M 54.890625 33.015625 
L 54.890625 0 
L 45.90625 0 
L 45.90625 32.71875 
Q 45.90625 40.484375 42.875 44.328125 
Q 39.84375 48.1875 33.796875 48.1875 
Q 26.515625 48.1875 22.3125 43.546875 
Q 18.109375 38.921875 18.109375 30.90625 
L 18.109375 0 
L 9.078125 0 
L 9.078125 54.6875 
L 18.109375 54.6875 
L 18.109375 46.1875 
Q 21.34375 51.125 25.703125 53.5625 
Q 30.078125 56 35.796875 56 
Q 45.21875 56 50.046875 50.171875 
Q 54.890625 44.34375 54.890625 33.015625 
z
" id="DejaVuSans-6e"/>
      <path d="M 45.40625 27.984375 
Q 45.40625 37.75 41.375 43.109375 
Q 37.359375 48.484375 30.078125 48.484375 
Q 22.859375 48.484375 18.828125 43.109375 
Q 14.796875 37.75 14.796875 27.984375 
Q 14.796875 18.265625 18.828125 12.890625 
Q 22.859375 7.515625 30.078125 7.515625 
Q 37.359375 7.515625 41.375 12.890625 
Q 45.40625 18.265625 45.40625 27.984375 
z
M 54.390625 6.78125 
Q 54.390625 -7.171875 48.1875 -13.984375 
Q 42 -20.796875 29.203125 -20.796875 
Q 24.46875 -20.796875 20.265625 -20.09375 
Q 16.0625 -19.390625 12.109375 -17.921875 
L 12.109375 -9.1875 
Q 16.0625 -11.328125 19.921875 -12.34375 
Q 23.78125 -13.375 27.78125 -13.375 
Q 36.625 -13.375 41.015625 -8.765625 
Q 45.40625 -4.15625 45.40625 5.171875 
L 45.40625 9.625 
Q 42.625 4.78125 38.28125 2.390625 
Q 33.9375 0 27.875 0 
Q 17.828125 0 11.671875 7.65625 
Q 5.515625 15.328125 5.515625 27.984375 
Q 5.515625 40.671875 11.671875 48.328125 
Q 17.828125 56 27.875 56 
Q 33.9375 56 38.28125 53.609375 
Q 42.625 51.21875 45.40625 46.390625 
L 45.40625 54.6875 
L 54.390625 54.6875 
z
" id="DejaVuSans-67"/>
      <path d="M 9.421875 75.984375 
L 18.40625 75.984375 
L 18.40625 0 
L 9.421875 0 
z
" id="DejaVuSans-6c"/>
      <path d="M 56.203125 29.59375 
L 56.203125 25.203125 
L 14.890625 25.203125 
Q 15.484375 15.921875 20.484375 11.0625 
Q 25.484375 6.203125 34.421875 6.203125 
Q 39.59375 6.203125 44.453125 7.46875 
Q 49.3125 8.734375 54.109375 11.28125 
L 54.109375 2.78125 
Q 49.265625 0.734375 44.1875 -0.34375 
Q 39.109375 -1.421875 33.890625 -1.421875 
Q 20.796875 -1.421875 13.15625 6.1875 
Q 5.515625 13.8125 5.515625 26.8125 
Q 5.515625 40.234375 12.765625 48.109375 
Q 20.015625 56 32.328125 56 
Q 43.359375 56 49.78125 48.890625 
Q 56.203125 41.796875 56.203125 29.59375 
z
M 47.21875 32.234375 
Q 47.125 39.59375 43.09375 43.984375 
Q 39.0625 48.390625 32.421875 48.390625 
Q 24.90625 48.390625 20.390625 44.140625 
Q 15.875 39.890625 15.1875 32.171875 
z
" id="DejaVuSans-65"/>
      <path id="DejaVuSans-20"/>
      <path d="M 31 75.875 
Q 24.46875 64.65625 21.28125 53.65625 
Q 18.109375 42.671875 18.109375 31.390625 
Q 18.109375 20.125 21.3125 9.0625 
Q 24.515625 -2 31 -13.1875 
L 23.1875 -13.1875 
Q 15.875 -1.703125 12.234375 9.375 
Q 8.59375 20.453125 8.59375 31.390625 
Q 8.59375 42.28125 12.203125 53.3125 
Q 15.828125 64.359375 23.1875 75.875 
z
" id="DejaVuSans-28"/>
      <path d="M 45.40625 46.390625 
L 45.40625 75.984375 
L 54.390625 75.984375 
L 54.390625 0 
L 45.40625 0 
L 45.40625 8.203125 
Q 42.578125 3.328125 38.25 0.953125 
Q 33.9375 -1.421875 27.875 -1.421875 
Q 17.96875 -1.421875 11.734375 6.484375 
Q 5.515625 14.40625 5.515625 27.296875 
Q 5.515625 40.1875 11.734375 48.09375 
Q 17.96875 56 27.875 56 
Q 33.9375 56 38.25 53.625 
Q 42.578125 51.265625 45.40625 46.390625 
z
M 14.796875 27.296875 
Q 14.796875 17.390625 18.875 11.75 
Q 22.953125 6.109375 30.078125 6.109375 
Q 37.203125 6.109375 41.296875 11.75 
Q 45.40625 17.390625 45.40625 27.296875 
Q 45.40625 37.203125 41.296875 42.84375 
Q 37.203125 48.484375 30.078125 48.484375 
Q 22.953125 48.484375 18.875 42.84375 
Q 14.796875 37.203125 14.796875 27.296875 
z
" id="DejaVuSans-64"/>
      <path d="M 41.109375 46.296875 
Q 39.59375 47.171875 37.8125 47.578125 
Q 36.03125 48 33.890625 48 
Q 26.265625 48 22.1875 43.046875 
Q 18.109375 38.09375 18.109375 28.8125 
L 18.109375 0 
L 9.078125 0 
L 9.078125 54.6875 
L 18.109375 54.6875 
L 18.109375 46.1875 
Q 20.953125 51.171875 25.484375 53.578125 
Q 30.03125 56 36.53125 56 
Q 37.453125 56 38.578125 55.875 
Q 39.703125 55.765625 41.0625 55.515625 
z
" id="DejaVuSans-72"/>
      <path d="M 44.28125 53.078125 
L 44.28125 44.578125 
Q 40.484375 46.53125 36.375 47.5 
Q 32.28125 48.484375 27.875 48.484375 
Q 21.1875 48.484375 17.84375 46.4375 
Q 14.5 44.390625 14.5 40.28125 
Q 14.5 37.15625 16.890625 35.375 
Q 19.28125 33.59375 26.515625 31.984375 
L 29.59375 31.296875 
Q 39.15625 29.25 43.1875 25.515625 
Q 47.21875 21.78125 47.21875 15.09375 
Q 47.21875 7.46875 41.1875 3.015625 
Q 35.15625 -1.421875 24.609375 -1.421875 
Q 20.21875 -1.421875 15.453125 -0.5625 
Q 10.6875 0.296875 5.421875 2 
L 5.421875 11.28125 
Q 10.40625 8.6875 15.234375 7.390625 
Q 20.0625 6.109375 24.8125 6.109375 
Q 31.15625 6.109375 34.5625 8.28125 
Q 37.984375 10.453125 37.984375 14.40625 
Q 37.984375 18.0625 35.515625 20.015625 
Q 33.0625 21.96875 24.703125 23.78125 
L 21.578125 24.515625 
Q 13.234375 26.265625 9.515625 29.90625 
Q 5.8125 33.546875 5.8125 39.890625 
Q 5.8125 47.609375 11.28125 51.796875 
Q 16.75 56 26.8125 56 
Q 31.78125 56 36.171875 55.265625 
Q 40.578125 54.546875 44.28125 53.078125 
z
" id="DejaVuSans-73"/>
      <path d="M 8.015625 75.875 
L 15.828125 75.875 
Q 23.140625 64.359375 26.78125 53.3125 
Q 30.421875 42.28125 30.421875 31.390625 
Q 30.421875 20.453125 26.78125 9.375 
Q 23.140625 -1.703125 15.828125 -13.1875 
L 8.015625 -13.1875 
Q 14.5 -2 17.703125 9.0625 
Q 20.90625 20.125 20.90625 31.390625 
Q 20.90625 42.671875 17.703125 53.65625 
Q 14.5 64.65625 8.015625 75.875 
z
" id="DejaVuSans-29"/>
     </defs>
     <g transform="translate(188.7475 316.706687)scale(0.1 -0.1)">
      <use xlink:href="#DejaVuSans-41"/>
      <use x="68.408203" xlink:href="#DejaVuSans-6e"/>
      <use x="131.787109" xlink:href="#DejaVuSans-67"/>
      <use x="195.263672" xlink:href="#DejaVuSans-6c"/>
      <use x="223.046875" xlink:href="#DejaVuSans-65"/>
      <use x="284.570312" xlink:href="#DejaVuSans-20"/>
      <use x="316.357422" xlink:href="#DejaVuSans-28"/>
      <use x="355.371094" xlink:href="#DejaVuSans-64"/>
      <use x="418.847656" xlink:href="#DejaVuSans-65"/>
      <use x="480.371094" xlink:href="#DejaVuSans-67"/>
      <use x="543.847656" xlink:href="#DejaVuSans-72"/>
      <use x="584.929688" xlink:href="#DejaVuSans-65"/>
      <use x="646.453125" xlink:href="#DejaVuSans-65"/>
      <use x="707.976562" xlink:href="#DejaVuSans-73"/>
      <use x="760.076172" xlink:href="#DejaVuSans-29"/>
     </g>
    </g>
   </g>
   <g id="matplotlib.axis_2">
    <g id="ytick_1">
     <g id="line2d_6">
      <defs>
       <path d="M 0 0 
L -3.5 0 
" id="mfdabf26d74" style="stroke:#000000;stroke-width:0.8;"/>
      </defs>
      <g>
       <use style="stroke:#000000;stroke-width:0.8;" x="50.14375" xlink:href="#mfdabf26d74" y="288.430125"/>
      </g>
     </g>
     <g id="text_7">
      <!-- 0.00 -->
      <defs>
       <path d="M 10.6875 12.40625 
L 21 12.40625 
L 21 0 
L 10.6875 0 
z
" id="DejaVuSans-2e"/>
      </defs>
      <g transform="translate(20.878125 292.229344)scale(0.1 -0.1)">
       <use xlink:href="#DejaVuSans-30"/>
       <use x="63.623047" xlink:href="#DejaVuSans-2e"/>
       <use x="95.410156" xlink:href="#DejaVuSans-30"/>
       <use x="159.033203" xlink:href="#DejaVuSans-30"/>
      </g>
     </g>
    </g>
    <g id="ytick_2">
     <g id="line2d_7">
      <g>
       <use style="stroke:#000000;stroke-width:0.8;" x="50.14375" xlink:href="#mfdabf26d74" y="233.608603"/>
      </g>
     </g>
     <g id="text_8">
      <!-- 0.05 -->
      <defs>
       <path d="M 10.796875 72.90625 
L 49.515625 72.90625 
L 49.515625 64.59375 
L 19.828125 64.59375 
L 19.828125 46.734375 
Q 21.96875 47.46875 24.109375 47.828125 
Q 26.265625 48.1875 28.421875 48.1875 
Q 40.625 48.1875 47.75 41.5 
Q 54.890625 34.8125 54.890625 23.390625 
Q 54.890625 11.625 47.5625 5.09375 
Q 40.234375 -1.421875 26.90625 -1.421875 
Q 22.3125 -1.421875 17.546875 -0.640625 
Q 12.796875 0.140625 7.71875 1.703125 
L 7.71875 11.625 
Q 12.109375 9.234375 16.796875 8.0625 
Q 21.484375 6.890625 26.703125 6.890625 
Q 35.15625 6.890625 40.078125 11.328125 
Q 45.015625 15.765625 45.015625 23.390625 
Q 45.015625 31 40.078125 35.4375 
Q 35.15625 39.890625 26.703125 39.890625 
Q 22.75 39.890625 18.8125 39.015625 
Q 14.890625 38.140625 10.796875 36.28125 
z
" id="DejaVuSans-35"/>
      </defs>
      <g transform="translate(20.878125 237.407822)scale(0.1 -0.1)">
       <use xlink:href="#DejaVuSans-30"/>
       <use x="63.623047" xlink:href="#DejaVuSans-2e"/>
       <use x="95.410156" xlink:href="#DejaVuSans-30"/>
       <use x="159.033203" xlink:href="#DejaVuSans-35"/>
      </g>
     </g>
    </g>
    <g id="ytick_3">
     <g id="line2d_8">
      <g>
       <use style="stroke:#000000;stroke-width:0.8;" x="50.14375" xlink:href="#mfdabf26d74" y="178.787081"/>
      </g>
     </g>
     <g id="text_9">
      <!-- 0.10 -->
      <defs>
       <path d="M 12.40625 8.296875 
L 28.515625 8.296875 
L 28.515625 63.921875 
L 10.984375 60.40625 
L 10.984375 69.390625 
L 28.421875 72.90625 
L 38.28125 72.90625 
L 38.28125 8.296875 
L 54.390625 8.296875 
L 54.390625 0 
L 12.40625 0 
z
" id="DejaVuSans-31"/>
      </defs>
      <g transform="translate(20.878125 182.5863)scale(0.1 -0.1)">
       <use xlink:href="#DejaVuSans-30"/>
       <use x="63.623047" xlink:href="#DejaVuSans-2e"/>
       <use x="95.410156" xlink:href="#DejaVuSans-31"/>
       <use x="159.033203" xlink:href="#DejaVuSans-30"/>
      </g>
     </g>
    </g>
    <g id="ytick_4">
     <g id="line2d_9">
      <g>
       <use style="stroke:#000000;stroke-width:0.8;" x="50.14375" xlink:href="#mfdabf26d74" y="123.965559"/>
      </g>
     </g>
     <g id="text_10">
      <!-- 0.15 -->
      <g transform="translate(20.878125 127.764778)scale(0.1 -0.1)">
       <use xlink:href="#DejaVuSans-30"/>
       <use x="63.623047" xlink:href="#DejaVuSans-2e"/>
       <use x="95.410156" xlink:href="#DejaVuSans-31"/>
       <use x="159.033203" xlink:href="#DejaVuSans-35"/>
      </g>
     </g>
    </g>
    <g id="ytick_5">
     <g id="line2d_10">
      <g>
       <use style="stroke:#000000;stroke-width:0.8;" x="50.14375" xlink:href="#mfdabf26d74" y="69.144037"/>
      </g>
     </g>
     <g id="text_11">
      <!-- 0.20 -->
      <g transform="translate(20.878125 72.943256)scale(0.1 -0.1)">
       <use xlink:href="#DejaVuSans-30"/>
       <use x="63.623047" xlink:href="#DejaVuSans-2e"/>
       <use x="95.410156" xlink:href="#DejaVuSans-32"/>
       <use x="159.033203" xlink:href="#DejaVuSans-30"/>
      </g>
     </g>
    </g>
    <g id="text_12">
     <!-- Frequency -->
     <defs>
      <path d="M 9.8125 72.90625 
L 51.703125 72.90625 
L 51.703125 64.59375 
L 19.671875 64.59375 
L 19.671875 43.109375 
L 48.578125 43.109375 
L 48.578125 34.8125 
L 19.671875 34.8125 
L 19.671875 0 
L 9.8125 0 
z
" id="DejaVuSans-46"/>
      <path d="M 14.796875 27.296875 
Q 14.796875 17.390625 18.875 11.75 
Q 22.953125 6.109375 30.078125 6.109375 
Q 37.203125 6.109375 41.296875 11.75 
Q 45.40625 17.390625 45.40625 27.296875 
Q 45.40625 37.203125 41.296875 42.84375 
Q 37.203125 48.484375 30.078125 48.484375 
Q 22.953125 48.484375 18.875 42.84375 
Q 14.796875 37.203125 14.796875 27.296875 
z
M 45.40625 8.203125 
Q 42.578125 3.328125 38.25 0.953125 
Q 33.9375 -1.421875 27.875 -1.421875 
Q 17.96875 -1.421875 11.734375 6.484375 
Q 5.515625 14.40625 5.515625 27.296875 
Q 5.515625 40.1875 11.734375 48.09375 
Q 17.96875 56 27.875 56 
Q 33.9375 56 38.25 53.625 
Q 42.578125 51.265625 45.40625 46.390625 
L 45.40625 54.6875 
L 54.390625 54.6875 
L 54.390625 -20.796875 
L 45.40625 -20.796875 
z
" id="DejaVuSans-71"/>
      <path d="M 8.5 21.578125 
L 8.5 54.6875 
L 17.484375 54.6875 
L 17.484375 21.921875 
Q 17.484375 14.15625 20.5 10.265625 
Q 23.53125 6.390625 29.59375 6.390625 
Q 36.859375 6.390625 41.078125 11.03125 
Q 45.3125 15.671875 45.3125 23.6875 
L 45.3125 54.6875 
L 54.296875 54.6875 
L 54.296875 0 
L 45.3125 0 
L 45.3125 8.40625 
Q 42.046875 3.421875 37.71875 1 
Q 33.40625 -1.421875 27.6875 -1.421875 
Q 18.265625 -1.421875 13.375 4.4375 
Q 8.5 10.296875 8.5 21.578125 
z
M 31.109375 56 
z
" id="DejaVuSans-75"/>
      <path d="M 48.78125 52.59375 
L 48.78125 44.1875 
Q 44.96875 46.296875 41.140625 47.34375 
Q 37.3125 48.390625 33.40625 48.390625 
Q 24.65625 48.390625 19.8125 42.84375 
Q 14.984375 37.3125 14.984375 27.296875 
Q 14.984375 17.28125 19.8125 11.734375 
Q 24.65625 6.203125 33.40625 6.203125 
Q 37.3125 6.203125 41.140625 7.25 
Q 44.96875 8.296875 48.78125 10.40625 
L 48.78125 2.09375 
Q 45.015625 0.34375 40.984375 -0.53125 
Q 36.96875 -1.421875 32.421875 -1.421875 
Q 20.0625 -1.421875 12.78125 6.34375 
Q 5.515625 14.109375 5.515625 27.296875 
Q 5.515625 40.671875 12.859375 48.328125 
Q 20.21875 56 33.015625 56 
Q 37.15625 56 41.109375 55.140625 
Q 45.0625 54.296875 48.78125 52.59375 
z
" id="DejaVuSans-63"/>
      <path d="M 32.171875 -5.078125 
Q 28.375 -14.84375 24.75 -17.8125 
Q 21.140625 -20.796875 15.09375 -20.796875 
L 7.90625 -20.796875 
L 7.90625 -13.28125 
L 13.1875 -13.28125 
Q 16.890625 -13.28125 18.9375 -11.515625 
Q 21 -9.765625 23.484375 -3.21875 
L 25.09375 0.875 
L 2.984375 54.6875 
L 12.5 54.6875 
L 29.59375 11.921875 
L 46.6875 54.6875 
L 56.203125 54.6875 
z
" id="DejaVuSans-79"/>
     </defs>
     <g transform="translate(14.798438 181.671781)rotate(-90)scale(0.1 -0.1)">
      <use xlink:href="#DejaVuSans-46"/>
      <use x="57.410156" xlink:href="#DejaVuSans-72"/>
      <use x="98.492188" xlink:href="#DejaVuSans-65"/>
      <use x="160.015625" xlink:href="#DejaVuSans-71"/>
      <use x="223.492188" xlink:href="#DejaVuSans-75"/>
      <use x="286.871094" xlink:href="#DejaVuSans-65"/>
      <use x="348.394531" xlink:href="#DejaVuSans-6e"/>
      <use x="411.773438" xlink:href="#DejaVuSans-63"/>
      <use x="466.753906" xlink:href="#DejaVuSans-79"/>
     </g>
    </g>
   </g>
   <g id="line2d_11">
    <path clip-path="url(#pbe1f9a2313)" d="M 66.376477 267.27902 
L 71.041098 263.700812 
L 74.35715 260.88174 
L 79.35387 256.175571 
L 86.466468 248.469766 
L 89.065086 245.346298 
L 99.564805 230.984839 
L 103.565498 224.771757 
L 113.688914 207.276288 
L 118.159761 198.790206 
L 123.541361 188.027209 
L 129.934428 174.576242 
L 139.579401 153.312749 
L 157.26121 113.842757 
L 160.938674 106.001489 
L 167.174937 93.334671 
L 171.945734 84.336008 
L 175.240033 78.547285 
L 178.973281 72.465318 
L 182.004342 67.937716 
L 185.120151 63.698469 
L 187.679023 60.551058 
L 190.531371 57.416319 
L 192.900921 55.123949 
L 194.885159 53.429093 
L 198.414567 50.935748 
L 201.071587 49.510085 
L 203.049986 48.705321 
L 205.231449 48.075076 
L 206.22742 47.877585 
L 209.198803 47.626211 
L 210.567607 47.680958 
L 212.130709 47.874973 
L 214.505535 48.437259 
L 217.145117 49.43824 
L 219.922406 50.913466 
L 221.10794 51.673105 
L 224.22961 54.037896 
L 225.08506 54.776625 
L 228.791087 58.414389 
L 232.162806 62.319216 
L 234.82006 65.775662 
L 238.002574 70.329829 
L 239.333743 72.361872 
L 242.922268 78.189097 
L 247.531227 86.355979 
L 251.258396 93.451599 
L 255.942514 102.890623 
L 264.672522 121.6261 
L 271.975928 137.954472 
L 285.158235 167.446905 
L 292.46111 183.114935 
L 297.497302 193.427873 
L 303.654449 205.359943 
L 305.9996 209.687252 
L 310.838187 218.207991 
L 321.560029 235.020446 
L 324.087395 238.556701 
L 335.899447 252.944594 
L 337.039149 254.151424 
L 340.403423 257.535591 
L 351.482864 266.905962 
L 354.684599 269.145949 
L 362.022798 273.577213 
L 363.850211 274.539973 
L 391.031023 283.763864 
L 391.031023 283.763864 
" style="fill:none;stroke:#1f77b4;stroke-linecap:square;stroke-width:1.5;"/>
    <defs>
     <path d="M 0 3 
C 0.795609 3 1.55874 2.683901 2.12132 2.12132 
C 2.683901 1.55874 3 0.795609 3 0 
C 3 -0.795609 2.683901 -1.55874 2.12132 -2.12132 
C 1.55874 -2.683901 0.795609 -3 0 -3 
C -0.795609 -3 -1.55874 -2.683901 -2.12132 -2.12132 
C -2.683901 -1.55874 -3 -0.795609 -3 0 
C -3 0.795609 -2.683901 1.55874 -2.12132 2.12132 
C -1.55874 2.683901 -0.795609 3 0 3 
z
" id="m016c42774c" style="stroke:#1f77b4;"/>
    </defs>
    <g clip-path="url(#pbe1f9a2313)">
     <use style="fill:#1f77b4;stroke:#1f77b4;" x="66.376477" xlink:href="#m016c42774c" y="267.27902"/>
     <use style="fill:#1f77b4;stroke:#1f77b4;" x="71.041098" xlink:href="#m016c42774c" y="263.700812"/>
     <use style="fill:#1f77b4;stroke:#1f77b4;" x="73.755159" xlink:href="#m016c42774c" y="261.411111"/>
     <use style="fill:#1f77b4;stroke:#1f77b4;" x="74.35715" xlink:href="#m016c42774c" y="260.88174"/>
     <use style="fill:#1f77b4;stroke:#1f77b4;" x="78.71074" xlink:href="#m016c42774c" y="256.813169"/>
     <use style="fill:#1f77b4;stroke:#1f77b4;" x="79.35387" xlink:href="#m016c42774c" y="256.175571"/>
     <use style="fill:#1f77b4;stroke:#1f77b4;" x="86.466468" xlink:href="#m016c42774c" y="248.469766"/>
     <use style="fill:#1f77b4;stroke:#1f77b4;" x="89.065086" xlink:href="#m016c42774c" y="245.346298"/>
     <use style="fill:#1f77b4;stroke:#1f77b4;" x="98.334043" xlink:href="#m016c42774c" y="232.814098"/>
     <use style="fill:#1f77b4;stroke:#1f77b4;" x="99.564805" xlink:href="#m016c42774c" y="230.984839"/>
     <use style="fill:#1f77b4;stroke:#1f77b4;" x="100.313611" xlink:href="#m016c42774c" y="229.852944"/>
     <use style="fill:#1f77b4;stroke:#1f77b4;" x="103.565498" xlink:href="#m016c42774c" y="224.771757"/>
     <use style="fill:#1f77b4;stroke:#1f77b4;" x="113.688914" xlink:href="#m016c42774c" y="207.276288"/>
     <use style="fill:#1f77b4;stroke:#1f77b4;" x="116.277974" xlink:href="#m016c42774c" y="202.415154"/>
     <use style="fill:#1f77b4;stroke:#1f77b4;" x="117.885849" xlink:href="#m016c42774c" y="199.322522"/>
     <use style="fill:#1f77b4;stroke:#1f77b4;" x="118.159761" xlink:href="#m016c42774c" y="198.790206"/>
     <use style="fill:#1f77b4;stroke:#1f77b4;" x="122.3466" xlink:href="#m016c42774c" y="190.464744"/>
     <use style="fill:#1f77b4;stroke:#1f77b4;" x="123.541361" xlink:href="#m016c42774c" y="188.027209"/>
     <use style="fill:#1f77b4;stroke:#1f77b4;" x="129.934428" xlink:href="#m016c42774c" y="174.576242"/>
     <use style="fill:#1f77b4;stroke:#1f77b4;" x="134.072106" xlink:href="#m016c42774c" y="165.56465"/>
     <use style="fill:#1f77b4;stroke:#1f77b4;" x="135.176104" xlink:href="#m016c42774c" y="163.12843"/>
     <use style="fill:#1f77b4;stroke:#1f77b4;" x="137.879375" xlink:href="#m016c42774c" y="157.118415"/>
     <use style="fill:#1f77b4;stroke:#1f77b4;" x="139.579401" xlink:href="#m016c42774c" y="153.312749"/>
     <use style="fill:#1f77b4;stroke:#1f77b4;" x="140.422579" xlink:href="#m016c42774c" y="151.419539"/>
     <use style="fill:#1f77b4;stroke:#1f77b4;" x="140.748432" xlink:href="#m016c42774c" y="150.687064"/>
     <use style="fill:#1f77b4;stroke:#1f77b4;" x="142.614923" xlink:href="#m016c42774c" y="146.48463"/>
     <use style="fill:#1f77b4;stroke:#1f77b4;" x="142.777832" xlink:href="#m016c42774c" y="146.117421"/>
     <use style="fill:#1f77b4;stroke:#1f77b4;" x="144.062329" xlink:href="#m016c42774c" y="143.220798"/>
     <use style="fill:#1f77b4;stroke:#1f77b4;" x="144.185902" xlink:href="#m016c42774c" y="142.942061"/>
     <use style="fill:#1f77b4;stroke:#1f77b4;" x="150.092684" xlink:href="#m016c42774c" y="129.651301"/>
     <use style="fill:#1f77b4;stroke:#1f77b4;" x="150.627749" xlink:href="#m016c42774c" y="128.454754"/>
     <use style="fill:#1f77b4;stroke:#1f77b4;" x="151.111076" xlink:href="#m016c42774c" y="127.375609"/>
     <use style="fill:#1f77b4;stroke:#1f77b4;" x="151.632588" xlink:href="#m016c42774c" y="126.213182"/>
     <use style="fill:#1f77b4;stroke:#1f77b4;" x="151.701032" xlink:href="#m016c42774c" y="126.060784"/>
     <use style="fill:#1f77b4;stroke:#1f77b4;" x="151.802521" xlink:href="#m016c42774c" y="125.834876"/>
     <use style="fill:#1f77b4;stroke:#1f77b4;" x="152.46506" xlink:href="#m016c42774c" y="124.362281"/>
     <use style="fill:#1f77b4;stroke:#1f77b4;" x="152.67574" xlink:href="#m016c42774c" y="123.894833"/>
     <use style="fill:#1f77b4;stroke:#1f77b4;" x="153.029943" xlink:href="#m016c42774c" y="123.109884"/>
     <use style="fill:#1f77b4;stroke:#1f77b4;" x="156.22991" xlink:href="#m016c42774c" y="116.080442"/>
     <use style="fill:#1f77b4;stroke:#1f77b4;" x="157.26121" xlink:href="#m016c42774c" y="113.842757"/>
     <use style="fill:#1f77b4;stroke:#1f77b4;" x="158.426145" xlink:href="#m016c42774c" y="111.334197"/>
     <use style="fill:#1f77b4;stroke:#1f77b4;" x="158.463169" xlink:href="#m016c42774c" y="111.254821"/>
     <use style="fill:#1f77b4;stroke:#1f77b4;" x="160.068513" xlink:href="#m016c42774c" y="107.835516"/>
     <use style="fill:#1f77b4;stroke:#1f77b4;" x="160.472859" xlink:href="#m016c42774c" y="106.981511"/>
     <use style="fill:#1f77b4;stroke:#1f77b4;" x="160.938674" xlink:href="#m016c42774c" y="106.001489"/>
     <use style="fill:#1f77b4;stroke:#1f77b4;" x="163.738745" xlink:href="#m016c42774c" y="100.203303"/>
     <use style="fill:#1f77b4;stroke:#1f77b4;" x="163.948143" xlink:href="#m016c42774c" y="99.776542"/>
     <use style="fill:#1f77b4;stroke:#1f77b4;" x="164.861888" xlink:href="#m016c42774c" y="97.926256"/>
     <use style="fill:#1f77b4;stroke:#1f77b4;" x="164.986381" xlink:href="#m016c42774c" y="97.675704"/>
     <use style="fill:#1f77b4;stroke:#1f77b4;" x="165.155879" xlink:href="#m016c42774c" y="97.335182"/>
     <use style="fill:#1f77b4;stroke:#1f77b4;" x="166.509849" xlink:href="#m016c42774c" y="94.640815"/>
     <use style="fill:#1f77b4;stroke:#1f77b4;" x="166.679931" xlink:href="#m016c42774c" y="94.305683"/>
     <use style="fill:#1f77b4;stroke:#1f77b4;" x="167.174937" xlink:href="#m016c42774c" y="93.334671"/>
     <use style="fill:#1f77b4;stroke:#1f77b4;" x="169.179819" xlink:href="#m016c42774c" y="89.470903"/>
     <use style="fill:#1f77b4;stroke:#1f77b4;" x="170.156693" xlink:href="#m016c42774c" y="87.630423"/>
     <use style="fill:#1f77b4;stroke:#1f77b4;" x="170.648517" xlink:href="#m016c42774c" y="86.714747"/>
     <use style="fill:#1f77b4;stroke:#1f77b4;" x="171.495867" xlink:href="#m016c42774c" y="85.154859"/>
     <use style="fill:#1f77b4;stroke:#1f77b4;" x="171.945734" xlink:href="#m016c42774c" y="84.336008"/>
     <use style="fill:#1f77b4;stroke:#1f77b4;" x="173.048919" xlink:href="#m016c42774c" y="82.356101"/>
     <use style="fill:#1f77b4;stroke:#1f77b4;" x="175.240033" xlink:href="#m016c42774c" y="78.547285"/>
     <use style="fill:#1f77b4;stroke:#1f77b4;" x="176.363116" xlink:href="#m016c42774c" y="76.661844"/>
     <use style="fill:#1f77b4;stroke:#1f77b4;" x="176.739737" xlink:href="#m016c42774c" y="76.040092"/>
     <use style="fill:#1f77b4;stroke:#1f77b4;" x="178.973281" xlink:href="#m016c42774c" y="72.465318"/>
     <use style="fill:#1f77b4;stroke:#1f77b4;" x="179.250208" xlink:href="#m016c42774c" y="72.035868"/>
     <use style="fill:#1f77b4;stroke:#1f77b4;" x="181.849065" xlink:href="#m016c42774c" y="68.160218"/>
     <use style="fill:#1f77b4;stroke:#1f77b4;" x="182.004342" xlink:href="#m016c42774c" y="67.937716"/>
     <use style="fill:#1f77b4;stroke:#1f77b4;" x="182.351128" xlink:href="#m016c42774c" y="67.444569"/>
     <use style="fill:#1f77b4;stroke:#1f77b4;" x="183.27172" xlink:href="#m016c42774c" y="66.161016"/>
     <use style="fill:#1f77b4;stroke:#1f77b4;" x="183.443437" xlink:href="#m016c42774c" y="65.92575"/>
     <use style="fill:#1f77b4;stroke:#1f77b4;" x="184.206096" xlink:href="#m016c42774c" y="64.89683"/>
     <use style="fill:#1f77b4;stroke:#1f77b4;" x="184.950741" xlink:href="#m016c42774c" y="63.917679"/>
     <use style="fill:#1f77b4;stroke:#1f77b4;" x="185.112448" xlink:href="#m016c42774c" y="63.708407"/>
     <use style="fill:#1f77b4;stroke:#1f77b4;" x="185.120151" xlink:href="#m016c42774c" y="63.698469"/>
     <use style="fill:#1f77b4;stroke:#1f77b4;" x="185.428767" xlink:href="#m016c42774c" y="63.302544"/>
     <use style="fill:#1f77b4;stroke:#1f77b4;" x="187.679023" xlink:href="#m016c42774c" y="60.551058"/>
     <use style="fill:#1f77b4;stroke:#1f77b4;" x="188.165587" xlink:href="#m016c42774c" y="59.987989"/>
     <use style="fill:#1f77b4;stroke:#1f77b4;" x="190.531371" xlink:href="#m016c42774c" y="57.416319"/>
     <use style="fill:#1f77b4;stroke:#1f77b4;" x="191.661505" xlink:href="#m016c42774c" y="56.287042"/>
     <use style="fill:#1f77b4;stroke:#1f77b4;" x="191.746244" xlink:href="#m016c42774c" y="56.204996"/>
     <use style="fill:#1f77b4;stroke:#1f77b4;" x="191.89339" xlink:href="#m016c42774c" y="56.063404"/>
     <use style="fill:#1f77b4;stroke:#1f77b4;" x="192.100838" xlink:href="#m016c42774c" y="55.865679"/>
     <use style="fill:#1f77b4;stroke:#1f77b4;" x="192.900921" xlink:href="#m016c42774c" y="55.123949"/>
     <use style="fill:#1f77b4;stroke:#1f77b4;" x="193.764136" xlink:href="#m016c42774c" y="54.361122"/>
     <use style="fill:#1f77b4;stroke:#1f77b4;" x="194.004118" xlink:href="#m016c42774c" y="54.156002"/>
     <use style="fill:#1f77b4;stroke:#1f77b4;" x="194.058138" xlink:href="#m016c42774c" y="54.110249"/>
     <use style="fill:#1f77b4;stroke:#1f77b4;" x="194.885159" xlink:href="#m016c42774c" y="53.429093"/>
     <use style="fill:#1f77b4;stroke:#1f77b4;" x="198.109226" xlink:href="#m016c42774c" y="51.124637"/>
     <use style="fill:#1f77b4;stroke:#1f77b4;" x="198.414567" xlink:href="#m016c42774c" y="50.935748"/>
     <use style="fill:#1f77b4;stroke:#1f77b4;" x="199.488854" xlink:href="#m016c42774c" y="50.31207"/>
     <use style="fill:#1f77b4;stroke:#1f77b4;" x="199.724895" xlink:href="#m016c42774c" y="50.183605"/>
     <use style="fill:#1f77b4;stroke:#1f77b4;" x="199.861123" xlink:href="#m016c42774c" y="50.110873"/>
     <use style="fill:#1f77b4;stroke:#1f77b4;" x="201.071587" xlink:href="#m016c42774c" y="49.510085"/>
     <use style="fill:#1f77b4;stroke:#1f77b4;" x="201.2321" xlink:href="#m016c42774c" y="49.436576"/>
     <use style="fill:#1f77b4;stroke:#1f77b4;" x="203.049986" xlink:href="#m016c42774c" y="48.705321"/>
     <use style="fill:#1f77b4;stroke:#1f77b4;" x="203.473457" xlink:href="#m016c42774c" y="48.56181"/>
     <use style="fill:#1f77b4;stroke:#1f77b4;" x="204.479633" xlink:href="#m016c42774c" y="48.261685"/>
     <use style="fill:#1f77b4;stroke:#1f77b4;" x="205.046668" xlink:href="#m016c42774c" y="48.117951"/>
     <use style="fill:#1f77b4;stroke:#1f77b4;" x="205.231449" xlink:href="#m016c42774c" y="48.075076"/>
     <use style="fill:#1f77b4;stroke:#1f77b4;" x="206.22742" xlink:href="#m016c42774c" y="47.877585"/>
     <use style="fill:#1f77b4;stroke:#1f77b4;" x="208.201304" xlink:href="#m016c42774c" y="47.654095"/>
     <use style="fill:#1f77b4;stroke:#1f77b4;" x="209.198803" xlink:href="#m016c42774c" y="47.626211"/>
     <use style="fill:#1f77b4;stroke:#1f77b4;" x="210.310027" xlink:href="#m016c42774c" y="47.662438"/>
     <use style="fill:#1f77b4;stroke:#1f77b4;" x="210.567607" xlink:href="#m016c42774c" y="47.680958"/>
     <use style="fill:#1f77b4;stroke:#1f77b4;" x="211.888085" xlink:href="#m016c42774c" y="47.835676"/>
     <use style="fill:#1f77b4;stroke:#1f77b4;" x="212.130709" xlink:href="#m016c42774c" y="47.874973"/>
     <use style="fill:#1f77b4;stroke:#1f77b4;" x="214.224562" xlink:href="#m016c42774c" y="48.353958"/>
     <use style="fill:#1f77b4;stroke:#1f77b4;" x="214.505535" xlink:href="#m016c42774c" y="48.437259"/>
     <use style="fill:#1f77b4;stroke:#1f77b4;" x="215.809548" xlink:href="#m016c42774c" y="48.882539"/>
     <use style="fill:#1f77b4;stroke:#1f77b4;" x="217.057494" xlink:href="#m016c42774c" y="49.398704"/>
     <use style="fill:#1f77b4;stroke:#1f77b4;" x="217.145117" xlink:href="#m016c42774c" y="49.43824"/>
     <use style="fill:#1f77b4;stroke:#1f77b4;" x="219.004246" xlink:href="#m016c42774c" y="50.378316"/>
     <use style="fill:#1f77b4;stroke:#1f77b4;" x="219.922406" xlink:href="#m016c42774c" y="50.913466"/>
     <use style="fill:#1f77b4;stroke:#1f77b4;" x="221.10794" xlink:href="#m016c42774c" y="51.673105"/>
     <use style="fill:#1f77b4;stroke:#1f77b4;" x="223.359374" xlink:href="#m016c42774c" y="53.326113"/>
     <use style="fill:#1f77b4;stroke:#1f77b4;" x="224.22961" xlink:href="#m016c42774c" y="54.037896"/>
     <use style="fill:#1f77b4;stroke:#1f77b4;" x="225.08506" xlink:href="#m016c42774c" y="54.776625"/>
     <use style="fill:#1f77b4;stroke:#1f77b4;" x="227.637635" xlink:href="#m016c42774c" y="57.207119"/>
     <use style="fill:#1f77b4;stroke:#1f77b4;" x="228.163726" xlink:href="#m016c42774c" y="57.749461"/>
     <use style="fill:#1f77b4;stroke:#1f77b4;" x="228.23683" xlink:href="#m016c42774c" y="57.825926"/>
     <use style="fill:#1f77b4;stroke:#1f77b4;" x="228.791087" xlink:href="#m016c42774c" y="58.414389"/>
     <use style="fill:#1f77b4;stroke:#1f77b4;" x="230.252129" xlink:href="#m016c42774c" y="60.038626"/>
     <use style="fill:#1f77b4;stroke:#1f77b4;" x="232.162806" xlink:href="#m016c42774c" y="62.319216"/>
     <use style="fill:#1f77b4;stroke:#1f77b4;" x="232.323477" xlink:href="#m016c42774c" y="62.518919"/>
     <use style="fill:#1f77b4;stroke:#1f77b4;" x="233.459495" xlink:href="#m016c42774c" y="63.965324"/>
     <use style="fill:#1f77b4;stroke:#1f77b4;" x="234.82006" xlink:href="#m016c42774c" y="65.775662"/>
     <use style="fill:#1f77b4;stroke:#1f77b4;" x="236.361886" xlink:href="#m016c42774c" y="67.927251"/>
     <use style="fill:#1f77b4;stroke:#1f77b4;" x="238.002574" xlink:href="#m016c42774c" y="70.329829"/>
     <use style="fill:#1f77b4;stroke:#1f77b4;" x="239.333743" xlink:href="#m016c42774c" y="72.361872"/>
     <use style="fill:#1f77b4;stroke:#1f77b4;" x="242.922268" xlink:href="#m016c42774c" y="78.189097"/>
     <use style="fill:#1f77b4;stroke:#1f77b4;" x="245.193466" xlink:href="#m016c42774c" y="82.12341"/>
     <use style="fill:#1f77b4;stroke:#1f77b4;" x="245.395936" xlink:href="#m016c42774c" y="82.482847"/>
     <use style="fill:#1f77b4;stroke:#1f77b4;" x="245.63834" xlink:href="#m016c42774c" y="82.915"/>
     <use style="fill:#1f77b4;stroke:#1f77b4;" x="246.759819" xlink:href="#m016c42774c" y="84.939693"/>
     <use style="fill:#1f77b4;stroke:#1f77b4;" x="247.487777" xlink:href="#m016c42774c" y="86.275706"/>
     <use style="fill:#1f77b4;stroke:#1f77b4;" x="247.531227" xlink:href="#m016c42774c" y="86.355979"/>
     <use style="fill:#1f77b4;stroke:#1f77b4;" x="248.470508" xlink:href="#m016c42774c" y="88.105564"/>
     <use style="fill:#1f77b4;stroke:#1f77b4;" x="249.468141" xlink:href="#m016c42774c" y="89.992991"/>
     <use style="fill:#1f77b4;stroke:#1f77b4;" x="249.471263" xlink:href="#m016c42774c" y="89.998945"/>
     <use style="fill:#1f77b4;stroke:#1f77b4;" x="249.498862" xlink:href="#m016c42774c" y="90.051576"/>
     <use style="fill:#1f77b4;stroke:#1f77b4;" x="250.156771" xlink:href="#m016c42774c" y="91.312729"/>
     <use style="fill:#1f77b4;stroke:#1f77b4;" x="250.230772" xlink:href="#m016c42774c" y="91.455353"/>
     <use style="fill:#1f77b4;stroke:#1f77b4;" x="251.258396" xlink:href="#m016c42774c" y="93.451599"/>
     <use style="fill:#1f77b4;stroke:#1f77b4;" x="252.664403" xlink:href="#m016c42774c" y="96.228596"/>
     <use style="fill:#1f77b4;stroke:#1f77b4;" x="253.473663" xlink:href="#m016c42774c" y="97.849743"/>
     <use style="fill:#1f77b4;stroke:#1f77b4;" x="255.024842" xlink:href="#m016c42774c" y="101.000873"/>
     <use style="fill:#1f77b4;stroke:#1f77b4;" x="255.942514" xlink:href="#m016c42774c" y="102.890623"/>
     <use style="fill:#1f77b4;stroke:#1f77b4;" x="260.961491" xlink:href="#m016c42774c" y="113.516745"/>
     <use style="fill:#1f77b4;stroke:#1f77b4;" x="261.293364" xlink:href="#m016c42774c" y="114.234436"/>
     <use style="fill:#1f77b4;stroke:#1f77b4;" x="262.547615" xlink:href="#m016c42774c" y="116.960999"/>
     <use style="fill:#1f77b4;stroke:#1f77b4;" x="262.574563" xlink:href="#m016c42774c" y="117.019813"/>
     <use style="fill:#1f77b4;stroke:#1f77b4;" x="264.672522" xlink:href="#m016c42774c" y="121.6261"/>
     <use style="fill:#1f77b4;stroke:#1f77b4;" x="266.04169" xlink:href="#m016c42774c" y="124.658033"/>
     <use style="fill:#1f77b4;stroke:#1f77b4;" x="266.393977" xlink:href="#m016c42774c" y="125.440982"/>
     <use style="fill:#1f77b4;stroke:#1f77b4;" x="267.333827" xlink:href="#m016c42774c" y="127.534818"/>
     <use style="fill:#1f77b4;stroke:#1f77b4;" x="267.652022" xlink:href="#m016c42774c" y="128.245242"/>
     <use style="fill:#1f77b4;stroke:#1f77b4;" x="268.907146" xlink:href="#m016c42774c" y="131.054124"/>
     <use style="fill:#1f77b4;stroke:#1f77b4;" x="270.565096" xlink:href="#m016c42774c" y="134.777668"/>
     <use style="fill:#1f77b4;stroke:#1f77b4;" x="271.975928" xlink:href="#m016c42774c" y="137.954472"/>
     <use style="fill:#1f77b4;stroke:#1f77b4;" x="275.94713" xlink:href="#m016c42774c" y="146.909468"/>
     <use style="fill:#1f77b4;stroke:#1f77b4;" x="276.676449" xlink:href="#m016c42774c" y="148.552383"/>
     <use style="fill:#1f77b4;stroke:#1f77b4;" x="277.380395" xlink:href="#m016c42774c" y="150.136691"/>
     <use style="fill:#1f77b4;stroke:#1f77b4;" x="280.297814" xlink:href="#m016c42774c" y="156.679739"/>
     <use style="fill:#1f77b4;stroke:#1f77b4;" x="280.334478" xlink:href="#m016c42774c" y="156.761669"/>
     <use style="fill:#1f77b4;stroke:#1f77b4;" x="280.787662" xlink:href="#m016c42774c" y="157.773597"/>
     <use style="fill:#1f77b4;stroke:#1f77b4;" x="281.230651" xlink:href="#m016c42774c" y="158.761384"/>
     <use style="fill:#1f77b4;stroke:#1f77b4;" x="282.977518" xlink:href="#m016c42774c" y="162.641741"/>
     <use style="fill:#1f77b4;stroke:#1f77b4;" x="283.863761" xlink:href="#m016c42774c" y="164.60022"/>
     <use style="fill:#1f77b4;stroke:#1f77b4;" x="285.158235" xlink:href="#m016c42774c" y="167.446905"/>
     <use style="fill:#1f77b4;stroke:#1f77b4;" x="288.006695" xlink:href="#m016c42774c" y="173.644313"/>
     <use style="fill:#1f77b4;stroke:#1f77b4;" x="288.750641" xlink:href="#m016c42774c" y="175.246041"/>
     <use style="fill:#1f77b4;stroke:#1f77b4;" x="289.294502" xlink:href="#m016c42774c" y="176.41218"/>
     <use style="fill:#1f77b4;stroke:#1f77b4;" x="290.322005" xlink:href="#m016c42774c" y="178.603796"/>
     <use style="fill:#1f77b4;stroke:#1f77b4;" x="292.46111" xlink:href="#m016c42774c" y="183.114935"/>
     <use style="fill:#1f77b4;stroke:#1f77b4;" x="296.109297" xlink:href="#m016c42774c" y="190.63178"/>
     <use style="fill:#1f77b4;stroke:#1f77b4;" x="297.497302" xlink:href="#m016c42774c" y="193.427873"/>
     <use style="fill:#1f77b4;stroke:#1f77b4;" x="300.742086" xlink:href="#m016c42774c" y="199.81548"/>
     <use style="fill:#1f77b4;stroke:#1f77b4;" x="303.654449" xlink:href="#m016c42774c" y="205.359943"/>
     <use style="fill:#1f77b4;stroke:#1f77b4;" x="305.9996" xlink:href="#m016c42774c" y="209.687252"/>
     <use style="fill:#1f77b4;stroke:#1f77b4;" x="310.401403" xlink:href="#m016c42774c" y="217.461984"/>
     <use style="fill:#1f77b4;stroke:#1f77b4;" x="310.838187" xlink:href="#m016c42774c" y="218.207991"/>
     <use style="fill:#1f77b4;stroke:#1f77b4;" x="321.560029" xlink:href="#m016c42774c" y="235.020446"/>
     <use style="fill:#1f77b4;stroke:#1f77b4;" x="324.087395" xlink:href="#m016c42774c" y="238.556701"/>
     <use style="fill:#1f77b4;stroke:#1f77b4;" x="335.899447" xlink:href="#m016c42774c" y="252.944594"/>
     <use style="fill:#1f77b4;stroke:#1f77b4;" x="337.039149" xlink:href="#m016c42774c" y="254.151424"/>
     <use style="fill:#1f77b4;stroke:#1f77b4;" x="340.403423" xlink:href="#m016c42774c" y="257.535591"/>
     <use style="fill:#1f77b4;stroke:#1f77b4;" x="351.482864" xlink:href="#m016c42774c" y="266.905962"/>
     <use style="fill:#1f77b4;stroke:#1f77b4;" x="354.684599" xlink:href="#m016c42774c" y="269.145949"/>
     <use style="fill:#1f77b4;stroke:#1f77b4;" x="362.022798" xlink:href="#m016c42774c" y="273.577213"/>
     <use style="fill:#1f77b4;stroke:#1f77b4;" x="363.850211" xlink:href="#m016c42774c" y="274.539973"/>
     <use style="fill:#1f77b4;stroke:#1f77b4;" x="391.031023" xlink:href="#m016c42774c" y="283.763864"/>
    </g>
   </g>
   <g id="patch_13">
    <path d="M 50.14375 288.430125 
L 50.14375 22.318125 
" style="fill:none;stroke:#000000;stroke-linecap:square;stroke-linejoin:miter;stroke-width:0.8;"/>
   </g>
   <g id="patch_14">
    <path d="M 407.26375 288.430125 
L 407.26375 22.318125 
" style="fill:none;stroke:#000000;stroke-linecap:square;stroke-linejoin:miter;stroke-width:0.8;"/>
   </g>
   <g id="patch_15">
    <path d="M 50.14375 288.430125 
L 407.26375 288.430125 
" style="fill:none;stroke:#000000;stroke-linecap:square;stroke-linejoin:miter;stroke-width:0.8;"/>
   </g>
   <g id="patch_16">
    <path d="M 50.14375 22.318125 
L 407.26375 22.318125 
" style="fill:none;stroke:#000000;stroke-linecap:square;stroke-linejoin:miter;stroke-width:0.8;"/>
   </g>
   <g id="text_13">
    <!-- Distribution Between Pairs -->
    <defs>
     <path d="M 19.671875 64.796875 
L 19.671875 8.109375 
L 31.59375 8.109375 
Q 46.6875 8.109375 53.6875 14.9375 
Q 60.6875 21.78125 60.6875 36.53125 
Q 60.6875 51.171875 53.6875 57.984375 
Q 46.6875 64.796875 31.59375 64.796875 
z
M 9.8125 72.90625 
L 30.078125 72.90625 
Q 51.265625 72.90625 61.171875 64.09375 
Q 71.09375 55.28125 71.09375 36.53125 
Q 71.09375 17.671875 61.125 8.828125 
Q 51.171875 0 30.078125 0 
L 9.8125 0 
z
" id="DejaVuSans-44"/>
     <path d="M 9.421875 54.6875 
L 18.40625 54.6875 
L 18.40625 0 
L 9.421875 0 
z
M 9.421875 75.984375 
L 18.40625 75.984375 
L 18.40625 64.59375 
L 9.421875 64.59375 
z
" id="DejaVuSans-69"/>
     <path d="M 18.3125 70.21875 
L 18.3125 54.6875 
L 36.8125 54.6875 
L 36.8125 47.703125 
L 18.3125 47.703125 
L 18.3125 18.015625 
Q 18.3125 11.328125 20.140625 9.421875 
Q 21.96875 7.515625 27.59375 7.515625 
L 36.8125 7.515625 
L 36.8125 0 
L 27.59375 0 
Q 17.1875 0 13.234375 3.875 
Q 9.28125 7.765625 9.28125 18.015625 
L 9.28125 47.703125 
L 2.6875 47.703125 
L 2.6875 54.6875 
L 9.28125 54.6875 
L 9.28125 70.21875 
z
" id="DejaVuSans-74"/>
     <path d="M 48.6875 27.296875 
Q 48.6875 37.203125 44.609375 42.84375 
Q 40.53125 48.484375 33.40625 48.484375 
Q 26.265625 48.484375 22.1875 42.84375 
Q 18.109375 37.203125 18.109375 27.296875 
Q 18.109375 17.390625 22.1875 11.75 
Q 26.265625 6.109375 33.40625 6.109375 
Q 40.53125 6.109375 44.609375 11.75 
Q 48.6875 17.390625 48.6875 27.296875 
z
M 18.109375 46.390625 
Q 20.953125 51.265625 25.265625 53.625 
Q 29.59375 56 35.59375 56 
Q 45.5625 56 51.78125 48.09375 
Q 58.015625 40.1875 58.015625 27.296875 
Q 58.015625 14.40625 51.78125 6.484375 
Q 45.5625 -1.421875 35.59375 -1.421875 
Q 29.59375 -1.421875 25.265625 0.953125 
Q 20.953125 3.328125 18.109375 8.203125 
L 18.109375 0 
L 9.078125 0 
L 9.078125 75.984375 
L 18.109375 75.984375 
z
" id="DejaVuSans-62"/>
     <path d="M 30.609375 48.390625 
Q 23.390625 48.390625 19.1875 42.75 
Q 14.984375 37.109375 14.984375 27.296875 
Q 14.984375 17.484375 19.15625 11.84375 
Q 23.34375 6.203125 30.609375 6.203125 
Q 37.796875 6.203125 41.984375 11.859375 
Q 46.1875 17.53125 46.1875 27.296875 
Q 46.1875 37.015625 41.984375 42.703125 
Q 37.796875 48.390625 30.609375 48.390625 
z
M 30.609375 56 
Q 42.328125 56 49.015625 48.375 
Q 55.71875 40.765625 55.71875 27.296875 
Q 55.71875 13.875 49.015625 6.21875 
Q 42.328125 -1.421875 30.609375 -1.421875 
Q 18.84375 -1.421875 12.171875 6.21875 
Q 5.515625 13.875 5.515625 27.296875 
Q 5.515625 40.765625 12.171875 48.375 
Q 18.84375 56 30.609375 56 
z
" id="DejaVuSans-6f"/>
     <path d="M 19.671875 34.8125 
L 19.671875 8.109375 
L 35.5 8.109375 
Q 43.453125 8.109375 47.28125 11.40625 
Q 51.125 14.703125 51.125 21.484375 
Q 51.125 28.328125 47.28125 31.5625 
Q 43.453125 34.8125 35.5 34.8125 
z
M 19.671875 64.796875 
L 19.671875 42.828125 
L 34.28125 42.828125 
Q 41.5 42.828125 45.03125 45.53125 
Q 48.578125 48.25 48.578125 53.8125 
Q 48.578125 59.328125 45.03125 62.0625 
Q 41.5 64.796875 34.28125 64.796875 
z
M 9.8125 72.90625 
L 35.015625 72.90625 
Q 46.296875 72.90625 52.390625 68.21875 
Q 58.5 63.53125 58.5 54.890625 
Q 58.5 48.1875 55.375 44.234375 
Q 52.25 40.28125 46.1875 39.3125 
Q 53.46875 37.75 57.5 32.78125 
Q 61.53125 27.828125 61.53125 20.40625 
Q 61.53125 10.640625 54.890625 5.3125 
Q 48.25 0 35.984375 0 
L 9.8125 0 
z
" id="DejaVuSans-42"/>
     <path d="M 4.203125 54.6875 
L 13.1875 54.6875 
L 24.421875 12.015625 
L 35.59375 54.6875 
L 46.1875 54.6875 
L 57.421875 12.015625 
L 68.609375 54.6875 
L 77.59375 54.6875 
L 63.28125 0 
L 52.6875 0 
L 40.921875 44.828125 
L 29.109375 0 
L 18.5 0 
z
" id="DejaVuSans-77"/>
     <path d="M 19.671875 64.796875 
L 19.671875 37.40625 
L 32.078125 37.40625 
Q 38.96875 37.40625 42.71875 40.96875 
Q 46.484375 44.53125 46.484375 51.125 
Q 46.484375 57.671875 42.71875 61.234375 
Q 38.96875 64.796875 32.078125 64.796875 
z
M 9.8125 72.90625 
L 32.078125 72.90625 
Q 44.34375 72.90625 50.609375 67.359375 
Q 56.890625 61.8125 56.890625 51.125 
Q 56.890625 40.328125 50.609375 34.8125 
Q 44.34375 29.296875 32.078125 29.296875 
L 19.671875 29.296875 
L 19.671875 0 
L 9.8125 0 
z
" id="DejaVuSans-50"/>
     <path d="M 34.28125 27.484375 
Q 23.390625 27.484375 19.1875 25 
Q 14.984375 22.515625 14.984375 16.5 
Q 14.984375 11.71875 18.140625 8.90625 
Q 21.296875 6.109375 26.703125 6.109375 
Q 34.1875 6.109375 38.703125 11.40625 
Q 43.21875 16.703125 43.21875 25.484375 
L 43.21875 27.484375 
z
M 52.203125 31.203125 
L 52.203125 0 
L 43.21875 0 
L 43.21875 8.296875 
Q 40.140625 3.328125 35.546875 0.953125 
Q 30.953125 -1.421875 24.3125 -1.421875 
Q 15.921875 -1.421875 10.953125 3.296875 
Q 6 8.015625 6 15.921875 
Q 6 25.140625 12.171875 29.828125 
Q 18.359375 34.515625 30.609375 34.515625 
L 43.21875 34.515625 
L 43.21875 35.40625 
Q 43.21875 41.609375 39.140625 45 
Q 35.0625 48.390625 27.6875 48.390625 
Q 23 48.390625 18.546875 47.265625 
Q 14.109375 46.140625 10.015625 43.890625 
L 10.015625 52.203125 
Q 14.9375 54.109375 19.578125 55.046875 
Q 24.21875 56 28.609375 56 
Q 40.484375 56 46.34375 49.84375 
Q 52.203125 43.703125 52.203125 31.203125 
z
" id="DejaVuSans-61"/>
    </defs>
    <g transform="translate(149.08375 16.318125)scale(0.12 -0.12)">
     <use xlink:href="#DejaVuSans-44"/>
     <use x="77.001953" xlink:href="#DejaVuSans-69"/>
     <use x="104.785156" xlink:href="#DejaVuSans-73"/>
     <use x="156.884766" xlink:href="#DejaVuSans-74"/>
     <use x="196.09375" xlink:href="#DejaVuSans-72"/>
     <use x="237.207031" xlink:href="#DejaVuSans-69"/>
     <use x="264.990234" xlink:href="#DejaVuSans-62"/>
     <use x="328.466797" xlink:href="#DejaVuSans-75"/>
     <use x="391.845703" xlink:href="#DejaVuSans-74"/>
     <use x="431.054688" xlink:href="#DejaVuSans-69"/>
     <use x="458.837891" xlink:href="#DejaVuSans-6f"/>
     <use x="520.019531" xlink:href="#DejaVuSans-6e"/>
     <use x="583.398438" xlink:href="#DejaVuSans-20"/>
     <use x="615.185547" xlink:href="#DejaVuSans-42"/>
     <use x="683.789062" xlink:href="#DejaVuSans-65"/>
     <use x="745.3125" xlink:href="#DejaVuSans-74"/>
     <use x="784.521484" xlink:href="#DejaVuSans-77"/>
     <use x="866.308594" xlink:href="#DejaVuSans-65"/>
     <use x="927.832031" xlink:href="#DejaVuSans-65"/>
     <use x="989.355469" xlink:href="#DejaVuSans-6e"/>
     <use x="1052.734375" xlink:href="#DejaVuSans-20"/>
     <use x="1084.521484" xlink:href="#DejaVuSans-50"/>
     <use x="1144.761719" xlink:href="#DejaVuSans-61"/>
     <use x="1206.041016" xlink:href="#DejaVuSans-69"/>
     <use x="1233.824219" xlink:href="#DejaVuSans-72"/>
     <use x="1274.9375" xlink:href="#DejaVuSans-73"/>
    </g>
   </g>
  </g>
  <g id="text_14">
   <g id="patch_17">
    <path d="M 159.446875 369.50175 
L 286.440625 369.50175 
Q 292.440625 369.50175 292.440625 363.50175 
L 292.440625 338.450625 
Q 292.440625 332.450625 286.440625 332.450625 
L 159.446875 332.450625 
Q 153.446875 332.450625 153.446875 338.450625 
L 153.446875 363.50175 
Q 153.446875 369.50175 159.446875 369.50175 
z
" style="fill:#ffffff;stroke:#808080;stroke-linejoin:miter;"/>
   </g>
   <!-- Dimension: 1000 -->
   <defs>
    <path d="M 52 44.1875 
Q 55.375 50.25 60.0625 53.125 
Q 64.75 56 71.09375 56 
Q 79.640625 56 84.28125 50.015625 
Q 88.921875 44.046875 88.921875 33.015625 
L 88.921875 0 
L 79.890625 0 
L 79.890625 32.71875 
Q 79.890625 40.578125 77.09375 44.375 
Q 74.3125 48.1875 68.609375 48.1875 
Q 61.625 48.1875 57.5625 43.546875 
Q 53.515625 38.921875 53.515625 30.90625 
L 53.515625 0 
L 44.484375 0 
L 44.484375 32.71875 
Q 44.484375 40.625 41.703125 44.40625 
Q 38.921875 48.1875 33.109375 48.1875 
Q 26.21875 48.1875 22.15625 43.53125 
Q 18.109375 38.875 18.109375 30.90625 
L 18.109375 0 
L 9.078125 0 
L 9.078125 54.6875 
L 18.109375 54.6875 
L 18.109375 46.1875 
Q 21.1875 51.21875 25.484375 53.609375 
Q 29.78125 56 35.6875 56 
Q 41.65625 56 45.828125 52.96875 
Q 50 49.953125 52 44.1875 
z
" id="DejaVuSans-6d"/>
    <path d="M 11.71875 12.40625 
L 22.015625 12.40625 
L 22.015625 0 
L 11.71875 0 
z
M 11.71875 51.703125 
L 22.015625 51.703125 
L 22.015625 39.3125 
L 11.71875 39.3125 
z
" id="DejaVuSans-3a"/>
   </defs>
   <g transform="translate(159.446875 347.56875)scale(0.12 -0.12)">
    <use xlink:href="#DejaVuSans-44"/>
    <use x="77.001953" xlink:href="#DejaVuSans-69"/>
    <use x="104.785156" xlink:href="#DejaVuSans-6d"/>
    <use x="202.197266" xlink:href="#DejaVuSans-65"/>
    <use x="263.720703" xlink:href="#DejaVuSans-6e"/>
    <use x="327.099609" xlink:href="#DejaVuSans-73"/>
    <use x="379.199219" xlink:href="#DejaVuSans-69"/>
    <use x="406.982422" xlink:href="#DejaVuSans-6f"/>
    <use x="468.164062" xlink:href="#DejaVuSans-6e"/>
    <use x="531.542969" xlink:href="#DejaVuSans-3a"/>
    <use x="565.234375" xlink:href="#DejaVuSans-20"/>
    <use x="597.021484" xlink:href="#DejaVuSans-31"/>
    <use x="660.644531" xlink:href="#DejaVuSans-30"/>
    <use x="724.267578" xlink:href="#DejaVuSans-30"/>
    <use x="787.890625" xlink:href="#DejaVuSans-30"/>
   </g>
   <!-- Number of Points: 20 -->
   <defs>
    <path d="M 9.8125 72.90625 
L 23.09375 72.90625 
L 55.421875 11.921875 
L 55.421875 72.90625 
L 64.984375 72.90625 
L 64.984375 0 
L 51.703125 0 
L 19.390625 60.984375 
L 19.390625 0 
L 9.8125 0 
z
" id="DejaVuSans-4e"/>
    <path d="M 37.109375 75.984375 
L 37.109375 68.5 
L 28.515625 68.5 
Q 23.6875 68.5 21.796875 66.546875 
Q 19.921875 64.59375 19.921875 59.515625 
L 19.921875 54.6875 
L 34.71875 54.6875 
L 34.71875 47.703125 
L 19.921875 47.703125 
L 19.921875 0 
L 10.890625 0 
L 10.890625 47.703125 
L 2.296875 47.703125 
L 2.296875 54.6875 
L 10.890625 54.6875 
L 10.890625 58.5 
Q 10.890625 67.625 15.140625 71.796875 
Q 19.390625 75.984375 28.609375 75.984375 
z
" id="DejaVuSans-66"/>
   </defs>
   <g transform="translate(159.446875 361.006125)scale(0.12 -0.12)">
    <use xlink:href="#DejaVuSans-4e"/>
    <use x="74.804688" xlink:href="#DejaVuSans-75"/>
    <use x="138.183594" xlink:href="#DejaVuSans-6d"/>
    <use x="235.595703" xlink:href="#DejaVuSans-62"/>
    <use x="299.072266" xlink:href="#DejaVuSans-65"/>
    <use x="360.595703" xlink:href="#DejaVuSans-72"/>
    <use x="401.708984" xlink:href="#DejaVuSans-20"/>
    <use x="433.496094" xlink:href="#DejaVuSans-6f"/>
    <use x="494.677734" xlink:href="#DejaVuSans-66"/>
    <use x="529.882812" xlink:href="#DejaVuSans-20"/>
    <use x="561.669922" xlink:href="#DejaVuSans-50"/>
    <use x="621.925781" xlink:href="#DejaVuSans-6f"/>
    <use x="683.107422" xlink:href="#DejaVuSans-69"/>
    <use x="710.890625" xlink:href="#DejaVuSans-6e"/>
    <use x="774.269531" xlink:href="#DejaVuSans-74"/>
    <use x="813.478516" xlink:href="#DejaVuSans-73"/>
    <use x="865.578125" xlink:href="#DejaVuSans-3a"/>
    <use x="899.269531" xlink:href="#DejaVuSans-20"/>
    <use x="931.056641" xlink:href="#DejaVuSans-32"/>
    <use x="994.679688" xlink:href="#DejaVuSans-30"/>
   </g>
  </g>
 </g>
 <defs>
  <clipPath id="pbe1f9a2313">
   <rect height="266.112" width="357.12" x="50.14375" y="22.318125"/>
  </clipPath>
 </defs>
</svg>
