<?xml version="1.0" encoding="utf-8" standalone="no"?>
<!DOCTYPE svg PUBLIC "-//W3C//DTD SVG 1.1//EN"
  "http://www.w3.org/Graphics/SVG/1.1/DTD/svg11.dtd">
<!-- Created with matplotlib (http://matplotlib.org/) -->
<svg height="370pt" version="1.1" viewBox="0 0 417 370" width="417pt" xmlns="http://www.w3.org/2000/svg" xmlns:xlink="http://www.w3.org/1999/xlink">
 <defs>
  <style type="text/css">
*{stroke-linecap:butt;stroke-linejoin:round;}
  </style>
 </defs>
 <g id="figure_1">
  <g id="patch_1">
   <path d="M 0 370.70175 
L 417.96375 370.70175 
L 417.96375 0 
L 0 0 
z
" style="fill:#ffffff;"/>
  </g>
  <g id="axes_1">
   <g id="patch_2">
    <path d="M 50.14375 288.430125 
L 407.26375 288.430125 
L 407.26375 22.318125 
L 50.14375 22.318125 
z
" style="fill:#ffffff;"/>
   </g>
   <g id="patch_3">
    <path clip-path="url(#pfeab882af1)" d="M 66.376477 288.430125 
L 98.841932 288.430125 
L 98.841932 282.798125 
L 66.376477 282.798125 
z
" style="fill:#ff7f0e;"/>
   </g>
   <g id="patch_4">
    <path clip-path="url(#pfeab882af1)" d="M 98.841932 288.430125 
L 131.307386 288.430125 
L 131.307386 265.902125 
L 98.841932 265.902125 
z
" style="fill:#ff7f0e;"/>
   </g>
   <g id="patch_5">
    <path clip-path="url(#pfeab882af1)" d="M 131.307386 288.430125 
L 163.772841 288.430125 
L 163.772841 243.374125 
L 131.307386 243.374125 
z
" style="fill:#ff7f0e;"/>
   </g>
   <g id="patch_6">
    <path clip-path="url(#pfeab882af1)" d="M 163.772841 288.430125 
L 196.238295 288.430125 
L 196.238295 136.366125 
L 163.772841 136.366125 
z
" style="fill:#ff7f0e;"/>
   </g>
   <g id="patch_7">
    <path clip-path="url(#pfeab882af1)" d="M 196.238295 288.430125 
L 228.70375 288.430125 
L 228.70375 74.414125 
L 196.238295 74.414125 
z
" style="fill:#ff7f0e;"/>
   </g>
   <g id="patch_8">
    <path clip-path="url(#pfeab882af1)" d="M 228.70375 288.430125 
L 261.169205 288.430125 
L 261.169205 34.990125 
L 228.70375 34.990125 
z
" style="fill:#ff7f0e;"/>
   </g>
   <g id="patch_9">
    <path clip-path="url(#pfeab882af1)" d="M 261.169205 288.430125 
L 293.634659 288.430125 
L 293.634659 85.678125 
L 261.169205 85.678125 
z
" style="fill:#ff7f0e;"/>
   </g>
   <g id="patch_10">
    <path clip-path="url(#pfeab882af1)" d="M 293.634659 288.430125 
L 326.100114 288.430125 
L 326.100114 192.686125 
L 293.634659 192.686125 
z
" style="fill:#ff7f0e;"/>
   </g>
   <g id="patch_11">
    <path clip-path="url(#pfeab882af1)" d="M 326.100114 288.430125 
L 358.565568 288.430125 
L 358.565568 243.374125 
L 326.100114 243.374125 
z
" style="fill:#ff7f0e;"/>
   </g>
   <g id="patch_12">
    <path clip-path="url(#pfeab882af1)" d="M 358.565568 288.430125 
L 391.031023 288.430125 
L 391.031023 254.638125 
L 358.565568 254.638125 
z
" style="fill:#ff7f0e;"/>
   </g>
   <g id="matplotlib.axis_1">
    <g id="xtick_1">
     <g id="line2d_1">
      <defs>
       <path d="M 0 0 
L 0 3.5 
" id="mdbe28051c2" style="stroke:#000000;stroke-width:0.8;"/>
      </defs>
      <g>
       <use style="stroke:#000000;stroke-width:0.8;" x="61.006179" xlink:href="#mdbe28051c2" y="288.430125"/>
      </g>
     </g>
     <g id="text_1">
      <!-- 41 -->
      <defs>
       <path d="M 37.796875 64.3125 
L 12.890625 25.390625 
L 37.796875 25.390625 
z
M 35.203125 72.90625 
L 47.609375 72.90625 
L 47.609375 25.390625 
L 58.015625 25.390625 
L 58.015625 17.1875 
L 47.609375 17.1875 
L 47.609375 0 
L 37.796875 0 
L 37.796875 17.1875 
L 4.890625 17.1875 
L 4.890625 26.703125 
z
" id="DejaVuSans-34"/>
       <path d="M 12.40625 8.296875 
L 28.515625 8.296875 
L 28.515625 63.921875 
L 10.984375 60.40625 
L 10.984375 69.390625 
L 28.421875 72.90625 
L 38.28125 72.90625 
L 38.28125 8.296875 
L 54.390625 8.296875 
L 54.390625 0 
L 12.40625 0 
z
" id="DejaVuSans-31"/>
      </defs>
      <g transform="translate(54.643679 303.028562)scale(0.1 -0.1)">
       <use xlink:href="#DejaVuSans-34"/>
       <use x="63.623047" xlink:href="#DejaVuSans-31"/>
      </g>
     </g>
    </g>
    <g id="xtick_2">
     <g id="line2d_2">
      <g>
       <use style="stroke:#000000;stroke-width:0.8;" x="112.702448" xlink:href="#mdbe28051c2" y="288.430125"/>
      </g>
     </g>
     <g id="text_2">
      <!-- 42 -->
      <defs>
       <path d="M 19.1875 8.296875 
L 53.609375 8.296875 
L 53.609375 0 
L 7.328125 0 
L 7.328125 8.296875 
Q 12.9375 14.109375 22.625 23.890625 
Q 32.328125 33.6875 34.8125 36.53125 
Q 39.546875 41.84375 41.421875 45.53125 
Q 43.3125 49.21875 43.3125 52.78125 
Q 43.3125 58.59375 39.234375 62.25 
Q 35.15625 65.921875 28.609375 65.921875 
Q 23.96875 65.921875 18.8125 64.3125 
Q 13.671875 62.703125 7.8125 59.421875 
L 7.8125 69.390625 
Q 13.765625 71.78125 18.9375 73 
Q 24.125 74.21875 28.421875 74.21875 
Q 39.75 74.21875 46.484375 68.546875 
Q 53.21875 62.890625 53.21875 53.421875 
Q 53.21875 48.921875 51.53125 44.890625 
Q 49.859375 40.875 45.40625 35.40625 
Q 44.1875 33.984375 37.640625 27.21875 
Q 31.109375 20.453125 19.1875 8.296875 
z
" id="DejaVuSans-32"/>
      </defs>
      <g transform="translate(106.339948 303.028562)scale(0.1 -0.1)">
       <use xlink:href="#DejaVuSans-34"/>
       <use x="63.623047" xlink:href="#DejaVuSans-32"/>
      </g>
     </g>
    </g>
    <g id="xtick_3">
     <g id="line2d_3">
      <g>
       <use style="stroke:#000000;stroke-width:0.8;" x="164.398717" xlink:href="#mdbe28051c2" y="288.430125"/>
      </g>
     </g>
     <g id="text_3">
      <!-- 43 -->
      <defs>
       <path d="M 40.578125 39.3125 
Q 47.65625 37.796875 51.625 33 
Q 55.609375 28.21875 55.609375 21.1875 
Q 55.609375 10.40625 48.1875 4.484375 
Q 40.765625 -1.421875 27.09375 -1.421875 
Q 22.515625 -1.421875 17.65625 -0.515625 
Q 12.796875 0.390625 7.625 2.203125 
L 7.625 11.71875 
Q 11.71875 9.328125 16.59375 8.109375 
Q 21.484375 6.890625 26.8125 6.890625 
Q 36.078125 6.890625 40.9375 10.546875 
Q 45.796875 14.203125 45.796875 21.1875 
Q 45.796875 27.640625 41.28125 31.265625 
Q 36.765625 34.90625 28.71875 34.90625 
L 20.21875 34.90625 
L 20.21875 43.015625 
L 29.109375 43.015625 
Q 36.375 43.015625 40.234375 45.921875 
Q 44.09375 48.828125 44.09375 54.296875 
Q 44.09375 59.90625 40.109375 62.90625 
Q 36.140625 65.921875 28.71875 65.921875 
Q 24.65625 65.921875 20.015625 65.03125 
Q 15.375 64.15625 9.8125 62.3125 
L 9.8125 71.09375 
Q 15.4375 72.65625 20.34375 73.4375 
Q 25.25 74.21875 29.59375 74.21875 
Q 40.828125 74.21875 47.359375 69.109375 
Q 53.90625 64.015625 53.90625 55.328125 
Q 53.90625 49.265625 50.4375 45.09375 
Q 46.96875 40.921875 40.578125 39.3125 
z
" id="DejaVuSans-33"/>
      </defs>
      <g transform="translate(158.036217 303.028562)scale(0.1 -0.1)">
       <use xlink:href="#DejaVuSans-34"/>
       <use x="63.623047" xlink:href="#DejaVuSans-33"/>
      </g>
     </g>
    </g>
    <g id="xtick_4">
     <g id="line2d_4">
      <g>
       <use style="stroke:#000000;stroke-width:0.8;" x="216.094986" xlink:href="#mdbe28051c2" y="288.430125"/>
      </g>
     </g>
     <g id="text_4">
      <!-- 44 -->
      <g transform="translate(209.732486 303.028562)scale(0.1 -0.1)">
       <use xlink:href="#DejaVuSans-34"/>
       <use x="63.623047" xlink:href="#DejaVuSans-34"/>
      </g>
     </g>
    </g>
    <g id="xtick_5">
     <g id="line2d_5">
      <g>
       <use style="stroke:#000000;stroke-width:0.8;" x="267.791255" xlink:href="#mdbe28051c2" y="288.430125"/>
      </g>
     </g>
     <g id="text_5">
      <!-- 45 -->
      <defs>
       <path d="M 10.796875 72.90625 
L 49.515625 72.90625 
L 49.515625 64.59375 
L 19.828125 64.59375 
L 19.828125 46.734375 
Q 21.96875 47.46875 24.109375 47.828125 
Q 26.265625 48.1875 28.421875 48.1875 
Q 40.625 48.1875 47.75 41.5 
Q 54.890625 34.8125 54.890625 23.390625 
Q 54.890625 11.625 47.5625 5.09375 
Q 40.234375 -1.421875 26.90625 -1.421875 
Q 22.3125 -1.421875 17.546875 -0.640625 
Q 12.796875 0.140625 7.71875 1.703125 
L 7.71875 11.625 
Q 12.109375 9.234375 16.796875 8.0625 
Q 21.484375 6.890625 26.703125 6.890625 
Q 35.15625 6.890625 40.078125 11.328125 
Q 45.015625 15.765625 45.015625 23.390625 
Q 45.015625 31 40.078125 35.4375 
Q 35.15625 39.890625 26.703125 39.890625 
Q 22.75 39.890625 18.8125 39.015625 
Q 14.890625 38.140625 10.796875 36.28125 
z
" id="DejaVuSans-35"/>
      </defs>
      <g transform="translate(261.428755 303.028562)scale(0.1 -0.1)">
       <use xlink:href="#DejaVuSans-34"/>
       <use x="63.623047" xlink:href="#DejaVuSans-35"/>
      </g>
     </g>
    </g>
    <g id="xtick_6">
     <g id="line2d_6">
      <g>
       <use style="stroke:#000000;stroke-width:0.8;" x="319.487524" xlink:href="#mdbe28051c2" y="288.430125"/>
      </g>
     </g>
     <g id="text_6">
      <!-- 46 -->
      <defs>
       <path d="M 33.015625 40.375 
Q 26.375 40.375 22.484375 35.828125 
Q 18.609375 31.296875 18.609375 23.390625 
Q 18.609375 15.53125 22.484375 10.953125 
Q 26.375 6.390625 33.015625 6.390625 
Q 39.65625 6.390625 43.53125 10.953125 
Q 47.40625 15.53125 47.40625 23.390625 
Q 47.40625 31.296875 43.53125 35.828125 
Q 39.65625 40.375 33.015625 40.375 
z
M 52.59375 71.296875 
L 52.59375 62.3125 
Q 48.875 64.0625 45.09375 64.984375 
Q 41.3125 65.921875 37.59375 65.921875 
Q 27.828125 65.921875 22.671875 59.328125 
Q 17.53125 52.734375 16.796875 39.40625 
Q 19.671875 43.65625 24.015625 45.921875 
Q 28.375 48.1875 33.59375 48.1875 
Q 44.578125 48.1875 50.953125 41.515625 
Q 57.328125 34.859375 57.328125 23.390625 
Q 57.328125 12.15625 50.6875 5.359375 
Q 44.046875 -1.421875 33.015625 -1.421875 
Q 20.359375 -1.421875 13.671875 8.265625 
Q 6.984375 17.96875 6.984375 36.375 
Q 6.984375 53.65625 15.1875 63.9375 
Q 23.390625 74.21875 37.203125 74.21875 
Q 40.921875 74.21875 44.703125 73.484375 
Q 48.484375 72.75 52.59375 71.296875 
z
" id="DejaVuSans-36"/>
      </defs>
      <g transform="translate(313.125024 303.028562)scale(0.1 -0.1)">
       <use xlink:href="#DejaVuSans-34"/>
       <use x="63.623047" xlink:href="#DejaVuSans-36"/>
      </g>
     </g>
    </g>
    <g id="xtick_7">
     <g id="line2d_7">
      <g>
       <use style="stroke:#000000;stroke-width:0.8;" x="371.183793" xlink:href="#mdbe28051c2" y="288.430125"/>
      </g>
     </g>
     <g id="text_7">
      <!-- 47 -->
      <defs>
       <path d="M 8.203125 72.90625 
L 55.078125 72.90625 
L 55.078125 68.703125 
L 28.609375 0 
L 18.3125 0 
L 43.21875 64.59375 
L 8.203125 64.59375 
z
" id="DejaVuSans-37"/>
      </defs>
      <g transform="translate(364.821293 303.028562)scale(0.1 -0.1)">
       <use xlink:href="#DejaVuSans-34"/>
       <use x="63.623047" xlink:href="#DejaVuSans-37"/>
      </g>
     </g>
    </g>
    <g id="text_8">
     <!-- Distance -->
     <defs>
      <path d="M 19.671875 64.796875 
L 19.671875 8.109375 
L 31.59375 8.109375 
Q 46.6875 8.109375 53.6875 14.9375 
Q 60.6875 21.78125 60.6875 36.53125 
Q 60.6875 51.171875 53.6875 57.984375 
Q 46.6875 64.796875 31.59375 64.796875 
z
M 9.8125 72.90625 
L 30.078125 72.90625 
Q 51.265625 72.90625 61.171875 64.09375 
Q 71.09375 55.28125 71.09375 36.53125 
Q 71.09375 17.671875 61.125 8.828125 
Q 51.171875 0 30.078125 0 
L 9.8125 0 
z
" id="DejaVuSans-44"/>
      <path d="M 9.421875 54.6875 
L 18.40625 54.6875 
L 18.40625 0 
L 9.421875 0 
z
M 9.421875 75.984375 
L 18.40625 75.984375 
L 18.40625 64.59375 
L 9.421875 64.59375 
z
" id="DejaVuSans-69"/>
      <path d="M 44.28125 53.078125 
L 44.28125 44.578125 
Q 40.484375 46.53125 36.375 47.5 
Q 32.28125 48.484375 27.875 48.484375 
Q 21.1875 48.484375 17.84375 46.4375 
Q 14.5 44.390625 14.5 40.28125 
Q 14.5 37.15625 16.890625 35.375 
Q 19.28125 33.59375 26.515625 31.984375 
L 29.59375 31.296875 
Q 39.15625 29.25 43.1875 25.515625 
Q 47.21875 21.78125 47.21875 15.09375 
Q 47.21875 7.46875 41.1875 3.015625 
Q 35.15625 -1.421875 24.609375 -1.421875 
Q 20.21875 -1.421875 15.453125 -0.5625 
Q 10.6875 0.296875 5.421875 2 
L 5.421875 11.28125 
Q 10.40625 8.6875 15.234375 7.390625 
Q 20.0625 6.109375 24.8125 6.109375 
Q 31.15625 6.109375 34.5625 8.28125 
Q 37.984375 10.453125 37.984375 14.40625 
Q 37.984375 18.0625 35.515625 20.015625 
Q 33.0625 21.96875 24.703125 23.78125 
L 21.578125 24.515625 
Q 13.234375 26.265625 9.515625 29.90625 
Q 5.8125 33.546875 5.8125 39.890625 
Q 5.8125 47.609375 11.28125 51.796875 
Q 16.75 56 26.8125 56 
Q 31.78125 56 36.171875 55.265625 
Q 40.578125 54.546875 44.28125 53.078125 
z
" id="DejaVuSans-73"/>
      <path d="M 18.3125 70.21875 
L 18.3125 54.6875 
L 36.8125 54.6875 
L 36.8125 47.703125 
L 18.3125 47.703125 
L 18.3125 18.015625 
Q 18.3125 11.328125 20.140625 9.421875 
Q 21.96875 7.515625 27.59375 7.515625 
L 36.8125 7.515625 
L 36.8125 0 
L 27.59375 0 
Q 17.1875 0 13.234375 3.875 
Q 9.28125 7.765625 9.28125 18.015625 
L 9.28125 47.703125 
L 2.6875 47.703125 
L 2.6875 54.6875 
L 9.28125 54.6875 
L 9.28125 70.21875 
z
" id="DejaVuSans-74"/>
      <path d="M 34.28125 27.484375 
Q 23.390625 27.484375 19.1875 25 
Q 14.984375 22.515625 14.984375 16.5 
Q 14.984375 11.71875 18.140625 8.90625 
Q 21.296875 6.109375 26.703125 6.109375 
Q 34.1875 6.109375 38.703125 11.40625 
Q 43.21875 16.703125 43.21875 25.484375 
L 43.21875 27.484375 
z
M 52.203125 31.203125 
L 52.203125 0 
L 43.21875 0 
L 43.21875 8.296875 
Q 40.140625 3.328125 35.546875 0.953125 
Q 30.953125 -1.421875 24.3125 -1.421875 
Q 15.921875 -1.421875 10.953125 3.296875 
Q 6 8.015625 6 15.921875 
Q 6 25.140625 12.171875 29.828125 
Q 18.359375 34.515625 30.609375 34.515625 
L 43.21875 34.515625 
L 43.21875 35.40625 
Q 43.21875 41.609375 39.140625 45 
Q 35.0625 48.390625 27.6875 48.390625 
Q 23 48.390625 18.546875 47.265625 
Q 14.109375 46.140625 10.015625 43.890625 
L 10.015625 52.203125 
Q 14.9375 54.109375 19.578125 55.046875 
Q 24.21875 56 28.609375 56 
Q 40.484375 56 46.34375 49.84375 
Q 52.203125 43.703125 52.203125 31.203125 
z
" id="DejaVuSans-61"/>
      <path d="M 54.890625 33.015625 
L 54.890625 0 
L 45.90625 0 
L 45.90625 32.71875 
Q 45.90625 40.484375 42.875 44.328125 
Q 39.84375 48.1875 33.796875 48.1875 
Q 26.515625 48.1875 22.3125 43.546875 
Q 18.109375 38.921875 18.109375 30.90625 
L 18.109375 0 
L 9.078125 0 
L 9.078125 54.6875 
L 18.109375 54.6875 
L 18.109375 46.1875 
Q 21.34375 51.125 25.703125 53.5625 
Q 30.078125 56 35.796875 56 
Q 45.21875 56 50.046875 50.171875 
Q 54.890625 44.34375 54.890625 33.015625 
z
" id="DejaVuSans-6e"/>
      <path d="M 48.78125 52.59375 
L 48.78125 44.1875 
Q 44.96875 46.296875 41.140625 47.34375 
Q 37.3125 48.390625 33.40625 48.390625 
Q 24.65625 48.390625 19.8125 42.84375 
Q 14.984375 37.3125 14.984375 27.296875 
Q 14.984375 17.28125 19.8125 11.734375 
Q 24.65625 6.203125 33.40625 6.203125 
Q 37.3125 6.203125 41.140625 7.25 
Q 44.96875 8.296875 48.78125 10.40625 
L 48.78125 2.09375 
Q 45.015625 0.34375 40.984375 -0.53125 
Q 36.96875 -1.421875 32.421875 -1.421875 
Q 20.0625 -1.421875 12.78125 6.34375 
Q 5.515625 14.109375 5.515625 27.296875 
Q 5.515625 40.671875 12.859375 48.328125 
Q 20.21875 56 33.015625 56 
Q 37.15625 56 41.109375 55.140625 
Q 45.0625 54.296875 48.78125 52.59375 
z
" id="DejaVuSans-63"/>
      <path d="M 56.203125 29.59375 
L 56.203125 25.203125 
L 14.890625 25.203125 
Q 15.484375 15.921875 20.484375 11.0625 
Q 25.484375 6.203125 34.421875 6.203125 
Q 39.59375 6.203125 44.453125 7.46875 
Q 49.3125 8.734375 54.109375 11.28125 
L 54.109375 2.78125 
Q 49.265625 0.734375 44.1875 -0.34375 
Q 39.109375 -1.421875 33.890625 -1.421875 
Q 20.796875 -1.421875 13.15625 6.1875 
Q 5.515625 13.8125 5.515625 26.8125 
Q 5.515625 40.234375 12.765625 48.109375 
Q 20.015625 56 32.328125 56 
Q 43.359375 56 49.78125 48.890625 
Q 56.203125 41.796875 56.203125 29.59375 
z
M 47.21875 32.234375 
Q 47.125 39.59375 43.09375 43.984375 
Q 39.0625 48.390625 32.421875 48.390625 
Q 24.90625 48.390625 20.390625 44.140625 
Q 15.875 39.890625 15.1875 32.171875 
z
" id="DejaVuSans-65"/>
     </defs>
     <g transform="translate(206.84125 316.706687)scale(0.1 -0.1)">
      <use xlink:href="#DejaVuSans-44"/>
      <use x="77.001953" xlink:href="#DejaVuSans-69"/>
      <use x="104.785156" xlink:href="#DejaVuSans-73"/>
      <use x="156.884766" xlink:href="#DejaVuSans-74"/>
      <use x="196.09375" xlink:href="#DejaVuSans-61"/>
      <use x="257.373047" xlink:href="#DejaVuSans-6e"/>
      <use x="320.751953" xlink:href="#DejaVuSans-63"/>
      <use x="375.732422" xlink:href="#DejaVuSans-65"/>
     </g>
    </g>
   </g>
   <g id="matplotlib.axis_2">
    <g id="ytick_1">
     <g id="line2d_8">
      <defs>
       <path d="M 0 0 
L -3.5 0 
" id="ma0b03a95c0" style="stroke:#000000;stroke-width:0.8;"/>
      </defs>
      <g>
       <use style="stroke:#000000;stroke-width:0.8;" x="50.14375" xlink:href="#ma0b03a95c0" y="288.430125"/>
      </g>
     </g>
     <g id="text_9">
      <!-- 0.00 -->
      <defs>
       <path d="M 31.78125 66.40625 
Q 24.171875 66.40625 20.328125 58.90625 
Q 16.5 51.421875 16.5 36.375 
Q 16.5 21.390625 20.328125 13.890625 
Q 24.171875 6.390625 31.78125 6.390625 
Q 39.453125 6.390625 43.28125 13.890625 
Q 47.125 21.390625 47.125 36.375 
Q 47.125 51.421875 43.28125 58.90625 
Q 39.453125 66.40625 31.78125 66.40625 
z
M 31.78125 74.21875 
Q 44.046875 74.21875 50.515625 64.515625 
Q 56.984375 54.828125 56.984375 36.375 
Q 56.984375 17.96875 50.515625 8.265625 
Q 44.046875 -1.421875 31.78125 -1.421875 
Q 19.53125 -1.421875 13.0625 8.265625 
Q 6.59375 17.96875 6.59375 36.375 
Q 6.59375 54.828125 13.0625 64.515625 
Q 19.53125 74.21875 31.78125 74.21875 
z
" id="DejaVuSans-30"/>
       <path d="M 10.6875 12.40625 
L 21 12.40625 
L 21 0 
L 10.6875 0 
z
" id="DejaVuSans-2e"/>
      </defs>
      <g transform="translate(20.878125 292.229344)scale(0.1 -0.1)">
       <use xlink:href="#DejaVuSans-30"/>
       <use x="63.623047" xlink:href="#DejaVuSans-2e"/>
       <use x="95.410156" xlink:href="#DejaVuSans-30"/>
       <use x="159.033203" xlink:href="#DejaVuSans-30"/>
      </g>
     </g>
    </g>
    <g id="ytick_2">
     <g id="line2d_9">
      <g>
       <use style="stroke:#000000;stroke-width:0.8;" x="50.14375" xlink:href="#ma0b03a95c0" y="254.829408"/>
      </g>
     </g>
     <g id="text_10">
      <!-- 0.05 -->
      <g transform="translate(20.878125 258.628627)scale(0.1 -0.1)">
       <use xlink:href="#DejaVuSans-30"/>
       <use x="63.623047" xlink:href="#DejaVuSans-2e"/>
       <use x="95.410156" xlink:href="#DejaVuSans-30"/>
       <use x="159.033203" xlink:href="#DejaVuSans-35"/>
      </g>
     </g>
    </g>
    <g id="ytick_3">
     <g id="line2d_10">
      <g>
       <use style="stroke:#000000;stroke-width:0.8;" x="50.14375" xlink:href="#ma0b03a95c0" y="221.228692"/>
      </g>
     </g>
     <g id="text_11">
      <!-- 0.10 -->
      <g transform="translate(20.878125 225.027911)scale(0.1 -0.1)">
       <use xlink:href="#DejaVuSans-30"/>
       <use x="63.623047" xlink:href="#DejaVuSans-2e"/>
       <use x="95.410156" xlink:href="#DejaVuSans-31"/>
       <use x="159.033203" xlink:href="#DejaVuSans-30"/>
      </g>
     </g>
    </g>
    <g id="ytick_4">
     <g id="line2d_11">
      <g>
       <use style="stroke:#000000;stroke-width:0.8;" x="50.14375" xlink:href="#ma0b03a95c0" y="187.627975"/>
      </g>
     </g>
     <g id="text_12">
      <!-- 0.15 -->
      <g transform="translate(20.878125 191.427194)scale(0.1 -0.1)">
       <use xlink:href="#DejaVuSans-30"/>
       <use x="63.623047" xlink:href="#DejaVuSans-2e"/>
       <use x="95.410156" xlink:href="#DejaVuSans-31"/>
       <use x="159.033203" xlink:href="#DejaVuSans-35"/>
      </g>
     </g>
    </g>
    <g id="ytick_5">
     <g id="line2d_12">
      <g>
       <use style="stroke:#000000;stroke-width:0.8;" x="50.14375" xlink:href="#ma0b03a95c0" y="154.027259"/>
      </g>
     </g>
     <g id="text_13">
      <!-- 0.20 -->
      <g transform="translate(20.878125 157.826478)scale(0.1 -0.1)">
       <use xlink:href="#DejaVuSans-30"/>
       <use x="63.623047" xlink:href="#DejaVuSans-2e"/>
       <use x="95.410156" xlink:href="#DejaVuSans-32"/>
       <use x="159.033203" xlink:href="#DejaVuSans-30"/>
      </g>
     </g>
    </g>
    <g id="ytick_6">
     <g id="line2d_13">
      <g>
       <use style="stroke:#000000;stroke-width:0.8;" x="50.14375" xlink:href="#ma0b03a95c0" y="120.426542"/>
      </g>
     </g>
     <g id="text_14">
      <!-- 0.25 -->
      <g transform="translate(20.878125 124.225761)scale(0.1 -0.1)">
       <use xlink:href="#DejaVuSans-30"/>
       <use x="63.623047" xlink:href="#DejaVuSans-2e"/>
       <use x="95.410156" xlink:href="#DejaVuSans-32"/>
       <use x="159.033203" xlink:href="#DejaVuSans-35"/>
      </g>
     </g>
    </g>
    <g id="ytick_7">
     <g id="line2d_14">
      <g>
       <use style="stroke:#000000;stroke-width:0.8;" x="50.14375" xlink:href="#ma0b03a95c0" y="86.825826"/>
      </g>
     </g>
     <g id="text_15">
      <!-- 0.30 -->
      <g transform="translate(20.878125 90.625044)scale(0.1 -0.1)">
       <use xlink:href="#DejaVuSans-30"/>
       <use x="63.623047" xlink:href="#DejaVuSans-2e"/>
       <use x="95.410156" xlink:href="#DejaVuSans-33"/>
       <use x="159.033203" xlink:href="#DejaVuSans-30"/>
      </g>
     </g>
    </g>
    <g id="ytick_8">
     <g id="line2d_15">
      <g>
       <use style="stroke:#000000;stroke-width:0.8;" x="50.14375" xlink:href="#ma0b03a95c0" y="53.225109"/>
      </g>
     </g>
     <g id="text_16">
      <!-- 0.35 -->
      <g transform="translate(20.878125 57.024328)scale(0.1 -0.1)">
       <use xlink:href="#DejaVuSans-30"/>
       <use x="63.623047" xlink:href="#DejaVuSans-2e"/>
       <use x="95.410156" xlink:href="#DejaVuSans-33"/>
       <use x="159.033203" xlink:href="#DejaVuSans-35"/>
      </g>
     </g>
    </g>
    <g id="text_17">
     <!-- Frequency -->
     <defs>
      <path d="M 9.8125 72.90625 
L 51.703125 72.90625 
L 51.703125 64.59375 
L 19.671875 64.59375 
L 19.671875 43.109375 
L 48.578125 43.109375 
L 48.578125 34.8125 
L 19.671875 34.8125 
L 19.671875 0 
L 9.8125 0 
z
" id="DejaVuSans-46"/>
      <path d="M 41.109375 46.296875 
Q 39.59375 47.171875 37.8125 47.578125 
Q 36.03125 48 33.890625 48 
Q 26.265625 48 22.1875 43.046875 
Q 18.109375 38.09375 18.109375 28.8125 
L 18.109375 0 
L 9.078125 0 
L 9.078125 54.6875 
L 18.109375 54.6875 
L 18.109375 46.1875 
Q 20.953125 51.171875 25.484375 53.578125 
Q 30.03125 56 36.53125 56 
Q 37.453125 56 38.578125 55.875 
Q 39.703125 55.765625 41.0625 55.515625 
z
" id="DejaVuSans-72"/>
      <path d="M 14.796875 27.296875 
Q 14.796875 17.390625 18.875 11.75 
Q 22.953125 6.109375 30.078125 6.109375 
Q 37.203125 6.109375 41.296875 11.75 
Q 45.40625 17.390625 45.40625 27.296875 
Q 45.40625 37.203125 41.296875 42.84375 
Q 37.203125 48.484375 30.078125 48.484375 
Q 22.953125 48.484375 18.875 42.84375 
Q 14.796875 37.203125 14.796875 27.296875 
z
M 45.40625 8.203125 
Q 42.578125 3.328125 38.25 0.953125 
Q 33.9375 -1.421875 27.875 -1.421875 
Q 17.96875 -1.421875 11.734375 6.484375 
Q 5.515625 14.40625 5.515625 27.296875 
Q 5.515625 40.1875 11.734375 48.09375 
Q 17.96875 56 27.875 56 
Q 33.9375 56 38.25 53.625 
Q 42.578125 51.265625 45.40625 46.390625 
L 45.40625 54.6875 
L 54.390625 54.6875 
L 54.390625 -20.796875 
L 45.40625 -20.796875 
z
" id="DejaVuSans-71"/>
      <path d="M 8.5 21.578125 
L 8.5 54.6875 
L 17.484375 54.6875 
L 17.484375 21.921875 
Q 17.484375 14.15625 20.5 10.265625 
Q 23.53125 6.390625 29.59375 6.390625 
Q 36.859375 6.390625 41.078125 11.03125 
Q 45.3125 15.671875 45.3125 23.6875 
L 45.3125 54.6875 
L 54.296875 54.6875 
L 54.296875 0 
L 45.3125 0 
L 45.3125 8.40625 
Q 42.046875 3.421875 37.71875 1 
Q 33.40625 -1.421875 27.6875 -1.421875 
Q 18.265625 -1.421875 13.375 4.4375 
Q 8.5 10.296875 8.5 21.578125 
z
M 31.109375 56 
z
" id="DejaVuSans-75"/>
      <path d="M 32.171875 -5.078125 
Q 28.375 -14.84375 24.75 -17.8125 
Q 21.140625 -20.796875 15.09375 -20.796875 
L 7.90625 -20.796875 
L 7.90625 -13.28125 
L 13.1875 -13.28125 
Q 16.890625 -13.28125 18.9375 -11.515625 
Q 21 -9.765625 23.484375 -3.21875 
L 25.09375 0.875 
L 2.984375 54.6875 
L 12.5 54.6875 
L 29.59375 11.921875 
L 46.6875 54.6875 
L 56.203125 54.6875 
z
" id="DejaVuSans-79"/>
     </defs>
     <g transform="translate(14.798438 181.671781)rotate(-90)scale(0.1 -0.1)">
      <use xlink:href="#DejaVuSans-46"/>
      <use x="57.410156" xlink:href="#DejaVuSans-72"/>
      <use x="98.492188" xlink:href="#DejaVuSans-65"/>
      <use x="160.015625" xlink:href="#DejaVuSans-71"/>
      <use x="223.492188" xlink:href="#DejaVuSans-75"/>
      <use x="286.871094" xlink:href="#DejaVuSans-65"/>
      <use x="348.394531" xlink:href="#DejaVuSans-6e"/>
      <use x="411.773438" xlink:href="#DejaVuSans-63"/>
      <use x="466.753906" xlink:href="#DejaVuSans-79"/>
     </g>
    </g>
   </g>
   <g id="line2d_16">
    <path clip-path="url(#pfeab882af1)" d="M 66.376477 286.5576 
L 113.614496 270.21308 
L 123.106171 262.011317 
L 124.278263 260.825162 
L 133.026848 250.6401 
L 134.160169 249.140849 
L 139.865071 240.935812 
L 141.777347 237.935215 
L 149.020609 225.41334 
L 152.654447 218.445986 
L 156.618814 210.337441 
L 166.08836 188.987582 
L 171.574115 175.522041 
L 176.939612 161.764831 
L 189.892164 127.420794 
L 196.257744 110.771891 
L 201.854896 96.762849 
L 206.229539 86.451381 
L 210.183565 77.758308 
L 213.215343 71.57007 
L 214.477041 69.13006 
L 217.676496 63.329067 
L 221.055544 57.850282 
L 224.182443 53.421245 
L 226.265627 50.832875 
L 229.17403 47.726382 
L 231.420111 45.745671 
L 233.454557 44.275051 
L 234.183339 43.824231 
L 236.4285 42.690575 
L 238.316381 42.038422 
L 240.169492 41.668116 
L 241.736608 41.564515 
L 243.357011 41.659621 
L 245.201671 42.017826 
L 247.185551 42.69874 
L 248.887099 43.525001 
L 250.867417 44.76513 
L 253.004139 46.434101 
L 255.217414 48.51751 
L 258.588984 52.363023 
L 260.441417 54.808464 
L 263.456146 59.26827 
L 265.617245 62.813473 
L 270.674363 72.152655 
L 274.252858 79.553155 
L 278.455492 88.959173 
L 283.011715 99.876113 
L 289.381335 116.057397 
L 296.88276 135.881343 
L 307.123622 162.984844 
L 311.989439 175.443988 
L 321.992128 199.430141 
L 324.559802 205.145798 
L 328.880889 214.298979 
L 339.483068 234.100017 
L 347.508232 246.494251 
L 351.813024 252.238603 
L 355.640789 256.838421 
L 360.387697 261.910978 
L 362.175985 263.649167 
L 373.203374 272.477493 
L 376.163862 274.349384 
L 391.031023 281.216621 
L 391.031023 281.216621 
" style="fill:none;stroke:#1f77b4;stroke-linecap:square;stroke-width:1.5;"/>
    <defs>
     <path d="M 0 3 
C 0.795609 3 1.55874 2.683901 2.12132 2.12132 
C 2.683901 1.55874 3 0.795609 3 0 
C 3 -0.795609 2.683901 -1.55874 2.12132 -2.12132 
C 1.55874 -2.683901 0.795609 -3 0 -3 
C -0.795609 -3 -1.55874 -2.683901 -2.12132 -2.12132 
C -2.683901 -1.55874 -3 -0.795609 -3 0 
C -3 0.795609 -2.683901 1.55874 -2.12132 2.12132 
C -1.55874 2.683901 -0.795609 3 0 3 
z
" id="me9f80a5112" style="stroke:#1f77b4;"/>
    </defs>
    <g clip-path="url(#pfeab882af1)">
     <use style="fill:#1f77b4;stroke:#1f77b4;" x="66.376477" xlink:href="#me9f80a5112" y="286.5576"/>
     <use style="fill:#1f77b4;stroke:#1f77b4;" x="113.614496" xlink:href="#me9f80a5112" y="270.21308"/>
     <use style="fill:#1f77b4;stroke:#1f77b4;" x="122.247488" xlink:href="#me9f80a5112" y="262.854906"/>
     <use style="fill:#1f77b4;stroke:#1f77b4;" x="123.106171" xlink:href="#me9f80a5112" y="262.011317"/>
     <use style="fill:#1f77b4;stroke:#1f77b4;" x="124.278263" xlink:href="#me9f80a5112" y="260.825162"/>
     <use style="fill:#1f77b4;stroke:#1f77b4;" x="133.026848" xlink:href="#me9f80a5112" y="250.6401"/>
     <use style="fill:#1f77b4;stroke:#1f77b4;" x="134.160169" xlink:href="#me9f80a5112" y="249.140849"/>
     <use style="fill:#1f77b4;stroke:#1f77b4;" x="139.865071" xlink:href="#me9f80a5112" y="240.935812"/>
     <use style="fill:#1f77b4;stroke:#1f77b4;" x="141.777347" xlink:href="#me9f80a5112" y="237.935215"/>
     <use style="fill:#1f77b4;stroke:#1f77b4;" x="149.020609" xlink:href="#me9f80a5112" y="225.41334"/>
     <use style="fill:#1f77b4;stroke:#1f77b4;" x="150.718873" xlink:href="#me9f80a5112" y="222.213465"/>
     <use style="fill:#1f77b4;stroke:#1f77b4;" x="152.654447" xlink:href="#me9f80a5112" y="218.445986"/>
     <use style="fill:#1f77b4;stroke:#1f77b4;" x="156.618814" xlink:href="#me9f80a5112" y="210.337441"/>
     <use style="fill:#1f77b4;stroke:#1f77b4;" x="165.778864" xlink:href="#me9f80a5112" y="189.725605"/>
     <use style="fill:#1f77b4;stroke:#1f77b4;" x="166.08836" xlink:href="#me9f80a5112" y="188.987582"/>
     <use style="fill:#1f77b4;stroke:#1f77b4;" x="170.059766" xlink:href="#me9f80a5112" y="179.307608"/>
     <use style="fill:#1f77b4;stroke:#1f77b4;" x="171.574115" xlink:href="#me9f80a5112" y="175.522041"/>
     <use style="fill:#1f77b4;stroke:#1f77b4;" x="174.635199" xlink:href="#me9f80a5112" y="167.732647"/>
     <use style="fill:#1f77b4;stroke:#1f77b4;" x="175.396235" xlink:href="#me9f80a5112" y="165.770677"/>
     <use style="fill:#1f77b4;stroke:#1f77b4;" x="176.34114" xlink:href="#me9f80a5112" y="163.322246"/>
     <use style="fill:#1f77b4;stroke:#1f77b4;" x="176.939612" xlink:href="#me9f80a5112" y="161.764831"/>
     <use style="fill:#1f77b4;stroke:#1f77b4;" x="180.693402" xlink:href="#me9f80a5112" y="151.898602"/>
     <use style="fill:#1f77b4;stroke:#1f77b4;" x="180.998335" xlink:href="#me9f80a5112" y="151.091128"/>
     <use style="fill:#1f77b4;stroke:#1f77b4;" x="185.072047" xlink:href="#me9f80a5112" y="140.25426"/>
     <use style="fill:#1f77b4;stroke:#1f77b4;" x="185.127685" xlink:href="#me9f80a5112" y="140.105888"/>
     <use style="fill:#1f77b4;stroke:#1f77b4;" x="185.21553" xlink:href="#me9f80a5112" y="139.87162"/>
     <use style="fill:#1f77b4;stroke:#1f77b4;" x="186.652974" xlink:href="#me9f80a5112" y="136.038231"/>
     <use style="fill:#1f77b4;stroke:#1f77b4;" x="187.240434" xlink:href="#me9f80a5112" y="134.47231"/>
     <use style="fill:#1f77b4;stroke:#1f77b4;" x="187.90543" xlink:href="#me9f80a5112" y="132.700865"/>
     <use style="fill:#1f77b4;stroke:#1f77b4;" x="189.214964" xlink:href="#me9f80a5112" y="129.217979"/>
     <use style="fill:#1f77b4;stroke:#1f77b4;" x="189.353389" xlink:href="#me9f80a5112" y="128.850371"/>
     <use style="fill:#1f77b4;stroke:#1f77b4;" x="189.386629" xlink:href="#me9f80a5112" y="128.762114"/>
     <use style="fill:#1f77b4;stroke:#1f77b4;" x="189.892164" xlink:href="#me9f80a5112" y="127.420794"/>
     <use style="fill:#1f77b4;stroke:#1f77b4;" x="190.758497" xlink:href="#me9f80a5112" y="125.126714"/>
     <use style="fill:#1f77b4;stroke:#1f77b4;" x="191.16141" xlink:href="#me9f80a5112" y="124.062013"/>
     <use style="fill:#1f77b4;stroke:#1f77b4;" x="192.560013" xlink:href="#me9f80a5112" y="120.379218"/>
     <use style="fill:#1f77b4;stroke:#1f77b4;" x="192.896154" xlink:href="#me9f80a5112" y="119.497493"/>
     <use style="fill:#1f77b4;stroke:#1f77b4;" x="193.407511" xlink:href="#me9f80a5112" y="118.158985"/>
     <use style="fill:#1f77b4;stroke:#1f77b4;" x="195.01889" xlink:href="#me9f80a5112" y="113.966032"/>
     <use style="fill:#1f77b4;stroke:#1f77b4;" x="196.197545" xlink:href="#me9f80a5112" y="110.926447"/>
     <use style="fill:#1f77b4;stroke:#1f77b4;" x="196.257744" xlink:href="#me9f80a5112" y="110.771891"/>
     <use style="fill:#1f77b4;stroke:#1f77b4;" x="198.295212" xlink:href="#me9f80a5112" y="105.584733"/>
     <use style="fill:#1f77b4;stroke:#1f77b4;" x="198.502065" xlink:href="#me9f80a5112" y="105.063218"/>
     <use style="fill:#1f77b4;stroke:#1f77b4;" x="199.34496" xlink:href="#me9f80a5112" y="102.948734"/>
     <use style="fill:#1f77b4;stroke:#1f77b4;" x="200.931894" xlink:href="#me9f80a5112" y="99.017261"/>
     <use style="fill:#1f77b4;stroke:#1f77b4;" x="201.599909" xlink:href="#me9f80a5112" y="97.383157"/>
     <use style="fill:#1f77b4;stroke:#1f77b4;" x="201.854896" xlink:href="#me9f80a5112" y="96.762849"/>
     <use style="fill:#1f77b4;stroke:#1f77b4;" x="203.508121" xlink:href="#me9f80a5112" y="92.789829"/>
     <use style="fill:#1f77b4;stroke:#1f77b4;" x="206.229539" xlink:href="#me9f80a5112" y="86.451381"/>
     <use style="fill:#1f77b4;stroke:#1f77b4;" x="207.141582" xlink:href="#me9f80a5112" y="84.388817"/>
     <use style="fill:#1f77b4;stroke:#1f77b4;" x="208.707551" xlink:href="#me9f80a5112" y="80.92594"/>
     <use style="fill:#1f77b4;stroke:#1f77b4;" x="208.744584" xlink:href="#me9f80a5112" y="80.845296"/>
     <use style="fill:#1f77b4;stroke:#1f77b4;" x="210.046979" xlink:href="#me9f80a5112" y="78.047345"/>
     <use style="fill:#1f77b4;stroke:#1f77b4;" x="210.183565" xlink:href="#me9f80a5112" y="77.758308"/>
     <use style="fill:#1f77b4;stroke:#1f77b4;" x="210.510092" xlink:href="#me9f80a5112" y="77.070786"/>
     <use style="fill:#1f77b4;stroke:#1f77b4;" x="210.54755" xlink:href="#me9f80a5112" y="76.992229"/>
     <use style="fill:#1f77b4;stroke:#1f77b4;" x="210.750578" xlink:href="#me9f80a5112" y="76.567577"/>
     <use style="fill:#1f77b4;stroke:#1f77b4;" x="211.966323" xlink:href="#me9f80a5112" y="74.065488"/>
     <use style="fill:#1f77b4;stroke:#1f77b4;" x="213.215343" xlink:href="#me9f80a5112" y="71.57007"/>
     <use style="fill:#1f77b4;stroke:#1f77b4;" x="214.039447" xlink:href="#me9f80a5112" y="69.966923"/>
     <use style="fill:#1f77b4;stroke:#1f77b4;" x="214.390169" xlink:href="#me9f80a5112" y="69.295391"/>
     <use style="fill:#1f77b4;stroke:#1f77b4;" x="214.477041" xlink:href="#me9f80a5112" y="69.13006"/>
     <use style="fill:#1f77b4;stroke:#1f77b4;" x="217.428958" xlink:href="#me9f80a5112" y="63.757266"/>
     <use style="fill:#1f77b4;stroke:#1f77b4;" x="217.676496" xlink:href="#me9f80a5112" y="63.329067"/>
     <use style="fill:#1f77b4;stroke:#1f77b4;" x="220.787007" xlink:href="#me9f80a5112" y="58.260026"/>
     <use style="fill:#1f77b4;stroke:#1f77b4;" x="220.843724" xlink:href="#me9f80a5112" y="58.173107"/>
     <use style="fill:#1f77b4;stroke:#1f77b4;" x="221.00912" xlink:href="#me9f80a5112" y="57.920792"/>
     <use style="fill:#1f77b4;stroke:#1f77b4;" x="221.055544" xlink:href="#me9f80a5112" y="57.850282"/>
     <use style="fill:#1f77b4;stroke:#1f77b4;" x="222.90743" xlink:href="#me9f80a5112" y="55.150032"/>
     <use style="fill:#1f77b4;stroke:#1f77b4;" x="223.055366" xlink:href="#me9f80a5112" y="54.943924"/>
     <use style="fill:#1f77b4;stroke:#1f77b4;" x="223.235092" xlink:href="#me9f80a5112" y="54.695465"/>
     <use style="fill:#1f77b4;stroke:#1f77b4;" x="224.182443" xlink:href="#me9f80a5112" y="53.421245"/>
     <use style="fill:#1f77b4;stroke:#1f77b4;" x="225.099389" xlink:href="#me9f80a5112" y="52.245362"/>
     <use style="fill:#1f77b4;stroke:#1f77b4;" x="225.509591" xlink:href="#me9f80a5112" y="51.737862"/>
     <use style="fill:#1f77b4;stroke:#1f77b4;" x="225.553891" xlink:href="#me9f80a5112" y="51.683746"/>
     <use style="fill:#1f77b4;stroke:#1f77b4;" x="225.906224" xlink:href="#me9f80a5112" y="51.258153"/>
     <use style="fill:#1f77b4;stroke:#1f77b4;" x="226.265627" xlink:href="#me9f80a5112" y="50.832875"/>
     <use style="fill:#1f77b4;stroke:#1f77b4;" x="227.887929" xlink:href="#me9f80a5112" y="49.025832"/>
     <use style="fill:#1f77b4;stroke:#1f77b4;" x="229.17403" xlink:href="#me9f80a5112" y="47.726382"/>
     <use style="fill:#1f77b4;stroke:#1f77b4;" x="230.192041" xlink:href="#me9f80a5112" y="46.782739"/>
     <use style="fill:#1f77b4;stroke:#1f77b4;" x="231.420111" xlink:href="#me9f80a5112" y="45.745671"/>
     <use style="fill:#1f77b4;stroke:#1f77b4;" x="232.61303" xlink:href="#me9f80a5112" y="44.845647"/>
     <use style="fill:#1f77b4;stroke:#1f77b4;" x="233.283795" xlink:href="#me9f80a5112" y="44.386509"/>
     <use style="fill:#1f77b4;stroke:#1f77b4;" x="233.387693" xlink:href="#me9f80a5112" y="44.318431"/>
     <use style="fill:#1f77b4;stroke:#1f77b4;" x="233.454557" xlink:href="#me9f80a5112" y="44.275051"/>
     <use style="fill:#1f77b4;stroke:#1f77b4;" x="234.088694" xlink:href="#me9f80a5112" y="43.880496"/>
     <use style="fill:#1f77b4;stroke:#1f77b4;" x="234.183339" xlink:href="#me9f80a5112" y="43.824231"/>
     <use style="fill:#1f77b4;stroke:#1f77b4;" x="235.683516" xlink:href="#me9f80a5112" y="43.023819"/>
     <use style="fill:#1f77b4;stroke:#1f77b4;" x="235.960155" xlink:href="#me9f80a5112" y="42.89508"/>
     <use style="fill:#1f77b4;stroke:#1f77b4;" x="236.4285" xlink:href="#me9f80a5112" y="42.690575"/>
     <use style="fill:#1f77b4;stroke:#1f77b4;" x="237.489344" xlink:href="#me9f80a5112" y="42.290073"/>
     <use style="fill:#1f77b4;stroke:#1f77b4;" x="237.547604" xlink:href="#me9f80a5112" y="42.270605"/>
     <use style="fill:#1f77b4;stroke:#1f77b4;" x="238.316381" xlink:href="#me9f80a5112" y="42.038422"/>
     <use style="fill:#1f77b4;stroke:#1f77b4;" x="239.433005" xlink:href="#me9f80a5112" y="41.783179"/>
     <use style="fill:#1f77b4;stroke:#1f77b4;" x="240.169492" xlink:href="#me9f80a5112" y="41.668116"/>
     <use style="fill:#1f77b4;stroke:#1f77b4;" x="241.162889" xlink:href="#me9f80a5112" y="41.580131"/>
     <use style="fill:#1f77b4;stroke:#1f77b4;" x="241.736608" xlink:href="#me9f80a5112" y="41.564515"/>
     <use style="fill:#1f77b4;stroke:#1f77b4;" x="242.635619" xlink:href="#me9f80a5112" y="41.591892"/>
     <use style="fill:#1f77b4;stroke:#1f77b4;" x="243.357011" xlink:href="#me9f80a5112" y="41.659621"/>
     <use style="fill:#1f77b4;stroke:#1f77b4;" x="244.077672" xlink:href="#me9f80a5112" y="41.767931"/>
     <use style="fill:#1f77b4;stroke:#1f77b4;" x="245.201671" xlink:href="#me9f80a5112" y="42.017826"/>
     <use style="fill:#1f77b4;stroke:#1f77b4;" x="245.783612" xlink:href="#me9f80a5112" y="42.18589"/>
     <use style="fill:#1f77b4;stroke:#1f77b4;" x="247.185551" xlink:href="#me9f80a5112" y="42.69874"/>
     <use style="fill:#1f77b4;stroke:#1f77b4;" x="247.989491" xlink:href="#me9f80a5112" y="43.061388"/>
     <use style="fill:#1f77b4;stroke:#1f77b4;" x="248.216927" xlink:href="#me9f80a5112" y="43.173012"/>
     <use style="fill:#1f77b4;stroke:#1f77b4;" x="248.2197" xlink:href="#me9f80a5112" y="43.174397"/>
     <use style="fill:#1f77b4;stroke:#1f77b4;" x="248.887099" xlink:href="#me9f80a5112" y="43.525001"/>
     <use style="fill:#1f77b4;stroke:#1f77b4;" x="249.564728" xlink:href="#me9f80a5112" y="43.915822"/>
     <use style="fill:#1f77b4;stroke:#1f77b4;" x="250.630852" xlink:href="#me9f80a5112" y="44.601362"/>
     <use style="fill:#1f77b4;stroke:#1f77b4;" x="250.671359" xlink:href="#me9f80a5112" y="44.629105"/>
     <use style="fill:#1f77b4;stroke:#1f77b4;" x="250.867417" xlink:href="#me9f80a5112" y="44.76513"/>
     <use style="fill:#1f77b4;stroke:#1f77b4;" x="251.762575" xlink:href="#me9f80a5112" y="45.422885"/>
     <use style="fill:#1f77b4;stroke:#1f77b4;" x="252.731656" xlink:href="#me9f80a5112" y="46.202387"/>
     <use style="fill:#1f77b4;stroke:#1f77b4;" x="253.004139" xlink:href="#me9f80a5112" y="46.434101"/>
     <use style="fill:#1f77b4;stroke:#1f77b4;" x="253.81352" xlink:href="#me9f80a5112" y="47.154594"/>
     <use style="fill:#1f77b4;stroke:#1f77b4;" x="254.058456" xlink:href="#me9f80a5112" y="47.382082"/>
     <use style="fill:#1f77b4;stroke:#1f77b4;" x="255.217414" xlink:href="#me9f80a5112" y="48.51751"/>
     <use style="fill:#1f77b4;stroke:#1f77b4;" x="257.926787" xlink:href="#me9f80a5112" y="51.545225"/>
     <use style="fill:#1f77b4;stroke:#1f77b4;" x="258.588984" xlink:href="#me9f80a5112" y="52.363023"/>
     <use style="fill:#1f77b4;stroke:#1f77b4;" x="259.515163" xlink:href="#me9f80a5112" y="53.556915"/>
     <use style="fill:#1f77b4;stroke:#1f77b4;" x="259.790513" xlink:href="#me9f80a5112" y="53.922998"/>
     <use style="fill:#1f77b4;stroke:#1f77b4;" x="259.895087" xlink:href="#me9f80a5112" y="54.063358"/>
     <use style="fill:#1f77b4;stroke:#1f77b4;" x="260.441417" xlink:href="#me9f80a5112" y="54.808464"/>
     <use style="fill:#1f77b4;stroke:#1f77b4;" x="262.731308" xlink:href="#me9f80a5112" y="58.143198"/>
     <use style="fill:#1f77b4;stroke:#1f77b4;" x="263.287998" xlink:href="#me9f80a5112" y="59.004359"/>
     <use style="fill:#1f77b4;stroke:#1f77b4;" x="263.340008" xlink:href="#me9f80a5112" y="59.085804"/>
     <use style="fill:#1f77b4;stroke:#1f77b4;" x="263.456146" xlink:href="#me9f80a5112" y="59.26827"/>
     <use style="fill:#1f77b4;stroke:#1f77b4;" x="264.527781" xlink:href="#me9f80a5112" y="60.991038"/>
     <use style="fill:#1f77b4;stroke:#1f77b4;" x="264.707004" xlink:href="#me9f80a5112" y="61.285968"/>
     <use style="fill:#1f77b4;stroke:#1f77b4;" x="265.02241" xlink:href="#me9f80a5112" y="61.809683"/>
     <use style="fill:#1f77b4;stroke:#1f77b4;" x="265.285977" xlink:href="#me9f80a5112" y="62.251873"/>
     <use style="fill:#1f77b4;stroke:#1f77b4;" x="265.465763" xlink:href="#me9f80a5112" y="62.555862"/>
     <use style="fill:#1f77b4;stroke:#1f77b4;" x="265.617245" xlink:href="#me9f80a5112" y="62.813473"/>
     <use style="fill:#1f77b4;stroke:#1f77b4;" x="269.405116" xlink:href="#me9f80a5112" y="69.678894"/>
     <use style="fill:#1f77b4;stroke:#1f77b4;" x="270.674363" xlink:href="#me9f80a5112" y="72.152655"/>
     <use style="fill:#1f77b4;stroke:#1f77b4;" x="271.983473" xlink:href="#me9f80a5112" y="74.789232"/>
     <use style="fill:#1f77b4;stroke:#1f77b4;" x="272.364655" xlink:href="#me9f80a5112" y="75.572637"/>
     <use style="fill:#1f77b4;stroke:#1f77b4;" x="272.569125" xlink:href="#me9f80a5112" y="75.995714"/>
     <use style="fill:#1f77b4;stroke:#1f77b4;" x="272.856742" xlink:href="#me9f80a5112" y="76.59417"/>
     <use style="fill:#1f77b4;stroke:#1f77b4;" x="273.156423" xlink:href="#me9f80a5112" y="77.22183"/>
     <use style="fill:#1f77b4;stroke:#1f77b4;" x="274.252858" xlink:href="#me9f80a5112" y="79.553155"/>
     <use style="fill:#1f77b4;stroke:#1f77b4;" x="276.241973" xlink:href="#me9f80a5112" y="83.916288"/>
     <use style="fill:#1f77b4;stroke:#1f77b4;" x="277.18419" xlink:href="#me9f80a5112" y="86.039813"/>
     <use style="fill:#1f77b4;stroke:#1f77b4;" x="277.616294" xlink:href="#me9f80a5112" y="87.025252"/>
     <use style="fill:#1f77b4;stroke:#1f77b4;" x="278.455492" xlink:href="#me9f80a5112" y="88.959173"/>
     <use style="fill:#1f77b4;stroke:#1f77b4;" x="279.875493" xlink:href="#me9f80a5112" y="92.289187"/>
     <use style="fill:#1f77b4;stroke:#1f77b4;" x="279.930671" xlink:href="#me9f80a5112" y="92.419987"/>
     <use style="fill:#1f77b4;stroke:#1f77b4;" x="280.371497" xlink:href="#me9f80a5112" y="93.4686"/>
     <use style="fill:#1f77b4;stroke:#1f77b4;" x="280.576809" xlink:href="#me9f80a5112" y="93.959163"/>
     <use style="fill:#1f77b4;stroke:#1f77b4;" x="281.076774" xlink:href="#me9f80a5112" y="95.159407"/>
     <use style="fill:#1f77b4;stroke:#1f77b4;" x="283.011715" xlink:href="#me9f80a5112" y="99.876113"/>
     <use style="fill:#1f77b4;stroke:#1f77b4;" x="285.529391" xlink:href="#me9f80a5112" y="106.16583"/>
     <use style="fill:#1f77b4;stroke:#1f77b4;" x="285.817806" xlink:href="#me9f80a5112" y="106.896134"/>
     <use style="fill:#1f77b4;stroke:#1f77b4;" x="285.864261" xlink:href="#me9f80a5112" y="107.01394"/>
     <use style="fill:#1f77b4;stroke:#1f77b4;" x="285.883572" xlink:href="#me9f80a5112" y="107.062924"/>
     <use style="fill:#1f77b4;stroke:#1f77b4;" x="286.317899" xlink:href="#me9f80a5112" y="108.166784"/>
     <use style="fill:#1f77b4;stroke:#1f77b4;" x="287.036049" xlink:href="#me9f80a5112" y="110.000701"/>
     <use style="fill:#1f77b4;stroke:#1f77b4;" x="289.381335" xlink:href="#me9f80a5112" y="116.057397"/>
     <use style="fill:#1f77b4;stroke:#1f77b4;" x="290.917003" xlink:href="#me9f80a5112" y="120.07068"/>
     <use style="fill:#1f77b4;stroke:#1f77b4;" x="296.88276" xlink:href="#me9f80a5112" y="135.881343"/>
     <use style="fill:#1f77b4;stroke:#1f77b4;" x="300.827162" xlink:href="#me9f80a5112" y="146.394114"/>
     <use style="fill:#1f77b4;stroke:#1f77b4;" x="301.384214" xlink:href="#me9f80a5112" y="147.875139"/>
     <use style="fill:#1f77b4;stroke:#1f77b4;" x="301.950131" xlink:href="#me9f80a5112" y="149.377937"/>
     <use style="fill:#1f77b4;stroke:#1f77b4;" x="303.543324" xlink:href="#me9f80a5112" y="153.596547"/>
     <use style="fill:#1f77b4;stroke:#1f77b4;" x="304.161882" xlink:href="#me9f80a5112" y="155.228628"/>
     <use style="fill:#1f77b4;stroke:#1f77b4;" x="305.559198" xlink:href="#me9f80a5112" y="158.901024"/>
     <use style="fill:#1f77b4;stroke:#1f77b4;" x="307.123622" xlink:href="#me9f80a5112" y="162.984844"/>
     <use style="fill:#1f77b4;stroke:#1f77b4;" x="309.102322" xlink:href="#me9f80a5112" y="168.100107"/>
     <use style="fill:#1f77b4;stroke:#1f77b4;" x="309.744827" xlink:href="#me9f80a5112" y="169.747518"/>
     <use style="fill:#1f77b4;stroke:#1f77b4;" x="309.89074" xlink:href="#me9f80a5112" y="170.120651"/>
     <use style="fill:#1f77b4;stroke:#1f77b4;" x="311.627196" xlink:href="#me9f80a5112" y="174.531206"/>
     <use style="fill:#1f77b4;stroke:#1f77b4;" x="311.989439" xlink:href="#me9f80a5112" y="175.443988"/>
     <use style="fill:#1f77b4;stroke:#1f77b4;" x="321.830518" xlink:href="#me9f80a5112" y="199.063799"/>
     <use style="fill:#1f77b4;stroke:#1f77b4;" x="321.992128" xlink:href="#me9f80a5112" y="199.430141"/>
     <use style="fill:#1f77b4;stroke:#1f77b4;" x="324.1689" xlink:href="#me9f80a5112" y="204.288584"/>
     <use style="fill:#1f77b4;stroke:#1f77b4;" x="324.559802" xlink:href="#me9f80a5112" y="205.145798"/>
     <use style="fill:#1f77b4;stroke:#1f77b4;" x="328.021449" xlink:href="#me9f80a5112" y="212.526539"/>
     <use style="fill:#1f77b4;stroke:#1f77b4;" x="328.544479" xlink:href="#me9f80a5112" y="213.608089"/>
     <use style="fill:#1f77b4;stroke:#1f77b4;" x="328.880889" xlink:href="#me9f80a5112" y="214.298979"/>
     <use style="fill:#1f77b4;stroke:#1f77b4;" x="339.483068" xlink:href="#me9f80a5112" y="234.100017"/>
     <use style="fill:#1f77b4;stroke:#1f77b4;" x="347.508232" xlink:href="#me9f80a5112" y="246.494251"/>
     <use style="fill:#1f77b4;stroke:#1f77b4;" x="351.682675" xlink:href="#me9f80a5112" y="252.073663"/>
     <use style="fill:#1f77b4;stroke:#1f77b4;" x="351.813024" xlink:href="#me9f80a5112" y="252.238603"/>
     <use style="fill:#1f77b4;stroke:#1f77b4;" x="355.640789" xlink:href="#me9f80a5112" y="256.838421"/>
     <use style="fill:#1f77b4;stroke:#1f77b4;" x="360.378113" xlink:href="#me9f80a5112" y="261.901413"/>
     <use style="fill:#1f77b4;stroke:#1f77b4;" x="360.387697" xlink:href="#me9f80a5112" y="261.910978"/>
     <use style="fill:#1f77b4;stroke:#1f77b4;" x="362.175985" xlink:href="#me9f80a5112" y="263.649167"/>
     <use style="fill:#1f77b4;stroke:#1f77b4;" x="373.203374" xlink:href="#me9f80a5112" y="272.477493"/>
     <use style="fill:#1f77b4;stroke:#1f77b4;" x="376.163862" xlink:href="#me9f80a5112" y="274.349384"/>
     <use style="fill:#1f77b4;stroke:#1f77b4;" x="391.031023" xlink:href="#me9f80a5112" y="281.216621"/>
    </g>
   </g>
   <g id="patch_13">
    <path d="M 50.14375 288.430125 
L 50.14375 22.318125 
" style="fill:none;stroke:#000000;stroke-linecap:square;stroke-linejoin:miter;stroke-width:0.8;"/>
   </g>
   <g id="patch_14">
    <path d="M 407.26375 288.430125 
L 407.26375 22.318125 
" style="fill:none;stroke:#000000;stroke-linecap:square;stroke-linejoin:miter;stroke-width:0.8;"/>
   </g>
   <g id="patch_15">
    <path d="M 50.14375 288.430125 
L 407.26375 288.430125 
" style="fill:none;stroke:#000000;stroke-linecap:square;stroke-linejoin:miter;stroke-width:0.8;"/>
   </g>
   <g id="patch_16">
    <path d="M 50.14375 22.318125 
L 407.26375 22.318125 
" style="fill:none;stroke:#000000;stroke-linecap:square;stroke-linejoin:miter;stroke-width:0.8;"/>
   </g>
   <g id="text_18">
    <!-- Distribution Between Pairs -->
    <defs>
     <path d="M 48.6875 27.296875 
Q 48.6875 37.203125 44.609375 42.84375 
Q 40.53125 48.484375 33.40625 48.484375 
Q 26.265625 48.484375 22.1875 42.84375 
Q 18.109375 37.203125 18.109375 27.296875 
Q 18.109375 17.390625 22.1875 11.75 
Q 26.265625 6.109375 33.40625 6.109375 
Q 40.53125 6.109375 44.609375 11.75 
Q 48.6875 17.390625 48.6875 27.296875 
z
M 18.109375 46.390625 
Q 20.953125 51.265625 25.265625 53.625 
Q 29.59375 56 35.59375 56 
Q 45.5625 56 51.78125 48.09375 
Q 58.015625 40.1875 58.015625 27.296875 
Q 58.015625 14.40625 51.78125 6.484375 
Q 45.5625 -1.421875 35.59375 -1.421875 
Q 29.59375 -1.421875 25.265625 0.953125 
Q 20.953125 3.328125 18.109375 8.203125 
L 18.109375 0 
L 9.078125 0 
L 9.078125 75.984375 
L 18.109375 75.984375 
z
" id="DejaVuSans-62"/>
     <path d="M 30.609375 48.390625 
Q 23.390625 48.390625 19.1875 42.75 
Q 14.984375 37.109375 14.984375 27.296875 
Q 14.984375 17.484375 19.15625 11.84375 
Q 23.34375 6.203125 30.609375 6.203125 
Q 37.796875 6.203125 41.984375 11.859375 
Q 46.1875 17.53125 46.1875 27.296875 
Q 46.1875 37.015625 41.984375 42.703125 
Q 37.796875 48.390625 30.609375 48.390625 
z
M 30.609375 56 
Q 42.328125 56 49.015625 48.375 
Q 55.71875 40.765625 55.71875 27.296875 
Q 55.71875 13.875 49.015625 6.21875 
Q 42.328125 -1.421875 30.609375 -1.421875 
Q 18.84375 -1.421875 12.171875 6.21875 
Q 5.515625 13.875 5.515625 27.296875 
Q 5.515625 40.765625 12.171875 48.375 
Q 18.84375 56 30.609375 56 
z
" id="DejaVuSans-6f"/>
     <path id="DejaVuSans-20"/>
     <path d="M 19.671875 34.8125 
L 19.671875 8.109375 
L 35.5 8.109375 
Q 43.453125 8.109375 47.28125 11.40625 
Q 51.125 14.703125 51.125 21.484375 
Q 51.125 28.328125 47.28125 31.5625 
Q 43.453125 34.8125 35.5 34.8125 
z
M 19.671875 64.796875 
L 19.671875 42.828125 
L 34.28125 42.828125 
Q 41.5 42.828125 45.03125 45.53125 
Q 48.578125 48.25 48.578125 53.8125 
Q 48.578125 59.328125 45.03125 62.0625 
Q 41.5 64.796875 34.28125 64.796875 
z
M 9.8125 72.90625 
L 35.015625 72.90625 
Q 46.296875 72.90625 52.390625 68.21875 
Q 58.5 63.53125 58.5 54.890625 
Q 58.5 48.1875 55.375 44.234375 
Q 52.25 40.28125 46.1875 39.3125 
Q 53.46875 37.75 57.5 32.78125 
Q 61.53125 27.828125 61.53125 20.40625 
Q 61.53125 10.640625 54.890625 5.3125 
Q 48.25 0 35.984375 0 
L 9.8125 0 
z
" id="DejaVuSans-42"/>
     <path d="M 4.203125 54.6875 
L 13.1875 54.6875 
L 24.421875 12.015625 
L 35.59375 54.6875 
L 46.1875 54.6875 
L 57.421875 12.015625 
L 68.609375 54.6875 
L 77.59375 54.6875 
L 63.28125 0 
L 52.6875 0 
L 40.921875 44.828125 
L 29.109375 0 
L 18.5 0 
z
" id="DejaVuSans-77"/>
     <path d="M 19.671875 64.796875 
L 19.671875 37.40625 
L 32.078125 37.40625 
Q 38.96875 37.40625 42.71875 40.96875 
Q 46.484375 44.53125 46.484375 51.125 
Q 46.484375 57.671875 42.71875 61.234375 
Q 38.96875 64.796875 32.078125 64.796875 
z
M 9.8125 72.90625 
L 32.078125 72.90625 
Q 44.34375 72.90625 50.609375 67.359375 
Q 56.890625 61.8125 56.890625 51.125 
Q 56.890625 40.328125 50.609375 34.8125 
Q 44.34375 29.296875 32.078125 29.296875 
L 19.671875 29.296875 
L 19.671875 0 
L 9.8125 0 
z
" id="DejaVuSans-50"/>
    </defs>
    <g transform="translate(149.08375 16.318125)scale(0.12 -0.12)">
     <use xlink:href="#DejaVuSans-44"/>
     <use x="77.001953" xlink:href="#DejaVuSans-69"/>
     <use x="104.785156" xlink:href="#DejaVuSans-73"/>
     <use x="156.884766" xlink:href="#DejaVuSans-74"/>
     <use x="196.09375" xlink:href="#DejaVuSans-72"/>
     <use x="237.207031" xlink:href="#DejaVuSans-69"/>
     <use x="264.990234" xlink:href="#DejaVuSans-62"/>
     <use x="328.466797" xlink:href="#DejaVuSans-75"/>
     <use x="391.845703" xlink:href="#DejaVuSans-74"/>
     <use x="431.054688" xlink:href="#DejaVuSans-69"/>
     <use x="458.837891" xlink:href="#DejaVuSans-6f"/>
     <use x="520.019531" xlink:href="#DejaVuSans-6e"/>
     <use x="583.398438" xlink:href="#DejaVuSans-20"/>
     <use x="615.185547" xlink:href="#DejaVuSans-42"/>
     <use x="683.789062" xlink:href="#DejaVuSans-65"/>
     <use x="745.3125" xlink:href="#DejaVuSans-74"/>
     <use x="784.521484" xlink:href="#DejaVuSans-77"/>
     <use x="866.308594" xlink:href="#DejaVuSans-65"/>
     <use x="927.832031" xlink:href="#DejaVuSans-65"/>
     <use x="989.355469" xlink:href="#DejaVuSans-6e"/>
     <use x="1052.734375" xlink:href="#DejaVuSans-20"/>
     <use x="1084.521484" xlink:href="#DejaVuSans-50"/>
     <use x="1144.761719" xlink:href="#DejaVuSans-61"/>
     <use x="1206.041016" xlink:href="#DejaVuSans-69"/>
     <use x="1233.824219" xlink:href="#DejaVuSans-72"/>
     <use x="1274.9375" xlink:href="#DejaVuSans-73"/>
    </g>
   </g>
  </g>
  <g id="text_19">
   <g id="patch_17">
    <path d="M 159.446875 369.50175 
L 286.440625 369.50175 
Q 292.440625 369.50175 292.440625 363.50175 
L 292.440625 338.450625 
Q 292.440625 332.450625 286.440625 332.450625 
L 159.446875 332.450625 
Q 153.446875 332.450625 153.446875 338.450625 
L 153.446875 363.50175 
Q 153.446875 369.50175 159.446875 369.50175 
z
" style="fill:#ffffff;stroke:#808080;stroke-linejoin:miter;"/>
   </g>
   <!-- Dimension: 1000 -->
   <defs>
    <path d="M 52 44.1875 
Q 55.375 50.25 60.0625 53.125 
Q 64.75 56 71.09375 56 
Q 79.640625 56 84.28125 50.015625 
Q 88.921875 44.046875 88.921875 33.015625 
L 88.921875 0 
L 79.890625 0 
L 79.890625 32.71875 
Q 79.890625 40.578125 77.09375 44.375 
Q 74.3125 48.1875 68.609375 48.1875 
Q 61.625 48.1875 57.5625 43.546875 
Q 53.515625 38.921875 53.515625 30.90625 
L 53.515625 0 
L 44.484375 0 
L 44.484375 32.71875 
Q 44.484375 40.625 41.703125 44.40625 
Q 38.921875 48.1875 33.109375 48.1875 
Q 26.21875 48.1875 22.15625 43.53125 
Q 18.109375 38.875 18.109375 30.90625 
L 18.109375 0 
L 9.078125 0 
L 9.078125 54.6875 
L 18.109375 54.6875 
L 18.109375 46.1875 
Q 21.1875 51.21875 25.484375 53.609375 
Q 29.78125 56 35.6875 56 
Q 41.65625 56 45.828125 52.96875 
Q 50 49.953125 52 44.1875 
z
" id="DejaVuSans-6d"/>
    <path d="M 11.71875 12.40625 
L 22.015625 12.40625 
L 22.015625 0 
L 11.71875 0 
z
M 11.71875 51.703125 
L 22.015625 51.703125 
L 22.015625 39.3125 
L 11.71875 39.3125 
z
" id="DejaVuSans-3a"/>
   </defs>
   <g transform="translate(159.446875 347.56875)scale(0.12 -0.12)">
    <use xlink:href="#DejaVuSans-44"/>
    <use x="77.001953" xlink:href="#DejaVuSans-69"/>
    <use x="104.785156" xlink:href="#DejaVuSans-6d"/>
    <use x="202.197266" xlink:href="#DejaVuSans-65"/>
    <use x="263.720703" xlink:href="#DejaVuSans-6e"/>
    <use x="327.099609" xlink:href="#DejaVuSans-73"/>
    <use x="379.199219" xlink:href="#DejaVuSans-69"/>
    <use x="406.982422" xlink:href="#DejaVuSans-6f"/>
    <use x="468.164062" xlink:href="#DejaVuSans-6e"/>
    <use x="531.542969" xlink:href="#DejaVuSans-3a"/>
    <use x="565.234375" xlink:href="#DejaVuSans-20"/>
    <use x="597.021484" xlink:href="#DejaVuSans-31"/>
    <use x="660.644531" xlink:href="#DejaVuSans-30"/>
    <use x="724.267578" xlink:href="#DejaVuSans-30"/>
    <use x="787.890625" xlink:href="#DejaVuSans-30"/>
   </g>
   <!-- Number of Points: 20 -->
   <defs>
    <path d="M 9.8125 72.90625 
L 23.09375 72.90625 
L 55.421875 11.921875 
L 55.421875 72.90625 
L 64.984375 72.90625 
L 64.984375 0 
L 51.703125 0 
L 19.390625 60.984375 
L 19.390625 0 
L 9.8125 0 
z
" id="DejaVuSans-4e"/>
    <path d="M 37.109375 75.984375 
L 37.109375 68.5 
L 28.515625 68.5 
Q 23.6875 68.5 21.796875 66.546875 
Q 19.921875 64.59375 19.921875 59.515625 
L 19.921875 54.6875 
L 34.71875 54.6875 
L 34.71875 47.703125 
L 19.921875 47.703125 
L 19.921875 0 
L 10.890625 0 
L 10.890625 47.703125 
L 2.296875 47.703125 
L 2.296875 54.6875 
L 10.890625 54.6875 
L 10.890625 58.5 
Q 10.890625 67.625 15.140625 71.796875 
Q 19.390625 75.984375 28.609375 75.984375 
z
" id="DejaVuSans-66"/>
   </defs>
   <g transform="translate(159.446875 361.006125)scale(0.12 -0.12)">
    <use xlink:href="#DejaVuSans-4e"/>
    <use x="74.804688" xlink:href="#DejaVuSans-75"/>
    <use x="138.183594" xlink:href="#DejaVuSans-6d"/>
    <use x="235.595703" xlink:href="#DejaVuSans-62"/>
    <use x="299.072266" xlink:href="#DejaVuSans-65"/>
    <use x="360.595703" xlink:href="#DejaVuSans-72"/>
    <use x="401.708984" xlink:href="#DejaVuSans-20"/>
    <use x="433.496094" xlink:href="#DejaVuSans-6f"/>
    <use x="494.677734" xlink:href="#DejaVuSans-66"/>
    <use x="529.882812" xlink:href="#DejaVuSans-20"/>
    <use x="561.669922" xlink:href="#DejaVuSans-50"/>
    <use x="621.925781" xlink:href="#DejaVuSans-6f"/>
    <use x="683.107422" xlink:href="#DejaVuSans-69"/>
    <use x="710.890625" xlink:href="#DejaVuSans-6e"/>
    <use x="774.269531" xlink:href="#DejaVuSans-74"/>
    <use x="813.478516" xlink:href="#DejaVuSans-73"/>
    <use x="865.578125" xlink:href="#DejaVuSans-3a"/>
    <use x="899.269531" xlink:href="#DejaVuSans-20"/>
    <use x="931.056641" xlink:href="#DejaVuSans-32"/>
    <use x="994.679688" xlink:href="#DejaVuSans-30"/>
   </g>
  </g>
 </g>
 <defs>
  <clipPath id="pfeab882af1">
   <rect height="266.112" width="357.12" x="50.14375" y="22.318125"/>
  </clipPath>
 </defs>
</svg>
