<?xml version="1.0" encoding="utf-8" standalone="no"?>
<!DOCTYPE svg PUBLIC "-//W3C//DTD SVG 1.1//EN"
  "http://www.w3.org/Graphics/SVG/1.1/DTD/svg11.dtd">
<!-- Created with matplotlib (http://matplotlib.org/) -->
<svg height="370pt" version="1.1" viewBox="0 0 411 370" width="411pt" xmlns="http://www.w3.org/2000/svg" xmlns:xlink="http://www.w3.org/1999/xlink">
 <defs>
  <style type="text/css">
*{stroke-linecap:butt;stroke-linejoin:round;}
  </style>
 </defs>
 <g id="figure_1">
  <g id="patch_1">
   <path d="M 0 370.70175 
L 411.60125 370.70175 
L 411.60125 0 
L 0 0 
z
" style="fill:#ffffff;"/>
  </g>
  <g id="axes_1">
   <g id="patch_2">
    <path d="M 43.78125 288.430125 
L 400.90125 288.430125 
L 400.90125 22.318125 
L 43.78125 22.318125 
z
" style="fill:#ffffff;"/>
   </g>
   <g id="patch_3">
    <path clip-path="url(#p988661061b)" d="M 60.013977 288.430125 
L 92.479432 288.430125 
L 92.479432 274.665961 
L 60.013977 274.665961 
z
" style="fill:#ff7f0e;"/>
   </g>
   <g id="patch_4">
    <path clip-path="url(#p988661061b)" d="M 92.479432 288.430125 
L 124.944886 288.430125 
L 124.944886 247.137634 
L 92.479432 247.137634 
z
" style="fill:#ff7f0e;"/>
   </g>
   <g id="patch_5">
    <path clip-path="url(#p988661061b)" d="M 124.944886 288.430125 
L 157.410341 288.430125 
L 157.410341 123.26016 
L 124.944886 123.26016 
z
" style="fill:#ff7f0e;"/>
   </g>
   <g id="patch_6">
    <path clip-path="url(#p988661061b)" d="M 157.410341 288.430125 
L 189.875795 288.430125 
L 189.875795 91.143778 
L 157.410341 91.143778 
z
" style="fill:#ff7f0e;"/>
   </g>
   <g id="patch_7">
    <path clip-path="url(#p988661061b)" d="M 189.875795 288.430125 
L 222.34125 288.430125 
L 222.34125 40.675178 
L 189.875795 40.675178 
z
" style="fill:#ff7f0e;"/>
   </g>
   <g id="patch_8">
    <path clip-path="url(#p988661061b)" d="M 222.34125 288.430125 
L 254.806705 288.430125 
L 254.806705 91.143778 
L 222.34125 91.143778 
z
" style="fill:#ff7f0e;"/>
   </g>
   <g id="patch_9">
    <path clip-path="url(#p988661061b)" d="M 254.806705 288.430125 
L 287.272159 288.430125 
L 287.272159 114.084051 
L 254.806705 114.084051 
z
" style="fill:#ff7f0e;"/>
   </g>
   <g id="patch_10">
    <path clip-path="url(#p988661061b)" d="M 287.272159 288.430125 
L 319.737614 288.430125 
L 319.737614 219.609306 
L 287.272159 219.609306 
z
" style="fill:#ff7f0e;"/>
   </g>
   <g id="patch_11">
    <path clip-path="url(#p988661061b)" d="M 319.737614 288.430125 
L 352.203068 288.430125 
L 352.203068 265.489852 
L 319.737614 265.489852 
z
" style="fill:#ff7f0e;"/>
   </g>
   <g id="patch_12">
    <path clip-path="url(#p988661061b)" d="M 352.203068 288.430125 
L 384.668523 288.430125 
L 384.668523 270.077907 
L 352.203068 270.077907 
z
" style="fill:#ff7f0e;"/>
   </g>
   <g id="matplotlib.axis_1">
    <g id="xtick_1">
     <g id="line2d_1">
      <defs>
       <path d="M 0 0 
L 0 3.5 
" id="md9b1390328" style="stroke:#000000;stroke-width:0.8;"/>
      </defs>
      <g>
       <use style="stroke:#000000;stroke-width:0.8;" x="61.409297" xlink:href="#md9b1390328" y="288.430125"/>
      </g>
     </g>
     <g id="text_1">
      <!-- 30.0 -->
      <defs>
       <path d="M 40.578125 39.3125 
Q 47.65625 37.796875 51.625 33 
Q 55.609375 28.21875 55.609375 21.1875 
Q 55.609375 10.40625 48.1875 4.484375 
Q 40.765625 -1.421875 27.09375 -1.421875 
Q 22.515625 -1.421875 17.65625 -0.515625 
Q 12.796875 0.390625 7.625 2.203125 
L 7.625 11.71875 
Q 11.71875 9.328125 16.59375 8.109375 
Q 21.484375 6.890625 26.8125 6.890625 
Q 36.078125 6.890625 40.9375 10.546875 
Q 45.796875 14.203125 45.796875 21.1875 
Q 45.796875 27.640625 41.28125 31.265625 
Q 36.765625 34.90625 28.71875 34.90625 
L 20.21875 34.90625 
L 20.21875 43.015625 
L 29.109375 43.015625 
Q 36.375 43.015625 40.234375 45.921875 
Q 44.09375 48.828125 44.09375 54.296875 
Q 44.09375 59.90625 40.109375 62.90625 
Q 36.140625 65.921875 28.71875 65.921875 
Q 24.65625 65.921875 20.015625 65.03125 
Q 15.375 64.15625 9.8125 62.3125 
L 9.8125 71.09375 
Q 15.4375 72.65625 20.34375 73.4375 
Q 25.25 74.21875 29.59375 74.21875 
Q 40.828125 74.21875 47.359375 69.109375 
Q 53.90625 64.015625 53.90625 55.328125 
Q 53.90625 49.265625 50.4375 45.09375 
Q 46.96875 40.921875 40.578125 39.3125 
z
" id="DejaVuSans-33"/>
       <path d="M 31.78125 66.40625 
Q 24.171875 66.40625 20.328125 58.90625 
Q 16.5 51.421875 16.5 36.375 
Q 16.5 21.390625 20.328125 13.890625 
Q 24.171875 6.390625 31.78125 6.390625 
Q 39.453125 6.390625 43.28125 13.890625 
Q 47.125 21.390625 47.125 36.375 
Q 47.125 51.421875 43.28125 58.90625 
Q 39.453125 66.40625 31.78125 66.40625 
z
M 31.78125 74.21875 
Q 44.046875 74.21875 50.515625 64.515625 
Q 56.984375 54.828125 56.984375 36.375 
Q 56.984375 17.96875 50.515625 8.265625 
Q 44.046875 -1.421875 31.78125 -1.421875 
Q 19.53125 -1.421875 13.0625 8.265625 
Q 6.59375 17.96875 6.59375 36.375 
Q 6.59375 54.828125 13.0625 64.515625 
Q 19.53125 74.21875 31.78125 74.21875 
z
" id="DejaVuSans-30"/>
       <path d="M 10.6875 12.40625 
L 21 12.40625 
L 21 0 
L 10.6875 0 
z
" id="DejaVuSans-2e"/>
      </defs>
      <g transform="translate(50.276484 303.028562)scale(0.1 -0.1)">
       <use xlink:href="#DejaVuSans-33"/>
       <use x="63.623047" xlink:href="#DejaVuSans-30"/>
       <use x="127.246094" xlink:href="#DejaVuSans-2e"/>
       <use x="159.033203" xlink:href="#DejaVuSans-30"/>
      </g>
     </g>
    </g>
    <g id="xtick_2">
     <g id="line2d_2">
      <g>
       <use style="stroke:#000000;stroke-width:0.8;" x="105.931682" xlink:href="#md9b1390328" y="288.430125"/>
      </g>
     </g>
     <g id="text_2">
      <!-- 30.5 -->
      <defs>
       <path d="M 10.796875 72.90625 
L 49.515625 72.90625 
L 49.515625 64.59375 
L 19.828125 64.59375 
L 19.828125 46.734375 
Q 21.96875 47.46875 24.109375 47.828125 
Q 26.265625 48.1875 28.421875 48.1875 
Q 40.625 48.1875 47.75 41.5 
Q 54.890625 34.8125 54.890625 23.390625 
Q 54.890625 11.625 47.5625 5.09375 
Q 40.234375 -1.421875 26.90625 -1.421875 
Q 22.3125 -1.421875 17.546875 -0.640625 
Q 12.796875 0.140625 7.71875 1.703125 
L 7.71875 11.625 
Q 12.109375 9.234375 16.796875 8.0625 
Q 21.484375 6.890625 26.703125 6.890625 
Q 35.15625 6.890625 40.078125 11.328125 
Q 45.015625 15.765625 45.015625 23.390625 
Q 45.015625 31 40.078125 35.4375 
Q 35.15625 39.890625 26.703125 39.890625 
Q 22.75 39.890625 18.8125 39.015625 
Q 14.890625 38.140625 10.796875 36.28125 
z
" id="DejaVuSans-35"/>
      </defs>
      <g transform="translate(94.798869 303.028562)scale(0.1 -0.1)">
       <use xlink:href="#DejaVuSans-33"/>
       <use x="63.623047" xlink:href="#DejaVuSans-30"/>
       <use x="127.246094" xlink:href="#DejaVuSans-2e"/>
       <use x="159.033203" xlink:href="#DejaVuSans-35"/>
      </g>
     </g>
    </g>
    <g id="xtick_3">
     <g id="line2d_3">
      <g>
       <use style="stroke:#000000;stroke-width:0.8;" x="150.454067" xlink:href="#md9b1390328" y="288.430125"/>
      </g>
     </g>
     <g id="text_3">
      <!-- 31.0 -->
      <defs>
       <path d="M 12.40625 8.296875 
L 28.515625 8.296875 
L 28.515625 63.921875 
L 10.984375 60.40625 
L 10.984375 69.390625 
L 28.421875 72.90625 
L 38.28125 72.90625 
L 38.28125 8.296875 
L 54.390625 8.296875 
L 54.390625 0 
L 12.40625 0 
z
" id="DejaVuSans-31"/>
      </defs>
      <g transform="translate(139.321254 303.028562)scale(0.1 -0.1)">
       <use xlink:href="#DejaVuSans-33"/>
       <use x="63.623047" xlink:href="#DejaVuSans-31"/>
       <use x="127.246094" xlink:href="#DejaVuSans-2e"/>
       <use x="159.033203" xlink:href="#DejaVuSans-30"/>
      </g>
     </g>
    </g>
    <g id="xtick_4">
     <g id="line2d_4">
      <g>
       <use style="stroke:#000000;stroke-width:0.8;" x="194.976452" xlink:href="#md9b1390328" y="288.430125"/>
      </g>
     </g>
     <g id="text_4">
      <!-- 31.5 -->
      <g transform="translate(183.843639 303.028562)scale(0.1 -0.1)">
       <use xlink:href="#DejaVuSans-33"/>
       <use x="63.623047" xlink:href="#DejaVuSans-31"/>
       <use x="127.246094" xlink:href="#DejaVuSans-2e"/>
       <use x="159.033203" xlink:href="#DejaVuSans-35"/>
      </g>
     </g>
    </g>
    <g id="xtick_5">
     <g id="line2d_5">
      <g>
       <use style="stroke:#000000;stroke-width:0.8;" x="239.498837" xlink:href="#md9b1390328" y="288.430125"/>
      </g>
     </g>
     <g id="text_5">
      <!-- 32.0 -->
      <defs>
       <path d="M 19.1875 8.296875 
L 53.609375 8.296875 
L 53.609375 0 
L 7.328125 0 
L 7.328125 8.296875 
Q 12.9375 14.109375 22.625 23.890625 
Q 32.328125 33.6875 34.8125 36.53125 
Q 39.546875 41.84375 41.421875 45.53125 
Q 43.3125 49.21875 43.3125 52.78125 
Q 43.3125 58.59375 39.234375 62.25 
Q 35.15625 65.921875 28.609375 65.921875 
Q 23.96875 65.921875 18.8125 64.3125 
Q 13.671875 62.703125 7.8125 59.421875 
L 7.8125 69.390625 
Q 13.765625 71.78125 18.9375 73 
Q 24.125 74.21875 28.421875 74.21875 
Q 39.75 74.21875 46.484375 68.546875 
Q 53.21875 62.890625 53.21875 53.421875 
Q 53.21875 48.921875 51.53125 44.890625 
Q 49.859375 40.875 45.40625 35.40625 
Q 44.1875 33.984375 37.640625 27.21875 
Q 31.109375 20.453125 19.1875 8.296875 
z
" id="DejaVuSans-32"/>
      </defs>
      <g transform="translate(228.366024 303.028562)scale(0.1 -0.1)">
       <use xlink:href="#DejaVuSans-33"/>
       <use x="63.623047" xlink:href="#DejaVuSans-32"/>
       <use x="127.246094" xlink:href="#DejaVuSans-2e"/>
       <use x="159.033203" xlink:href="#DejaVuSans-30"/>
      </g>
     </g>
    </g>
    <g id="xtick_6">
     <g id="line2d_6">
      <g>
       <use style="stroke:#000000;stroke-width:0.8;" x="284.021222" xlink:href="#md9b1390328" y="288.430125"/>
      </g>
     </g>
     <g id="text_6">
      <!-- 32.5 -->
      <g transform="translate(272.888409 303.028562)scale(0.1 -0.1)">
       <use xlink:href="#DejaVuSans-33"/>
       <use x="63.623047" xlink:href="#DejaVuSans-32"/>
       <use x="127.246094" xlink:href="#DejaVuSans-2e"/>
       <use x="159.033203" xlink:href="#DejaVuSans-35"/>
      </g>
     </g>
    </g>
    <g id="xtick_7">
     <g id="line2d_7">
      <g>
       <use style="stroke:#000000;stroke-width:0.8;" x="328.543607" xlink:href="#md9b1390328" y="288.430125"/>
      </g>
     </g>
     <g id="text_7">
      <!-- 33.0 -->
      <g transform="translate(317.410795 303.028562)scale(0.1 -0.1)">
       <use xlink:href="#DejaVuSans-33"/>
       <use x="63.623047" xlink:href="#DejaVuSans-33"/>
       <use x="127.246094" xlink:href="#DejaVuSans-2e"/>
       <use x="159.033203" xlink:href="#DejaVuSans-30"/>
      </g>
     </g>
    </g>
    <g id="xtick_8">
     <g id="line2d_8">
      <g>
       <use style="stroke:#000000;stroke-width:0.8;" x="373.065992" xlink:href="#md9b1390328" y="288.430125"/>
      </g>
     </g>
     <g id="text_8">
      <!-- 33.5 -->
      <g transform="translate(361.93318 303.028562)scale(0.1 -0.1)">
       <use xlink:href="#DejaVuSans-33"/>
       <use x="63.623047" xlink:href="#DejaVuSans-33"/>
       <use x="127.246094" xlink:href="#DejaVuSans-2e"/>
       <use x="159.033203" xlink:href="#DejaVuSans-35"/>
      </g>
     </g>
    </g>
    <g id="text_9">
     <!-- Distance -->
     <defs>
      <path d="M 19.671875 64.796875 
L 19.671875 8.109375 
L 31.59375 8.109375 
Q 46.6875 8.109375 53.6875 14.9375 
Q 60.6875 21.78125 60.6875 36.53125 
Q 60.6875 51.171875 53.6875 57.984375 
Q 46.6875 64.796875 31.59375 64.796875 
z
M 9.8125 72.90625 
L 30.078125 72.90625 
Q 51.265625 72.90625 61.171875 64.09375 
Q 71.09375 55.28125 71.09375 36.53125 
Q 71.09375 17.671875 61.125 8.828125 
Q 51.171875 0 30.078125 0 
L 9.8125 0 
z
" id="DejaVuSans-44"/>
      <path d="M 9.421875 54.6875 
L 18.40625 54.6875 
L 18.40625 0 
L 9.421875 0 
z
M 9.421875 75.984375 
L 18.40625 75.984375 
L 18.40625 64.59375 
L 9.421875 64.59375 
z
" id="DejaVuSans-69"/>
      <path d="M 44.28125 53.078125 
L 44.28125 44.578125 
Q 40.484375 46.53125 36.375 47.5 
Q 32.28125 48.484375 27.875 48.484375 
Q 21.1875 48.484375 17.84375 46.4375 
Q 14.5 44.390625 14.5 40.28125 
Q 14.5 37.15625 16.890625 35.375 
Q 19.28125 33.59375 26.515625 31.984375 
L 29.59375 31.296875 
Q 39.15625 29.25 43.1875 25.515625 
Q 47.21875 21.78125 47.21875 15.09375 
Q 47.21875 7.46875 41.1875 3.015625 
Q 35.15625 -1.421875 24.609375 -1.421875 
Q 20.21875 -1.421875 15.453125 -0.5625 
Q 10.6875 0.296875 5.421875 2 
L 5.421875 11.28125 
Q 10.40625 8.6875 15.234375 7.390625 
Q 20.0625 6.109375 24.8125 6.109375 
Q 31.15625 6.109375 34.5625 8.28125 
Q 37.984375 10.453125 37.984375 14.40625 
Q 37.984375 18.0625 35.515625 20.015625 
Q 33.0625 21.96875 24.703125 23.78125 
L 21.578125 24.515625 
Q 13.234375 26.265625 9.515625 29.90625 
Q 5.8125 33.546875 5.8125 39.890625 
Q 5.8125 47.609375 11.28125 51.796875 
Q 16.75 56 26.8125 56 
Q 31.78125 56 36.171875 55.265625 
Q 40.578125 54.546875 44.28125 53.078125 
z
" id="DejaVuSans-73"/>
      <path d="M 18.3125 70.21875 
L 18.3125 54.6875 
L 36.8125 54.6875 
L 36.8125 47.703125 
L 18.3125 47.703125 
L 18.3125 18.015625 
Q 18.3125 11.328125 20.140625 9.421875 
Q 21.96875 7.515625 27.59375 7.515625 
L 36.8125 7.515625 
L 36.8125 0 
L 27.59375 0 
Q 17.1875 0 13.234375 3.875 
Q 9.28125 7.765625 9.28125 18.015625 
L 9.28125 47.703125 
L 2.6875 47.703125 
L 2.6875 54.6875 
L 9.28125 54.6875 
L 9.28125 70.21875 
z
" id="DejaVuSans-74"/>
      <path d="M 34.28125 27.484375 
Q 23.390625 27.484375 19.1875 25 
Q 14.984375 22.515625 14.984375 16.5 
Q 14.984375 11.71875 18.140625 8.90625 
Q 21.296875 6.109375 26.703125 6.109375 
Q 34.1875 6.109375 38.703125 11.40625 
Q 43.21875 16.703125 43.21875 25.484375 
L 43.21875 27.484375 
z
M 52.203125 31.203125 
L 52.203125 0 
L 43.21875 0 
L 43.21875 8.296875 
Q 40.140625 3.328125 35.546875 0.953125 
Q 30.953125 -1.421875 24.3125 -1.421875 
Q 15.921875 -1.421875 10.953125 3.296875 
Q 6 8.015625 6 15.921875 
Q 6 25.140625 12.171875 29.828125 
Q 18.359375 34.515625 30.609375 34.515625 
L 43.21875 34.515625 
L 43.21875 35.40625 
Q 43.21875 41.609375 39.140625 45 
Q 35.0625 48.390625 27.6875 48.390625 
Q 23 48.390625 18.546875 47.265625 
Q 14.109375 46.140625 10.015625 43.890625 
L 10.015625 52.203125 
Q 14.9375 54.109375 19.578125 55.046875 
Q 24.21875 56 28.609375 56 
Q 40.484375 56 46.34375 49.84375 
Q 52.203125 43.703125 52.203125 31.203125 
z
" id="DejaVuSans-61"/>
      <path d="M 54.890625 33.015625 
L 54.890625 0 
L 45.90625 0 
L 45.90625 32.71875 
Q 45.90625 40.484375 42.875 44.328125 
Q 39.84375 48.1875 33.796875 48.1875 
Q 26.515625 48.1875 22.3125 43.546875 
Q 18.109375 38.921875 18.109375 30.90625 
L 18.109375 0 
L 9.078125 0 
L 9.078125 54.6875 
L 18.109375 54.6875 
L 18.109375 46.1875 
Q 21.34375 51.125 25.703125 53.5625 
Q 30.078125 56 35.796875 56 
Q 45.21875 56 50.046875 50.171875 
Q 54.890625 44.34375 54.890625 33.015625 
z
" id="DejaVuSans-6e"/>
      <path d="M 48.78125 52.59375 
L 48.78125 44.1875 
Q 44.96875 46.296875 41.140625 47.34375 
Q 37.3125 48.390625 33.40625 48.390625 
Q 24.65625 48.390625 19.8125 42.84375 
Q 14.984375 37.3125 14.984375 27.296875 
Q 14.984375 17.28125 19.8125 11.734375 
Q 24.65625 6.203125 33.40625 6.203125 
Q 37.3125 6.203125 41.140625 7.25 
Q 44.96875 8.296875 48.78125 10.40625 
L 48.78125 2.09375 
Q 45.015625 0.34375 40.984375 -0.53125 
Q 36.96875 -1.421875 32.421875 -1.421875 
Q 20.0625 -1.421875 12.78125 6.34375 
Q 5.515625 14.109375 5.515625 27.296875 
Q 5.515625 40.671875 12.859375 48.328125 
Q 20.21875 56 33.015625 56 
Q 37.15625 56 41.109375 55.140625 
Q 45.0625 54.296875 48.78125 52.59375 
z
" id="DejaVuSans-63"/>
      <path d="M 56.203125 29.59375 
L 56.203125 25.203125 
L 14.890625 25.203125 
Q 15.484375 15.921875 20.484375 11.0625 
Q 25.484375 6.203125 34.421875 6.203125 
Q 39.59375 6.203125 44.453125 7.46875 
Q 49.3125 8.734375 54.109375 11.28125 
L 54.109375 2.78125 
Q 49.265625 0.734375 44.1875 -0.34375 
Q 39.109375 -1.421875 33.890625 -1.421875 
Q 20.796875 -1.421875 13.15625 6.1875 
Q 5.515625 13.8125 5.515625 26.8125 
Q 5.515625 40.234375 12.765625 48.109375 
Q 20.015625 56 32.328125 56 
Q 43.359375 56 49.78125 48.890625 
Q 56.203125 41.796875 56.203125 29.59375 
z
M 47.21875 32.234375 
Q 47.125 39.59375 43.09375 43.984375 
Q 39.0625 48.390625 32.421875 48.390625 
Q 24.90625 48.390625 20.390625 44.140625 
Q 15.875 39.890625 15.1875 32.171875 
z
" id="DejaVuSans-65"/>
     </defs>
     <g transform="translate(200.47875 316.706687)scale(0.1 -0.1)">
      <use xlink:href="#DejaVuSans-44"/>
      <use x="77.001953" xlink:href="#DejaVuSans-69"/>
      <use x="104.785156" xlink:href="#DejaVuSans-73"/>
      <use x="156.884766" xlink:href="#DejaVuSans-74"/>
      <use x="196.09375" xlink:href="#DejaVuSans-61"/>
      <use x="257.373047" xlink:href="#DejaVuSans-6e"/>
      <use x="320.751953" xlink:href="#DejaVuSans-63"/>
      <use x="375.732422" xlink:href="#DejaVuSans-65"/>
     </g>
    </g>
   </g>
   <g id="matplotlib.axis_2">
    <g id="ytick_1">
     <g id="line2d_9">
      <defs>
       <path d="M 0 0 
L -3.5 0 
" id="m49967efd76" style="stroke:#000000;stroke-width:0.8;"/>
      </defs>
      <g>
       <use style="stroke:#000000;stroke-width:0.8;" x="43.78125" xlink:href="#m49967efd76" y="288.430125"/>
      </g>
     </g>
     <g id="text_10">
      <!-- 0.0 -->
      <g transform="translate(20.878125 292.229344)scale(0.1 -0.1)">
       <use xlink:href="#DejaVuSans-30"/>
       <use x="63.623047" xlink:href="#DejaVuSans-2e"/>
       <use x="95.410156" xlink:href="#DejaVuSans-30"/>
      </g>
     </g>
    </g>
    <g id="ytick_2">
     <g id="line2d_10">
      <g>
       <use style="stroke:#000000;stroke-width:0.8;" x="43.78125" xlink:href="#m49967efd76" y="246.610354"/>
      </g>
     </g>
     <g id="text_11">
      <!-- 0.1 -->
      <g transform="translate(20.878125 250.409572)scale(0.1 -0.1)">
       <use xlink:href="#DejaVuSans-30"/>
       <use x="63.623047" xlink:href="#DejaVuSans-2e"/>
       <use x="95.410156" xlink:href="#DejaVuSans-31"/>
      </g>
     </g>
    </g>
    <g id="ytick_3">
     <g id="line2d_11">
      <g>
       <use style="stroke:#000000;stroke-width:0.8;" x="43.78125" xlink:href="#m49967efd76" y="204.790582"/>
      </g>
     </g>
     <g id="text_12">
      <!-- 0.2 -->
      <g transform="translate(20.878125 208.589801)scale(0.1 -0.1)">
       <use xlink:href="#DejaVuSans-30"/>
       <use x="63.623047" xlink:href="#DejaVuSans-2e"/>
       <use x="95.410156" xlink:href="#DejaVuSans-32"/>
      </g>
     </g>
    </g>
    <g id="ytick_4">
     <g id="line2d_12">
      <g>
       <use style="stroke:#000000;stroke-width:0.8;" x="43.78125" xlink:href="#m49967efd76" y="162.970811"/>
      </g>
     </g>
     <g id="text_13">
      <!-- 0.3 -->
      <g transform="translate(20.878125 166.77003)scale(0.1 -0.1)">
       <use xlink:href="#DejaVuSans-30"/>
       <use x="63.623047" xlink:href="#DejaVuSans-2e"/>
       <use x="95.410156" xlink:href="#DejaVuSans-33"/>
      </g>
     </g>
    </g>
    <g id="ytick_5">
     <g id="line2d_13">
      <g>
       <use style="stroke:#000000;stroke-width:0.8;" x="43.78125" xlink:href="#m49967efd76" y="121.151039"/>
      </g>
     </g>
     <g id="text_14">
      <!-- 0.4 -->
      <defs>
       <path d="M 37.796875 64.3125 
L 12.890625 25.390625 
L 37.796875 25.390625 
z
M 35.203125 72.90625 
L 47.609375 72.90625 
L 47.609375 25.390625 
L 58.015625 25.390625 
L 58.015625 17.1875 
L 47.609375 17.1875 
L 47.609375 0 
L 37.796875 0 
L 37.796875 17.1875 
L 4.890625 17.1875 
L 4.890625 26.703125 
z
" id="DejaVuSans-34"/>
      </defs>
      <g transform="translate(20.878125 124.950258)scale(0.1 -0.1)">
       <use xlink:href="#DejaVuSans-30"/>
       <use x="63.623047" xlink:href="#DejaVuSans-2e"/>
       <use x="95.410156" xlink:href="#DejaVuSans-34"/>
      </g>
     </g>
    </g>
    <g id="ytick_6">
     <g id="line2d_14">
      <g>
       <use style="stroke:#000000;stroke-width:0.8;" x="43.78125" xlink:href="#m49967efd76" y="79.331268"/>
      </g>
     </g>
     <g id="text_15">
      <!-- 0.5 -->
      <g transform="translate(20.878125 83.130487)scale(0.1 -0.1)">
       <use xlink:href="#DejaVuSans-30"/>
       <use x="63.623047" xlink:href="#DejaVuSans-2e"/>
       <use x="95.410156" xlink:href="#DejaVuSans-35"/>
      </g>
     </g>
    </g>
    <g id="ytick_7">
     <g id="line2d_15">
      <g>
       <use style="stroke:#000000;stroke-width:0.8;" x="43.78125" xlink:href="#m49967efd76" y="37.511497"/>
      </g>
     </g>
     <g id="text_16">
      <!-- 0.6 -->
      <defs>
       <path d="M 33.015625 40.375 
Q 26.375 40.375 22.484375 35.828125 
Q 18.609375 31.296875 18.609375 23.390625 
Q 18.609375 15.53125 22.484375 10.953125 
Q 26.375 6.390625 33.015625 6.390625 
Q 39.65625 6.390625 43.53125 10.953125 
Q 47.40625 15.53125 47.40625 23.390625 
Q 47.40625 31.296875 43.53125 35.828125 
Q 39.65625 40.375 33.015625 40.375 
z
M 52.59375 71.296875 
L 52.59375 62.3125 
Q 48.875 64.0625 45.09375 64.984375 
Q 41.3125 65.921875 37.59375 65.921875 
Q 27.828125 65.921875 22.671875 59.328125 
Q 17.53125 52.734375 16.796875 39.40625 
Q 19.671875 43.65625 24.015625 45.921875 
Q 28.375 48.1875 33.59375 48.1875 
Q 44.578125 48.1875 50.953125 41.515625 
Q 57.328125 34.859375 57.328125 23.390625 
Q 57.328125 12.15625 50.6875 5.359375 
Q 44.046875 -1.421875 33.015625 -1.421875 
Q 20.359375 -1.421875 13.671875 8.265625 
Q 6.984375 17.96875 6.984375 36.375 
Q 6.984375 53.65625 15.1875 63.9375 
Q 23.390625 74.21875 37.203125 74.21875 
Q 40.921875 74.21875 44.703125 73.484375 
Q 48.484375 72.75 52.59375 71.296875 
z
" id="DejaVuSans-36"/>
      </defs>
      <g transform="translate(20.878125 41.310715)scale(0.1 -0.1)">
       <use xlink:href="#DejaVuSans-30"/>
       <use x="63.623047" xlink:href="#DejaVuSans-2e"/>
       <use x="95.410156" xlink:href="#DejaVuSans-36"/>
      </g>
     </g>
    </g>
    <g id="text_17">
     <!-- Probability -->
     <defs>
      <path d="M 19.671875 64.796875 
L 19.671875 37.40625 
L 32.078125 37.40625 
Q 38.96875 37.40625 42.71875 40.96875 
Q 46.484375 44.53125 46.484375 51.125 
Q 46.484375 57.671875 42.71875 61.234375 
Q 38.96875 64.796875 32.078125 64.796875 
z
M 9.8125 72.90625 
L 32.078125 72.90625 
Q 44.34375 72.90625 50.609375 67.359375 
Q 56.890625 61.8125 56.890625 51.125 
Q 56.890625 40.328125 50.609375 34.8125 
Q 44.34375 29.296875 32.078125 29.296875 
L 19.671875 29.296875 
L 19.671875 0 
L 9.8125 0 
z
" id="DejaVuSans-50"/>
      <path d="M 41.109375 46.296875 
Q 39.59375 47.171875 37.8125 47.578125 
Q 36.03125 48 33.890625 48 
Q 26.265625 48 22.1875 43.046875 
Q 18.109375 38.09375 18.109375 28.8125 
L 18.109375 0 
L 9.078125 0 
L 9.078125 54.6875 
L 18.109375 54.6875 
L 18.109375 46.1875 
Q 20.953125 51.171875 25.484375 53.578125 
Q 30.03125 56 36.53125 56 
Q 37.453125 56 38.578125 55.875 
Q 39.703125 55.765625 41.0625 55.515625 
z
" id="DejaVuSans-72"/>
      <path d="M 30.609375 48.390625 
Q 23.390625 48.390625 19.1875 42.75 
Q 14.984375 37.109375 14.984375 27.296875 
Q 14.984375 17.484375 19.15625 11.84375 
Q 23.34375 6.203125 30.609375 6.203125 
Q 37.796875 6.203125 41.984375 11.859375 
Q 46.1875 17.53125 46.1875 27.296875 
Q 46.1875 37.015625 41.984375 42.703125 
Q 37.796875 48.390625 30.609375 48.390625 
z
M 30.609375 56 
Q 42.328125 56 49.015625 48.375 
Q 55.71875 40.765625 55.71875 27.296875 
Q 55.71875 13.875 49.015625 6.21875 
Q 42.328125 -1.421875 30.609375 -1.421875 
Q 18.84375 -1.421875 12.171875 6.21875 
Q 5.515625 13.875 5.515625 27.296875 
Q 5.515625 40.765625 12.171875 48.375 
Q 18.84375 56 30.609375 56 
z
" id="DejaVuSans-6f"/>
      <path d="M 48.6875 27.296875 
Q 48.6875 37.203125 44.609375 42.84375 
Q 40.53125 48.484375 33.40625 48.484375 
Q 26.265625 48.484375 22.1875 42.84375 
Q 18.109375 37.203125 18.109375 27.296875 
Q 18.109375 17.390625 22.1875 11.75 
Q 26.265625 6.109375 33.40625 6.109375 
Q 40.53125 6.109375 44.609375 11.75 
Q 48.6875 17.390625 48.6875 27.296875 
z
M 18.109375 46.390625 
Q 20.953125 51.265625 25.265625 53.625 
Q 29.59375 56 35.59375 56 
Q 45.5625 56 51.78125 48.09375 
Q 58.015625 40.1875 58.015625 27.296875 
Q 58.015625 14.40625 51.78125 6.484375 
Q 45.5625 -1.421875 35.59375 -1.421875 
Q 29.59375 -1.421875 25.265625 0.953125 
Q 20.953125 3.328125 18.109375 8.203125 
L 18.109375 0 
L 9.078125 0 
L 9.078125 75.984375 
L 18.109375 75.984375 
z
" id="DejaVuSans-62"/>
      <path d="M 9.421875 75.984375 
L 18.40625 75.984375 
L 18.40625 0 
L 9.421875 0 
z
" id="DejaVuSans-6c"/>
      <path d="M 32.171875 -5.078125 
Q 28.375 -14.84375 24.75 -17.8125 
Q 21.140625 -20.796875 15.09375 -20.796875 
L 7.90625 -20.796875 
L 7.90625 -13.28125 
L 13.1875 -13.28125 
Q 16.890625 -13.28125 18.9375 -11.515625 
Q 21 -9.765625 23.484375 -3.21875 
L 25.09375 0.875 
L 2.984375 54.6875 
L 12.5 54.6875 
L 29.59375 11.921875 
L 46.6875 54.6875 
L 56.203125 54.6875 
z
" id="DejaVuSans-79"/>
     </defs>
     <g transform="translate(14.798438 182.000687)rotate(-90)scale(0.1 -0.1)">
      <use xlink:href="#DejaVuSans-50"/>
      <use x="60.287109" xlink:href="#DejaVuSans-72"/>
      <use x="101.369141" xlink:href="#DejaVuSans-6f"/>
      <use x="162.550781" xlink:href="#DejaVuSans-62"/>
      <use x="226.027344" xlink:href="#DejaVuSans-61"/>
      <use x="287.306641" xlink:href="#DejaVuSans-62"/>
      <use x="350.783203" xlink:href="#DejaVuSans-69"/>
      <use x="378.566406" xlink:href="#DejaVuSans-6c"/>
      <use x="406.349609" xlink:href="#DejaVuSans-69"/>
      <use x="434.132812" xlink:href="#DejaVuSans-74"/>
      <use x="473.341797" xlink:href="#DejaVuSans-79"/>
     </g>
    </g>
   </g>
   <g id="line2d_16">
    <path clip-path="url(#p988661061b)" d="M 60.013977 279.277961 
L 78.777288 268.587689 
L 81.133218 266.720759 
L 93.292119 254.775965 
L 95.695626 251.915913 
L 100.469099 245.708439 
L 106.113078 237.43214 
L 110.411161 230.43154 
L 119.584328 213.469272 
L 125.394869 201.352639 
L 128.264523 195.004034 
L 135.230245 178.70056 
L 141.420498 163.330915 
L 147.106116 148.704419 
L 164.84928 102.708947 
L 169.471846 91.404166 
L 174.296152 80.257021 
L 178.134416 71.98944 
L 179.749921 68.69418 
L 183.511273 61.495177 
L 187.420683 54.784757 
L 191.087678 49.279212 
L 192.582001 47.269507 
L 194.467611 44.935418 
L 197.965184 41.224364 
L 199.608933 39.766854 
L 202.049168 37.950827 
L 202.708315 37.532632 
L 205.460992 36.123765 
L 207.573648 35.415915 
L 209.231304 35.089683 
L 212.601336 35.050781 
L 212.858529 35.082214 
L 215.511164 35.690281 
L 216.888791 36.209405 
L 218.944131 37.240027 
L 219.763562 37.735713 
L 222.501967 39.738037 
L 225.001185 42.021417 
L 226.706951 43.823317 
L 228.549072 45.985198 
L 231.106758 49.347123 
L 234.256087 54.036725 
L 237.278573 59.074489 
L 240.459351 64.902062 
L 242.299774 68.502086 
L 246.798232 77.934726 
L 251.377762 88.336317 
L 256.07395 99.669876 
L 263.413651 118.312677 
L 283.307016 169.826307 
L 290.870776 188.104864 
L 294.670449 196.773079 
L 299.085674 206.343754 
L 303.189773 214.717628 
L 310.55857 228.410279 
L 313.79564 233.864471 
L 321.18049 245.022152 
L 326.469911 251.940261 
L 334.054007 260.382613 
L 337.941943 264.080562 
L 356.47833 276.749484 
L 357.702771 277.341857 
L 372.530391 282.727123 
L 384.668523 285.274903 
L 384.668523 285.274903 
" style="fill:none;stroke:#1f77b4;stroke-linecap:square;stroke-width:1.5;"/>
    <defs>
     <path d="M 0 3 
C 0.795609 3 1.55874 2.683901 2.12132 2.12132 
C 2.683901 1.55874 3 0.795609 3 0 
C 3 -0.795609 2.683901 -1.55874 2.12132 -2.12132 
C 1.55874 -2.683901 0.795609 -3 0 -3 
C -0.795609 -3 -1.55874 -2.683901 -2.12132 -2.12132 
C -2.683901 -1.55874 -3 -0.795609 -3 0 
C -3 0.795609 -2.683901 1.55874 -2.12132 2.12132 
C -1.55874 2.683901 -0.795609 3 0 3 
z
" id="m0ef1366a10" style="stroke:#1f77b4;"/>
    </defs>
    <g clip-path="url(#p988661061b)">
     <use style="fill:#1f77b4;stroke:#1f77b4;" x="60.013977" xlink:href="#m0ef1366a10" y="279.277961"/>
     <use style="fill:#1f77b4;stroke:#1f77b4;" x="78.777288" xlink:href="#m0ef1366a10" y="268.587689"/>
     <use style="fill:#1f77b4;stroke:#1f77b4;" x="81.133218" xlink:href="#m0ef1366a10" y="266.720759"/>
     <use style="fill:#1f77b4;stroke:#1f77b4;" x="93.292119" xlink:href="#m0ef1366a10" y="254.775965"/>
     <use style="fill:#1f77b4;stroke:#1f77b4;" x="95.695626" xlink:href="#m0ef1366a10" y="251.915913"/>
     <use style="fill:#1f77b4;stroke:#1f77b4;" x="99.977065" xlink:href="#m0ef1366a10" y="246.381372"/>
     <use style="fill:#1f77b4;stroke:#1f77b4;" x="100.399404" xlink:href="#m0ef1366a10" y="245.804225"/>
     <use style="fill:#1f77b4;stroke:#1f77b4;" x="100.469099" xlink:href="#m0ef1366a10" y="245.708439"/>
     <use style="fill:#1f77b4;stroke:#1f77b4;" x="106.113078" xlink:href="#m0ef1366a10" y="237.43214"/>
     <use style="fill:#1f77b4;stroke:#1f77b4;" x="110.411161" xlink:href="#m0ef1366a10" y="230.43154"/>
     <use style="fill:#1f77b4;stroke:#1f77b4;" x="119.584328" xlink:href="#m0ef1366a10" y="213.469272"/>
     <use style="fill:#1f77b4;stroke:#1f77b4;" x="123.086748" xlink:href="#m0ef1366a10" y="206.287498"/>
     <use style="fill:#1f77b4;stroke:#1f77b4;" x="124.959084" xlink:href="#m0ef1366a10" y="202.296317"/>
     <use style="fill:#1f77b4;stroke:#1f77b4;" x="125.007707" xlink:href="#m0ef1366a10" y="202.191298"/>
     <use style="fill:#1f77b4;stroke:#1f77b4;" x="125.394869" xlink:href="#m0ef1366a10" y="201.352639"/>
     <use style="fill:#1f77b4;stroke:#1f77b4;" x="127.610043" xlink:href="#m0ef1366a10" y="196.47213"/>
     <use style="fill:#1f77b4;stroke:#1f77b4;" x="128.103744" xlink:href="#m0ef1366a10" y="195.365767"/>
     <use style="fill:#1f77b4;stroke:#1f77b4;" x="128.264523" xlink:href="#m0ef1366a10" y="195.004034"/>
     <use style="fill:#1f77b4;stroke:#1f77b4;" x="132.229507" xlink:href="#m0ef1366a10" y="185.86896"/>
     <use style="fill:#1f77b4;stroke:#1f77b4;" x="132.8413" xlink:href="#m0ef1366a10" y="184.424376"/>
     <use style="fill:#1f77b4;stroke:#1f77b4;" x="134.552163" xlink:href="#m0ef1366a10" y="180.338252"/>
     <use style="fill:#1f77b4;stroke:#1f77b4;" x="135.163034" xlink:href="#m0ef1366a10" y="178.863332"/>
     <use style="fill:#1f77b4;stroke:#1f77b4;" x="135.230245" xlink:href="#m0ef1366a10" y="178.70056"/>
     <use style="fill:#1f77b4;stroke:#1f77b4;" x="136.953851" xlink:href="#m0ef1366a10" y="174.493834"/>
     <use style="fill:#1f77b4;stroke:#1f77b4;" x="138.493024" xlink:href="#m0ef1366a10" y="170.687215"/>
     <use style="fill:#1f77b4;stroke:#1f77b4;" x="139.685791" xlink:href="#m0ef1366a10" y="167.707334"/>
     <use style="fill:#1f77b4;stroke:#1f77b4;" x="139.79803" xlink:href="#m0ef1366a10" y="167.425655"/>
     <use style="fill:#1f77b4;stroke:#1f77b4;" x="140.070684" xlink:href="#m0ef1366a10" y="166.74051"/>
     <use style="fill:#1f77b4;stroke:#1f77b4;" x="140.554252" xlink:href="#m0ef1366a10" y="165.522354"/>
     <use style="fill:#1f77b4;stroke:#1f77b4;" x="140.937992" xlink:href="#m0ef1366a10" y="164.553003"/>
     <use style="fill:#1f77b4;stroke:#1f77b4;" x="141.420498" xlink:href="#m0ef1366a10" y="163.330915"/>
     <use style="fill:#1f77b4;stroke:#1f77b4;" x="141.87744" xlink:href="#m0ef1366a10" y="162.170353"/>
     <use style="fill:#1f77b4;stroke:#1f77b4;" x="142.188466" xlink:href="#m0ef1366a10" y="161.378657"/>
     <use style="fill:#1f77b4;stroke:#1f77b4;" x="142.738757" xlink:href="#m0ef1366a10" y="159.974613"/>
     <use style="fill:#1f77b4;stroke:#1f77b4;" x="143.734706" xlink:href="#m0ef1366a10" y="157.423287"/>
     <use style="fill:#1f77b4;stroke:#1f77b4;" x="145.35457" xlink:href="#m0ef1366a10" y="153.248393"/>
     <use style="fill:#1f77b4;stroke:#1f77b4;" x="146.8286" xlink:href="#m0ef1366a10" y="149.426148"/>
     <use style="fill:#1f77b4;stroke:#1f77b4;" x="147.106116" xlink:href="#m0ef1366a10" y="148.704419"/>
     <use style="fill:#1f77b4;stroke:#1f77b4;" x="149.156695" xlink:href="#m0ef1366a10" y="143.354948"/>
     <use style="fill:#1f77b4;stroke:#1f77b4;" x="149.232971" xlink:href="#m0ef1366a10" y="143.15549"/>
     <use style="fill:#1f77b4;stroke:#1f77b4;" x="149.370004" xlink:href="#m0ef1366a10" y="142.797083"/>
     <use style="fill:#1f77b4;stroke:#1f77b4;" x="149.525967" xlink:href="#m0ef1366a10" y="142.389063"/>
     <use style="fill:#1f77b4;stroke:#1f77b4;" x="152.72571" xlink:href="#m0ef1366a10" y="134.002648"/>
     <use style="fill:#1f77b4;stroke:#1f77b4;" x="154.645529" xlink:href="#m0ef1366a10" y="128.969727"/>
     <use style="fill:#1f77b4;stroke:#1f77b4;" x="154.887241" xlink:href="#m0ef1366a10" y="128.336722"/>
     <use style="fill:#1f77b4;stroke:#1f77b4;" x="155.056923" xlink:href="#m0ef1366a10" y="127.892482"/>
     <use style="fill:#1f77b4;stroke:#1f77b4;" x="156.529196" xlink:href="#m0ef1366a10" y="124.043696"/>
     <use style="fill:#1f77b4;stroke:#1f77b4;" x="157.409298" xlink:href="#m0ef1366a10" y="121.74926"/>
     <use style="fill:#1f77b4;stroke:#1f77b4;" x="157.809382" xlink:href="#m0ef1366a10" y="120.70818"/>
     <use style="fill:#1f77b4;stroke:#1f77b4;" x="158.101571" xlink:href="#m0ef1366a10" y="119.948712"/>
     <use style="fill:#1f77b4;stroke:#1f77b4;" x="158.374131" xlink:href="#m0ef1366a10" y="119.240955"/>
     <use style="fill:#1f77b4;stroke:#1f77b4;" x="158.800929" xlink:href="#m0ef1366a10" y="118.13411"/>
     <use style="fill:#1f77b4;stroke:#1f77b4;" x="159.469427" xlink:href="#m0ef1366a10" y="116.404209"/>
     <use style="fill:#1f77b4;stroke:#1f77b4;" x="160.207301" xlink:href="#m0ef1366a10" y="114.500644"/>
     <use style="fill:#1f77b4;stroke:#1f77b4;" x="163.289605" xlink:href="#m0ef1366a10" y="106.630307"/>
     <use style="fill:#1f77b4;stroke:#1f77b4;" x="163.562353" xlink:href="#m0ef1366a10" y="105.941258"/>
     <use style="fill:#1f77b4;stroke:#1f77b4;" x="163.879628" xlink:href="#m0ef1366a10" y="105.14143"/>
     <use style="fill:#1f77b4;stroke:#1f77b4;" x="164.84928" xlink:href="#m0ef1366a10" y="102.708947"/>
     <use style="fill:#1f77b4;stroke:#1f77b4;" x="165.511259" xlink:href="#m0ef1366a10" y="101.059238"/>
     <use style="fill:#1f77b4;stroke:#1f77b4;" x="165.774489" xlink:href="#m0ef1366a10" y="100.405846"/>
     <use style="fill:#1f77b4;stroke:#1f77b4;" x="166.646556" xlink:href="#m0ef1366a10" y="98.25228"/>
     <use style="fill:#1f77b4;stroke:#1f77b4;" x="168.19748" xlink:href="#m0ef1366a10" y="94.467274"/>
     <use style="fill:#1f77b4;stroke:#1f77b4;" x="168.443688" xlink:href="#m0ef1366a10" y="93.872046"/>
     <use style="fill:#1f77b4;stroke:#1f77b4;" x="168.832938" xlink:href="#m0ef1366a10" y="92.934312"/>
     <use style="fill:#1f77b4;stroke:#1f77b4;" x="168.94977" xlink:href="#m0ef1366a10" y="92.653659"/>
     <use style="fill:#1f77b4;stroke:#1f77b4;" x="169.065536" xlink:href="#m0ef1366a10" y="92.375938"/>
     <use style="fill:#1f77b4;stroke:#1f77b4;" x="169.471846" xlink:href="#m0ef1366a10" y="91.404166"/>
     <use style="fill:#1f77b4;stroke:#1f77b4;" x="170.651649" xlink:href="#m0ef1366a10" y="88.609474"/>
     <use style="fill:#1f77b4;stroke:#1f77b4;" x="172.406553" xlink:href="#m0ef1366a10" y="84.53189"/>
     <use style="fill:#1f77b4;stroke:#1f77b4;" x="173.057225" xlink:href="#m0ef1366a10" y="83.045771"/>
     <use style="fill:#1f77b4;stroke:#1f77b4;" x="174.296152" xlink:href="#m0ef1366a10" y="80.257021"/>
     <use style="fill:#1f77b4;stroke:#1f77b4;" x="174.761033" xlink:href="#m0ef1366a10" y="79.224981"/>
     <use style="fill:#1f77b4;stroke:#1f77b4;" x="175.318115" xlink:href="#m0ef1366a10" y="77.998948"/>
     <use style="fill:#1f77b4;stroke:#1f77b4;" x="175.433425" xlink:href="#m0ef1366a10" y="77.746652"/>
     <use style="fill:#1f77b4;stroke:#1f77b4;" x="175.606636" xlink:href="#m0ef1366a10" y="77.368641"/>
     <use style="fill:#1f77b4;stroke:#1f77b4;" x="175.759401" xlink:href="#m0ef1366a10" y="77.036217"/>
     <use style="fill:#1f77b4;stroke:#1f77b4;" x="176.521387" xlink:href="#m0ef1366a10" y="75.391885"/>
     <use style="fill:#1f77b4;stroke:#1f77b4;" x="176.67563" xlink:href="#m0ef1366a10" y="75.061872"/>
     <use style="fill:#1f77b4;stroke:#1f77b4;" x="177.385702" xlink:href="#m0ef1366a10" y="73.55521"/>
     <use style="fill:#1f77b4;stroke:#1f77b4;" x="178.134416" xlink:href="#m0ef1366a10" y="71.98944"/>
     <use style="fill:#1f77b4;stroke:#1f77b4;" x="178.279787" xlink:href="#m0ef1366a10" y="71.688209"/>
     <use style="fill:#1f77b4;stroke:#1f77b4;" x="179.088628" xlink:href="#m0ef1366a10" y="70.02903"/>
     <use style="fill:#1f77b4;stroke:#1f77b4;" x="179.749921" xlink:href="#m0ef1366a10" y="68.69418"/>
     <use style="fill:#1f77b4;stroke:#1f77b4;" x="182.334573" xlink:href="#m0ef1366a10" y="63.672835"/>
     <use style="fill:#1f77b4;stroke:#1f77b4;" x="182.493757" xlink:href="#m0ef1366a10" y="63.374162"/>
     <use style="fill:#1f77b4;stroke:#1f77b4;" x="183.511273" xlink:href="#m0ef1366a10" y="61.495177"/>
     <use style="fill:#1f77b4;stroke:#1f77b4;" x="185.448967" xlink:href="#m0ef1366a10" y="58.065541"/>
     <use style="fill:#1f77b4;stroke:#1f77b4;" x="185.702925" xlink:href="#m0ef1366a10" y="57.630918"/>
     <use style="fill:#1f77b4;stroke:#1f77b4;" x="186.146593" xlink:href="#m0ef1366a10" y="56.880091"/>
     <use style="fill:#1f77b4;stroke:#1f77b4;" x="187.420683" xlink:href="#m0ef1366a10" y="54.784757"/>
     <use style="fill:#1f77b4;stroke:#1f77b4;" x="189.757612" xlink:href="#m0ef1366a10" y="51.183673"/>
     <use style="fill:#1f77b4;stroke:#1f77b4;" x="190.336697" xlink:href="#m0ef1366a10" y="50.341309"/>
     <use style="fill:#1f77b4;stroke:#1f77b4;" x="191.087678" xlink:href="#m0ef1366a10" y="49.279212"/>
     <use style="fill:#1f77b4;stroke:#1f77b4;" x="191.667509" xlink:href="#m0ef1366a10" y="48.48288"/>
     <use style="fill:#1f77b4;stroke:#1f77b4;" x="191.766027" xlink:href="#m0ef1366a10" y="48.349649"/>
     <use style="fill:#1f77b4;stroke:#1f77b4;" x="191.779305" xlink:href="#m0ef1366a10" y="48.331739"/>
     <use style="fill:#1f77b4;stroke:#1f77b4;" x="192.4407" xlink:href="#m0ef1366a10" y="47.453558"/>
     <use style="fill:#1f77b4;stroke:#1f77b4;" x="192.582001" xlink:href="#m0ef1366a10" y="47.269507"/>
     <use style="fill:#1f77b4;stroke:#1f77b4;" x="194.467611" xlink:href="#m0ef1366a10" y="44.935418"/>
     <use style="fill:#1f77b4;stroke:#1f77b4;" x="196.557162" xlink:href="#m0ef1366a10" y="42.619842"/>
     <use style="fill:#1f77b4;stroke:#1f77b4;" x="196.845032" xlink:href="#m0ef1366a10" y="42.323628"/>
     <use style="fill:#1f77b4;stroke:#1f77b4;" x="197.259661" xlink:href="#m0ef1366a10" y="41.906806"/>
     <use style="fill:#1f77b4;stroke:#1f77b4;" x="197.349796" xlink:href="#m0ef1366a10" y="41.817733"/>
     <use style="fill:#1f77b4;stroke:#1f77b4;" x="197.642915" xlink:href="#m0ef1366a10" y="41.531885"/>
     <use style="fill:#1f77b4;stroke:#1f77b4;" x="197.965184" xlink:href="#m0ef1366a10" y="41.224364"/>
     <use style="fill:#1f77b4;stroke:#1f77b4;" x="198.257819" xlink:href="#m0ef1366a10" y="40.95127"/>
     <use style="fill:#1f77b4;stroke:#1f77b4;" x="198.492115" xlink:href="#m0ef1366a10" y="40.736853"/>
     <use style="fill:#1f77b4;stroke:#1f77b4;" x="198.799538" xlink:href="#m0ef1366a10" y="40.461242"/>
     <use style="fill:#1f77b4;stroke:#1f77b4;" x="198.856201" xlink:href="#m0ef1366a10" y="40.411153"/>
     <use style="fill:#1f77b4;stroke:#1f77b4;" x="199.608933" xlink:href="#m0ef1366a10" y="39.766854"/>
     <use style="fill:#1f77b4;stroke:#1f77b4;" x="200.918551" xlink:href="#m0ef1366a10" y="38.740072"/>
     <use style="fill:#1f77b4;stroke:#1f77b4;" x="201.043535" xlink:href="#m0ef1366a10" y="38.648378"/>
     <use style="fill:#1f77b4;stroke:#1f77b4;" x="201.372602" xlink:href="#m0ef1366a10" y="38.412235"/>
     <use style="fill:#1f77b4;stroke:#1f77b4;" x="201.455676" xlink:href="#m0ef1366a10" y="38.353831"/>
     <use style="fill:#1f77b4;stroke:#1f77b4;" x="201.677841" xlink:href="#m0ef1366a10" y="38.200044"/>
     <use style="fill:#1f77b4;stroke:#1f77b4;" x="202.049168" xlink:href="#m0ef1366a10" y="37.950827"/>
     <use style="fill:#1f77b4;stroke:#1f77b4;" x="202.708315" xlink:href="#m0ef1366a10" y="37.532632"/>
     <use style="fill:#1f77b4;stroke:#1f77b4;" x="205.169236" xlink:href="#m0ef1366a10" y="36.247112"/>
     <use style="fill:#1f77b4;stroke:#1f77b4;" x="205.460992" xlink:href="#m0ef1366a10" y="36.123765"/>
     <use style="fill:#1f77b4;stroke:#1f77b4;" x="206.173396" xlink:href="#m0ef1366a10" y="35.848624"/>
     <use style="fill:#1f77b4;stroke:#1f77b4;" x="206.241754" xlink:href="#m0ef1366a10" y="35.82417"/>
     <use style="fill:#1f77b4;stroke:#1f77b4;" x="207.392351" xlink:href="#m0ef1366a10" y="35.463846"/>
     <use style="fill:#1f77b4;stroke:#1f77b4;" x="207.518806" xlink:href="#m0ef1366a10" y="35.43016"/>
     <use style="fill:#1f77b4;stroke:#1f77b4;" x="207.573648" xlink:href="#m0ef1366a10" y="35.415915"/>
     <use style="fill:#1f77b4;stroke:#1f77b4;" x="207.861653" xlink:href="#m0ef1366a10" y="35.344735"/>
     <use style="fill:#1f77b4;stroke:#1f77b4;" x="207.920411" xlink:href="#m0ef1366a10" y="35.330961"/>
     <use style="fill:#1f77b4;stroke:#1f77b4;" x="208.1206" xlink:href="#m0ef1366a10" y="35.285938"/>
     <use style="fill:#1f77b4;stroke:#1f77b4;" x="208.961905" xlink:href="#m0ef1366a10" y="35.128943"/>
     <use style="fill:#1f77b4;stroke:#1f77b4;" x="209.231304" xlink:href="#m0ef1366a10" y="35.089683"/>
     <use style="fill:#1f77b4;stroke:#1f77b4;" x="211.904567" xlink:href="#m0ef1366a10" y="34.990125"/>
     <use style="fill:#1f77b4;stroke:#1f77b4;" x="212.397302" xlink:href="#m0ef1366a10" y="35.029313"/>
     <use style="fill:#1f77b4;stroke:#1f77b4;" x="212.601336" xlink:href="#m0ef1366a10" y="35.050781"/>
     <use style="fill:#1f77b4;stroke:#1f77b4;" x="212.858529" xlink:href="#m0ef1366a10" y="35.082214"/>
     <use style="fill:#1f77b4;stroke:#1f77b4;" x="214.530477" xlink:href="#m0ef1366a10" y="35.40527"/>
     <use style="fill:#1f77b4;stroke:#1f77b4;" x="214.731793" xlink:href="#m0ef1366a10" y="35.458026"/>
     <use style="fill:#1f77b4;stroke:#1f77b4;" x="214.94696" xlink:href="#m0ef1366a10" y="35.517699"/>
     <use style="fill:#1f77b4;stroke:#1f77b4;" x="214.991484" xlink:href="#m0ef1366a10" y="35.530471"/>
     <use style="fill:#1f77b4;stroke:#1f77b4;" x="215.311925" xlink:href="#m0ef1366a10" y="35.626674"/>
     <use style="fill:#1f77b4;stroke:#1f77b4;" x="215.511164" xlink:href="#m0ef1366a10" y="35.690281"/>
     <use style="fill:#1f77b4;stroke:#1f77b4;" x="216.888791" xlink:href="#m0ef1366a10" y="36.209405"/>
     <use style="fill:#1f77b4;stroke:#1f77b4;" x="218.296887" xlink:href="#m0ef1366a10" y="36.882565"/>
     <use style="fill:#1f77b4;stroke:#1f77b4;" x="218.944131" xlink:href="#m0ef1366a10" y="37.240027"/>
     <use style="fill:#1f77b4;stroke:#1f77b4;" x="219.763562" xlink:href="#m0ef1366a10" y="37.735713"/>
     <use style="fill:#1f77b4;stroke:#1f77b4;" x="221.886871" xlink:href="#m0ef1366a10" y="39.242311"/>
     <use style="fill:#1f77b4;stroke:#1f77b4;" x="222.0098" xlink:href="#m0ef1366a10" y="39.339269"/>
     <use style="fill:#1f77b4;stroke:#1f77b4;" x="222.501967" xlink:href="#m0ef1366a10" y="39.738037"/>
     <use style="fill:#1f77b4;stroke:#1f77b4;" x="223.960674" xlink:href="#m0ef1366a10" y="41.018675"/>
     <use style="fill:#1f77b4;stroke:#1f77b4;" x="224.071762" xlink:href="#m0ef1366a10" y="41.122209"/>
     <use style="fill:#1f77b4;stroke:#1f77b4;" x="224.43424" xlink:href="#m0ef1366a10" y="41.465905"/>
     <use style="fill:#1f77b4;stroke:#1f77b4;" x="225.001185" xlink:href="#m0ef1366a10" y="42.021417"/>
     <use style="fill:#1f77b4;stroke:#1f77b4;" x="225.626786" xlink:href="#m0ef1366a10" y="42.659641"/>
     <use style="fill:#1f77b4;stroke:#1f77b4;" x="226.608548" xlink:href="#m0ef1366a10" y="43.714095"/>
     <use style="fill:#1f77b4;stroke:#1f77b4;" x="226.621599" xlink:href="#m0ef1366a10" y="43.728543"/>
     <use style="fill:#1f77b4;stroke:#1f77b4;" x="226.706951" xlink:href="#m0ef1366a10" y="43.823317"/>
     <use style="fill:#1f77b4;stroke:#1f77b4;" x="228.549072" xlink:href="#m0ef1366a10" y="45.985198"/>
     <use style="fill:#1f77b4;stroke:#1f77b4;" x="230.375689" xlink:href="#m0ef1366a10" y="48.344304"/>
     <use style="fill:#1f77b4;stroke:#1f77b4;" x="230.676902" xlink:href="#m0ef1366a10" y="48.753473"/>
     <use style="fill:#1f77b4;stroke:#1f77b4;" x="231.080349" xlink:href="#m0ef1366a10" y="49.310323"/>
     <use style="fill:#1f77b4;stroke:#1f77b4;" x="231.106758" xlink:href="#m0ef1366a10" y="49.347123"/>
     <use style="fill:#1f77b4;stroke:#1f77b4;" x="232.58706" xlink:href="#m0ef1366a10" y="51.477791"/>
     <use style="fill:#1f77b4;stroke:#1f77b4;" x="234.049771" xlink:href="#m0ef1366a10" y="53.711596"/>
     <use style="fill:#1f77b4;stroke:#1f77b4;" x="234.256087" xlink:href="#m0ef1366a10" y="54.036725"/>
     <use style="fill:#1f77b4;stroke:#1f77b4;" x="235.077141" xlink:href="#m0ef1366a10" y="55.354762"/>
     <use style="fill:#1f77b4;stroke:#1f77b4;" x="237.007359" xlink:href="#m0ef1366a10" y="58.601937"/>
     <use style="fill:#1f77b4;stroke:#1f77b4;" x="237.278573" xlink:href="#m0ef1366a10" y="59.074489"/>
     <use style="fill:#1f77b4;stroke:#1f77b4;" x="238.133889" xlink:href="#m0ef1366a10" y="60.590355"/>
     <use style="fill:#1f77b4;stroke:#1f77b4;" x="238.40207" xlink:href="#m0ef1366a10" y="61.073553"/>
     <use style="fill:#1f77b4;stroke:#1f77b4;" x="238.906174" xlink:href="#m0ef1366a10" y="61.991888"/>
     <use style="fill:#1f77b4;stroke:#1f77b4;" x="239.538401" xlink:href="#m0ef1366a10" y="63.161942"/>
     <use style="fill:#1f77b4;stroke:#1f77b4;" x="239.579736" xlink:href="#m0ef1366a10" y="63.23914"/>
     <use style="fill:#1f77b4;stroke:#1f77b4;" x="239.699942" xlink:href="#m0ef1366a10" y="63.464131"/>
     <use style="fill:#1f77b4;stroke:#1f77b4;" x="239.896025" xlink:href="#m0ef1366a10" y="63.832684"/>
     <use style="fill:#1f77b4;stroke:#1f77b4;" x="240.459351" xlink:href="#m0ef1366a10" y="64.902062"/>
     <use style="fill:#1f77b4;stroke:#1f77b4;" x="241.075281" xlink:href="#m0ef1366a10" y="66.088982"/>
     <use style="fill:#1f77b4;stroke:#1f77b4;" x="242.035359" xlink:href="#m0ef1366a10" y="67.975085"/>
     <use style="fill:#1f77b4;stroke:#1f77b4;" x="242.068567" xlink:href="#m0ef1366a10" y="68.041094"/>
     <use style="fill:#1f77b4;stroke:#1f77b4;" x="242.299774" xlink:href="#m0ef1366a10" y="68.502086"/>
     <use style="fill:#1f77b4;stroke:#1f77b4;" x="244.752809" xlink:href="#m0ef1366a10" y="73.540111"/>
     <use style="fill:#1f77b4;stroke:#1f77b4;" x="246.137188" xlink:href="#m0ef1366a10" y="76.496156"/>
     <use style="fill:#1f77b4;stroke:#1f77b4;" x="246.798232" xlink:href="#m0ef1366a10" y="77.934726"/>
     <use style="fill:#1f77b4;stroke:#1f77b4;" x="249.050799" xlink:href="#m0ef1366a10" y="82.960216"/>
     <use style="fill:#1f77b4;stroke:#1f77b4;" x="249.352652" xlink:href="#m0ef1366a10" y="83.647454"/>
     <use style="fill:#1f77b4;stroke:#1f77b4;" x="249.794266" xlink:href="#m0ef1366a10" y="84.658492"/>
     <use style="fill:#1f77b4;stroke:#1f77b4;" x="250.316624" xlink:href="#m0ef1366a10" y="85.86279"/>
     <use style="fill:#1f77b4;stroke:#1f77b4;" x="250.71803" xlink:href="#m0ef1366a10" y="86.794276"/>
     <use style="fill:#1f77b4;stroke:#1f77b4;" x="251.377762" xlink:href="#m0ef1366a10" y="88.336317"/>
     <use style="fill:#1f77b4;stroke:#1f77b4;" x="252.208853" xlink:href="#m0ef1366a10" y="90.297847"/>
     <use style="fill:#1f77b4;stroke:#1f77b4;" x="254.458438" xlink:href="#m0ef1366a10" y="95.705855"/>
     <use style="fill:#1f77b4;stroke:#1f77b4;" x="255.660152" xlink:href="#m0ef1366a10" y="98.648631"/>
     <use style="fill:#1f77b4;stroke:#1f77b4;" x="255.872468" xlink:href="#m0ef1366a10" y="99.172132"/>
     <use style="fill:#1f77b4;stroke:#1f77b4;" x="256.07395" xlink:href="#m0ef1366a10" y="99.669876"/>
     <use style="fill:#1f77b4;stroke:#1f77b4;" x="258.886866" xlink:href="#m0ef1366a10" y="106.708184"/>
     <use style="fill:#1f77b4;stroke:#1f77b4;" x="259.558223" xlink:href="#m0ef1366a10" y="108.410147"/>
     <use style="fill:#1f77b4;stroke:#1f77b4;" x="260.04275" xlink:href="#m0ef1366a10" y="109.64314"/>
     <use style="fill:#1f77b4;stroke:#1f77b4;" x="260.211634" xlink:href="#m0ef1366a10" y="110.07378"/>
     <use style="fill:#1f77b4;stroke:#1f77b4;" x="260.715172" xlink:href="#m0ef1366a10" y="111.360344"/>
     <use style="fill:#1f77b4;stroke:#1f77b4;" x="260.756381" xlink:href="#m0ef1366a10" y="111.4658"/>
     <use style="fill:#1f77b4;stroke:#1f77b4;" x="261.083176" xlink:href="#m0ef1366a10" y="112.302959"/>
     <use style="fill:#1f77b4;stroke:#1f77b4;" x="262.449783" xlink:href="#m0ef1366a10" y="115.819287"/>
     <use style="fill:#1f77b4;stroke:#1f77b4;" x="263.413651" xlink:href="#m0ef1366a10" y="118.312677"/>
     <use style="fill:#1f77b4;stroke:#1f77b4;" x="264.70812" xlink:href="#m0ef1366a10" y="121.675683"/>
     <use style="fill:#1f77b4;stroke:#1f77b4;" x="264.918855" xlink:href="#m0ef1366a10" y="122.224513"/>
     <use style="fill:#1f77b4;stroke:#1f77b4;" x="265.173224" xlink:href="#m0ef1366a10" y="122.887429"/>
     <use style="fill:#1f77b4;stroke:#1f77b4;" x="265.284046" xlink:href="#m0ef1366a10" y="123.17639"/>
     <use style="fill:#1f77b4;stroke:#1f77b4;" x="266.133475" xlink:href="#m0ef1366a10" y="125.393889"/>
     <use style="fill:#1f77b4;stroke:#1f77b4;" x="266.822143" xlink:href="#m0ef1366a10" y="127.194712"/>
     <use style="fill:#1f77b4;stroke:#1f77b4;" x="268.402873" xlink:href="#m0ef1366a10" y="131.335392"/>
     <use style="fill:#1f77b4;stroke:#1f77b4;" x="268.610859" xlink:href="#m0ef1366a10" y="131.880709"/>
     <use style="fill:#1f77b4;stroke:#1f77b4;" x="268.826132" xlink:href="#m0ef1366a10" y="132.445205"/>
     <use style="fill:#1f77b4;stroke:#1f77b4;" x="270.036501" xlink:href="#m0ef1366a10" y="135.619772"/>
     <use style="fill:#1f77b4;stroke:#1f77b4;" x="270.221285" xlink:href="#m0ef1366a10" y="136.104422"/>
     <use style="fill:#1f77b4;stroke:#1f77b4;" x="271.083202" xlink:href="#m0ef1366a10" y="138.364536"/>
     <use style="fill:#1f77b4;stroke:#1f77b4;" x="272.938842" xlink:href="#m0ef1366a10" y="143.223836"/>
     <use style="fill:#1f77b4;stroke:#1f77b4;" x="273.298118" xlink:href="#m0ef1366a10" y="144.163027"/>
     <use style="fill:#1f77b4;stroke:#1f77b4;" x="275.015944" xlink:href="#m0ef1366a10" y="148.642971"/>
     <use style="fill:#1f77b4;stroke:#1f77b4;" x="275.141764" xlink:href="#m0ef1366a10" y="148.970286"/>
     <use style="fill:#1f77b4;stroke:#1f77b4;" x="276.28773" xlink:href="#m0ef1366a10" y="151.945363"/>
     <use style="fill:#1f77b4;stroke:#1f77b4;" x="277.445502" xlink:href="#m0ef1366a10" y="154.938479"/>
     <use style="fill:#1f77b4;stroke:#1f77b4;" x="278.435072" xlink:href="#m0ef1366a10" y="157.485173"/>
     <use style="fill:#1f77b4;stroke:#1f77b4;" x="278.740972" xlink:href="#m0ef1366a10" y="158.270052"/>
     <use style="fill:#1f77b4;stroke:#1f77b4;" x="279.265095" xlink:href="#m0ef1366a10" y="159.612083"/>
     <use style="fill:#1f77b4;stroke:#1f77b4;" x="279.947739" xlink:href="#m0ef1366a10" y="161.354525"/>
     <use style="fill:#1f77b4;stroke:#1f77b4;" x="280.110167" xlink:href="#m0ef1366a10" y="161.768169"/>
     <use style="fill:#1f77b4;stroke:#1f77b4;" x="280.305886" xlink:href="#m0ef1366a10" y="162.266088"/>
     <use style="fill:#1f77b4;stroke:#1f77b4;" x="282.823511" xlink:href="#m0ef1366a10" y="168.618422"/>
     <use style="fill:#1f77b4;stroke:#1f77b4;" x="283.307016" xlink:href="#m0ef1366a10" y="169.826307"/>
     <use style="fill:#1f77b4;stroke:#1f77b4;" x="288.818242" xlink:href="#m0ef1366a10" y="183.270177"/>
     <use style="fill:#1f77b4;stroke:#1f77b4;" x="288.887479" xlink:href="#m0ef1366a10" y="183.434899"/>
     <use style="fill:#1f77b4;stroke:#1f77b4;" x="289.573574" xlink:href="#m0ef1366a10" y="185.061113"/>
     <use style="fill:#1f77b4;stroke:#1f77b4;" x="290.870776" xlink:href="#m0ef1366a10" y="188.104864"/>
     <use style="fill:#1f77b4;stroke:#1f77b4;" x="293.86592" xlink:href="#m0ef1366a10" y="194.969721"/>
     <use style="fill:#1f77b4;stroke:#1f77b4;" x="293.963433" xlink:href="#m0ef1366a10" y="195.189238"/>
     <use style="fill:#1f77b4;stroke:#1f77b4;" x="294.670449" xlink:href="#m0ef1366a10" y="196.773079"/>
     <use style="fill:#1f77b4;stroke:#1f77b4;" x="297.282464" xlink:href="#m0ef1366a10" y="202.503182"/>
     <use style="fill:#1f77b4;stroke:#1f77b4;" x="297.698897" xlink:href="#m0ef1366a10" y="203.398635"/>
     <use style="fill:#1f77b4;stroke:#1f77b4;" x="299.058101" xlink:href="#m0ef1366a10" y="206.285755"/>
     <use style="fill:#1f77b4;stroke:#1f77b4;" x="299.085674" xlink:href="#m0ef1366a10" y="206.343754"/>
     <use style="fill:#1f77b4;stroke:#1f77b4;" x="303.189773" xlink:href="#m0ef1366a10" y="214.717628"/>
     <use style="fill:#1f77b4;stroke:#1f77b4;" x="309.539345" xlink:href="#m0ef1366a10" y="226.621631"/>
     <use style="fill:#1f77b4;stroke:#1f77b4;" x="310.55857" xlink:href="#m0ef1366a10" y="228.410279"/>
     <use style="fill:#1f77b4;stroke:#1f77b4;" x="313.79564" xlink:href="#m0ef1366a10" y="233.864471"/>
     <use style="fill:#1f77b4;stroke:#1f77b4;" x="321.18049" xlink:href="#m0ef1366a10" y="245.022152"/>
     <use style="fill:#1f77b4;stroke:#1f77b4;" x="326.469911" xlink:href="#m0ef1366a10" y="251.940261"/>
     <use style="fill:#1f77b4;stroke:#1f77b4;" x="333.717948" xlink:href="#m0ef1366a10" y="260.043611"/>
     <use style="fill:#1f77b4;stroke:#1f77b4;" x="334.054007" xlink:href="#m0ef1366a10" y="260.382613"/>
     <use style="fill:#1f77b4;stroke:#1f77b4;" x="337.941943" xlink:href="#m0ef1366a10" y="264.080562"/>
     <use style="fill:#1f77b4;stroke:#1f77b4;" x="356.47833" xlink:href="#m0ef1366a10" y="276.749484"/>
     <use style="fill:#1f77b4;stroke:#1f77b4;" x="357.702771" xlink:href="#m0ef1366a10" y="277.341857"/>
     <use style="fill:#1f77b4;stroke:#1f77b4;" x="372.530391" xlink:href="#m0ef1366a10" y="282.727123"/>
     <use style="fill:#1f77b4;stroke:#1f77b4;" x="384.668523" xlink:href="#m0ef1366a10" y="285.274903"/>
    </g>
   </g>
   <g id="patch_13">
    <path d="M 43.78125 288.430125 
L 43.78125 22.318125 
" style="fill:none;stroke:#000000;stroke-linecap:square;stroke-linejoin:miter;stroke-width:0.8;"/>
   </g>
   <g id="patch_14">
    <path d="M 400.90125 288.430125 
L 400.90125 22.318125 
" style="fill:none;stroke:#000000;stroke-linecap:square;stroke-linejoin:miter;stroke-width:0.8;"/>
   </g>
   <g id="patch_15">
    <path d="M 43.78125 288.430125 
L 400.90125 288.430125 
" style="fill:none;stroke:#000000;stroke-linecap:square;stroke-linejoin:miter;stroke-width:0.8;"/>
   </g>
   <g id="patch_16">
    <path d="M 43.78125 22.318125 
L 400.90125 22.318125 
" style="fill:none;stroke:#000000;stroke-linecap:square;stroke-linejoin:miter;stroke-width:0.8;"/>
   </g>
   <g id="text_18">
    <!-- Distribution From Origin -->
    <defs>
     <path d="M 8.5 21.578125 
L 8.5 54.6875 
L 17.484375 54.6875 
L 17.484375 21.921875 
Q 17.484375 14.15625 20.5 10.265625 
Q 23.53125 6.390625 29.59375 6.390625 
Q 36.859375 6.390625 41.078125 11.03125 
Q 45.3125 15.671875 45.3125 23.6875 
L 45.3125 54.6875 
L 54.296875 54.6875 
L 54.296875 0 
L 45.3125 0 
L 45.3125 8.40625 
Q 42.046875 3.421875 37.71875 1 
Q 33.40625 -1.421875 27.6875 -1.421875 
Q 18.265625 -1.421875 13.375 4.4375 
Q 8.5 10.296875 8.5 21.578125 
z
M 31.109375 56 
z
" id="DejaVuSans-75"/>
     <path id="DejaVuSans-20"/>
     <path d="M 9.8125 72.90625 
L 51.703125 72.90625 
L 51.703125 64.59375 
L 19.671875 64.59375 
L 19.671875 43.109375 
L 48.578125 43.109375 
L 48.578125 34.8125 
L 19.671875 34.8125 
L 19.671875 0 
L 9.8125 0 
z
" id="DejaVuSans-46"/>
     <path d="M 52 44.1875 
Q 55.375 50.25 60.0625 53.125 
Q 64.75 56 71.09375 56 
Q 79.640625 56 84.28125 50.015625 
Q 88.921875 44.046875 88.921875 33.015625 
L 88.921875 0 
L 79.890625 0 
L 79.890625 32.71875 
Q 79.890625 40.578125 77.09375 44.375 
Q 74.3125 48.1875 68.609375 48.1875 
Q 61.625 48.1875 57.5625 43.546875 
Q 53.515625 38.921875 53.515625 30.90625 
L 53.515625 0 
L 44.484375 0 
L 44.484375 32.71875 
Q 44.484375 40.625 41.703125 44.40625 
Q 38.921875 48.1875 33.109375 48.1875 
Q 26.21875 48.1875 22.15625 43.53125 
Q 18.109375 38.875 18.109375 30.90625 
L 18.109375 0 
L 9.078125 0 
L 9.078125 54.6875 
L 18.109375 54.6875 
L 18.109375 46.1875 
Q 21.1875 51.21875 25.484375 53.609375 
Q 29.78125 56 35.6875 56 
Q 41.65625 56 45.828125 52.96875 
Q 50 49.953125 52 44.1875 
z
" id="DejaVuSans-6d"/>
     <path d="M 39.40625 66.21875 
Q 28.65625 66.21875 22.328125 58.203125 
Q 16.015625 50.203125 16.015625 36.375 
Q 16.015625 22.609375 22.328125 14.59375 
Q 28.65625 6.59375 39.40625 6.59375 
Q 50.140625 6.59375 56.421875 14.59375 
Q 62.703125 22.609375 62.703125 36.375 
Q 62.703125 50.203125 56.421875 58.203125 
Q 50.140625 66.21875 39.40625 66.21875 
z
M 39.40625 74.21875 
Q 54.734375 74.21875 63.90625 63.9375 
Q 73.09375 53.65625 73.09375 36.375 
Q 73.09375 19.140625 63.90625 8.859375 
Q 54.734375 -1.421875 39.40625 -1.421875 
Q 24.03125 -1.421875 14.8125 8.828125 
Q 5.609375 19.09375 5.609375 36.375 
Q 5.609375 53.65625 14.8125 63.9375 
Q 24.03125 74.21875 39.40625 74.21875 
z
" id="DejaVuSans-4f"/>
     <path d="M 45.40625 27.984375 
Q 45.40625 37.75 41.375 43.109375 
Q 37.359375 48.484375 30.078125 48.484375 
Q 22.859375 48.484375 18.828125 43.109375 
Q 14.796875 37.75 14.796875 27.984375 
Q 14.796875 18.265625 18.828125 12.890625 
Q 22.859375 7.515625 30.078125 7.515625 
Q 37.359375 7.515625 41.375 12.890625 
Q 45.40625 18.265625 45.40625 27.984375 
z
M 54.390625 6.78125 
Q 54.390625 -7.171875 48.1875 -13.984375 
Q 42 -20.796875 29.203125 -20.796875 
Q 24.46875 -20.796875 20.265625 -20.09375 
Q 16.0625 -19.390625 12.109375 -17.921875 
L 12.109375 -9.1875 
Q 16.0625 -11.328125 19.921875 -12.34375 
Q 23.78125 -13.375 27.78125 -13.375 
Q 36.625 -13.375 41.015625 -8.765625 
Q 45.40625 -4.15625 45.40625 5.171875 
L 45.40625 9.625 
Q 42.625 4.78125 38.28125 2.390625 
Q 33.9375 0 27.875 0 
Q 17.828125 0 11.671875 7.65625 
Q 5.515625 15.328125 5.515625 27.984375 
Q 5.515625 40.671875 11.671875 48.328125 
Q 17.828125 56 27.875 56 
Q 33.9375 56 38.28125 53.609375 
Q 42.625 51.21875 45.40625 46.390625 
L 45.40625 54.6875 
L 54.390625 54.6875 
z
" id="DejaVuSans-67"/>
    </defs>
    <g transform="translate(149.965313 16.318125)scale(0.12 -0.12)">
     <use xlink:href="#DejaVuSans-44"/>
     <use x="77.001953" xlink:href="#DejaVuSans-69"/>
     <use x="104.785156" xlink:href="#DejaVuSans-73"/>
     <use x="156.884766" xlink:href="#DejaVuSans-74"/>
     <use x="196.09375" xlink:href="#DejaVuSans-72"/>
     <use x="237.207031" xlink:href="#DejaVuSans-69"/>
     <use x="264.990234" xlink:href="#DejaVuSans-62"/>
     <use x="328.466797" xlink:href="#DejaVuSans-75"/>
     <use x="391.845703" xlink:href="#DejaVuSans-74"/>
     <use x="431.054688" xlink:href="#DejaVuSans-69"/>
     <use x="458.837891" xlink:href="#DejaVuSans-6f"/>
     <use x="520.019531" xlink:href="#DejaVuSans-6e"/>
     <use x="583.398438" xlink:href="#DejaVuSans-20"/>
     <use x="615.185547" xlink:href="#DejaVuSans-46"/>
     <use x="672.595703" xlink:href="#DejaVuSans-72"/>
     <use x="713.677734" xlink:href="#DejaVuSans-6f"/>
     <use x="774.859375" xlink:href="#DejaVuSans-6d"/>
     <use x="872.271484" xlink:href="#DejaVuSans-20"/>
     <use x="904.058594" xlink:href="#DejaVuSans-4f"/>
     <use x="982.769531" xlink:href="#DejaVuSans-72"/>
     <use x="1023.882812" xlink:href="#DejaVuSans-69"/>
     <use x="1051.666016" xlink:href="#DejaVuSans-67"/>
     <use x="1115.142578" xlink:href="#DejaVuSans-69"/>
     <use x="1142.925781" xlink:href="#DejaVuSans-6e"/>
    </g>
   </g>
  </g>
  <g id="text_19">
   <g id="patch_17">
    <path d="M 149.266875 369.50175 
L 283.895625 369.50175 
Q 289.895625 369.50175 289.895625 363.50175 
L 289.895625 338.450625 
Q 289.895625 332.450625 283.895625 332.450625 
L 149.266875 332.450625 
Q 143.266875 332.450625 143.266875 338.450625 
L 143.266875 363.50175 
Q 143.266875 369.50175 149.266875 369.50175 
z
" style="fill:#ffffff;stroke:#808080;stroke-linejoin:miter;"/>
   </g>
   <!-- Dimension: 1000 -->
   <defs>
    <path d="M 11.71875 12.40625 
L 22.015625 12.40625 
L 22.015625 0 
L 11.71875 0 
z
M 11.71875 51.703125 
L 22.015625 51.703125 
L 22.015625 39.3125 
L 11.71875 39.3125 
z
" id="DejaVuSans-3a"/>
   </defs>
   <g transform="translate(149.266875 347.56875)scale(0.12 -0.12)">
    <use xlink:href="#DejaVuSans-44"/>
    <use x="77.001953" xlink:href="#DejaVuSans-69"/>
    <use x="104.785156" xlink:href="#DejaVuSans-6d"/>
    <use x="202.197266" xlink:href="#DejaVuSans-65"/>
    <use x="263.720703" xlink:href="#DejaVuSans-6e"/>
    <use x="327.099609" xlink:href="#DejaVuSans-73"/>
    <use x="379.199219" xlink:href="#DejaVuSans-69"/>
    <use x="406.982422" xlink:href="#DejaVuSans-6f"/>
    <use x="468.164062" xlink:href="#DejaVuSans-6e"/>
    <use x="531.542969" xlink:href="#DejaVuSans-3a"/>
    <use x="565.234375" xlink:href="#DejaVuSans-20"/>
    <use x="597.021484" xlink:href="#DejaVuSans-31"/>
    <use x="660.644531" xlink:href="#DejaVuSans-30"/>
    <use x="724.267578" xlink:href="#DejaVuSans-30"/>
    <use x="787.890625" xlink:href="#DejaVuSans-30"/>
   </g>
   <!-- Number of Points: 250 -->
   <defs>
    <path d="M 9.8125 72.90625 
L 23.09375 72.90625 
L 55.421875 11.921875 
L 55.421875 72.90625 
L 64.984375 72.90625 
L 64.984375 0 
L 51.703125 0 
L 19.390625 60.984375 
L 19.390625 0 
L 9.8125 0 
z
" id="DejaVuSans-4e"/>
    <path d="M 37.109375 75.984375 
L 37.109375 68.5 
L 28.515625 68.5 
Q 23.6875 68.5 21.796875 66.546875 
Q 19.921875 64.59375 19.921875 59.515625 
L 19.921875 54.6875 
L 34.71875 54.6875 
L 34.71875 47.703125 
L 19.921875 47.703125 
L 19.921875 0 
L 10.890625 0 
L 10.890625 47.703125 
L 2.296875 47.703125 
L 2.296875 54.6875 
L 10.890625 54.6875 
L 10.890625 58.5 
Q 10.890625 67.625 15.140625 71.796875 
Q 19.390625 75.984375 28.609375 75.984375 
z
" id="DejaVuSans-66"/>
   </defs>
   <g transform="translate(149.266875 361.006125)scale(0.12 -0.12)">
    <use xlink:href="#DejaVuSans-4e"/>
    <use x="74.804688" xlink:href="#DejaVuSans-75"/>
    <use x="138.183594" xlink:href="#DejaVuSans-6d"/>
    <use x="235.595703" xlink:href="#DejaVuSans-62"/>
    <use x="299.072266" xlink:href="#DejaVuSans-65"/>
    <use x="360.595703" xlink:href="#DejaVuSans-72"/>
    <use x="401.708984" xlink:href="#DejaVuSans-20"/>
    <use x="433.496094" xlink:href="#DejaVuSans-6f"/>
    <use x="494.677734" xlink:href="#DejaVuSans-66"/>
    <use x="529.882812" xlink:href="#DejaVuSans-20"/>
    <use x="561.669922" xlink:href="#DejaVuSans-50"/>
    <use x="621.925781" xlink:href="#DejaVuSans-6f"/>
    <use x="683.107422" xlink:href="#DejaVuSans-69"/>
    <use x="710.890625" xlink:href="#DejaVuSans-6e"/>
    <use x="774.269531" xlink:href="#DejaVuSans-74"/>
    <use x="813.478516" xlink:href="#DejaVuSans-73"/>
    <use x="865.578125" xlink:href="#DejaVuSans-3a"/>
    <use x="899.269531" xlink:href="#DejaVuSans-20"/>
    <use x="931.056641" xlink:href="#DejaVuSans-32"/>
    <use x="994.679688" xlink:href="#DejaVuSans-35"/>
    <use x="1058.302734" xlink:href="#DejaVuSans-30"/>
   </g>
  </g>
 </g>
 <defs>
  <clipPath id="p988661061b">
   <rect height="266.112" width="357.12" x="43.78125" y="22.318125"/>
  </clipPath>
 </defs>
</svg>
